<?xml version="1.0" standalone="no"?>
<!DOCTYPE svg PUBLIC "-//W3C//DTD SVG 20010904//EN"
 "http://www.w3.org/TR/2001/REC-SVG-20010904/DTD/svg10.dtd">
<svg version="1.0" xmlns="http://www.w3.org/2000/svg"
 width="149.000000pt" height="98.000000pt" viewBox="0 0 149.000000 98.000000"
 preserveAspectRatio="xMidYMid meet">

<g transform="translate(0.000000,98.000000) scale(0.100000,-0.100000)"
fill="#000000" stroke="none">
<path d="M438 935 c-5 -5 -8 -156 -8 -337 l0 -328 335 0 335 0 0 330 0 330
-148 0 c-82 0 -229 3 -328 6 -98 4 -182 3 -186 -1z m402 -120 c10 -11 9 -18
-4 -30 -15 -15 -17 -15 -32 0 -13 12 -14 19 -4 30 7 8 16 15 20 15 4 0 13 -7
20 -15z m-71 -40 c37 -18 41 -31 41 -119 l0 -73 -40 -3 c-89 -6 -186 -4 -211
3 -23 8 -25 6 -23 -22 1 -16 5 -34 8 -39 10 -17 106 -33 157 -26 33 4 49 3 49
-4 0 -24 -124 -28 -197 -6 -20 5 -23 3 -23 -20 0 -42 41 -61 130 -61 82 1 120
15 120 45 0 21 15 27 25 10 13 -21 -24 -59 -67 -71 -60 -16 -164 -6 -197 19
-26 19 -26 19 -29 180 l-2 161 25 17 c14 9 40 20 58 25 44 11 141 3 176 -16z
m171 -50 c10 -11 9 -18 -4 -30 -15 -15 -17 -15 -32 0 -13 12 -14 19 -4 30 7 8
16 15 20 15 4 0 13 -7 20 -15z m-56 -76 c8 -42 76 -109 110 -109 37 0 33 -26
-5 -34 -40 -8 -97 -65 -105 -105 -9 -42 -18 -39 -33 8 -13 45 -60 89 -102 98
-36 7 -39 33 -4 33 35 0 93 55 106 101 15 47 24 50 33 8z"/>
<path d="M568 758 c-67 -24 -13 -60 89 -60 67 -1 126 17 120 36 -11 33 -144
48 -209 24z"/>
<path d="M536 659 c0 -18 9 -38 19 -45 29 -21 117 -28 171 -12 47 13 49 15 52
51 3 37 3 38 -25 30 -36 -10 -149 -10 -188 0 -29 7 -30 6 -29 -24z"/>
<path d="M850 584 c-8 -14 -26 -32 -40 -40 l-26 -16 43 -43 43 -42 43 42 43
43 -29 17 c-15 9 -33 28 -39 41 -14 30 -21 30 -38 -2z"/>
<path d="M215 138 c-11 -29 -21 -56 -23 -60 -2 -4 1 -8 7 -8 6 0 11 7 11 15 0
20 59 20 66 0 4 -8 10 -15 14 -15 11 0 -35 113 -47 117 -5 2 -18 -20 -28 -49z
m41 -15 c-2 -3 -11 -3 -19 -1 -11 2 -12 9 -5 28 l10 25 9 -24 c5 -13 7 -26 5
-28z"/>
<path d="M861 134 c-12 -32 -19 -59 -16 -62 2 -3 7 3 11 12 8 21 62 22 70 1 4
-8 10 -15 14 -15 5 0 -3 27 -17 60 -15 33 -29 60 -33 60 -4 0 -17 -25 -29 -56z
m48 -6 c1 -5 -8 -8 -19 -8 -23 0 -24 4 -8 33 11 21 11 21 19 2 4 -11 8 -23 8
-27z"/>
<path d="M338 153 c-14 -3 -18 -14 -17 -46 l2 -42 6 35 c4 22 12 36 24 38 14
3 17 -4 18 -35 l2 -38 6 35 c9 50 41 55 41 6 0 -20 5 -36 10 -36 16 0 12 66
-5 80 -12 10 -18 10 -29 1 -10 -8 -16 -9 -21 -1 -6 10 -9 11 -37 3z"/>
<path d="M473 153 c-23 -9 -14 -20 12 -15 14 2 25 1 25 -2 0 -4 -11 -11 -25
-16 -15 -6 -25 -17 -25 -30 0 -16 7 -20 35 -20 33 0 35 2 35 33 0 46 -21 65
-57 50z m35 -55 c-3 -7 -11 -13 -18 -13 -7 0 -15 6 -17 13 -3 7 4 12 17 12 13
0 20 -5 18 -12z"/>
<path d="M550 150 c0 -5 10 -10 22 -10 21 0 21 -1 -5 -28 -15 -15 -27 -31 -27
-35 0 -4 19 -6 43 -6 29 2 34 3 15 6 -33 5 -34 7 -8 40 27 35 25 43 -10 43
-16 0 -30 -4 -30 -10z"/>
<path d="M646 147 c-38 -27 2 -95 42 -71 23 15 27 48 7 68 -20 19 -26 20 -49
3z m48 -24 c4 -9 0 -23 -9 -32 -13 -14 -17 -14 -31 1 -9 9 -14 24 -11 32 8 21
43 20 51 -1z"/>
<path d="M731 110 c2 -43 2 -44 8 -10 9 50 41 55 41 6 0 -20 5 -36 10 -36 14
0 12 67 -2 77 -7 4 -23 8 -35 8 -21 1 -23 -4 -22 -45z"/>
<path d="M1020 131 c0 -29 -21 -57 -33 -44 -4 3 -7 19 -7 35 0 15 -4 28 -10
28 -12 0 -13 -50 -2 -68 5 -6 20 -11 35 -10 25 2 27 6 27 45 0 24 -2 43 -5 43
-3 0 -5 -13 -5 -29z"/>
<path d="M1068 152 c-14 -2 -18 -13 -18 -43 0 -21 5 -39 10 -39 6 0 10 15 10
34 0 19 6 36 13 39 17 6 5 14 -15 9z"/>
<path d="M1121 146 c-7 -8 -11 -27 -9 -43 2 -22 9 -29 30 -31 22 -3 30 2 40
22 9 22 8 29 -7 46 -21 24 -38 25 -54 6z m47 -30 c5 -24 -10 -38 -31 -30 -17
6 -23 35 -10 48 12 12 38 1 41 -18z"/>
<path d="M1223 153 c-8 -3 -12 -21 -11 -46 1 -38 2 -39 5 -9 3 18 11 36 19 39
8 3 14 9 14 14 0 10 -8 10 -27 2z"/>
<path d="M1269 144 c-11 -13 -9 -14 14 -9 34 9 35 -2 1 -15 -37 -14 -28 -44
14 -48 30 -3 32 -2 32 30 0 52 -33 75 -61 42z m41 -43 c0 -14 -18 -23 -30 -16
-6 4 -8 11 -5 16 8 12 35 12 35 0z"/>
</g>
</svg>
