<svg width="1287" height="107" viewBox="0 0 1287 107" fill="none" xmlns="http://www.w3.org/2000/svg">
<path fill-rule="evenodd" clip-rule="evenodd" d="M20.5724 58.8698C24.4836 56.6116 24.4901 49.3006 20.5869 42.5403C16.6837 35.7799 10.3489 32.1302 6.43767 34.3885C2.52646 36.6467 2.51995 43.9576 6.42315 50.718C10.3263 57.4783 16.6612 61.128 20.5724 58.8698ZM20.5958 73.3454C24.499 80.1057 24.4925 87.4166 20.5813 89.6749C16.67 91.9331 10.3352 88.2834 6.43203 81.523C2.52883 74.7627 2.53533 67.4517 6.44655 65.1935C10.3578 62.9353 16.6926 66.585 20.5958 73.3454ZM47.2495 88.7551C51.1527 95.5154 51.1462 102.826 47.235 105.085C43.3238 107.343 36.9889 103.693 33.0857 96.9328C29.1826 90.1725 29.1891 82.8615 33.1003 80.6033C37.0115 78.3451 43.3463 81.9948 47.2495 88.7551ZM47.2408 57.9504C51.144 64.7107 51.1375 72.0217 47.2263 74.2799C43.3151 76.5381 36.9803 72.8884 33.0771 66.1281C29.1739 59.3678 29.1804 52.0568 33.0916 49.7986C37.0028 47.5404 43.3377 51.1901 47.2408 57.9504Z" fill="#F26E7E"/>
<path fill-rule="evenodd" clip-rule="evenodd" d="M100.561 50.7349C104.464 43.9746 104.458 36.6636 100.547 34.4054C96.6355 32.1472 90.3007 35.7969 86.3975 42.5572C82.4943 49.3176 82.5008 56.6285 86.412 58.8867C90.3232 61.1449 96.6581 57.4953 100.561 50.7349ZM100.562 65.2032C104.473 67.4614 104.48 74.7723 100.577 81.5327C96.6734 88.293 90.3385 91.9427 86.4273 89.6845C82.5161 87.4263 82.5096 80.1153 86.4128 73.355C90.316 66.5946 96.6508 62.9449 100.562 65.2032ZM73.9136 80.5876C77.8249 82.8458 77.8314 90.1568 73.9282 96.9171C70.025 103.677 63.6901 107.327 59.7789 105.069C55.8677 102.811 55.8612 95.4998 59.7644 88.7395C63.6676 81.9791 70.0024 78.3294 73.9136 80.5876ZM73.8986 49.7897C77.8098 52.0479 77.8163 59.3589 73.9131 66.1192C70.0099 72.8796 63.6751 76.5292 59.7638 74.271C55.8526 72.0128 55.8461 64.7019 59.7493 57.9415C63.6525 51.1812 69.9873 47.5315 73.8986 49.7897Z" fill="#8A3391"/>
<path fill-rule="evenodd" clip-rule="evenodd" d="M67.6222 8.17769C67.6222 12.6941 61.2939 16.3554 53.4875 16.3554C45.6811 16.3554 39.3528 12.6941 39.3528 8.17769C39.3528 3.66127 45.6811 0 53.4875 0C61.2939 0 67.6222 3.66127 67.6222 8.17769ZM40.974 23.5464C40.974 28.0628 34.6457 31.7241 26.8393 31.7241C19.0329 31.7241 12.7046 28.0628 12.7046 23.5464C12.7046 19.03 19.0329 15.3687 26.8393 15.3687C34.6457 15.3687 40.974 19.03 40.974 23.5464ZM80.1705 31.7241C87.9769 31.7241 94.3052 28.0628 94.3052 23.5464C94.3052 19.03 87.9769 15.3687 80.1705 15.3687C72.3641 15.3687 66.0358 19.03 66.0358 23.5464C66.0358 28.0628 72.3641 31.7241 80.1705 31.7241ZM67.6222 38.9496C67.6222 43.466 61.2939 47.1272 53.4875 47.1272C45.6811 47.1272 39.3528 43.466 39.3528 38.9496C39.3528 34.4332 45.6811 30.7719 53.4875 30.7719C61.2939 30.7719 67.6222 34.4332 67.6222 38.9496Z" fill="#F7BF2A"/>
<path d="M158.675 62.9995H169.306C182.786 62.9995 191.245 54.9475 191.245 42.8243C191.245 30.7464 182.786 22.6491 169.306 22.6491H150.533C148.904 22.6491 148 23.5539 148 25.1824V83.4461C148 85.0746 148.904 85.9793 150.533 85.9793H156.142C157.771 85.9793 158.675 85.0746 158.675 83.4461V62.9995ZM180.524 42.8243C180.524 49.6549 176.227 54.0428 168.627 54.0428H158.675V31.6511H168.627C176.227 31.6511 180.524 36.039 180.524 42.8243Z" fill="black"/>
<path d="M218.502 87.0198C224.473 87.0198 229.585 84.0794 232.751 79.782V83.4461C232.751 85.0746 233.656 85.9793 235.284 85.9793H240.577C242.205 85.9793 243.11 85.0746 243.11 83.4461V41.6482C243.11 40.0197 242.205 39.115 240.577 39.115H235.284C233.656 39.115 232.751 40.0197 232.751 41.6482V64.628C232.751 72.4086 227.142 77.8821 220.628 77.8821C214.385 77.8821 210.088 73.449 210.088 67.116V41.6482C210.088 40.0197 209.183 39.115 207.555 39.115H202.307C200.679 39.115 199.774 40.0197 199.774 41.6482V68.0207C199.774 79.5558 207.238 87.0198 218.502 87.0198Z" fill="black"/>
<path d="M256.4 22.4682V83.4461C256.4 85.0746 257.305 85.9793 258.934 85.9793H264.181C265.809 85.9793 266.714 85.0746 266.714 83.4461V22.4682C266.714 20.8397 265.809 19.935 264.181 19.935H258.934C257.305 19.935 256.4 20.8397 256.4 22.4682Z" fill="black"/>
<path d="M297.841 87.0198C303.812 87.0198 308.924 84.0794 312.091 79.782V83.4461C312.091 85.0746 312.995 85.9793 314.624 85.9793H319.916C321.545 85.9793 322.45 85.0746 322.45 83.4461V41.6482C322.45 40.0197 321.545 39.115 319.916 39.115H314.624C312.995 39.115 312.091 40.0197 312.091 41.6482V64.628C312.091 72.4086 306.481 77.8821 299.967 77.8821C293.725 77.8821 289.427 73.449 289.427 67.116V41.6482C289.427 40.0197 288.523 39.115 286.894 39.115H281.647C280.018 39.115 279.114 40.0197 279.114 41.6482V68.0207C279.114 79.5558 286.578 87.0198 297.841 87.0198Z" fill="black"/>
<path d="M390.339 38.0293C383.645 38.0293 377.945 41.8744 374.824 47.755C371.883 41.6934 365.957 38.0293 358.901 38.0293C353.427 38.0293 348.677 40.8792 345.42 45.2218V41.6482C345.42 40.0197 344.516 39.115 342.887 39.115H337.594C335.966 39.115 335.061 40.0197 335.061 41.6482V83.4461C335.061 85.0746 335.966 85.9793 337.594 85.9793H342.887C344.516 85.9793 345.42 85.0746 345.42 83.4461V60.1949C345.42 52.55 351.21 47.2122 356.774 47.2122C362.565 47.2122 366.5 51.6453 366.5 57.9783V83.4461C366.5 85.0746 367.405 85.9793 369.033 85.9793H374.326C375.954 85.9793 376.859 85.0746 376.859 83.4461V60.1949C376.859 53.0929 382.378 47.2122 388.213 47.2122C394.004 47.2122 397.939 51.6453 397.939 57.9783V83.4461C397.939 85.0746 398.844 85.9793 400.472 85.9793H405.765C407.393 85.9793 408.298 85.0746 408.298 83.4461V57.0736C408.298 45.5385 400.518 38.0293 390.339 38.0293Z" fill="black"/>
<path d="M419.424 26.3585C419.424 29.8869 422.183 32.6463 425.802 32.6463C429.421 32.6463 432.226 29.8869 432.226 26.3585C432.226 22.7849 429.421 20.0255 425.802 20.0255C422.183 20.0255 419.424 22.7849 419.424 26.3585ZM420.645 41.6482V83.4461C420.645 85.0746 421.55 85.9793 423.179 85.9793H428.426C430.054 85.9793 430.959 85.0746 430.959 83.4461V41.6482C430.959 40.0197 430.054 39.115 428.426 39.115H423.179C421.55 39.115 420.645 40.0197 420.645 41.6482Z" fill="black"/>
<path d="M527.21 68.4731L524.768 66.7089C523.456 65.7589 522.234 65.9399 521.239 67.2969C516.399 73.8561 509.659 77.7012 501.064 77.7012C489.529 77.7012 479.396 68.6992 479.396 54.3142C479.396 39.9745 489.303 30.9273 500.657 30.9273C508.257 30.9273 515.042 34.8628 518.118 42.2815C518.661 43.6386 519.566 44.3171 521.013 44.3171H527.075C528.884 44.3171 529.789 43.1862 529.201 41.4673C525.13 29.0726 514.635 21.5635 500.521 21.5635C482.563 21.5635 468.585 35.4961 468.585 54.3142C468.585 73.1776 482.563 87.065 500.521 87.065C512.599 87.065 521.601 82.0438 527.934 71.9562C528.794 70.5991 528.477 69.423 527.21 68.4731Z" fill="black"/>
<path d="M562.523 47.2122C563.292 47.2122 564.061 47.2574 564.83 47.3932C566.503 47.6646 567.499 47.0765 567.634 45.3123L567.996 41.0149C568.132 39.4316 567.453 38.3912 565.915 38.165C565.327 38.0746 564.694 38.0293 564.061 38.0293C558.089 38.0293 553.204 41.2411 550.218 45.5837V41.6482C550.218 40.0197 549.314 39.115 547.685 39.115H542.393C540.764 39.115 539.859 40.0197 539.859 41.6482V83.4461C539.859 85.0746 540.764 85.9793 542.393 85.9793H547.685C549.314 85.9793 550.218 85.0746 550.218 83.4461V60.5116C550.218 52.7762 555.963 47.2122 562.523 47.2122Z" fill="black"/>
<path d="M571.68 62.5472C571.68 76.1632 582.627 87.065 597.374 87.065C612.121 87.065 623.023 76.1632 623.023 62.5472C623.023 48.9312 612.121 38.0293 597.374 38.0293C582.627 38.0293 571.68 48.9312 571.68 62.5472ZM582.13 62.5472C582.13 54.0428 588.734 47.2122 597.374 47.2122C606.014 47.2122 612.618 54.0428 612.618 62.5472C612.618 71.0967 606.014 77.8821 597.374 77.8821C588.734 77.8821 582.13 71.0967 582.13 62.5472Z" fill="black"/>
<path d="M632.949 74.5799L631.683 76.0727C630.687 77.2488 630.597 78.4702 631.637 79.6463C635.844 84.3961 641.046 87.065 647.651 87.065C658.915 87.065 665.564 81.0034 665.564 72.9062C665.564 65.0351 660.453 60.1949 649.641 58.0236C643.761 56.8474 641.092 54.4499 641.092 51.5096C641.092 48.5693 643.896 46.5789 647.787 46.5789C650.863 46.5789 653.034 47.936 654.029 50.1073C654.662 51.5096 655.341 52.2334 656.834 52.2334H661.764C663.529 52.2334 664.524 51.1477 664.026 49.4288C661.9 42.191 655.929 38.0293 647.198 38.0293C637.201 38.0293 630.868 43.7291 630.868 51.3739C630.868 58.8831 635.89 63.9042 646.113 65.9399C652.808 67.2517 655.341 69.3778 655.341 72.7705C655.341 76.2536 652.22 78.5607 647.108 78.5607C643.037 78.5607 639.508 77.0226 636.523 74.4442C635.256 73.3133 634.035 73.3133 632.949 74.5799Z" fill="black"/>
<path d="M675.446 74.5799L674.18 76.0727C673.184 77.2488 673.094 78.4702 674.134 79.6463C678.341 84.3961 683.543 87.065 690.148 87.065C701.412 87.065 708.061 81.0034 708.061 72.9062C708.061 65.0351 702.95 60.1949 692.138 58.0236C686.257 56.8474 683.589 54.4499 683.589 51.5096C683.589 48.5693 686.393 46.5789 690.284 46.5789C693.36 46.5789 695.531 47.936 696.526 50.1073C697.159 51.5096 697.838 52.2334 699.331 52.2334H704.261C706.026 52.2334 707.021 51.1477 706.523 49.4288C704.397 42.191 698.426 38.0293 689.695 38.0293C679.698 38.0293 673.365 43.7291 673.365 51.3739C673.365 58.8831 678.386 63.9042 688.61 65.9399C695.305 67.2517 697.838 69.3778 697.838 72.7705C697.838 76.2536 694.717 78.5607 689.605 78.5607C685.534 78.5607 682.005 77.0226 679.02 74.4442C677.753 73.3133 676.532 73.3133 675.446 74.5799Z" fill="black"/>
<path d="M748.951 39.115H742.889C741.396 39.115 740.492 39.7935 740.085 41.2863L731.445 72.7252L722.533 41.2411C722.126 39.7935 721.221 39.115 719.729 39.115H714.3C712.491 39.115 711.677 40.2007 712.219 41.9649L725.292 83.8985C725.745 85.346 726.65 85.9793 728.142 85.9793H734.385C735.878 85.9793 736.782 85.3008 737.19 83.8533L745.92 52.731L754.696 83.8533C755.103 85.3008 756.008 85.9793 757.5 85.9793H763.743C765.236 85.9793 766.141 85.346 766.593 83.8985L779.666 41.9649C780.209 40.2007 779.395 39.115 777.585 39.115H772.112C770.619 39.115 769.714 39.7935 769.307 41.2411L760.441 72.7252L751.756 41.2863C751.348 39.8388 750.444 39.115 748.951 39.115Z" fill="black"/>
<path d="M783.811 62.5472C783.811 76.2084 793.492 87.065 806.701 87.065C813.531 87.065 819.231 84.2151 823.167 79.6463V83.4461C823.167 85.0746 824.071 85.9793 825.7 85.9793H830.902C832.53 85.9793 833.435 85.0746 833.435 83.4461V41.6482C833.435 40.0197 832.53 39.115 830.902 39.115H825.7C824.071 39.115 823.167 40.0197 823.167 41.6482V45.4932C819.231 40.8792 813.531 38.0293 806.701 38.0293C793.492 38.0293 783.811 48.9312 783.811 62.5472ZM794.261 62.5472C794.261 54.0428 800.413 47.2122 808.736 47.2122C817.06 47.2122 823.167 54.0428 823.167 62.5472C823.167 71.0967 816.969 77.8821 808.736 77.8821C800.503 77.8821 794.261 71.0967 794.261 62.5472Z" fill="black"/>
<path d="M846.763 22.4682V83.4461C846.763 85.0746 847.668 85.9793 849.297 85.9793H854.544C856.173 85.9793 857.077 85.0746 857.077 83.4461V22.4682C857.077 20.8397 856.173 19.935 854.544 19.935H849.297C847.668 19.935 846.763 20.8397 846.763 22.4682Z" fill="black"/>
<path d="M905.077 39.115H899.83C898.202 39.115 897.387 40.0197 897.252 41.6934C896.528 51.8715 891.507 55.6261 885.219 55.6261H880.741V22.4682C880.741 20.8397 879.836 19.935 878.207 19.935H872.915C871.286 19.935 870.382 20.8397 870.382 22.4682V83.4461C870.382 85.0746 871.286 85.9793 872.915 85.9793H878.207C879.836 85.9793 880.741 85.0746 880.741 83.4461V64.4923H887.209L898.699 84.2604C899.378 85.4365 900.328 85.9793 901.685 85.9793H907.837C909.827 85.9793 910.596 84.6675 909.556 82.9485L897.297 62.14C903.404 58.7021 907.068 51.781 907.565 41.7387C907.656 40.0197 906.706 39.115 905.077 39.115Z" fill="black"/>
<path d="M970.87 26.2228V22.7396C970.87 21.1564 970.056 20.2064 968.518 20.0707C967.613 19.9802 966.708 19.935 965.804 19.935C953.952 19.935 948.207 25.3181 948.207 36.3556V39.115H942.055C940.426 39.115 939.522 40.0197 939.522 41.6482V45.629C939.522 47.2574 940.426 48.1622 942.055 48.1622H948.207V83.4461C948.207 85.0746 949.112 85.9793 950.74 85.9793H955.988C957.616 85.9793 958.521 85.0746 958.521 83.4461V48.1622H968.337C969.965 48.1622 970.87 47.2574 970.87 45.629V41.6482C970.87 40.0197 969.965 39.115 968.337 39.115H958.521V36.4913C958.521 31.244 960.783 28.6203 966.708 28.6203C967.342 28.6203 968.066 28.6203 968.789 28.6655C970.146 28.756 970.87 27.8965 970.87 26.2228Z" fill="black"/>
<path d="M975.092 62.5472C975.092 76.1632 986.039 87.065 1000.79 87.065C1015.53 87.065 1026.43 76.1632 1026.43 62.5472C1026.43 48.9312 1015.53 38.0293 1000.79 38.0293C986.039 38.0293 975.092 48.9312 975.092 62.5472ZM985.541 62.5472C985.541 54.0428 992.146 47.2122 1000.79 47.2122C1009.43 47.2122 1016.03 54.0428 1016.03 62.5472C1016.03 71.0967 1009.43 77.8821 1000.79 77.8821C992.146 77.8821 985.541 71.0967 985.541 62.5472Z" fill="black"/>
<path d="M1058.53 47.2122C1059.3 47.2122 1060.06 47.2574 1060.83 47.3932C1062.51 47.6646 1063.5 47.0765 1063.64 45.3123L1064 41.0149C1064.14 39.4316 1063.46 38.3912 1061.92 38.165C1061.33 38.0746 1060.7 38.0293 1060.06 38.0293C1054.09 38.0293 1049.21 41.2411 1046.22 45.5837V41.6482C1046.22 40.0197 1045.32 39.115 1043.69 39.115H1038.4C1036.77 39.115 1035.86 40.0197 1035.86 41.6482V83.4461C1035.86 85.0746 1036.77 85.9793 1038.4 85.9793H1043.69C1045.32 85.9793 1046.22 85.0746 1046.22 83.4461V60.5116C1046.22 52.7762 1051.97 47.2122 1058.53 47.2122Z" fill="black"/>
<path d="M1127.97 22.6491H1120.47C1119.02 22.6491 1118.07 23.2824 1117.57 24.6848L1096.08 83.0842C1095.45 84.8484 1096.26 85.9793 1098.12 85.9793H1104.27C1105.72 85.9793 1106.67 85.3008 1107.17 83.9437L1111.74 70.6896H1136.66L1141.23 83.9437C1141.73 85.3008 1142.68 85.9793 1144.12 85.9793H1150.28C1152.13 85.9793 1152.95 84.8484 1152.31 83.0842L1130.87 24.6848C1130.37 23.2824 1129.42 22.6491 1127.97 22.6491ZM1133.77 61.7782H1114.68L1124.22 34.2295L1133.77 61.7782Z" fill="black"/>
<path d="M1196.16 22.6491H1190.01C1188.52 22.6491 1187.61 23.3277 1187.21 24.7752L1174.36 70.8253L1162.46 24.8205C1162.1 23.3277 1161.15 22.6491 1159.66 22.6491H1153.69C1151.88 22.6491 1151.06 23.78 1151.56 25.499L1168.03 83.8533C1168.43 85.3008 1169.34 85.9793 1170.83 85.9793H1177.07C1178.57 85.9793 1179.47 85.3008 1179.88 83.8533L1193.09 37.2603L1206.25 83.8533C1206.66 85.3008 1207.56 85.9793 1209.06 85.9793H1215.34C1216.84 85.9793 1217.74 85.3008 1218.15 83.8533L1234.61 25.499C1235.11 23.78 1234.3 22.6491 1232.49 22.6491H1226.52C1225.02 22.6491 1224.08 23.3277 1223.71 24.8205L1211.77 70.8253L1198.97 24.8205C1198.56 23.3729 1197.66 22.6491 1196.16 22.6491Z" fill="black"/>
<path d="M1245 71.5491L1243.37 73.3133C1242.33 74.4442 1242.2 75.6656 1243.24 76.8869C1248.8 83.4009 1255.95 87.065 1263.55 87.065C1277.66 87.065 1286.3 79.3297 1286.3 68.5183C1286.3 58.7473 1280.47 52.2334 1266.17 48.9764C1256.81 46.8503 1252.87 43.5481 1252.87 38.5269C1252.87 33.9129 1257.17 30.7916 1263.1 30.7916C1268.34 30.7916 1272.42 33.2343 1273.68 37.8484C1274.13 39.3864 1274.9 40.1554 1276.44 40.1554H1282.19C1283.91 40.1554 1284.9 39.1602 1284.58 37.4413C1282.59 26.6299 1273.14 21.5635 1262.64 21.5635C1250.52 21.5635 1242.06 28.8465 1242.06 39.2959C1242.06 48.5241 1248.71 54.9475 1261.56 57.6617C1272.19 59.8783 1275.49 63.8138 1275.49 68.7445C1275.49 74.2632 1270.38 77.8369 1263.23 77.8369C1257.53 77.8369 1252.69 75.3037 1248.58 71.5039C1247.36 70.3277 1246.13 70.3277 1245 71.5491Z" fill="black"/>
</svg>
