<svg width="60" height="60" viewBox="0 0 60 60" fill="none" xmlns="http://www.w3.org/2000/svg">
<path d="M48.3 23.8333C48.1596 19.3167 46.243 15.0379 42.9664 11.926C39.6898 8.81422 35.3178 7.12072 30.8 7.21333C27.1459 7.16999 23.5692 8.26689 20.5676 10.3514C17.566 12.4359 15.289 15.4042 14.0533 18.8433C10.2054 19.3636 6.67144 21.2462 4.09295 24.1494C1.51445 27.0527 0.0622823 30.7842 0 34.6667C0.115224 39.0338 1.95904 43.1766 5.12649 46.1854C8.29395 49.1941 12.5261 50.8226 16.8933 50.7133H46.0667C49.6807 50.6231 53.1265 49.168 55.7114 46.6406C58.2962 44.1133 59.8285 40.701 60 37.09C59.9331 33.8534 58.7209 30.7453 56.5787 28.3181C54.4366 25.8909 51.5032 24.3019 48.3 23.8333V23.8333Z" fill="url(#paint0_linear_3-19)"/>
<path d="M43 38V26.6667H40V40.4333H48.2V38H43ZM19.2 32.4333C18.5805 32.1845 18.0061 31.8354 17.5 31.4C17.3657 31.2578 17.2612 31.0902 17.1925 30.907C17.1238 30.7238 17.0923 30.5288 17.1 30.3333C17.0904 30.1378 17.1314 29.943 17.219 29.7678C17.3066 29.5927 17.4378 29.443 17.6 29.3333C18.0103 29.0504 18.5021 28.9098 19 28.9333C20.1872 28.88 21.3589 29.2198 22.3333 29.9V27.0333C21.2684 26.6371 20.1354 26.4558 19 26.5C17.6923 26.4307 16.4031 26.8328 15.3667 27.6333C14.915 27.9816 14.5525 28.4322 14.3091 28.9479C14.0657 29.4637 13.9483 30.03 13.9667 30.6C13.9667 32.3 15.0333 33.6333 17.3 34.6333C18.0358 34.9465 18.7299 35.3496 19.3667 35.8333C19.5227 35.964 19.6483 36.1271 19.7346 36.3114C19.821 36.4956 19.8661 36.6965 19.8667 36.9C19.8665 37.1023 19.818 37.3016 19.7252 37.4813C19.6324 37.661 19.4981 37.816 19.3333 37.9333C18.88 38.1997 18.3584 38.3272 17.8333 38.3C16.4926 38.2889 15.2015 37.7915 14.2 36.9V40C15.3009 40.5672 16.5289 40.8426 17.7667 40.8C19.1639 40.8836 20.5488 40.4963 21.7 39.7C22.1067 39.3148 22.4179 38.8401 22.6089 38.3135C22.7998 37.7869 22.8653 37.223 22.8 36.6667C22.8166 35.8132 22.5202 34.9832 21.9667 34.3333C21.1875 33.5134 20.245 32.8661 19.2 32.4333V32.4333ZM36.6667 37.7333C37.3905 36.5735 37.7742 35.2338 37.7742 33.8667C37.7742 32.4995 37.3905 31.1598 36.6667 30C36.1466 28.9589 35.3362 28.0906 34.3333 27.5C33.3173 26.9241 32.1678 26.6253 31 26.6333C29.7411 26.606 28.4979 26.9168 27.4 27.5333C26.3705 28.107 25.5263 28.9628 24.9667 30C24.3772 31.1788 24.0799 32.4822 24.1 33.8C24.1065 34.9579 24.3803 36.0986 24.9 37.1333C25.4097 38.1623 26.2092 39.0197 27.2 39.6C28.2066 40.2146 29.3547 40.559 30.5333 40.6L33.4 43.9333H37.4333L33.3333 40.2667C34.714 39.8526 35.898 38.9527 36.6667 37.7333V37.7333ZM33.3333 36.9C33.0297 37.2767 32.643 37.578 32.2035 37.7804C31.764 37.9828 31.2836 38.0808 30.8 38.0667C30.3126 38.0835 29.8282 37.9834 29.3875 37.7746C28.9467 37.5658 28.5624 37.2545 28.2667 36.8667C27.5628 35.9036 27.2206 34.7235 27.3 33.5333C27.2223 32.3434 27.5644 31.1638 28.2667 30.2C28.5804 29.8133 28.9768 29.5017 29.4267 29.2883C29.8766 29.0749 30.3687 28.965 30.8667 28.9667C31.3535 28.9454 31.8378 29.0472 32.2748 29.2628C32.7118 29.4784 33.0873 29.8008 33.3667 30.2C34.0236 31.1826 34.3398 32.3537 34.2667 33.5333C34.3833 34.7324 34.0507 35.9321 33.3333 36.9V36.9Z" fill="#F2F2F2"/>
<defs>
<linearGradient id="paint0_linear_3-19" x1="33.0267" y1="53.1433" x2="25.0533" y2="7.94333" gradientUnits="userSpaceOnUse">
<stop offset="0.15" stop-color="#0078D4"/>
<stop offset="0.8" stop-color="#5EA0EF"/>
<stop offset="1" stop-color="#83B9F9"/>
</linearGradient>
</defs>
</svg>
