<?xml version="1.0" encoding="utf-8"?>
<!-- Generator: Adobe Illustrator 25.4.1, SVG Export Plug-In . SVG Version: 6.00 Build 0)  -->
<svg version="1.1" id="Layer_1" xmlns="http://www.w3.org/2000/svg" xmlns:xlink="http://www.w3.org/1999/xlink" x="0px" y="0px"
	 viewBox="0 0 18 14" style="enable-background:new 0 0 18 14;" xml:space="preserve">
<style type="text/css">
	.st0{fill:url(#SVGID_1_);}
	.st1{fill:#F2F2F2;}
</style>
<linearGradient id="SVGID_1_" gradientUnits="userSpaceOnUse" x1="9.9124" y1="-6.138609e-02" x2="7.5204" y2="13.4986" gradientTransform="matrix(1 0 0 -1 0 13.8898)">
	<stop  offset="0.15" style="stop-color:#0078D4"/>
	<stop  offset="0.8" style="stop-color:#5EA0EF"/>
	<stop  offset="1" style="stop-color:#83B9F9"/>
</linearGradient>
<path class="st0" d="M14.5,5.1c0-1.4-0.6-2.6-1.6-3.6c-1-0.9-2.3-1.4-3.6-1.4c-1.1,0-2.2,0.3-3.1,0.9c-0.9,0.6-1.6,1.5-2,2.5
	C3.1,3.8,2,4.4,1.2,5.2C0.5,6.1,0,7.2,0,8.4c0,1.3,0.6,2.6,1.5,3.5c1,0.9,2.2,1.4,3.5,1.4h8.8c1.1,0,2.1-0.5,2.9-1.2
	c0.8-0.8,1.2-1.8,1.3-2.9c0-1-0.4-1.9-1-2.6C16.3,5.8,15.5,5.3,14.5,5.1z"/>
<path class="st1" d="M12.9,9.4V6H12v4.1h2.5V9.4H12.9z M5.8,7.7C5.6,7.7,5.4,7.6,5.3,7.4c0,0-0.1-0.1-0.1-0.1c0-0.1,0-0.1,0-0.2
	c0-0.1,0-0.1,0-0.2c0-0.1,0.1-0.1,0.1-0.1c0.1-0.1,0.3-0.1,0.4-0.1c0.4,0,0.7,0.1,1,0.3V6.1C6.4,6,6,5.9,5.7,5.9
	C5.3,5.9,4.9,6,4.6,6.3C4.5,6.4,4.4,6.5,4.3,6.7C4.2,6.8,4.2,7,4.2,7.2c0,0.5,0.3,0.9,1,1.2c0.2,0.1,0.4,0.2,0.6,0.4
	c0,0,0.1,0.1,0.1,0.1c0,0.1,0,0.1,0,0.2c0,0.1,0,0.1,0,0.2c0,0.1-0.1,0.1-0.1,0.1C5.7,9.5,5.5,9.5,5.4,9.5c-0.4,0-0.8-0.2-1.1-0.4
	V10c0.3,0.2,0.7,0.3,1.1,0.2c0.4,0,0.8-0.1,1.2-0.3c0.1-0.1,0.2-0.3,0.3-0.4C6.8,9.3,6.9,9.2,6.8,9c0-0.3-0.1-0.5-0.2-0.7
	C6.4,8.1,6.1,7.9,5.8,7.7z M11,9.3c0.2-0.3,0.3-0.7,0.3-1.2c0-0.4-0.1-0.8-0.3-1.2c-0.2-0.3-0.4-0.6-0.7-0.8C10,6.1,9.7,6,9.3,6
	C8.9,6,8.5,6.1,8.2,6.3C7.9,6.4,7.7,6.7,7.5,7C7.3,7.4,7.2,7.7,7.2,8.1c0,0.3,0.1,0.7,0.2,1c0.2,0.3,0.4,0.6,0.7,0.7
	c0.3,0.2,0.6,0.3,1,0.3l0.9,1h1.2L10,10.1C10.4,10,10.8,9.7,11,9.3z M10,9.1C9.9,9.2,9.8,9.3,9.7,9.3C9.5,9.4,9.4,9.4,9.2,9.4
	c-0.1,0-0.3,0-0.4-0.1C8.7,9.3,8.6,9.2,8.5,9.1c-0.2-0.3-0.3-0.6-0.3-1c0-0.4,0.1-0.7,0.3-1c0.1-0.1,0.2-0.2,0.3-0.3
	C9,6.7,9.1,6.7,9.3,6.7c0.1,0,0.3,0,0.4,0.1C9.8,6.8,9.9,6.9,10,7.1c0.2,0.3,0.3,0.6,0.3,1C10.3,8.4,10.2,8.8,10,9.1z"/>
</svg>
