<svg width="18" height="14" viewBox="0 0 18 14" fill="none" xmlns="http://www.w3.org/2000/svg">
<path d="M14.5 5.09961C14.5 3.69961 13.9 2.49961 12.9 1.49961C11.9 0.599609 10.6 0.0996094 9.3 0.0996094C8.2 0.0996094 7.1 0.399609 6.2 0.999609C5.3 1.59961 4.6 2.49961 4.2 3.49961C3.1 3.79961 2 4.39961 1.2 5.19961C0.5 6.09961 0 7.19961 0 8.39961C0 9.69961 0.6 10.9996 1.5 11.8996C2.5 12.7996 3.7 13.2996 5 13.2996H13.8C14.9 13.2996 15.9 12.7996 16.7 12.0996C17.5 11.2996 17.9 10.2996 18 9.19961C18 8.19961 17.6 7.29961 17 6.59961C16.3 5.79961 15.5 5.29961 14.5 5.09961Z" fill="url(#paint0_linear_103:10)"/>
<path d="M12.9 9.40039V6.00039H12V10.1004H14.5V9.40039H12.9ZM5.80001 7.70039C5.60001 7.70039 5.40001 7.60039 5.30001 7.40039L5.20001 7.30039C5.20001 7.20039 5.20001 7.20039 5.20001 7.10039C5.20001 7.00039 5.20001 7.00039 5.20001 6.90039C5.20001 6.80039 5.30001 6.80039 5.30001 6.80039C5.40001 6.70039 5.60001 6.70039 5.70001 6.70039C6.10001 6.70039 6.40001 6.80039 6.70001 7.00039V6.10039C6.40001 6.00039 6.00001 5.90039 5.70001 5.90039C5.30001 5.90039 4.90001 6.00039 4.60001 6.30039C4.50001 6.40039 4.40001 6.50039 4.30001 6.70039C4.20001 6.80039 4.20001 7.00039 4.20001 7.20039C4.20001 7.70039 4.50001 8.10039 5.20001 8.40039C5.40001 8.50039 5.60001 8.60039 5.80001 8.80039L5.90001 8.90039C5.90001 9.00039 5.90001 9.00039 5.90001 9.10039C5.90001 9.20039 5.90001 9.20039 5.90001 9.30039C5.90001 9.40039 5.80001 9.40039 5.80001 9.40039C5.70001 9.50039 5.50001 9.50039 5.40001 9.50039C5.00001 9.50039 4.60001 9.30039 4.30001 9.10039V10.0004C4.60001 10.2004 5.00001 10.3004 5.40001 10.2004C5.80001 10.2004 6.20001 10.1004 6.60001 9.90039C6.70001 9.80039 6.80001 9.60039 6.90001 9.50039C6.80001 9.30039 6.90001 9.20039 6.80001 9.00039C6.80001 8.70039 6.70001 8.50039 6.60001 8.30039C6.40001 8.10039 6.10001 7.90039 5.80001 7.70039ZM11 9.30039C11.2 9.00039 11.3 8.60039 11.3 8.10039C11.3 7.70039 11.2 7.30039 11 6.90039C10.8 6.60039 10.6 6.30039 10.3 6.10039C10 6.10039 9.70001 6.00039 9.30001 6.00039C8.90001 6.00039 8.50001 6.10039 8.20001 6.30039C7.90001 6.40039 7.70001 6.70039 7.50001 7.00039C7.30001 7.40039 7.20001 7.70039 7.20001 8.10039C7.20001 8.40039 7.30001 8.80039 7.40001 9.10039C7.60001 9.40039 7.80001 9.70039 8.10001 9.80039C8.40001 10.0004 8.70001 10.1004 9.10001 10.1004L10 11.1004H11.2L10 10.1004C10.4 10.0004 10.8 9.70039 11 9.30039ZM10 9.10039C9.90001 9.20039 9.80001 9.30039 9.70001 9.30039C9.50001 9.40039 9.40001 9.40039 9.20001 9.40039C9.10001 9.40039 8.90001 9.40039 8.80001 9.30039C8.70001 9.30039 8.60001 9.20039 8.50001 9.10039C8.30001 8.80039 8.20001 8.50039 8.20001 8.10039C8.20001 7.70039 8.30001 7.40039 8.50001 7.10039C8.60001 7.00039 8.70001 6.90039 8.80001 6.80039C9.00001 6.70039 9.10001 6.70039 9.30001 6.70039C9.40001 6.70039 9.60001 6.70039 9.70001 6.80039C9.80001 6.80039 9.90001 6.90039 10 7.10039C10.2 7.40039 10.3 7.70039 10.3 8.10039C10.3 8.40039 10.2 8.80039 10 9.10039Z" fill="#F2F2F2"/>
<defs>
<linearGradient id="paint0_linear_103:10" x1="9.9124" y1="13.9508" x2="7.5204" y2="0.390809" gradientUnits="userSpaceOnUse">
<stop offset="0.15" stop-color="#0078D4"/>
<stop offset="0.8" stop-color="#5EA0EF"/>
<stop offset="1" stop-color="#83B9F9"/>
</linearGradient>
</defs>
</svg>
