<?xml version="1.0" encoding="utf-8"?>
<!-- Generator: Adobe Illustrator 25.4.1, SVG Export Plug-In . SVG Version: 6.00 Build 0)  -->
<svg version="1.1" id="Layer_1" xmlns="http://www.w3.org/2000/svg" xmlns:xlink="http://www.w3.org/1999/xlink" x="0px" y="0px"
	 viewBox="0 0 58 58" style="enable-background:new 0 0 58 58;" xml:space="preserve">
<style type="text/css">
	.st0{fill:url(#SVGID_1_);}
	.st1{fill:#FFFFFF;}
</style>
<linearGradient id="SVGID_1_" gradientUnits="userSpaceOnUse" x1="-12.01" y1="-12.1202" x2="70.01" y2="69.8998" gradientTransform="matrix(1 0 0 -1 0 57.8898)">
	<stop  offset="0" style="stop-color:#C8511B"/>
	<stop  offset="1" style="stop-color:#FF9900"/>
</linearGradient>
<path class="st0" d="M58,0H0v58h58V0z"/>
<path class="st1" d="M29,49.9c-0.1,0-0.3,0-0.4-0.1L10.8,39.5c-0.1-0.1-0.2-0.2-0.3-0.3s-0.1-0.3-0.1-0.4V18.3c0-0.1,0-0.3,0.1-0.4
	c0.1-0.1,0.2-0.2,0.3-0.3l16.2-9.4c0.1-0.1,0.3-0.1,0.4-0.1c0.1,0,0.3,0,0.4,0.1s0.2,0.2,0.3,0.3c0.1,0.1,0.1,0.3,0.1,0.4v8.9
	c0,0.1,0,0.3-0.1,0.4c-0.1,0.1-0.2,0.2-0.3,0.3l-8.1,4.7v10.7l9.3,5.4l8.1-4.6c0.1-0.1,0.3-0.1,0.4-0.1s0.3,0,0.4,0.1l7.7,4.5
	c0.1,0.1,0.2,0.2,0.3,0.3c0.1,0.1,0.1,0.3,0.1,0.4c0,0.1,0,0.3-0.1,0.4c-0.1,0.1-0.2,0.2-0.3,0.3l-16.2,9.3
	C29.3,49.9,29.1,49.9,29,49.9z M12,38.4l17,9.8l14.7-8.5l-6.2-3.6l-8.1,4.7C29.3,40.9,29.1,41,29,41c-0.1,0-0.3,0-0.4-0.1L18.6,35
	c-0.1-0.1-0.2-0.2-0.3-0.3c-0.1-0.1-0.1-0.3-0.1-0.4V22.8c0-0.1,0-0.3,0.1-0.4c0.1-0.1,0.2-0.2,0.3-0.3l8.1-4.7v-7.2L12,18.7V38.4z"
	/>
<path class="st1" d="M46.8,37.8c-0.1,0-0.3,0-0.4-0.1l-7.7-4.4c-0.1-0.1-0.2-0.2-0.3-0.3c-0.1-0.1-0.1-0.3-0.1-0.4v-9.4l-8.2-4.6
	c-0.1-0.1-0.2-0.2-0.3-0.3c-0.1-0.1-0.1-0.3-0.1-0.4V9c0-0.1,0-0.3,0.1-0.4c0.1-0.1,0.2-0.2,0.3-0.3c0.1-0.1,0.3-0.1,0.4-0.1
	s0.3,0,0.4,0.1l16.2,9.3c0.1,0.1,0.2,0.2,0.3,0.3c0.1,0.1,0.1,0.3,0.1,0.4v18.8c0,0.2-0.1,0.4-0.2,0.5C47.2,37.8,47,37.8,46.8,37.8z
	 M39.8,32.2l6.2,3.5v-17l-14.7-8.4v7.1l8.1,4.6c0.1,0.1,0.2,0.2,0.3,0.3c0.1,0.1,0.1,0.2,0.1,0.4V32.2z"/>
<path class="st1" d="M25.1,34.4V22.8h1.6v5.3l5-5.3h2l-5.2,5.6l5.7,6h-2.1L26.7,29v5.4H25.1z"/>
</svg>
