<?xml version="1.0" standalone="no"?>
<!DOCTYPE svg PUBLIC "-//W3C//DTD SVG 20010904//EN"
 "http://www.w3.org/TR/2001/REC-SVG-20010904/DTD/svg10.dtd">
<svg version="1.0" xmlns="http://www.w3.org/2000/svg"
 width="313.000000pt" height="161.000000pt" viewBox="0 0 313.000000 161.000000"
 preserveAspectRatio="xMidYMid meet">

<g transform="translate(0.000000,161.000000) scale(0.100000,-0.100000)"
fill="#000000" stroke="none">
<path d="M325 1395 c-137 -89 -254 -170 -260 -179 -7 -11 -6 -21 1 -33 10 -16
456 -313 470 -313 2 0 3 51 2 113 l-3 112 -34 5 c-60 9 -59 25 9 143 43 74 67
107 80 107 12 0 37 -33 80 -107 67 -115 69 -135 14 -141 -16 -2 -32 -9 -36
-15 -10 -16 -10 -217 0 -216 16 2 456 295 466 312 8 12 8 22 1 33 -13 21 -510
344 -528 343 -6 0 -124 -74 -262 -164z"/>
<path d="M1459 1189 c-48 -29 -71 -71 -78 -143 l-6 -61 -42 -3 c-42 -3 -43 -4
-43 -38 0 -34 0 -34 45 -34 l45 0 0 -245 0 -245 40 0 40 0 0 245 0 245 60 0
60 0 0 35 0 35 -54 0 c-30 0 -58 5 -61 11 -14 21 6 101 32 126 21 22 31 25 68
21 42 -5 44 -4 50 24 4 16 4 32 1 36 -4 3 -32 7 -64 9 -45 3 -65 -1 -93 -18z"/>
<path d="M1720 810 l0 -390 45 0 45 0 0 390 0 390 -45 0 -45 0 0 -390z"/>
<path d="M1970 753 c0 -265 4 -282 80 -321 79 -41 203 -18 278 51 l22 20 0
-41 0 -42 40 0 40 0 0 280 0 280 -40 0 -40 0 0 -203 0 -203 -27 -26 c-44 -41
-88 -58 -147 -58 -47 0 -61 4 -88 29 l-33 29 -3 216 -3 216 -40 0 -39 0 0
-227z"/>
<path d="M2560 975 c0 -3 40 -59 88 -123 49 -64 92 -123 96 -130 5 -8 -27 -59
-91 -145 -55 -73 -102 -138 -107 -144 -5 -10 5 -13 41 -13 l48 0 84 117 85
116 23 -29 c13 -16 51 -68 86 -116 l62 -87 48 -1 c26 0 47 2 47 5 0 3 -48 69
-106 146 l-105 140 100 135 101 134 -50 0 -50 0 -71 -97 c-39 -54 -75 -101
-78 -105 -4 -4 -40 39 -81 97 l-75 105 -47 0 c-27 0 -48 -2 -48 -5z"/>
<path d="M643 738 c2 -13 32 -29 78 -43 13 -4 3 7 -24 24 -53 35 -58 36 -54
19z"/>
<path d="M466 708 c-17 -10 -16 -13 20 -34 49 -30 54 -30 54 -1 0 16 -9 28
-25 35 -30 14 -25 14 -49 0z"/>
<path d="M361 641 c-22 -14 -2 -33 72 -69 91 -44 107 -48 107 -23 0 18 -40 42
-160 98 -3 2 -11 -1 -19 -6z"/>
<path d="M645 628 c1 -19 17 -25 131 -55 147 -39 238 -78 302 -130 35 -29 43
-32 41 -17 -3 11 -47 48 -104 86 -92 62 -112 70 -234 103 -73 19 -134 35 -135
35 -1 0 -2 -10 -1 -22z"/>
<path d="M252 568 c-21 -21 78 -82 202 -124 85 -29 88 -29 84 -4 -2 16 -22 27
-84 49 -45 15 -102 42 -128 59 -52 36 -57 37 -74 20z"/>
<path d="M644 520 c0 -15 10 -23 41 -31 124 -31 211 -65 271 -106 48 -32 71
-42 87 -37 20 6 19 9 -18 41 -54 47 -132 86 -235 116 -133 40 -146 41 -146 17z"/>
<path d="M144 498 c-11 -17 49 -63 131 -103 39 -18 140 -52 225 -74 96 -25
185 -56 233 -80 72 -36 107 -43 107 -21 0 13 -54 48 -117 76 -32 14 -125 44
-208 65 -159 42 -227 69 -299 118 -49 34 -61 37 -72 19z"/>
<path d="M60 420 c0 -35 161 -133 262 -159 194 -51 267 -74 326 -103 57 -28
64 -30 79 -16 14 15 8 20 -68 56 -46 22 -131 52 -189 67 -167 42 -255 73 -318
115 -33 21 -63 43 -66 49 -11 18 -26 13 -26 -9z"/>
<path d="M647 411 c-4 -16 3 -21 42 -32 66 -18 150 -56 188 -85 31 -24 73 -26
73 -4 0 15 -108 80 -172 104 -100 37 -124 41 -131 17z"/>
<path d="M422 164 c16 -15 164 -104 174 -104 6 0 17 6 23 13 12 16 -36 43
-135 77 -60 21 -71 24 -62 14z"/>
</g>
</svg>
