<svg width="40" height="40" viewBox="0 0 40 40" fill="none" xmlns="http://www.w3.org/2000/svg">
<rect x="0.125" y="2.28717" width="39.75" height="37.5878" rx="0.125" stroke="#202124" stroke-width="0.25"/>
<path d="M0 0.25C0 0.111929 0.111929 0 0.25 0H39.75C39.8881 0 40 0.111929 40 0.25V2.75H0V0.25Z" fill="#202124"/>
<circle cx="1.11438" cy="1.35449" r="0.35" fill="#FF6058" stroke="#E14942" stroke-width="0.05"/>
<circle cx="2.2644" cy="1.35449" r="0.35" fill="#FFC130" stroke="#E1A325" stroke-width="0.05"/>
<circle cx="3.41443" cy="1.35449" r="0.35" fill="#27CA40" stroke="#3EAF3F" stroke-width="0.05"/>
<g clip-path="url(#clip0_1_669)">
<path d="M31.952 17.5655C31.3027 15.2472 29.9992 13.2059 28.2493 11.6455L24.3773 15.5175C25.7895 16.667 26.7419 18.3587 26.9154 20.2737V21.5436C26.9373 21.5436 26.9575 21.5368 26.9794 21.5368C28.9347 21.5368 30.5263 23.1284 30.5263 25.0838C30.5263 27.0392 28.9347 28.6316 26.9794 28.6316C26.9575 28.6316 26.9373 28.6257 26.9154 28.6248V28.6316H21.3019H20V34.1053H26.9154V34.1019C26.9373 34.1019 26.9575 34.1053 26.9794 34.1053C31.9537 34.1053 36 30.0581 36 25.0846C36 21.9478 34.3882 19.1823 31.952 17.5655Z" fill="#1976D2"/>
<path opacity="0.5" d="M16.261 23.6548L20.2357 19.68C20.2324 19.6758 20.229 19.6724 20.2265 19.6691L16.2543 23.6413C16.256 23.6455 16.2585 23.6497 16.261 23.6548Z" fill="#FFE082"/>
<path opacity="0.5" d="M16.261 23.6548L20.2357 19.68C20.2324 19.6758 20.229 19.6724 20.2265 19.6691L16.2543 23.6413C16.256 23.6455 16.2585 23.6497 16.261 23.6548Z" fill="#90CAF9"/>
<path d="M20 8.48505C13.1512 8.48505 7.57898 14.0573 7.57898 20.9061C7.57898 21.1023 7.59919 21.2935 7.60845 21.4872H13.0821C13.0661 21.2952 13.0527 21.1023 13.0527 20.9061C13.0527 17.0754 16.1693 13.9587 20 13.9587C21.6581 13.9587 23.1815 14.5448 24.3773 15.5175L28.2493 11.6455C26.0531 9.68673 23.1672 8.48505 20 8.48505Z" fill="#FF3D00"/>
<path opacity="0.5" d="M13.0206 28.6316C13.0198 28.6316 13.0198 28.6316 13.019 28.6316C12.5044 28.6316 12.0185 28.5162 11.5773 28.3175L7.61096 32.2838C9.12086 33.4215 10.9903 34.1053 13.019 34.1053C13.0198 34.1053 13.0198 34.1053 13.0206 34.1053H20V28.6316H13.0206Z" fill="#90CAF9"/>
<path d="M13.0206 28.6316C13.0198 28.6316 13.0198 28.6316 13.019 28.6316C12.5044 28.6316 12.0185 28.5162 11.5773 28.3175L7.61096 32.2838C9.12086 33.4215 10.9903 34.1053 13.019 34.1053C13.0198 34.1053 13.0198 34.1053 13.0206 34.1053H20V28.6316H13.0206Z" fill="#4CAF50"/>
<path d="M9.47368 25.0863C9.47368 23.1326 11.0653 21.5411 13.0189 21.5411C14.4531 21.5411 15.6952 22.4025 16.2535 23.6413L20.2257 19.6691C18.5743 17.4779 15.9604 16.0674 13.0181 16.0674C8.05053 16.0674 4 20.1095 4 25.0863C4 28.0261 5.424 30.6358 7.61095 32.2838L11.5773 28.3175C10.3411 27.7634 9.47368 26.5255 9.47368 25.0863Z" fill="#FFC107"/>
</g>
<defs>
<clipPath id="clip0_1_669">
<rect width="32" height="26.1053" fill="white" transform="translate(4 8)"/>
</clipPath>
</defs>
</svg>
