<svg width="601" height="186" viewBox="0 0 601 186" fill="none" xmlns="http://www.w3.org/2000/svg">
<path d="M279.3 73.3C288.5 73.3 295.3 76.4 301.2 81.7C301.7 82.2 301.7 82.9 301.3 83.3L299.9 84.8C299.4 85.3 298.9 85.3 298.4 84.7C293.3 80.1 286.8 77.3 279.4 77.3C263.6 77.3 251.3 90.2 251.3 105.8C251.3 121.3 263.6 134.1 279.4 134.1C287.1 134.1 293 131 298.4 126.5C298.9 126.1 299.5 126.1 299.8 126.3L301.3 127.8C301.7 128.2 301.7 128.9 301.3 129.3C295.2 135.2 287.3 138 279.3 138C261.3 138 246.7 123.8 246.7 105.7C246.7 87.8 261.3 73.3 279.3 73.3V73.3ZM327.6 100.4C337.7 100.4 345.7 109 345.7 119.2C345.7 129.7 337.7 138.2 327.6 138.2C317.4 138.2 309.5 129.7 309.5 119.2C309.5 108.9 317.4 100.4 327.6 100.4V100.4ZM327.6 134.5C335.5 134.5 341.7 127.7 341.7 119.2C341.7 110.9 335.5 104.2 327.6 104.2C319.6 104.2 313.4 111 313.4 119.2C313.4 127.7 319.6 134.5 327.6 134.5ZM356.7 102.4C356.7 101.8 357.2 101.2 357.9 101.2H359C359.5 101.2 360 101.6 360.1 102.2L360.5 105.9C361.4 104.6 365 100.3 371.8 100.3C374.7 100.3 376.7 101.1 377.4 101.4C378.2 101.7 378.7 102.3 378.4 103L377.7 104.8C377.4 105.4 376.9 105.5 376.3 105.2C375.9 105 374 104.1 371.6 104.1C364.6 104.1 361.2 109.8 360.9 110.3V136C360.9 136.7 360.5 137.2 359.7 137.2H357.9C357.3 137.2 356.9 136.7 356.9 136V102.4H356.7ZM400.7 100.4C410.2 100.4 417 107.3 417 116.9C417 118.3 417 120.4 415.6 120.4H387C387.4 128.1 392.9 134.6 401.1 134.6C405.9 134.6 409.6 132.7 411.7 131.3C412.5 130.8 412.9 130.7 413.3 131.3L414.2 132.6C414.5 133 414.4 133.5 413.8 134C412 135.8 406.3 138.2 400.7 138.2C389.7 138.2 383 129.7 383 119.2C383 108.9 389.8 100.4 400.7 100.4V100.4ZM413.1 117.1C413.1 110.1 408.9 104 400.8 104C392.9 104 387.6 109.8 387.1 117.1H413.1Z" fill="#434343"/>
<path d="M428.9 75.4C428.9 74.8 429.4 74.2 430 74.2H449.1C466.6 74.2 480.8 88.3 480.8 105.6C480.8 123.2 466.6 137.2 449.1 137.2H430C429.5 137.2 428.9 136.7 428.9 136V75.4ZM448.4 133.4C464.2 133.4 476.3 121.4 476.3 105.7C476.3 90.1 464.1 78.1 448.4 78.1H433.2V133.4H448.4V133.4ZM495.4 74.5C495.4 73.8 496 73.3 496.8 73.3H498.3L541.5 129.6H541.6V75.4C541.6 74.8 542.1 74.2 542.8 74.2H544.6C545.2 74.2 545.8 74.7 545.8 75.4V137C545.8 137.8 545.1 138.2 544.4 138.2H543.2C543.1 138.2 542.4 137.9 499.6 81.4H499.5V136.2C499.5 136.8 499 137.4 498.3 137.4H496.6C496 137.4 495.4 136.9 495.4 136.2V74.5V74.5ZM561.1 128.9L561.9 127.8C562.5 127.1 563.2 126.8 563.9 127.4C564.8 128.2 571.5 134.3 580.6 134.3C588.8 134.3 595.7 128.8 595.7 122.2C595.7 114.2 589.1 110.6 578.2 106.9C567.8 103.2 560.8 99.5 560.8 89.2C560.8 82.4 566.2 73.3 580.3 73.3C589.2 73.3 595.8 77.9 595.8 77.9C596.2 78.2 596.8 78.8 596.2 79.8C595.9 80.2 595.7 80.6 595.5 81C595 81.7 594.4 82 593.5 81.4C593.2 81.2 587.2 77.2 580.3 77.2C569.2 77.2 565.1 84 565.1 89.2C565.1 96.9 571 100.2 580.1 103.2C592.4 107.4 600.3 111.8 600.3 122.2C600.3 131.2 591 138.2 580.7 138.2C570 138.2 562.8 131.9 561.6 130.8C560.8 130.4 560.4 129.9 561.1 128.9V128.9Z" fill="#9A9A9A"/>
<path d="M58.7 97.3C57.2 98.8 56 100.4 55.1 102.2C56 100.5 57.2 98.8 58.7 97.3Z" fill="url(#paint0_linear_1:2)"/>
<path d="M119.5 54.3C122.3 54.3 125 55.3 127.1 57.4L133.3 63.6L127.1 57.4C125 55.4 122.2 54.3 119.5 54.3V54.3Z" fill="url(#paint1_linear_1:2)"/>
<path d="M58.6 61.8C65.5 54.9 76.8 54.9 83.7 61.8L88.9 67L105.1 50.8C113 42.9 125.8 42.9 133.6 50.8L139.8 57L155.4 41.4L121.4 7.4C111.6 -2.4 95.6 -2.4 85.8 7.4L15.7 77.7C7.40001 86 6.20001 98.8 12 108.5L12.2 108.3L58.6 61.8Z" fill="url(#paint2_linear_1:2)"/>
<path d="M150.3 122.9C143.4 129.8 132.1 129.8 125.2 122.9L119 116.7L98.5 137.2C90.6 145.1 77.8 145.1 70 137.2L64.7 131.9L49.5 147.1L80.8 178.4C90.6 188.2 106.6 188.2 116.4 178.4L186.6 108.2C193.9 100.9 195.8 90.1 192.2 81L189.9 83.3L150.3 122.9V122.9Z" fill="url(#paint3_linear_1:2)"/>
<path d="M91.9 130.6C90.8 131.7 89.6 132.4 88.3 133C87 133.5 85.6 133.8 84.2 133.8C81.4 133.8 78.7 132.8 76.6 130.6L71.3 125.3L65.2 119.2C63.1 117.1 62.1 114.3 62.1 111.6C62.1 110.2 62.4 108.8 62.9 107.5C63.4 106.2 64.2 105 65.3 103.9L95.6 73.6L111.8 57.4C113.4 55.8 115.3 54.8 117.4 54.4C118.1 54.3 118.8 54.2 119.5 54.2C122.3 54.2 125 55.2 127.1 57.3L133.3 63.5L140 56.8L133.8 50.6C125.9 42.7 113.1 42.7 105.3 50.6L88.9 67L58.6 97.3C57.1 98.8 55.9 100.4 55 102.2C54.7 102.8 54.4 103.4 54.2 104C52 109.5 52.3 115.7 55 121C55.9 122.8 57.1 124.4 58.6 125.9L64.7 132L70 137.3C77.9 145.2 90.7 145.2 98.5 137.3L119 116.8L112.3 110.1L91.9 130.6V130.6Z" fill="white"/>
<path d="M190 83.3L192.3 81C191.5 78.9 190.3 76.9 188.9 75.1C189.4 77.8 189.7 80.5 190 83.3Z" fill="#2C256C"/>
<path d="M12.2 108.3L12 108.5C12.1 108.7 12.3 109 12.4 109.2C12.3 108.9 12.3 108.6 12.2 108.3Z" fill="#5B2D82"/>
<path d="M112.2 84.8L133.3 63.7L127.1 57.5C125 55.4 122.2 54.4 119.5 54.4C118.8 54.4 118.1 54.5 117.4 54.6C115.4 55 113.4 56 111.8 57.6L95.6 73.8L96.8 75C103.7 81.9 103.7 93.2 96.8 100.1L71.4 125.5L76.7 130.8C78.8 132.9 81.6 134 84.3 134C85.7 134 87.1 133.7 88.4 133.2C89.7 132.7 90.9 131.9 92 130.8L112.5 110.3L112.3 110.1C105.3 103 105.3 91.8 112.2 84.8V84.8Z" fill="url(#paint4_linear_1:2)"/>
<path d="M112.2 84.8L133.3 63.7L127.1 57.5C125 55.4 122.2 54.4 119.5 54.4C118.8 54.4 118.1 54.5 117.4 54.6C115.4 55 113.4 56 111.8 57.6L95.6 73.8L96.8 75C103.7 81.9 103.7 93.2 96.8 100.1L71.4 125.5L76.7 130.8C78.8 132.9 81.6 134 84.3 134C85.7 134 87.1 133.7 88.4 133.2C89.7 132.7 90.9 131.9 92 130.8L112.5 110.3L112.3 110.1C105.3 103 105.3 91.8 112.2 84.8V84.8Z" fill="url(#paint5_linear_1:2)"/>
<path d="M91.9 130.6C90.9 131.6 89.6 132.4 88.3 133C89.7 132.4 90.9 131.6 91.9 130.6Z" fill="white"/>
<path d="M91.9 130.6C90.9 131.6 89.6 132.4 88.3 133C89.7 132.4 90.9 131.6 91.9 130.6Z" fill="url(#paint6_linear_1:2)"/>
<path d="M71.4 125.3L76.7 130.6C78.8 132.7 81.6 133.8 84.3 133.8C81.5 133.8 78.8 132.8 76.7 130.6L71.4 125.3Z" fill="white"/>
<path d="M71.4 125.3L76.7 130.6C78.8 132.7 81.6 133.8 84.3 133.8C81.5 133.8 78.8 132.8 76.7 130.6L71.4 125.3Z" fill="url(#paint7_linear_1:2)"/>
<path d="M111.8 57.5C113.4 55.9 115.3 54.9 117.4 54.5C115.4 54.9 113.4 55.9 111.8 57.5Z" fill="white"/>
<path d="M111.8 57.5C113.4 55.9 115.3 54.9 117.4 54.5C115.4 54.9 113.4 55.9 111.8 57.5Z" fill="url(#paint8_linear_1:2)"/>
<path d="M15.7 113.3C14.4 112 13.3 110.7 12.4 109.2C12.3 109 12.1 108.7 12 108.5L5.3 115.2C-1.6 122.1 -1.6 133.4 5.3 140.3L18.3 153.3C23.9 158.9 32.3 160 38.9 156.5C40.5 155.7 42 154.6 43.3 153.3L47.5 149.1L49 147.6L49.5 147.1L15.7 113.3V113.3Z" fill="#2C256C"/>
<path d="M58.7 125.9C57.2 124.4 56 122.8 55.1 121C52.3 115.7 52.1 109.5 54.3 104C54.5 103.4 54.8 102.8 55.1 102.2C56 100.4 57.2 98.8 58.7 97.3L88.9 67L83.7 61.8C76.8 54.9 65.5 54.9 58.6 61.8L12.2 108.2C12.3 108.5 12.3 108.8 12.4 109.1C13.3 110.6 14.4 111.9 15.7 113.2L49.6 147.1L64.8 132L58.7 125.9Z" fill="#5B2D82"/>
<path d="M54.2 104C52 109.5 52.3 115.7 55 121C52.3 115.7 52 109.5 54.2 104ZM71.4 125.3L96.8 99.9C103.7 93 103.7 81.7 96.8 74.8L95.6 73.6L65.3 104C64.3 105 63.5 106.3 62.9 107.6C62.3 108.9 62.1 110.3 62.1 111.7C62.1 114.5 63.1 117.2 65.2 119.3L71.4 125.3V125.3Z" fill="#5B2D82"/>
<path d="M65.3 119.2C63.2 117.1 62.2 114.3 62.2 111.6C62.2 114.4 63.2 117.1 65.3 119.2L71.4 125.3L65.3 119.2V119.2ZM65.3 104C64.2 105.1 63.5 106.3 62.9 107.6C63.5 106.2 64.3 105 65.3 104Z" fill="#5B2D82"/>
<path d="M133.3 63.7L112.2 84.8C105.3 91.7 105.3 103 112.2 109.9L112.4 110.1L138.4 84.1C140 82.5 141 80.6 141.4 78.5C141.5 77.8 141.6 77.1 141.6 76.4C141.6 73.6 140.6 70.9 138.5 68.8L133.3 63.7V63.7Z" fill="#2C256C"/>
<path d="M138.4 84.1C140 82.5 141 80.6 141.4 78.5C141 80.5 140 82.5 138.4 84.1Z" fill="#2C256C"/>
<path d="M138.4 68.8C140.5 70.9 141.6 73.7 141.5 76.4C141.6 73.7 140.5 70.9 138.4 68.8L133.3 63.7L138.4 68.8ZM145.1 90.7C147.1 88.7 148.5 86.5 149.5 84C148.5 86.5 147.1 88.8 145.1 90.7Z" fill="#623393"/>
<path d="M149.5 84C149.7 83.4 150 82.8 150.1 82.2C152.1 75.3 150.4 67.6 145 62.2L139.9 57.1L133.2 63.8L138.3 68.9C140.4 71 141.5 73.8 141.4 76.5C141.4 77.2 141.3 77.9 141.2 78.6C140.8 80.6 139.8 82.6 138.2 84.2L112.2 110.2L118.9 116.9L144.9 90.9C147.1 88.8 148.5 86.5 149.5 84V84ZM203.7 44.5L190.7 31.5C184.2 25 173.9 24.6 166.9 30.3C166.5 30.7 166 31 165.6 31.5L157.2 39.9L155.7 41.4L186.8 72.5C187.6 73.3 188.3 74.2 189 75C190.4 76.8 191.5 78.8 192.4 80.9L203.8 69.5C210.6 62.7 210.6 51.5 203.7 44.5V44.5Z" fill="#623393"/>
<path d="M145.1 62.2C150.5 67.6 152.2 75.4 150.2 82.2L149.6 84C148.6 86.4 147.1 88.7 145.2 90.7L119.2 116.7L125.4 122.9C132.3 129.8 143.6 129.8 150.5 122.9L190 83.3C189.8 80.6 189.4 77.8 188.9 75.1C188.2 74.2 187.5 73.4 186.7 72.6L155.6 41.5L140 57.1L145.1 62.2Z" fill="#2C256C"/>
<path d="M145.1 62.2C150.5 67.6 152.2 75.4 150.2 82.2C152.2 75.3 150.5 67.6 145.1 62.2L140 57.1L145.1 62.2Z" fill="#2C256C"/>
<defs>
<linearGradient id="paint0_linear_1:2" x1="29.4988" y1="127.24" x2="135.361" y2="21.3732" gradientUnits="userSpaceOnUse">
<stop stop-color="#623393"/>
<stop offset="0.574" stop-color="#452B7C"/>
<stop offset="1" stop-color="#2C256C"/>
</linearGradient>
<linearGradient id="paint1_linear_1:2" x1="43.8767" y1="141.617" x2="149.739" y2="35.7506" gradientUnits="userSpaceOnUse">
<stop stop-color="#623393"/>
<stop offset="0.574" stop-color="#452B7C"/>
<stop offset="1" stop-color="#2C256C"/>
</linearGradient>
<linearGradient id="paint2_linear_1:2" x1="23.7775" y1="121.518" x2="129.64" y2="15.6521" gradientUnits="userSpaceOnUse">
<stop stop-color="#754FA0"/>
<stop offset="0.181" stop-color="#6E4A99"/>
<stop offset="0.457" stop-color="#5C3F8B"/>
<stop offset="0.791" stop-color="#413079"/>
<stop offset="1" stop-color="#2C256C"/>
</linearGradient>
<linearGradient id="paint3_linear_1:2" x1="74.0792" y1="171.82" x2="179.942" y2="65.9527" gradientUnits="userSpaceOnUse">
<stop stop-color="#754FA0"/>
<stop offset="0.181" stop-color="#6E4A99"/>
<stop offset="0.457" stop-color="#5C3F8B"/>
<stop offset="0.791" stop-color="#413079"/>
<stop offset="1" stop-color="#2C256C"/>
</linearGradient>
<linearGradient id="paint4_linear_1:2" x1="49.1292" y1="146.869" x2="154.992" y2="41.0029" gradientUnits="userSpaceOnUse">
<stop stop-color="#623393"/>
<stop offset="0.574" stop-color="#452B7C"/>
<stop offset="1" stop-color="#2C256C"/>
</linearGradient>
<linearGradient id="paint5_linear_1:2" x1="39.0927" y1="156.906" x2="166.23" y2="29.7646" gradientUnits="userSpaceOnUse">
<stop stop-color="#754FA0"/>
<stop offset="0.181" stop-color="#6E4A99"/>
<stop offset="0.457" stop-color="#5C3F8B"/>
<stop offset="0.791" stop-color="#413079"/>
<stop offset="1" stop-color="#2C256C"/>
</linearGradient>
<linearGradient id="paint6_linear_1:2" x1="52.0945" y1="169.907" x2="179.231" y2="42.7659" gradientUnits="userSpaceOnUse">
<stop stop-color="#623393"/>
<stop offset="0.574" stop-color="#452B7C"/>
<stop offset="1" stop-color="#2C256C"/>
</linearGradient>
<linearGradient id="paint7_linear_1:2" x1="44.8295" y1="162.643" x2="171.967" y2="35.5013" gradientUnits="userSpaceOnUse">
<stop stop-color="#623393"/>
<stop offset="0.574" stop-color="#452B7C"/>
<stop offset="1" stop-color="#2C256C"/>
</linearGradient>
<linearGradient id="paint8_linear_1:2" x1="26.443" y1="144.257" x2="153.58" y2="17.1155" gradientUnits="userSpaceOnUse">
<stop stop-color="#623393"/>
<stop offset="0.574" stop-color="#452B7C"/>
<stop offset="1" stop-color="#2C256C"/>
</linearGradient>
</defs>
</svg>
