<?xml version="1.0" standalone="no"?>
<!DOCTYPE svg PUBLIC "-//W3C//DTD SVG 20010904//EN"
 "http://www.w3.org/TR/2001/REC-SVG-20010904/DTD/svg10.dtd">
<svg version="1.0" xmlns="http://www.w3.org/2000/svg"
 width="1200.000000pt" height="536.000000pt" viewBox="0 0 1200.000000 536.000000"
 preserveAspectRatio="xMidYMid meet">

<g transform="translate(0.000000,536.000000) scale(0.100000,-0.100000)"
fill="#000000" stroke="none">
<path d="M4585 5249 c-69 -10 -2397 -810 -2402 -825 -2 -5 2 -18 10 -27 12
-17 19 -16 112 18 84 31 2033 703 2205 761 68 23 222 25 295 5 133 -37 269
-140 333 -252 29 -51 162 -425 162 -455 0 -8 -11 -16 -25 -20 -19 -5 -25 -13
-25 -34 0 -23 -15 -41 -82 -97 -46 -38 -105 -85 -133 -105 -137 -97 -348 -196
-512 -239 l-83 -22 0 -36 c0 -44 -29 -108 -61 -138 -64 -59 -195 -83 -297 -54
-76 21 -152 108 -152 173 0 21 -7 24 -97 39 -54 9 -100 14 -103 12 -3 -3 -7
-364 -8 -804 l-4 -799 -163 -2 -164 -3 207 -310 c114 -170 255 -375 313 -455
58 -80 104 -151 101 -158 -2 -6 -1 -12 3 -12 27 0 1625 560 1679 588 186 97
315 317 316 538 0 104 13 64 -590 1804 -100 289 -196 554 -213 590 -43 89
-158 204 -253 253 -116 60 -250 84 -369 66z m495 -1669 c128 86 293 99 420 35
101 -51 187 -184 225 -345 26 -110 32 -368 11 -498 -41 -262 -152 -405 -344
-442 -110 -22 -229 4 -322 70 -38 27 -40 26 -40 -15 l0 -35 -225 0 -225 0 2
801 3 801 220 88 220 88 5 -289 5 -289 45 30z m-680 -590 l0 -640 -220 0 -220
0 0 640 0 640 220 0 220 0 0 -640z"/>
<path d="M5082 3264 l-52 -26 2 -251 3 -252 42 -23 c59 -32 145 -33 179 -1 40
38 56 112 56 267 -1 240 -33 312 -141 312 -20 0 -61 -12 -89 -26z"/>
<path d="M2518 4417 c-153 -51 -278 -96 -278 -102 0 -16 182 -351 347 -639
172 -299 387 -660 569 -954 l119 -191 5 711 5 712 98 39 98 40 -113 54 c-168
81 -296 171 -434 305 -67 65 -125 118 -130 117 -5 0 -134 -42 -286 -92z"/>
<path d="M882 3986 c-494 -171 -536 -191 -634 -309 -100 -120 -142 -240 -142
-397 1 -120 -28 -23 259 -865 354 -1042 508 -1482 538 -1540 68 -131 234 -261
383 -299 85 -22 223 -21 310 3 49 13 1652 561 1772 606 8 3 -6 32 -44 90 -31
47 -60 85 -64 85 -4 0 -13 -7 -21 -16 -23 -28 -70 -46 -104 -40 -31 6 -71 42
-102 92 -9 16 -11 10 -6 -33 7 -69 -10 -111 -53 -129 -72 -30 -134 -7 -134 48
0 25 11 42 49 79 63 61 142 92 238 93 45 1 69 5 65 11 -59 91 -106 154 -112
150 -4 -3 -10 -18 -14 -35 -9 -46 -57 -90 -98 -90 -172 0 -418 483 -418 824
l0 81 -141 202 -140 203 -28 -21 c-15 -11 -45 -23 -67 -26 -38 -4 -41 -2 -119
79 -44 46 -99 115 -122 153 -79 134 -149 332 -173 488 l-12 79 -202 291 c-111
160 -206 292 -211 293 -6 2 -209 -66 -453 -150z m442 -106 c91 -34 21 -148
-126 -206 -110 -43 -247 -29 -261 28 -12 44 57 108 117 108 28 0 87 -49 111
-93 7 -14 9 -5 7 35 -4 66 22 113 70 127 44 12 52 13 82 1z m-610 -231 c40
-31 33 -56 -32 -120 -49 -47 -70 -60 -131 -79 -126 -39 -241 -16 -241 48 0 33
40 74 86 89 44 15 88 -6 121 -59 l28 -44 0 62 c0 48 5 67 20 84 39 44 106 53
149 19z m608 -65 c186 -129 373 -631 329 -886 -6 -40 -13 -84 -14 -98 -1 -19
-13 -31 -47 -48 -24 -12 -52 -22 -61 -22 -29 0 -172 149 -218 227 -138 233
-218 561 -181 738 9 45 21 68 46 93 30 30 39 34 71 29 20 -4 53 -18 75 -33z
m-656 -200 c19 -9 57 -41 84 -71 180 -197 313 -620 270 -859 -17 -100 -18
-101 -54 -118 -54 -26 -82 -20 -128 24 -23 22 -45 40 -48 40 -3 0 -29 30 -57
68 -181 238 -292 676 -218 860 29 71 80 90 151 56z m1627 -672 c3 -15 2 -33
-2 -40 -17 -31 -61 48 -47 84 6 15 8 15 25 0 10 -10 21 -29 24 -44z m-98 -3
c17 -32 17 -74 0 -74 -5 0 -18 17 -28 38 -30 61 -2 96 28 36z m-536 -202 c11
-29 11 -41 2 -50 -17 -17 -40 11 -48 57 -5 33 -4 38 13 34 10 -2 24 -19 33
-41z m-95 -9 c9 -12 16 -35 16 -51 0 -41 -32 -32 -46 13 -19 56 1 80 30 38z
m470 -50 c20 -28 21 -78 3 -78 -14 0 -35 34 -38 60 -5 45 11 53 35 18z m-84
-27 c13 -25 13 -81 1 -81 -17 0 -41 43 -41 72 0 33 24 38 40 9z m157 -103 c64
-59 94 -92 132 -148 142 -206 238 -548 210 -744 -25 -177 -117 -204 -244 -72
-190 198 -322 621 -275 879 14 77 23 95 55 107 44 19 85 11 122 -22z m-1087
-3 c16 -20 18 -77 2 -82 -12 -5 -42 53 -42 82 0 19 24 20 40 0z m-82 -40 c14
-31 16 -75 3 -75 -17 0 -41 43 -41 72 0 35 23 37 38 3z m470 -50 c24 -53 7
-94 -22 -53 -20 28 -21 78 -3 78 8 0 19 -11 25 -25z m-82 -41 c14 -32 10 -64
-7 -64 -12 0 -39 54 -39 78 0 44 25 36 46 -14z m187 -116 c85 -85 151 -186
207 -320 157 -376 134 -744 -42 -683 -55 18 -92 50 -148 123 -98 129 -193 358
-225 540 -18 100 -18 225 -2 302 15 68 21 79 61 96 56 24 71 18 149 -58z
m1076 -839 c68 -24 58 -90 -20 -133 -55 -30 -109 -6 -159 72 -14 22 -15 19
-12 -42 3 -58 1 -68 -21 -89 -30 -31 -96 -43 -134 -25 -21 10 -29 21 -31 47
-3 29 3 40 51 86 38 37 71 58 113 73 66 23 164 28 213 11z m-622 -220 c13 -5
28 -20 35 -34 10 -21 8 -30 -8 -52 -11 -15 -36 -35 -56 -45 -33 -17 -40 -18
-70 -5 -19 8 -49 32 -66 53 l-32 39 0 -58 c0 -51 -4 -62 -29 -88 -25 -24 -38
-29 -80 -29 -92 0 -110 61 -40 131 88 88 243 128 346 88z"/>
<path d="M9026 3694 c-3 -9 -6 -29 -6 -45 l0 -29 -95 0 -95 0 0 -165 0 -165
94 0 94 0 5 -347 c4 -353 9 -400 47 -473 25 -49 84 -100 139 -121 98 -36 306
-24 424 26 20 8 37 16 38 18 0 1 13 83 28 183 l27 180 -55 -30 c-69 -37 -156
-43 -190 -12 -35 32 -41 81 -41 334 l0 242 140 0 140 0 0 165 0 165 -140 0
-140 0 0 45 0 45 -204 0 c-177 0 -205 -2 -210 -16z"/>
<path d="M8445 3630 c-33 -11 -83 -37 -112 -59 l-52 -40 -7 45 -6 44 -209 0
-209 0 0 -213 c0 -118 -3 -403 -7 -635 l-6 -422 221 0 222 0 0 388 c0 382 0
388 23 432 29 59 71 82 145 82 70 0 117 -18 169 -65 l38 -35 49 221 c47 211
48 221 30 234 -55 40 -203 52 -289 23z"/>
<path d="M5840 3613 c0 -7 199 -589 387 -1130 l46 -133 212 0 213 0 15 43
c111 318 417 1210 417 1218 0 5 -90 9 -223 9 l-223 0 -87 -352 c-47 -194 -91
-384 -98 -421 -6 -37 -13 -67 -14 -65 -2 2 -10 44 -20 93 -13 74 -153 666
-171 728 -5 15 -25 17 -230 17 -123 0 -224 -3 -224 -7z"/>
<path d="M7250 2985 l0 -635 215 0 215 0 0 635 0 635 -215 0 -215 0 0 -635z"/>
<path d="M6116 2385 c-40 -236 -155 -403 -341 -498 -33 -16 -154 -63 -270
-103 -115 -40 -518 -179 -895 -309 -377 -130 -692 -243 -700 -251 -13 -12 -11
-18 18 -47 32 -32 33 -32 125 -30 50 2 127 5 169 9 70 5 77 8 75 26 -2 17 15
26 108 59 61 21 115 38 121 39 6 0 17 -14 24 -30 9 -23 17 -29 31 -25 165 53
184 62 180 86 -2 13 -4 30 -5 38 -1 8 39 27 109 52 61 21 115 39 122 39 6 0
16 -13 22 -30 5 -16 14 -30 18 -30 5 0 36 9 68 21 33 12 201 70 372 129 172
60 336 121 365 137 66 35 205 172 242 238 15 28 39 84 54 125 22 64 26 92 26
190 0 78 -5 129 -16 160 l-15 45 -7 -40z"/>
<path d="M6362 2118 c3 -7 31 -89 64 -181 l59 -168 34 3 c33 3 35 6 57 68 12
36 40 116 62 178 l41 112 -38 0 -38 0 -38 -122 c-21 -68 -40 -127 -42 -131 -3
-5 -24 49 -47 120 l-42 128 -38 3 c-29 3 -37 0 -34 -10z"/>
<path d="M6770 1950 l0 -180 35 0 35 0 0 180 0 180 -35 0 -35 0 0 -180z"/>
<path d="M6960 1950 l0 -180 30 0 30 0 0 65 0 65 40 0 c39 0 41 -1 72 -65 31
-63 34 -65 70 -65 21 0 38 2 38 5 0 2 -14 33 -31 68 l-31 63 31 31 c25 26 31
40 31 75 0 87 -50 118 -190 118 l-90 0 0 -180z m198 98 c7 -7 12 -21 12 -33 0
-35 -20 -45 -87 -45 l-63 0 0 45 0 45 63 0 c36 0 68 -5 75 -12z"/>
<path d="M7300 2095 l0 -35 55 0 55 0 0 -145 0 -145 30 0 30 0 0 145 0 145 55
0 55 0 0 35 0 35 -140 0 -140 0 0 -35z"/>
<path d="M7660 2023 c1 -134 10 -178 49 -216 24 -24 40 -31 84 -35 120 -10
156 45 157 236 l0 122 -35 0 -35 0 0 -115 c0 -63 -5 -125 -11 -139 -15 -33
-60 -52 -88 -37 -44 24 -51 49 -51 173 l0 118 -35 0 -35 0 0 -107z"/>
<path d="M8086 1957 c-36 -96 -66 -177 -66 -180 0 -4 16 -7 35 -7 31 0 35 3
46 40 l12 40 69 0 70 0 15 -40 c14 -36 20 -40 50 -40 18 0 33 4 33 9 0 5 -15
49 -34 97 -19 49 -48 126 -66 172 -31 80 -32 82 -64 82 l-33 0 -67 -173z m125
11 l19 -48 -44 0 -45 0 21 62 c12 35 24 56 26 48 3 -8 13 -36 23 -62z"/>
<path d="M8440 1950 l0 -180 125 0 125 0 0 35 0 35 -90 0 -90 0 0 145 0 145
-35 0 -35 0 0 -180z"/>
<path d="M8780 1950 l0 -180 35 0 35 0 0 180 0 180 -35 0 -35 0 0 -180z"/>
<path d="M8960 2100 l0 -29 94 -3 94 -3 -100 -119 c-78 -94 -98 -125 -96 -145
l3 -26 138 -3 137 -3 0 30 0 30 -96 3 -96 3 96 115 c78 93 96 121 96 148 l0
32 -135 0 -135 0 0 -30z"/>
<path d="M9410 2048 c-18 -46 -47 -123 -66 -172 -19 -48 -34 -92 -34 -97 0 -5
16 -9 35 -9 31 0 35 3 46 40 l12 41 70 -3 70 -3 12 -35 c10 -31 16 -35 49 -38
45 -4 48 -23 -37 201 l-59 157 -34 0 c-32 0 -33 -2 -64 -82z m99 -115 c1 -9
-13 -13 -38 -13 l-40 0 21 62 21 63 18 -50 c10 -28 18 -56 18 -62z"/>
<path d="M9660 2095 l0 -35 50 0 50 0 0 -145 0 -145 35 0 35 0 0 145 0 145 50
0 50 0 0 35 0 35 -135 0 -135 0 0 -35z"/>
<path d="M10030 1950 l0 -180 30 0 30 0 0 180 0 180 -30 0 -30 0 0 -180z"/>
<path d="M10264 2111 c-45 -27 -69 -83 -68 -161 1 -112 48 -171 142 -177 107
-7 157 49 157 177 0 87 -19 130 -68 160 -42 26 -121 26 -163 1z m132 -64 c38
-33 46 -125 15 -174 -18 -28 -26 -33 -60 -33 -28 0 -46 6 -60 21 -44 48 -32
170 19 196 36 18 55 16 86 -10z"/>
<path d="M10592 1953 l3 -178 32 -3 32 -3 3 117 3 117 78 -117 c70 -105 80
-116 107 -116 l30 0 0 180 0 180 -36 0 -36 0 4 -110 c1 -61 1 -110 -2 -110 -3
0 -38 50 -78 110 -69 105 -74 110 -107 110 l-35 0 2 -177z"/>
<path d="M11259 2103 c-6 -16 -28 -73 -49 -128 -21 -55 -48 -124 -59 -152
l-21 -53 39 0 c36 0 39 2 50 40 l12 40 68 0 68 0 16 -40 c14 -37 19 -40 52
-40 26 0 36 4 32 13 -2 6 -33 87 -68 180 l-64 167 -33 0 c-26 0 -35 -5 -43
-27z m60 -114 c7 -23 15 -47 18 -55 4 -11 -5 -14 -37 -14 -32 0 -41 3 -37 14
3 8 11 32 18 55 7 23 15 41 19 41 4 0 12 -18 19 -41z"/>
<path d="M11560 1949 l0 -180 33 3 c32 3 32 3 35 66 l3 62 54 0 c102 0 145 34
145 115 0 89 -41 115 -181 115 l-89 0 0 -181z m188 102 c8 -5 12 -22 10 -42
l-3 -34 -62 -3 -63 -3 0 46 0 45 53 0 c28 0 58 -4 65 -9z"/>
<path d="M11930 1949 l0 -180 33 3 32 3 3 178 2 177 -35 0 -35 0 0 -181z"/>
<path d="M3705 1089 c-39 -15 -73 -19 -155 -17 l-105 2 -400 -138 c-220 -76
-643 -221 -940 -323 l-540 -186 -110 -4 c-135 -6 -216 11 -325 68 -43 22 -105
65 -139 95 -54 49 -60 52 -51 28 46 -120 146 -240 255 -306 130 -79 304 -114
441 -88 38 7 182 52 319 99 138 48 310 107 382 131 l132 45 -5 36 -6 37 53 17
c30 9 63 21 74 26 19 8 105 39 110 39 1 0 8 -13 15 -30 7 -16 17 -30 23 -30 6
0 52 15 102 32 l92 32 -4 37 -5 37 111 37 c61 20 114 37 118 38 5 1 14 -12 22
-29 l14 -32 104 36 c81 27 102 39 99 51 -2 9 -7 25 -10 36 -5 18 8 25 115 61
l120 42 16 -32 c8 -17 16 -32 17 -33 1 -1 31 8 66 21 64 23 65 24 77 72 10 40
10 53 -3 81 -9 18 -19 32 -23 32 -3 -1 -28 -10 -56 -20z"/>
<path d="M4180 1012 c-87 -5 -185 -23 -209 -38 -71 -47 -155 -373 -106 -414
13 -11 15 -7 15 27 0 70 29 164 85 277 26 52 36 63 70 74 55 18 289 28 339 14
47 -14 55 -9 31 18 -30 33 -114 49 -225 42z"/>
<path d="M4663 945 c-20 -64 -68 -128 -161 -216 -155 -145 -356 -284 -521
-362 -101 -47 -188 -59 -239 -33 -34 17 -40 10 -22 -25 15 -27 63 -49 108 -49
141 0 486 214 718 445 105 105 137 160 132 232 l-3 48 -12 -40z"/>
</g>
</svg>
