<?xml version="1.0" standalone="no"?>
<!DOCTYPE svg PUBLIC "-//W3C//DTD SVG 20010904//EN"
 "http://www.w3.org/TR/2001/REC-SVG-20010904/DTD/svg10.dtd">
<svg version="1.0" xmlns="http://www.w3.org/2000/svg"
 width="2329.000000pt" height="1219.000000pt" viewBox="0 0 2329.000000 1219.000000"
 preserveAspectRatio="xMidYMid meet">

<g transform="translate(0.000000,1219.000000) scale(0.100000,-0.100000)"
fill="#000000" stroke="none">
<path d="M10666 8668 c-14 -20 -16 -222 -16 -1959 0 -1892 0 -1937 19 -1960
l19 -24 267 0 267 0 19 24 c19 23 19 68 19 1966 0 1754 -2 1945 -16 1959 -13
14 -54 16 -289 16 -272 0 -274 0 -289 -22z"/>
<path d="M18365 8666 c-14 -21 -16 -62 -13 -291 3 -267 3 -267 27 -286 21 -18
42 -19 272 -19 260 0 293 5 303 44 3 11 6 139 6 283 0 225 -2 264 -16 277 -13
14 -54 16 -289 16 l-275 0 -15 -24z"/>
<path d="M2285 7524 c-366 -39 -695 -197 -932 -448 -179 -189 -299 -417 -354
-676 -33 -155 -34 -432 -1 -579 64 -286 189 -517 388 -715 213 -214 487 -354
792 -407 156 -26 379 -26 537 1 528 90 965 458 1129 950 60 180 71 252 71 465
0 204 -10 276 -62 439 -151 480 -573 843 -1099 946 -106 21 -370 34 -469 24z
m333 -570 c377 -77 649 -402 669 -799 22 -428 -235 -792 -632 -896 -115 -30
-301 -31 -407 -1 -156 44 -262 106 -375 221 -87 88 -157 205 -199 329 -171
512 104 1039 597 1147 88 19 253 18 347 -1z"/>
<path d="M5558 7515 c-233 -32 -470 -124 -610 -235 -20 -17 -39 -30 -42 -30
-3 0 -6 36 -6 80 0 73 -3 83 -25 105 l-24 25 -254 0 c-236 0 -257 -1 -278 -19
l-24 -19 0 -1331 c0 -1264 1 -1331 18 -1348 16 -16 42 -18 281 -18 244 0 265
1 285 19 20 18 20 24 23 835 3 810 4 817 26 896 40 143 93 239 180 325 138
136 299 192 547 194 167 1 260 -17 383 -75 156 -72 272 -217 322 -401 36 -137
40 -223 40 -1000 0 -835 -4 -781 63 -793 18 -4 140 -5 271 -3 222 3 239 4 252
22 21 29 21 1676 -1 1816 -71 472 -350 797 -790 920 -170 48 -436 62 -637 35z"/>
<path d="M8650 7519 c-366 -45 -664 -182 -890 -409 -239 -238 -368 -530 -401
-907 -20 -226 18 -490 99 -688 178 -432 546 -715 1055 -812 71 -14 145 -18
322 -18 204 0 242 3 333 23 287 64 512 179 731 374 118 104 159 158 145 193
-5 13 -85 94 -178 179 -203 186 -198 185 -296 99 -221 -193 -410 -287 -632
-314 -332 -40 -678 118 -832 380 -39 68 -89 198 -80 212 3 5 446 9 1097 9
1179 1 1115 -2 1137 54 23 61 5 365 -31 535 -122 565 -516 965 -1054 1071
-126 25 -400 35 -525 19z m405 -554 c215 -63 374 -191 474 -384 37 -72 81
-203 81 -243 0 -17 -41 -18 -801 -18 l-801 0 7 37 c26 143 123 312 239 420
208 195 522 269 801 188z"/>
<path d="M12940 7524 c-377 -46 -671 -182 -911 -423 -200 -202 -318 -420 -381
-708 -31 -144 -31 -426 0 -570 128 -590 582 -1021 1183 -1124 107 -18 150 -21
309 -16 204 6 314 24 467 78 484 171 822 554 935 1060 30 138 33 436 5 568
-43 200 -105 347 -216 514 -205 306 -539 521 -927 597 -106 21 -376 35 -464
24z m388 -583 c303 -88 527 -336 593 -656 81 -394 -107 -794 -454 -965 -123
-60 -219 -82 -362 -83 -233 -1 -414 73 -574 234 -117 118 -190 252 -233 425
-30 124 -30 314 0 437 79 319 313 553 622 622 95 21 312 14 408 -14z"/>
<path d="M16135 7516 c-443 -66 -815 -296 -1037 -641 -155 -241 -222 -474
-222 -775 0 -408 127 -726 398 -996 202 -203 429 -326 721 -391 151 -33 425
-43 572 -19 193 30 365 98 532 210 l84 56 -6 -173 c-6 -200 -23 -284 -88 -417
-33 -67 -59 -102 -123 -165 -140 -139 -299 -203 -532 -212 -339 -14 -594 87
-906 359 -87 76 -107 85 -144 65 -15 -8 -89 -86 -165 -173 -161 -185 -163
-191 -99 -272 72 -91 230 -216 385 -305 481 -274 1154 -299 1619 -59 349 179
569 500 643 937 17 103 18 195 18 1493 l0 1384 -24 19 c-21 18 -42 19 -265 19
-300 0 -286 6 -286 -121 0 -49 -2 -89 -5 -89 -3 0 -44 26 -93 59 -151 102
-275 154 -450 191 -127 27 -398 35 -527 16z m430 -570 c33 -9 107 -39 165 -68
92 -45 116 -63 201 -147 124 -124 181 -222 236 -406 14 -46 18 -96 18 -220 0
-137 -3 -171 -23 -240 -88 -305 -311 -528 -607 -606 -103 -27 -288 -30 -387
-6 -298 73 -527 305 -614 622 -26 93 -31 334 -9 432 37 169 101 293 210 411
109 118 255 200 420 238 79 18 307 12 390 -10z"/>
<path d="M20778 7515 c-237 -34 -471 -124 -610 -235 -20 -17 -39 -30 -42 -30
-3 0 -6 36 -6 80 0 73 -3 83 -25 105 l-24 25 -254 0 c-236 0 -257 -1 -278 -19
l-24 -19 0 -1331 c0 -1264 1 -1331 18 -1348 16 -16 42 -18 283 -18 l266 0 19
24 c18 22 19 50 19 786 0 473 4 793 10 842 29 218 132 396 287 499 125 83 347
133 532 119 333 -24 553 -190 630 -475 38 -139 41 -223 41 -1002 0 -835 -4
-781 63 -793 18 -4 140 -5 271 -3 222 3 239 4 252 22 21 29 21 1676 -1 1816
-76 502 -385 837 -865 937 -147 31 -416 39 -562 18z"/>
<path d="M18370 7440 c-20 -20 -20 -29 -18 -1350 3 -1261 4 -1330 21 -1347 16
-16 42 -18 283 -18 l266 0 19 24 c18 23 19 58 19 1352 l0 1328 -22 15 c-19 14
-64 16 -285 16 -250 0 -264 -1 -283 -20z"/>
</g>
</svg>
