<?xml version="1.0" standalone="no"?>
<!DOCTYPE svg PUBLIC "-//W3C//DTD SVG 20010904//EN"
 "http://www.w3.org/TR/2001/REC-SVG-20010904/DTD/svg10.dtd">
<svg version="1.0" xmlns="http://www.w3.org/2000/svg"
 width="560.000000pt" height="90.000000pt" viewBox="0 0 560.000000 90.000000"
 preserveAspectRatio="xMidYMid meet">

<g transform="translate(0.000000,90.000000) scale(0.100000,-0.100000)"
fill="#000000" stroke="none">
<path d="M220 842 l-21 -17 157 -174 158 -173 51 54 c27 29 99 107 159 172
l109 119 -23 19 c-25 21 -99 24 -133 7 -12 -6 -54 -45 -92 -87 l-70 -75 -64
69 c-34 38 -75 77 -89 86 -36 24 -113 24 -142 0z"/>
<path d="M87 743 c-21 -8 -37 -21 -35 -28 2 -7 48 -61 103 -120 129 -139 130
-140 113 -164 -7 -10 -58 -66 -113 -126 -55 -59 -102 -112 -104 -117 -5 -13
15 -26 62 -38 48 -14 110 11 151 61 16 19 70 78 120 132 50 54 91 102 91 106
0 4 -41 52 -92 107 -50 54 -101 111 -112 126 -48 61 -124 86 -184 61z m115
-14 c9 -5 71 -67 138 -139 82 -88 120 -136 116 -146 -3 -9 -54 -69 -114 -134
-122 -135 -166 -164 -226 -150 -65 14 -65 23 5 97 131 139 169 182 169 193 0
6 -46 61 -102 123 -145 157 -137 144 -97 161 33 14 77 12 111 -5z"/>
<path d="M854 749 c-18 -5 -45 -21 -61 -37 -57 -54 -238 -254 -238 -262 0 -4
41 -52 91 -106 50 -55 104 -114 120 -133 15 -19 47 -42 71 -53 36 -16 49 -17
87 -7 25 6 50 16 55 23 6 7 -15 37 -66 91 -41 44 -95 104 -120 132 l-45 53 27
32 c26 32 93 105 179 195 l40 42 -45 20 c-49 23 -51 23 -95 10z m81 -13 c33
-14 45 -30 27 -38 -13 -5 -222 -239 -222 -248 0 -8 81 -101 178 -203 60 -64
60 -73 -4 -87 -26 -6 -47 -5 -69 4 -27 12 -224 211 -263 267 -17 25 -8 37 140
192 78 83 111 111 138 117 19 4 36 8 38 9 1 1 18 -6 37 -13z"/>
<path d="M1142 698 c-9 -9 -12 -81 -12 -264 l0 -253 33 10 c39 11 86 60 94
100 l6 29 151 0 c134 0 155 2 184 20 46 28 62 73 62 175 0 102 -16 147 -62
175 -30 18 -50 20 -238 20 -147 0 -209 -3 -218 -12z m376 -130 c15 -15 16 -92
2 -119 -10 -17 -22 -19 -135 -19 l-125 0 0 75 0 75 123 0 c82 0 127 -4 135
-12z"/>
<path d="M1752 698 c-9 -9 -12 -81 -12 -264 l0 -253 31 9 c57 17 99 74 99 135
0 25 1 25 78 25 l77 -1 45 -66 c33 -49 55 -71 86 -84 42 -19 104 -17 104 3 0
6 -23 41 -50 79 -50 68 -50 69 -28 78 30 12 64 49 77 84 18 45 13 147 -8 194
-32 68 -49 73 -284 73 -144 0 -206 -3 -215 -12z m382 -149 c5 -14 6 -38 2 -53
l-6 -26 -130 0 -130 0 0 55 0 56 127 -3 c127 -3 128 -3 137 -29z"/>
<path d="M2404 691 c-51 -31 -59 -66 -59 -251 0 -155 1 -167 22 -196 37 -51
69 -59 248 -59 250 0 255 5 255 271 l0 176 -39 39 -39 39 -178 0 c-157 0 -183
-2 -210 -19z m334 -236 c3 -147 5 -145 -126 -145 -135 0 -132 -3 -132 139 0
65 3 121 7 125 4 3 61 5 127 4 l121 -3 3 -120z"/>
<path d="M2987 694 l-28 -15 50 -57 c27 -31 72 -82 100 -112 56 -60 57 -63 39
-82 -7 -7 -53 -57 -101 -110 l-88 -97 30 -15 c65 -34 109 -15 196 85 28 31 55
58 61 58 6 1 37 -29 69 -65 63 -70 99 -94 140 -94 31 0 92 29 79 39 -32 23
-206 224 -198 229 5 4 53 55 107 114 l98 107 -37 16 c-44 18 -55 19 -91 3 -25
-12 -115 -99 -149 -146 -11 -15 -20 -9 -80 56 -93 102 -135 120 -197 86z m90
-4 c15 -6 60 -45 99 -88 l71 -77 79 82 c86 90 117 105 167 81 l30 -14 -99
-108 c-54 -59 -100 -111 -101 -114 -2 -4 43 -56 98 -117 90 -99 98 -111 83
-122 -24 -17 -75 -16 -101 2 -12 8 -49 44 -84 80 -34 36 -67 65 -73 65 -7 0
-36 -27 -65 -61 -82 -93 -139 -119 -186 -85 -18 13 -13 20 78 120 53 58 97
110 97 116 0 6 -45 59 -100 119 l-100 109 27 10 c37 14 47 14 80 2z"/>
<path d="M3630 691 c-12 -23 -14 -497 -2 -505 4 -2 27 4 49 14 67 30 77 60 81
233 2 81 7 147 11 147 3 0 39 -73 80 -162 80 -179 93 -198 117 -183 9 6 50 86
91 178 42 92 80 167 84 167 5 0 9 -62 9 -137 0 -170 15 -213 82 -243 23 -10
46 -16 50 -14 4 3 8 112 8 242 0 290 3 282 -103 282 -106 0 -126 -16 -186
-142 -46 -98 -49 -102 -59 -77 -43 107 -86 182 -115 200 -46 28 -182 28 -197
0z"/>
<path d="M4424 691 c-51 -31 -64 -80 -64 -239 0 -166 9 -202 57 -239 l36 -28
171 0 c263 0 266 4 266 271 l0 176 -39 39 -39 39 -178 0 c-158 0 -183 -2 -210
-19z m334 -239 l3 -122 -26 -10 c-15 -6 -67 -10 -116 -10 -122 0 -129 7 -129
136 0 139 -4 135 143 132 l122 -3 3 -123z"/>
<path d="M5011 694 l-34 -14 24 -27 c13 -15 47 -52 75 -83 29 -30 64 -70 79
-88 l27 -32 -26 -33 c-14 -17 -59 -68 -100 -112 l-75 -80 22 -17 c31 -24 83
-22 120 4 36 25 126 119 127 131 1 23 36 -1 87 -59 83 -95 128 -113 195 -78
l31 16 -54 56 c-30 31 -56 59 -59 62 -3 3 -27 29 -54 57 l-49 52 50 53 c126
134 161 173 158 179 -2 3 -22 11 -44 19 -57 18 -91 1 -176 -88 l-70 -74 -64
72 c-89 100 -122 114 -190 84z m86 -5 c15 -5 60 -44 98 -86 l71 -77 79 82 c88
88 119 103 168 80 l30 -14 -102 -112 -103 -112 68 -76 c137 -151 137 -151 115
-163 -26 -14 -71 -13 -97 2 -11 7 -49 42 -84 80 -34 37 -68 67 -74 67 -6 0
-36 -27 -65 -61 -61 -69 -104 -99 -141 -99 -32 1 -76 25 -62 34 20 12 192 205
192 215 0 5 -45 59 -100 119 l-100 110 28 10 c36 14 46 14 79 1z"/>
<path d="M356 248 l-157 -172 23 -18 c26 -20 94 -24 131 -7 13 6 55 45 93 87
l68 75 71 -75 c38 -42 80 -81 92 -87 34 -17 108 -14 133 7 l22 18 -157 172
c-86 95 -158 172 -160 172 -1 0 -73 -77 -159 -172z"/>
</g>
</svg>
