<svg width="1920" height="1080" viewBox="0 0 1920 1080" fill="none" xmlns="http://www.w3.org/2000/svg">
<path d="M1041.5 314.2C1041.4 315.5 1041.1 316.7 1041.1 318C1041.1 326.5 1041.2 334.9 1041 343.4C1040.8 351.2 1034.6 357.1 1026.7 356.8C1026.7 354.7 1026.7 352.6 1026.7 350.5C1026.7 335.8 1026.7 321.2 1026.7 306.5C1026.7 301.4 1028.6 300.1 1033.7 299.5C1045.9 298 1053.6 303 1057.3 314.6C1058.5 318.4 1060.6 322 1062.7 326.6C1065.2 321.2 1067.3 316.5 1069.5 311.9C1074.5 300.9 1082.7 296.8 1094.4 299.9C1096.1 300.4 1098.5 302.8 1098.5 304.4C1098.8 321.9 1098.7 339.4 1098.7 356.9C1090.7 356.9 1084.6 351.2 1084.5 343.3C1084.3 334.9 1084.5 326.4 1084.4 317.9C1084.4 316.6 1084.1 315.4 1084 314.1C1083.7 314 1083.3 313.9 1083 313.9C1082.3 315.1 1081.4 316.2 1080.8 317.4C1076.1 327.6 1071.6 337.8 1066.9 347.9C1066.2 349.5 1064.2 351.7 1063 351.5C1061.4 351.3 1059.5 349.4 1058.7 347.8C1053.9 337.7 1049.4 327.5 1044.7 317.3C1044.1 316.1 1043.3 315 1042.5 313.9C1042.2 314 1041.8 314.1 1041.5 314.2Z" fill="black"/>
<path d="M888 328.3C888 323.6 887.9 318.9 888 314.1C888.2 305.8 894.1 299.7 902.4 299.6C911.9 299.5 921.4 299.5 930.9 299.6C939.3 299.7 945.4 305.6 945.6 313.9C945.8 323.6 945.8 333.3 945.6 343C945.4 351.2 939.5 356.9 931.2 357C921.6 357.2 912 357.2 902.3 357C893.9 356.8 888.2 350.9 888 342.4C887.9 337.7 888 333 888 328.3ZM916.8 342.8C920.2 342.8 923.5 342.8 926.9 342.8C929.7 342.8 931.2 341.4 931.2 338.7C931.3 331.9 931.3 325.1 931.2 318.2C931.2 315.5 929.8 314 927.1 314C920.2 314 913.4 314 906.5 314C903.7 314 902.4 315.5 902.4 318.2C902.4 324.9 902.4 331.6 902.4 338.3C902.4 341.4 904.1 342.8 907.1 342.7C910.3 342.7 913.6 342.8 916.8 342.8Z" fill="black"/>
<path d="M1135.9 357.1C1131.2 357.1 1126.4 357.2 1121.7 357.1C1113.2 356.9 1107.3 351.1 1107.2 342.7C1107 333.1 1107 323.6 1107.2 314C1107.4 305.7 1113.5 299.8 1121.8 299.7C1131.3 299.6 1140.8 299.6 1150.3 299.7C1158.6 299.8 1164.7 305.9 1164.8 314.2C1164.9 323.8 1164.9 333.3 1164.8 342.9C1164.7 351.1 1158.8 356.9 1150.6 357.1C1145.6 357.2 1140.7 357.1 1135.9 357.1ZM1135.5 342.8C1138.9 342.8 1142.2 342.7 1145.6 342.8C1148.7 342.9 1150.3 341.5 1150.4 338.4C1150.4 331.7 1150.4 325 1150.4 318.3C1150.4 315.6 1149.1 314.1 1146.3 314.1C1139.4 314.1 1132.6 314.1 1125.7 314.1C1122.9 314.1 1121.5 315.5 1121.5 318.2C1121.5 325 1121.5 331.8 1121.5 338.7C1121.5 341.4 1123 342.8 1125.7 342.8C1129 342.8 1132.3 342.8 1135.5 342.8Z" fill="black"/>
<path d="M868.2 339.1C872.2 344.8 875.8 350 879.4 355.1C873.7 358.7 866.3 357.3 861.9 351.7C859.2 348.3 856.9 344.6 854.3 341.1C853.6 340.2 852.5 339.2 851.5 339.1C846.7 338.9 841.8 339 836.5 339C836.7 344.9 836 350.4 831 353.8C828.6 355.5 825.5 356.3 822.1 357.8C822.1 354.7 822.1 352.7 822.1 350.7C822.1 336 822.1 321.4 822.1 306.7C822.1 301.1 823.9 299.4 829.5 299.4C841 299.4 852.5 299.4 864 299.4C873.8 299.4 879.7 305.3 879.8 314.9C879.8 316.8 879.7 318.6 879.8 320.5C880.4 329.3 877.6 336 868.2 339.1ZM836.7 326.5C844.4 326.5 851.6 326.5 858.8 326.5C864.9 326.5 865.4 325.9 865.4 319.9C865.4 314.9 864.6 314.1 859.5 314C857.3 314 855 314 852.8 314C847.5 314 842.2 314 836.7 314C836.7 318.4 836.7 322.2 836.7 326.5Z" fill="black"/>
<path d="M770.6 343C768.9 352.1 764.3 356.6 756.2 356.9C756.1 355.7 756 354.6 756 353.4C756 338 756 322.6 756 307.2C756 301.3 757.7 299.6 763.5 299.6C775 299.6 786.5 299.6 798 299.6C807.7 299.6 813.6 305.5 813.7 315.1C813.7 319.2 813.7 323.3 813.7 327.4C813.6 336.8 807.7 342.7 798.2 342.7C789.3 342.8 780.5 342.7 771.6 342.8C771.4 342.8 771.1 342.9 770.6 343ZM770.4 330.1C776.7 330.1 782.7 330.1 788.7 330.1C799.6 330.1 799.4 331.5 799.3 318.9C799.3 315.5 797.8 313.9 794.3 314C787.9 314.1 781.6 314 775.2 314C773.6 314 772.1 314 770.4 314C770.4 319.6 770.4 324.6 770.4 330.1Z" fill="black"/>
<path d="M995.4 328.4C1003 336.7 1010.3 344.7 1017.5 352.7C1012.7 358.2 1004.6 358.2 999.2 352.8C995.6 349.2 992.2 345.3 988.8 341.5C988 340.6 987.5 339.4 986.6 338C981.6 343.5 977.6 348 973.4 352.4C967.9 358.1 960.4 358.4 954.5 352.9C961.8 344.9 969.2 336.8 976.8 328.4C969.3 320.2 962 312.1 954.7 304.1C959.2 298.9 967.5 298.8 972.7 303.9C977.2 308.4 981.4 313.1 986.1 318.2C990.2 313.7 994.2 309.5 998 305.2C1001.5 301.2 1005.8 299.4 1011 300.5C1013.2 301 1015.3 302.1 1018.2 303.3C1010.4 311.9 1003.1 320 995.4 328.4Z" fill="#E57000"/>
<path d="M1205.1 318.4C1209.6 313.4 1213.6 309 1217.7 304.7C1222.2 299.9 1229.1 298.8 1234.4 301.9C1235.2 302.4 1235.9 303.1 1236.9 303.9C1229.4 312.1 1222.2 320.1 1214.6 328.4C1222.1 336.6 1229.4 344.7 1236.7 352.7C1231.9 358.3 1223.6 358.2 1218.1 352.5C1213.9 348.1 1209.8 343.5 1205.3 338.6C1203 341 1201 343.3 1198.9 345.5C1196.7 347.9 1194.6 350.4 1192.3 352.6C1187 357.9 1180.1 358.2 1173.6 353C1181 344.9 1188.4 336.7 1196 328.4C1188.5 320.2 1181.3 312.2 1174 304.2C1178 298.9 1186.6 298.7 1191.8 303.8C1195.3 307.3 1198.6 311.1 1202 314.7C1202.9 315.8 1203.8 316.8 1205.1 318.4Z" fill="#E57000"/>
<path d="M664.4 328.2C659.9 323.2 655.5 318.5 651.2 313.7C646.9 309 642.7 304.3 638.5 299.7C642.3 294.9 649.7 293.5 655.6 296.6C657.7 297.7 659.6 299.2 661.2 300.9C669 309.3 676.7 317.7 684.4 326.2C685 326.8 685.5 327.6 686.2 328.5C677.2 338.3 668.4 348.3 659 357.8C653.3 363.5 643.5 362.8 638.4 356.9C646.9 347.4 655.5 338 664.4 328.2Z" fill="#E57000"/>
<path d="M693 328.2C702.1 318.3 710.6 308.6 719.6 299.3C725.6 293.2 735.4 293.5 740.8 299.6C732.2 309 723.6 318.5 714.8 328.2C723.6 337.9 732.2 347.3 740.7 356.7C735.6 363.2 725.1 363.1 718.8 356.6C712.4 349.8 706.2 342.8 699.9 335.9C697.8 333.5 695.6 331 693 328.2Z" fill="#E57000"/>
<path d="M655.2 287.6C662.2 281.5 670.3 281.8 676.3 288.1C680.8 292.8 685.1 297.6 689.6 302.6C694.1 297.7 698.4 292.9 702.8 288.2C708.9 281.8 717.7 281.6 723.9 287.8C712.5 300.2 701.2 312.7 689.6 325.4C678.1 312.7 666.7 300.2 655.2 287.6Z" fill="black"/>
<path d="M724 368.8C717.5 374.9 709 374.7 703.1 368.5C698.6 363.8 694.3 359 689.7 353.9C685.3 358.8 681 363.5 676.6 368.2C670.5 374.7 662.2 375 655.3 368.9C666.6 356.4 678 344 689.7 331.1C701.1 343.8 712.5 356.2 724 368.8Z" fill="black"/>
<path d="M888.5 517.7C888.5 500.7 888.5 483.7 888.5 466.7C936.2 466.7 983.8 466.7 1031.5 466.7C1031.5 483.7 1031.5 500.7 1031.5 517.7C983.8 517.7 936.2 517.7 888.5 517.7ZM941.3 487C941.3 491.9 941.3 496 941.3 500.2C942.4 500.2 943.3 500.2 944.6 500.2C944.6 497.8 944.5 495.5 944.6 493.3C944.6 491.8 944.9 490.3 946.8 490.3C948.7 490.3 948.9 491.8 948.9 493.3C948.9 495.6 948.9 497.9 948.9 500.2C950.2 500.2 951.1 500.2 952.3 500.2C952.3 497.7 952.3 495.5 952.3 493.2C952.3 491.7 952.6 490.3 954.5 490.3C956.3 490.4 956.5 491.7 956.5 493.1C956.5 495.5 956.5 497.8 956.5 500.2C957.8 500.2 958.7 500.2 959.8 500.2C959.8 499.4 959.9 498.6 959.9 497.9C959.9 495.6 960 493.3 959.8 491C959.5 487.8 956.2 486.4 953.4 488.1C952.8 488.5 952.3 489 951.8 489.5C949.4 486.8 947.6 486.8 945.2 488.8C943.9 488.1 942.8 487.7 941.3 487ZM967.1 499.3C969 500.9 971.5 501 973.4 499.1C975.6 497 975.8 491.6 973.8 489.2C972 487 969.6 487 966 489.2C966 487.1 966 485.2 966 483.4C964.7 483.4 963.7 483.4 962.8 483.4C962.8 489.2 962.8 494.7 962.8 500.8C964.2 500.2 965.3 499.9 967.1 499.3ZM927.1 504.4C930.7 505.6 933 505 934 502.4C936 497.6 937.7 492.6 939.4 487.8C936.5 486.8 935.4 488 934.9 490.5C934.5 492.5 933.8 494.4 933.2 496.3C932 494.3 931.4 492.3 930.9 490.3C930 487.2 930 487.1 926.6 487.9C927.3 489.8 927.9 491.8 928.6 493.7C929.3 495.6 929.9 497.6 930.7 499.5C931.3 501 931 502 929.2 502.5C928.5 502.7 928 503.6 927.1 504.4ZM989.1 500.5C992.9 500.5 995.4 498.1 995.5 494.2C995.6 490.1 993.1 487.5 989.2 487.5C985.3 487.5 982.8 490 982.8 494.1C982.8 498 985.2 500.4 989.1 500.5ZM914.6 496.2C915.4 500.2 919.3 501.5 922.9 499.9C924.5 499.1 925.9 497.9 925.3 496.1C924.9 494.9 923.6 493.9 922.5 493.2C921.5 492.6 920.1 492.6 918.9 492.2C918.5 492 918 491.4 918 491C918 490.6 918.7 490 919.1 490C919.9 489.9 920.7 490.2 921.4 490.4C922.5 490.7 923.6 490.9 925.2 491.3C923.7 487.7 920.6 486.6 917.2 487.7C915.5 488.3 914.3 489.3 914.4 491.3C914.4 493.2 915.5 494.1 917.2 494.6C918.4 494.9 919.6 495.1 920.8 495.5C921.3 495.7 921.6 496.3 921.9 496.7C921.4 497.1 921 497.8 920.5 497.9C919.7 498 918.9 497.8 918.1 497.6C917 497.2 915.8 496.7 914.6 496.2ZM1008.1 491.4C1006.9 487.7 1002.7 486.2 999.5 488.1C998.5 488.7 997.5 490.3 997.6 491.4C997.6 492.5 998.8 493.8 999.9 494.4C1000.9 495.1 1002.5 495 1003.7 495.5C1004.2 495.7 1004.6 496.3 1005 496.8C1004.5 497.2 1004.1 497.8 1003.6 497.9C1002.8 498 1001.7 498 1001.3 497.5C1000 496.2 998.7 496.4 997.3 497C998.7 500.4 1003.7 501.8 1006.7 499.5C1007.7 498.8 1008.5 497.2 1008.4 496.1C1008.3 495.1 1007 494 1006 493.4C1005 492.8 1003.6 492.9 1002.4 492.4C1001.8 492.2 1001.5 491.4 1001 490.9C1001.6 490.5 1002.1 490 1002.8 489.9C1003.3 489.8 1003.9 490.1 1004.4 490.3C1005.5 490.6 1006.6 490.9 1008.1 491.4ZM1027.1 491.4C1026.2 487.8 1022.7 486.4 1019.1 487.8C1017.5 488.4 1016.1 489.6 1016.6 491.3C1016.9 492.5 1018 493.7 1019.1 494.5C1020.1 495.2 1021.7 495.1 1022.9 495.6C1023.3 495.8 1023.9 496.4 1023.9 496.8C1023.9 497.2 1023.2 497.8 1022.8 497.9C1021.9 498 1021 497.8 1020.2 497.6C1019 497.3 1017.8 496.8 1016.3 496.3C1017.2 500.2 1021.2 501.7 1024.9 500C1026.6 499.3 1027.9 498 1027.3 496.2C1026.9 495 1025.6 494 1024.5 493.3C1023.7 492.8 1022.4 492.9 1021.4 492.5C1020.8 492.3 1020.4 491.6 1019.9 491.1C1020.5 490.7 1021.1 490.2 1021.8 490C1022.3 489.9 1022.9 490.3 1023.4 490.5C1024.7 490.7 1025.8 491 1027.1 491.4ZM980.6 500.3C980.6 496.1 980.6 491.9 980.6 487.7C979.5 487.7 978.5 487.7 977.5 487.7C977.5 492 977.5 496.1 977.5 500.3C978.6 500.3 979.4 500.3 980.6 500.3ZM1013.9 500.2C1013.9 495.9 1013.9 491.7 1013.9 487.7C1012.7 487.7 1011.8 487.7 1010.8 487.7C1010.8 492 1010.8 496.1 1010.8 500.2C1011.8 500.2 1012.7 500.2 1013.9 500.2ZM1012.3 481.5C1011.5 482.6 1010.6 483.4 1010.7 484C1010.8 484.6 1011.9 485.5 1012.5 485.5C1013.1 485.5 1014.1 484.5 1014.1 483.9C1014.1 483.2 1013.2 482.6 1012.3 481.5ZM979 481.6C978.2 482.6 977.3 483.3 977.3 483.9C977.3 484.5 978.4 485.5 978.9 485.5C979.6 485.4 980.5 484.6 980.7 483.9C980.9 483.3 979.8 482.6 979 481.6Z" fill="white"/>
<path d="M941.3 487C942.9 487.6 944 488.1 945.4 488.7C947.8 486.7 949.6 486.8 952 489.4C952.5 488.9 953 488.4 953.6 488C956.4 486.3 959.7 487.7 960 490.9C960.2 493.2 960.1 495.5 960.1 497.8C960.1 498.5 960 499.3 960 500.1C958.9 500.1 957.9 500.1 956.7 500.1C956.7 497.7 956.7 495.4 956.7 493C956.7 491.6 956.5 490.2 954.7 490.2C952.8 490.1 952.5 491.5 952.5 493.1C952.5 495.4 952.5 497.7 952.5 500.1C951.3 500.1 950.4 500.1 949.1 500.1C949.1 497.8 949.1 495.5 949.1 493.2C949.1 491.7 948.9 490.2 947 490.2C945.1 490.2 944.8 491.7 944.8 493.2C944.7 495.5 944.8 497.8 944.8 500.1C943.5 500.1 942.6 500.1 941.5 500.1C941.3 496 941.3 491.9 941.3 487Z" fill="black"/>
<path d="M967.1 499.3C965.3 499.9 964.2 500.2 962.7 500.7C962.7 494.7 962.7 489.1 962.7 483.3C963.6 483.3 964.6 483.3 965.9 483.3C965.9 485.1 965.9 487 965.9 489.1C969.5 486.9 972 486.9 973.7 489.1C975.7 491.6 975.5 496.9 973.3 499C971.5 500.9 969 500.8 967.1 499.3ZM971.6 493.5C971.5 492 971.1 490.3 968.9 490.1C967.3 489.9 965.9 491.8 966.1 494C966.2 495.8 966.6 497.5 968.8 497.8C970.4 497.9 971.6 496.2 971.6 493.5Z" fill="black"/>
<path d="M927.1 504.4C928 503.5 928.5 502.7 929.3 502.4C931 501.9 931.3 501 930.8 499.4C930.1 497.5 929.4 495.5 928.7 493.6C928 491.7 927.4 489.7 926.7 487.8C930.1 487.1 930.1 487.1 931 490.2C931.6 492.2 932.2 494.2 933.3 496.2C933.9 494.3 934.6 492.4 935 490.4C935.5 487.9 936.6 486.7 939.5 487.7C937.7 492.6 936 497.5 934.1 502.3C933 505 930.7 505.6 927.1 504.4Z" fill="black"/>
<path d="M989.1 500.5C985.3 500.5 982.9 498 982.8 494.1C982.8 490 985.2 487.5 989.2 487.5C993.1 487.5 995.6 490.1 995.5 494.2C995.4 498 992.9 500.5 989.1 500.5ZM991.9 493.9C991.9 491.6 990.6 489.9 989 489.9C987.4 490 986.3 491.6 986.3 494C986.4 495.8 986.7 497.6 989 497.8C990.7 498 991.9 496.2 991.9 493.9Z" fill="black"/>
<path d="M914.6 496.2C915.8 496.7 916.9 497.2 918.2 497.5C919 497.7 919.8 497.9 920.6 497.8C921.1 497.7 921.5 497 922 496.6C921.6 496.2 921.3 495.6 920.9 495.4C919.7 495 918.5 494.8 917.3 494.5C915.6 494 914.5 493 914.5 491.2C914.5 489.2 915.6 488.2 917.3 487.6C920.7 486.4 923.8 487.6 925.3 491.2C923.8 490.8 922.6 490.5 921.5 490.3C920.7 490.1 919.9 489.9 919.2 489.9C918.8 489.9 918.1 490.5 918.1 490.9C918.1 491.3 918.6 492 919 492.1C920.2 492.5 921.6 492.5 922.6 493.1C923.8 493.8 925.1 494.8 925.4 496C926 497.8 924.6 499 923 499.8C919.4 501.5 915.4 500.2 914.6 496.2Z" fill="black"/>
<path d="M1008.1 491.4C1006.6 491 1005.5 490.6 1004.3 490.3C1003.8 490.1 1003.2 489.8 1002.7 489.9C1002.1 490 1001.5 490.6 1000.9 490.9C1001.3 491.4 1001.7 492.1 1002.3 492.4C1003.4 492.8 1004.8 492.8 1005.9 493.4C1006.9 494 1008.2 495.1 1008.3 496.1C1008.4 497.2 1007.6 498.8 1006.6 499.5C1003.6 501.8 998.6 500.4 997.2 497C998.7 496.5 999.9 496.2 1001.2 497.5C1001.6 498 1002.8 498 1003.5 497.9C1004 497.8 1004.5 497.2 1004.9 496.8C1004.5 496.4 1004.1 495.7 1003.6 495.5C1002.4 495 1000.9 495.1 999.8 494.4C998.8 493.7 997.6 492.4 997.5 491.4C997.4 490.3 998.4 488.7 999.4 488.1C1002.7 486.2 1006.9 487.6 1008.1 491.4Z" fill="black"/>
<path d="M1027.1 491.4C1025.7 491 1024.6 490.7 1023.6 490.4C1023.1 490.2 1022.5 489.8 1022 489.9C1021.3 490.1 1020.7 490.6 1020.1 491C1020.6 491.5 1021 492.2 1021.6 492.4C1022.6 492.8 1023.9 492.6 1024.7 493.2C1025.8 493.9 1027.2 495 1027.5 496.1C1028.1 497.9 1026.7 499.2 1025.1 499.9C1021.4 501.5 1017.3 500.1 1016.5 496.2C1018 496.7 1019.2 497.2 1020.4 497.5C1021.2 497.7 1022.2 497.9 1023 497.8C1023.4 497.8 1024.1 497.1 1024.1 496.7C1024.1 496.3 1023.6 495.7 1023.1 495.5C1021.9 495.1 1020.3 495.1 1019.3 494.4C1018.2 493.7 1017.1 492.4 1016.8 491.2C1016.3 489.5 1017.7 488.3 1019.3 487.7C1022.7 486.4 1026.2 487.8 1027.1 491.4Z" fill="black"/>
<path d="M980.6 500.3C979.4 500.3 978.6 500.3 977.5 500.3C977.5 496.1 977.5 492 977.5 487.7C978.5 487.7 979.5 487.7 980.6 487.7C980.6 491.9 980.6 496 980.6 500.3Z" fill="black"/>
<path d="M1013.9 500.2C1012.8 500.2 1011.9 500.2 1010.8 500.2C1010.8 496 1010.8 492 1010.8 487.7C1011.8 487.7 1012.7 487.7 1013.9 487.7C1013.9 491.8 1013.9 495.9 1013.9 500.2Z" fill="black"/>
<path d="M1012.3 481.5C1013.2 482.6 1014.1 483.2 1014.1 483.8C1014.1 484.4 1013.1 485.4 1012.5 485.4C1011.9 485.4 1010.8 484.5 1010.7 483.9C1010.6 483.4 1011.5 482.6 1012.3 481.5Z" fill="black"/>
<path d="M979 481.6C979.8 482.6 980.9 483.3 980.8 483.8C980.6 484.5 979.7 485.3 979 485.4C978.5 485.5 977.4 484.4 977.4 483.8C977.3 483.3 978.2 482.6 979 481.6Z" fill="black"/>
<path d="M971.6 493.5C971.6 496.2 970.4 497.9 968.8 497.8C966.6 497.6 966.2 495.8 966.1 494C966 491.8 967.3 489.9 968.9 490.1C971.1 490.3 971.5 492 971.6 493.5Z" fill="white"/>
<path d="M991.9 493.9C991.9 496.2 990.6 498 989 497.9C986.7 497.6 986.4 495.9 986.3 494.1C986.2 491.7 987.3 490.1 989 490C990.7 489.9 991.9 491.6 991.9 493.9Z" fill="white"/>
<path d="M782.3 732L779 732.2C778.9 731.9 778.8 731.7 778.6 731.4C778.4 731.1 778.2 731 777.9 730.8C777.6 730.7 777.2 730.6 776.8 730.6C776.2 730.6 775.8 730.7 775.4 731C775 731.2 774.8 731.5 774.8 731.9C774.8 732.2 774.9 732.5 775.2 732.7C775.5 732.9 775.9 733.1 776.5 733.2L778.9 733.7C780.2 734 781.1 734.4 781.7 735C782.3 735.6 782.6 736.3 782.6 737.3C782.6 738.2 782.3 738.9 781.8 739.6C781.3 740.2 780.6 740.8 779.7 741.1C778.8 741.5 777.8 741.6 776.7 741.6C775 741.6 773.6 741.2 772.6 740.5C771.6 739.8 771 738.8 770.8 737.5L774.4 737.3C774.5 737.8 774.8 738.2 775.2 738.5C775.6 738.8 776.1 738.9 776.8 738.9C777.4 738.9 777.9 738.8 778.3 738.5C778.7 738.2 778.9 737.9 778.9 737.5C778.9 737.2 778.8 736.9 778.5 736.7C778.2 736.5 777.8 736.3 777.2 736.2L774.9 735.7C773.6 735.4 772.7 735 772 734.4C771.3 733.8 771.1 733 771.1 732C771.1 731.2 771.3 730.4 771.8 729.8C772.3 729.2 772.9 728.7 773.7 728.4C774.5 728.1 775.5 727.9 776.6 727.9C778.3 727.9 779.6 728.2 780.5 728.9C781.5 729.8 782.1 730.8 782.3 732Z" fill="#333333"/>
<path d="M786.7 746.3C786.2 746.3 785.8 746.3 785.4 746.2C785 746.1 784.7 746 784.4 745.9L785.2 743.2C785.6 743.3 786 743.4 786.4 743.4C786.7 743.4 787 743.3 787.3 743.2C787.6 743 787.8 742.7 787.9 742.3L788.1 741.7L783.4 728.2H787.2L789.9 737.8H790L792.7 728.2H796.5L791.4 742.7C791.2 743.4 790.8 744 790.4 744.5C790 745 789.5 745.4 788.8 745.7C788.4 746.1 787.6 746.3 786.7 746.3Z" fill="#333333"/>
<path d="M798.2 741.4V728.3H801.7V730.6H801.9C802.2 729.8 802.6 729.2 803.3 728.8C803.9 728.4 804.7 728.1 805.6 728.1C806.5 728.1 807.3 728.3 807.9 728.8C808.5 729.2 809 729.8 809.2 730.6H809.3C809.6 729.8 810.1 729.2 810.8 728.8C811.5 728.3 812.3 728.1 813.3 728.1C814.5 728.1 815.5 728.5 816.3 729.3C817.1 730.1 817.4 731.2 817.4 732.6V741.4H813.8V733.3C813.8 732.6 813.6 732 813.2 731.7C812.8 731.3 812.3 731.2 811.8 731.2C811.1 731.2 810.6 731.4 810.3 731.8C810 732.2 809.7 732.8 809.7 733.4V741.4H806.2V733.2C806.2 732.6 806 732 805.7 731.7C805.3 731.3 804.9 731.1 804.3 731.1C803.9 731.1 803.5 731.2 803.2 731.4C802.9 731.6 802.6 731.9 802.4 732.2C802.2 732.6 802.1 733 802.1 733.5V741.4H798.2V741.4Z" fill="#333333"/>
<path d="M819.8 741.4V723.9H823.4V730.5H823.5C823.7 730.1 823.9 729.8 824.2 729.4C824.5 729 824.9 728.7 825.4 728.5C825.9 728.3 826.5 728.1 827.2 728.1C828.2 728.1 829 728.3 829.8 728.8C830.6 729.3 831.3 730 831.7 731C832.1 732 832.4 733.2 832.4 734.7C832.4 736.2 832.2 737.4 831.7 738.4C831.2 739.4 830.6 740.2 829.8 740.7C829 741.2 828.1 741.5 827.1 741.5C826.4 741.5 825.8 741.4 825.3 741.2C824.8 741 824.4 740.7 824.1 740.3C823.8 739.9 823.5 739.6 823.4 739.2H823.2V741.3H819.8V741.4ZM823.3 734.8C823.3 735.6 823.4 736.3 823.6 736.8C823.8 737.4 824.1 737.8 824.5 738.2C824.9 738.5 825.4 738.7 826 738.7C826.6 738.7 827.1 738.5 827.5 738.2C827.9 737.9 828.2 737.4 828.4 736.8C828.6 736.2 828.7 735.5 828.7 734.8C828.7 734 828.6 733.4 828.4 732.8C828.2 732.2 827.9 731.8 827.5 731.5C827.1 731.2 826.6 731 826 731C825.4 731 824.9 731.2 824.5 731.5C824.1 731.8 823.8 732.3 823.6 732.8C823.4 733.4 823.3 734 823.3 734.8Z" fill="#333333"/>
<path d="M836.4 726.6C835.9 726.6 835.4 726.4 835 726.1C834.6 725.7 834.4 725.3 834.4 724.8C834.4 724.3 834.6 723.9 835 723.5C835.4 723.1 835.8 723 836.4 723C836.9 723 837.4 723.2 837.8 723.5C838.2 723.9 838.4 724.3 838.4 724.8C838.4 725.3 838.2 725.7 837.8 726.1C837.4 726.4 837 726.6 836.4 726.6ZM834.6 741.4V728.3H838.2V741.4H834.6Z" fill="#333333"/>
<path d="M846.7 741.6C845.4 741.6 844.2 741.3 843.3 740.8C842.3 740.2 841.6 739.4 841.1 738.4C840.6 737.4 840.3 736.2 840.3 734.9C840.3 733.5 840.6 732.4 841.1 731.4C841.6 730.4 842.4 729.6 843.3 729C844.3 728.4 845.4 728.2 846.7 728.2C848 728.2 849.2 728.5 850.1 729C851.1 729.6 851.8 730.4 852.3 731.4C852.8 732.4 853.1 733.6 853.1 734.9C853.1 736.2 852.8 737.4 852.3 738.4C851.8 739.4 851 740.2 850.1 740.8C849.2 741.3 848 741.6 846.7 741.6ZM846.7 738.8C847.3 738.8 847.8 738.6 848.2 738.3C848.6 738 848.9 737.5 849.1 736.9C849.3 736.3 849.4 735.6 849.4 734.9C849.4 734.1 849.3 733.5 849.1 732.9C848.9 732.3 848.6 731.8 848.2 731.5C847.8 731.2 847.3 731 846.7 731C846.1 731 845.6 731.2 845.2 731.5C844.8 731.8 844.5 732.3 844.3 732.9C844.1 733.5 844 734.2 844 734.9C844 735.7 844.1 736.3 844.3 736.9C844.5 737.5 844.8 738 845.2 738.3C845.6 738.6 846.1 738.8 846.7 738.8Z" fill="#333333"/>
<path d="M866 732L862.7 732.2C862.6 731.9 862.5 731.7 862.3 731.4C862.1 731.1 861.9 731 861.6 730.8C861.3 730.7 860.9 730.6 860.5 730.6C859.9 730.6 859.5 730.7 859.1 731C858.7 731.2 858.5 731.5 858.5 731.9C858.5 732.2 858.6 732.5 858.9 732.7C859.2 732.9 859.6 733.1 860.2 733.2L862.6 733.7C863.9 734 864.8 734.4 865.4 735C866 735.6 866.3 736.3 866.3 737.3C866.3 738.2 866 738.9 865.5 739.6C865 740.2 864.3 740.8 863.4 741.1C862.5 741.5 861.5 741.6 860.4 741.6C858.7 741.6 857.3 741.2 856.3 740.5C855.3 739.8 854.7 738.8 854.5 737.5L858.1 737.3C858.2 737.8 858.5 738.2 858.9 738.5C859.3 738.8 859.8 738.9 860.5 738.9C861.1 738.9 861.6 738.8 862 738.5C862.4 738.2 862.6 737.9 862.6 737.5C862.6 737.2 862.5 736.9 862.2 736.7C861.9 736.5 861.5 736.3 860.9 736.2L858.6 735.7C857.3 735.4 856.4 735 855.7 734.4C855 733.8 854.8 733 854.8 732C854.8 731.2 855 730.4 855.5 729.8C856 729.2 856.6 728.7 857.4 728.4C858.2 728.1 859.2 727.9 860.3 727.9C862 727.9 863.3 728.2 864.2 728.9C865.3 729.8 865.9 730.8 866 732Z" fill="#333333"/>
<path d="M870.1 726.6C869.6 726.6 869.1 726.4 868.7 726.1C868.3 725.7 868.1 725.3 868.1 724.8C868.1 724.3 868.3 723.9 868.7 723.5C869.1 723.1 869.5 723 870.1 723C870.6 723 871.1 723.2 871.5 723.5C871.9 723.9 872.1 724.3 872.1 724.8C872.1 725.3 871.9 725.7 871.5 726.1C871.1 726.4 870.6 726.6 870.1 726.6ZM868.3 741.4V728.3H871.9V741.4H868.3Z" fill="#333333"/>
<path d="M885.3 732L882 732.2C881.9 731.9 881.8 731.7 881.6 731.4C881.4 731.1 881.2 731 880.9 730.8C880.6 730.7 880.2 730.6 879.8 730.6C879.2 730.6 878.8 730.7 878.4 731C878 731.2 877.8 731.5 877.8 731.9C877.8 732.2 877.9 732.5 878.2 732.7C878.5 732.9 878.9 733.1 879.5 733.2L881.9 733.7C883.2 734 884.1 734.4 884.7 735C885.3 735.6 885.6 736.3 885.6 737.3C885.6 738.2 885.3 738.9 884.8 739.6C884.3 740.2 883.6 740.8 882.7 741.1C881.8 741.5 880.8 741.6 879.7 741.6C878 741.6 876.6 741.2 875.6 740.5C874.6 739.8 874 738.8 873.8 737.5L877.4 737.3C877.5 737.8 877.8 738.2 878.2 738.5C878.6 738.8 879.1 738.9 879.8 738.9C880.4 738.9 880.9 738.8 881.3 738.5C881.7 738.2 881.9 737.9 881.9 737.5C881.9 737.2 881.8 736.9 881.5 736.7C881.2 736.5 880.8 736.3 880.2 736.2L877.9 735.7C876.6 735.4 875.7 735 875 734.4C874.3 733.8 874.1 733 874.1 732C874.1 731.2 874.3 730.4 874.8 729.8C875.3 729.2 875.9 728.7 876.7 728.4C877.5 728.1 878.5 727.9 879.6 727.9C881.3 727.9 882.6 728.2 883.5 728.9C884.6 729.8 885.2 730.8 885.3 732Z" fill="#333333"/>
</svg>
