<?xml version="1.0" encoding="utf-8"?>
<!-- Generator: Adobe Illustrator 26.0.3, SVG Export Plug-In . SVG Version: 6.00 Build 0)  -->
<svg version="1.0" id="katman_1" xmlns="http://www.w3.org/2000/svg" xmlns:xlink="http://www.w3.org/1999/xlink" x="0px" y="0px"
	 viewBox="0 0 800 600" style="enable-background:new 0 0 800 600;" xml:space="preserve">
<style type="text/css">
	.st0{fill:#517BBD;}
	.st1{opacity:7.000000e-02;fill:#010202;enable-background:new    ;}
	.st2{fill:#FFFFFF;}
</style>
<g>
	<path class="st0" d="M648.5,276.1L543.8,94c-8-14.2-22.9-23.1-39.3-23.4H295.1c-16.3,0.3-31.3,9.2-39.3,23.4L151.1,275.6
		c-8.1,14.1-8.1,31.4,0,45.5l104.7,183.2c7.9,14.4,22.8,23.6,39.3,24.2h209.5c16.4-0.6,31.4-9.7,39.3-24.1l104.7-182.1
		C656.7,308,656.7,290.4,648.5,276.1z"/>
	<path class="st1" d="M501.9,237.6l-102-45.5l-97.5,53l-4,116.8l166.6,166.7h39.8c16.4-0.6,31.4-9.7,39.3-24.1L626,361.6
		L501.9,237.6z"/>
	<g id="art">
		<path class="st2" d="M499.3,235.8l-94.2-54.5c-3.3-1.9-7.4-1.9-10.8,0l-94.2,54.5c-3.3,1.9-5.4,5.5-5.4,9.3V354
			c0,3.8,2.1,7.4,5.4,9.3l94.2,54.5c3.3,1.9,7.4,1.9,10.8,0l94.2-54.5c3.3-1.9,5.4-5.5,5.4-9.3V245.1
			C504.7,241.3,502.7,237.7,499.3,235.8z M486.5,343.5l-32.9-19v-50l-48.6,27.9v56.3l43.3-25l32.9,19l-81.5,47l-81.5-47l32.9-19
			l43.3,25v-56.1L346,274.7v49.8l-32.9,19v-94l81.5-47v37.9l-43.3,25l48.6,27.9l48.6-27.9l-43.3-25v-37.9l81.5,47V343.5z"/>
	</g>
</g>
</svg>
