<svg id="svg" version="1.1" xmlns="http://www.w3.org/2000/svg" xmlns:xlink="http://www.w3.org/1999/xlink" width="400" height="458.87850467289724" viewBox="0, 0, 400,458.87850467289724"><g id="svgg"><path id="path0" d="M105.418 114.797 C 93.994 116.811,85.357 124.198,82.864 134.084 C 81.887 137.958,81.886 319.978,82.863 323.860 C 88.643 346.832,120.816 350.331,131.292 329.128 C 134.038 323.569,133.767 331.062,133.950 255.696 L 134.112 188.806 192.034 258.188 C 249.727 327.295,253.909 332.152,258.127 334.954 C 278.883 348.740,305.832 344.579,313.017 326.480 C 314.757 322.097,314.655 328.595,314.567 227.664 L 314.486 134.735 313.458 131.776 C 304.932 107.240,269.172 108.963,263.436 134.186 C 262.976 136.208,262.928 142.569,262.928 202.547 L 262.928 268.677 262.175 267.906 C 261.761 267.481,235.607 236.223,204.054 198.442 C 147.322 130.511,143.848 126.435,140.498 123.842 C 131.265 116.696,116.394 112.862,105.418 114.797 " stroke="none" fill="#fbfbfb" fill-rule="evenodd"></path><path id="path1" d="M196.885 0.739 C 196.285 0.959,152.757 25.983,100.156 56.347 C -3.651 116.271,2.350 112.643,0.984 116.295 L 0.308 118.101 0.388 230.001 L 0.467 341.900 1.574 343.904 C 2.183 345.006,3.164 346.289,3.755 346.755 C 5.336 348.002,195.682 457.805,197.089 458.282 C 198.690 458.825,202.380 458.771,203.738 458.186 C 206.151 457.146,396.179 347.219,397.130 346.313 C 397.694 345.776,398.570 344.507,399.077 343.491 L 400.000 341.645 400.000 229.757 C 400.000 130.770,399.946 117.709,399.529 116.489 C 398.235 112.694,406.538 117.723,300.467 56.491 C 247.523 25.928,203.715 0.786,203.115 0.619 C 201.594 0.195,198.188 0.261,196.885 0.739 M121.011 115.245 C 130.655 117.213,138.370 121.234,144.449 127.459 C 145.680 128.720,172.502 160.662,204.054 198.442 C 235.607 236.223,261.761 267.481,262.175 267.906 L 262.928 268.677 262.928 202.547 C 262.928 142.569,262.976 136.208,263.436 134.186 C 269.172 108.963,304.932 107.240,313.458 131.776 L 314.486 134.735 314.567 227.664 C 314.655 328.595,314.757 322.097,313.017 326.480 C 305.832 344.579,278.883 348.740,258.127 334.954 C 253.909 332.152,249.727 327.295,192.034 258.188 L 134.112 188.806 133.950 255.696 C 133.767 331.062,134.038 323.569,131.292 329.128 C 120.816 350.331,88.643 346.832,82.863 323.860 C 81.886 319.978,81.887 137.958,82.864 134.084 C 86.540 119.504,102.723 111.512,121.011 115.245 " stroke="none" fill="#04943c" fill-rule="evenodd"></path></g></svg>