<svg width="636" height="600" viewBox="0 0 636 600" fill="none" xmlns="http://www.w3.org/2000/svg">
<g filter="url(#filter0_d_135_1656)">
<rect x="36" y="30" width="564" height="540" rx="12" fill="white"/>
<path d="M156.5 80.4L150.284 90.76L144.04 80.4H141.1V100H143.704V84.712L150.116 95.352H150.452L156.864 84.684V100H159.44V80.4H156.5ZM174.971 88.408C173.767 86.56 172.003 85.636 169.679 85.636C167.719 85.636 166.039 86.364 164.667 87.792C163.295 89.22 162.595 90.956 162.595 93C162.595 95.044 163.295 96.808 164.667 98.236C166.039 99.664 167.719 100.364 169.679 100.364C172.003 100.364 173.767 99.44 174.971 97.592V100H177.407V86H174.971V88.408ZM169.987 98.012C168.587 98.012 167.411 97.536 166.459 96.584C165.507 95.604 165.031 94.428 165.031 93C165.031 91.572 165.507 90.396 166.459 89.444C167.411 88.464 168.587 87.988 169.987 87.988C171.415 87.988 172.591 88.464 173.543 89.444C174.495 90.396 174.971 91.572 174.971 93C174.971 94.428 174.495 95.604 173.543 96.584C172.591 97.536 171.415 98.012 169.987 98.012ZM188.07 85.636C186.026 85.636 184.514 86.42 183.534 88.016V86H181.098V100H183.534V92.58C183.534 89.444 185.158 87.96 187.594 87.96C189.75 87.96 191.066 89.276 191.066 91.544V100H193.502V91.404C193.502 87.848 191.346 85.636 188.07 85.636ZM208.495 88.408C207.291 86.56 205.527 85.636 203.203 85.636C201.243 85.636 199.563 86.364 198.191 87.792C196.819 89.22 196.119 90.956 196.119 93C196.119 95.044 196.819 96.808 198.191 98.236C199.563 99.664 201.243 100.364 203.203 100.364C205.527 100.364 207.291 99.44 208.495 97.592V100H210.931V86H208.495V88.408ZM203.511 98.012C202.111 98.012 200.935 97.536 199.983 96.584C199.031 95.604 198.555 94.428 198.555 93C198.555 91.572 199.031 90.396 199.983 89.444C200.935 88.464 202.111 87.988 203.511 87.988C204.939 87.988 206.115 88.464 207.067 89.444C208.019 90.396 208.495 91.572 208.495 93C208.495 94.428 208.019 95.604 207.067 96.584C206.115 97.536 204.939 98.012 203.511 98.012ZM226.241 88.408C225.037 86.56 223.273 85.636 220.977 85.636C218.989 85.636 217.281 86.336 215.909 87.764C214.537 89.164 213.837 90.872 213.837 92.916C213.837 94.96 214.537 96.668 215.909 98.096C217.281 99.524 218.989 100.224 220.977 100.224C223.245 100.224 225.009 99.3 226.241 97.424V99.412C226.241 102.072 224.477 103.696 221.565 103.696C219.297 103.696 217.757 102.912 217.001 101.344L214.873 102.548C216.021 104.76 218.373 105.964 221.509 105.964C223.469 105.964 225.149 105.376 226.549 104.228C227.949 103.08 228.649 101.484 228.649 99.412V86H226.241V88.408ZM226.241 92.916C226.241 94.344 225.765 95.52 224.813 96.472C223.861 97.424 222.685 97.9 221.257 97.9C219.829 97.9 218.653 97.424 217.701 96.472C216.749 95.52 216.273 94.344 216.273 92.916C216.273 91.516 216.749 90.34 217.701 89.388C218.653 88.436 219.829 87.96 221.257 87.96C222.685 87.96 223.861 88.436 224.813 89.388C225.765 90.34 226.241 91.516 226.241 92.916ZM245.78 94.12C245.836 93.756 245.864 93.392 245.864 93.028C245.864 90.984 245.22 89.248 243.904 87.82C242.616 86.364 240.936 85.636 238.892 85.636C236.736 85.636 234.972 86.336 233.6 87.736C232.228 89.136 231.556 90.9 231.556 93C231.556 95.128 232.256 96.892 233.628 98.292C235.028 99.664 236.848 100.364 239.06 100.364C241.804 100.364 243.848 99.3 245.22 97.2L243.148 96.024C242.308 97.396 240.964 98.068 239.116 98.068C236.456 98.068 234.524 96.612 234.048 94.12H245.78ZM238.892 87.932C241.132 87.932 242.98 89.332 243.4 91.992H234.048C234.468 89.528 236.288 87.932 238.892 87.932Z" fill="black"/>
<path d="M254.208 82.192L254.852 84.432L259.024 83.2V100H261.6V80.4H259.36L254.208 82.192ZM278.189 97.592C279.505 95.744 280.177 93.28 280.177 90.2C280.177 87.12 279.505 84.656 278.189 82.808C276.873 80.96 274.997 80.036 272.617 80.036C270.237 80.036 268.361 80.96 267.045 82.808C265.729 84.656 265.057 87.12 265.057 90.2C265.057 93.28 265.729 95.744 267.045 97.592C268.361 99.44 270.237 100.364 272.617 100.364C274.997 100.364 276.873 99.44 278.189 97.592ZM267.661 90.2C267.661 85.3 269.453 82.556 272.617 82.556C275.781 82.556 277.601 85.356 277.601 90.2C277.601 95.044 275.781 97.816 272.617 97.816C269.453 97.816 267.661 95.044 267.661 90.2ZM290.086 92.776L295.126 86H292.27L288.658 90.872L285.046 86H282.162L287.23 92.804L281.854 100H284.71L288.658 94.708L292.578 100H295.434L290.086 92.776ZM319.812 85.636C317.852 85.636 316.396 86.42 315.416 88.016C314.548 86.42 313.176 85.636 311.3 85.636C309.48 85.636 308.08 86.392 307.128 87.876V86H304.692V100H307.128V92.216C307.128 89.388 308.668 87.96 310.712 87.96C312.532 87.96 313.68 89.22 313.68 91.376V100H316.116V92.216C316.116 89.332 317.46 87.96 319.56 87.96C321.436 87.96 322.64 89.22 322.64 91.376V100H325.076V91.292C325.076 87.82 322.948 85.636 319.812 85.636ZM340.269 98.236C341.697 96.808 342.425 95.072 342.425 93C342.425 90.928 341.697 89.192 340.269 87.764C338.841 86.336 337.077 85.636 335.033 85.636C332.989 85.636 331.225 86.336 329.797 87.764C328.369 89.192 327.669 90.928 327.669 93C327.669 95.072 328.369 96.808 329.797 98.236C331.225 99.664 332.989 100.364 335.033 100.364C337.077 100.364 338.841 99.664 340.269 98.236ZM335.033 97.984C333.661 97.984 332.485 97.508 331.533 96.556C330.581 95.604 330.105 94.428 330.105 93C330.105 91.572 330.581 90.396 331.533 89.444C332.485 88.492 333.661 88.016 335.033 88.016C336.433 88.016 337.609 88.492 338.561 89.444C339.513 90.396 339.989 91.572 339.989 93C339.989 94.428 339.513 95.604 338.561 96.556C337.609 97.508 336.433 97.984 335.033 97.984ZM347.733 86H345.297V100H347.733V92.58C347.733 91.04 348.153 89.948 349.021 89.248C349.889 88.548 350.897 88.24 352.101 88.296V85.748C350.001 85.748 348.545 86.616 347.733 88.352V86ZM367.159 94.12C367.215 93.756 367.243 93.392 367.243 93.028C367.243 90.984 366.599 89.248 365.283 87.82C363.995 86.364 362.315 85.636 360.271 85.636C358.115 85.636 356.351 86.336 354.979 87.736C353.607 89.136 352.935 90.9 352.935 93C352.935 95.128 353.635 96.892 355.007 98.292C356.407 99.664 358.227 100.364 360.439 100.364C363.183 100.364 365.227 99.3 366.599 97.2L364.527 96.024C363.687 97.396 362.343 98.068 360.495 98.068C357.835 98.068 355.903 96.612 355.427 94.12H367.159ZM360.271 87.932C362.511 87.932 364.359 89.332 364.779 91.992H355.427C355.847 89.528 357.667 87.932 360.271 87.932ZM379.479 86H377.043V100H379.479V92.58C379.479 91.04 379.899 89.948 380.767 89.248C381.635 88.548 382.643 88.24 383.847 88.296V85.748C381.747 85.748 380.291 86.616 379.479 88.352V86ZM398.905 94.12C398.961 93.756 398.989 93.392 398.989 93.028C398.989 90.984 398.345 89.248 397.029 87.82C395.741 86.364 394.061 85.636 392.017 85.636C389.861 85.636 388.097 86.336 386.725 87.736C385.353 89.136 384.681 90.9 384.681 93C384.681 95.128 385.381 96.892 386.753 98.292C388.153 99.664 389.973 100.364 392.185 100.364C394.929 100.364 396.973 99.3 398.345 97.2L396.273 96.024C395.433 97.396 394.089 98.068 392.241 98.068C389.581 98.068 387.649 96.612 387.173 94.12H398.905ZM392.017 87.932C394.257 87.932 396.105 89.332 396.525 91.992H387.173C387.593 89.528 389.413 87.932 392.017 87.932ZM403.343 89.78C403.343 88.576 404.463 87.904 405.835 87.904C407.319 87.904 408.327 88.492 408.831 89.696L410.875 88.548C409.979 86.728 408.103 85.636 405.835 85.636C404.407 85.636 403.231 86.028 402.279 86.812C401.355 87.596 400.879 88.604 400.879 89.808C400.879 92.776 403.735 93.504 405.947 94.092C407.487 94.456 408.719 95.072 408.719 96.164C408.719 97.48 407.543 98.068 405.947 98.068C404.239 98.068 402.923 97.228 402.475 95.884L400.375 97.088C401.187 99.076 403.231 100.364 405.947 100.364C407.487 100.364 408.719 99.972 409.699 99.216C410.679 98.46 411.183 97.424 411.183 96.164C411.211 93.168 408.299 92.356 406.115 91.88C404.575 91.46 403.343 90.872 403.343 89.78ZM425.5 98.236C426.928 96.808 427.656 95.072 427.656 93C427.656 90.928 426.928 89.192 425.5 87.764C424.072 86.336 422.308 85.636 420.264 85.636C418.22 85.636 416.456 86.336 415.028 87.764C413.6 89.192 412.9 90.928 412.9 93C412.9 95.072 413.6 96.808 415.028 98.236C416.456 99.664 418.22 100.364 420.264 100.364C422.308 100.364 424.072 99.664 425.5 98.236ZM420.264 97.984C418.892 97.984 417.716 97.508 416.764 96.556C415.812 95.604 415.336 94.428 415.336 93C415.336 91.572 415.812 90.396 416.764 89.444C417.716 88.492 418.892 88.016 420.264 88.016C421.664 88.016 422.84 88.492 423.792 89.444C424.744 90.396 425.22 91.572 425.22 93C425.22 94.428 424.744 95.604 423.792 96.556C422.84 97.508 421.664 97.984 420.264 97.984ZM440.188 93.42C440.188 96.556 438.564 98.04 436.128 98.04C433.972 98.04 432.656 96.724 432.656 94.456V86H430.22V94.596C430.22 98.152 432.376 100.364 435.652 100.364C437.696 100.364 439.208 99.58 440.188 97.984V100H442.624V86H440.188V93.42ZM448.768 86H446.332V100H448.768V92.58C448.768 91.04 449.188 89.948 450.056 89.248C450.924 88.548 451.932 88.24 453.136 88.296V85.748C451.036 85.748 449.58 86.616 448.768 88.352V86ZM461.334 100.364C464.05 100.364 466.43 98.936 467.634 96.724L465.562 95.52C464.778 97.004 463.21 97.956 461.334 97.956C459.934 97.956 458.758 97.48 457.806 96.528C456.882 95.576 456.406 94.4 456.406 93C456.406 91.572 456.882 90.396 457.806 89.444C458.758 88.492 459.934 88.016 461.334 88.016C463.21 88.016 464.778 88.996 465.478 90.48L467.522 89.304C466.43 87.064 464.106 85.636 461.334 85.636C459.234 85.636 457.47 86.336 456.07 87.764C454.67 89.164 453.97 90.9 453.97 93C453.97 95.1 454.67 96.836 456.07 98.264C457.47 99.664 459.234 100.364 461.334 100.364ZM483.288 94.12C483.344 93.756 483.372 93.392 483.372 93.028C483.372 90.984 482.728 89.248 481.412 87.82C480.124 86.364 478.444 85.636 476.4 85.636C474.244 85.636 472.48 86.336 471.108 87.736C469.736 89.136 469.064 90.9 469.064 93C469.064 95.128 469.764 96.892 471.136 98.292C472.536 99.664 474.356 100.364 476.568 100.364C479.312 100.364 481.356 99.3 482.728 97.2L480.656 96.024C479.816 97.396 478.472 98.068 476.624 98.068C473.964 98.068 472.032 96.612 471.556 94.12H483.288ZM476.4 87.932C478.64 87.932 480.488 89.332 480.908 91.992H471.556C471.976 89.528 473.796 87.932 476.4 87.932ZM487.725 89.78C487.725 88.576 488.845 87.904 490.217 87.904C491.701 87.904 492.709 88.492 493.213 89.696L495.257 88.548C494.361 86.728 492.485 85.636 490.217 85.636C488.789 85.636 487.613 86.028 486.661 86.812C485.737 87.596 485.261 88.604 485.261 89.808C485.261 92.776 488.117 93.504 490.329 94.092C491.869 94.456 493.101 95.072 493.101 96.164C493.101 97.48 491.925 98.068 490.329 98.068C488.621 98.068 487.305 97.228 486.857 95.884L484.757 97.088C485.569 99.076 487.613 100.364 490.329 100.364C491.869 100.364 493.101 99.972 494.081 99.216C495.061 98.46 495.565 97.424 495.565 96.164C495.593 93.168 492.681 92.356 490.497 91.88C488.957 91.46 487.725 90.872 487.725 89.78Z" fill="url(#paint0_linear_135_1656)"/>
<rect x="76" y="135" width="232" height="187.5" rx="12" fill="#FFF0F2"/>
<path d="M139.34 266.5L134.642 253.9H132.752L128.054 266.5H129.836L130.862 263.674H136.532L137.558 266.5H139.34ZM133.688 255.898L135.956 262.108H131.438L133.688 255.898ZM146.787 262.27C146.787 264.286 145.743 265.24 144.177 265.24C142.791 265.24 141.945 264.394 141.945 262.936V257.5H140.379V263.026C140.379 265.312 141.765 266.734 143.871 266.734C145.185 266.734 146.157 266.23 146.787 265.204V266.5H148.353V257.5H146.787V262.27ZM155.633 257.5H153.239V254.98L151.673 255.448V257.5H149.891V259.012H151.673V263.89C151.673 266.122 152.897 266.86 155.633 266.5V265.096C154.031 265.168 153.239 265.276 153.239 263.89V259.012H155.633V257.5ZM164.626 265.366C165.544 264.448 166.012 263.332 166.012 262C166.012 260.668 165.544 259.552 164.626 258.634C163.708 257.716 162.574 257.266 161.26 257.266C159.946 257.266 158.812 257.716 157.894 258.634C156.976 259.552 156.526 260.668 156.526 262C156.526 263.332 156.976 264.448 157.894 265.366C158.812 266.284 159.946 266.734 161.26 266.734C162.574 266.734 163.708 266.284 164.626 265.366ZM161.26 265.204C160.378 265.204 159.622 264.898 159.01 264.286C158.398 263.674 158.092 262.918 158.092 262C158.092 261.082 158.398 260.326 159.01 259.714C159.622 259.102 160.378 258.796 161.26 258.796C162.16 258.796 162.916 259.102 163.528 259.714C164.14 260.326 164.446 261.082 164.446 262C164.446 262.918 164.14 263.674 163.528 264.286C162.916 264.898 162.16 265.204 161.26 265.204ZM177.578 257.266C176.318 257.266 175.382 257.77 174.752 258.796C174.194 257.77 173.312 257.266 172.106 257.266C170.936 257.266 170.036 257.752 169.424 258.706V257.5H167.858V266.5H169.424V261.496C169.424 259.678 170.414 258.76 171.728 258.76C172.898 258.76 173.636 259.57 173.636 260.956V266.5H175.202V261.496C175.202 259.642 176.066 258.76 177.416 258.76C178.622 258.76 179.396 259.57 179.396 260.956V266.5H180.962V260.902C180.962 258.67 179.594 257.266 177.578 257.266ZM190.585 259.048C189.811 257.86 188.677 257.266 187.183 257.266C185.923 257.266 184.843 257.734 183.961 258.652C183.079 259.57 182.629 260.686 182.629 262C182.629 263.314 183.079 264.448 183.961 265.366C184.843 266.284 185.923 266.734 187.183 266.734C188.677 266.734 189.811 266.14 190.585 264.952V266.5H192.151V257.5H190.585V259.048ZM187.381 265.222C186.481 265.222 185.725 264.916 185.113 264.304C184.501 263.674 184.195 262.918 184.195 262C184.195 261.082 184.501 260.326 185.113 259.714C185.725 259.084 186.481 258.778 187.381 258.778C188.299 258.778 189.055 259.084 189.667 259.714C190.279 260.326 190.585 261.082 190.585 262C190.585 262.918 190.279 263.674 189.667 264.304C189.055 264.916 188.299 265.222 187.381 265.222ZM199.42 257.5H197.026V254.98L195.46 255.448V257.5H193.678V259.012H195.46V263.89C195.46 266.122 196.684 266.86 199.42 266.5V265.096C197.818 265.168 197.026 265.276 197.026 263.89V259.012H199.42V257.5ZM202.066 255.862C202.642 255.862 203.11 255.394 203.11 254.818C203.11 254.242 202.642 253.756 202.066 253.756C201.472 253.756 201.004 254.242 201.004 254.818C201.004 255.394 201.472 255.862 202.066 255.862ZM202.84 266.5V257.5H201.274V266.5H202.84ZM212.825 265.366C213.743 264.448 214.211 263.332 214.211 262C214.211 260.668 213.743 259.552 212.825 258.634C211.907 257.716 210.773 257.266 209.459 257.266C208.145 257.266 207.011 257.716 206.093 258.634C205.175 259.552 204.725 260.668 204.725 262C204.725 263.332 205.175 264.448 206.093 265.366C207.011 266.284 208.145 266.734 209.459 266.734C210.773 266.734 211.907 266.284 212.825 265.366ZM209.459 265.204C208.577 265.204 207.821 264.898 207.209 264.286C206.597 263.674 206.291 262.918 206.291 262C206.291 261.082 206.597 260.326 207.209 259.714C207.821 259.102 208.577 258.796 209.459 258.796C210.359 258.796 211.115 259.102 211.727 259.714C212.339 260.326 212.645 261.082 212.645 262C212.645 262.918 212.339 263.674 211.727 264.286C211.115 264.898 210.359 265.204 209.459 265.204ZM220.539 257.266C219.225 257.266 218.253 257.77 217.623 258.796V257.5H216.057V266.5H217.623V261.73C217.623 259.714 218.667 258.76 220.233 258.76C221.619 258.76 222.465 259.606 222.465 261.064V266.5H224.031V260.974C224.031 258.688 222.645 257.266 220.539 257.266ZM240.959 266.5L236.261 253.9H234.371L229.673 266.5H231.455L232.481 263.674H238.151L239.177 266.5H240.959ZM235.307 255.898L237.575 262.108H233.057L235.307 255.898ZM242.446 253.9V266.5H244.12V262H247.018C248.188 262 249.142 261.604 249.916 260.83C250.69 260.056 251.086 259.084 251.086 257.95C251.086 256.798 250.69 255.844 249.916 255.07C249.142 254.296 248.188 253.9 247.018 253.9H242.446ZM244.12 260.434V255.466H247.018C248.404 255.466 249.43 256.51 249.43 257.95C249.43 258.652 249.196 259.246 248.746 259.732C248.296 260.2 247.72 260.434 247.018 260.434H244.12ZM253.063 266.5H254.737V253.9H253.063V266.5ZM158.282 280.9V293.5H159.956V289H162.854C164.024 289 164.978 288.604 165.752 287.83C166.526 287.056 166.922 286.084 166.922 284.95C166.922 283.798 166.526 282.844 165.752 282.07C164.978 281.296 164.024 280.9 162.854 280.9H158.282ZM159.956 287.434V282.466H162.854C164.24 282.466 165.266 283.51 165.266 284.95C165.266 285.652 165.032 286.246 164.582 286.732C164.132 287.2 163.556 287.434 162.854 287.434H159.956ZM170.109 284.5H168.543V293.5H170.109V288.73C170.109 287.74 170.379 287.038 170.937 286.588C171.495 286.138 172.143 285.94 172.917 285.976V284.338C171.567 284.338 170.631 284.896 170.109 286.012V284.5ZM181.554 292.366C182.472 291.448 182.94 290.332 182.94 289C182.94 287.668 182.472 286.552 181.554 285.634C180.636 284.716 179.502 284.266 178.188 284.266C176.874 284.266 175.74 284.716 174.822 285.634C173.904 286.552 173.454 287.668 173.454 289C173.454 290.332 173.904 291.448 174.822 292.366C175.74 293.284 176.874 293.734 178.188 293.734C179.502 293.734 180.636 293.284 181.554 292.366ZM178.188 292.204C177.306 292.204 176.55 291.898 175.938 291.286C175.326 290.674 175.02 289.918 175.02 289C175.02 288.082 175.326 287.326 175.938 286.714C176.55 286.102 177.306 285.796 178.188 285.796C179.088 285.796 179.844 286.102 180.456 286.714C181.068 287.326 181.374 288.082 181.374 289C181.374 289.918 181.068 290.674 180.456 291.286C179.844 291.898 179.088 292.204 178.188 292.204ZM192.256 286.048C191.482 284.86 190.348 284.266 188.872 284.266C187.594 284.266 186.496 284.716 185.614 285.634C184.732 286.534 184.282 287.632 184.282 288.946C184.282 290.26 184.732 291.358 185.614 292.276C186.496 293.194 187.594 293.644 188.872 293.644C190.33 293.644 191.464 293.05 192.256 291.844V293.122C192.256 294.832 191.122 295.876 189.25 295.876C187.792 295.876 186.802 295.372 186.316 294.364L184.948 295.138C185.686 296.56 187.198 297.334 189.214 297.334C190.474 297.334 191.554 296.956 192.454 296.218C193.354 295.48 193.804 294.454 193.804 293.122V284.5H192.256V286.048ZM192.256 288.946C192.256 289.864 191.95 290.62 191.338 291.232C190.726 291.844 189.97 292.15 189.052 292.15C188.134 292.15 187.378 291.844 186.766 291.232C186.154 290.62 185.848 289.864 185.848 288.946C185.848 288.046 186.154 287.29 186.766 286.678C187.378 286.066 188.134 285.76 189.052 285.76C189.97 285.76 190.726 286.066 191.338 286.678C191.95 287.29 192.256 288.046 192.256 288.946ZM197.742 284.5H196.176V293.5H197.742V288.73C197.742 287.74 198.012 287.038 198.57 286.588C199.128 286.138 199.776 285.94 200.55 285.976V284.338C199.2 284.338 198.264 284.896 197.742 286.012V284.5ZM209.042 286.048C208.268 284.86 207.134 284.266 205.64 284.266C204.38 284.266 203.3 284.734 202.418 285.652C201.536 286.57 201.086 287.686 201.086 289C201.086 290.314 201.536 291.448 202.418 292.366C203.3 293.284 204.38 293.734 205.64 293.734C207.134 293.734 208.268 293.14 209.042 291.952V293.5H210.608V284.5H209.042V286.048ZM205.838 292.222C204.938 292.222 204.182 291.916 203.57 291.304C202.958 290.674 202.652 289.918 202.652 289C202.652 288.082 202.958 287.326 203.57 286.714C204.182 286.084 204.938 285.778 205.838 285.778C206.756 285.778 207.512 286.084 208.124 286.714C208.736 287.326 209.042 288.082 209.042 289C209.042 289.918 208.736 290.674 208.124 291.304C207.512 291.916 206.756 292.222 205.838 292.222ZM222.701 284.266C221.441 284.266 220.505 284.77 219.875 285.796C219.317 284.77 218.435 284.266 217.229 284.266C216.059 284.266 215.159 284.752 214.547 285.706V284.5H212.981V293.5H214.547V288.496C214.547 286.678 215.537 285.76 216.851 285.76C218.021 285.76 218.759 286.57 218.759 287.956V293.5H220.325V288.496C220.325 286.642 221.189 285.76 222.539 285.76C223.745 285.76 224.519 286.57 224.519 287.956V293.5H226.085V287.902C226.085 285.67 224.717 284.266 222.701 284.266Z" fill="#231F20"/>
<rect x="328" y="135" width="232" height="187.5" rx="12" fill="#F5EBF5"/>
<path d="M352.775 266.5H354.449V253.9H352.775V266.5ZM361.472 257.266C360.158 257.266 359.186 257.77 358.556 258.796V257.5H356.99V266.5H358.556V261.73C358.556 259.714 359.6 258.76 361.166 258.76C362.552 258.76 363.398 259.606 363.398 261.064V266.5H364.964V260.974C364.964 258.688 363.578 257.266 361.472 257.266ZM371.776 253.666C369.238 253.504 367.834 254.8 367.834 257.23V257.5H366.394V259.012H367.834V266.5H369.4V259.012H371.776V257.5H369.4V257.23C369.4 255.736 370.192 255.052 371.776 255.178V253.666ZM374.534 257.5H372.968V266.5H374.534V261.73C374.534 260.74 374.804 260.038 375.362 259.588C375.92 259.138 376.568 258.94 377.342 258.976V257.338C375.992 257.338 375.056 257.896 374.534 259.012V257.5ZM385.834 259.048C385.06 257.86 383.926 257.266 382.432 257.266C381.172 257.266 380.092 257.734 379.21 258.652C378.328 259.57 377.878 260.686 377.878 262C377.878 263.314 378.328 264.448 379.21 265.366C380.092 266.284 381.172 266.734 382.432 266.734C383.926 266.734 385.06 266.14 385.834 264.952V266.5H387.4V257.5H385.834V259.048ZM382.63 265.222C381.73 265.222 380.974 264.916 380.362 264.304C379.75 263.674 379.444 262.918 379.444 262C379.444 261.082 379.75 260.326 380.362 259.714C380.974 259.084 381.73 258.778 382.63 258.778C383.548 258.778 384.304 259.084 384.916 259.714C385.528 260.326 385.834 261.082 385.834 262C385.834 262.918 385.528 263.674 384.916 264.304C384.304 264.916 383.548 265.222 382.63 265.222ZM391.105 259.93C391.105 259.156 391.825 258.724 392.707 258.724C393.661 258.724 394.309 259.102 394.633 259.876L395.947 259.138C395.371 257.968 394.165 257.266 392.707 257.266C391.789 257.266 391.033 257.518 390.421 258.022C389.827 258.526 389.521 259.174 389.521 259.948C389.521 261.856 391.357 262.324 392.779 262.702C393.769 262.936 394.561 263.332 394.561 264.034C394.561 264.88 393.805 265.258 392.779 265.258C391.681 265.258 390.835 264.718 390.547 263.854L389.197 264.628C389.719 265.906 391.033 266.734 392.779 266.734C393.769 266.734 394.561 266.482 395.191 265.996C395.821 265.51 396.145 264.844 396.145 264.034C396.163 262.108 394.291 261.586 392.887 261.28C391.897 261.01 391.105 260.632 391.105 259.93ZM402.544 257.5H400.15V254.98L398.584 255.448V257.5H396.802V259.012H398.584V263.89C398.584 266.122 399.808 266.86 402.544 266.5V265.096C400.942 265.168 400.15 265.276 400.15 263.89V259.012H402.544V257.5ZM406.017 257.5H404.451V266.5H406.017V261.73C406.017 260.74 406.287 260.038 406.845 259.588C407.403 259.138 408.051 258.94 408.825 258.976V257.338C407.475 257.338 406.539 257.896 406.017 259.012V257.5ZM416.567 262.27C416.567 264.286 415.523 265.24 413.957 265.24C412.571 265.24 411.725 264.394 411.725 262.936V257.5H410.159V263.026C410.159 265.312 411.545 266.734 413.651 266.734C414.965 266.734 415.937 266.23 416.567 265.204V266.5H418.133V257.5H416.567V262.27ZM424.747 266.734C426.493 266.734 428.023 265.816 428.797 264.394L427.465 263.62C426.961 264.574 425.953 265.186 424.747 265.186C423.847 265.186 423.091 264.88 422.479 264.268C421.885 263.656 421.579 262.9 421.579 262C421.579 261.082 421.885 260.326 422.479 259.714C423.091 259.102 423.847 258.796 424.747 258.796C425.953 258.796 426.961 259.426 427.411 260.38L428.725 259.624C428.023 258.184 426.529 257.266 424.747 257.266C423.397 257.266 422.263 257.716 421.363 258.634C420.463 259.534 420.013 260.65 420.013 262C420.013 263.35 420.463 264.466 421.363 265.384C422.263 266.284 423.397 266.734 424.747 266.734ZM435.239 257.5H432.845V254.98L431.279 255.448V257.5H429.497V259.012H431.279V263.89C431.279 266.122 432.503 266.86 435.239 266.5V265.096C433.637 265.168 432.845 265.276 432.845 263.89V259.012H435.239V257.5ZM443.356 262.27C443.356 264.286 442.312 265.24 440.746 265.24C439.36 265.24 438.514 264.394 438.514 262.936V257.5H436.948V263.026C436.948 265.312 438.334 266.734 440.44 266.734C441.754 266.734 442.726 266.23 443.356 265.204V266.5H444.922V257.5H443.356V262.27ZM448.872 257.5H447.306V266.5H448.872V261.73C448.872 260.74 449.142 260.038 449.7 259.588C450.258 259.138 450.906 258.94 451.68 258.976V257.338C450.33 257.338 449.394 257.896 448.872 259.012V257.5ZM461.36 262.72C461.396 262.486 461.414 262.252 461.414 262.018C461.414 260.704 461 259.588 460.154 258.67C459.326 257.734 458.246 257.266 456.932 257.266C455.546 257.266 454.412 257.716 453.53 258.616C452.648 259.516 452.216 260.65 452.216 262C452.216 263.368 452.666 264.502 453.548 265.402C454.448 266.284 455.618 266.734 457.04 266.734C458.804 266.734 460.118 266.05 461 264.7L459.668 263.944C459.128 264.826 458.264 265.258 457.076 265.258C455.366 265.258 454.124 264.322 453.818 262.72H461.36ZM456.932 258.742C458.372 258.742 459.56 259.642 459.83 261.352H453.818C454.088 259.768 455.258 258.742 456.932 258.742ZM475.166 259.048C474.392 257.86 473.258 257.266 471.764 257.266C470.504 257.266 469.424 257.734 468.542 258.652C467.66 259.57 467.21 260.686 467.21 262C467.21 263.314 467.66 264.448 468.542 265.366C469.424 266.284 470.504 266.734 471.764 266.734C473.258 266.734 474.392 266.14 475.166 264.952V266.5H476.732V257.5H475.166V259.048ZM471.962 265.222C471.062 265.222 470.306 264.916 469.694 264.304C469.082 263.674 468.776 262.918 468.776 262C468.776 261.082 469.082 260.326 469.694 259.714C470.306 259.084 471.062 258.778 471.962 258.778C472.88 258.778 473.636 259.084 474.248 259.714C474.86 260.326 475.166 261.082 475.166 262C475.166 262.918 474.86 263.674 474.248 264.304C473.636 264.916 472.88 265.222 471.962 265.222ZM480.437 259.93C480.437 259.156 481.157 258.724 482.039 258.724C482.993 258.724 483.641 259.102 483.965 259.876L485.279 259.138C484.703 257.968 483.497 257.266 482.039 257.266C481.121 257.266 480.365 257.518 479.753 258.022C479.159 258.526 478.853 259.174 478.853 259.948C478.853 261.856 480.689 262.324 482.111 262.702C483.101 262.936 483.893 263.332 483.893 264.034C483.893 264.88 483.137 265.258 482.111 265.258C481.013 265.258 480.167 264.718 479.879 263.854L478.529 264.628C479.051 265.906 480.365 266.734 482.111 266.734C483.101 266.734 483.893 266.482 484.523 265.996C485.153 265.51 485.477 264.844 485.477 264.034C485.495 262.108 483.623 261.586 482.219 261.28C481.229 261.01 480.437 260.632 480.437 259.93ZM497.916 266.734C499.068 266.734 500.13 266.464 501.102 265.906C502.074 265.348 502.83 264.592 503.352 263.656L501.894 262.828C501.174 264.196 499.644 265.096 497.916 265.096C496.458 265.096 495.27 264.628 494.352 263.692C493.434 262.756 492.984 261.586 492.984 260.2C492.984 258.796 493.434 257.626 494.352 256.69C495.27 255.754 496.458 255.286 497.916 255.286C499.644 255.286 501.174 256.186 501.894 257.572L503.352 256.726C502.272 254.854 500.22 253.666 497.916 253.666C496.008 253.666 494.424 254.296 493.182 255.556C491.94 256.816 491.328 258.364 491.328 260.2C491.328 262.036 491.94 263.584 493.182 264.844C494.424 266.104 496.008 266.734 497.916 266.734ZM512.646 265.366C513.564 264.448 514.032 263.332 514.032 262C514.032 260.668 513.564 259.552 512.646 258.634C511.728 257.716 510.594 257.266 509.28 257.266C507.966 257.266 506.832 257.716 505.914 258.634C504.996 259.552 504.546 260.668 504.546 262C504.546 263.332 504.996 264.448 505.914 265.366C506.832 266.284 507.966 266.734 509.28 266.734C510.594 266.734 511.728 266.284 512.646 265.366ZM509.28 265.204C508.398 265.204 507.642 264.898 507.03 264.286C506.418 263.674 506.112 262.918 506.112 262C506.112 261.082 506.418 260.326 507.03 259.714C507.642 259.102 508.398 258.796 509.28 258.796C510.18 258.796 510.936 259.102 511.548 259.714C512.16 260.326 512.466 261.082 512.466 262C512.466 262.918 512.16 263.674 511.548 264.286C510.936 264.898 510.18 265.204 509.28 265.204ZM523.33 259.048C522.556 257.86 521.422 257.266 519.928 257.266C518.668 257.266 517.588 257.734 516.706 258.652C515.824 259.57 515.374 260.686 515.374 262C515.374 263.314 515.824 264.448 516.706 265.366C517.588 266.284 518.668 266.734 519.928 266.734C521.422 266.734 522.556 266.14 523.33 264.952V266.5H524.896V253.9H523.33V259.048ZM520.126 265.222C519.226 265.222 518.47 264.916 517.858 264.304C517.246 263.674 516.94 262.918 516.94 262C516.94 261.082 517.246 260.326 517.858 259.714C518.47 259.084 519.226 258.778 520.126 258.778C521.044 258.778 521.8 259.084 522.412 259.714C523.024 260.326 523.33 261.082 523.33 262C523.33 262.918 523.024 263.674 522.412 264.304C521.8 264.916 521.044 265.222 520.126 265.222ZM535.909 262.72C535.945 262.486 535.963 262.252 535.963 262.018C535.963 260.704 535.549 259.588 534.703 258.67C533.875 257.734 532.795 257.266 531.481 257.266C530.095 257.266 528.961 257.716 528.079 258.616C527.197 259.516 526.765 260.65 526.765 262C526.765 263.368 527.215 264.502 528.097 265.402C528.997 266.284 530.167 266.734 531.589 266.734C533.353 266.734 534.667 266.05 535.549 264.7L534.217 263.944C533.677 264.826 532.813 265.258 531.625 265.258C529.915 265.258 528.673 264.322 528.367 262.72H535.909ZM531.481 258.742C532.921 258.742 534.109 259.642 534.379 261.352H528.367C528.637 259.768 529.807 258.742 531.481 258.742ZM406.16 280.9V293.5H407.834V289H410.732C411.902 289 412.856 288.604 413.63 287.83C414.404 287.056 414.8 286.084 414.8 284.95C414.8 283.798 414.404 282.844 413.63 282.07C412.856 281.296 411.902 280.9 410.732 280.9H406.16ZM407.834 287.434V282.466H410.732C412.118 282.466 413.144 283.51 413.144 284.95C413.144 285.652 412.91 286.246 412.46 286.732C412.01 287.2 411.434 287.434 410.732 287.434H407.834ZM417.987 284.5H416.421V293.5H417.987V288.73C417.987 287.74 418.257 287.038 418.815 286.588C419.373 286.138 420.021 285.94 420.795 285.976V284.338C419.445 284.338 418.509 284.896 417.987 286.012V284.5ZM429.431 292.366C430.349 291.448 430.817 290.332 430.817 289C430.817 287.668 430.349 286.552 429.431 285.634C428.513 284.716 427.379 284.266 426.065 284.266C424.751 284.266 423.617 284.716 422.699 285.634C421.781 286.552 421.331 287.668 421.331 289C421.331 290.332 421.781 291.448 422.699 292.366C423.617 293.284 424.751 293.734 426.065 293.734C427.379 293.734 428.513 293.284 429.431 292.366ZM426.065 292.204C425.183 292.204 424.427 291.898 423.815 291.286C423.203 290.674 422.897 289.918 422.897 289C422.897 288.082 423.203 287.326 423.815 286.714C424.427 286.102 425.183 285.796 426.065 285.796C426.965 285.796 427.721 286.102 428.333 286.714C428.945 287.326 429.251 288.082 429.251 289C429.251 289.918 428.945 290.674 428.333 291.286C427.721 291.898 426.965 292.204 426.065 292.204ZM440.134 286.048C439.36 284.86 438.226 284.266 436.75 284.266C435.472 284.266 434.374 284.716 433.492 285.634C432.61 286.534 432.16 287.632 432.16 288.946C432.16 290.26 432.61 291.358 433.492 292.276C434.374 293.194 435.472 293.644 436.75 293.644C438.208 293.644 439.342 293.05 440.134 291.844V293.122C440.134 294.832 439 295.876 437.128 295.876C435.67 295.876 434.68 295.372 434.194 294.364L432.826 295.138C433.564 296.56 435.076 297.334 437.092 297.334C438.352 297.334 439.432 296.956 440.332 296.218C441.232 295.48 441.682 294.454 441.682 293.122V284.5H440.134V286.048ZM440.134 288.946C440.134 289.864 439.828 290.62 439.216 291.232C438.604 291.844 437.848 292.15 436.93 292.15C436.012 292.15 435.256 291.844 434.644 291.232C434.032 290.62 433.726 289.864 433.726 288.946C433.726 288.046 434.032 287.29 434.644 286.678C435.256 286.066 436.012 285.76 436.93 285.76C437.848 285.76 438.604 286.066 439.216 286.678C439.828 287.29 440.134 288.046 440.134 288.946ZM445.62 284.5H444.054V293.5H445.62V288.73C445.62 287.74 445.89 287.038 446.448 286.588C447.006 286.138 447.654 285.94 448.428 285.976V284.338C447.078 284.338 446.142 284.896 445.62 286.012V284.5ZM456.92 286.048C456.146 284.86 455.012 284.266 453.518 284.266C452.258 284.266 451.178 284.734 450.296 285.652C449.414 286.57 448.964 287.686 448.964 289C448.964 290.314 449.414 291.448 450.296 292.366C451.178 293.284 452.258 293.734 453.518 293.734C455.012 293.734 456.146 293.14 456.92 291.952V293.5H458.486V284.5H456.92V286.048ZM453.716 292.222C452.816 292.222 452.06 291.916 451.448 291.304C450.836 290.674 450.53 289.918 450.53 289C450.53 288.082 450.836 287.326 451.448 286.714C452.06 286.084 452.816 285.778 453.716 285.778C454.634 285.778 455.39 286.084 456.002 286.714C456.614 287.326 456.92 288.082 456.92 289C456.92 289.918 456.614 290.674 456.002 291.304C455.39 291.916 454.634 292.222 453.716 292.222ZM470.579 284.266C469.319 284.266 468.383 284.77 467.753 285.796C467.195 284.77 466.313 284.266 465.107 284.266C463.937 284.266 463.037 284.752 462.425 285.706V284.5H460.859V293.5H462.425V288.496C462.425 286.678 463.415 285.76 464.729 285.76C465.899 285.76 466.637 286.57 466.637 287.956V293.5H468.203V288.496C468.203 286.642 469.067 285.76 470.417 285.76C471.623 285.76 472.397 286.57 472.397 287.956V293.5H473.963V287.902C473.963 285.67 472.595 284.266 470.579 284.266ZM477.484 286.93C477.484 286.156 478.204 285.724 479.086 285.724C480.04 285.724 480.688 286.102 481.012 286.876L482.326 286.138C481.75 284.968 480.544 284.266 479.086 284.266C478.168 284.266 477.412 284.518 476.8 285.022C476.206 285.526 475.9 286.174 475.9 286.948C475.9 288.856 477.736 289.324 479.158 289.702C480.148 289.936 480.94 290.332 480.94 291.034C480.94 291.88 480.184 292.258 479.158 292.258C478.06 292.258 477.214 291.718 476.926 290.854L475.576 291.628C476.098 292.906 477.412 293.734 479.158 293.734C480.148 293.734 480.94 293.482 481.57 292.996C482.2 292.51 482.524 291.844 482.524 291.034C482.542 289.108 480.67 288.586 479.266 288.28C478.276 288.01 477.484 287.632 477.484 286.93Z" fill="#231F20"/>
<path d="M109.819 244.625C107.383 244.625 105.4 242.644 105.4 240.208V165.6C105.4 163.162 107.381 161.181 109.819 161.181H113.368C113.384 161.102 113.403 161.035 113.426 160.968L114.382 158.161C114.869 156.73 116.213 155.769 117.725 155.769H138.355C139.867 155.769 141.21 156.73 141.698 158.161L142.655 160.969C142.68 161.041 142.698 161.111 142.714 161.182H232.51C234.946 161.182 236.927 163.164 236.927 165.601V240.209C236.927 242.645 234.946 244.627 232.51 244.627H109.822L109.819 244.625Z" fill="white"/>
<path d="M138.355 156.169C139.695 156.169 140.886 157.021 141.319 158.289L142.276 161.098C142.331 161.26 142.349 161.421 142.376 161.583H232.507C234.725 161.583 236.524 163.382 236.524 165.6V240.208C236.524 242.426 234.725 244.225 232.507 244.225H109.819C107.601 244.225 105.802 242.426 105.802 240.208V165.6C105.802 163.38 107.601 161.583 109.819 161.583H113.704C113.732 161.421 113.751 161.26 113.805 161.098L114.762 158.289C115.195 157.021 116.386 156.169 117.726 156.169H138.355ZM138.355 155.367H117.726C116.042 155.367 114.546 156.438 114.002 158.031L113.066 160.779H109.819C107.161 160.779 105 162.942 105 165.598V240.207C105 242.865 107.163 245.026 109.819 245.026H232.507C235.165 245.026 237.326 242.863 237.326 240.207V165.598C237.326 162.94 235.164 160.779 232.507 160.779H143.014L142.077 158.031C141.533 156.436 140.04 155.367 138.355 155.367Z" fill="black"/>
<path d="M155.5 172.146H129.382C128.233 172.146 127.302 173.078 127.302 174.227C127.302 175.376 128.233 176.308 129.382 176.308H155.5C156.649 176.308 157.581 175.376 157.581 174.227C157.581 173.078 156.649 172.146 155.5 172.146Z" fill="#F7BF2A"/>
<path d="M158.532 221.307H129.382C128.233 221.307 127.302 222.239 127.302 223.388C127.302 224.537 128.233 225.469 129.382 225.469H158.532C159.682 225.469 160.613 224.537 160.613 223.388C160.613 222.239 159.682 221.307 158.532 221.307Z" fill="#F7BF2A"/>
<path d="M218.581 221.307H212.131C210.982 221.307 210.051 222.239 210.051 223.388C210.051 224.537 210.982 225.469 212.131 225.469H218.581C219.73 225.469 220.662 224.537 220.662 223.388C220.662 222.239 219.73 221.307 218.581 221.307Z" fill="#F7BF2A"/>
<path d="M204.401 221.307H166.264C165.115 221.307 164.184 222.239 164.184 223.388C164.184 224.537 165.115 225.469 166.264 225.469H204.401C205.55 225.469 206.481 224.537 206.481 223.388C206.481 222.239 205.55 221.307 204.401 221.307Z" fill="#F7BF2A"/>
<path d="M148.853 204.92H129.13C128.12 204.92 127.302 205.738 127.302 206.748V207.253C127.302 208.263 128.12 209.081 129.13 209.081H148.853C149.863 209.081 150.681 208.263 150.681 207.253V206.748C150.681 205.738 149.863 204.92 148.853 204.92Z" fill="#805AC3"/>
<path d="M199.675 204.92H187.205C186.195 204.92 185.377 205.738 185.377 206.747V207.253C185.377 208.263 186.195 209.081 187.205 209.081H199.675C200.685 209.081 201.503 208.263 201.503 207.253V206.747C201.503 205.738 200.685 204.92 199.675 204.92Z" fill="#805AC3"/>
<path d="M181.044 204.92H155.014C154.004 204.92 153.186 205.738 153.186 206.747V207.253C153.186 208.263 154.004 209.081 155.014 209.081H181.044C182.054 209.081 182.872 208.263 182.872 207.253V206.747C182.872 205.738 182.054 204.92 181.044 204.92Z" fill="#805AC3"/>
<path d="M165.127 188.532H129.382C128.233 188.532 127.302 189.464 127.302 190.613C127.302 191.762 128.233 192.694 129.382 192.694H165.127C166.276 192.694 167.208 191.762 167.208 190.613C167.208 189.464 166.276 188.532 165.127 188.532Z" fill="#F26E7E"/>
<path d="M223.116 188.532H214.376C213.227 188.532 212.295 189.464 212.295 190.613C212.295 191.762 213.227 192.694 214.376 192.694H223.116C224.265 192.694 225.197 191.762 225.197 190.613C225.197 189.464 224.265 188.532 223.116 188.532Z" fill="#F26E7E"/>
<path d="M206.969 188.532H172.683C171.534 188.532 170.602 189.464 170.602 190.613C170.602 191.762 171.534 192.694 172.683 192.694H206.969C208.118 192.694 209.05 191.762 209.05 190.613C209.05 189.464 208.118 188.532 206.969 188.532Z" fill="#F26E7E"/>
<path d="M159.983 229.5H129.239C128.169 229.5 127.302 230.368 127.302 231.438V231.724C127.302 232.794 128.169 233.662 129.239 233.662H159.983C161.053 233.662 161.921 232.794 161.921 231.724V231.438C161.921 230.368 161.053 229.5 159.983 229.5Z" fill="#F7BF2A"/>
<path d="M196.285 229.5H166.805C165.735 229.5 164.867 230.368 164.867 231.438V231.724C164.867 232.794 165.735 233.662 166.805 233.662H196.285C197.355 233.662 198.222 232.794 198.222 231.724V231.438C198.222 230.368 197.355 229.5 196.285 229.5Z" fill="#F7BF2A"/>
<path d="M149.838 180.339H129.169C128.138 180.339 127.302 181.175 127.302 182.206V182.633C127.302 183.664 128.138 184.501 129.169 184.501H149.838C150.869 184.501 151.706 183.664 151.706 182.633V182.206C151.706 181.175 150.869 180.339 149.838 180.339Z" fill="#F7BF2A"/>
<path d="M216.657 180.339H190.003C188.853 180.339 187.922 181.271 187.922 182.42C187.922 183.569 188.853 184.501 190.003 184.501H216.657C217.806 184.501 218.737 183.569 218.737 182.42C218.737 181.271 217.806 180.339 216.657 180.339Z" fill="#F7BF2A"/>
<path d="M183.439 180.339H156.188C155.156 180.339 154.32 181.175 154.32 182.206V182.633C154.32 183.664 155.156 184.501 156.188 184.501H183.439C184.471 184.501 185.307 183.664 185.307 182.633V182.206C185.307 181.175 184.471 180.339 183.439 180.339Z" fill="#F7BF2A"/>
<path d="M144.503 213.114H128.943C128.036 213.114 127.302 213.849 127.302 214.755V215.635C127.302 216.541 128.036 217.276 128.943 217.276H144.503C145.409 217.276 146.144 216.541 146.144 215.635V214.755C146.144 213.849 145.409 213.114 144.503 213.114Z" fill="#805AC3"/>
<path d="M170.446 213.114H149.803C148.897 213.114 148.162 213.849 148.162 214.755V215.635C148.162 216.541 148.897 217.276 149.803 217.276H170.446C171.352 217.276 172.087 216.541 172.087 215.635V214.755C172.087 213.849 171.352 213.114 170.446 213.114Z" fill="#805AC3"/>
<path d="M149.838 196.727H129.169C128.138 196.727 127.302 197.563 127.302 198.594V199.021C127.302 200.052 128.138 200.888 129.169 200.888H149.838C150.869 200.888 151.706 200.052 151.706 199.021V198.594C151.706 197.563 150.869 196.727 149.838 196.727Z" fill="#F7BF2A"/>
<path d="M202.886 196.727H189.789C188.758 196.727 187.922 197.563 187.922 198.594V199.021C187.922 200.052 188.758 200.888 189.789 200.888H202.886C203.918 200.888 204.754 200.052 204.754 199.021V198.594C204.754 197.563 203.918 196.727 202.886 196.727Z" fill="#F7BF2A"/>
<path d="M183.439 196.727H156.188C155.156 196.727 154.32 197.563 154.32 198.594V199.021C154.32 200.052 155.156 200.888 156.188 200.888H183.439C184.471 200.888 185.307 200.052 185.307 199.021V198.594C185.307 197.563 184.471 196.727 183.439 196.727Z" fill="#F7BF2A"/>
<path d="M120.744 172.146H117.499C116.349 172.146 115.418 173.078 115.418 174.227C115.418 175.376 116.349 176.307 117.499 176.307H120.744C121.893 176.307 122.825 175.376 122.825 174.227C122.825 173.078 121.893 172.146 120.744 172.146Z" fill="#F7BF2A"/>
<path d="M120.744 180.339H117.499C116.349 180.339 115.418 181.271 115.418 182.42C115.418 183.569 116.349 184.5 117.499 184.5H120.744C121.893 184.5 122.825 183.569 122.825 182.42C122.825 181.271 121.893 180.339 120.744 180.339Z" fill="#F7BF2A"/>
<path d="M120.744 188.532H117.499C116.349 188.532 115.418 189.464 115.418 190.613C115.418 191.762 116.349 192.694 117.499 192.694H120.744C121.893 192.694 122.825 191.762 122.825 190.613C122.825 189.464 121.893 188.532 120.744 188.532Z" fill="#F26E7E"/>
<path d="M120.744 196.727H117.499C116.349 196.727 115.418 197.658 115.418 198.807C115.418 199.957 116.349 200.888 117.499 200.888H120.744C121.893 200.888 122.825 199.957 122.825 198.807C122.825 197.658 121.893 196.727 120.744 196.727Z" fill="#F7BF2A"/>
<path d="M120.744 204.92H117.499C116.349 204.92 115.418 205.851 115.418 207C115.418 208.15 116.349 209.081 117.499 209.081H120.744C121.893 209.081 122.825 208.15 122.825 207C122.825 205.851 121.893 204.92 120.744 204.92Z" fill="#805AC3"/>
<path d="M120.744 213.114H117.499C116.349 213.114 115.418 214.046 115.418 215.195C115.418 216.344 116.349 217.276 117.499 217.276H120.744C121.893 217.276 122.825 216.344 122.825 215.195C122.825 214.046 121.893 213.114 120.744 213.114Z" fill="#805AC3"/>
<path d="M120.744 220.973H117.499C116.349 220.973 115.418 221.904 115.418 223.053C115.418 224.202 116.349 225.134 117.499 225.134H120.744C121.893 225.134 122.825 224.202 122.825 223.053C122.825 221.904 121.893 220.973 120.744 220.973Z" fill="#F7BF2A"/>
<path d="M120.744 229.5H117.499C116.349 229.5 115.418 230.432 115.418 231.581C115.418 232.73 116.349 233.662 117.499 233.662H120.744C121.893 233.662 122.825 232.73 122.825 231.581C122.825 230.432 121.893 229.5 120.744 229.5Z" fill="#F7BF2A"/>
<path fill-rule="evenodd" clip-rule="evenodd" d="M373.116 245H501.881C507.216 245 512.335 242.773 516.11 238.812C519.879 234.846 522 229.469 522 223.864C522 218.259 519.879 212.882 516.11 208.916C513.958 206.658 511.368 204.964 508.557 203.924C506.866 203.303 505.772 201.577 505.872 199.7C505.892 199.303 505.905 198.902 505.905 198.5C505.905 186.833 496.891 177.364 485.786 177.364C484.048 177.364 482.362 177.596 480.753 178.032C478.982 178.509 477.119 177.672 476.229 175.99C468.676 161.688 454.158 152 437.5 152C420.842 152 406.322 161.688 398.771 175.99C397.881 177.672 396.018 178.509 394.247 178.032C392.638 177.596 390.952 177.364 389.214 177.364C378.109 177.364 369.095 186.833 369.095 198.5C369.095 198.902 369.107 199.303 369.128 199.7C369.228 201.577 368.134 203.303 366.443 203.924C363.632 204.964 361.044 206.658 358.89 208.916C355.121 212.882 353 218.259 353 223.864C353 229.469 355.121 234.846 358.89 238.812C362.665 242.773 367.784 245 373.119 245H373.116Z" fill="#FCF7FC"/>
<path d="M451.731 172.288H510.054C511.612 172.288 512.877 173.553 512.877 175.111V232.396C512.877 233.954 511.613 235.218 510.055 235.218H451.729C450.172 235.218 448.908 233.954 448.908 232.396V175.111C448.908 173.553 450.173 172.288 451.731 172.288Z" fill="white"/>
<path d="M510.054 172.688C511.391 172.688 512.475 173.772 512.475 175.109V232.393C512.475 233.73 511.391 234.815 510.054 234.815H451.731C450.394 234.815 449.31 233.73 449.31 232.393V175.109C449.31 173.772 450.394 172.688 451.731 172.688H510.054ZM510.054 171.886H451.731C449.954 171.886 448.507 173.332 448.507 175.109V232.393C448.507 234.17 449.954 235.617 451.731 235.617H510.054C511.831 235.617 513.277 234.17 513.277 232.393V175.109C513.277 173.332 511.831 171.886 510.054 171.886Z" fill="black"/>
<path d="M459.632 182.455H457.194C456.33 182.455 455.629 183.155 455.629 184.019C455.629 184.883 456.33 185.583 457.194 185.583H459.632C460.496 185.583 461.197 184.883 461.197 184.019C461.197 183.155 460.496 182.455 459.632 182.455Z" fill="#805AC3"/>
<path d="M459.632 188.615H457.194C456.33 188.615 455.629 189.316 455.629 190.179C455.629 191.043 456.33 191.744 457.194 191.744H459.632C460.496 191.744 461.197 191.043 461.197 190.179C461.197 189.316 460.496 188.615 459.632 188.615Z" fill="#805AC3"/>
<path d="M459.632 194.774H457.194C456.33 194.774 455.629 195.475 455.629 196.338C455.629 197.202 456.33 197.903 457.194 197.903H459.632C460.496 197.903 461.197 197.202 461.197 196.338C461.197 195.475 460.496 194.774 459.632 194.774Z" fill="#805AC3"/>
<path d="M459.632 200.935H457.194C456.33 200.935 455.629 201.635 455.629 202.499C455.629 203.363 456.33 204.063 457.194 204.063H459.632C460.496 204.063 461.197 203.363 461.197 202.499C461.197 201.635 460.496 200.935 459.632 200.935Z" fill="#805AC3"/>
<path d="M459.632 207.094H457.194C456.33 207.094 455.629 207.794 455.629 208.658C455.629 209.522 456.33 210.222 457.194 210.222H459.632C460.496 210.222 461.197 209.522 461.197 208.658C461.197 207.794 460.496 207.094 459.632 207.094Z" fill="#805AC3"/>
<path d="M459.632 213.253H457.194C456.33 213.253 455.629 213.953 455.629 214.817C455.629 215.681 456.33 216.381 457.194 216.381H459.632C460.496 216.381 461.197 215.681 461.197 214.817C461.197 213.953 460.496 213.253 459.632 213.253Z" fill="#805AC3"/>
<path d="M459.632 219.16H457.194C456.33 219.16 455.629 219.861 455.629 220.725C455.629 221.589 456.33 222.289 457.194 222.289H459.632C460.496 222.289 461.197 221.589 461.197 220.725C461.197 219.861 460.496 219.16 459.632 219.16Z" fill="#805AC3"/>
<path d="M459.632 225.572H457.194C456.33 225.572 455.629 226.273 455.629 227.137C455.629 228.001 456.33 228.701 457.194 228.701H459.632C460.496 228.701 461.197 228.001 461.197 227.137C461.197 226.273 460.496 225.572 459.632 225.572Z" fill="#805AC3"/>
<path d="M475.673 200.935H466.129C465.264 200.935 464.563 201.635 464.563 202.499C464.563 203.363 465.264 204.063 466.129 204.063H475.673C476.537 204.063 477.238 203.363 477.238 202.499C477.238 201.635 476.537 200.935 475.673 200.935Z" fill="#805AC3"/>
<path d="M492.437 200.935H480.237C479.373 200.935 478.672 201.635 478.672 202.499C478.672 203.363 479.373 204.063 480.237 204.063H492.437C493.301 204.063 494.002 203.363 494.002 202.499C494.002 201.635 493.301 200.935 492.437 200.935Z" fill="#805AC3"/>
<path d="M479.484 194.774H466.129C465.264 194.774 464.563 195.475 464.563 196.338C464.563 197.202 465.264 197.903 466.129 197.903H479.484C480.348 197.903 481.049 197.202 481.049 196.338C481.049 195.475 480.348 194.774 479.484 194.774Z" fill="#805AC3"/>
<path d="M500.803 194.774H483.994C483.13 194.774 482.429 195.475 482.429 196.338C482.429 197.202 483.13 197.903 483.994 197.903H500.803C501.667 197.903 502.368 197.202 502.368 196.338C502.368 195.475 501.667 194.774 500.803 194.774Z" fill="#805AC3"/>
<path d="M475.271 188.615H466.129C465.264 188.615 464.563 189.316 464.563 190.179C464.563 191.043 465.264 191.744 466.129 191.744H475.271C476.136 191.744 476.836 191.043 476.836 190.179C476.836 189.316 476.136 188.615 475.271 188.615Z" fill="#805AC3"/>
<path d="M480.865 182.455H466.129C465.264 182.455 464.563 183.155 464.563 184.019C464.563 184.883 465.264 185.583 466.129 185.583H480.865C481.729 185.583 482.43 184.883 482.43 184.019C482.43 183.155 481.729 182.455 480.865 182.455Z" fill="#805AC3"/>
<path d="M491.504 188.615H479.791C478.926 188.615 478.226 189.316 478.226 190.179C478.226 191.043 478.926 191.744 479.791 191.744H491.504C492.368 191.744 493.069 191.043 493.069 190.179C493.069 189.316 492.368 188.615 491.504 188.615Z" fill="#805AC3"/>
<path d="M504.591 200.935H497.002C496.138 200.935 495.438 201.635 495.438 202.499C495.438 203.363 496.138 204.063 497.002 204.063H504.591C505.455 204.063 506.155 203.363 506.155 202.499C506.155 201.635 505.455 200.935 504.591 200.935Z" fill="#805AC3"/>
<path d="M475.673 219.16H466.129C465.264 219.16 464.563 219.861 464.563 220.725C464.563 221.589 465.264 222.289 466.129 222.289H475.673C476.537 222.289 477.238 221.589 477.238 220.725C477.238 219.861 476.537 219.16 475.673 219.16Z" fill="#805AC3"/>
<path d="M492.437 219.16H480.237C479.373 219.16 478.672 219.861 478.672 220.725C478.672 221.589 479.373 222.289 480.237 222.289H492.437C493.301 222.289 494.002 221.589 494.002 220.725C494.002 219.861 493.301 219.16 492.437 219.16Z" fill="#805AC3"/>
<path d="M504.591 219.16H497.002C496.138 219.16 495.438 219.861 495.438 220.725C495.438 221.589 496.138 222.289 497.002 222.289H504.591C505.455 222.289 506.155 221.589 506.155 220.725C506.155 219.861 505.455 219.16 504.591 219.16Z" fill="#805AC3"/>
<path d="M474.224 207.094H466.129C465.264 207.094 464.563 207.794 464.563 208.658C464.563 209.522 465.264 210.222 466.129 210.222H474.224C475.088 210.222 475.789 209.522 475.789 208.658C475.789 207.794 475.088 207.094 474.224 207.094Z" fill="#805AC3"/>
<path d="M489.071 207.094H478.625C477.76 207.094 477.06 207.794 477.06 208.658C477.06 209.522 477.76 210.222 478.625 210.222H489.071C489.935 210.222 490.636 209.522 490.636 208.658C490.636 207.794 489.935 207.094 489.071 207.094Z" fill="#805AC3"/>
<path d="M476.667 213.253H466.129C465.264 213.253 464.563 213.953 464.563 214.817C464.563 215.681 465.264 216.381 466.129 216.381H476.667C477.531 216.381 478.232 215.681 478.232 214.817C478.232 213.953 477.531 213.253 476.667 213.253Z" fill="#805AC3"/>
<path d="M494.745 213.253H481.344C480.48 213.253 479.779 213.953 479.779 214.817C479.779 215.681 480.48 216.381 481.344 216.381H494.745C495.609 216.381 496.31 215.681 496.31 214.817C496.31 213.953 495.609 213.253 494.745 213.253Z" fill="#805AC3"/>
<path d="M471.111 225.572H466.129C465.264 225.572 464.563 226.273 464.563 227.137C464.563 228.001 465.264 228.701 466.129 228.701H471.111C471.976 228.701 472.676 228.001 472.676 227.137C472.676 226.273 471.976 225.572 471.111 225.572Z" fill="#805AC3"/>
<path d="M482.046 225.572H475.364C474.499 225.572 473.799 226.273 473.799 227.137C473.799 228.001 474.499 228.701 475.364 228.701H482.046C482.91 228.701 483.611 228.001 483.611 227.137C483.611 226.273 482.91 225.572 482.046 225.572Z" fill="#805AC3"/>
<path d="M501.832 225.572H486.299C485.435 225.572 484.734 226.273 484.734 227.137C484.734 228.001 485.435 228.701 486.299 228.701H501.832C502.696 228.701 503.397 228.001 503.397 227.137C503.397 226.273 502.696 225.572 501.832 225.572Z" fill="#805AC3"/>
<path d="M499.834 207.094H493.472C492.608 207.094 491.907 207.794 491.907 208.658C491.907 209.522 492.608 210.222 493.472 210.222H499.834C500.699 210.222 501.399 209.522 501.399 208.658C501.399 207.794 500.699 207.094 499.834 207.094Z" fill="#805AC3"/>
<path d="M448.909 176.937V171.696C448.909 170.582 449.815 169.676 450.929 169.676H510.859C511.973 169.676 512.877 170.582 512.877 171.696V176.937H448.909Z" fill="white"/>
<path d="M510.857 170.078C511.752 170.078 512.475 170.803 512.475 171.696V176.537H449.31V171.696C449.31 170.803 450.034 170.078 450.927 170.078H510.857ZM510.857 169.276H450.927C449.593 169.276 448.507 170.362 448.507 171.696V177.339H513.279V171.696C513.279 170.362 512.193 169.276 510.859 169.276H510.857Z" fill="black"/>
<path d="M452.314 174.382C452.89 174.382 453.358 173.915 453.358 173.338C453.358 172.762 452.89 172.295 452.314 172.295C451.738 172.295 451.271 172.762 451.271 173.338C451.271 173.915 451.738 174.382 452.314 174.382Z" fill="#C4C4C4"/>
<path d="M455.193 174.382C455.769 174.382 456.236 173.915 456.236 173.338C456.236 172.762 455.769 172.295 455.193 172.295C454.617 172.295 454.15 172.762 454.15 173.338C454.15 173.915 454.617 174.382 455.193 174.382Z" fill="#C4C4C4"/>
<path d="M458.073 174.382C458.649 174.382 459.116 173.915 459.116 173.338C459.116 172.762 458.649 172.295 458.073 172.295C457.497 172.295 457.03 172.762 457.03 173.338C457.03 173.915 457.497 174.382 458.073 174.382Z" fill="#C4C4C4"/>
<path d="M218.771 190.613H244.363V197.322H300.861H357.36" stroke="#F26E7E" stroke-width="4.16" stroke-miterlimit="10" stroke-linecap="round" stroke-linejoin="round"/>
<path d="M352.133 204.417C352.224 204.515 352.349 204.573 352.483 204.578C352.616 204.583 352.746 204.534 352.843 204.443L359.77 197.943C359.871 197.848 359.928 197.716 359.928 197.578C359.928 197.44 359.871 197.308 359.77 197.214L352.843 190.714C352.746 190.622 352.616 190.574 352.483 190.579C352.349 190.583 352.224 190.641 352.133 190.739L351.06 191.903C350.874 192.105 350.885 192.419 351.086 192.606L356.385 197.578L351.086 202.55C350.885 202.738 350.874 203.052 351.06 203.254L352.133 204.417Z" fill="#F26E7E" stroke="#F26E7E" stroke-linejoin="round"/>
<path d="M439.133 216.417C439.224 216.515 439.349 216.573 439.483 216.578C439.616 216.583 439.746 216.534 439.843 216.443L446.77 209.943C446.871 209.848 446.928 209.716 446.928 209.578C446.928 209.44 446.871 209.308 446.77 209.214L439.843 202.714C439.746 202.622 439.616 202.574 439.483 202.579C439.349 202.583 439.224 202.641 439.133 202.739L438.06 203.903C437.874 204.105 437.885 204.419 438.086 204.606L443.385 209.578L438.086 214.55C437.885 214.738 437.874 215.052 438.06 215.254L439.133 216.417Z" fill="#805AC3" stroke="#805AC3" stroke-linejoin="round"/>
<path d="M170.503 215.195H244.038V209.558H343.705H443.371" stroke="#805AC3" stroke-width="4.16" stroke-miterlimit="10" stroke-linecap="round" stroke-linejoin="round"/>
<path d="M365.127 172.288H423.452C425.009 172.288 426.275 173.553 426.275 175.111V232.395C426.275 233.952 425.009 235.218 423.452 235.218H365.127C363.57 235.218 362.306 233.954 362.306 232.396V175.109C362.306 173.552 363.57 172.288 365.127 172.288Z" fill="white"/>
<path d="M423.45 172.688C424.787 172.688 425.872 173.772 425.872 175.109V232.393C425.872 233.73 424.787 234.815 423.45 234.815H365.127C363.79 234.815 362.706 233.73 362.706 232.393V175.109C362.706 173.772 363.79 172.688 365.127 172.688H423.45ZM423.45 171.886H365.127C363.35 171.886 361.904 173.332 361.904 175.109V232.393C361.904 234.17 363.35 235.617 365.127 235.617H423.45C425.227 235.617 426.674 234.17 426.674 232.393V175.109C426.674 173.332 425.227 171.886 423.45 171.886Z" fill="black"/>
<path d="M373.028 182.455H370.59C369.726 182.455 369.025 183.155 369.025 184.019C369.025 184.883 369.726 185.583 370.59 185.583H373.028C373.892 185.583 374.593 184.883 374.593 184.019C374.593 183.155 373.892 182.455 373.028 182.455Z" fill="#F26E7E"/>
<path d="M373.028 188.615H370.59C369.726 188.615 369.025 189.316 369.025 190.179C369.025 191.043 369.726 191.744 370.59 191.744H373.028C373.892 191.744 374.593 191.043 374.593 190.179C374.593 189.316 373.892 188.615 373.028 188.615Z" fill="#F26E7E"/>
<path d="M373.028 194.774H370.59C369.726 194.774 369.025 195.475 369.025 196.338C369.025 197.202 369.726 197.903 370.59 197.903H373.028C373.892 197.903 374.593 197.202 374.593 196.338C374.593 195.475 373.892 194.774 373.028 194.774Z" fill="#F26E7E"/>
<path d="M373.028 200.935H370.59C369.726 200.935 369.025 201.635 369.025 202.499C369.025 203.363 369.726 204.063 370.59 204.063H373.028C373.892 204.063 374.593 203.363 374.593 202.499C374.593 201.635 373.892 200.935 373.028 200.935Z" fill="#F26E7E"/>
<path d="M373.028 207.094H370.59C369.726 207.094 369.025 207.794 369.025 208.658C369.025 209.522 369.726 210.222 370.59 210.222H373.028C373.892 210.222 374.593 209.522 374.593 208.658C374.593 207.794 373.892 207.094 373.028 207.094Z" fill="#F26E7E"/>
<path d="M373.028 213.253H370.59C369.726 213.253 369.025 213.953 369.025 214.817C369.025 215.681 369.726 216.381 370.59 216.381H373.028C373.892 216.381 374.593 215.681 374.593 214.817C374.593 213.953 373.892 213.253 373.028 213.253Z" fill="#F26E7E"/>
<path d="M373.028 219.16H370.59C369.726 219.16 369.025 219.861 369.025 220.725C369.025 221.589 369.726 222.289 370.59 222.289H373.028C373.892 222.289 374.593 221.589 374.593 220.725C374.593 219.861 373.892 219.16 373.028 219.16Z" fill="#F26E7E"/>
<path d="M373.028 225.572H370.59C369.726 225.572 369.025 226.273 369.025 227.137C369.025 228.001 369.726 228.701 370.59 228.701H373.028C373.892 228.701 374.593 228.001 374.593 227.137C374.593 226.273 373.892 225.572 373.028 225.572Z" fill="#F26E7E"/>
<path d="M389.07 200.935H379.525C378.661 200.935 377.96 201.635 377.96 202.499C377.96 203.363 378.661 204.063 379.525 204.063H389.07C389.934 204.063 390.634 203.363 390.634 202.499C390.634 201.635 389.934 200.935 389.07 200.935Z" fill="#F26E7E"/>
<path d="M405.833 200.935H393.634C392.769 200.935 392.069 201.635 392.069 202.499C392.069 203.363 392.769 204.063 393.634 204.063H405.833C406.698 204.063 407.398 203.363 407.398 202.499C407.398 201.635 406.698 200.935 405.833 200.935Z" fill="#F26E7E"/>
<path d="M392.88 194.774H379.525C378.661 194.774 377.96 195.475 377.96 196.338C377.96 197.202 378.661 197.903 379.525 197.903H392.88C393.745 197.903 394.445 197.202 394.445 196.338C394.445 195.475 393.745 194.774 392.88 194.774Z" fill="#F26E7E"/>
<path d="M414.199 194.774H397.391C396.526 194.774 395.826 195.475 395.826 196.338C395.826 197.202 396.526 197.903 397.391 197.903H414.199C415.063 197.903 415.764 197.202 415.764 196.338C415.764 195.475 415.063 194.774 414.199 194.774Z" fill="#F26E7E"/>
<path d="M388.668 188.615H379.525C378.661 188.615 377.96 189.316 377.96 190.179C377.96 191.043 378.661 191.744 379.525 191.744H388.668C389.532 191.744 390.233 191.043 390.233 190.179C390.233 189.316 389.532 188.615 388.668 188.615Z" fill="#F26E7E"/>
<path d="M394.261 182.455H379.525C378.661 182.455 377.96 183.155 377.96 184.019C377.96 184.883 378.661 185.583 379.525 185.583H394.261C395.126 185.583 395.826 184.883 395.826 184.019C395.826 183.155 395.126 182.455 394.261 182.455Z" fill="#F26E7E"/>
<path d="M404.9 188.615H393.187C392.322 188.615 391.622 189.316 391.622 190.179C391.622 191.043 392.322 191.744 393.187 191.744H404.9C405.764 191.744 406.465 191.043 406.465 190.179C406.465 189.316 405.764 188.615 404.9 188.615Z" fill="#F26E7E"/>
<path d="M417.987 200.935H410.399C409.535 200.935 408.834 201.635 408.834 202.499C408.834 203.363 409.535 204.063 410.399 204.063H417.987C418.851 204.063 419.552 203.363 419.552 202.499C419.552 201.635 418.851 200.935 417.987 200.935Z" fill="#F26E7E"/>
<path d="M389.07 219.16H379.525C378.661 219.16 377.96 219.861 377.96 220.725C377.96 221.589 378.661 222.289 379.525 222.289H389.07C389.934 222.289 390.634 221.589 390.634 220.725C390.634 219.861 389.934 219.16 389.07 219.16Z" fill="#F26E7E"/>
<path d="M405.833 219.16H393.634C392.769 219.16 392.069 219.861 392.069 220.725C392.069 221.589 392.769 222.289 393.634 222.289H405.833C406.698 222.289 407.398 221.589 407.398 220.725C407.398 219.861 406.698 219.16 405.833 219.16Z" fill="#F26E7E"/>
<path d="M417.987 219.16H410.399C409.535 219.16 408.834 219.861 408.834 220.725C408.834 221.589 409.535 222.289 410.399 222.289H417.987C418.851 222.289 419.552 221.589 419.552 220.725C419.552 219.861 418.851 219.16 417.987 219.16Z" fill="#F26E7E"/>
<path d="M387.62 207.094H379.525C378.661 207.094 377.96 207.794 377.96 208.658C377.96 209.522 378.661 210.222 379.525 210.222H387.62C388.484 210.222 389.185 209.522 389.185 208.658C389.185 207.794 388.484 207.094 387.62 207.094Z" fill="#F26E7E"/>
<path d="M402.467 207.094H392.021C391.157 207.094 390.456 207.794 390.456 208.658C390.456 209.522 391.157 210.222 392.021 210.222H402.467C403.332 210.222 404.032 209.522 404.032 208.658C404.032 207.794 403.332 207.094 402.467 207.094Z" fill="#F26E7E"/>
<path d="M390.063 213.253H379.525C378.661 213.253 377.96 213.953 377.96 214.817C377.96 215.681 378.661 216.381 379.525 216.381H390.063C390.927 216.381 391.628 215.681 391.628 214.817C391.628 213.953 390.927 213.253 390.063 213.253Z" fill="#F26E7E"/>
<path d="M408.141 213.253H394.74C393.875 213.253 393.175 213.953 393.175 214.817C393.175 215.681 393.875 216.381 394.74 216.381H408.141C409.005 216.381 409.706 215.681 409.706 214.817C409.706 213.953 409.005 213.253 408.141 213.253Z" fill="#F26E7E"/>
<path d="M384.508 225.572H379.525C378.661 225.572 377.96 226.273 377.96 227.137C377.96 228.001 378.661 228.701 379.525 228.701H384.508C385.372 228.701 386.073 228.001 386.073 227.137C386.073 226.273 385.372 225.572 384.508 225.572Z" fill="#F26E7E"/>
<path d="M395.442 225.572H388.759C387.895 225.572 387.194 226.273 387.194 227.137C387.194 228.001 387.895 228.701 388.759 228.701H395.442C396.306 228.701 397.006 228.001 397.006 227.137C397.006 226.273 396.306 225.572 395.442 225.572Z" fill="#F26E7E"/>
<path d="M415.228 225.572H399.695C398.831 225.572 398.13 226.273 398.13 227.137C398.13 228.001 398.831 228.701 399.695 228.701H415.228C416.092 228.701 416.793 228.001 416.793 227.137C416.793 226.273 416.092 225.572 415.228 225.572Z" fill="#F26E7E"/>
<path d="M413.231 207.094H406.869C406.004 207.094 405.304 207.794 405.304 208.658C405.304 209.522 406.004 210.222 406.869 210.222H413.231C414.095 210.222 414.796 209.522 414.796 208.658C414.796 207.794 414.095 207.094 413.231 207.094Z" fill="#F26E7E"/>
<path d="M362.306 176.937V171.696C362.306 170.582 363.212 169.676 364.324 169.676H424.254C425.367 169.676 426.273 170.582 426.273 171.696V176.937H362.306Z" fill="white"/>
<path d="M424.254 170.078C425.148 170.078 425.872 170.803 425.872 171.696V176.537H362.706V171.696C362.706 170.803 363.431 170.078 364.324 170.078H424.254ZM424.254 169.276H364.324C362.99 169.276 361.904 170.362 361.904 171.696V177.339H426.675V171.696C426.675 170.362 425.59 169.276 424.255 169.276H424.254Z" fill="black"/>
<path d="M365.71 174.382C366.287 174.382 366.754 173.915 366.754 173.338C366.754 172.762 366.287 172.295 365.71 172.295C365.134 172.295 364.667 172.762 364.667 173.338C364.667 173.915 365.134 174.382 365.71 174.382Z" fill="#C4C4C4"/>
<path d="M368.589 174.382C369.165 174.382 369.632 173.915 369.632 173.338C369.632 172.762 369.165 172.295 368.589 172.295C368.013 172.295 367.546 172.762 367.546 173.338C367.546 173.915 368.013 174.382 368.589 174.382Z" fill="#C4C4C4"/>
<path d="M371.467 174.382C372.043 174.382 372.511 173.915 372.511 173.338C372.511 172.762 372.043 172.295 371.467 172.295C370.891 172.295 370.424 172.762 370.424 173.338C370.424 173.915 370.891 174.382 371.467 174.382Z" fill="#C4C4C4"/>
<rect x="202" y="342.5" width="232" height="187.5" rx="12" fill="#FFF9E8"/>
<path d="M318.45 407.24C328.423 407.24 336.508 399.155 336.508 389.182C336.508 379.209 328.423 371.124 318.45 371.124C308.477 371.124 300.393 379.209 300.393 389.182C300.393 399.155 308.477 407.24 318.45 407.24Z" fill="white"/>
<path d="M321.906 415.747H314.095C313.802 415.747 313.556 415.527 313.529 415.235L313.035 409.993C310.71 409.465 308.487 408.562 306.453 407.318L302.308 410.693C302.084 410.876 301.76 410.861 301.554 410.658L296.03 405.248C295.818 405.039 295.802 404.703 295.994 404.477L299.43 400.428C298.17 398.452 297.249 396.277 296.708 393.997L291.345 393.514C291.052 393.488 290.828 393.242 290.83 392.948V385.299C290.83 385.005 291.052 384.759 291.345 384.733L296.708 384.249C297.249 381.969 298.17 379.796 299.43 377.818L295.994 373.769C295.802 373.542 295.818 373.206 296.03 372.999L301.554 367.588C301.76 367.386 302.084 367.371 302.308 367.553L306.456 370.929C308.489 369.686 310.712 368.782 313.037 368.254L313.531 363.013C313.558 362.721 313.804 362.499 314.097 362.5H321.906C322.199 362.5 322.444 362.721 322.472 363.013L322.966 368.254C325.291 368.783 327.514 369.687 329.547 370.932L333.693 367.557C333.916 367.374 334.24 367.389 334.446 367.592L339.97 373.002C340.182 373.211 340.198 373.547 340.006 373.773L336.57 377.82C337.83 379.796 338.751 381.969 339.292 384.25L344.656 384.735C344.949 384.761 345.172 385.006 345.171 385.301V392.949C345.171 393.243 344.949 393.489 344.656 393.515L339.292 393.999C338.751 396.28 337.83 398.453 336.57 400.43L340.006 404.479C340.198 404.706 340.182 405.043 339.97 405.25L334.446 410.661C334.24 410.863 333.916 410.878 333.693 410.696L329.547 407.317C327.514 408.561 325.291 409.464 322.966 409.992L322.472 415.234C322.444 415.525 322.199 415.749 321.906 415.747ZM317.915 374.467C314.046 374.551 310.368 376.162 307.682 378.949C304.996 381.734 303.52 385.469 303.577 389.338C303.634 393.209 305.218 396.899 307.984 399.605C310.751 402.311 314.474 403.814 318.343 403.787C322.214 403.758 325.915 402.202 328.642 399.456C331.368 396.709 332.898 392.996 332.898 389.127C332.85 385.199 331.246 381.449 328.437 378.701C325.628 375.953 321.845 374.431 317.915 374.469V374.467Z" fill="#7682F4"/>
<path d="M317.914 374.467C317.962 374.467 318.009 374.468 318.058 374.468C321.935 374.468 325.662 375.986 328.436 378.701C331.245 381.449 332.849 385.198 332.897 389.127C332.897 392.998 331.366 396.71 328.641 399.456C325.914 402.202 322.212 403.758 318.342 403.787C318.306 403.787 318.271 403.787 318.236 403.787C314.405 403.787 310.723 402.287 307.982 399.605C305.217 396.899 303.633 393.209 303.576 389.339C303.52 385.47 304.995 381.735 307.681 378.949C310.367 376.163 314.046 374.553 317.915 374.467M320.02 372.518L317.874 372.564C313.474 372.661 309.368 374.46 306.312 377.629C303.257 380.797 301.61 384.966 301.673 389.367C301.738 393.769 303.506 397.888 306.652 400.967C309.766 404.014 313.881 405.691 318.238 405.691H318.357C322.76 405.659 326.892 403.92 329.993 400.797C333.093 397.672 334.801 393.528 334.802 389.126C334.748 384.638 332.959 380.461 329.768 377.339C327.089 374.718 323.677 373.099 320.004 372.676L320.02 372.518Z" fill="#CCD3FF"/>
<path fill-rule="evenodd" clip-rule="evenodd" d="M310.565 390.479C311.447 389.969 311.45 388.318 310.568 386.792C309.687 385.265 308.257 384.441 307.373 384.951C306.491 385.461 306.488 387.112 307.37 388.638C308.251 390.165 309.681 390.989 310.565 390.479ZM310.57 393.747C311.451 395.274 311.45 396.925 310.566 397.435C309.682 397.945 308.252 397.121 307.371 395.594C306.49 394.068 306.491 392.417 307.375 391.907C308.257 391.397 309.688 392.221 310.57 393.747ZM316.588 397.227C317.47 398.753 317.468 400.404 316.585 400.915C315.702 401.425 314.271 400.6 313.39 399.074C312.508 397.547 312.51 395.896 313.393 395.386C314.276 394.876 315.707 395.7 316.588 397.227ZM316.586 390.271C317.467 391.797 317.466 393.448 316.582 393.959C315.7 394.469 314.268 393.644 313.387 392.118C312.506 390.591 312.507 388.94 313.391 388.43C314.273 387.92 315.705 388.744 316.586 390.271Z" fill="#F26E7E"/>
<path fill-rule="evenodd" clip-rule="evenodd" d="M328.626 388.642C329.507 387.115 329.506 385.465 328.622 384.954C327.74 384.444 326.308 385.269 325.427 386.795C324.546 388.322 324.547 389.973 325.431 390.483C326.313 390.993 327.745 390.169 328.626 388.642ZM328.626 391.909C329.508 392.419 329.511 394.07 328.63 395.597C327.748 397.124 326.318 397.948 325.435 397.438C324.551 396.928 324.55 395.277 325.431 393.75C326.312 392.223 327.742 391.399 328.626 391.909ZM322.608 395.384C323.492 395.894 323.493 397.545 322.612 399.071C321.731 400.598 320.301 401.422 319.417 400.912C318.533 400.402 318.532 398.751 319.413 397.224C320.295 395.698 321.724 394.873 322.608 395.384ZM322.605 388.43C323.487 388.94 323.49 390.591 322.608 392.118C321.727 393.644 320.297 394.469 319.413 393.959C318.531 393.448 318.528 391.798 319.41 390.271C320.291 388.744 321.721 387.92 322.605 388.43Z" fill="#8A3391"/>
<path fill-rule="evenodd" clip-rule="evenodd" d="M321.189 379.032C321.189 380.053 319.76 380.879 317.997 380.879C316.235 380.879 314.806 380.053 314.806 379.032C314.806 378.012 316.235 377.185 317.997 377.185C319.76 377.185 321.189 378.012 321.189 379.032ZM315.171 382.503C315.171 383.523 313.742 384.35 311.98 384.35C310.217 384.35 308.789 383.523 308.789 382.503C308.789 381.483 310.217 380.656 311.98 380.656C313.742 380.656 315.171 381.483 315.171 382.503ZM324.021 384.35C325.784 384.35 327.213 383.523 327.213 382.503C327.213 381.483 325.784 380.656 324.021 380.656C322.259 380.656 320.83 381.483 320.83 382.503C320.83 383.523 322.259 384.35 324.021 384.35ZM321.187 385.981C321.187 387.001 319.759 387.828 317.996 387.828C316.234 387.828 314.805 387.001 314.805 385.981C314.805 384.961 316.234 384.134 317.996 384.134C319.759 384.134 321.187 384.961 321.187 385.981Z" fill="#F7BF2A"/>
<path d="M336.231 439.033C336.892 437.617 337.239 436.074 337.239 434.502C337.239 428.572 332.415 423.749 326.486 423.749C324.835 423.749 323.204 424.136 321.722 424.872C319.367 422.547 316.187 421.229 312.877 421.229C305.929 421.229 300.278 426.882 300.278 433.829C300.278 434.389 300.317 434.956 300.397 435.527C295.729 436.423 292.213 440.571 292.213 445.42C292.213 450.978 296.735 455.5 302.294 455.5H333.879C338.511 455.5 342.279 451.732 342.279 447.099C342.279 443.302 339.764 440.056 336.231 439.033Z" fill="#9FB6FF"/>
<path d="M317.997 415.737V445.549" stroke="#DEE4FF" stroke-width="1.787" stroke-miterlimit="10"/>
<path d="M308.923 438.198L310.548 436.685L317.994 444.697L325.442 436.685L327.067 438.198L317.994 447.954L308.923 438.198Z" fill="#DEE4FF"/>
<path d="M226.845 470.4V483H228.519V478.5H231.417C232.587 478.5 233.541 478.104 234.315 477.33C235.089 476.556 235.485 475.584 235.485 474.45C235.485 473.298 235.089 472.344 234.315 471.57C233.541 470.796 232.587 470.4 231.417 470.4H226.845ZM228.519 476.934V471.966H231.417C232.803 471.966 233.829 473.01 233.829 474.45C233.829 475.152 233.595 475.746 233.145 476.232C232.695 476.7 232.119 476.934 231.417 476.934H228.519ZM243.51 478.77C243.51 480.786 242.466 481.74 240.9 481.74C239.514 481.74 238.668 480.894 238.668 479.436V474H237.102V479.526C237.102 481.812 238.488 483.234 240.594 483.234C241.908 483.234 242.88 482.73 243.51 481.704V483H245.076V474H243.51V478.77ZM249.026 483V469.86H247.46V483H249.026ZM257.626 478.77C257.626 480.786 256.582 481.74 255.016 481.74C253.63 481.74 252.784 480.894 252.784 479.436V474H251.218V479.526C251.218 481.812 252.604 483.234 254.71 483.234C256.024 483.234 256.996 482.73 257.626 481.704V483H259.192V474H257.626V478.77ZM271.296 473.766C270.036 473.766 269.1 474.27 268.47 475.296C267.912 474.27 267.03 473.766 265.824 473.766C264.654 473.766 263.754 474.252 263.142 475.206V474H261.576V483H263.142V477.996C263.142 476.178 264.132 475.26 265.446 475.26C266.616 475.26 267.354 476.07 267.354 477.456V483H268.92V477.996C268.92 476.142 269.784 475.26 271.134 475.26C272.34 475.26 273.114 476.07 273.114 477.456V483H274.68V477.402C274.68 475.17 273.312 473.766 271.296 473.766ZM277.643 472.362C278.219 472.362 278.687 471.894 278.687 471.318C278.687 470.742 278.219 470.256 277.643 470.256C277.049 470.256 276.581 470.742 276.581 471.318C276.581 471.894 277.049 472.362 277.643 472.362ZM278.417 483V474H276.851V483H278.417ZM287.142 477.42H292.452V475.854H287.142V471.984H292.902V470.4H285.468V483H292.992V481.416H287.142V477.42ZM299.333 473.766C298.019 473.766 297.047 474.27 296.417 475.296V474H294.851V483H296.417V478.23C296.417 476.214 297.461 475.26 299.027 475.26C300.413 475.26 301.259 476.106 301.259 477.564V483H302.825V477.474C302.825 475.188 301.439 473.766 299.333 473.766ZM312.481 475.548C311.707 474.36 310.573 473.766 309.097 473.766C307.819 473.766 306.721 474.216 305.839 475.134C304.957 476.034 304.507 477.132 304.507 478.446C304.507 479.76 304.957 480.858 305.839 481.776C306.721 482.694 307.819 483.144 309.097 483.144C310.555 483.144 311.689 482.55 312.481 481.344V482.622C312.481 484.332 311.347 485.376 309.475 485.376C308.017 485.376 307.027 484.872 306.541 483.864L305.173 484.638C305.911 486.06 307.423 486.834 309.439 486.834C310.699 486.834 311.779 486.456 312.679 485.718C313.579 484.98 314.029 483.954 314.029 482.622V474H312.481V475.548ZM312.481 478.446C312.481 479.364 312.175 480.12 311.563 480.732C310.951 481.344 310.195 481.65 309.277 481.65C308.359 481.65 307.603 481.344 306.991 480.732C306.379 480.12 306.073 479.364 306.073 478.446C306.073 477.546 306.379 476.79 306.991 476.178C307.603 475.566 308.359 475.26 309.277 475.26C310.195 475.26 310.951 475.566 311.563 476.178C312.175 476.79 312.481 477.546 312.481 478.446ZM317.194 472.362C317.77 472.362 318.238 471.894 318.238 471.318C318.238 470.742 317.77 470.256 317.194 470.256C316.6 470.256 316.132 470.742 316.132 471.318C316.132 471.894 316.6 472.362 317.194 472.362ZM317.968 483V474H316.402V483H317.968ZM324.839 473.766C323.525 473.766 322.553 474.27 321.923 475.296V474H320.357V483H321.923V478.23C321.923 476.214 322.967 475.26 324.533 475.26C325.919 475.26 326.765 476.106 326.765 477.564V483H328.331V477.474C328.331 475.188 326.945 473.766 324.839 473.766ZM339.157 479.22C339.193 478.986 339.211 478.752 339.211 478.518C339.211 477.204 338.797 476.088 337.951 475.17C337.123 474.234 336.043 473.766 334.729 473.766C333.343 473.766 332.209 474.216 331.327 475.116C330.445 476.016 330.013 477.15 330.013 478.5C330.013 479.868 330.463 481.002 331.345 481.902C332.245 482.784 333.415 483.234 334.837 483.234C336.601 483.234 337.915 482.55 338.797 481.2L337.465 480.444C336.925 481.326 336.061 481.758 334.873 481.758C333.163 481.758 331.921 480.822 331.615 479.22H339.157ZM334.729 475.242C336.169 475.242 337.357 476.142 337.627 477.852H331.615C331.885 476.268 333.055 475.242 334.729 475.242ZM345.673 470.4V483H350.587C352.297 483 353.719 482.388 354.853 481.182C355.987 479.958 356.563 478.464 356.563 476.7C356.563 474.936 355.987 473.442 354.853 472.236C353.719 471.012 352.297 470.4 350.587 470.4H345.673ZM347.347 481.416V471.984H350.587C351.865 471.984 352.927 472.434 353.737 473.334C354.547 474.234 354.961 475.35 354.961 476.7C354.961 478.05 354.547 479.166 353.737 480.066C352.927 480.966 351.865 481.416 350.587 481.416H347.347ZM367.071 479.22C367.107 478.986 367.125 478.752 367.125 478.518C367.125 477.204 366.711 476.088 365.865 475.17C365.037 474.234 363.957 473.766 362.643 473.766C361.257 473.766 360.123 474.216 359.241 475.116C358.359 476.016 357.927 477.15 357.927 478.5C357.927 479.868 358.377 481.002 359.259 481.902C360.159 482.784 361.329 483.234 362.751 483.234C364.515 483.234 365.829 482.55 366.711 481.2L365.379 480.444C364.839 481.326 363.975 481.758 362.787 481.758C361.077 481.758 359.835 480.822 359.529 479.22H367.071ZM362.643 475.242C364.083 475.242 365.271 476.142 365.541 477.852H359.529C359.799 476.268 360.969 475.242 362.643 475.242ZM373.893 473.766C372.399 473.766 371.265 474.36 370.491 475.548V474H368.925V486.6H370.491V481.452C371.265 482.64 372.399 483.234 373.893 483.234C375.153 483.234 376.233 482.784 377.115 481.866C377.997 480.948 378.447 479.814 378.447 478.5C378.447 477.186 377.997 476.07 377.115 475.152C376.233 474.234 375.153 473.766 373.893 473.766ZM373.695 481.722C372.777 481.722 372.021 481.416 371.409 480.804C370.797 480.174 370.491 479.418 370.491 478.5C370.491 477.582 370.797 476.826 371.409 476.214C372.021 475.584 372.777 475.278 373.695 475.278C374.595 475.278 375.351 475.584 375.963 476.214C376.575 476.826 376.881 477.582 376.881 478.5C376.881 479.418 376.575 480.174 375.963 480.804C375.351 481.416 374.595 481.722 373.695 481.722ZM381.882 483V469.86H380.316V483H381.882ZM391.867 481.866C392.785 480.948 393.253 479.832 393.253 478.5C393.253 477.168 392.785 476.052 391.867 475.134C390.949 474.216 389.815 473.766 388.501 473.766C387.187 473.766 386.053 474.216 385.135 475.134C384.217 476.052 383.767 477.168 383.767 478.5C383.767 479.832 384.217 480.948 385.135 481.866C386.053 482.784 387.187 483.234 388.501 483.234C389.815 483.234 390.949 482.784 391.867 481.866ZM388.501 481.704C387.619 481.704 386.863 481.398 386.251 480.786C385.639 480.174 385.333 479.418 385.333 478.5C385.333 477.582 385.639 476.826 386.251 476.214C386.863 475.602 387.619 475.296 388.501 475.296C389.401 475.296 390.157 475.602 390.769 476.214C391.381 476.826 391.687 477.582 391.687 478.5C391.687 479.418 391.381 480.174 390.769 480.786C390.157 481.398 389.401 481.704 388.501 481.704ZM398.438 481.056L395.378 474H393.704L397.628 482.964L397.466 483.306C396.944 484.62 396.134 485.232 395.036 485.142V486.6C396.836 486.726 398.258 485.592 399.032 483.558L402.704 474H401.03L398.438 481.056ZM404.799 476.43C404.799 475.656 405.519 475.224 406.401 475.224C407.355 475.224 408.003 475.602 408.327 476.376L409.641 475.638C409.065 474.468 407.859 473.766 406.401 473.766C405.483 473.766 404.727 474.018 404.115 474.522C403.521 475.026 403.215 475.674 403.215 476.448C403.215 478.356 405.051 478.824 406.473 479.202C407.463 479.436 408.255 479.832 408.255 480.534C408.255 481.38 407.499 481.758 406.473 481.758C405.375 481.758 404.529 481.218 404.241 480.354L402.891 481.128C403.413 482.406 404.727 483.234 406.473 483.234C407.463 483.234 408.255 482.982 408.885 482.496C409.515 482.01 409.839 481.344 409.839 480.534C409.857 478.608 407.985 478.086 406.581 477.78C405.591 477.51 404.799 477.132 404.799 476.43ZM296.277 510.234C297.573 510.234 298.617 509.91 299.427 509.262C300.237 508.596 300.633 507.714 300.633 506.616C300.633 505.824 300.453 505.176 300.003 504.726C299.697 504.366 299.535 504.168 299.031 503.898C298.545 503.628 298.401 503.538 297.771 503.304C297.465 503.178 297.249 503.106 297.105 503.052L296.367 502.818C295.395 502.512 294.711 502.206 294.315 501.918C293.919 501.63 293.721 501.216 293.721 500.658C293.721 499.506 294.639 498.786 296.007 498.786C297.375 498.786 298.329 499.434 298.869 500.73L300.273 499.92C299.535 498.264 298.005 497.166 296.007 497.166C294.909 497.166 293.973 497.49 293.199 498.138C292.425 498.768 292.047 499.632 292.047 500.73C292.047 501.648 292.425 502.386 292.839 502.836C293.037 503.052 293.343 503.268 293.757 503.484C294.171 503.682 294.531 503.844 294.801 503.952L296.007 504.348C297.069 504.69 297.843 504.996 298.293 505.302C298.743 505.608 298.977 506.058 298.977 506.652C298.977 507.822 298.041 508.596 296.313 508.596C294.567 508.596 293.433 507.84 292.947 506.31L291.507 507.138C292.173 509.064 293.919 510.234 296.277 510.234ZM307.086 501H304.692V498.48L303.126 498.948V501H301.344V502.512H303.126V507.39C303.126 509.622 304.35 510.36 307.086 510V508.596C305.484 508.668 304.692 508.776 304.692 507.39V502.512H307.086V501ZM315.935 502.548C315.161 501.36 314.027 500.766 312.533 500.766C311.273 500.766 310.193 501.234 309.311 502.152C308.429 503.07 307.979 504.186 307.979 505.5C307.979 506.814 308.429 507.948 309.311 508.866C310.193 509.784 311.273 510.234 312.533 510.234C314.027 510.234 315.161 509.64 315.935 508.452V510H317.501V501H315.935V502.548ZM312.731 508.722C311.831 508.722 311.075 508.416 310.463 507.804C309.851 507.174 309.545 506.418 309.545 505.5C309.545 504.582 309.851 503.826 310.463 503.214C311.075 502.584 311.831 502.278 312.731 502.278C313.649 502.278 314.405 502.584 315.017 503.214C315.629 503.826 315.935 504.582 315.935 505.5C315.935 506.418 315.629 507.174 315.017 507.804C314.405 508.416 313.649 508.722 312.731 508.722ZM324.104 510.234C325.85 510.234 327.38 509.316 328.154 507.894L326.822 507.12C326.318 508.074 325.31 508.686 324.104 508.686C323.204 508.686 322.448 508.38 321.836 507.768C321.242 507.156 320.936 506.4 320.936 505.5C320.936 504.582 321.242 503.826 321.836 503.214C322.448 502.602 323.204 502.296 324.104 502.296C325.31 502.296 326.318 502.926 326.768 503.88L328.082 503.124C327.38 501.684 325.886 500.766 324.104 500.766C322.754 500.766 321.62 501.216 320.72 502.134C319.82 503.034 319.37 504.15 319.37 505.5C319.37 506.85 319.82 507.966 320.72 508.884C321.62 509.784 322.754 510.234 324.104 510.234ZM332.868 505.356L337.17 501H335.154L331.266 504.978V497.4H329.7V510H331.266V505.734L335.37 510H337.314L332.868 505.356ZM339.434 503.43C339.434 502.656 340.154 502.224 341.036 502.224C341.99 502.224 342.638 502.602 342.962 503.376L344.276 502.638C343.7 501.468 342.494 500.766 341.036 500.766C340.118 500.766 339.362 501.018 338.75 501.522C338.156 502.026 337.85 502.674 337.85 503.448C337.85 505.356 339.686 505.824 341.108 506.202C342.098 506.436 342.89 506.832 342.89 507.534C342.89 508.38 342.134 508.758 341.108 508.758C340.01 508.758 339.164 508.218 338.876 507.354L337.526 508.128C338.048 509.406 339.362 510.234 341.108 510.234C342.098 510.234 342.89 509.982 343.52 509.496C344.15 509.01 344.474 508.344 344.474 507.534C344.492 505.608 342.62 505.086 341.216 504.78C340.226 504.51 339.434 504.132 339.434 503.43Z" fill="#231F20"/>
<path d="M443.284 389.5L497.611 389.5L497.611 329.5" stroke="#7682F4" stroke-width="4.16" stroke-linecap="round" stroke-linejoin="round"/>
<path d="M447.295 383.161C447.204 383.063 447.078 383.005 446.945 383C446.812 382.996 446.682 383.044 446.585 383.135L439.658 389.635C439.557 389.73 439.5 389.862 439.5 390C439.5 390.138 439.557 390.27 439.658 390.365L446.585 396.865C446.682 396.956 446.812 397.004 446.945 397C447.078 396.995 447.204 396.937 447.295 396.839L448.368 395.675C448.554 395.474 448.542 395.16 448.342 394.972L443.043 390L448.342 385.028C448.542 384.84 448.554 384.526 448.368 384.325L447.295 383.161Z" fill="#7682F4" stroke="#7682F4" stroke-linejoin="round"/>
</g>
<defs>
<filter id="filter0_d_135_1656" x="0" y="0" width="636" height="612" filterUnits="userSpaceOnUse" color-interpolation-filters="sRGB">
<feFlood flood-opacity="0" result="BackgroundImageFix"/>
<feColorMatrix in="SourceAlpha" type="matrix" values="0 0 0 0 0 0 0 0 0 0 0 0 0 0 0 0 0 0 127 0" result="hardAlpha"/>
<feOffset dy="6"/>
<feGaussianBlur stdDeviation="18"/>
<feColorMatrix type="matrix" values="0 0 0 0 0 0 0 0 0 0 0 0 0 0 0 0 0 0 0.1 0"/>
<feBlend mode="normal" in2="BackgroundImageFix" result="effect1_dropShadow_135_1656"/>
<feBlend mode="normal" in="SourceGraphic" in2="effect1_dropShadow_135_1656" result="shape"/>
</filter>
<linearGradient id="paint0_linear_135_1656" x1="257" y1="115" x2="497" y2="115" gradientUnits="userSpaceOnUse">
<stop offset="0.000465616" stop-color="#F7BF2A"/>
<stop offset="0.182292" stop-color="#F26E7E"/>
<stop offset="0.380208" stop-color="#BE5188"/>
<stop offset="0.536458" stop-color="#8A3391"/>
<stop offset="0.744792" stop-color="#805AC3"/>
<stop offset="1" stop-color="#7682F4"/>
</linearGradient>
</defs>
</svg>
