<svg width="667" height="497" viewBox="0 0 667 497" fill="none" xmlns="http://www.w3.org/2000/svg">
<g filter="url(#filter0_d)">
<rect x="36" y="30" width="595" height="425" rx="6" fill="white"/>
<path d="M321 91L321 393" stroke="black"/>
<circle cx="321" cy="91" r="5" fill="black"/>
<circle cx="321" cy="210" r="5" fill="black"/>
<circle cx="321" cy="328" r="5" fill="black"/>
<circle cx="321" cy="393" r="5" fill="black"/>
<rect x="338" y="66" width="257" height="51" rx="6" fill="#FEF9EA"/>
<path fill-rule="evenodd" clip-rule="evenodd" d="M356.732 91.4192C357.357 91.0579 357.358 89.8882 356.734 88.8065C356.109 87.7248 355.096 87.1409 354.47 87.5022C353.844 87.8635 353.843 89.0333 354.468 90.1149C355.092 91.1966 356.106 91.7806 356.732 91.4192ZM356.735 93.7354C357.36 94.8171 357.359 95.9868 356.733 96.3481C356.107 96.7094 355.094 96.1255 354.469 95.0438C353.845 93.9622 353.846 92.7924 354.471 92.4311C355.097 92.0698 356.111 92.6537 356.735 93.7354ZM361 96.201C361.624 97.2826 361.623 98.4524 360.998 98.8137C360.372 99.175 359.358 98.5911 358.734 97.5094C358.109 96.4278 358.11 95.258 358.736 94.8967C359.362 94.5354 360.375 95.1193 361 96.201ZM360.999 91.2722C361.623 92.3539 361.622 93.5236 360.996 93.885C360.37 94.2463 359.357 93.6623 358.732 92.5807C358.108 91.499 358.109 90.3292 358.735 89.9679C359.36 89.6066 360.374 90.1906 360.999 91.2722Z" fill="#F26E7E"/>
<path fill-rule="evenodd" clip-rule="evenodd" d="M369.53 90.1176C370.154 89.036 370.153 87.8662 369.528 87.5049C368.902 87.1436 367.888 87.7275 367.264 88.8092C366.639 89.8908 366.64 91.0606 367.266 91.4219C367.892 91.7832 368.905 91.1993 369.53 90.1176ZM369.53 92.4325C370.156 92.7938 370.157 93.9636 369.532 95.0452C368.908 96.1269 367.894 96.7109 367.268 96.3495C366.643 95.9882 366.642 94.8185 367.266 93.7368C367.891 92.6551 368.904 92.0712 369.53 92.4325ZM365.266 94.8941C365.892 95.2554 365.893 96.4252 365.269 97.5068C364.644 98.5885 363.63 99.1725 363.005 98.8111C362.379 98.4498 362.378 97.2801 363.002 96.1984C363.627 95.1168 364.64 94.5328 365.266 94.8941ZM365.264 89.9664C365.89 90.3277 365.891 91.4975 365.266 92.5791C364.642 93.6608 363.628 94.2447 363.002 93.8834C362.376 93.5221 362.375 92.3524 363 91.2707C363.624 90.189 364.638 89.6051 365.264 89.9664Z" fill="#8A3391"/>
<path fill-rule="evenodd" clip-rule="evenodd" d="M364.26 83.3084C364.26 84.0311 363.247 84.6169 361.998 84.6169C360.749 84.6169 359.736 84.0311 359.736 83.3084C359.736 82.5858 360.749 82 361.998 82C363.247 82 364.26 82.5858 364.26 83.3084ZM359.996 85.7675C359.996 86.4901 358.983 87.0759 357.734 87.0759C356.485 87.0759 355.473 86.4901 355.473 85.7675C355.473 85.0448 356.485 84.459 357.734 84.459C358.983 84.459 359.996 85.0448 359.996 85.7675ZM366.267 87.0759C367.516 87.0759 368.529 86.4901 368.529 85.7675C368.529 85.0448 367.516 84.459 366.267 84.459C365.018 84.459 364.006 85.0448 364.006 85.7675C364.006 86.4901 365.018 87.0759 366.267 87.0759ZM364.26 88.2319C364.26 88.9546 363.247 89.5404 361.998 89.5404C360.749 89.5404 359.736 88.9546 359.736 88.2319C359.736 87.5093 360.749 86.9235 361.998 86.9235C363.247 86.9235 364.26 87.5093 364.26 88.2319Z" fill="#F7BF2A"/>
<path d="M383.2 84.8V96H384.688V92H387.264C388.304 92 389.152 91.648 389.84 90.96C390.528 90.272 390.88 89.408 390.88 88.4C390.88 87.376 390.528 86.528 389.84 85.84C389.152 85.152 388.304 84.8 387.264 84.8H383.2ZM384.688 90.608V86.192H387.264C388.496 86.192 389.408 87.12 389.408 88.4C389.408 89.024 389.2 89.552 388.8 89.984C388.4 90.4 387.888 90.608 387.264 90.608H384.688ZM398.014 92.24C398.014 94.032 397.086 94.88 395.694 94.88C394.462 94.88 393.71 94.128 393.71 92.832V88H392.318V92.912C392.318 94.944 393.549 96.208 395.422 96.208C396.59 96.208 397.454 95.76 398.014 94.848V96H399.406V88H398.014V92.24ZM402.917 96V84.32H401.525V96H402.917ZM410.56 92.24C410.56 94.032 409.632 94.88 408.24 94.88C407.008 94.88 406.256 94.128 406.256 92.832V88H404.864V92.912C404.864 94.944 406.096 96.208 407.968 96.208C409.136 96.208 410 95.76 410.56 94.848V96H411.952V88H410.56V92.24ZM422.712 87.792C421.592 87.792 420.76 88.24 420.2 89.152C419.704 88.24 418.92 87.792 417.848 87.792C416.808 87.792 416.008 88.224 415.464 89.072V88H414.072V96H415.464V91.552C415.464 89.936 416.344 89.12 417.512 89.12C418.552 89.12 419.208 89.84 419.208 91.072V96H420.6V91.552C420.6 89.904 421.368 89.12 422.568 89.12C423.64 89.12 424.328 89.84 424.328 91.072V96H425.72V91.024C425.72 89.04 424.504 87.792 422.712 87.792ZM428.354 86.544C428.866 86.544 429.282 86.128 429.282 85.616C429.282 85.104 428.866 84.672 428.354 84.672C427.826 84.672 427.41 85.104 427.41 85.616C427.41 86.128 427.826 86.544 428.354 86.544ZM429.042 96V88H427.65V96H429.042ZM440.573 96.208C441.597 96.208 442.541 95.968 443.405 95.472C444.269 94.976 444.941 94.304 445.405 93.472L444.109 92.736C443.469 93.952 442.109 94.752 440.573 94.752C439.277 94.752 438.221 94.336 437.405 93.504C436.589 92.672 436.189 91.632 436.189 90.4C436.189 89.152 436.589 88.112 437.405 87.28C438.221 86.448 439.277 86.032 440.573 86.032C442.109 86.032 443.469 86.832 444.109 88.064L445.405 87.312C444.445 85.648 442.621 84.592 440.573 84.592C438.877 84.592 437.469 85.152 436.365 86.272C435.261 87.392 434.717 88.768 434.717 90.4C434.717 92.032 435.261 93.408 436.365 94.528C437.469 95.648 438.877 96.208 440.573 96.208ZM453.667 94.992C454.483 94.176 454.899 93.184 454.899 92C454.899 90.816 454.483 89.824 453.667 89.008C452.851 88.192 451.843 87.792 450.675 87.792C449.507 87.792 448.499 88.192 447.683 89.008C446.867 89.824 446.467 90.816 446.467 92C446.467 93.184 446.867 94.176 447.683 94.992C448.499 95.808 449.507 96.208 450.675 96.208C451.843 96.208 452.851 95.808 453.667 94.992ZM450.675 94.848C449.891 94.848 449.219 94.576 448.675 94.032C448.131 93.488 447.859 92.816 447.859 92C447.859 91.184 448.131 90.512 448.675 89.968C449.219 89.424 449.891 89.152 450.675 89.152C451.475 89.152 452.147 89.424 452.691 89.968C453.235 90.512 453.507 91.184 453.507 92C453.507 92.816 453.235 93.488 452.691 94.032C452.147 94.576 451.475 94.848 450.675 94.848ZM457.932 88H456.54V96H457.932V91.76C457.932 90.88 458.172 90.256 458.668 89.856C459.164 89.456 459.74 89.28 460.428 89.312V87.856C459.228 87.856 458.396 88.352 457.932 89.344V88ZM469.033 92.64C469.065 92.432 469.081 92.224 469.081 92.016C469.081 90.848 468.713 89.856 467.961 89.04C467.225 88.208 466.265 87.792 465.097 87.792C463.865 87.792 462.857 88.192 462.073 88.992C461.289 89.792 460.905 90.8 460.905 92C460.905 93.216 461.305 94.224 462.089 95.024C462.889 95.808 463.929 96.208 465.193 96.208C466.761 96.208 467.929 95.6 468.713 94.4L467.529 93.728C467.049 94.512 466.281 94.896 465.225 94.896C463.705 94.896 462.601 94.064 462.329 92.64H469.033ZM465.097 89.104C466.377 89.104 467.433 89.904 467.673 91.424H462.329C462.569 90.016 463.609 89.104 465.097 89.104ZM481.273 84.8H474.825V96H476.313V91.248H481.065V89.84H476.313V86.208H481.273V84.8ZM488.451 92.24C488.451 94.032 487.523 94.88 486.131 94.88C484.899 94.88 484.147 94.128 484.147 92.832V88H482.755V92.912C482.755 94.944 483.987 96.208 485.859 96.208C487.027 96.208 487.891 95.76 488.451 94.848V96H489.843V88H488.451V92.24ZM495.946 87.792C494.778 87.792 493.914 88.24 493.354 89.152V88H491.962V96H493.354V91.76C493.354 89.968 494.282 89.12 495.674 89.12C496.906 89.12 497.658 89.872 497.658 91.168V96H499.05V91.088C499.05 89.056 497.818 87.792 495.946 87.792ZM507.618 89.376C506.93 88.32 505.922 87.792 504.594 87.792C503.474 87.792 502.514 88.208 501.73 89.024C500.946 89.84 500.546 90.832 500.546 92C500.546 93.168 500.946 94.176 501.73 94.992C502.514 95.808 503.474 96.208 504.594 96.208C505.922 96.208 506.93 95.68 507.618 94.624V96H509.01V84.8H507.618V89.376ZM504.77 94.864C503.97 94.864 503.298 94.592 502.754 94.048C502.21 93.488 501.938 92.816 501.938 92C501.938 91.184 502.21 90.512 502.754 89.968C503.298 89.408 503.97 89.136 504.77 89.136C505.586 89.136 506.258 89.408 506.802 89.968C507.346 90.512 507.618 91.184 507.618 92C507.618 92.816 507.346 93.488 506.802 94.048C506.258 94.592 505.586 94.864 504.77 94.864ZM517.743 89.376C517.055 88.32 516.047 87.792 514.719 87.792C513.599 87.792 512.639 88.208 511.855 89.024C511.071 89.84 510.671 90.832 510.671 92C510.671 93.168 511.071 94.176 511.855 94.992C512.639 95.808 513.599 96.208 514.719 96.208C516.047 96.208 517.055 95.68 517.743 94.624V96H519.135V88H517.743V89.376ZM514.895 94.864C514.095 94.864 513.423 94.592 512.879 94.048C512.335 93.488 512.062 92.816 512.062 92C512.062 91.184 512.335 90.512 512.879 89.968C513.423 89.408 514.095 89.136 514.895 89.136C515.711 89.136 516.383 89.408 516.927 89.968C517.471 90.512 517.743 91.184 517.743 92C517.743 92.816 517.471 93.488 516.927 94.048C516.383 94.592 515.711 94.864 514.895 94.864ZM529.884 87.792C528.764 87.792 527.932 88.24 527.372 89.152C526.876 88.24 526.092 87.792 525.02 87.792C523.98 87.792 523.18 88.224 522.636 89.072V88H521.243V96H522.636V91.552C522.636 89.936 523.516 89.12 524.684 89.12C525.724 89.12 526.38 89.84 526.38 91.072V96H527.772V91.552C527.772 89.904 528.54 89.12 529.74 89.12C530.812 89.12 531.5 89.84 531.5 91.072V96H532.892V91.024C532.892 89.04 531.676 87.792 529.884 87.792ZM542.502 92.64C542.534 92.432 542.55 92.224 542.55 92.016C542.55 90.848 542.182 89.856 541.43 89.04C540.694 88.208 539.734 87.792 538.566 87.792C537.334 87.792 536.326 88.192 535.542 88.992C534.758 89.792 534.374 90.8 534.374 92C534.374 93.216 534.774 94.224 535.558 95.024C536.358 95.808 537.398 96.208 538.662 96.208C540.23 96.208 541.398 95.6 542.182 94.4L540.998 93.728C540.518 94.512 539.75 94.896 538.694 94.896C537.174 94.896 536.07 94.064 535.798 92.64H542.502ZM538.566 89.104C539.846 89.104 540.902 89.904 541.142 91.424H535.798C536.038 90.016 537.078 89.104 538.566 89.104ZM548.134 87.792C546.966 87.792 546.102 88.24 545.542 89.152V88H544.15V96H545.542V91.76C545.542 89.968 546.47 89.12 547.862 89.12C549.094 89.12 549.846 89.872 549.846 91.168V96H551.238V91.088C551.238 89.056 550.006 87.792 548.134 87.792ZM557.533 88H555.405V85.76L554.013 86.176V88H552.429V89.344H554.013V93.68C554.013 95.664 555.101 96.32 557.533 96V94.752C556.109 94.816 555.405 94.912 555.405 93.68V89.344H557.533V88ZM565.399 89.376C564.711 88.32 563.703 87.792 562.375 87.792C561.255 87.792 560.295 88.208 559.511 89.024C558.727 89.84 558.327 90.832 558.327 92C558.327 93.168 558.727 94.176 559.511 94.992C560.295 95.808 561.255 96.208 562.375 96.208C563.703 96.208 564.711 95.68 565.399 94.624V96H566.791V88H565.399V89.376ZM562.551 94.864C561.751 94.864 561.079 94.592 560.535 94.048C559.991 93.488 559.719 92.816 559.719 92C559.719 91.184 559.991 90.512 560.535 89.968C561.079 89.408 561.751 89.136 562.551 89.136C563.367 89.136 564.039 89.408 564.583 89.968C565.127 90.512 565.399 91.184 565.399 92C565.399 92.816 565.127 93.488 564.583 94.048C564.039 94.592 563.367 94.864 562.551 94.864ZM570.292 96V84.32H568.9V96H570.292ZM573.6 90.16C573.6 89.472 574.24 89.088 575.024 89.088C575.872 89.088 576.448 89.424 576.736 90.112L577.904 89.456C577.392 88.416 576.32 87.792 575.024 87.792C574.208 87.792 573.536 88.016 572.992 88.464C572.464 88.912 572.192 89.488 572.192 90.176C572.192 91.872 573.824 92.288 575.088 92.624C575.968 92.832 576.672 93.184 576.672 93.808C576.672 94.56 576 94.896 575.088 94.896C574.112 94.896 573.36 94.416 573.104 93.648L571.904 94.336C572.368 95.472 573.536 96.208 575.088 96.208C575.968 96.208 576.672 95.984 577.232 95.552C577.792 95.12 578.08 94.528 578.08 93.808C578.096 92.096 576.432 91.632 575.184 91.36C574.304 91.12 573.6 90.784 573.6 90.16Z" fill="black"/>
<rect x="90" y="368" width="214" height="51" rx="6" fill="#F3EBF4"/>
<path d="M113.333 393.833C113.792 393.833 114.167 394.208 114.167 394.667C114.167 395.125 113.792 395.5 113.333 395.5C112.875 395.5 112.5 395.125 112.5 394.667C112.5 394.208 112.875 393.833 113.333 393.833ZM113.333 392.167C111.95 392.167 110.833 393.283 110.833 394.667C110.833 396.05 111.95 397.167 113.333 397.167C114.717 397.167 115.833 396.05 115.833 394.667C115.833 393.283 114.717 392.167 113.333 392.167ZM118.542 394.667C118.542 394.567 118.542 394.458 118.533 394.358L120.15 393.133L118.067 389.525L116.2 390.308C116.033 390.2 115.85 390.092 115.667 390L115.417 388H111.25L111 390.008C110.817 390.1 110.642 390.208 110.467 390.317L108.6 389.525L106.517 393.133L108.133 394.358C108.125 394.458 108.125 394.567 108.125 394.667C108.125 394.767 108.125 394.875 108.133 394.975L106.517 396.2L108.6 399.808L110.467 399.025C110.633 399.133 110.817 399.242 111 399.333L111.25 401.333H115.417L115.667 399.325C115.85 399.233 116.025 399.133 116.2 399.017L118.067 399.8L120.15 396.192L118.533 394.967C118.542 394.875 118.542 394.767 118.542 394.667ZM117.358 397.7L115.917 397.092C115.45 397.592 114.833 397.958 114.142 398.117L113.942 399.667H112.725L112.533 398.117C111.842 397.958 111.225 397.592 110.758 397.092L109.317 397.7L108.708 396.642L109.95 395.7C109.85 395.375 109.8 395.033 109.8 394.675C109.8 394.317 109.85 393.975 109.95 393.65L108.708 392.708L109.317 391.65L110.758 392.258C111.225 391.758 111.842 391.392 112.533 391.233L112.725 389.667H113.95L114.142 391.217C114.833 391.375 115.45 391.742 115.917 392.242L117.358 391.633L117.967 392.692L116.725 393.633C116.825 393.958 116.875 394.3 116.875 394.658C116.875 395.017 116.825 395.358 116.725 395.683L117.967 396.625L117.358 397.7Z" fill="#8A3391"/>
<path d="M120.417 390.5L121.325 388.492L123.333 387.583L121.325 386.675L120.417 384.667L119.508 386.675L117.5 387.583L119.508 388.492L120.417 390.5ZM122.733 393.6L122.083 392.167L121.433 393.6L120 394.25L121.433 394.9L122.083 396.333L122.733 394.9L124.167 394.25L122.733 393.6Z" fill="#F7BF2A"/>
<path d="M137.2 386.8V398H138.688V394H141.264C142.304 394 143.152 393.648 143.84 392.96C144.528 392.272 144.88 391.408 144.88 390.4C144.88 389.376 144.528 388.528 143.84 387.84C143.152 387.152 142.304 386.8 141.264 386.8H137.2ZM138.688 392.608V388.192H141.264C142.496 388.192 143.408 389.12 143.408 390.4C143.408 391.024 143.2 391.552 142.8 391.984C142.4 392.4 141.888 392.608 141.264 392.608H138.688ZM152.014 394.24C152.014 396.032 151.086 396.88 149.694 396.88C148.462 396.88 147.71 396.128 147.71 394.832V390H146.318V394.912C146.318 396.944 147.549 398.208 149.422 398.208C150.59 398.208 151.454 397.76 152.014 396.848V398H153.406V390H152.014V394.24ZM156.917 398V386.32H155.525V398H156.917ZM164.56 394.24C164.56 396.032 163.632 396.88 162.24 396.88C161.008 396.88 160.256 396.128 160.256 394.832V390H158.864V394.912C158.864 396.944 160.096 398.208 161.968 398.208C163.136 398.208 164 397.76 164.56 396.848V398H165.952V390H164.56V394.24ZM176.712 389.792C175.592 389.792 174.76 390.24 174.2 391.152C173.704 390.24 172.92 389.792 171.848 389.792C170.808 389.792 170.008 390.224 169.464 391.072V390H168.072V398H169.464V393.552C169.464 391.936 170.344 391.12 171.512 391.12C172.552 391.12 173.208 391.84 173.208 393.072V398H174.6V393.552C174.6 391.904 175.368 391.12 176.568 391.12C177.64 391.12 178.328 391.84 178.328 393.072V398H179.72V393.024C179.72 391.04 178.504 389.792 176.712 389.792ZM182.354 388.544C182.866 388.544 183.282 388.128 183.282 387.616C183.282 387.104 182.866 386.672 182.354 386.672C181.826 386.672 181.41 387.104 181.41 387.616C181.41 388.128 181.826 388.544 182.354 388.544ZM183.042 398V390H181.65V398H183.042ZM189.869 388.544C190.381 388.544 190.797 388.128 190.797 387.616C190.797 387.104 190.381 386.672 189.869 386.672C189.341 386.672 188.925 387.104 188.925 387.616C188.925 388.128 189.341 388.544 189.869 388.544ZM190.557 398V390H189.165V398H190.557ZM196.665 389.792C195.497 389.792 194.633 390.24 194.073 391.152V390H192.681V398H194.073V393.76C194.073 391.968 195.001 391.12 196.393 391.12C197.625 391.12 198.377 391.872 198.377 393.168V398H199.769V393.088C199.769 391.056 198.537 389.792 196.665 389.792ZM205.264 392.4C205.264 394.016 205.824 395.376 206.944 396.512C208.064 397.648 209.44 398.208 211.056 398.208C212.672 398.208 214.048 397.648 215.168 396.512C216.304 395.376 216.864 394.016 216.864 392.4C216.864 390.784 216.304 389.408 215.168 388.288C214.048 387.152 212.672 386.592 211.056 386.592C209.44 386.592 208.064 387.152 206.944 388.288C205.824 389.408 205.264 390.784 205.264 392.4ZM215.376 392.4C215.376 393.632 214.96 394.656 214.128 395.504C213.312 396.336 212.288 396.752 211.056 396.752C209.824 396.752 208.8 396.336 207.968 395.504C207.152 394.656 206.736 393.632 206.736 392.4C206.736 391.168 207.152 390.128 207.968 389.296C208.8 388.448 209.824 388.032 211.056 388.032C212.288 388.032 213.312 388.448 214.128 389.296C214.96 390.128 215.376 391.168 215.376 392.4ZM222.925 389.792C221.597 389.792 220.589 390.32 219.901 391.376V390H218.509V401.2H219.901V396.624C220.589 397.68 221.597 398.208 222.925 398.208C224.045 398.208 225.005 397.808 225.789 396.992C226.573 396.176 226.973 395.168 226.973 394C226.973 392.832 226.573 391.84 225.789 391.024C225.005 390.208 224.045 389.792 222.925 389.792ZM222.749 396.864C221.933 396.864 221.261 396.592 220.717 396.048C220.173 395.488 219.901 394.816 219.901 394C219.901 393.184 220.173 392.512 220.717 391.968C221.261 391.408 221.933 391.136 222.749 391.136C223.549 391.136 224.221 391.408 224.765 391.968C225.309 392.512 225.581 393.184 225.581 394C225.581 394.816 225.309 395.488 224.765 396.048C224.221 396.592 223.549 396.864 222.749 396.864ZM236.314 394.64C236.346 394.432 236.362 394.224 236.362 394.016C236.362 392.848 235.994 391.856 235.242 391.04C234.506 390.208 233.546 389.792 232.378 389.792C231.146 389.792 230.138 390.192 229.354 390.992C228.57 391.792 228.186 392.8 228.186 394C228.186 395.216 228.586 396.224 229.37 397.024C230.17 397.808 231.21 398.208 232.474 398.208C234.042 398.208 235.21 397.6 235.994 396.4L234.81 395.728C234.33 396.512 233.562 396.896 232.506 396.896C230.986 396.896 229.882 396.064 229.61 394.64H236.314ZM232.378 391.104C233.658 391.104 234.714 391.904 234.954 393.424H229.61C229.85 392.016 230.89 391.104 232.378 391.104ZM239.354 390H237.962V398H239.354V393.76C239.354 392.88 239.594 392.256 240.09 391.856C240.586 391.456 241.162 391.28 241.85 391.312V389.856C240.65 389.856 239.818 390.352 239.354 391.344V390ZM249.399 391.376C248.711 390.32 247.703 389.792 246.375 389.792C245.255 389.792 244.295 390.208 243.511 391.024C242.727 391.84 242.327 392.832 242.327 394C242.327 395.168 242.727 396.176 243.511 396.992C244.295 397.808 245.255 398.208 246.375 398.208C247.703 398.208 248.711 397.68 249.399 396.624V398H250.791V390H249.399V391.376ZM246.551 396.864C245.751 396.864 245.079 396.592 244.535 396.048C243.991 395.488 243.719 394.816 243.719 394C243.719 393.184 243.991 392.512 244.535 391.968C245.079 391.408 245.751 391.136 246.551 391.136C247.367 391.136 248.039 391.408 248.583 391.968C249.127 392.512 249.399 393.184 249.399 394C249.399 394.816 249.127 395.488 248.583 396.048C248.039 396.592 247.367 396.864 246.551 396.864ZM257.252 390H255.124V387.76L253.732 388.176V390H252.148V391.344H253.732V395.68C253.732 397.664 254.82 398.32 257.252 398V396.752C255.828 396.816 255.124 396.912 255.124 395.68V391.344H257.252V390ZM259.604 388.544C260.116 388.544 260.532 388.128 260.532 387.616C260.532 387.104 260.116 386.672 259.604 386.672C259.076 386.672 258.66 387.104 258.66 387.616C258.66 388.128 259.076 388.544 259.604 388.544ZM260.292 398V390H258.9V398H260.292ZM269.167 396.992C269.983 396.176 270.399 395.184 270.399 394C270.399 392.816 269.983 391.824 269.167 391.008C268.351 390.192 267.343 389.792 266.175 389.792C265.007 389.792 263.999 390.192 263.183 391.008C262.367 391.824 261.967 392.816 261.967 394C261.967 395.184 262.367 396.176 263.183 396.992C263.999 397.808 265.007 398.208 266.175 398.208C267.343 398.208 268.351 397.808 269.167 396.992ZM266.175 396.848C265.391 396.848 264.719 396.576 264.175 396.032C263.631 395.488 263.359 394.816 263.359 394C263.359 393.184 263.631 392.512 264.175 391.968C264.719 391.424 265.391 391.152 266.175 391.152C266.975 391.152 267.647 391.424 268.191 391.968C268.735 392.512 269.007 393.184 269.007 394C269.007 394.816 268.735 395.488 268.191 396.032C267.647 396.576 266.975 396.848 266.175 396.848ZM276.024 389.792C274.856 389.792 273.992 390.24 273.432 391.152V390H272.04V398H273.432V393.76C273.432 391.968 274.36 391.12 275.752 391.12C276.984 391.12 277.736 391.872 277.736 393.168V398H279.128V393.088C279.128 391.056 277.896 389.792 276.024 389.792ZM282.272 392.16C282.272 391.472 282.912 391.088 283.696 391.088C284.544 391.088 285.12 391.424 285.408 392.112L286.576 391.456C286.064 390.416 284.992 389.792 283.696 389.792C282.88 389.792 282.208 390.016 281.664 390.464C281.136 390.912 280.864 391.488 280.864 392.176C280.864 393.872 282.496 394.288 283.76 394.624C284.64 394.832 285.344 395.184 285.344 395.808C285.344 396.56 284.672 396.896 283.76 396.896C282.784 396.896 282.032 396.416 281.776 395.648L280.576 396.336C281.04 397.472 282.208 398.208 283.76 398.208C284.64 398.208 285.344 397.984 285.904 397.552C286.464 397.12 286.752 396.528 286.752 395.808C286.768 394.096 285.104 393.632 283.856 393.36C282.976 393.12 282.272 392.784 282.272 392.16Z" fill="black"/>
<rect x="338" y="303" width="192" height="51" rx="6" fill="#F8EDF3"/>
<path d="M369.75 325C368.663 325 368.055 326.08 368.302 326.883L365.64 329.552C365.415 329.485 365.085 329.485 364.86 329.552L362.948 327.64C363.203 326.838 362.595 325.75 361.5 325.75C360.412 325.75 359.797 326.83 360.052 327.64L356.632 331.052C355.83 330.805 354.75 331.412 354.75 332.5C354.75 333.325 355.425 334 356.25 334C357.338 334 357.945 332.92 357.697 332.117L361.11 328.698C361.335 328.765 361.665 328.765 361.89 328.698L363.802 330.61C363.547 331.412 364.155 332.5 365.25 332.5C366.337 332.5 366.953 331.42 366.698 330.61L369.368 327.948C370.17 328.195 371.25 327.588 371.25 326.5C371.25 325.675 370.575 325 369.75 325Z" fill="#F26E7E"/>
<path d="M365.25 325.75L365.955 324.197L367.5 323.5L365.955 322.803L365.25 321.25L364.56 322.803L363 323.5L364.56 324.197L365.25 325.75Z" fill="#F7BF2A"/>
<path d="M356.625 327.25L357 325.75L358.5 325.375L357 325L356.625 323.5L356.25 325L354.75 325.375L356.25 325.75L356.625 327.25Z" fill="#F7BF2A"/>
<path d="M385.2 321.8V333H386.688V329H389.264C390.304 329 391.152 328.648 391.84 327.96C392.528 327.272 392.88 326.408 392.88 325.4C392.88 324.376 392.528 323.528 391.84 322.84C391.152 322.152 390.304 321.8 389.264 321.8H385.2ZM386.688 327.608V323.192H389.264C390.496 323.192 391.408 324.12 391.408 325.4C391.408 326.024 391.2 326.552 390.8 326.984C390.4 327.4 389.888 327.608 389.264 327.608H386.688ZM400.014 329.24C400.014 331.032 399.086 331.88 397.694 331.88C396.462 331.88 395.71 331.128 395.71 329.832V325H394.318V329.912C394.318 331.944 395.549 333.208 397.422 333.208C398.59 333.208 399.454 332.76 400.014 331.848V333H401.406V325H400.014V329.24ZM404.917 333V321.32H403.525V333H404.917ZM412.56 329.24C412.56 331.032 411.632 331.88 410.24 331.88C409.008 331.88 408.256 331.128 408.256 329.832V325H406.864V329.912C406.864 331.944 408.096 333.208 409.968 333.208C411.136 333.208 412 332.76 412.56 331.848V333H413.952V325H412.56V329.24ZM424.712 324.792C423.592 324.792 422.76 325.24 422.2 326.152C421.704 325.24 420.92 324.792 419.848 324.792C418.808 324.792 418.008 325.224 417.464 326.072V325H416.072V333H417.464V328.552C417.464 326.936 418.344 326.12 419.512 326.12C420.552 326.12 421.208 326.84 421.208 328.072V333H422.6V328.552C422.6 326.904 423.368 326.12 424.568 326.12C425.64 326.12 426.328 326.84 426.328 328.072V333H427.72V328.024C427.72 326.04 426.504 324.792 424.712 324.792ZM430.354 323.544C430.866 323.544 431.282 323.128 431.282 322.616C431.282 322.104 430.866 321.672 430.354 321.672C429.826 321.672 429.41 322.104 429.41 322.616C429.41 323.128 429.826 323.544 430.354 323.544ZM431.042 333V325H429.65V333H431.042ZM437.869 323.544C438.381 323.544 438.797 323.128 438.797 322.616C438.797 322.104 438.381 321.672 437.869 321.672C437.341 321.672 436.925 322.104 436.925 322.616C436.925 323.128 437.341 323.544 437.869 323.544ZM438.557 333V325H437.165V333H438.557ZM444.665 324.792C443.497 324.792 442.633 325.24 442.073 326.152V325H440.681V333H442.073V328.76C442.073 326.968 443.001 326.12 444.393 326.12C445.625 326.12 446.377 326.872 446.377 328.168V333H447.769V328.088C447.769 326.056 446.537 324.792 444.665 324.792ZM453.856 321.8V333H455.344V329H457.92C458.96 329 459.808 328.648 460.496 327.96C461.184 327.272 461.536 326.408 461.536 325.4C461.536 324.376 461.184 323.528 460.496 322.84C459.808 322.152 458.96 321.8 457.92 321.8H453.856ZM455.344 327.608V323.192H457.92C459.152 323.192 460.064 324.12 460.064 325.4C460.064 326.024 459.856 326.552 459.456 326.984C459.056 327.4 458.544 327.608 457.92 327.608H455.344ZM464.37 325H462.978V333H464.37V328.76C464.37 327.88 464.61 327.256 465.106 326.856C465.602 326.456 466.178 326.28 466.866 326.312V324.856C465.666 324.856 464.834 325.352 464.37 326.344V325ZM474.414 326.376C473.726 325.32 472.718 324.792 471.39 324.792C470.27 324.792 469.31 325.208 468.526 326.024C467.742 326.84 467.342 327.832 467.342 329C467.342 330.168 467.742 331.176 468.526 331.992C469.31 332.808 470.27 333.208 471.39 333.208C472.718 333.208 473.726 332.68 474.414 331.624V333H475.806V325H474.414V326.376ZM471.566 331.864C470.766 331.864 470.094 331.592 469.55 331.048C469.006 330.488 468.734 329.816 468.734 329C468.734 328.184 469.006 327.512 469.55 326.968C470.094 326.408 470.766 326.136 471.566 326.136C472.382 326.136 473.054 326.408 473.598 326.968C474.142 327.512 474.414 328.184 474.414 329C474.414 329.816 474.142 330.488 473.598 331.048C473.054 331.592 472.382 331.864 471.566 331.864ZM481.675 333.208C483.227 333.208 484.587 332.392 485.275 331.128L484.091 330.44C483.643 331.288 482.747 331.832 481.675 331.832C480.875 331.832 480.203 331.56 479.659 331.016C479.131 330.472 478.859 329.8 478.859 329C478.859 328.184 479.131 327.512 479.659 326.968C480.203 326.424 480.875 326.152 481.675 326.152C482.747 326.152 483.643 326.712 484.043 327.56L485.211 326.888C484.587 325.608 483.259 324.792 481.675 324.792C480.475 324.792 479.467 325.192 478.667 326.008C477.867 326.808 477.467 327.8 477.467 329C477.467 330.2 477.867 331.192 478.667 332.008C479.467 332.808 480.475 333.208 481.675 333.208ZM491.002 325H488.874V322.76L487.482 323.176V325H485.898V326.344H487.482V330.68C487.482 332.664 488.57 333.32 491.002 333V331.752C489.578 331.816 488.874 331.912 488.874 330.68V326.344H491.002V325ZM493.354 323.544C493.866 323.544 494.282 323.128 494.282 322.616C494.282 322.104 493.866 321.672 493.354 321.672C492.826 321.672 492.41 322.104 492.41 322.616C492.41 323.128 492.826 323.544 493.354 323.544ZM494.042 333V325H492.65V333H494.042ZM499.925 333.208C501.477 333.208 502.837 332.392 503.525 331.128L502.341 330.44C501.893 331.288 500.997 331.832 499.925 331.832C499.125 331.832 498.453 331.56 497.909 331.016C497.381 330.472 497.109 329.8 497.109 329C497.109 328.184 497.381 327.512 497.909 326.968C498.453 326.424 499.125 326.152 499.925 326.152C500.997 326.152 501.893 326.712 502.293 327.56L503.461 326.888C502.837 325.608 501.509 324.792 499.925 324.792C498.725 324.792 497.717 325.192 496.917 326.008C496.117 326.808 495.717 327.8 495.717 329C495.717 330.2 496.117 331.192 496.917 332.008C497.717 332.808 498.725 333.208 499.925 333.208ZM512.47 329.64C512.502 329.432 512.518 329.224 512.518 329.016C512.518 327.848 512.15 326.856 511.398 326.04C510.662 325.208 509.702 324.792 508.534 324.792C507.302 324.792 506.294 325.192 505.51 325.992C504.726 326.792 504.342 327.8 504.342 329C504.342 330.216 504.742 331.224 505.526 332.024C506.326 332.808 507.366 333.208 508.63 333.208C510.198 333.208 511.366 332.6 512.15 331.4L510.966 330.728C510.486 331.512 509.718 331.896 508.662 331.896C507.142 331.896 506.038 331.064 505.766 329.64H512.47ZM508.534 326.104C509.814 326.104 510.87 326.904 511.11 328.424H505.766C506.006 327.016 507.046 326.104 508.534 326.104Z" fill="black"/>
<rect x="72" y="129" width="232" height="162" rx="6" fill="#FEF1F2"/>
<path d="M93.0726 153.039C93.0726 153.259 93.0965 153.437 93.1384 153.568C93.1863 153.698 93.2462 153.841 93.33 153.995C93.3599 154.043 93.3719 154.09 93.3719 154.132C93.3719 154.191 93.336 154.251 93.2582 154.31L92.881 154.559C92.8271 154.595 92.7733 154.613 92.7254 154.613C92.6655 154.613 92.6056 154.583 92.5458 154.53C92.4619 154.441 92.3901 154.346 92.3302 154.251C92.2704 154.15 92.2105 154.037 92.1447 153.9C91.6777 154.447 91.091 154.72 90.3846 154.72C89.8817 154.72 89.4806 154.577 89.1873 154.292C88.8939 154.007 88.7443 153.627 88.7443 153.152C88.7443 152.647 88.9239 152.237 89.289 151.928C89.6542 151.62 90.1391 151.465 90.7558 151.465C90.9593 151.465 91.1688 151.483 91.3903 151.513C91.6118 151.542 91.8393 151.59 92.0788 151.643V151.21C92.0788 150.759 91.983 150.444 91.7974 150.26C91.6059 150.076 91.2826 149.987 90.8216 149.987C90.6121 149.987 90.3966 150.01 90.1751 150.064C89.9536 150.117 89.738 150.182 89.5285 150.266C89.4327 150.307 89.3609 150.331 89.319 150.343C89.2771 150.355 89.2471 150.361 89.2232 150.361C89.1394 150.361 89.0975 150.301 89.0975 150.177V149.886C89.0975 149.791 89.1094 149.719 89.1394 149.678C89.1693 149.636 89.2232 149.595 89.307 149.553C89.5165 149.446 89.768 149.357 90.0613 149.286C90.3547 149.209 90.666 149.173 90.9952 149.173C91.7076 149.173 92.2285 149.333 92.5637 149.654C92.893 149.975 93.0606 150.462 93.0606 151.115V153.039H93.0726ZM90.642 153.942C90.8396 153.942 91.0431 153.906 91.2586 153.835C91.4742 153.764 91.6657 153.633 91.8274 153.455C91.9232 153.342 91.995 153.217 92.0309 153.075C92.0668 152.932 92.0908 152.76 92.0908 152.558V152.309C91.9172 152.267 91.7316 152.231 91.54 152.208C91.3484 152.184 91.1629 152.172 90.9773 152.172C90.5762 152.172 90.2828 152.249 90.0853 152.41C89.8877 152.57 89.7919 152.796 89.7919 153.092C89.7919 153.372 89.8638 153.579 90.0134 153.722C90.1571 153.87 90.3666 153.942 90.642 153.942V153.942ZM95.4493 154.583C95.3415 154.583 95.2697 154.565 95.2218 154.524C95.1739 154.488 95.132 154.405 95.0961 154.292L93.6892 149.701C93.6533 149.583 93.6353 149.505 93.6353 149.464C93.6353 149.369 93.6832 149.315 93.779 149.315H94.3657C94.4794 149.315 94.5573 149.333 94.5992 149.375C94.6471 149.41 94.683 149.494 94.7189 149.606L95.7247 153.538L96.6586 149.606C96.6885 149.488 96.7244 149.41 96.7723 149.375C96.8202 149.339 96.904 149.315 97.0118 149.315H97.4907C97.6044 149.315 97.6823 149.333 97.7302 149.375C97.7781 149.41 97.82 149.494 97.8439 149.606L98.7898 153.585L99.8255 149.606C99.8614 149.488 99.9033 149.41 99.9452 149.375C99.9931 149.339 100.071 149.315 100.179 149.315H100.735C100.831 149.315 100.885 149.363 100.885 149.464C100.885 149.494 100.879 149.523 100.873 149.559C100.867 149.595 100.855 149.642 100.831 149.707L99.3885 154.298C99.3525 154.417 99.3106 154.494 99.2627 154.53C99.2148 154.565 99.137 154.589 99.0352 154.589H98.5204C98.4067 154.589 98.3288 154.571 98.2809 154.53C98.233 154.488 98.1911 154.411 98.1672 154.292L97.2393 150.462L96.3173 154.286C96.2874 154.405 96.2515 154.482 96.2036 154.524C96.1557 154.565 96.0719 154.583 95.9641 154.583H95.4493V154.583ZM103.142 154.743C102.831 154.743 102.519 154.708 102.22 154.637C101.921 154.565 101.687 154.488 101.532 154.399C101.436 154.346 101.37 154.286 101.346 154.233C101.322 154.179 101.31 154.12 101.31 154.066V153.764C101.31 153.639 101.358 153.579 101.448 153.579C101.484 153.579 101.52 153.585 101.556 153.597C101.592 153.609 101.645 153.633 101.705 153.657C101.909 153.746 102.13 153.817 102.364 153.865C102.603 153.912 102.837 153.936 103.076 153.936C103.453 153.936 103.747 153.87 103.95 153.74C104.154 153.609 104.262 153.419 104.262 153.176C104.262 153.009 104.208 152.873 104.1 152.76C103.992 152.647 103.789 152.546 103.495 152.451L102.627 152.184C102.19 152.047 101.867 151.845 101.669 151.578C101.472 151.317 101.37 151.026 101.37 150.717C101.37 150.468 101.424 150.248 101.532 150.058C101.639 149.868 101.783 149.701 101.963 149.571C102.142 149.434 102.346 149.333 102.585 149.262C102.825 149.191 103.076 149.161 103.34 149.161C103.471 149.161 103.609 149.167 103.741 149.185C103.878 149.203 104.004 149.226 104.13 149.25C104.25 149.28 104.363 149.309 104.471 149.345C104.579 149.381 104.663 149.416 104.723 149.452C104.806 149.5 104.866 149.547 104.902 149.6C104.938 149.648 104.956 149.713 104.956 149.796V150.076C104.956 150.2 104.908 150.266 104.818 150.266C104.77 150.266 104.693 150.242 104.591 150.194C104.25 150.04 103.866 149.963 103.441 149.963C103.1 149.963 102.831 150.016 102.645 150.129C102.46 150.242 102.364 150.414 102.364 150.658C102.364 150.824 102.424 150.966 102.543 151.079C102.663 151.192 102.885 151.305 103.202 151.406L104.052 151.673C104.483 151.81 104.794 152 104.98 152.243C105.166 152.487 105.255 152.766 105.255 153.075C105.255 153.33 105.201 153.562 105.1 153.764C104.992 153.966 104.848 154.144 104.663 154.286C104.477 154.435 104.256 154.542 103.998 154.619C103.729 154.702 103.447 154.743 103.142 154.743V154.743Z" fill="#252F3E"/>
<path fill-rule="evenodd" clip-rule="evenodd" d="M104.274 157.63C102.304 159.073 99.4423 159.839 96.9818 159.839C93.5335 159.839 90.4265 158.574 88.0797 156.472C87.8942 156.305 88.0618 156.08 88.2833 156.21C90.8216 157.671 93.9526 158.556 97.1914 158.556C99.3765 158.556 101.777 158.105 103.986 157.178C104.315 157.03 104.597 157.392 104.274 157.63V157.63Z" fill="#FF9900"/>
<path fill-rule="evenodd" clip-rule="evenodd" d="M105.094 156.703C104.842 156.383 103.429 156.549 102.789 156.626C102.597 156.65 102.567 156.484 102.741 156.359C103.866 155.575 105.716 155.801 105.932 156.062C106.147 156.329 105.872 158.164 104.818 159.043C104.657 159.18 104.501 159.108 104.573 158.93C104.812 158.342 105.345 157.018 105.094 156.703V156.703Z" fill="#FF9900"/>
<path d="M128.16 159L123.984 147.8H122.304L118.128 159H119.712L120.624 156.488H125.664L126.576 159H128.16ZM123.136 149.576L125.152 155.096H121.136L123.136 149.576ZM132.985 159L135.641 150.056L138.297 159H140.025L143.241 147.8H141.673L139.113 157.016L136.393 147.8H134.889L132.169 157.016L129.609 147.8H128.041L131.257 159H132.985ZM148.144 159.208C149.296 159.208 150.224 158.92 150.944 158.344C151.664 157.752 152.016 156.968 152.016 155.992C152.016 155.288 151.856 154.712 151.456 154.312C151.184 153.992 151.04 153.816 150.592 153.576C150.16 153.336 150.032 153.256 149.472 153.048C149.2 152.936 149.008 152.872 148.88 152.824L148.224 152.616C147.36 152.344 146.752 152.072 146.4 151.816C146.048 151.56 145.872 151.192 145.872 150.696C145.872 149.672 146.688 149.032 147.904 149.032C149.12 149.032 149.968 149.608 150.448 150.76L151.696 150.04C151.04 148.568 149.68 147.592 147.904 147.592C146.928 147.592 146.096 147.88 145.408 148.456C144.72 149.016 144.384 149.784 144.384 150.76C144.384 151.576 144.72 152.232 145.088 152.632C145.264 152.824 145.536 153.016 145.904 153.208C146.272 153.384 146.592 153.528 146.832 153.624L147.904 153.976C148.848 154.28 149.536 154.552 149.936 154.824C150.336 155.096 150.544 155.496 150.544 156.024C150.544 157.064 149.712 157.752 148.176 157.752C146.624 157.752 145.616 157.08 145.184 155.72L143.904 156.456C144.496 158.168 146.048 159.208 148.144 159.208ZM165.314 156.952C165.746 156.248 166.034 155.448 166.178 154.568L164.898 153.832C164.786 154.632 164.594 155.304 164.322 155.864L161.266 152.6C160.61 151.896 160.274 151.4 160.274 150.696C160.274 149.72 161.09 149.032 162.114 149.032C163.074 149.032 163.858 149.624 164.178 150.6L165.426 149.88C164.898 148.456 163.57 147.592 162.082 147.592C161.17 147.592 160.402 147.88 159.746 148.456C159.106 149.032 158.786 149.784 158.786 150.712C158.786 151.464 159.026 152.136 159.506 152.744C158.162 153.4 157.458 154.616 157.458 155.976C157.458 156.968 157.81 157.752 158.498 158.344C159.186 158.92 160.098 159.208 161.218 159.208C162.514 159.208 163.586 158.824 164.418 158.04L165.554 159.256L166.802 158.536L165.314 156.952ZM161.25 157.8C159.794 157.8 158.946 157.08 158.946 155.88C158.946 155.032 159.41 154.2 160.434 153.768L163.458 157.016C162.866 157.544 162.13 157.8 161.25 157.8ZM172.372 147.8V159H173.86V155H176.436C177.476 155 178.324 154.648 179.012 153.96C179.7 153.272 180.052 152.408 180.052 151.4C180.052 150.376 179.7 149.528 179.012 148.84C178.324 148.152 177.476 147.8 176.436 147.8H172.372ZM173.86 153.608V149.192H176.436C177.668 149.192 178.58 150.12 178.58 151.4C178.58 152.024 178.372 152.552 177.972 152.984C177.572 153.4 177.06 153.608 176.436 153.608H173.86ZM187.185 155.24C187.185 157.032 186.257 157.88 184.865 157.88C183.633 157.88 182.881 157.128 182.881 155.832V151H181.489V155.912C181.489 157.944 182.721 159.208 184.593 159.208C185.761 159.208 186.625 158.76 187.185 157.848V159H188.577V151H187.185V155.24ZM192.089 159V147.32H190.697V159H192.089ZM199.732 155.24C199.732 157.032 198.804 157.88 197.412 157.88C196.18 157.88 195.428 157.128 195.428 155.832V151H194.036V155.912C194.036 157.944 195.268 159.208 197.14 159.208C198.308 159.208 199.172 158.76 199.732 157.848V159H201.124V151H199.732V155.24ZM211.884 150.792C210.764 150.792 209.932 151.24 209.372 152.152C208.876 151.24 208.092 150.792 207.02 150.792C205.98 150.792 205.18 151.224 204.636 152.072V151H203.243V159H204.636V154.552C204.636 152.936 205.516 152.12 206.684 152.12C207.724 152.12 208.38 152.84 208.38 154.072V159H209.772V154.552C209.772 152.904 210.54 152.12 211.74 152.12C212.812 152.12 213.5 152.84 213.5 154.072V159H214.892V154.024C214.892 152.04 213.676 150.792 211.884 150.792ZM217.526 149.544C218.038 149.544 218.454 149.128 218.454 148.616C218.454 148.104 218.038 147.672 217.526 147.672C216.998 147.672 216.582 148.104 216.582 148.616C216.582 149.128 216.998 149.544 217.526 149.544ZM218.214 159V151H216.822V159H218.214Z" fill="black"/>
<g clip-path="url(#clip0)">
<path d="M94.0118 182.029H99.3185L93.8096 198.351C93.753 198.519 93.6452 198.665 93.5014 198.768C93.3576 198.871 93.1851 198.927 93.0081 198.927H88.8782C88.7441 198.927 88.6119 198.895 88.4925 198.834C88.3732 198.773 88.2701 198.684 88.1919 198.575C88.1137 198.466 88.0625 198.34 88.0426 198.207C88.0228 198.075 88.0348 197.939 88.0776 197.812L93.21 182.605C93.2666 182.437 93.3745 182.291 93.5183 182.188C93.6621 182.085 93.8347 182.029 94.0118 182.029V182.029Z" fill="url(#paint0_linear)"/>
<path d="M101.723 192.977H93.3081C93.2299 192.977 93.1534 193.001 93.0887 193.044C93.024 193.088 92.974 193.151 92.9453 193.224C92.9166 193.296 92.9105 193.376 92.9278 193.453C92.945 193.529 92.9849 193.598 93.0421 193.651L98.4495 198.699C98.6069 198.845 98.8142 198.927 99.0295 198.927H103.794L101.723 192.977Z" fill="#0078D4"/>
<path d="M94.0118 182.029C93.8328 182.029 93.6582 182.085 93.5137 182.191C93.3691 182.296 93.2621 182.445 93.2082 182.616L88.084 197.798C88.0382 197.926 88.0238 198.063 88.0421 198.197C88.0603 198.331 88.1106 198.459 88.1888 198.57C88.2669 198.68 88.3705 198.771 88.4909 198.833C88.6113 198.895 88.7449 198.927 88.8804 198.927H93.1169C93.2747 198.899 93.4222 198.829 93.5443 198.725C93.6664 198.622 93.7587 198.487 93.8119 198.336L94.8338 195.324L98.4839 198.729C98.6369 198.855 98.8287 198.925 99.0272 198.927H103.774L101.692 192.977L95.6229 192.979L99.3376 182.029H94.0118Z" fill="url(#paint1_linear)"/>
<path d="M100.79 182.604C100.733 182.437 100.626 182.291 100.482 182.188C100.338 182.085 100.166 182.029 99.9892 182.029H94.075C94.2518 182.029 94.4241 182.085 94.5677 182.188C94.7113 182.291 94.819 182.437 94.8755 182.604L100.008 197.812C100.051 197.939 100.063 198.075 100.043 198.207C100.023 198.34 99.9722 198.466 99.894 198.575C99.8157 198.684 99.7127 198.773 99.5933 198.834C99.474 198.895 99.3417 198.927 99.2076 198.927H105.122C105.256 198.927 105.388 198.895 105.508 198.834C105.627 198.773 105.73 198.684 105.808 198.575C105.887 198.466 105.938 198.34 105.957 198.207C105.977 198.075 105.965 197.939 105.922 197.812L100.79 182.604Z" fill="url(#paint2_linear)"/>
</g>
<path d="M128.16 196L123.984 184.8H122.304L118.128 196H119.712L120.624 193.488H125.664L126.576 196H128.16ZM123.136 186.576L125.152 192.096H121.136L123.136 186.576ZM135.049 188.928V188H129.209V189.328H133.129L129.049 195.072V196H135.209V194.672H130.953L135.049 188.928ZM142.389 192.24C142.389 194.032 141.461 194.88 140.069 194.88C138.837 194.88 138.085 194.128 138.085 192.832V188H136.693V192.912C136.693 194.944 137.924 196.208 139.797 196.208C140.965 196.208 141.829 195.76 142.389 194.848V196H143.781V188H142.389V192.24ZM147.292 188H145.9V196H147.292V191.76C147.292 190.88 147.532 190.256 148.028 189.856C148.524 189.456 149.1 189.28 149.788 189.312V187.856C148.588 187.856 147.756 188.352 147.292 189.344V188ZM158.392 192.64C158.424 192.432 158.44 192.224 158.44 192.016C158.44 190.848 158.072 189.856 157.32 189.04C156.584 188.208 155.624 187.792 154.456 187.792C153.224 187.792 152.216 188.192 151.432 188.992C150.648 189.792 150.264 190.8 150.264 192C150.264 193.216 150.664 194.224 151.448 195.024C152.248 195.808 153.288 196.208 154.552 196.208C156.12 196.208 157.288 195.6 158.072 194.4L156.888 193.728C156.408 194.512 155.64 194.896 154.584 194.896C153.064 194.896 151.96 194.064 151.688 192.64H158.392ZM154.456 189.104C155.736 189.104 156.792 189.904 157.032 191.424H151.688C151.928 190.016 152.968 189.104 154.456 189.104ZM171.72 193.952C172.152 193.248 172.44 192.448 172.584 191.568L171.304 190.832C171.192 191.632 171 192.304 170.728 192.864L167.672 189.6C167.016 188.896 166.68 188.4 166.68 187.696C166.68 186.72 167.496 186.032 168.52 186.032C169.48 186.032 170.264 186.624 170.584 187.6L171.832 186.88C171.304 185.456 169.976 184.592 168.488 184.592C167.576 184.592 166.808 184.88 166.152 185.456C165.512 186.032 165.192 186.784 165.192 187.712C165.192 188.464 165.432 189.136 165.912 189.744C164.568 190.4 163.864 191.616 163.864 192.976C163.864 193.968 164.216 194.752 164.904 195.344C165.592 195.92 166.504 196.208 167.624 196.208C168.92 196.208 169.992 195.824 170.824 195.04L171.96 196.256L173.208 195.536L171.72 193.952ZM167.656 194.8C166.2 194.8 165.352 194.08 165.352 192.88C165.352 192.032 165.816 191.2 166.84 190.768L169.864 194.016C169.272 194.544 168.536 194.8 167.656 194.8ZM178.778 184.8V196H180.266V192H182.842C183.882 192 184.73 191.648 185.418 190.96C186.106 190.272 186.458 189.408 186.458 188.4C186.458 187.376 186.106 186.528 185.418 185.84C184.73 185.152 183.882 184.8 182.842 184.8H178.778ZM180.266 190.608V186.192H182.842C184.074 186.192 184.986 187.12 184.986 188.4C184.986 189.024 184.778 189.552 184.378 189.984C183.978 190.4 183.466 190.608 182.842 190.608H180.266ZM193.592 192.24C193.592 194.032 192.664 194.88 191.272 194.88C190.04 194.88 189.288 194.128 189.288 192.832V188H187.896V192.912C187.896 194.944 189.128 196.208 191 196.208C192.168 196.208 193.032 195.76 193.592 194.848V196H194.984V188H193.592V192.24ZM198.495 196V184.32H197.103V196H198.495ZM206.139 192.24C206.139 194.032 205.211 194.88 203.819 194.88C202.587 194.88 201.835 194.128 201.835 192.832V188H200.443V192.912C200.443 194.944 201.674 196.208 203.547 196.208C204.715 196.208 205.579 195.76 206.139 194.848V196H207.531V188H206.139V192.24ZM218.29 187.792C217.17 187.792 216.338 188.24 215.778 189.152C215.282 188.24 214.498 187.792 213.426 187.792C212.386 187.792 211.586 188.224 211.042 189.072V188H209.65V196H211.042V191.552C211.042 189.936 211.922 189.12 213.09 189.12C214.13 189.12 214.786 189.84 214.786 191.072V196H216.178V191.552C216.178 189.904 216.946 189.12 218.146 189.12C219.218 189.12 219.906 189.84 219.906 191.072V196H221.298V191.024C221.298 189.04 220.082 187.792 218.29 187.792ZM223.932 186.544C224.444 186.544 224.86 186.128 224.86 185.616C224.86 185.104 224.444 184.672 223.932 184.672C223.404 184.672 222.988 185.104 222.988 185.616C222.988 186.128 223.404 186.544 223.932 186.544ZM224.62 196V188H223.228V196H224.62Z" fill="black"/>
<path d="M99.4217 223H99.9706L101.535 221.431L101.612 220.765C99.7899 219.152 97.2663 218.597 94.9383 219.297C92.6102 219.998 90.8077 221.854 90.1714 224.206C90.3457 224.134 90.5387 224.123 90.7203 224.173L93.8495 223.655C93.8495 223.655 94.0087 223.391 94.0911 223.408C95.483 221.875 97.8255 221.696 99.4326 223H99.4217Z" fill="#EA4335"/>
<path d="M103.764 224.206C103.404 222.878 102.666 221.684 101.64 220.771L99.4436 222.973C100.371 223.732 100.899 224.877 100.876 226.078V226.468C101.956 226.468 102.831 227.346 102.831 228.428C102.831 229.511 101.956 230.388 100.876 230.388H96.9677L96.5779 230.785V233.135L96.9677 233.526H100.876C103.118 233.544 105.106 232.087 105.771 229.941C106.436 227.795 105.621 225.465 103.764 224.206Z" fill="#4285F4"/>
<path d="M93.0535 233.504H96.9623V230.366H93.0535C92.775 230.366 92.4998 230.306 92.2465 230.19L91.6975 230.361L90.122 231.93L89.9847 232.48C90.8683 233.149 91.9464 233.509 93.0535 233.504Z" fill="#34A853"/>
<path d="M93.0535 223.325C90.8823 223.338 88.9591 224.732 88.2661 226.796C87.5732 228.859 88.2636 231.136 89.9847 232.464L92.252 230.19C91.4598 229.831 90.9993 228.991 91.1218 228.128C91.2443 227.265 91.9206 226.587 92.7811 226.464C93.6417 226.341 94.4798 226.803 94.8377 227.597L97.105 225.323C96.1403 224.059 94.6413 223.319 93.0535 223.325Z" fill="#FBBC05"/>
<path d="M124.4 227.448V228.792H128.512C128.208 230.536 126.768 231.752 124.528 231.752C123.216 231.752 122.144 231.336 121.312 230.504C120.496 229.672 120.08 228.632 120.08 227.4C120.08 226.168 120.496 225.128 121.312 224.296C122.128 223.448 123.184 223.032 124.464 223.032C126.016 223.032 127.408 223.832 128.048 225.048L129.328 224.296C128.864 223.48 128.192 222.84 127.328 222.344C126.464 221.848 125.52 221.592 124.48 221.592C122.8 221.592 121.392 222.152 120.272 223.288C119.168 224.408 118.608 225.784 118.608 227.4C118.608 229.016 119.168 230.392 120.272 231.528C121.392 232.648 122.8 233.208 124.512 233.208C126.16 233.208 127.488 232.728 128.496 231.768C129.504 230.792 130 229.576 130 228.12V227.448H124.4ZM138.417 231.992C139.233 231.176 139.649 230.184 139.649 229C139.649 227.816 139.233 226.824 138.417 226.008C137.601 225.192 136.593 224.792 135.425 224.792C134.257 224.792 133.249 225.192 132.433 226.008C131.617 226.824 131.217 227.816 131.217 229C131.217 230.184 131.617 231.176 132.433 231.992C133.249 232.808 134.257 233.208 135.425 233.208C136.593 233.208 137.601 232.808 138.417 231.992ZM135.425 231.848C134.641 231.848 133.969 231.576 133.425 231.032C132.881 230.488 132.609 229.816 132.609 229C132.609 228.184 132.881 227.512 133.425 226.968C133.969 226.424 134.641 226.152 135.425 226.152C136.225 226.152 136.897 226.424 137.441 226.968C137.985 227.512 138.257 228.184 138.257 229C138.257 229.816 137.985 230.488 137.441 231.032C136.897 231.576 136.225 231.848 135.425 231.848ZM148.042 231.992C148.858 231.176 149.274 230.184 149.274 229C149.274 227.816 148.858 226.824 148.042 226.008C147.226 225.192 146.218 224.792 145.05 224.792C143.882 224.792 142.874 225.192 142.058 226.008C141.242 226.824 140.842 227.816 140.842 229C140.842 230.184 141.242 231.176 142.058 231.992C142.874 232.808 143.882 233.208 145.05 233.208C146.218 233.208 147.226 232.808 148.042 231.992ZM145.05 231.848C144.266 231.848 143.594 231.576 143.05 231.032C142.506 230.488 142.234 229.816 142.234 229C142.234 228.184 142.506 227.512 143.05 226.968C143.594 226.424 144.266 226.152 145.05 226.152C145.85 226.152 146.522 226.424 147.066 226.968C147.61 227.512 147.882 228.184 147.882 229C147.882 229.816 147.61 230.488 147.066 231.032C146.522 231.576 145.85 231.848 145.05 231.848ZM157.555 226.376C156.867 225.32 155.859 224.792 154.547 224.792C153.411 224.792 152.435 225.192 151.651 226.008C150.867 226.808 150.467 227.784 150.467 228.952C150.467 230.12 150.867 231.096 151.651 231.912C152.435 232.728 153.411 233.128 154.547 233.128C155.843 233.128 156.851 232.6 157.555 231.528V232.664C157.555 234.184 156.547 235.112 154.883 235.112C153.587 235.112 152.707 234.664 152.275 233.768L151.059 234.456C151.715 235.72 153.059 236.408 154.851 236.408C155.971 236.408 156.931 236.072 157.731 235.416C158.531 234.76 158.931 233.848 158.931 232.664V225H157.555V226.376ZM157.555 228.952C157.555 229.768 157.283 230.44 156.739 230.984C156.195 231.528 155.523 231.8 154.707 231.8C153.891 231.8 153.219 231.528 152.675 230.984C152.131 230.44 151.859 229.768 151.859 228.952C151.859 228.152 152.131 227.48 152.675 226.936C153.219 226.392 153.891 226.12 154.707 226.12C155.523 226.12 156.195 226.392 156.739 226.936C157.283 227.48 157.555 228.152 157.555 228.952ZM162.432 233V221.32H161.04V233H162.432ZM172.236 229.64C172.268 229.432 172.284 229.224 172.284 229.016C172.284 227.848 171.916 226.856 171.164 226.04C170.428 225.208 169.468 224.792 168.3 224.792C167.068 224.792 166.06 225.192 165.276 225.992C164.492 226.792 164.108 227.8 164.108 229C164.108 230.216 164.508 231.224 165.292 232.024C166.092 232.808 167.132 233.208 168.396 233.208C169.964 233.208 171.132 232.6 171.916 231.4L170.732 230.728C170.252 231.512 169.484 231.896 168.428 231.896C166.908 231.896 165.804 231.064 165.532 229.64H172.236ZM168.3 226.104C169.58 226.104 170.636 226.904 170.876 228.424H165.532C165.772 227.016 166.812 226.104 168.3 226.104ZM183.292 233.208C184.316 233.208 185.26 232.968 186.124 232.472C186.988 231.976 187.66 231.304 188.124 230.472L186.828 229.736C186.188 230.952 184.828 231.752 183.292 231.752C181.996 231.752 180.94 231.336 180.124 230.504C179.308 229.672 178.908 228.632 178.908 227.4C178.908 226.152 179.308 225.112 180.124 224.28C180.94 223.448 181.996 223.032 183.292 223.032C184.828 223.032 186.188 223.832 186.828 225.064L188.124 224.312C187.164 222.648 185.34 221.592 183.292 221.592C181.596 221.592 180.188 222.152 179.084 223.272C177.98 224.392 177.436 225.768 177.436 227.4C177.436 229.032 177.98 230.408 179.084 231.528C180.188 232.648 181.596 233.208 183.292 233.208ZM191.104 233V221.32H189.712V233H191.104ZM199.98 231.992C200.796 231.176 201.212 230.184 201.212 229C201.212 227.816 200.796 226.824 199.98 226.008C199.164 225.192 198.156 224.792 196.988 224.792C195.82 224.792 194.812 225.192 193.996 226.008C193.18 226.824 192.78 227.816 192.78 229C192.78 230.184 193.18 231.176 193.996 231.992C194.812 232.808 195.82 233.208 196.988 233.208C198.156 233.208 199.164 232.808 199.98 231.992ZM196.988 231.848C196.204 231.848 195.532 231.576 194.988 231.032C194.444 230.488 194.172 229.816 194.172 229C194.172 228.184 194.444 227.512 194.988 226.968C195.532 226.424 196.204 226.152 196.988 226.152C197.788 226.152 198.46 226.424 199.004 226.968C199.548 227.512 199.82 228.184 199.82 229C199.82 229.816 199.548 230.488 199.004 231.032C198.46 231.576 197.788 231.848 196.988 231.848ZM208.373 229.24C208.373 231.032 207.445 231.88 206.053 231.88C204.821 231.88 204.069 231.128 204.069 229.832V225H202.677V229.912C202.677 231.944 203.909 233.208 205.781 233.208C206.949 233.208 207.813 232.76 208.373 231.848V233H209.765V225H208.373V229.24ZM218.508 226.376C217.82 225.32 216.812 224.792 215.484 224.792C214.364 224.792 213.404 225.208 212.62 226.024C211.836 226.84 211.436 227.832 211.436 229C211.436 230.168 211.836 231.176 212.62 231.992C213.404 232.808 214.364 233.208 215.484 233.208C216.812 233.208 217.82 232.68 218.508 231.624V233H219.9V221.8H218.508V226.376ZM215.66 231.864C214.86 231.864 214.188 231.592 213.644 231.048C213.1 230.488 212.828 229.816 212.828 229C212.828 228.184 213.1 227.512 213.644 226.968C214.188 226.408 214.86 226.136 215.66 226.136C216.476 226.136 217.148 226.408 217.692 226.968C218.236 227.512 218.508 228.184 218.508 229C218.508 229.816 218.236 230.488 217.692 231.048C217.148 231.592 216.476 231.864 215.66 231.864ZM233.689 230.952C234.121 230.248 234.409 229.448 234.553 228.568L233.273 227.832C233.161 228.632 232.969 229.304 232.697 229.864L229.641 226.6C228.985 225.896 228.649 225.4 228.649 224.696C228.649 223.72 229.465 223.032 230.489 223.032C231.449 223.032 232.233 223.624 232.553 224.6L233.801 223.88C233.273 222.456 231.945 221.592 230.457 221.592C229.545 221.592 228.777 221.88 228.121 222.456C227.481 223.032 227.161 223.784 227.161 224.712C227.161 225.464 227.401 226.136 227.881 226.744C226.537 227.4 225.833 228.616 225.833 229.976C225.833 230.968 226.185 231.752 226.873 232.344C227.561 232.92 228.473 233.208 229.593 233.208C230.889 233.208 231.961 232.824 232.793 232.04L233.929 233.256L235.177 232.536L233.689 230.952ZM229.625 231.8C228.169 231.8 227.321 231.08 227.321 229.88C227.321 229.032 227.785 228.2 228.809 227.768L231.833 231.016C231.241 231.544 230.505 231.8 229.625 231.8ZM240.747 221.8V233H242.235V229H244.811C245.851 229 246.699 228.648 247.387 227.96C248.075 227.272 248.427 226.408 248.427 225.4C248.427 224.376 248.075 223.528 247.387 222.84C246.699 222.152 245.851 221.8 244.811 221.8H240.747ZM242.235 227.608V223.192H244.811C246.043 223.192 246.955 224.12 246.955 225.4C246.955 226.024 246.747 226.552 246.347 226.984C245.947 227.4 245.435 227.608 244.811 227.608H242.235ZM255.56 229.24C255.56 231.032 254.632 231.88 253.24 231.88C252.008 231.88 251.256 231.128 251.256 229.832V225H249.864V229.912C249.864 231.944 251.096 233.208 252.968 233.208C254.136 233.208 255 232.76 255.56 231.848V233H256.952V225H255.56V229.24ZM260.464 233V221.32H259.072V233H260.464ZM268.107 229.24C268.107 231.032 267.179 231.88 265.787 231.88C264.555 231.88 263.803 231.128 263.803 229.832V225H262.411V229.912C262.411 231.944 263.643 233.208 265.515 233.208C266.683 233.208 267.547 232.76 268.107 231.848V233H269.499V225H268.107V229.24ZM280.259 224.792C279.139 224.792 278.307 225.24 277.747 226.152C277.251 225.24 276.467 224.792 275.395 224.792C274.355 224.792 273.555 225.224 273.011 226.072V225H271.618V233H273.011V228.552C273.011 226.936 273.891 226.12 275.059 226.12C276.099 226.12 276.755 226.84 276.755 228.072V233H278.147V228.552C278.147 226.904 278.915 226.12 280.115 226.12C281.187 226.12 281.875 226.84 281.875 228.072V233H283.267V228.024C283.267 226.04 282.051 224.792 280.259 224.792ZM285.901 223.544C286.413 223.544 286.829 223.128 286.829 222.616C286.829 222.104 286.413 221.672 285.901 221.672C285.373 221.672 284.957 222.104 284.957 222.616C284.957 223.128 285.373 223.544 285.901 223.544ZM286.589 233V225H285.197V233H286.589Z" fill="black"/>
<path d="M104.272 259.889C104.17 259.558 103.926 259.289 103.62 259.124L97.4002 256.103C97.2371 256.021 97.0536 256 96.8904 256C96.7273 256 96.5438 256 96.3806 256.041L90.161 259.082C89.8552 259.227 89.6308 259.496 89.5493 259.848L88.0199 266.653C87.9587 267.005 88.0403 267.356 88.2442 267.646L92.5469 273.045C92.7916 273.293 93.1383 273.459 93.485 273.479H100.337C100.704 273.521 101.05 273.355 101.275 273.045L105.577 267.646C105.781 267.356 105.863 267.005 105.822 266.653L104.272 259.889Z" fill="#326DE6"/>
<path d="M103.314 266.384C103.294 266.384 103.273 266.384 103.273 266.364C103.273 266.343 103.232 266.343 103.192 266.343C103.11 266.322 103.028 266.322 102.947 266.322C102.906 266.322 102.865 266.322 102.825 266.301H102.804C102.58 266.281 102.335 266.239 102.111 266.177C102.05 266.157 101.988 266.095 101.968 266.033C101.988 266.033 101.968 266.033 101.968 266.033L101.805 265.991C101.886 265.391 101.846 264.771 101.723 264.171C101.581 263.571 101.336 262.992 101.01 262.475L101.132 262.351V262.33C101.132 262.268 101.152 262.185 101.193 262.144C101.377 261.978 101.56 261.854 101.764 261.73L101.886 261.668C101.968 261.627 102.029 261.585 102.111 261.544C102.131 261.523 102.152 261.523 102.172 261.502C102.192 261.482 102.172 261.482 102.172 261.461C102.356 261.316 102.396 261.068 102.254 260.882C102.192 260.799 102.07 260.737 101.968 260.737C101.866 260.737 101.764 260.778 101.683 260.84L101.662 260.861C101.642 260.882 101.621 260.903 101.601 260.903C101.54 260.965 101.479 261.027 101.438 261.089C101.417 261.13 101.377 261.151 101.356 261.171C101.214 261.337 101.03 261.502 100.846 261.627C100.806 261.647 100.765 261.668 100.724 261.668C100.704 261.668 100.663 261.668 100.643 261.647H100.622L100.459 261.751C100.296 261.585 100.112 261.42 99.9492 261.254C99.1947 260.654 98.2567 260.282 97.2983 260.179L97.2779 260.013V260.034C97.2167 259.992 97.1963 259.93 97.1759 259.868C97.1759 259.641 97.1759 259.413 97.2167 259.165V259.144C97.2167 259.103 97.2371 259.061 97.2371 259.02C97.2575 258.937 97.2575 258.855 97.2779 258.772V258.648C97.2983 258.441 97.1351 258.234 96.9312 258.213C96.8089 258.193 96.6865 258.255 96.5845 258.358C96.503 258.441 96.4622 258.544 96.4622 258.648V258.751C96.4622 258.834 96.4826 258.917 96.503 258.999C96.5234 259.041 96.5234 259.082 96.5234 259.124V259.144C96.5642 259.372 96.5642 259.599 96.5642 259.848C96.5438 259.91 96.5234 259.972 96.4622 260.013V260.054L96.4418 260.22C96.2175 260.241 95.9932 260.282 95.7485 260.323C94.79 260.53 93.9132 261.047 93.2402 261.771L93.1179 261.689H93.0975C93.0771 261.689 93.0567 261.709 93.0159 261.709C92.9751 261.709 92.9344 261.689 92.8936 261.668C92.71 261.523 92.5265 261.358 92.3838 261.192C92.3634 261.151 92.3226 261.13 92.3022 261.109C92.241 261.047 92.2002 260.985 92.1391 260.923C92.1187 260.903 92.0983 260.903 92.0779 260.882L92.0575 260.861C91.9759 260.799 91.874 260.758 91.772 260.758C91.6497 260.758 91.5477 260.799 91.4865 260.903C91.3642 261.089 91.405 261.337 91.5681 261.482C91.5885 261.482 91.5885 261.502 91.5885 261.502C91.5885 261.502 91.6293 261.544 91.6497 261.544C91.7108 261.585 91.7924 261.627 91.874 261.668L91.9963 261.73C92.2002 261.854 92.4042 261.978 92.5673 262.144C92.6081 262.185 92.6489 262.268 92.6285 262.33V262.309L92.7508 262.433C92.7304 262.475 92.71 262.495 92.6897 262.537C92.0575 263.55 91.7924 264.75 91.9759 265.929L91.8128 265.971C91.8128 265.991 91.7924 265.991 91.7924 265.991C91.772 266.053 91.7108 266.095 91.6497 266.136C91.4253 266.198 91.201 266.239 90.9563 266.26C90.9155 266.26 90.8748 266.26 90.834 266.281C90.7524 266.281 90.6708 266.301 90.5893 266.301C90.5689 266.301 90.5485 266.322 90.5077 266.322C90.4873 266.322 90.4873 266.322 90.4669 266.343C90.2426 266.384 90.0999 266.591 90.1406 266.819C90.1814 267.005 90.365 267.129 90.5485 267.108C90.5893 267.108 90.6097 267.108 90.6504 267.088C90.6708 267.088 90.6708 267.088 90.6708 267.067C90.6708 267.046 90.732 267.067 90.7524 267.067C90.834 267.046 90.9155 267.005 90.9767 266.984C91.0175 266.963 91.0583 266.943 91.0991 266.943H91.1195C91.3438 266.86 91.5477 266.798 91.7924 266.757H91.8128C91.874 266.757 91.9351 266.777 91.9759 266.819C91.9963 266.819 91.9963 266.839 91.9963 266.839L92.1799 266.819C92.4857 267.77 93.0567 268.618 93.852 269.239C94.0355 269.384 94.1987 269.508 94.4026 269.611L94.3006 269.756C94.3006 269.777 94.321 269.777 94.321 269.777C94.3618 269.839 94.3618 269.922 94.3414 269.984C94.2598 270.19 94.1375 270.397 94.0151 270.583V270.604C93.9947 270.646 93.9744 270.666 93.9336 270.708C93.8928 270.749 93.852 270.832 93.7908 270.914C93.7704 270.935 93.7704 270.956 93.75 270.976C93.75 270.976 93.75 270.997 93.7297 270.997C93.6277 271.204 93.7093 271.452 93.8928 271.556C93.9336 271.576 93.9947 271.597 94.0355 271.597C94.1987 271.597 94.3414 271.494 94.423 271.349C94.423 271.349 94.423 271.328 94.4434 271.328C94.4434 271.307 94.4638 271.287 94.4842 271.266C94.5046 271.183 94.5453 271.121 94.5657 271.039L94.6065 270.914C94.6677 270.687 94.7696 270.48 94.8716 270.273C94.9124 270.211 94.9736 270.17 95.0347 270.149C95.0551 270.149 95.0551 270.149 95.0551 270.128L95.1367 269.963C95.7077 270.19 96.2991 270.294 96.9108 270.294C97.2779 270.294 97.6449 270.252 98.012 270.149C98.2363 270.108 98.4606 270.025 98.6645 269.963L98.7461 270.108C98.7665 270.108 98.7665 270.108 98.7665 270.128C98.8277 270.149 98.8889 270.19 98.9296 270.252C99.0316 270.459 99.1336 270.666 99.1947 270.894V270.914L99.2355 271.039C99.2559 271.121 99.2763 271.204 99.3171 271.266C99.3375 271.287 99.3375 271.307 99.3579 271.328C99.3579 271.328 99.3579 271.349 99.3783 271.349C99.4598 271.494 99.6026 271.597 99.7657 271.597C99.8269 271.597 99.8677 271.576 99.9289 271.556C100.01 271.514 100.092 271.432 100.112 271.328C100.133 271.225 100.133 271.121 100.092 271.018C100.092 270.997 100.072 270.997 100.072 270.997C100.072 270.976 100.051 270.956 100.031 270.935C99.99 270.852 99.9492 270.79 99.8881 270.728C99.8677 270.687 99.8473 270.666 99.8065 270.625V270.583C99.6638 270.397 99.5618 270.19 99.4802 269.984C99.4598 269.922 99.4598 269.839 99.5006 269.777C99.5006 269.756 99.521 269.756 99.521 269.756L99.4598 269.591C100.5 268.949 101.295 267.956 101.662 266.777L101.825 266.798C101.846 266.798 101.846 266.777 101.846 266.777C101.886 266.736 101.948 266.715 102.009 266.715H102.029C102.254 266.757 102.478 266.819 102.682 266.901H102.702C102.743 266.922 102.784 266.943 102.825 266.943C102.906 266.984 102.967 267.025 103.049 267.046C103.069 267.046 103.09 267.067 103.13 267.067C103.151 267.067 103.151 267.067 103.171 267.088C103.212 267.108 103.232 267.108 103.273 267.108C103.457 267.108 103.62 266.984 103.681 266.819C103.661 266.591 103.497 266.426 103.314 266.384ZM97.4206 265.743L96.87 266.012L96.3194 265.743L96.1767 265.143L96.5642 264.647H97.1759L97.5634 265.143L97.4206 265.743ZM100.745 264.398C100.846 264.833 100.867 265.267 100.826 265.702L98.8889 265.143C98.7053 265.102 98.6034 264.916 98.6441 264.729C98.6645 264.667 98.6849 264.626 98.7257 264.585L100.255 263.178C100.479 263.55 100.643 263.964 100.745 264.398ZM99.6434 262.413L97.9712 263.612C97.8285 263.695 97.6245 263.674 97.5226 263.53C97.4818 263.488 97.4614 263.447 97.4614 263.385L97.3391 261.296C98.2363 261.399 99.0316 261.792 99.6434 262.413ZM95.9524 261.358L96.3602 261.275L96.2583 263.343C96.2583 263.53 96.0951 263.674 95.9116 263.674C95.8504 263.674 95.8096 263.654 95.7485 263.633L94.0559 262.413C94.5861 261.895 95.2387 261.523 95.9524 261.358ZM93.4646 263.178L94.9736 264.543C95.1163 264.667 95.1367 264.874 95.0144 265.019C94.9736 265.081 94.9328 265.102 94.8512 265.122L92.8732 265.702C92.812 264.833 93.0159 263.943 93.4646 263.178ZM93.1179 266.674L95.1367 266.322C95.2998 266.322 95.463 266.426 95.4834 266.591C95.5038 266.653 95.5038 266.736 95.463 266.798L94.6881 268.701C93.9744 268.225 93.4034 267.501 93.1179 266.674ZM97.7469 269.239C97.4614 269.301 97.1759 269.342 96.87 269.342C96.4418 269.342 95.9932 269.26 95.5853 269.135L96.5845 267.294C96.6865 267.17 96.8496 267.129 96.9924 267.212C97.0536 267.253 97.0943 267.294 97.1555 267.356L98.1343 269.156C98.012 269.177 97.8896 269.198 97.7469 269.239ZM100.235 267.439C99.9289 267.936 99.5006 268.37 99.0112 268.68L98.2159 266.736C98.1751 266.57 98.2567 266.405 98.3994 266.343C98.4606 266.322 98.5218 266.301 98.583 266.301L100.622 266.653C100.52 266.943 100.398 267.212 100.235 267.439Z" fill="white"/>
<path d="M122.24 264.24L127.184 258.8H125.36L120.688 263.856V258.8H119.2V270H120.688V264.624L125.52 270H127.344L122.24 264.24ZM133.732 266.24C133.732 268.032 132.804 268.88 131.412 268.88C130.18 268.88 129.428 268.128 129.428 266.832V262H128.036V266.912C128.036 268.944 129.268 270.208 131.14 270.208C132.308 270.208 133.172 269.76 133.732 268.848V270H135.124V262H133.732V266.24ZM141.66 261.792C140.332 261.792 139.324 262.32 138.636 263.376V258.8H137.243V270H138.636V268.624C139.324 269.68 140.332 270.208 141.66 270.208C142.78 270.208 143.74 269.808 144.524 268.992C145.308 268.176 145.708 267.168 145.708 266C145.708 264.832 145.308 263.84 144.524 263.024C143.74 262.208 142.78 261.792 141.66 261.792ZM141.484 268.864C140.668 268.864 139.996 268.592 139.452 268.048C138.908 267.488 138.636 266.816 138.636 266C138.636 265.184 138.908 264.512 139.452 263.968C139.996 263.408 140.668 263.136 141.484 263.136C142.284 263.136 142.956 263.408 143.5 263.968C144.044 264.512 144.316 265.184 144.316 266C144.316 266.816 144.044 267.488 143.5 268.048C142.956 268.592 142.284 268.864 141.484 268.864ZM155.049 266.64C155.081 266.432 155.097 266.224 155.097 266.016C155.097 264.848 154.729 263.856 153.977 263.04C153.241 262.208 152.281 261.792 151.113 261.792C149.881 261.792 148.873 262.192 148.089 262.992C147.305 263.792 146.921 264.8 146.921 266C146.921 267.216 147.321 268.224 148.105 269.024C148.905 269.808 149.945 270.208 151.209 270.208C152.777 270.208 153.945 269.6 154.729 268.4L153.545 267.728C153.065 268.512 152.297 268.896 151.241 268.896C149.721 268.896 148.617 268.064 148.345 266.64H155.049ZM151.113 263.104C152.393 263.104 153.449 263.904 153.689 265.424H148.345C148.585 264.016 149.625 263.104 151.113 263.104ZM158.089 262H156.697V270H158.089V265.76C158.089 264.88 158.329 264.256 158.825 263.856C159.321 263.456 159.897 263.28 160.585 263.312V261.856C159.385 261.856 158.553 262.352 158.089 263.344V262ZM165.931 261.792C164.763 261.792 163.899 262.24 163.339 263.152V262H161.947V270H163.339V265.76C163.339 263.968 164.267 263.12 165.659 263.12C166.891 263.12 167.643 263.872 167.643 265.168V270H169.035V265.088C169.035 263.056 167.803 261.792 165.931 261.792ZM178.658 266.64C178.69 266.432 178.706 266.224 178.706 266.016C178.706 264.848 178.338 263.856 177.586 263.04C176.85 262.208 175.89 261.792 174.722 261.792C173.49 261.792 172.482 262.192 171.698 262.992C170.914 263.792 170.53 264.8 170.53 266C170.53 267.216 170.93 268.224 171.714 269.024C172.514 269.808 173.554 270.208 174.818 270.208C176.386 270.208 177.554 269.6 178.338 268.4L177.154 267.728C176.674 268.512 175.906 268.896 174.85 268.896C173.33 268.896 172.226 268.064 171.954 266.64H178.658ZM174.722 263.104C176.002 263.104 177.058 263.904 177.298 265.424H171.954C172.194 264.016 173.234 263.104 174.722 263.104ZM184.424 262H182.296V259.76L180.904 260.176V262H179.32V263.344H180.904V267.68C180.904 269.664 181.992 270.32 184.424 270V268.752C183 268.816 182.296 268.912 182.296 267.68V263.344H184.424V262ZM193.345 266.64C193.377 266.432 193.393 266.224 193.393 266.016C193.393 264.848 193.025 263.856 192.273 263.04C191.537 262.208 190.577 261.792 189.409 261.792C188.177 261.792 187.169 262.192 186.385 262.992C185.601 263.792 185.217 264.8 185.217 266C185.217 267.216 185.617 268.224 186.401 269.024C187.201 269.808 188.241 270.208 189.505 270.208C191.073 270.208 192.241 269.6 193.025 268.4L191.841 267.728C191.361 268.512 190.593 268.896 189.537 268.896C188.017 268.896 186.913 268.064 186.641 266.64H193.345ZM189.409 263.104C190.689 263.104 191.745 263.904 191.985 265.424H186.641C186.881 264.016 187.921 263.104 189.409 263.104ZM195.881 264.16C195.881 263.472 196.521 263.088 197.305 263.088C198.153 263.088 198.729 263.424 199.017 264.112L200.185 263.456C199.673 262.416 198.601 261.792 197.305 261.792C196.489 261.792 195.817 262.016 195.273 262.464C194.745 262.912 194.473 263.488 194.473 264.176C194.473 265.872 196.105 266.288 197.369 266.624C198.249 266.832 198.953 267.184 198.953 267.808C198.953 268.56 198.281 268.896 197.369 268.896C196.393 268.896 195.641 268.416 195.385 267.648L194.185 268.336C194.649 269.472 195.817 270.208 197.369 270.208C198.249 270.208 198.953 269.984 199.513 269.552C200.073 269.12 200.361 268.528 200.361 267.808C200.377 266.096 198.713 265.632 197.465 265.36C196.585 265.12 195.881 264.784 195.881 264.16ZM213.689 267.952C214.121 267.248 214.409 266.448 214.553 265.568L213.273 264.832C213.161 265.632 212.969 266.304 212.697 266.864L209.641 263.6C208.985 262.896 208.649 262.4 208.649 261.696C208.649 260.72 209.465 260.032 210.489 260.032C211.449 260.032 212.233 260.624 212.553 261.6L213.801 260.88C213.273 259.456 211.945 258.592 210.457 258.592C209.545 258.592 208.777 258.88 208.121 259.456C207.481 260.032 207.161 260.784 207.161 261.712C207.161 262.464 207.401 263.136 207.881 263.744C206.537 264.4 205.833 265.616 205.833 266.976C205.833 267.968 206.185 268.752 206.873 269.344C207.561 269.92 208.473 270.208 209.593 270.208C210.889 270.208 211.961 269.824 212.793 269.04L213.929 270.256L215.177 269.536L213.689 267.952ZM209.625 268.8C208.169 268.8 207.321 268.08 207.321 266.88C207.321 266.032 207.785 265.2 208.809 264.768L211.833 268.016C211.241 268.544 210.505 268.8 209.625 268.8ZM220.747 258.8V270H222.235V266H224.811C225.851 266 226.699 265.648 227.387 264.96C228.075 264.272 228.427 263.408 228.427 262.4C228.427 261.376 228.075 260.528 227.387 259.84C226.699 259.152 225.851 258.8 224.811 258.8H220.747ZM222.235 264.608V260.192H224.811C226.043 260.192 226.955 261.12 226.955 262.4C226.955 263.024 226.747 263.552 226.347 263.984C225.947 264.4 225.435 264.608 224.811 264.608H222.235ZM235.56 266.24C235.56 268.032 234.632 268.88 233.24 268.88C232.008 268.88 231.256 268.128 231.256 266.832V262H229.864V266.912C229.864 268.944 231.096 270.208 232.968 270.208C234.136 270.208 235 269.76 235.56 268.848V270H236.952V262H235.56V266.24ZM240.464 270V258.32H239.072V270H240.464ZM248.107 266.24C248.107 268.032 247.179 268.88 245.787 268.88C244.555 268.88 243.803 268.128 243.803 266.832V262H242.411V266.912C242.411 268.944 243.643 270.208 245.515 270.208C246.683 270.208 247.547 269.76 248.107 268.848V270H249.499V262H248.107V266.24ZM260.259 261.792C259.139 261.792 258.307 262.24 257.747 263.152C257.251 262.24 256.467 261.792 255.395 261.792C254.355 261.792 253.555 262.224 253.011 263.072V262H251.618V270H253.011V265.552C253.011 263.936 253.891 263.12 255.059 263.12C256.099 263.12 256.755 263.84 256.755 265.072V270H258.147V265.552C258.147 263.904 258.915 263.12 260.115 263.12C261.187 263.12 261.875 263.84 261.875 265.072V270H263.267V265.024C263.267 263.04 262.051 261.792 260.259 261.792ZM265.901 260.544C266.413 260.544 266.829 260.128 266.829 259.616C266.829 259.104 266.413 258.672 265.901 258.672C265.373 258.672 264.957 259.104 264.957 259.616C264.957 260.128 265.373 260.544 265.901 260.544ZM266.589 270V262H265.197V270H266.589Z" fill="black"/>
</g>
<defs>
<filter id="filter0_d" x="0" y="0" width="667" height="497" filterUnits="userSpaceOnUse" color-interpolation-filters="sRGB">
<feFlood flood-opacity="0" result="BackgroundImageFix"/>
<feColorMatrix in="SourceAlpha" type="matrix" values="0 0 0 0 0 0 0 0 0 0 0 0 0 0 0 0 0 0 127 0" result="hardAlpha"/>
<feOffset dy="6"/>
<feGaussianBlur stdDeviation="18"/>
<feColorMatrix type="matrix" values="0 0 0 0 0 0 0 0 0 0 0 0 0 0 0 0 0 0 0.1 0"/>
<feBlend mode="normal" in2="BackgroundImageFix" result="effect1_dropShadow"/>
<feBlend mode="normal" in="SourceGraphic" in2="effect1_dropShadow" result="shape"/>
</filter>
<linearGradient id="paint0_linear" x1="95.9459" y1="183.282" x2="90.4349" y2="199.563" gradientUnits="userSpaceOnUse">
<stop stop-color="#114A8B"/>
<stop offset="1" stop-color="#0669BC"/>
</linearGradient>
<linearGradient id="paint1_linear" x1="97.6675" y1="190.869" x2="96.3926" y2="191.3" gradientUnits="userSpaceOnUse">
<stop stop-opacity="0.3"/>
<stop offset="0.071" stop-opacity="0.2"/>
<stop offset="0.321" stop-opacity="0.1"/>
<stop offset="0.623" stop-opacity="0.05"/>
<stop offset="1" stop-opacity="0"/>
</linearGradient>
<linearGradient id="paint2_linear" x1="96.9664" y1="182.807" x2="103.016" y2="198.924" gradientUnits="userSpaceOnUse">
<stop stop-color="#3CCBF4"/>
<stop offset="1" stop-color="#2892DF"/>
</linearGradient>
<clipPath id="clip0">
<rect width="18" height="16.9565" fill="white" transform="translate(88 182)"/>
</clipPath>
</defs>
</svg>
