<svg width="668" height="497" viewBox="0 0 668 497" fill="none" xmlns="http://www.w3.org/2000/svg">
<g filter="url(#filter0_d)">
<rect x="36" y="30" width="596" height="425" rx="6" fill="white"/>
<path d="M328 91L328 393" stroke="black"/>
<circle cx="328" cy="91" r="5" fill="black"/>
<circle cx="328" cy="210" r="5" fill="black"/>
<circle cx="328" cy="328" r="5" fill="black"/>
<circle cx="328" cy="393" r="5" fill="black"/>
<rect x="345" y="66" width="251" height="51" rx="6" fill="#FEF9EA"/>
<path fill-rule="evenodd" clip-rule="evenodd" d="M363.732 91.4192C364.357 91.0579 364.358 89.8882 363.734 88.8065C363.109 87.7248 362.096 87.1409 361.47 87.5022C360.844 87.8635 360.843 89.0333 361.468 90.1149C362.092 91.1966 363.106 91.7806 363.732 91.4192ZM363.735 93.7354C364.36 94.8171 364.359 95.9868 363.733 96.3481C363.107 96.7094 362.094 96.1255 361.469 95.0438C360.845 93.9622 360.846 92.7924 361.471 92.4311C362.097 92.0698 363.111 92.6537 363.735 93.7354ZM368 96.201C368.624 97.2826 368.623 98.4524 367.998 98.8137C367.372 99.175 366.358 98.5911 365.734 97.5094C365.109 96.4278 365.11 95.258 365.736 94.8967C366.362 94.5354 367.375 95.1193 368 96.201ZM367.999 91.2722C368.623 92.3539 368.622 93.5236 367.996 93.885C367.37 94.2463 366.357 93.6623 365.732 92.5807C365.108 91.499 365.109 90.3292 365.735 89.9679C366.36 89.6066 367.374 90.1906 367.999 91.2722Z" fill="#F26E7E"/>
<path fill-rule="evenodd" clip-rule="evenodd" d="M376.53 90.1176C377.154 89.036 377.153 87.8662 376.528 87.5049C375.902 87.1436 374.888 87.7275 374.264 88.8092C373.639 89.8908 373.64 91.0606 374.266 91.4219C374.892 91.7832 375.905 91.1993 376.53 90.1176ZM376.53 92.4325C377.156 92.7938 377.157 93.9636 376.532 95.0452C375.908 96.1269 374.894 96.7109 374.268 96.3495C373.643 95.9882 373.642 94.8185 374.266 93.7368C374.891 92.6551 375.904 92.0712 376.53 92.4325ZM372.266 94.8941C372.892 95.2554 372.893 96.4252 372.269 97.5068C371.644 98.5885 370.63 99.1725 370.005 98.8111C369.379 98.4498 369.378 97.2801 370.002 96.1984C370.627 95.1168 371.64 94.5328 372.266 94.8941ZM372.264 89.9664C372.89 90.3277 372.891 91.4975 372.266 92.5791C371.642 93.6608 370.628 94.2447 370.002 93.8834C369.376 93.5221 369.375 92.3524 370 91.2707C370.624 90.189 371.638 89.6051 372.264 89.9664Z" fill="#8A3391"/>
<path fill-rule="evenodd" clip-rule="evenodd" d="M371.26 83.3084C371.26 84.0311 370.247 84.6169 368.998 84.6169C367.749 84.6169 366.736 84.0311 366.736 83.3084C366.736 82.5858 367.749 82 368.998 82C370.247 82 371.26 82.5858 371.26 83.3084ZM366.996 85.7675C366.996 86.4901 365.983 87.0759 364.734 87.0759C363.485 87.0759 362.473 86.4901 362.473 85.7675C362.473 85.0448 363.485 84.459 364.734 84.459C365.983 84.459 366.996 85.0448 366.996 85.7675ZM373.267 87.0759C374.516 87.0759 375.529 86.4901 375.529 85.7675C375.529 85.0448 374.516 84.459 373.267 84.459C372.018 84.459 371.006 85.0448 371.006 85.7675C371.006 86.4901 372.018 87.0759 373.267 87.0759ZM371.26 88.2319C371.26 88.9546 370.247 89.5404 368.998 89.5404C367.749 89.5404 366.736 88.9546 366.736 88.2319C366.736 87.5093 367.749 86.9235 368.998 86.9235C370.247 86.9235 371.26 87.5093 371.26 88.2319Z" fill="#F7BF2A"/>
<path d="M390.2 84.8V96H391.688V92H394.264C395.304 92 396.152 91.648 396.84 90.96C397.528 90.272 397.88 89.408 397.88 88.4C397.88 87.376 397.528 86.528 396.84 85.84C396.152 85.152 395.304 84.8 394.264 84.8H390.2ZM391.688 90.608V86.192H394.264C395.496 86.192 396.408 87.12 396.408 88.4C396.408 89.024 396.2 89.552 395.8 89.984C395.4 90.4 394.888 90.608 394.264 90.608H391.688ZM405.014 92.24C405.014 94.032 404.086 94.88 402.694 94.88C401.462 94.88 400.71 94.128 400.71 92.832V88H399.318V92.912C399.318 94.944 400.549 96.208 402.422 96.208C403.59 96.208 404.454 95.76 405.014 94.848V96H406.406V88H405.014V92.24ZM409.917 96V84.32H408.525V96H409.917ZM417.56 92.24C417.56 94.032 416.632 94.88 415.24 94.88C414.008 94.88 413.256 94.128 413.256 92.832V88H411.864V92.912C411.864 94.944 413.096 96.208 414.968 96.208C416.136 96.208 417 95.76 417.56 94.848V96H418.952V88H417.56V92.24ZM429.712 87.792C428.592 87.792 427.76 88.24 427.2 89.152C426.704 88.24 425.92 87.792 424.848 87.792C423.808 87.792 423.008 88.224 422.464 89.072V88H421.072V96H422.464V91.552C422.464 89.936 423.344 89.12 424.512 89.12C425.552 89.12 426.208 89.84 426.208 91.072V96H427.6V91.552C427.6 89.904 428.368 89.12 429.568 89.12C430.64 89.12 431.328 89.84 431.328 91.072V96H432.72V91.024C432.72 89.04 431.504 87.792 429.712 87.792ZM435.354 86.544C435.866 86.544 436.282 86.128 436.282 85.616C436.282 85.104 435.866 84.672 435.354 84.672C434.826 84.672 434.41 85.104 434.41 85.616C434.41 86.128 434.826 86.544 435.354 86.544ZM436.042 96V88H434.65V96H436.042ZM445.925 96.208C447.477 96.208 448.837 95.392 449.525 94.128L448.341 93.44C447.893 94.288 446.997 94.832 445.925 94.832C445.125 94.832 444.453 94.56 443.909 94.016C443.381 93.472 443.109 92.8 443.109 92C443.109 91.184 443.381 90.512 443.909 89.968C444.453 89.424 445.125 89.152 445.925 89.152C446.997 89.152 447.893 89.712 448.293 90.56L449.461 89.888C448.837 88.608 447.509 87.792 445.925 87.792C444.725 87.792 443.717 88.192 442.917 89.008C442.117 89.808 441.717 90.8 441.717 92C441.717 93.2 442.117 94.192 442.917 95.008C443.717 95.808 444.725 96.208 445.925 96.208ZM457.542 94.992C458.358 94.176 458.774 93.184 458.774 92C458.774 90.816 458.358 89.824 457.542 89.008C456.726 88.192 455.718 87.792 454.55 87.792C453.382 87.792 452.374 88.192 451.558 89.008C450.742 89.824 450.342 90.816 450.342 92C450.342 93.184 450.742 94.176 451.558 94.992C452.374 95.808 453.382 96.208 454.55 96.208C455.718 96.208 456.726 95.808 457.542 94.992ZM454.55 94.848C453.766 94.848 453.094 94.576 452.55 94.032C452.006 93.488 451.734 92.816 451.734 92C451.734 91.184 452.006 90.512 452.55 89.968C453.094 89.424 453.766 89.152 454.55 89.152C455.35 89.152 456.022 89.424 456.566 89.968C457.11 90.512 457.382 91.184 457.382 92C457.382 92.816 457.11 93.488 456.566 94.032C456.022 94.576 455.35 94.848 454.55 94.848ZM461.807 88H460.415V96H461.807V91.76C461.807 90.88 462.047 90.256 462.543 89.856C463.039 89.456 463.615 89.28 464.303 89.312V87.856C463.103 87.856 462.271 88.352 461.807 89.344V88ZM472.908 92.64C472.94 92.432 472.956 92.224 472.956 92.016C472.956 90.848 472.588 89.856 471.836 89.04C471.1 88.208 470.14 87.792 468.972 87.792C467.74 87.792 466.732 88.192 465.948 88.992C465.164 89.792 464.78 90.8 464.78 92C464.78 93.216 465.18 94.224 465.964 95.024C466.764 95.808 467.804 96.208 469.068 96.208C470.636 96.208 471.804 95.6 472.588 94.4L471.404 93.728C470.924 94.512 470.156 94.896 469.1 94.896C467.58 94.896 466.476 94.064 466.204 92.64H472.908ZM468.972 89.104C470.252 89.104 471.308 89.904 471.548 91.424H466.204C466.444 90.016 467.484 89.104 468.972 89.104ZM482.668 84.592C480.412 84.448 479.164 85.6 479.164 87.76V88H477.884V89.344H479.164V96H480.556V89.344H482.668V88H480.556V87.76C480.556 86.432 481.26 85.824 482.668 85.936V84.592ZM489.248 92.24C489.248 94.032 488.32 94.88 486.928 94.88C485.696 94.88 484.944 94.128 484.944 92.832V88H483.552V92.912C483.552 94.944 484.784 96.208 486.656 96.208C487.824 96.208 488.688 95.76 489.248 94.848V96H490.64V88H489.248V92.24ZM496.743 87.792C495.575 87.792 494.711 88.24 494.151 89.152V88H492.759V96H494.151V91.76C494.151 89.968 495.079 89.12 496.471 89.12C497.703 89.12 498.455 89.872 498.455 91.168V96H499.847V91.088C499.847 89.056 498.615 87.792 496.743 87.792ZM508.414 89.376C507.726 88.32 506.718 87.792 505.39 87.792C504.27 87.792 503.31 88.208 502.526 89.024C501.742 89.84 501.342 90.832 501.342 92C501.342 93.168 501.742 94.176 502.526 94.992C503.31 95.808 504.27 96.208 505.39 96.208C506.718 96.208 507.726 95.68 508.414 94.624V96H509.806V84.8H508.414V89.376ZM505.566 94.864C504.766 94.864 504.094 94.592 503.55 94.048C503.006 93.488 502.734 92.816 502.734 92C502.734 91.184 503.006 90.512 503.55 89.968C504.094 89.408 504.766 89.136 505.566 89.136C506.382 89.136 507.054 89.408 507.598 89.968C508.142 90.512 508.414 91.184 508.414 92C508.414 92.816 508.142 93.488 507.598 94.048C507.054 94.592 506.382 94.864 505.566 94.864ZM518.539 89.376C517.851 88.32 516.843 87.792 515.515 87.792C514.395 87.792 513.435 88.208 512.651 89.024C511.867 89.84 511.467 90.832 511.467 92C511.467 93.168 511.867 94.176 512.651 94.992C513.435 95.808 514.395 96.208 515.515 96.208C516.843 96.208 517.851 95.68 518.539 94.624V96H519.931V88H518.539V89.376ZM515.691 94.864C514.891 94.864 514.219 94.592 513.675 94.048C513.131 93.488 512.859 92.816 512.859 92C512.859 91.184 513.131 90.512 513.675 89.968C514.219 89.408 514.891 89.136 515.691 89.136C516.507 89.136 517.179 89.408 517.723 89.968C518.267 90.512 518.539 91.184 518.539 92C518.539 92.816 518.267 93.488 517.723 94.048C517.179 94.592 516.507 94.864 515.691 94.864ZM530.68 87.792C529.56 87.792 528.728 88.24 528.168 89.152C527.672 88.24 526.888 87.792 525.816 87.792C524.776 87.792 523.976 88.224 523.432 89.072V88H522.04V96H523.432V91.552C523.432 89.936 524.312 89.12 525.48 89.12C526.52 89.12 527.176 89.84 527.176 91.072V96H528.568V91.552C528.568 89.904 529.336 89.12 530.536 89.12C531.608 89.12 532.296 89.84 532.296 91.072V96H533.688V91.024C533.688 89.04 532.472 87.792 530.68 87.792ZM543.299 92.64C543.331 92.432 543.347 92.224 543.347 92.016C543.347 90.848 542.979 89.856 542.227 89.04C541.491 88.208 540.531 87.792 539.363 87.792C538.131 87.792 537.123 88.192 536.339 88.992C535.555 89.792 535.171 90.8 535.171 92C535.171 93.216 535.571 94.224 536.355 95.024C537.155 95.808 538.195 96.208 539.459 96.208C541.027 96.208 542.195 95.6 542.979 94.4L541.795 93.728C541.315 94.512 540.547 94.896 539.491 94.896C537.971 94.896 536.867 94.064 536.595 92.64H543.299ZM539.363 89.104C540.643 89.104 541.699 89.904 541.939 91.424H536.595C536.835 90.016 537.875 89.104 539.363 89.104ZM548.931 87.792C547.763 87.792 546.899 88.24 546.339 89.152V88H544.947V96H546.339V91.76C546.339 89.968 547.267 89.12 548.659 89.12C549.891 89.12 550.643 89.872 550.643 91.168V96H552.035V91.088C552.035 89.056 550.803 87.792 548.931 87.792ZM558.33 88H556.202V85.76L554.81 86.176V88H553.226V89.344H554.81V93.68C554.81 95.664 555.898 96.32 558.33 96V94.752C556.906 94.816 556.202 94.912 556.202 93.68V89.344H558.33V88ZM566.196 89.376C565.508 88.32 564.5 87.792 563.172 87.792C562.052 87.792 561.092 88.208 560.308 89.024C559.524 89.84 559.124 90.832 559.124 92C559.124 93.168 559.524 94.176 560.308 94.992C561.092 95.808 562.052 96.208 563.172 96.208C564.5 96.208 565.508 95.68 566.196 94.624V96H567.588V88H566.196V89.376ZM563.348 94.864C562.548 94.864 561.876 94.592 561.332 94.048C560.788 93.488 560.516 92.816 560.516 92C560.516 91.184 560.788 90.512 561.332 89.968C561.876 89.408 562.548 89.136 563.348 89.136C564.164 89.136 564.836 89.408 565.38 89.968C565.924 90.512 566.196 91.184 566.196 92C566.196 92.816 565.924 93.488 565.38 94.048C564.836 94.592 564.164 94.864 563.348 94.864ZM571.089 96V84.32H569.697V96H571.089ZM574.397 90.16C574.397 89.472 575.037 89.088 575.821 89.088C576.669 89.088 577.245 89.424 577.533 90.112L578.701 89.456C578.189 88.416 577.117 87.792 575.821 87.792C575.005 87.792 574.333 88.016 573.789 88.464C573.261 88.912 572.989 89.488 572.989 90.176C572.989 91.872 574.621 92.288 575.885 92.624C576.765 92.832 577.469 93.184 577.469 93.808C577.469 94.56 576.797 94.896 575.885 94.896C574.909 94.896 574.157 94.416 573.901 93.648L572.701 94.336C573.165 95.472 574.333 96.208 575.885 96.208C576.765 96.208 577.469 95.984 578.029 95.552C578.589 95.12 578.877 94.528 578.877 93.808C578.893 92.096 577.229 91.632 575.981 91.36C575.101 91.12 574.397 90.784 574.397 90.16Z" fill="black"/>
<rect x="72" y="368" width="239" height="51" rx="6" fill="#F3EBF4"/>
<path d="M100.495 387.39L102.617 389.512L100.495 391.635L98.3725 389.512L100.495 387.39V387.39ZM94.75 387.75V390.75H91.75V387.75H94.75ZM102.25 395.25V398.25H99.25V395.25H102.25ZM94.75 395.25V398.25H91.75V395.25H94.75ZM100.495 385.267L96.25 389.505L100.495 393.75L104.74 389.505L100.495 385.267ZM96.25 386.25H90.25V392.25H96.25V386.25ZM103.75 393.75H97.75V399.75H103.75V393.75ZM96.25 393.75H90.25V399.75H96.25V393.75Z" fill="#8A3391"/>
<path d="M128.109 386.8L124.557 392.72L120.989 386.8H119.309V398H120.797V389.264L124.461 395.344H124.653L128.317 389.248V398H129.789V386.8H128.109ZM138.664 391.376C137.976 390.32 136.968 389.792 135.64 389.792C134.52 389.792 133.56 390.208 132.776 391.024C131.992 391.84 131.592 392.832 131.592 394C131.592 395.168 131.992 396.176 132.776 396.992C133.56 397.808 134.52 398.208 135.64 398.208C136.968 398.208 137.976 397.68 138.664 396.624V398H140.056V390H138.664V391.376ZM135.816 396.864C135.016 396.864 134.344 396.592 133.8 396.048C133.256 395.488 132.984 394.816 132.984 394C132.984 393.184 133.256 392.512 133.8 391.968C134.344 391.408 135.016 391.136 135.816 391.136C136.632 391.136 137.304 391.408 137.848 391.968C138.392 392.512 138.664 393.184 138.664 394C138.664 394.816 138.392 395.488 137.848 396.048C137.304 396.592 136.632 396.864 135.816 396.864ZM146.149 389.792C144.981 389.792 144.117 390.24 143.557 391.152V390H142.165V398H143.557V393.76C143.557 391.968 144.485 391.12 145.877 391.12C147.109 391.12 147.861 391.872 147.861 393.168V398H149.253V393.088C149.253 391.056 148.021 389.792 146.149 389.792ZM157.821 391.376C157.133 390.32 156.125 389.792 154.797 389.792C153.677 389.792 152.717 390.208 151.933 391.024C151.149 391.84 150.749 392.832 150.749 394C150.749 395.168 151.149 396.176 151.933 396.992C152.717 397.808 153.677 398.208 154.797 398.208C156.125 398.208 157.133 397.68 157.821 396.624V398H159.213V390H157.821V391.376ZM154.973 396.864C154.173 396.864 153.501 396.592 152.957 396.048C152.413 395.488 152.141 394.816 152.141 394C152.141 393.184 152.413 392.512 152.957 391.968C153.501 391.408 154.173 391.136 154.973 391.136C155.789 391.136 156.461 391.408 157.005 391.968C157.549 392.512 157.821 393.184 157.821 394C157.821 394.816 157.549 395.488 157.005 396.048C156.461 396.592 155.789 396.864 154.973 396.864ZM167.962 391.376C167.274 390.32 166.266 389.792 164.954 389.792C163.818 389.792 162.842 390.192 162.058 391.008C161.274 391.808 160.874 392.784 160.874 393.952C160.874 395.12 161.274 396.096 162.058 396.912C162.842 397.728 163.818 398.128 164.954 398.128C166.25 398.128 167.258 397.6 167.962 396.528V397.664C167.962 399.184 166.954 400.112 165.29 400.112C163.994 400.112 163.114 399.664 162.682 398.768L161.466 399.456C162.122 400.72 163.466 401.408 165.258 401.408C166.378 401.408 167.338 401.072 168.138 400.416C168.938 399.76 169.338 398.848 169.338 397.664V390H167.962V391.376ZM167.962 393.952C167.962 394.768 167.69 395.44 167.146 395.984C166.602 396.528 165.93 396.8 165.114 396.8C164.298 396.8 163.626 396.528 163.082 395.984C162.538 395.44 162.266 394.768 162.266 393.952C162.266 393.152 162.538 392.48 163.082 391.936C163.626 391.392 164.298 391.12 165.114 391.12C165.93 391.12 166.602 391.392 167.146 391.936C167.69 392.48 167.962 393.152 167.962 393.952ZM172.151 388.544C172.663 388.544 173.079 388.128 173.079 387.616C173.079 387.104 172.663 386.672 172.151 386.672C171.623 386.672 171.207 387.104 171.207 387.616C171.207 388.128 171.623 388.544 172.151 388.544ZM172.839 398V390H171.447V398H172.839ZM178.946 389.792C177.778 389.792 176.914 390.24 176.354 391.152V390H174.962V398H176.354V393.76C176.354 391.968 177.282 391.12 178.674 391.12C179.906 391.12 180.658 391.872 180.658 393.168V398H182.05V393.088C182.05 391.056 180.818 389.792 178.946 389.792ZM190.634 391.376C189.946 390.32 188.938 389.792 187.626 389.792C186.49 389.792 185.514 390.192 184.73 391.008C183.946 391.808 183.546 392.784 183.546 393.952C183.546 395.12 183.946 396.096 184.73 396.912C185.514 397.728 186.49 398.128 187.626 398.128C188.922 398.128 189.93 397.6 190.634 396.528V397.664C190.634 399.184 189.626 400.112 187.962 400.112C186.666 400.112 185.786 399.664 185.354 398.768L184.138 399.456C184.794 400.72 186.138 401.408 187.93 401.408C189.05 401.408 190.01 401.072 190.81 400.416C191.61 399.76 192.01 398.848 192.01 397.664V390H190.634V391.376ZM190.634 393.952C190.634 394.768 190.362 395.44 189.818 395.984C189.274 396.528 188.602 396.8 187.786 396.8C186.97 396.8 186.298 396.528 185.754 395.984C185.21 395.44 184.938 394.768 184.938 393.952C184.938 393.152 185.21 392.48 185.754 391.936C186.298 391.392 186.97 391.12 187.786 391.12C188.602 391.12 189.274 391.392 189.818 391.936C190.362 392.48 190.634 393.152 190.634 393.952ZM198.823 388.544C199.335 388.544 199.751 388.128 199.751 387.616C199.751 387.104 199.335 386.672 198.823 386.672C198.295 386.672 197.879 387.104 197.879 387.616C197.879 388.128 198.295 388.544 198.823 388.544ZM199.511 398V390H198.118V398H199.511ZM205.618 389.792C204.45 389.792 203.586 390.24 203.026 391.152V390H201.634V398H203.026V393.76C203.026 391.968 203.954 391.12 205.346 391.12C206.578 391.12 207.33 391.872 207.33 393.168V398H208.722V393.088C208.722 391.056 207.49 389.792 205.618 389.792ZM214.777 386.592C212.521 386.448 211.273 387.6 211.273 389.76V390H209.993V391.344H211.273V398H212.665V391.344H214.777V390H212.665V389.76C212.665 388.432 213.369 387.824 214.777 387.936V386.592ZM217.229 390H215.837V398H217.229V393.76C217.229 392.88 217.469 392.256 217.965 391.856C218.461 391.456 219.037 391.28 219.725 391.312V389.856C218.525 389.856 217.693 390.352 217.229 391.344V390ZM227.274 391.376C226.586 390.32 225.578 389.792 224.25 389.792C223.13 389.792 222.17 390.208 221.386 391.024C220.602 391.84 220.202 392.832 220.202 394C220.202 395.168 220.602 396.176 221.386 396.992C222.17 397.808 223.13 398.208 224.25 398.208C225.578 398.208 226.586 397.68 227.274 396.624V398H228.666V390H227.274V391.376ZM224.426 396.864C223.626 396.864 222.954 396.592 222.41 396.048C221.866 395.488 221.594 394.816 221.594 394C221.594 393.184 221.866 392.512 222.41 391.968C222.954 391.408 223.626 391.136 224.426 391.136C225.242 391.136 225.914 391.408 226.458 391.968C227.002 392.512 227.274 393.184 227.274 394C227.274 394.816 227.002 395.488 226.458 396.048C225.914 396.592 225.242 396.864 224.426 396.864ZM231.959 392.16C231.959 391.472 232.599 391.088 233.383 391.088C234.231 391.088 234.807 391.424 235.095 392.112L236.263 391.456C235.751 390.416 234.679 389.792 233.383 389.792C232.567 389.792 231.895 390.016 231.351 390.464C230.823 390.912 230.551 391.488 230.551 392.176C230.551 393.872 232.183 394.288 233.447 394.624C234.327 394.832 235.031 395.184 235.031 395.808C235.031 396.56 234.359 396.896 233.447 396.896C232.471 396.896 231.719 396.416 231.463 395.648L230.263 396.336C230.727 397.472 231.895 398.208 233.447 398.208C234.327 398.208 235.031 397.984 235.591 397.552C236.151 397.12 236.439 396.528 236.439 395.808C236.455 394.096 234.791 393.632 233.543 393.36C232.663 393.12 231.959 392.784 231.959 392.16ZM242.127 390H239.999V387.76L238.607 388.176V390H237.023V391.344H238.607V395.68C238.607 397.664 239.695 398.32 242.127 398V396.752C240.703 396.816 239.999 396.912 239.999 395.68V391.344H242.127V390ZM245.214 390H243.822V398H245.214V393.76C245.214 392.88 245.454 392.256 245.95 391.856C246.446 391.456 247.022 391.28 247.71 391.312V389.856C246.51 389.856 245.678 390.352 245.214 391.344V390ZM254.592 394.24C254.592 396.032 253.664 396.88 252.272 396.88C251.04 396.88 250.288 396.128 250.288 394.832V390H248.896V394.912C248.896 396.944 250.128 398.208 252 398.208C253.168 398.208 254.032 397.76 254.592 396.848V398H255.984V390H254.592V394.24ZM261.863 398.208C263.415 398.208 264.775 397.392 265.463 396.128L264.279 395.44C263.831 396.288 262.935 396.832 261.863 396.832C261.063 396.832 260.391 396.56 259.847 396.016C259.319 395.472 259.047 394.8 259.047 394C259.047 393.184 259.319 392.512 259.847 391.968C260.391 391.424 261.063 391.152 261.863 391.152C262.935 391.152 263.831 391.712 264.231 392.56L265.399 391.888C264.775 390.608 263.447 389.792 261.863 389.792C260.663 389.792 259.655 390.192 258.855 391.008C258.055 391.808 257.655 392.8 257.655 394C257.655 395.2 258.055 396.192 258.855 397.008C259.655 397.808 260.663 398.208 261.863 398.208ZM271.189 390H269.061V387.76L267.669 388.176V390H266.085V391.344H267.669V395.68C267.669 397.664 268.757 398.32 271.189 398V396.752C269.765 396.816 269.061 396.912 269.061 395.68V391.344H271.189V390ZM278.404 394.24C278.404 396.032 277.476 396.88 276.084 396.88C274.852 396.88 274.1 396.128 274.1 394.832V390H272.708V394.912C272.708 396.944 273.94 398.208 275.812 398.208C276.98 398.208 277.844 397.76 278.404 396.848V398H279.796V390H278.404V394.24ZM283.307 390H281.915V398H283.307V393.76C283.307 392.88 283.547 392.256 284.043 391.856C284.539 391.456 285.115 391.28 285.803 391.312V389.856C284.603 389.856 283.771 390.352 283.307 391.344V390ZM294.408 394.64C294.44 394.432 294.456 394.224 294.456 394.016C294.456 392.848 294.088 391.856 293.336 391.04C292.6 390.208 291.64 389.792 290.472 389.792C289.24 389.792 288.232 390.192 287.448 390.992C286.664 391.792 286.28 392.8 286.28 394C286.28 395.216 286.68 396.224 287.464 397.024C288.264 397.808 289.304 398.208 290.568 398.208C292.136 398.208 293.304 397.6 294.088 396.4L292.904 395.728C292.424 396.512 291.656 396.896 290.6 396.896C289.08 396.896 287.976 396.064 287.704 394.64H294.408ZM290.472 391.104C291.752 391.104 292.808 391.904 293.048 393.424H287.704C287.944 392.016 288.984 391.104 290.472 391.104Z" fill="black"/>
<rect x="345" y="303" width="231" height="51" rx="6" fill="#F8EDF3"/>
<path d="M369.992 332.905L364.465 328.607L363.25 329.552L370 334.802L376.75 329.552L375.528 328.6L369.992 332.905ZM370 331L375.52 326.702L376.75 325.75L370 320.5L363.25 325.75L364.473 326.702L370 331ZM370 322.397L374.305 325.75L370 329.102L365.695 325.75L370 322.397V322.397Z" fill="#F26E7E"/>
<path d="M392.056 329.24C392.056 330.44 392.44 331.416 393.224 332.136C394.008 332.856 395.032 333.208 396.264 333.208C397.496 333.208 398.504 332.856 399.288 332.136C400.072 331.416 400.456 330.44 400.456 329.24V321.8H398.984V329.176C398.984 330.76 398.008 331.752 396.264 331.752C394.52 331.752 393.544 330.76 393.544 329.176V321.8H392.056V329.24ZM403.709 327.16C403.709 326.472 404.349 326.088 405.133 326.088C405.981 326.088 406.557 326.424 406.845 327.112L408.013 326.456C407.501 325.416 406.429 324.792 405.133 324.792C404.317 324.792 403.645 325.016 403.101 325.464C402.573 325.912 402.301 326.488 402.301 327.176C402.301 328.872 403.933 329.288 405.197 329.624C406.077 329.832 406.781 330.184 406.781 330.808C406.781 331.56 406.109 331.896 405.197 331.896C404.221 331.896 403.469 331.416 403.213 330.648L402.013 331.336C402.477 332.472 403.645 333.208 405.197 333.208C406.077 333.208 406.781 332.984 407.341 332.552C407.901 332.12 408.189 331.528 408.189 330.808C408.205 329.096 406.541 328.632 405.293 328.36C404.413 328.12 403.709 327.784 403.709 327.16ZM410.463 323.544C410.975 323.544 411.391 323.128 411.391 322.616C411.391 322.104 410.975 321.672 410.463 321.672C409.935 321.672 409.519 322.104 409.519 322.616C409.519 323.128 409.935 323.544 410.463 323.544ZM411.151 333V325H409.759V333H411.151ZM417.259 324.792C416.091 324.792 415.227 325.24 414.667 326.152V325H413.275V333H414.667V328.76C414.667 326.968 415.595 326.12 416.987 326.12C418.219 326.12 418.971 326.872 418.971 328.168V333H420.363V328.088C420.363 326.056 419.131 324.792 417.259 324.792ZM428.946 326.376C428.258 325.32 427.25 324.792 425.938 324.792C424.802 324.792 423.826 325.192 423.042 326.008C422.258 326.808 421.858 327.784 421.858 328.952C421.858 330.12 422.258 331.096 423.042 331.912C423.826 332.728 424.802 333.128 425.938 333.128C427.234 333.128 428.242 332.6 428.946 331.528V332.664C428.946 334.184 427.938 335.112 426.274 335.112C424.978 335.112 424.098 334.664 423.666 333.768L422.45 334.456C423.106 335.72 424.45 336.408 426.242 336.408C427.362 336.408 428.322 336.072 429.122 335.416C429.922 334.76 430.322 333.848 430.322 332.664V325H428.946V326.376ZM428.946 328.952C428.946 329.768 428.674 330.44 428.13 330.984C427.586 331.528 426.914 331.8 426.098 331.8C425.282 331.8 424.61 331.528 424.066 330.984C423.522 330.44 423.25 329.768 423.25 328.952C423.25 328.152 423.522 327.48 424.066 326.936C424.61 326.392 425.282 326.12 426.098 326.12C426.914 326.12 427.586 326.392 428.13 326.936C428.674 327.48 428.946 328.152 428.946 328.952ZM440.847 324.792C439.519 324.792 438.511 325.32 437.823 326.376V325H436.431V336.2H437.823V331.624C438.511 332.68 439.519 333.208 440.847 333.208C441.967 333.208 442.927 332.808 443.711 331.992C444.495 331.176 444.895 330.168 444.895 329C444.895 327.832 444.495 326.84 443.711 326.024C442.927 325.208 441.967 324.792 440.847 324.792ZM440.671 331.864C439.855 331.864 439.183 331.592 438.639 331.048C438.095 330.488 437.823 329.816 437.823 329C437.823 328.184 438.095 327.512 438.639 326.968C439.183 326.408 439.855 326.136 440.671 326.136C441.471 326.136 442.143 326.408 442.687 326.968C443.231 327.512 443.503 328.184 443.503 329C443.503 329.816 443.231 330.488 442.687 331.048C442.143 331.592 441.471 331.864 440.671 331.864ZM447.948 325H446.556V333H447.948V328.76C447.948 327.88 448.188 327.256 448.684 326.856C449.18 326.456 449.756 326.28 450.444 326.312V324.856C449.244 324.856 448.412 325.352 447.948 326.344V325ZM458.121 331.992C458.937 331.176 459.352 330.184 459.352 329C459.352 327.816 458.937 326.824 458.121 326.008C457.305 325.192 456.297 324.792 455.129 324.792C453.961 324.792 452.953 325.192 452.137 326.008C451.321 326.824 450.921 327.816 450.921 329C450.921 330.184 451.321 331.176 452.137 331.992C452.953 332.808 453.961 333.208 455.129 333.208C456.297 333.208 457.305 332.808 458.121 331.992ZM455.129 331.848C454.345 331.848 453.673 331.576 453.129 331.032C452.585 330.488 452.312 329.816 452.312 329C452.312 328.184 452.585 327.512 453.129 326.968C453.673 326.424 454.345 326.152 455.129 326.152C455.929 326.152 456.601 326.424 457.145 326.968C457.689 327.512 457.961 328.184 457.961 329C457.961 329.816 457.689 330.488 457.145 331.032C456.601 331.576 455.929 331.848 455.129 331.848ZM461.815 323.544C462.327 323.544 462.743 323.128 462.743 322.616C462.743 322.104 462.327 321.672 461.815 321.672C461.287 321.672 460.871 322.104 460.871 322.616C460.871 323.128 461.287 323.544 461.815 323.544ZM461.111 333.48C461.111 334.712 460.583 335.176 459.415 335.064V336.408C461.447 336.552 462.503 335.544 462.503 333.48V325H461.111V333.48ZM472.299 329.64C472.331 329.432 472.347 329.224 472.347 329.016C472.347 327.848 471.979 326.856 471.227 326.04C470.491 325.208 469.531 324.792 468.363 324.792C467.131 324.792 466.123 325.192 465.339 325.992C464.555 326.792 464.171 327.8 464.171 329C464.171 330.216 464.571 331.224 465.355 332.024C466.155 332.808 467.195 333.208 468.459 333.208C470.027 333.208 471.195 332.6 471.979 331.4L470.795 330.728C470.315 331.512 469.547 331.896 468.491 331.896C466.971 331.896 465.867 331.064 465.595 329.64H472.299ZM468.363 326.104C469.643 326.104 470.699 326.904 470.939 328.424H465.595C465.835 327.016 466.875 326.104 468.363 326.104ZM477.691 333.208C479.243 333.208 480.603 332.392 481.291 331.128L480.107 330.44C479.659 331.288 478.763 331.832 477.691 331.832C476.891 331.832 476.219 331.56 475.675 331.016C475.147 330.472 474.875 329.8 474.875 329C474.875 328.184 475.147 327.512 475.675 326.968C476.219 326.424 476.891 326.152 477.691 326.152C478.763 326.152 479.659 326.712 480.059 327.56L481.227 326.888C480.603 325.608 479.275 324.792 477.691 324.792C476.491 324.792 475.483 325.192 474.683 326.008C473.883 326.808 473.483 327.8 473.483 329C473.483 330.2 473.883 331.192 474.683 332.008C475.483 332.808 476.491 333.208 477.691 333.208ZM487.017 325H484.889V322.76L483.497 323.176V325H481.913V326.344H483.497V330.68C483.497 332.664 484.585 333.32 487.017 333V331.752C485.593 331.816 484.889 331.912 484.889 330.68V326.344H487.017V325ZM489.475 327.16C489.475 326.472 490.115 326.088 490.899 326.088C491.747 326.088 492.323 326.424 492.611 327.112L493.779 326.456C493.267 325.416 492.195 324.792 490.899 324.792C490.083 324.792 489.411 325.016 488.867 325.464C488.339 325.912 488.067 326.488 488.067 327.176C488.067 328.872 489.699 329.288 490.963 329.624C491.843 329.832 492.547 330.184 492.547 330.808C492.547 331.56 491.875 331.896 490.963 331.896C489.987 331.896 489.235 331.416 488.979 330.648L487.779 331.336C488.243 332.472 489.411 333.208 490.963 333.208C491.843 333.208 492.547 332.984 493.107 332.552C493.667 332.12 493.955 331.528 493.955 330.808C493.971 329.096 492.307 328.632 491.059 328.36C490.179 328.12 489.475 327.784 489.475 327.16ZM507.283 330.952C507.715 330.248 508.003 329.448 508.147 328.568L506.867 327.832C506.755 328.632 506.563 329.304 506.291 329.864L503.235 326.6C502.579 325.896 502.243 325.4 502.243 324.696C502.243 323.72 503.059 323.032 504.083 323.032C505.043 323.032 505.827 323.624 506.147 324.6L507.395 323.88C506.867 322.456 505.539 321.592 504.051 321.592C503.139 321.592 502.371 321.88 501.715 322.456C501.075 323.032 500.755 323.784 500.755 324.712C500.755 325.464 500.995 326.136 501.475 326.744C500.131 327.4 499.427 328.616 499.427 329.976C499.427 330.968 499.779 331.752 500.467 332.344C501.155 332.92 502.067 333.208 503.187 333.208C504.483 333.208 505.555 332.824 506.387 332.04L507.523 333.256L508.771 332.536L507.283 330.952ZM503.219 331.8C501.763 331.8 500.915 331.08 500.915 329.88C500.915 329.032 501.379 328.2 502.403 327.768L505.427 331.016C504.835 331.544 504.099 331.8 503.219 331.8ZM515.397 327.16C515.397 326.472 516.037 326.088 516.821 326.088C517.669 326.088 518.245 326.424 518.533 327.112L519.701 326.456C519.189 325.416 518.117 324.792 516.821 324.792C516.005 324.792 515.333 325.016 514.789 325.464C514.261 325.912 513.989 326.488 513.989 327.176C513.989 328.872 515.621 329.288 516.885 329.624C517.765 329.832 518.469 330.184 518.469 330.808C518.469 331.56 517.797 331.896 516.885 331.896C515.909 331.896 515.157 331.416 514.901 330.648L513.701 331.336C514.165 332.472 515.333 333.208 516.885 333.208C517.765 333.208 518.469 332.984 519.029 332.552C519.589 332.12 519.877 331.528 519.877 330.808C519.893 329.096 518.229 328.632 516.981 328.36C516.101 328.12 515.397 327.784 515.397 327.16ZM525.564 325H523.436V322.76L522.044 323.176V325H520.46V326.344H522.044V330.68C522.044 332.664 523.132 333.32 525.564 333V331.752C524.14 331.816 523.436 331.912 523.436 330.68V326.344H525.564V325ZM533.43 326.376C532.742 325.32 531.734 324.792 530.406 324.792C529.286 324.792 528.326 325.208 527.542 326.024C526.758 326.84 526.358 327.832 526.358 329C526.358 330.168 526.758 331.176 527.542 331.992C528.326 332.808 529.286 333.208 530.406 333.208C531.734 333.208 532.742 332.68 533.43 331.624V333H534.822V325H533.43V326.376ZM530.582 331.864C529.782 331.864 529.11 331.592 528.566 331.048C528.022 330.488 527.75 329.816 527.75 329C527.75 328.184 528.022 327.512 528.566 326.968C529.11 326.408 529.782 326.136 530.582 326.136C531.398 326.136 532.07 326.408 532.614 326.968C533.158 327.512 533.43 328.184 533.43 329C533.43 329.816 533.158 330.488 532.614 331.048C532.07 331.592 531.398 331.864 530.582 331.864ZM540.691 333.208C542.243 333.208 543.603 332.392 544.291 331.128L543.107 330.44C542.659 331.288 541.763 331.832 540.691 331.832C539.891 331.832 539.219 331.56 538.675 331.016C538.147 330.472 537.875 329.8 537.875 329C537.875 328.184 538.147 327.512 538.675 326.968C539.219 326.424 539.891 326.152 540.691 326.152C541.763 326.152 542.659 326.712 543.059 327.56L544.227 326.888C543.603 325.608 542.275 324.792 540.691 324.792C539.491 324.792 538.483 325.192 537.683 326.008C536.883 326.808 536.483 327.8 536.483 329C536.483 330.2 536.883 331.192 537.683 332.008C538.483 332.808 539.491 333.208 540.691 333.208ZM548.481 328.872L552.305 325H550.513L547.057 328.536V321.8H545.665V333H547.057V329.208L550.705 333H552.433L548.481 328.872ZM554.319 327.16C554.319 326.472 554.959 326.088 555.743 326.088C556.591 326.088 557.167 326.424 557.455 327.112L558.623 326.456C558.111 325.416 557.039 324.792 555.743 324.792C554.927 324.792 554.255 325.016 553.711 325.464C553.183 325.912 552.911 326.488 552.911 327.176C552.911 328.872 554.543 329.288 555.807 329.624C556.687 329.832 557.391 330.184 557.391 330.808C557.391 331.56 556.719 331.896 555.807 331.896C554.831 331.896 554.079 331.416 553.823 330.648L552.623 331.336C553.087 332.472 554.255 333.208 555.807 333.208C556.687 333.208 557.391 332.984 557.951 332.552C558.511 332.12 558.799 331.528 558.799 330.808C558.815 329.096 557.151 328.632 555.903 328.36C555.023 328.12 554.319 327.784 554.319 327.16Z" fill="black"/>
<rect x="79" y="129" width="232" height="162" rx="6" fill="#FEF1F2"/>
<path d="M100.073 153.039C100.073 153.259 100.097 153.437 100.138 153.568C100.186 153.698 100.246 153.841 100.33 153.995C100.36 154.043 100.372 154.09 100.372 154.132C100.372 154.191 100.336 154.251 100.258 154.31L99.881 154.559C99.8271 154.595 99.7733 154.613 99.7254 154.613C99.6655 154.613 99.6056 154.583 99.5458 154.53C99.4619 154.441 99.3901 154.346 99.3302 154.251C99.2704 154.15 99.2105 154.037 99.1447 153.9C98.6777 154.447 98.091 154.72 97.3846 154.72C96.8817 154.72 96.4806 154.577 96.1873 154.292C95.8939 154.007 95.7443 153.627 95.7443 153.152C95.7443 152.647 95.9239 152.237 96.289 151.928C96.6542 151.62 97.1391 151.465 97.7558 151.465C97.9593 151.465 98.1688 151.483 98.3903 151.513C98.6118 151.542 98.8393 151.59 99.0788 151.643V151.21C99.0788 150.759 98.983 150.444 98.7974 150.26C98.6059 150.076 98.2826 149.987 97.8216 149.987C97.6121 149.987 97.3966 150.01 97.1751 150.064C96.9536 150.117 96.738 150.182 96.5285 150.266C96.4327 150.307 96.3609 150.331 96.319 150.343C96.2771 150.355 96.2471 150.361 96.2232 150.361C96.1394 150.361 96.0975 150.301 96.0975 150.177V149.886C96.0975 149.791 96.1094 149.719 96.1394 149.678C96.1693 149.636 96.2232 149.595 96.307 149.553C96.5165 149.446 96.768 149.357 97.0613 149.286C97.3547 149.209 97.666 149.173 97.9952 149.173C98.7076 149.173 99.2285 149.333 99.5637 149.654C99.893 149.975 100.061 150.462 100.061 151.115V153.039H100.073ZM97.642 153.942C97.8396 153.942 98.0431 153.906 98.2586 153.835C98.4742 153.764 98.6657 153.633 98.8274 153.455C98.9232 153.342 98.995 153.217 99.0309 153.075C99.0668 152.932 99.0908 152.76 99.0908 152.558V152.309C98.9172 152.267 98.7316 152.231 98.54 152.208C98.3484 152.184 98.1629 152.172 97.9773 152.172C97.5762 152.172 97.2828 152.249 97.0853 152.41C96.8877 152.57 96.7919 152.796 96.7919 153.092C96.7919 153.372 96.8638 153.579 97.0134 153.722C97.1571 153.87 97.3666 153.942 97.642 153.942ZM102.449 154.583C102.342 154.583 102.27 154.565 102.222 154.524C102.174 154.488 102.132 154.405 102.096 154.292L100.689 149.701C100.653 149.583 100.635 149.505 100.635 149.464C100.635 149.369 100.683 149.315 100.779 149.315H101.366C101.479 149.315 101.557 149.333 101.599 149.375C101.647 149.41 101.683 149.494 101.719 149.606L102.725 153.538L103.659 149.606C103.688 149.488 103.724 149.41 103.772 149.375C103.82 149.339 103.904 149.315 104.012 149.315H104.491C104.604 149.315 104.682 149.333 104.73 149.375C104.778 149.41 104.82 149.494 104.844 149.606L105.79 153.585L106.825 149.606C106.861 149.488 106.903 149.41 106.945 149.375C106.993 149.339 107.071 149.315 107.179 149.315H107.735C107.831 149.315 107.885 149.363 107.885 149.464C107.885 149.494 107.879 149.523 107.873 149.559C107.867 149.595 107.855 149.642 107.831 149.707L106.388 154.298C106.353 154.417 106.311 154.494 106.263 154.53C106.215 154.565 106.137 154.589 106.035 154.589H105.52C105.407 154.589 105.329 154.571 105.281 154.53C105.233 154.488 105.191 154.411 105.167 154.292L104.239 150.462L103.317 154.286C103.287 154.405 103.251 154.482 103.204 154.524C103.156 154.565 103.072 154.583 102.964 154.583H102.449ZM110.142 154.743C109.831 154.743 109.519 154.708 109.22 154.637C108.921 154.565 108.687 154.488 108.532 154.399C108.436 154.346 108.37 154.286 108.346 154.233C108.322 154.179 108.31 154.12 108.31 154.066V153.764C108.31 153.639 108.358 153.579 108.448 153.579C108.484 153.579 108.52 153.585 108.556 153.597C108.592 153.609 108.645 153.633 108.705 153.657C108.909 153.746 109.13 153.817 109.364 153.865C109.603 153.912 109.837 153.936 110.076 153.936C110.453 153.936 110.747 153.87 110.95 153.74C111.154 153.609 111.262 153.419 111.262 153.176C111.262 153.009 111.208 152.873 111.1 152.76C110.992 152.647 110.789 152.546 110.495 152.451L109.627 152.184C109.19 152.047 108.867 151.845 108.669 151.578C108.472 151.317 108.37 151.026 108.37 150.717C108.37 150.468 108.424 150.248 108.532 150.058C108.639 149.868 108.783 149.701 108.963 149.571C109.142 149.434 109.346 149.333 109.585 149.262C109.825 149.191 110.076 149.161 110.34 149.161C110.471 149.161 110.609 149.167 110.741 149.185C110.878 149.203 111.004 149.226 111.13 149.25C111.25 149.28 111.363 149.309 111.471 149.345C111.579 149.381 111.663 149.416 111.723 149.452C111.806 149.5 111.866 149.547 111.902 149.6C111.938 149.648 111.956 149.713 111.956 149.796V150.076C111.956 150.2 111.908 150.266 111.818 150.266C111.77 150.266 111.693 150.242 111.591 150.194C111.25 150.04 110.866 149.963 110.441 149.963C110.1 149.963 109.831 150.016 109.645 150.129C109.46 150.242 109.364 150.414 109.364 150.658C109.364 150.824 109.424 150.966 109.543 151.079C109.663 151.192 109.885 151.305 110.202 151.406L111.052 151.673C111.483 151.81 111.794 152 111.98 152.243C112.166 152.487 112.255 152.766 112.255 153.075C112.255 153.33 112.201 153.562 112.1 153.764C111.992 153.966 111.848 154.144 111.663 154.286C111.477 154.435 111.256 154.542 110.998 154.619C110.729 154.702 110.447 154.743 110.142 154.743Z" fill="#252F3E"/>
<path fill-rule="evenodd" clip-rule="evenodd" d="M111.274 157.63C109.304 159.073 106.442 159.839 103.982 159.839C100.534 159.839 97.4265 158.574 95.0797 156.472C94.8942 156.305 95.0618 156.08 95.2833 156.21C97.8216 157.671 100.953 158.556 104.191 158.556C106.376 158.556 108.777 158.105 110.986 157.178C111.315 157.03 111.597 157.392 111.274 157.63Z" fill="#FF9900"/>
<path fill-rule="evenodd" clip-rule="evenodd" d="M112.094 156.703C111.842 156.383 110.429 156.549 109.789 156.626C109.597 156.65 109.567 156.484 109.741 156.359C110.866 155.575 112.716 155.801 112.932 156.062C113.147 156.329 112.872 158.164 111.818 159.043C111.657 159.18 111.501 159.108 111.573 158.93C111.812 158.342 112.345 157.018 112.094 156.703Z" fill="#FF9900"/>
<path d="M135.16 159L130.984 147.8H129.304L125.128 159H126.712L127.624 156.488H132.664L133.576 159H135.16ZM130.136 149.576L132.152 155.096H128.136L130.136 149.576ZM139.985 159L142.641 150.056L145.297 159H147.025L150.241 147.8H148.673L146.113 157.016L143.393 147.8H141.889L139.169 157.016L136.609 147.8H135.041L138.257 159H139.985ZM155.144 159.208C156.296 159.208 157.224 158.92 157.944 158.344C158.664 157.752 159.016 156.968 159.016 155.992C159.016 155.288 158.856 154.712 158.456 154.312C158.184 153.992 158.04 153.816 157.592 153.576C157.16 153.336 157.032 153.256 156.472 153.048C156.2 152.936 156.008 152.872 155.88 152.824L155.224 152.616C154.36 152.344 153.752 152.072 153.4 151.816C153.048 151.56 152.872 151.192 152.872 150.696C152.872 149.672 153.688 149.032 154.904 149.032C156.12 149.032 156.968 149.608 157.448 150.76L158.696 150.04C158.04 148.568 156.68 147.592 154.904 147.592C153.928 147.592 153.096 147.88 152.408 148.456C151.72 149.016 151.384 149.784 151.384 150.76C151.384 151.576 151.72 152.232 152.088 152.632C152.264 152.824 152.536 153.016 152.904 153.208C153.272 153.384 153.592 153.528 153.832 153.624L154.904 153.976C155.848 154.28 156.536 154.552 156.936 154.824C157.336 155.096 157.544 155.496 157.544 156.024C157.544 157.064 156.712 157.752 155.176 157.752C153.624 157.752 152.616 157.08 152.184 155.72L150.904 156.456C151.496 158.168 153.048 159.208 155.144 159.208ZM172.314 156.952C172.746 156.248 173.034 155.448 173.178 154.568L171.898 153.832C171.786 154.632 171.594 155.304 171.322 155.864L168.266 152.6C167.61 151.896 167.274 151.4 167.274 150.696C167.274 149.72 168.09 149.032 169.114 149.032C170.074 149.032 170.858 149.624 171.178 150.6L172.426 149.88C171.898 148.456 170.57 147.592 169.082 147.592C168.17 147.592 167.402 147.88 166.746 148.456C166.106 149.032 165.786 149.784 165.786 150.712C165.786 151.464 166.026 152.136 166.506 152.744C165.162 153.4 164.458 154.616 164.458 155.976C164.458 156.968 164.81 157.752 165.498 158.344C166.186 158.92 167.098 159.208 168.218 159.208C169.514 159.208 170.586 158.824 171.418 158.04L172.554 159.256L173.802 158.536L172.314 156.952ZM168.25 157.8C166.794 157.8 165.946 157.08 165.946 155.88C165.946 155.032 166.41 154.2 167.434 153.768L170.458 157.016C169.866 157.544 169.13 157.8 168.25 157.8ZM179.372 147.8V159H180.86V155H183.436C184.476 155 185.324 154.648 186.012 153.96C186.7 153.272 187.052 152.408 187.052 151.4C187.052 150.376 186.7 149.528 186.012 148.84C185.324 148.152 184.476 147.8 183.436 147.8H179.372ZM180.86 153.608V149.192H183.436C184.668 149.192 185.58 150.12 185.58 151.4C185.58 152.024 185.372 152.552 184.972 152.984C184.572 153.4 184.06 153.608 183.436 153.608H180.86ZM194.185 155.24C194.185 157.032 193.257 157.88 191.865 157.88C190.633 157.88 189.881 157.128 189.881 155.832V151H188.489V155.912C188.489 157.944 189.721 159.208 191.593 159.208C192.761 159.208 193.625 158.76 194.185 157.848V159H195.577V151H194.185V155.24ZM199.089 159V147.32H197.697V159H199.089ZM206.732 155.24C206.732 157.032 205.804 157.88 204.412 157.88C203.18 157.88 202.428 157.128 202.428 155.832V151H201.036V155.912C201.036 157.944 202.268 159.208 204.14 159.208C205.308 159.208 206.172 158.76 206.732 157.848V159H208.124V151H206.732V155.24ZM218.884 150.792C217.764 150.792 216.932 151.24 216.372 152.152C215.876 151.24 215.092 150.792 214.02 150.792C212.98 150.792 212.18 151.224 211.636 152.072V151H210.243V159H211.636V154.552C211.636 152.936 212.516 152.12 213.684 152.12C214.724 152.12 215.38 152.84 215.38 154.072V159H216.772V154.552C216.772 152.904 217.54 152.12 218.74 152.12C219.812 152.12 220.5 152.84 220.5 154.072V159H221.892V154.024C221.892 152.04 220.676 150.792 218.884 150.792ZM224.526 149.544C225.038 149.544 225.454 149.128 225.454 148.616C225.454 148.104 225.038 147.672 224.526 147.672C223.998 147.672 223.582 148.104 223.582 148.616C223.582 149.128 223.998 149.544 224.526 149.544ZM225.214 159V151H223.822V159H225.214Z" fill="black"/>
<g clip-path="url(#clip0)">
<path d="M101.012 182.029H106.318L100.81 198.351C100.753 198.519 100.645 198.665 100.501 198.768C100.358 198.871 100.185 198.927 100.008 198.927H95.8782C95.7441 198.927 95.6119 198.895 95.4925 198.834C95.3732 198.773 95.2701 198.684 95.1919 198.575C95.1137 198.466 95.0625 198.34 95.0426 198.207C95.0228 198.075 95.0348 197.939 95.0776 197.812L100.21 182.605C100.267 182.437 100.374 182.291 100.518 182.188C100.662 182.085 100.835 182.029 101.012 182.029V182.029Z" fill="url(#paint0_linear)"/>
<path d="M108.723 192.977H100.308C100.23 192.977 100.153 193.001 100.089 193.044C100.024 193.088 99.974 193.151 99.9453 193.224C99.9166 193.296 99.9105 193.376 99.9278 193.453C99.945 193.529 99.9849 193.598 100.042 193.651L105.449 198.699C105.607 198.845 105.814 198.927 106.029 198.927H110.794L108.723 192.977Z" fill="#0078D4"/>
<path d="M101.012 182.029C100.833 182.029 100.658 182.085 100.514 182.191C100.369 182.296 100.262 182.445 100.208 182.616L95.084 197.798C95.0382 197.926 95.0238 198.063 95.0421 198.197C95.0603 198.331 95.1106 198.459 95.1888 198.57C95.2669 198.68 95.3705 198.771 95.4909 198.833C95.6113 198.895 95.7449 198.927 95.8804 198.927H100.117C100.275 198.899 100.422 198.829 100.544 198.725C100.666 198.622 100.759 198.487 100.812 198.336L101.834 195.324L105.484 198.729C105.637 198.855 105.829 198.925 106.027 198.927H110.774L108.692 192.977L102.623 192.979L106.338 182.029H101.012Z" fill="url(#paint1_linear)"/>
<path d="M107.79 182.604C107.733 182.437 107.626 182.291 107.482 182.188C107.338 182.085 107.166 182.029 106.989 182.029H101.075C101.252 182.029 101.424 182.085 101.568 182.188C101.711 182.291 101.819 182.437 101.876 182.604L107.008 197.812C107.051 197.939 107.063 198.075 107.043 198.207C107.023 198.34 106.972 198.466 106.894 198.575C106.816 198.684 106.713 198.773 106.593 198.834C106.474 198.895 106.342 198.927 106.208 198.927H112.122C112.256 198.927 112.388 198.895 112.508 198.834C112.627 198.773 112.73 198.684 112.808 198.575C112.887 198.466 112.938 198.34 112.957 198.207C112.977 198.075 112.965 197.939 112.922 197.812L107.79 182.604Z" fill="url(#paint2_linear)"/>
</g>
<path d="M135.16 196L130.984 184.8H129.304L125.128 196H126.712L127.624 193.488H132.664L133.576 196H135.16ZM130.136 186.576L132.152 192.096H128.136L130.136 186.576ZM142.049 188.928V188H136.209V189.328H140.129L136.049 195.072V196H142.209V194.672H137.953L142.049 188.928ZM149.389 192.24C149.389 194.032 148.461 194.88 147.069 194.88C145.837 194.88 145.085 194.128 145.085 192.832V188H143.693V192.912C143.693 194.944 144.924 196.208 146.797 196.208C147.965 196.208 148.829 195.76 149.389 194.848V196H150.781V188H149.389V192.24ZM154.292 188H152.9V196H154.292V191.76C154.292 190.88 154.532 190.256 155.028 189.856C155.524 189.456 156.1 189.28 156.788 189.312V187.856C155.588 187.856 154.756 188.352 154.292 189.344V188ZM165.392 192.64C165.424 192.432 165.44 192.224 165.44 192.016C165.44 190.848 165.072 189.856 164.32 189.04C163.584 188.208 162.624 187.792 161.456 187.792C160.224 187.792 159.216 188.192 158.432 188.992C157.648 189.792 157.264 190.8 157.264 192C157.264 193.216 157.664 194.224 158.448 195.024C159.248 195.808 160.288 196.208 161.552 196.208C163.12 196.208 164.288 195.6 165.072 194.4L163.888 193.728C163.408 194.512 162.64 194.896 161.584 194.896C160.064 194.896 158.96 194.064 158.688 192.64H165.392ZM161.456 189.104C162.736 189.104 163.792 189.904 164.032 191.424H158.688C158.928 190.016 159.968 189.104 161.456 189.104ZM178.72 193.952C179.152 193.248 179.44 192.448 179.584 191.568L178.304 190.832C178.192 191.632 178 192.304 177.728 192.864L174.672 189.6C174.016 188.896 173.68 188.4 173.68 187.696C173.68 186.72 174.496 186.032 175.52 186.032C176.48 186.032 177.264 186.624 177.584 187.6L178.832 186.88C178.304 185.456 176.976 184.592 175.488 184.592C174.576 184.592 173.808 184.88 173.152 185.456C172.512 186.032 172.192 186.784 172.192 187.712C172.192 188.464 172.432 189.136 172.912 189.744C171.568 190.4 170.864 191.616 170.864 192.976C170.864 193.968 171.216 194.752 171.904 195.344C172.592 195.92 173.504 196.208 174.624 196.208C175.92 196.208 176.992 195.824 177.824 195.04L178.96 196.256L180.208 195.536L178.72 193.952ZM174.656 194.8C173.2 194.8 172.352 194.08 172.352 192.88C172.352 192.032 172.816 191.2 173.84 190.768L176.864 194.016C176.272 194.544 175.536 194.8 174.656 194.8ZM185.778 184.8V196H187.266V192H189.842C190.882 192 191.73 191.648 192.418 190.96C193.106 190.272 193.458 189.408 193.458 188.4C193.458 187.376 193.106 186.528 192.418 185.84C191.73 185.152 190.882 184.8 189.842 184.8H185.778ZM187.266 190.608V186.192H189.842C191.074 186.192 191.986 187.12 191.986 188.4C191.986 189.024 191.778 189.552 191.378 189.984C190.978 190.4 190.466 190.608 189.842 190.608H187.266ZM200.592 192.24C200.592 194.032 199.664 194.88 198.272 194.88C197.04 194.88 196.288 194.128 196.288 192.832V188H194.896V192.912C194.896 194.944 196.128 196.208 198 196.208C199.168 196.208 200.032 195.76 200.592 194.848V196H201.984V188H200.592V192.24ZM205.495 196V184.32H204.103V196H205.495ZM213.139 192.24C213.139 194.032 212.211 194.88 210.819 194.88C209.587 194.88 208.835 194.128 208.835 192.832V188H207.443V192.912C207.443 194.944 208.674 196.208 210.547 196.208C211.715 196.208 212.579 195.76 213.139 194.848V196H214.531V188H213.139V192.24ZM225.29 187.792C224.17 187.792 223.338 188.24 222.778 189.152C222.282 188.24 221.498 187.792 220.426 187.792C219.386 187.792 218.586 188.224 218.042 189.072V188H216.65V196H218.042V191.552C218.042 189.936 218.922 189.12 220.09 189.12C221.13 189.12 221.786 189.84 221.786 191.072V196H223.178V191.552C223.178 189.904 223.946 189.12 225.146 189.12C226.218 189.12 226.906 189.84 226.906 191.072V196H228.298V191.024C228.298 189.04 227.082 187.792 225.29 187.792ZM230.932 186.544C231.444 186.544 231.86 186.128 231.86 185.616C231.86 185.104 231.444 184.672 230.932 184.672C230.404 184.672 229.988 185.104 229.988 185.616C229.988 186.128 230.404 186.544 230.932 186.544ZM231.62 196V188H230.228V196H231.62Z" fill="black"/>
<path d="M106.422 223H106.971L108.535 221.431L108.612 220.765C106.79 219.152 104.266 218.597 101.938 219.297C99.6102 219.998 97.8077 221.854 97.1714 224.206C97.3457 224.134 97.5387 224.123 97.7203 224.173L100.85 223.655C100.85 223.655 101.009 223.391 101.091 223.408C102.483 221.875 104.826 221.696 106.433 223H106.422Z" fill="#EA4335"/>
<path d="M110.764 224.206C110.404 222.878 109.666 221.684 108.64 220.771L106.444 222.973C107.371 223.732 107.899 224.877 107.876 226.078V226.468C108.956 226.468 109.831 227.346 109.831 228.428C109.831 229.511 108.956 230.388 107.876 230.388H103.968L103.578 230.785V233.135L103.968 233.526H107.876C110.118 233.544 112.106 232.087 112.771 229.941C113.436 227.795 112.621 225.465 110.764 224.206Z" fill="#4285F4"/>
<path d="M100.054 233.504H103.962V230.366H100.054C99.775 230.366 99.4998 230.306 99.2465 230.19L98.6975 230.361L97.122 231.93L96.9847 232.48C97.8683 233.149 98.9464 233.509 100.054 233.504Z" fill="#34A853"/>
<path d="M100.054 223.325C97.8823 223.338 95.9591 224.732 95.2661 226.796C94.5732 228.859 95.2636 231.136 96.9847 232.464L99.252 230.19C98.4598 229.831 97.9993 228.991 98.1218 228.128C98.2443 227.265 98.9206 226.587 99.7811 226.464C100.642 226.341 101.48 226.803 101.838 227.597L104.105 225.323C103.14 224.059 101.641 223.319 100.054 223.325Z" fill="#FBBC05"/>
<path d="M131.4 227.448V228.792H135.512C135.208 230.536 133.768 231.752 131.528 231.752C130.216 231.752 129.144 231.336 128.312 230.504C127.496 229.672 127.08 228.632 127.08 227.4C127.08 226.168 127.496 225.128 128.312 224.296C129.128 223.448 130.184 223.032 131.464 223.032C133.016 223.032 134.408 223.832 135.048 225.048L136.328 224.296C135.864 223.48 135.192 222.84 134.328 222.344C133.464 221.848 132.52 221.592 131.48 221.592C129.8 221.592 128.392 222.152 127.272 223.288C126.168 224.408 125.608 225.784 125.608 227.4C125.608 229.016 126.168 230.392 127.272 231.528C128.392 232.648 129.8 233.208 131.512 233.208C133.16 233.208 134.488 232.728 135.496 231.768C136.504 230.792 137 229.576 137 228.12V227.448H131.4ZM145.417 231.992C146.233 231.176 146.649 230.184 146.649 229C146.649 227.816 146.233 226.824 145.417 226.008C144.601 225.192 143.593 224.792 142.425 224.792C141.257 224.792 140.249 225.192 139.433 226.008C138.617 226.824 138.217 227.816 138.217 229C138.217 230.184 138.617 231.176 139.433 231.992C140.249 232.808 141.257 233.208 142.425 233.208C143.593 233.208 144.601 232.808 145.417 231.992ZM142.425 231.848C141.641 231.848 140.969 231.576 140.425 231.032C139.881 230.488 139.609 229.816 139.609 229C139.609 228.184 139.881 227.512 140.425 226.968C140.969 226.424 141.641 226.152 142.425 226.152C143.225 226.152 143.897 226.424 144.441 226.968C144.985 227.512 145.257 228.184 145.257 229C145.257 229.816 144.985 230.488 144.441 231.032C143.897 231.576 143.225 231.848 142.425 231.848ZM155.042 231.992C155.858 231.176 156.274 230.184 156.274 229C156.274 227.816 155.858 226.824 155.042 226.008C154.226 225.192 153.218 224.792 152.05 224.792C150.882 224.792 149.874 225.192 149.058 226.008C148.242 226.824 147.842 227.816 147.842 229C147.842 230.184 148.242 231.176 149.058 231.992C149.874 232.808 150.882 233.208 152.05 233.208C153.218 233.208 154.226 232.808 155.042 231.992ZM152.05 231.848C151.266 231.848 150.594 231.576 150.05 231.032C149.506 230.488 149.234 229.816 149.234 229C149.234 228.184 149.506 227.512 150.05 226.968C150.594 226.424 151.266 226.152 152.05 226.152C152.85 226.152 153.522 226.424 154.066 226.968C154.61 227.512 154.882 228.184 154.882 229C154.882 229.816 154.61 230.488 154.066 231.032C153.522 231.576 152.85 231.848 152.05 231.848ZM164.555 226.376C163.867 225.32 162.859 224.792 161.547 224.792C160.411 224.792 159.435 225.192 158.651 226.008C157.867 226.808 157.467 227.784 157.467 228.952C157.467 230.12 157.867 231.096 158.651 231.912C159.435 232.728 160.411 233.128 161.547 233.128C162.843 233.128 163.851 232.6 164.555 231.528V232.664C164.555 234.184 163.547 235.112 161.883 235.112C160.587 235.112 159.707 234.664 159.275 233.768L158.059 234.456C158.715 235.72 160.059 236.408 161.851 236.408C162.971 236.408 163.931 236.072 164.731 235.416C165.531 234.76 165.931 233.848 165.931 232.664V225H164.555V226.376ZM164.555 228.952C164.555 229.768 164.283 230.44 163.739 230.984C163.195 231.528 162.523 231.8 161.707 231.8C160.891 231.8 160.219 231.528 159.675 230.984C159.131 230.44 158.859 229.768 158.859 228.952C158.859 228.152 159.131 227.48 159.675 226.936C160.219 226.392 160.891 226.12 161.707 226.12C162.523 226.12 163.195 226.392 163.739 226.936C164.283 227.48 164.555 228.152 164.555 228.952ZM169.432 233V221.32H168.04V233H169.432ZM179.236 229.64C179.268 229.432 179.284 229.224 179.284 229.016C179.284 227.848 178.916 226.856 178.164 226.04C177.428 225.208 176.468 224.792 175.3 224.792C174.068 224.792 173.06 225.192 172.276 225.992C171.492 226.792 171.108 227.8 171.108 229C171.108 230.216 171.508 231.224 172.292 232.024C173.092 232.808 174.132 233.208 175.396 233.208C176.964 233.208 178.132 232.6 178.916 231.4L177.732 230.728C177.252 231.512 176.484 231.896 175.428 231.896C173.908 231.896 172.804 231.064 172.532 229.64H179.236ZM175.3 226.104C176.58 226.104 177.636 226.904 177.876 228.424H172.532C172.772 227.016 173.812 226.104 175.3 226.104ZM190.292 233.208C191.316 233.208 192.26 232.968 193.124 232.472C193.988 231.976 194.66 231.304 195.124 230.472L193.828 229.736C193.188 230.952 191.828 231.752 190.292 231.752C188.996 231.752 187.94 231.336 187.124 230.504C186.308 229.672 185.908 228.632 185.908 227.4C185.908 226.152 186.308 225.112 187.124 224.28C187.94 223.448 188.996 223.032 190.292 223.032C191.828 223.032 193.188 223.832 193.828 225.064L195.124 224.312C194.164 222.648 192.34 221.592 190.292 221.592C188.596 221.592 187.188 222.152 186.084 223.272C184.98 224.392 184.436 225.768 184.436 227.4C184.436 229.032 184.98 230.408 186.084 231.528C187.188 232.648 188.596 233.208 190.292 233.208ZM198.104 233V221.32H196.712V233H198.104ZM206.98 231.992C207.796 231.176 208.212 230.184 208.212 229C208.212 227.816 207.796 226.824 206.98 226.008C206.164 225.192 205.156 224.792 203.988 224.792C202.82 224.792 201.812 225.192 200.996 226.008C200.18 226.824 199.78 227.816 199.78 229C199.78 230.184 200.18 231.176 200.996 231.992C201.812 232.808 202.82 233.208 203.988 233.208C205.156 233.208 206.164 232.808 206.98 231.992ZM203.988 231.848C203.204 231.848 202.532 231.576 201.988 231.032C201.444 230.488 201.172 229.816 201.172 229C201.172 228.184 201.444 227.512 201.988 226.968C202.532 226.424 203.204 226.152 203.988 226.152C204.788 226.152 205.46 226.424 206.004 226.968C206.548 227.512 206.82 228.184 206.82 229C206.82 229.816 206.548 230.488 206.004 231.032C205.46 231.576 204.788 231.848 203.988 231.848ZM215.373 229.24C215.373 231.032 214.445 231.88 213.053 231.88C211.821 231.88 211.069 231.128 211.069 229.832V225H209.677V229.912C209.677 231.944 210.909 233.208 212.781 233.208C213.949 233.208 214.813 232.76 215.373 231.848V233H216.765V225H215.373V229.24ZM225.508 226.376C224.82 225.32 223.812 224.792 222.484 224.792C221.364 224.792 220.404 225.208 219.62 226.024C218.836 226.84 218.436 227.832 218.436 229C218.436 230.168 218.836 231.176 219.62 231.992C220.404 232.808 221.364 233.208 222.484 233.208C223.812 233.208 224.82 232.68 225.508 231.624V233H226.9V221.8H225.508V226.376ZM222.66 231.864C221.86 231.864 221.188 231.592 220.644 231.048C220.1 230.488 219.828 229.816 219.828 229C219.828 228.184 220.1 227.512 220.644 226.968C221.188 226.408 221.86 226.136 222.66 226.136C223.476 226.136 224.148 226.408 224.692 226.968C225.236 227.512 225.508 228.184 225.508 229C225.508 229.816 225.236 230.488 224.692 231.048C224.148 231.592 223.476 231.864 222.66 231.864ZM240.689 230.952C241.121 230.248 241.409 229.448 241.553 228.568L240.273 227.832C240.161 228.632 239.969 229.304 239.697 229.864L236.641 226.6C235.985 225.896 235.649 225.4 235.649 224.696C235.649 223.72 236.465 223.032 237.489 223.032C238.449 223.032 239.233 223.624 239.553 224.6L240.801 223.88C240.273 222.456 238.945 221.592 237.457 221.592C236.545 221.592 235.777 221.88 235.121 222.456C234.481 223.032 234.161 223.784 234.161 224.712C234.161 225.464 234.401 226.136 234.881 226.744C233.537 227.4 232.833 228.616 232.833 229.976C232.833 230.968 233.185 231.752 233.873 232.344C234.561 232.92 235.473 233.208 236.593 233.208C237.889 233.208 238.961 232.824 239.793 232.04L240.929 233.256L242.177 232.536L240.689 230.952ZM236.625 231.8C235.169 231.8 234.321 231.08 234.321 229.88C234.321 229.032 234.785 228.2 235.809 227.768L238.833 231.016C238.241 231.544 237.505 231.8 236.625 231.8ZM247.747 221.8V233H249.235V229H251.811C252.851 229 253.699 228.648 254.387 227.96C255.075 227.272 255.427 226.408 255.427 225.4C255.427 224.376 255.075 223.528 254.387 222.84C253.699 222.152 252.851 221.8 251.811 221.8H247.747ZM249.235 227.608V223.192H251.811C253.043 223.192 253.955 224.12 253.955 225.4C253.955 226.024 253.747 226.552 253.347 226.984C252.947 227.4 252.435 227.608 251.811 227.608H249.235ZM262.56 229.24C262.56 231.032 261.632 231.88 260.24 231.88C259.008 231.88 258.256 231.128 258.256 229.832V225H256.864V229.912C256.864 231.944 258.096 233.208 259.968 233.208C261.136 233.208 262 232.76 262.56 231.848V233H263.952V225H262.56V229.24ZM267.464 233V221.32H266.072V233H267.464ZM275.107 229.24C275.107 231.032 274.179 231.88 272.787 231.88C271.555 231.88 270.803 231.128 270.803 229.832V225H269.411V229.912C269.411 231.944 270.643 233.208 272.515 233.208C273.683 233.208 274.547 232.76 275.107 231.848V233H276.499V225H275.107V229.24ZM287.259 224.792C286.139 224.792 285.307 225.24 284.747 226.152C284.251 225.24 283.467 224.792 282.395 224.792C281.355 224.792 280.555 225.224 280.011 226.072V225H278.618V233H280.011V228.552C280.011 226.936 280.891 226.12 282.059 226.12C283.099 226.12 283.755 226.84 283.755 228.072V233H285.147V228.552C285.147 226.904 285.915 226.12 287.115 226.12C288.187 226.12 288.875 226.84 288.875 228.072V233H290.267V228.024C290.267 226.04 289.051 224.792 287.259 224.792ZM292.901 223.544C293.413 223.544 293.829 223.128 293.829 222.616C293.829 222.104 293.413 221.672 292.901 221.672C292.373 221.672 291.957 222.104 291.957 222.616C291.957 223.128 292.373 223.544 292.901 223.544ZM293.589 233V225H292.197V233H293.589Z" fill="black"/>
<path d="M111.272 259.889C111.17 259.558 110.926 259.289 110.62 259.124L104.4 256.103C104.237 256.021 104.054 256 103.89 256C103.727 256 103.544 256 103.381 256.041L97.161 259.082C96.8552 259.227 96.6308 259.496 96.5493 259.848L95.0199 266.653C94.9587 267.005 95.0403 267.356 95.2442 267.646L99.5469 273.045C99.7916 273.293 100.138 273.459 100.485 273.479H107.337C107.704 273.521 108.05 273.355 108.275 273.045L112.577 267.646C112.781 267.356 112.863 267.005 112.822 266.653L111.272 259.889Z" fill="#326DE6"/>
<path d="M110.314 266.384C110.294 266.384 110.273 266.384 110.273 266.364C110.273 266.343 110.232 266.343 110.192 266.343C110.11 266.322 110.028 266.322 109.947 266.322C109.906 266.322 109.865 266.322 109.825 266.301H109.804C109.58 266.281 109.335 266.239 109.111 266.177C109.05 266.157 108.988 266.095 108.968 266.033C108.988 266.033 108.968 266.033 108.968 266.033L108.805 265.991C108.886 265.391 108.846 264.771 108.723 264.171C108.581 263.571 108.336 262.992 108.01 262.475L108.132 262.351V262.33C108.132 262.268 108.152 262.185 108.193 262.144C108.377 261.978 108.56 261.854 108.764 261.73L108.886 261.668C108.968 261.627 109.029 261.585 109.111 261.544C109.131 261.523 109.152 261.523 109.172 261.502C109.192 261.482 109.172 261.482 109.172 261.461C109.356 261.316 109.396 261.068 109.254 260.882C109.192 260.799 109.07 260.737 108.968 260.737C108.866 260.737 108.764 260.778 108.683 260.84L108.662 260.861C108.642 260.882 108.621 260.903 108.601 260.903C108.54 260.965 108.479 261.027 108.438 261.089C108.417 261.13 108.377 261.151 108.356 261.171C108.214 261.337 108.03 261.502 107.846 261.627C107.806 261.647 107.765 261.668 107.724 261.668C107.704 261.668 107.663 261.668 107.643 261.647H107.622L107.459 261.751C107.296 261.585 107.112 261.42 106.949 261.254C106.195 260.654 105.257 260.282 104.298 260.179L104.278 260.013V260.034C104.217 259.992 104.196 259.93 104.176 259.868C104.176 259.641 104.176 259.413 104.217 259.165V259.144C104.217 259.103 104.237 259.061 104.237 259.02C104.257 258.937 104.257 258.855 104.278 258.772V258.648C104.298 258.441 104.135 258.234 103.931 258.213C103.809 258.193 103.687 258.255 103.585 258.358C103.503 258.441 103.462 258.544 103.462 258.648V258.751C103.462 258.834 103.483 258.917 103.503 258.999C103.523 259.041 103.523 259.082 103.523 259.124V259.144C103.564 259.372 103.564 259.599 103.564 259.848C103.544 259.91 103.523 259.972 103.462 260.013V260.054L103.442 260.22C103.217 260.241 102.993 260.282 102.748 260.323C101.79 260.53 100.913 261.047 100.24 261.771L100.118 261.689H100.097C100.077 261.689 100.057 261.709 100.016 261.709C99.9751 261.709 99.9344 261.689 99.8936 261.668C99.71 261.523 99.5265 261.358 99.3838 261.192C99.3634 261.151 99.3226 261.13 99.3022 261.109C99.241 261.047 99.2002 260.985 99.1391 260.923C99.1187 260.903 99.0983 260.903 99.0779 260.882L99.0575 260.861C98.9759 260.799 98.874 260.758 98.772 260.758C98.6497 260.758 98.5477 260.799 98.4865 260.903C98.3642 261.089 98.405 261.337 98.5681 261.482C98.5885 261.482 98.5885 261.502 98.5885 261.502C98.5885 261.502 98.6293 261.544 98.6497 261.544C98.7108 261.585 98.7924 261.627 98.874 261.668L98.9963 261.73C99.2002 261.854 99.4042 261.978 99.5673 262.144C99.6081 262.185 99.6489 262.268 99.6285 262.33V262.309L99.7508 262.433C99.7304 262.475 99.71 262.495 99.6897 262.537C99.0575 263.55 98.7924 264.75 98.9759 265.929L98.8128 265.971C98.8128 265.991 98.7924 265.991 98.7924 265.991C98.772 266.053 98.7108 266.095 98.6497 266.136C98.4253 266.198 98.201 266.239 97.9563 266.26C97.9155 266.26 97.8748 266.26 97.834 266.281C97.7524 266.281 97.6708 266.301 97.5893 266.301C97.5689 266.301 97.5485 266.322 97.5077 266.322C97.4873 266.322 97.4873 266.322 97.4669 266.343C97.2426 266.384 97.0999 266.591 97.1406 266.819C97.1814 267.005 97.365 267.129 97.5485 267.108C97.5893 267.108 97.6097 267.108 97.6504 267.088C97.6708 267.088 97.6708 267.088 97.6708 267.067C97.6708 267.046 97.732 267.067 97.7524 267.067C97.834 267.046 97.9155 267.005 97.9767 266.984C98.0175 266.963 98.0583 266.943 98.0991 266.943H98.1195C98.3438 266.86 98.5477 266.798 98.7924 266.757H98.8128C98.874 266.757 98.9351 266.777 98.9759 266.819C98.9963 266.819 98.9963 266.839 98.9963 266.839L99.1799 266.819C99.4857 267.77 100.057 268.618 100.852 269.239C101.036 269.384 101.199 269.508 101.403 269.611L101.301 269.756C101.301 269.777 101.321 269.777 101.321 269.777C101.362 269.839 101.362 269.922 101.341 269.984C101.26 270.19 101.137 270.397 101.015 270.583V270.604C100.995 270.646 100.974 270.666 100.934 270.708C100.893 270.749 100.852 270.832 100.791 270.914C100.77 270.935 100.77 270.956 100.75 270.976C100.75 270.976 100.75 270.997 100.73 270.997C100.628 271.204 100.709 271.452 100.893 271.556C100.934 271.576 100.995 271.597 101.036 271.597C101.199 271.597 101.341 271.494 101.423 271.349C101.423 271.349 101.423 271.328 101.443 271.328C101.443 271.307 101.464 271.287 101.484 271.266C101.505 271.183 101.545 271.121 101.566 271.039L101.607 270.914C101.668 270.687 101.77 270.48 101.872 270.273C101.912 270.211 101.974 270.17 102.035 270.149C102.055 270.149 102.055 270.149 102.055 270.128L102.137 269.963C102.708 270.19 103.299 270.294 103.911 270.294C104.278 270.294 104.645 270.252 105.012 270.149C105.236 270.108 105.461 270.025 105.665 269.963L105.746 270.108C105.766 270.108 105.767 270.108 105.767 270.128C105.828 270.149 105.889 270.19 105.93 270.252C106.032 270.459 106.134 270.666 106.195 270.894V270.914L106.236 271.039C106.256 271.121 106.276 271.204 106.317 271.266C106.337 271.287 106.337 271.307 106.358 271.328C106.358 271.328 106.358 271.349 106.378 271.349C106.46 271.494 106.603 271.597 106.766 271.597C106.827 271.597 106.868 271.576 106.929 271.556C107.01 271.514 107.092 271.432 107.112 271.328C107.133 271.225 107.133 271.121 107.092 271.018C107.092 270.997 107.072 270.997 107.072 270.997C107.072 270.976 107.051 270.956 107.031 270.935C106.99 270.852 106.949 270.79 106.888 270.728C106.868 270.687 106.847 270.666 106.806 270.625V270.583C106.664 270.397 106.562 270.19 106.48 269.984C106.46 269.922 106.46 269.839 106.501 269.777C106.501 269.756 106.521 269.756 106.521 269.756L106.46 269.591C107.5 268.949 108.295 267.956 108.662 266.777L108.825 266.798C108.846 266.798 108.846 266.777 108.846 266.777C108.886 266.736 108.948 266.715 109.009 266.715H109.029C109.254 266.757 109.478 266.819 109.682 266.901H109.702C109.743 266.922 109.784 266.943 109.825 266.943C109.906 266.984 109.967 267.025 110.049 267.046C110.069 267.046 110.09 267.067 110.13 267.067C110.151 267.067 110.151 267.067 110.171 267.088C110.212 267.108 110.232 267.108 110.273 267.108C110.457 267.108 110.62 266.984 110.681 266.819C110.661 266.591 110.497 266.426 110.314 266.384ZM104.421 265.743L103.87 266.012L103.319 265.743L103.177 265.143L103.564 264.647H104.176L104.563 265.143L104.421 265.743ZM107.745 264.398C107.846 264.833 107.867 265.267 107.826 265.702L105.889 265.143C105.705 265.102 105.603 264.916 105.644 264.729C105.665 264.667 105.685 264.626 105.726 264.585L107.255 263.178C107.479 263.55 107.643 263.964 107.745 264.398ZM106.643 262.413L104.971 263.612C104.828 263.695 104.625 263.674 104.523 263.53C104.482 263.488 104.461 263.447 104.461 263.385L104.339 261.296C105.236 261.399 106.032 261.792 106.643 262.413ZM102.952 261.358L103.36 261.275L103.258 263.343C103.258 263.53 103.095 263.674 102.912 263.674C102.85 263.674 102.81 263.654 102.748 263.633L101.056 262.413C101.586 261.895 102.239 261.523 102.952 261.358ZM100.465 263.178L101.974 264.543C102.116 264.667 102.137 264.874 102.014 265.019C101.974 265.081 101.933 265.102 101.851 265.122L99.8732 265.702C99.812 264.833 100.016 263.943 100.465 263.178ZM100.118 266.674L102.137 266.322C102.3 266.322 102.463 266.426 102.483 266.591C102.504 266.653 102.504 266.736 102.463 266.798L101.688 268.701C100.974 268.225 100.403 267.501 100.118 266.674ZM104.747 269.239C104.461 269.301 104.176 269.342 103.87 269.342C103.442 269.342 102.993 269.26 102.585 269.135L103.585 267.294C103.687 267.17 103.85 267.129 103.992 267.212C104.054 267.253 104.094 267.294 104.156 267.356L105.134 269.156C105.012 269.177 104.89 269.198 104.747 269.239ZM107.235 267.439C106.929 267.936 106.501 268.37 106.011 268.68L105.216 266.736C105.175 266.57 105.257 266.405 105.399 266.343C105.461 266.322 105.522 266.301 105.583 266.301L107.622 266.653C107.52 266.943 107.398 267.212 107.235 267.439Z" fill="white"/>
<path d="M129.24 264.24L134.184 258.8H132.36L127.688 263.856V258.8H126.2V270H127.688V264.624L132.52 270H134.344L129.24 264.24ZM140.732 266.24C140.732 268.032 139.804 268.88 138.412 268.88C137.18 268.88 136.428 268.128 136.428 266.832V262H135.036V266.912C135.036 268.944 136.268 270.208 138.14 270.208C139.308 270.208 140.172 269.76 140.732 268.848V270H142.124V262H140.732V266.24ZM148.66 261.792C147.332 261.792 146.324 262.32 145.636 263.376V258.8H144.243V270H145.636V268.624C146.324 269.68 147.332 270.208 148.66 270.208C149.78 270.208 150.74 269.808 151.524 268.992C152.308 268.176 152.708 267.168 152.708 266C152.708 264.832 152.308 263.84 151.524 263.024C150.74 262.208 149.78 261.792 148.66 261.792ZM148.484 268.864C147.668 268.864 146.996 268.592 146.452 268.048C145.908 267.488 145.636 266.816 145.636 266C145.636 265.184 145.908 264.512 146.452 263.968C146.996 263.408 147.668 263.136 148.484 263.136C149.284 263.136 149.956 263.408 150.5 263.968C151.044 264.512 151.316 265.184 151.316 266C151.316 266.816 151.044 267.488 150.5 268.048C149.956 268.592 149.284 268.864 148.484 268.864ZM162.049 266.64C162.081 266.432 162.097 266.224 162.097 266.016C162.097 264.848 161.729 263.856 160.977 263.04C160.241 262.208 159.281 261.792 158.113 261.792C156.881 261.792 155.873 262.192 155.089 262.992C154.305 263.792 153.921 264.8 153.921 266C153.921 267.216 154.321 268.224 155.105 269.024C155.905 269.808 156.945 270.208 158.209 270.208C159.777 270.208 160.945 269.6 161.729 268.4L160.545 267.728C160.065 268.512 159.297 268.896 158.241 268.896C156.721 268.896 155.617 268.064 155.345 266.64H162.049ZM158.113 263.104C159.393 263.104 160.449 263.904 160.689 265.424H155.345C155.585 264.016 156.625 263.104 158.113 263.104ZM165.089 262H163.697V270H165.089V265.76C165.089 264.88 165.329 264.256 165.825 263.856C166.321 263.456 166.897 263.28 167.585 263.312V261.856C166.385 261.856 165.553 262.352 165.089 263.344V262ZM172.931 261.792C171.763 261.792 170.899 262.24 170.339 263.152V262H168.947V270H170.339V265.76C170.339 263.968 171.267 263.12 172.659 263.12C173.891 263.12 174.643 263.872 174.643 265.168V270H176.035V265.088C176.035 263.056 174.803 261.792 172.931 261.792ZM185.658 266.64C185.69 266.432 185.706 266.224 185.706 266.016C185.706 264.848 185.338 263.856 184.586 263.04C183.85 262.208 182.89 261.792 181.722 261.792C180.49 261.792 179.482 262.192 178.698 262.992C177.914 263.792 177.53 264.8 177.53 266C177.53 267.216 177.93 268.224 178.714 269.024C179.514 269.808 180.554 270.208 181.818 270.208C183.386 270.208 184.554 269.6 185.338 268.4L184.154 267.728C183.674 268.512 182.906 268.896 181.85 268.896C180.33 268.896 179.226 268.064 178.954 266.64H185.658ZM181.722 263.104C183.002 263.104 184.058 263.904 184.298 265.424H178.954C179.194 264.016 180.234 263.104 181.722 263.104ZM191.424 262H189.296V259.76L187.904 260.176V262H186.32V263.344H187.904V267.68C187.904 269.664 188.992 270.32 191.424 270V268.752C190 268.816 189.296 268.912 189.296 267.68V263.344H191.424V262ZM200.345 266.64C200.377 266.432 200.393 266.224 200.393 266.016C200.393 264.848 200.025 263.856 199.273 263.04C198.537 262.208 197.577 261.792 196.409 261.792C195.177 261.792 194.169 262.192 193.385 262.992C192.601 263.792 192.217 264.8 192.217 266C192.217 267.216 192.617 268.224 193.401 269.024C194.201 269.808 195.241 270.208 196.505 270.208C198.073 270.208 199.241 269.6 200.025 268.4L198.841 267.728C198.361 268.512 197.593 268.896 196.537 268.896C195.017 268.896 193.913 268.064 193.641 266.64H200.345ZM196.409 263.104C197.689 263.104 198.745 263.904 198.985 265.424H193.641C193.881 264.016 194.921 263.104 196.409 263.104ZM202.881 264.16C202.881 263.472 203.521 263.088 204.305 263.088C205.153 263.088 205.729 263.424 206.017 264.112L207.185 263.456C206.673 262.416 205.601 261.792 204.305 261.792C203.489 261.792 202.817 262.016 202.273 262.464C201.745 262.912 201.473 263.488 201.473 264.176C201.473 265.872 203.105 266.288 204.369 266.624C205.249 266.832 205.953 267.184 205.953 267.808C205.953 268.56 205.281 268.896 204.369 268.896C203.393 268.896 202.641 268.416 202.385 267.648L201.185 268.336C201.649 269.472 202.817 270.208 204.369 270.208C205.249 270.208 205.953 269.984 206.513 269.552C207.073 269.12 207.361 268.528 207.361 267.808C207.377 266.096 205.713 265.632 204.465 265.36C203.585 265.12 202.881 264.784 202.881 264.16ZM220.689 267.952C221.121 267.248 221.409 266.448 221.553 265.568L220.273 264.832C220.161 265.632 219.969 266.304 219.697 266.864L216.641 263.6C215.985 262.896 215.649 262.4 215.649 261.696C215.649 260.72 216.465 260.032 217.489 260.032C218.449 260.032 219.233 260.624 219.553 261.6L220.801 260.88C220.273 259.456 218.945 258.592 217.457 258.592C216.545 258.592 215.777 258.88 215.121 259.456C214.481 260.032 214.161 260.784 214.161 261.712C214.161 262.464 214.401 263.136 214.881 263.744C213.537 264.4 212.833 265.616 212.833 266.976C212.833 267.968 213.185 268.752 213.873 269.344C214.561 269.92 215.473 270.208 216.593 270.208C217.889 270.208 218.961 269.824 219.793 269.04L220.929 270.256L222.177 269.536L220.689 267.952ZM216.625 268.8C215.169 268.8 214.321 268.08 214.321 266.88C214.321 266.032 214.785 265.2 215.809 264.768L218.833 268.016C218.241 268.544 217.505 268.8 216.625 268.8ZM227.747 258.8V270H229.235V266H231.811C232.851 266 233.699 265.648 234.387 264.96C235.075 264.272 235.427 263.408 235.427 262.4C235.427 261.376 235.075 260.528 234.387 259.84C233.699 259.152 232.851 258.8 231.811 258.8H227.747ZM229.235 264.608V260.192H231.811C233.043 260.192 233.955 261.12 233.955 262.4C233.955 263.024 233.747 263.552 233.347 263.984C232.947 264.4 232.435 264.608 231.811 264.608H229.235ZM242.56 266.24C242.56 268.032 241.632 268.88 240.24 268.88C239.008 268.88 238.256 268.128 238.256 266.832V262H236.864V266.912C236.864 268.944 238.096 270.208 239.968 270.208C241.136 270.208 242 269.76 242.56 268.848V270H243.952V262H242.56V266.24ZM247.464 270V258.32H246.072V270H247.464ZM255.107 266.24C255.107 268.032 254.179 268.88 252.787 268.88C251.555 268.88 250.803 268.128 250.803 266.832V262H249.411V266.912C249.411 268.944 250.643 270.208 252.515 270.208C253.683 270.208 254.547 269.76 255.107 268.848V270H256.499V262H255.107V266.24ZM267.259 261.792C266.139 261.792 265.307 262.24 264.747 263.152C264.251 262.24 263.467 261.792 262.395 261.792C261.355 261.792 260.555 262.224 260.011 263.072V262H258.618V270H260.011V265.552C260.011 263.936 260.891 263.12 262.059 263.12C263.099 263.12 263.755 263.84 263.755 265.072V270H265.147V265.552C265.147 263.904 265.915 263.12 267.115 263.12C268.187 263.12 268.875 263.84 268.875 265.072V270H270.267V265.024C270.267 263.04 269.051 261.792 267.259 261.792ZM272.901 260.544C273.413 260.544 273.829 260.128 273.829 259.616C273.829 259.104 273.413 258.672 272.901 258.672C272.373 258.672 271.957 259.104 271.957 259.616C271.957 260.128 272.373 260.544 272.901 260.544ZM273.589 270V262H272.197V270H273.589Z" fill="black"/>
</g>
<defs>
<filter id="filter0_d" x="0" y="0" width="668" height="497" filterUnits="userSpaceOnUse" color-interpolation-filters="sRGB">
<feFlood flood-opacity="0" result="BackgroundImageFix"/>
<feColorMatrix in="SourceAlpha" type="matrix" values="0 0 0 0 0 0 0 0 0 0 0 0 0 0 0 0 0 0 127 0" result="hardAlpha"/>
<feOffset dy="6"/>
<feGaussianBlur stdDeviation="18"/>
<feColorMatrix type="matrix" values="0 0 0 0 0 0 0 0 0 0 0 0 0 0 0 0 0 0 0.1 0"/>
<feBlend mode="normal" in2="BackgroundImageFix" result="effect1_dropShadow"/>
<feBlend mode="normal" in="SourceGraphic" in2="effect1_dropShadow" result="shape"/>
</filter>
<linearGradient id="paint0_linear" x1="102.946" y1="183.282" x2="97.4349" y2="199.563" gradientUnits="userSpaceOnUse">
<stop stop-color="#114A8B"/>
<stop offset="1" stop-color="#0669BC"/>
</linearGradient>
<linearGradient id="paint1_linear" x1="104.667" y1="190.869" x2="103.393" y2="191.3" gradientUnits="userSpaceOnUse">
<stop stop-opacity="0.3"/>
<stop offset="0.071" stop-opacity="0.2"/>
<stop offset="0.321" stop-opacity="0.1"/>
<stop offset="0.623" stop-opacity="0.05"/>
<stop offset="1" stop-opacity="0"/>
</linearGradient>
<linearGradient id="paint2_linear" x1="103.966" y1="182.807" x2="110.016" y2="198.924" gradientUnits="userSpaceOnUse">
<stop stop-color="#3CCBF4"/>
<stop offset="1" stop-color="#2892DF"/>
</linearGradient>
<clipPath id="clip0">
<rect width="18" height="16.9565" fill="white" transform="translate(95 182)"/>
</clipPath>
</defs>
</svg>
