<svg xmlns="http://www.w3.org/2000/svg" fill="none" viewBox="0 0 588 243">
  <defs/>
  <g filter="url(#filter0_d)">
    <rect width="516" height="171" x="36" y="30" fill="#fff" rx="12"/>
    <path fill="#F26E7E" fill-rule="evenodd" d="M99 120.9c4-2.3 4-9.6 0-16.4-3.8-6.7-10.2-10.4-14-8.1-4 2.2-4 9.6 0 16.3 3.8 6.8 10.2 10.4 14 8.2zm.1 14.4c3.9 6.8 3.9 14.1 0 16.4-4 2.2-10.3-1.4-14.2-8.2-3.9-6.7-3.9-14 0-16.3 4-2.3 10.3 1.4 14.2 8.1zm26.7 15.5c3.9 6.7 3.8 14 0 16.3-4 2.2-10.3-1.4-14.2-8.2-4-6.7-4-14 0-16.3 4-2.3 10.2 1.4 14.2 8.2zm0-30.9c3.8 6.8 3.8 14.1 0 16.4-4 2.2-10.3-1.4-14.2-8.2-4-6.7-4-14 0-16.3 3.9-2.3 10.2 1.4 14.1 8.2z" clip-rule="evenodd"/>
    <path fill="#8A3391" fill-rule="evenodd" d="M179 112.7c4-6.7 4-14 0-16.3-3.9-2.3-10.2 1.4-14.1 8.2-4 6.7-3.9 14 0 16.3 4 2.2 10.3-1.4 14.2-8.2zm0 14.5c4 2.3 4 9.6 0 16.3-3.8 6.8-10.2 10.4-14 8.2-4-2.3-4-9.6 0-16.3 3.8-6.8 10.2-10.5 14-8.2zm-26.6 15.4c4 2.2 4 9.6 0 16.3-3.9 6.8-10.2 10.4-14.1 8.2-4-2.3-4-9.6 0-16.4 3.9-6.7 10.2-10.4 14.1-8.1zm0-30.8c4 2.2 4 9.6 0 16.3-3.9 6.8-10.2 10.4-14.1 8.2-4-2.3-4-9.6 0-16.4 3.9-6.7 10.2-10.4 14.1-8.1z" clip-rule="evenodd"/>
    <path fill="#F7BF2A" fill-rule="evenodd" d="M146.1 70.2c0 4.5-6.3 8.2-14.1 8.2s-14.1-3.7-14.1-8.2c0-4.5 6.3-8.2 14-8.2 7.9 0 14.2 3.7 14.2 8.2zm-26.6 15.3c0 4.6-6.4 8.2-14.2 8.2-7.8 0-14.1-3.6-14.1-8.2 0-4.5 6.3-8.1 14.1-8.1s14.2 3.6 14.2 8.1zm39.2 8.2c7.8 0 14.1-3.6 14.1-8.2 0-4.5-6.3-8.1-14.1-8.1s-14.2 3.6-14.2 8.1c0 4.6 6.4 8.2 14.2 8.2zM146 101c0 4.5-6.3 8.1-14.1 8.1s-14.1-3.6-14.1-8.1c0-4.6 6.3-8.2 14-8.2 7.9 0 14.2 3.6 14.2 8.2z" clip-rule="evenodd"/>
    <path fill="#000" fill-rule="evenodd" d="M336.2 81h5.3c1.6 0 2.5 1 2.5 2.5v61c0 1.7-.9 2.6-2.5 2.6h-5.3c-1.6 0-2.5-1-2.5-2.5v-61c0-1.7.9-2.6 2.5-2.6zm-101 66c1.6 0 2.5-.8 2.5-2.4V124h10.6c13.5 0 22-8 22-20.2 0-12-8.5-20.2-22-20.2h-18.8c-1.6 0-2.5 1-2.5 2.6v58.3c0 1.6 1 2.5 2.5 2.5h5.7zm2.5-54.3h10c7.6 0 11.9 4.4 11.9 11.2 0 6.9-4.3 11.3-12 11.3h-10V92.7zm40.2 10v26.4c0 11.6 7.5 19 18.8 19 6 0 11-3 14.2-7.2v3.7c0 1.6 1 2.5 2.6 2.5h5.3c1.6 0 2.5-1 2.5-2.5v-41.9c0-1.6-.9-2.5-2.5-2.5h-5.3c-1.7 0-2.6 1-2.6 2.5v23c0 7.8-5.6 13.3-12.1 13.3-6.3 0-10.6-4.4-10.6-10.8v-25.5c0-1.6-.9-2.5-2.5-2.5h-5.2c-1.7 0-2.6 1-2.6 2.5zm77.6 0v26.4c0 11.6 7.5 19 18.8 19 6 0 11-3 14.2-7.2v3.7c0 1.6 1 2.5 2.6 2.5h5.3c1.6 0 2.5-1 2.5-2.5v-41.9c0-1.6-.9-2.5-2.5-2.5H391c-1.7 0-2.6 1-2.6 2.5v23c0 7.8-5.6 13.3-12.1 13.3-6.3 0-10.6-4.4-10.6-10.8v-25.5c0-1.6-.9-2.5-2.5-2.5h-5.2c-1.7 0-2.6 1-2.6 2.5zM484 118.2v26.4c0 1.6-1 2.5-2.5 2.5H476c-1.7 0-2.6-.9-2.6-2.5v-25.5c0-6.3-4-10.8-9.7-10.8-5.9 0-11.4 6-11.4 13v23.3c0 1.6-.9 2.5-2.5 2.5h-5.3c-1.7 0-2.6-.9-2.6-2.5v-25.5c0-6.3-3.9-10.8-9.7-10.8-5.6 0-11.4 5.4-11.4 13v23.3c0 1.6-.9 2.5-2.5 2.5H413c-1.6 0-2.5-.9-2.5-2.5v-41.9c0-1.6.9-2.5 2.5-2.5h5.3c1.6 0 2.5 1 2.5 2.5v3.6a17.2 17.2 0 0129.5 2.5c3.1-5.8 8.8-9.7 15.5-9.7 10.2 0 18 7.5 18 19zM507 87.4c0-3.5-2.8-6.3-6.4-6.3a6.3 6.3 0 00-6.4 6.3c0 3.6 2.7 6.3 6.4 6.3 3.6 0 6.4-2.7 6.4-6.3zm-1.3 15.3c0-1.6-.9-2.5-2.5-2.5h-5.3c-1.6 0-2.5 1-2.5 2.5v41.9c0 1.6 1 2.5 2.5 2.5h5.3c1.6 0 2.5-1 2.5-2.5v-41.9z" clip-rule="evenodd"/>
  </g>
  <defs>
    <filter id="filter0_d" width="588" height="243" x="0" y="0" color-interpolation-filters="sRGB" filterUnits="userSpaceOnUse">
      <feFlood flood-opacity="0" result="BackgroundImageFix"/>
      <feColorMatrix in="SourceAlpha" values="0 0 0 0 0 0 0 0 0 0 0 0 0 0 0 0 0 0 127 0"/>
      <feOffset dy="6"/>
      <feGaussianBlur stdDeviation="18"/>
      <feColorMatrix values="0 0 0 0 0 0 0 0 0 0 0 0 0 0 0 0 0 0 0.1 0"/>
      <feBlend in2="BackgroundImageFix" result="effect1_dropShadow"/>
      <feBlend in="SourceGraphic" in2="effect1_dropShadow" result="shape"/>
    </filter>
  </defs>
</svg>