<svg width="210" height="297" viewBox="0 0 210 297" fill="none" xmlns="http://www.w3.org/2000/svg">
<rect x="0.5" y="0.5" width="209" height="295.4" fill="white"/>
<path d="M38.336 52.872V60.104C38.336 60.68 38.016 61 37.44 61H35.456C34.88 61 34.56 60.68 34.56 60.104V39.496C34.56 38.92 34.88 38.6 35.456 38.6H42.096C46.864 38.6 49.856 41.464 49.856 45.736C49.856 50.024 46.864 52.872 42.096 52.872H38.336ZM46.064 45.736C46.064 43.336 44.544 41.784 41.856 41.784H38.336V49.704H41.856C44.544 49.704 46.064 48.152 46.064 45.736ZM59.4968 61.368C55.5128 61.368 52.8728 58.728 52.8728 54.648V45.32C52.8728 44.744 53.1928 44.424 53.7688 44.424H55.6248C56.2008 44.424 56.5208 44.744 56.5208 45.32V54.328C56.5208 56.568 58.0408 58.136 60.2488 58.136C62.5528 58.136 64.5368 56.2 64.5368 53.448V45.32C64.5368 44.744 64.8568 44.424 65.4328 44.424H67.3048C67.8808 44.424 68.2008 44.744 68.2008 45.32V60.104C68.2008 60.68 67.8808 61 67.3048 61H65.4328C64.8568 61 64.5368 60.68 64.5368 60.104V58.808C63.4168 60.328 61.6088 61.368 59.4968 61.368ZM72.9015 38.536C72.9015 37.96 73.2215 37.64 73.7975 37.64H75.6535C76.2295 37.64 76.5495 37.96 76.5495 38.536V60.104C76.5495 60.68 76.2295 61 75.6535 61H73.7975C73.2215 61 72.9015 60.68 72.9015 60.104V38.536ZM87.5593 61.368C83.5753 61.368 80.9353 58.728 80.9353 54.648V45.32C80.9353 44.744 81.2553 44.424 81.8313 44.424H83.6873C84.2633 44.424 84.5833 44.744 84.5833 45.32V54.328C84.5833 56.568 86.1033 58.136 88.3113 58.136C90.6153 58.136 92.5993 56.2 92.5993 53.448V45.32C92.5993 44.744 92.9193 44.424 93.4953 44.424H95.3673C95.9433 44.424 96.2633 44.744 96.2633 45.32V60.104C96.2633 60.68 95.9433 61 95.3673 61H93.4953C92.9193 61 92.5993 60.68 92.5993 60.104V58.808C91.4793 60.328 89.6713 61.368 87.5593 61.368ZM120.276 44.04C123.876 44.04 126.628 46.696 126.628 50.776V60.104C126.628 60.68 126.308 61 125.732 61H123.86C123.284 61 122.964 60.68 122.964 60.104V51.096C122.964 48.856 121.572 47.288 119.524 47.288C117.46 47.288 115.508 49.368 115.508 51.88V60.104C115.508 60.68 115.188 61 114.612 61H112.74C112.164 61 111.844 60.68 111.844 60.104V51.096C111.844 48.856 110.452 47.288 108.404 47.288C106.436 47.288 104.388 49.176 104.388 51.88V60.104C104.388 60.68 104.068 61 103.492 61H101.62C101.044 61 100.724 60.68 100.724 60.104V45.32C100.724 44.744 101.044 44.424 101.62 44.424H103.492C104.068 44.424 104.388 44.744 104.388 45.32V46.584C105.54 45.048 107.22 44.04 109.156 44.04C111.652 44.04 113.748 45.336 114.788 47.48C115.892 45.4 117.908 44.04 120.276 44.04ZM130.563 39.912C130.563 38.648 131.539 37.672 132.819 37.672C134.099 37.672 135.091 38.648 135.091 39.912C135.091 41.16 134.099 42.136 132.819 42.136C131.539 42.136 130.563 41.16 130.563 39.912ZM130.995 45.32C130.995 44.744 131.315 44.424 131.891 44.424H133.747C134.323 44.424 134.643 44.744 134.643 45.32V60.104C134.643 60.68 134.323 61 133.747 61H131.891C131.315 61 130.995 60.68 130.995 60.104V45.32ZM156.069 53.256C156.069 58.136 152.405 61.352 147.781 61.352C143.157 61.352 139.493 58.136 139.493 53.256V39.496C139.493 38.92 139.813 38.6 140.389 38.6H142.373C142.949 38.6 143.269 38.92 143.269 39.496V53.512C143.269 56.248 145.253 58.04 147.781 58.04C150.325 58.04 152.293 56.248 152.293 53.512V39.496C152.293 38.92 152.613 38.6 153.189 38.6H155.173C155.749 38.6 156.069 38.92 156.069 39.496V53.256ZM164.774 52.872V60.104C164.774 60.68 164.454 61 163.878 61H161.894C161.318 61 160.998 60.68 160.998 60.104V39.496C160.998 38.92 161.318 38.6 161.894 38.6H168.534C173.302 38.6 176.294 41.464 176.294 45.736C176.294 50.024 173.302 52.872 168.534 52.872H164.774ZM172.502 45.736C172.502 43.336 170.982 41.784 168.294 41.784H164.774V49.704H168.294C170.982 49.704 172.502 48.152 172.502 45.736Z" fill="#131314"/>
<path d="M63.1307 80.8182H64.3636V88.0966C64.3636 88.7462 64.2443 89.2981 64.0057 89.7521C63.767 90.2062 63.4306 90.5509 62.9964 90.7862C62.5623 91.0215 62.0502 91.1392 61.4602 91.1392C60.9034 91.1392 60.4079 91.0381 59.9737 90.8359C59.5395 90.6304 59.1982 90.3388 58.9496 89.9609C58.701 89.5831 58.5767 89.134 58.5767 88.6136H59.7898C59.7898 88.902 59.861 89.1539 60.0036 89.3693C60.1494 89.5814 60.3482 89.7472 60.6001 89.8665C60.852 89.9858 61.1387 90.0455 61.4602 90.0455C61.8149 90.0455 62.1165 89.9709 62.3651 89.8217C62.6136 89.6726 62.8026 89.4538 62.9318 89.1655C63.0644 88.8738 63.1307 88.5175 63.1307 88.0966V80.8182ZM71.4879 87.8778V83.3636H72.6612V91H71.4879V89.7074H71.4084C71.2294 90.0952 70.951 90.425 70.5732 90.6967C70.1953 90.9652 69.718 91.0994 69.1413 91.0994C68.6641 91.0994 68.2398 90.995 67.8686 90.7862C67.4974 90.5741 67.2057 90.2559 66.9936 89.8317C66.7815 89.4041 66.6754 88.8655 66.6754 88.2159V83.3636H67.8487V88.1364C67.8487 88.6932 68.0045 89.1373 68.3161 89.4688C68.6309 89.8002 69.032 89.9659 69.5192 89.9659C69.8108 89.9659 70.1075 89.8913 70.4091 89.7422C70.714 89.593 70.9692 89.3643 71.1747 89.0561C71.3835 88.7479 71.4879 88.3551 71.4879 87.8778ZM75.9835 86.4062V91H74.8102V83.3636H75.9437V84.5568H76.0431C76.2221 84.169 76.4939 83.8575 76.8585 83.6222C77.2231 83.3835 77.6937 83.2642 78.2704 83.2642C78.7875 83.2642 79.2399 83.3703 79.6277 83.5824C80.0154 83.7912 80.3171 84.1094 80.5325 84.5369C80.7479 84.9612 80.8556 85.4981 80.8556 86.1477V91H79.6824V86.2273C79.6824 85.6274 79.5266 85.16 79.215 84.8253C78.9035 84.4872 78.4759 84.3182 77.9324 84.3182C77.5578 84.3182 77.2231 84.3994 76.9281 84.5618C76.6364 84.7242 76.4061 84.9612 76.237 85.2727C76.068 85.5843 75.9835 85.9621 75.9835 86.4062ZM86.2013 91.1591C85.4656 91.1591 84.8308 90.9967 84.2972 90.6719C83.7669 90.3438 83.3576 89.8864 83.0692 89.2997C82.7842 88.7098 82.6417 88.0237 82.6417 87.2415C82.6417 86.4593 82.7842 85.7699 83.0692 85.1733C83.3576 84.5734 83.7586 84.1061 84.2724 83.7713C84.7894 83.4332 85.3926 83.2642 86.082 83.2642C86.4798 83.2642 86.8725 83.3305 87.2603 83.4631C87.6481 83.5956 88.0011 83.8111 88.3192 84.1094C88.6374 84.4044 88.891 84.7955 89.0799 85.2827C89.2688 85.7699 89.3633 86.3698 89.3633 87.0824V87.5795H83.4769V86.5653H88.1701C88.1701 86.1345 88.0839 85.75 87.9116 85.4119C87.7425 85.0739 87.5006 84.8071 87.1857 84.6115C86.8742 84.416 86.5063 84.3182 86.082 84.3182C85.6147 84.3182 85.2103 84.4342 84.869 84.6662C84.5309 84.8949 84.2707 85.1932 84.0884 85.5611C83.9061 85.929 83.815 86.3234 83.815 86.7443V87.4205C83.815 87.9972 83.9144 88.486 84.1133 88.8871C84.3155 89.2848 84.5955 89.5881 84.9535 89.7969C85.3114 90.0024 85.7274 90.1051 86.2013 90.1051C86.5096 90.1051 86.788 90.062 87.0366 89.9759C87.2885 89.8864 87.5056 89.7538 87.6879 89.5781C87.8701 89.3991 88.011 89.1771 88.1104 88.9119L89.244 89.2301C89.1246 89.6146 88.9241 89.9527 88.6424 90.2443C88.3607 90.5327 88.0127 90.758 87.5984 90.9205C87.1841 91.0795 86.7184 91.1591 86.2013 91.1591ZM98.6452 80.8182V91H97.4123V82.1108H97.3526L94.8668 83.7614V82.5085L97.4123 80.8182H98.6452ZM104.755 91.1392C104.172 91.1392 103.647 91.0232 103.179 90.7912C102.712 90.5592 102.337 90.241 102.056 89.8366C101.774 89.4323 101.62 88.9716 101.593 88.4545H102.787C102.833 88.9152 103.042 89.2964 103.413 89.598C103.788 89.8963 104.235 90.0455 104.755 90.0455C105.173 90.0455 105.544 89.9477 105.869 89.7521C106.197 89.5566 106.454 89.2881 106.64 88.9467C106.828 88.602 106.923 88.2126 106.923 87.7784C106.923 87.3343 106.825 86.9382 106.63 86.5902C106.437 86.2389 106.172 85.9621 105.834 85.7599C105.496 85.5578 105.11 85.455 104.676 85.4517C104.364 85.4484 104.044 85.4964 103.716 85.5959C103.388 85.692 103.118 85.8163 102.906 85.9688L101.752 85.8295L102.369 80.8182H107.659V81.9119H103.403L103.045 84.9148H103.105C103.314 84.7491 103.575 84.6115 103.89 84.5021C104.205 84.3928 104.533 84.3381 104.875 84.3381C105.498 84.3381 106.053 84.4872 106.54 84.7855C107.031 85.0805 107.415 85.4848 107.694 85.9986C107.975 86.5123 108.116 87.099 108.116 87.7585C108.116 88.4081 107.97 88.9882 107.679 89.4986C107.39 90.0057 106.993 90.4067 106.485 90.7017C105.978 90.9934 105.402 91.1392 104.755 91.1392ZM111.478 89.608L111.399 90.1449C111.342 90.5227 111.256 90.9271 111.14 91.358C111.027 91.7888 110.91 92.1948 110.787 92.576C110.664 92.9571 110.563 93.2604 110.484 93.4858H109.589C109.632 93.2737 109.688 92.9936 109.758 92.6456C109.828 92.2976 109.897 91.9081 109.967 91.4773C110.04 91.0497 110.099 90.6122 110.146 90.1648L110.205 89.608H111.478ZM117.57 91V90.1051L120.93 86.4261C121.325 85.9953 121.65 85.6207 121.905 85.3026C122.16 84.9811 122.349 84.6795 122.472 84.3977C122.598 84.1127 122.661 83.8144 122.661 83.5028C122.661 83.1449 122.574 82.835 122.402 82.5732C122.233 82.3113 122.001 82.1091 121.706 81.9666C121.411 81.8241 121.08 81.7528 120.712 81.7528C120.321 81.7528 119.979 81.834 119.688 81.9964C119.399 82.1555 119.175 82.3793 119.016 82.6676C118.861 82.956 118.783 83.294 118.783 83.6818H117.609C117.609 83.0852 117.747 82.5616 118.022 82.1108C118.297 81.66 118.672 81.3087 119.146 81.0568C119.623 80.8049 120.158 80.679 120.751 80.679C121.348 80.679 121.877 80.8049 122.337 81.0568C122.798 81.3087 123.159 81.6484 123.421 82.076C123.683 82.5036 123.814 82.9792 123.814 83.5028C123.814 83.8774 123.746 84.2436 123.61 84.6016C123.478 84.9562 123.246 85.3523 122.914 85.7898C122.586 86.224 122.13 86.7543 121.547 87.3807L119.26 89.8267V89.9062H123.993V91H117.57ZM129.367 91.1392C128.618 91.1392 127.98 90.9354 127.453 90.5277C126.926 90.1167 126.523 89.5218 126.245 88.7429C125.967 87.9607 125.827 87.0161 125.827 85.9091C125.827 84.8087 125.967 83.8691 126.245 83.0902C126.527 82.308 126.931 81.7114 127.458 81.3004C127.988 80.8861 128.625 80.679 129.367 80.679C130.11 80.679 130.744 80.8861 131.271 81.3004C131.802 81.7114 132.206 82.308 132.484 83.0902C132.766 83.8691 132.907 84.8087 132.907 85.9091C132.907 87.0161 132.768 87.9607 132.489 88.7429C132.211 89.5218 131.808 90.1167 131.281 90.5277C130.754 90.9354 130.116 91.1392 129.367 91.1392ZM129.367 90.0455C130.11 90.0455 130.686 89.6875 131.097 88.9716C131.508 88.2557 131.714 87.2348 131.714 85.9091C131.714 85.0275 131.619 84.2768 131.43 83.657C131.245 83.0372 130.976 82.5649 130.625 82.2401C130.277 81.9152 129.858 81.7528 129.367 81.7528C128.631 81.7528 128.056 82.1158 127.642 82.8416C127.228 83.5642 127.021 84.5866 127.021 85.9091C127.021 86.7907 127.113 87.5398 127.299 88.1562C127.485 88.7727 127.751 89.2417 128.099 89.5632C128.451 89.8847 128.873 90.0455 129.367 90.0455ZM134.796 91V90.1051L138.157 86.4261C138.551 85.9953 138.876 85.6207 139.131 85.3026C139.387 84.9811 139.576 84.6795 139.698 84.3977C139.824 84.1127 139.887 83.8144 139.887 83.5028C139.887 83.1449 139.801 82.835 139.629 82.5732C139.46 82.3113 139.228 82.1091 138.933 81.9666C138.638 81.8241 138.306 81.7528 137.938 81.7528C137.547 81.7528 137.206 81.834 136.914 81.9964C136.626 82.1555 136.402 82.3793 136.243 82.6676C136.087 82.956 136.009 83.294 136.009 83.6818H134.836C134.836 83.0852 134.973 82.5616 135.249 82.1108C135.524 81.66 135.898 81.3087 136.372 81.0568C136.849 80.8049 137.385 80.679 137.978 80.679C138.575 80.679 139.103 80.8049 139.564 81.0568C140.025 81.3087 140.386 81.6484 140.648 82.076C140.91 82.5036 141.04 82.9792 141.04 83.5028C141.04 83.8774 140.973 84.2436 140.837 84.6016C140.704 84.9562 140.472 85.3523 140.141 85.7898C139.812 86.224 139.357 86.7543 138.773 87.3807L136.487 89.8267V89.9062H141.219V91H134.796ZM146.713 91.1392C146.057 91.1392 145.472 91.0265 144.958 90.8011C144.448 90.5758 144.042 90.2625 143.74 89.8615C143.442 89.4571 143.279 88.9882 143.253 88.4545H144.506C144.532 88.7827 144.645 89.0661 144.844 89.3047C145.043 89.54 145.303 89.7223 145.624 89.8516C145.946 89.9808 146.302 90.0455 146.693 90.0455C147.131 90.0455 147.518 89.9692 147.857 89.8168C148.195 89.6643 148.46 89.4522 148.652 89.1804C148.844 88.9086 148.94 88.5938 148.94 88.2358C148.94 87.8613 148.848 87.5315 148.662 87.2464C148.476 86.9581 148.205 86.7327 147.847 86.5703C147.489 86.4079 147.051 86.3267 146.534 86.3267H145.719V85.233H146.534C146.938 85.233 147.293 85.16 147.598 85.0142C147.906 84.8684 148.147 84.6629 148.319 84.3977C148.495 84.1326 148.582 83.821 148.582 83.4631C148.582 83.1184 148.506 82.8184 148.354 82.5632C148.201 82.308 147.986 82.1091 147.707 81.9666C147.432 81.8241 147.107 81.7528 146.733 81.7528C146.382 81.7528 146.05 81.8175 145.739 81.9467C145.43 82.0727 145.179 82.2566 144.983 82.4986C144.787 82.7372 144.681 83.0256 144.665 83.3636H143.472C143.491 82.83 143.652 82.3627 143.954 81.9616C144.255 81.5573 144.65 81.2424 145.137 81.017C145.628 80.7917 146.166 80.679 146.753 80.679C147.383 80.679 147.923 80.8066 148.374 81.0618C148.824 81.3137 149.171 81.6468 149.413 82.0611C149.655 82.4754 149.776 82.9228 149.776 83.4034C149.776 83.9768 149.625 84.4657 149.323 84.87C149.025 85.2744 148.619 85.5545 148.105 85.7102V85.7898C148.748 85.8958 149.25 86.1693 149.612 86.6101C149.973 87.0476 150.153 87.5895 150.153 88.2358C150.153 88.7893 150.003 89.2865 149.701 89.7273C149.403 90.1648 148.995 90.5095 148.478 90.7614C147.961 91.0133 147.373 91.1392 146.713 91.1392Z" fill="#5F6065"/>
<rect x="63" y="118.5" width="84" height="31" rx="3.5" fill="white"/>
<path d="M78.9576 139V128.818H82.3979C83.1934 128.818 83.8463 128.954 84.3567 129.226C84.8671 129.494 85.245 129.864 85.4902 130.335C85.7355 130.805 85.8581 131.34 85.8581 131.94C85.8581 132.54 85.7355 133.072 85.4902 133.536C85.245 134 84.8688 134.365 84.3617 134.63C83.8546 134.892 83.2066 135.023 82.4178 135.023H79.6337V133.909H82.378C82.9216 133.909 83.3591 133.83 83.6905 133.67C84.0253 133.511 84.2672 133.286 84.4164 132.994C84.5688 132.699 84.6451 132.348 84.6451 131.94C84.6451 131.533 84.5688 131.176 84.4164 130.871C84.2639 130.567 84.0203 130.331 83.6855 130.165C83.3508 129.996 82.9083 129.912 82.3581 129.912H80.1905V139H78.9576ZM83.7502 134.426L86.2559 139H84.824L82.3581 134.426H83.7502ZM90.8732 139.159C90.1374 139.159 89.5027 138.997 88.9691 138.672C88.4388 138.344 88.0295 137.886 87.7411 137.3C87.4561 136.71 87.3136 136.024 87.3136 135.241C87.3136 134.459 87.4561 133.77 87.7411 133.173C88.0295 132.573 88.4305 132.106 88.9442 131.771C89.4613 131.433 90.0645 131.264 90.7539 131.264C91.1516 131.264 91.5444 131.33 91.9322 131.463C92.32 131.596 92.6729 131.811 92.9911 132.109C93.3093 132.404 93.5629 132.795 93.7518 133.283C93.9407 133.77 94.0352 134.37 94.0352 135.082V135.58H88.1488V134.565H92.842C92.842 134.134 92.7558 133.75 92.5835 133.412C92.4144 133.074 92.1725 132.807 91.8576 132.612C91.546 132.416 91.1781 132.318 90.7539 132.318C90.2866 132.318 89.8822 132.434 89.5408 132.666C89.2028 132.895 88.9426 133.193 88.7603 133.561C88.578 133.929 88.4869 134.323 88.4869 134.744V135.42C88.4869 135.997 88.5863 136.486 88.7852 136.887C88.9873 137.285 89.2674 137.588 89.6254 137.797C89.9833 138.002 90.3993 138.105 90.8732 138.105C91.1815 138.105 91.4599 138.062 91.7085 137.976C91.9603 137.886 92.1774 137.754 92.3597 137.578C92.542 137.399 92.6829 137.177 92.7823 136.912L93.9158 137.23C93.7965 137.615 93.596 137.953 93.3143 138.244C93.0326 138.533 92.6845 138.758 92.2702 138.92C91.8559 139.08 91.3903 139.159 90.8732 139.159ZM98.9023 142.023C98.3356 142.023 97.8484 141.95 97.4407 141.804C97.033 141.661 96.6933 141.473 96.4215 141.237C96.1531 141.005 95.9393 140.757 95.7802 140.491L96.7148 139.835C96.8209 139.974 96.9551 140.134 97.1175 140.312C97.2799 140.495 97.502 140.652 97.7837 140.785C98.0688 140.921 98.4416 140.989 98.9023 140.989C99.5188 140.989 100.028 140.839 100.429 140.541C100.83 140.243 101.03 139.776 101.03 139.139V137.588H100.931C100.845 137.727 100.722 137.9 100.563 138.105C100.407 138.307 100.182 138.488 99.8867 138.647C99.5951 138.803 99.2006 138.881 98.7035 138.881C98.087 138.881 97.5335 138.735 97.043 138.443C96.5558 138.152 96.1696 137.727 95.8846 137.17C95.6029 136.614 95.462 135.937 95.462 135.142C95.462 134.36 95.5996 133.679 95.8746 133.099C96.1497 132.515 96.5326 132.065 97.0231 131.746C97.5136 131.425 98.0804 131.264 98.7234 131.264C99.2205 131.264 99.6149 131.347 99.9066 131.513C100.202 131.675 100.427 131.861 100.583 132.07C100.742 132.275 100.864 132.444 100.951 132.577H101.07V131.364H102.203V139.219C102.203 139.875 102.054 140.409 101.756 140.82C101.461 141.234 101.063 141.537 100.563 141.729C100.066 141.925 99.5122 142.023 98.9023 142.023ZM98.8626 137.827C99.3332 137.827 99.7309 137.719 100.056 137.504C100.381 137.288 100.627 136.978 100.797 136.574C100.966 136.17 101.05 135.686 101.05 135.122C101.05 134.572 100.967 134.086 100.801 133.665C100.636 133.245 100.391 132.915 100.066 132.676C99.7409 132.437 99.3398 132.318 98.8626 132.318C98.3654 132.318 97.9511 132.444 97.6197 132.696C97.2915 132.948 97.0446 133.286 96.8789 133.71C96.7165 134.134 96.6353 134.605 96.6353 135.122C96.6353 135.652 96.7182 136.121 96.8839 136.529C97.0529 136.933 97.3015 137.252 97.6296 137.484C97.9611 137.712 98.372 137.827 98.8626 137.827ZM104.351 139V131.364H105.525V139H104.351ZM104.948 130.091C104.719 130.091 104.522 130.013 104.356 129.857C104.194 129.701 104.113 129.514 104.113 129.295C104.113 129.077 104.194 128.889 104.356 128.734C104.522 128.578 104.719 128.5 104.948 128.5C105.176 128.5 105.372 128.578 105.534 128.734C105.7 128.889 105.783 129.077 105.783 129.295C105.783 129.514 105.7 129.701 105.534 129.857C105.372 130.013 105.176 130.091 104.948 130.091ZM113.083 133.074L112.029 133.372C111.962 133.196 111.865 133.026 111.735 132.86C111.609 132.691 111.437 132.552 111.218 132.442C110.999 132.333 110.719 132.278 110.378 132.278C109.911 132.278 109.521 132.386 109.21 132.602C108.901 132.814 108.747 133.084 108.747 133.412C108.747 133.704 108.853 133.934 109.066 134.103C109.278 134.272 109.609 134.413 110.06 134.526L111.193 134.804C111.876 134.97 112.385 135.223 112.72 135.565C113.054 135.903 113.222 136.339 113.222 136.872C113.222 137.31 113.096 137.701 112.844 138.045C112.595 138.39 112.247 138.662 111.8 138.861C111.352 139.06 110.832 139.159 110.239 139.159C109.46 139.159 108.815 138.99 108.305 138.652C107.794 138.314 107.471 137.82 107.335 137.17L108.449 136.892C108.555 137.303 108.756 137.611 109.051 137.817C109.349 138.022 109.738 138.125 110.219 138.125C110.766 138.125 111.2 138.009 111.521 137.777C111.846 137.542 112.009 137.26 112.009 136.932C112.009 136.667 111.916 136.445 111.73 136.266C111.545 136.083 111.26 135.947 110.875 135.858L109.602 135.56C108.903 135.394 108.389 135.137 108.061 134.789C107.736 134.438 107.574 133.999 107.574 133.472C107.574 133.041 107.695 132.66 107.937 132.328C108.182 131.997 108.515 131.737 108.936 131.548C109.36 131.359 109.841 131.264 110.378 131.264C111.134 131.264 111.727 131.43 112.158 131.761C112.592 132.093 112.9 132.53 113.083 133.074ZM118.309 131.364V132.358H114.352V131.364H118.309ZM115.505 129.534H116.678V136.812C116.678 137.144 116.726 137.393 116.822 137.558C116.922 137.721 117.048 137.83 117.2 137.886C117.356 137.939 117.52 137.966 117.692 137.966C117.822 137.966 117.928 137.959 118.011 137.946C118.094 137.929 118.16 137.916 118.21 137.906L118.448 138.96C118.369 138.99 118.258 139.02 118.115 139.05C117.973 139.083 117.792 139.099 117.573 139.099C117.242 139.099 116.917 139.028 116.599 138.886C116.284 138.743 116.022 138.526 115.813 138.234C115.608 137.943 115.505 137.575 115.505 137.131V129.534ZM123.194 139.159C122.458 139.159 121.823 138.997 121.289 138.672C120.759 138.344 120.35 137.886 120.061 137.3C119.776 136.71 119.634 136.024 119.634 135.241C119.634 134.459 119.776 133.77 120.061 133.173C120.35 132.573 120.751 132.106 121.265 131.771C121.782 131.433 122.385 131.264 123.074 131.264C123.472 131.264 123.865 131.33 124.252 131.463C124.64 131.596 124.993 131.811 125.311 132.109C125.63 132.404 125.883 132.795 126.072 133.283C126.261 133.77 126.355 134.37 126.355 135.082V135.58H120.469V134.565H125.162C125.162 134.134 125.076 133.75 124.904 133.412C124.735 133.074 124.493 132.807 124.178 132.612C123.866 132.416 123.498 132.318 123.074 132.318C122.607 132.318 122.203 132.434 121.861 132.666C121.523 132.895 121.263 133.193 121.081 133.561C120.898 133.929 120.807 134.323 120.807 134.744V135.42C120.807 135.997 120.907 136.486 121.105 136.887C121.308 137.285 121.588 137.588 121.946 137.797C122.304 138.002 122.72 138.105 123.194 138.105C123.502 138.105 123.78 138.062 124.029 137.976C124.281 137.886 124.498 137.754 124.68 137.578C124.862 137.399 125.003 137.177 125.103 136.912L126.236 137.23C126.117 137.615 125.916 137.953 125.635 138.244C125.353 138.533 125.005 138.758 124.591 138.92C124.176 139.08 123.711 139.159 123.194 139.159ZM128.14 139V131.364H129.274V132.517H129.353C129.493 132.139 129.744 131.833 130.109 131.597C130.474 131.362 130.885 131.244 131.342 131.244C131.428 131.244 131.536 131.246 131.665 131.249C131.794 131.253 131.892 131.258 131.958 131.264V132.457C131.919 132.447 131.828 132.433 131.685 132.413C131.546 132.389 131.398 132.378 131.243 132.378C130.871 132.378 130.54 132.456 130.248 132.612C129.96 132.764 129.731 132.976 129.562 133.248C129.396 133.516 129.314 133.823 129.314 134.168V139H128.14Z" fill="#805AC3"/>
<rect x="63" y="118.5" width="84" height="31" rx="3.5" stroke="#805AC3"/>
<path d="M100.729 192.017H83.5283V200.554H100.729V192.017Z" fill="black"/>
<path d="M83.5788 200.537H74.9358V209.225H83.5788V200.537Z" fill="black"/>
<path d="M74.9844 209.177H66.24V226.266H74.9844V209.177Z" fill="black"/>
<path d="M109.289 200.503H100.697V209.04H109.289V200.503Z" fill="black"/>
<path d="M126.591 192H109.341V200.688H126.591V192Z" fill="black"/>
<path d="M135.133 200.537H126.388V209.276H135.133V200.537Z" fill="black"/>
<path d="M143.76 209.126H135.016V226.215H143.76V209.126Z" fill="black"/>
<path d="M135.133 226.001H126.388V234.739H135.133V226.001Z" fill="black"/>
<path d="M126.492 234.635H117.899V243.172H126.492V234.635Z" fill="black"/>
<path d="M117.949 243.172H109.306V251.86H117.949V243.172Z" fill="black"/>
<path d="M83.58 226.2H74.9873V234.737H83.58V226.2Z" fill="black"/>
<path d="M92.121 234.737H83.5283V243.274H92.121V234.737Z" fill="black"/>
<path d="M109.272 251.863H100.679V260.4H109.272V251.863Z" fill="black"/>
<path d="M83.5742 217.617V200.534H92.3273V234.7H83.5742V217.617Z" fill="black"/>
<path d="M92.1038 221.886V200.534H100.705V243.237H92.1038V221.886Z" fill="black"/>
<path d="M109.278 221.926V200.532H117.93V243.319H109.278V221.926Z" fill="black"/>
<path d="M117.727 217.617V200.534H126.531V234.7H117.727V217.617Z" fill="black"/>
<path d="M74.907 217.691V209.146H84.0897V226.237H74.907V217.691Z" fill="black"/>
<path d="M126.394 217.669V209.143H135.147V226.194H126.394V217.669Z" fill="black"/>
<path d="M100.599 230.434V209.052H109.44V251.817H100.599V230.434Z" fill="black"/>
<path d="M92.1038 247.52V243.264H100.748V251.776H92.1038V247.52Z" fill="black"/>
<path d="M118.042 238.938V234.712H126.447V243.163H118.042V238.938Z" fill="black"/>
<path d="M109.306 247.549V243.235H117.939V251.863H109.306V247.549Z" fill="black"/>
<path d="M100.754 256.052V251.788H109.311V260.315H100.754V256.052Z" fill="black"/>
<path d="M117.732 217.82V200.738H126.536V234.903H117.732V217.82Z" fill="white"/>
<path d="M126.393 217.872V209.346H135.146V226.397H126.393V217.872Z" fill="white"/>
<path fill-rule="evenodd" clip-rule="evenodd" d="M109.439 243.523V252.021H100.598V243.441H92.1025V234.903H83.573V226.434H74.9116V217.889V209.343H83.573V200.738H92.1025H92.326H100.704V209.255H109.282V200.735H117.934V243.523H109.439Z" fill="#805AC3"/>
<rect x="0.5" y="0.5" width="209" height="295.4" stroke="#C0ADE1"/>
</svg>
