<svg width="140" height="186" viewBox="0 0 140 186" fill="none" xmlns="http://www.w3.org/2000/svg">
<rect x="0.5" y="0.5" width="139" height="184.986" fill="white"/>
<path d="M24.356 37.412V42.384C24.356 42.78 24.136 43 23.74 43H22.376C21.98 43 21.76 42.78 21.76 42.384V28.216C21.76 27.82 21.98 27.6 22.376 27.6H26.941C30.219 27.6 32.276 29.569 32.276 32.506C32.276 35.454 30.219 37.412 26.941 37.412H24.356ZM29.669 32.506C29.669 30.856 28.624 29.789 26.776 29.789H24.356V35.234H26.776C28.624 35.234 29.669 34.167 29.669 32.506ZM38.904 43.253C36.165 43.253 34.35 41.438 34.35 38.633V32.22C34.35 31.824 34.57 31.604 34.966 31.604H36.242C36.638 31.604 36.858 31.824 36.858 32.22V38.413C36.858 39.953 37.903 41.031 39.421 41.031C41.005 41.031 42.369 39.7 42.369 37.808V32.22C42.369 31.824 42.589 31.604 42.985 31.604H44.272C44.668 31.604 44.888 31.824 44.888 32.22V42.384C44.888 42.78 44.668 43 44.272 43H42.985C42.589 43 42.369 42.78 42.369 42.384V41.493C41.599 42.538 40.356 43.253 38.904 43.253ZM48.1198 27.556C48.1198 27.16 48.3398 26.94 48.7358 26.94H50.0118C50.4078 26.94 50.6278 27.16 50.6278 27.556V42.384C50.6278 42.78 50.4078 43 50.0118 43H48.7358C48.3398 43 48.1198 42.78 48.1198 42.384V27.556ZM58.197 43.253C55.458 43.253 53.643 41.438 53.643 38.633V32.22C53.643 31.824 53.863 31.604 54.259 31.604H55.535C55.931 31.604 56.151 31.824 56.151 32.22V38.413C56.151 39.953 57.196 41.031 58.714 41.031C60.298 41.031 61.662 39.7 61.662 37.808V32.22C61.662 31.824 61.882 31.604 62.278 31.604H63.565C63.961 31.604 64.181 31.824 64.181 32.22V42.384C64.181 42.78 63.961 43 63.565 43H62.278C61.882 43 61.662 42.78 61.662 42.384V41.493C60.892 42.538 59.649 43.253 58.197 43.253ZM80.6898 31.34C83.1648 31.34 85.0568 33.166 85.0568 35.971V42.384C85.0568 42.78 84.8368 43 84.4408 43H83.1538C82.7578 43 82.5378 42.78 82.5378 42.384V36.191C82.5378 34.651 81.5808 33.573 80.1728 33.573C78.7538 33.573 77.4118 35.003 77.4118 36.73V42.384C77.4118 42.78 77.1918 43 76.7958 43H75.5088C75.1128 43 74.8928 42.78 74.8928 42.384V36.191C74.8928 34.651 73.9358 33.573 72.5278 33.573C71.1748 33.573 69.7668 34.871 69.7668 36.73V42.384C69.7668 42.78 69.5468 43 69.1508 43H67.8638C67.4678 43 67.2478 42.78 67.2478 42.384V32.22C67.2478 31.824 67.4678 31.604 67.8638 31.604H69.1508C69.5468 31.604 69.7668 31.824 69.7668 32.22V33.089C70.5588 32.033 71.7138 31.34 73.0448 31.34C74.7608 31.34 76.2018 32.231 76.9168 33.705C77.6758 32.275 79.0618 31.34 80.6898 31.34ZM87.7622 28.502C87.7622 27.633 88.4332 26.962 89.3132 26.962C90.1932 26.962 90.8752 27.633 90.8752 28.502C90.8752 29.36 90.1932 30.031 89.3132 30.031C88.4332 30.031 87.7622 29.36 87.7622 28.502ZM88.0592 32.22C88.0592 31.824 88.2792 31.604 88.6752 31.604H89.9512C90.3472 31.604 90.5672 31.824 90.5672 32.22V42.384C90.5672 42.78 90.3472 43 89.9512 43H88.6752C88.2792 43 88.0592 42.78 88.0592 42.384V32.22ZM105.297 37.676C105.297 41.031 102.778 43.242 99.5994 43.242C96.4204 43.242 93.9014 41.031 93.9014 37.676V28.216C93.9014 27.82 94.1214 27.6 94.5174 27.6H95.8814C96.2774 27.6 96.4974 27.82 96.4974 28.216V37.852C96.4974 39.733 97.8614 40.965 99.5994 40.965C101.348 40.965 102.701 39.733 102.701 37.852V28.216C102.701 27.82 102.921 27.6 103.317 27.6H104.681C105.077 27.6 105.297 27.82 105.297 28.216V37.676ZM111.282 37.412V42.384C111.282 42.78 111.062 43 110.666 43H109.302C108.906 43 108.686 42.78 108.686 42.384V28.216C108.686 27.82 108.906 27.6 109.302 27.6H113.867C117.145 27.6 119.202 29.569 119.202 32.506C119.202 35.454 117.145 37.412 113.867 37.412H111.282ZM116.595 32.506C116.595 30.856 115.55 29.789 113.702 29.789H111.282V35.234H113.702C115.55 35.234 116.595 34.167 116.595 32.506Z" fill="#131314"/>
<path d="M37.0313 60H38V65.7187C38 66.2292 37.9063 66.6628 37.7188 67.0195C37.5313 67.3763 37.2669 67.6471 36.9258 67.832C36.5846 68.0169 36.1823 68.1094 35.7188 68.1094C35.2813 68.1094 34.8919 68.0299 34.5508 67.8711C34.2096 67.7096 33.9414 67.4805 33.7461 67.1836C33.5508 66.8867 33.4531 66.5339 33.4531 66.125H34.4062C34.4062 66.3516 34.4622 66.5495 34.5742 66.7187C34.6888 66.8854 34.8451 67.0156 35.043 67.1094C35.2409 67.2031 35.4661 67.25 35.7188 67.25C35.9974 67.25 36.2344 67.1914 36.4297 67.0742C36.625 66.957 36.7734 66.7852 36.875 66.5586C36.9792 66.3294 37.0313 66.0495 37.0313 65.7187V60ZM43.5977 65.5469V62H44.5195V68H43.5977V66.9844H43.5352C43.3945 67.2891 43.1758 67.5482 42.8789 67.7617C42.582 67.9727 42.207 68.0781 41.7539 68.0781C41.3789 68.0781 41.0456 67.9961 40.7539 67.832C40.4622 67.6654 40.2331 67.4154 40.0664 67.082C39.8997 66.7461 39.8164 66.3229 39.8164 65.8125V62H40.7383V65.75C40.7383 66.1875 40.8607 66.5365 41.1055 66.7969C41.3529 67.0573 41.668 67.1875 42.0508 67.1875C42.2799 67.1875 42.513 67.1289 42.75 67.0117C42.9896 66.8945 43.1901 66.7148 43.3516 66.4727C43.5156 66.2305 43.5977 65.9219 43.5977 65.5469ZM47.1299 64.3906V68H46.208V62H47.0986V62.9375H47.1768C47.3174 62.6328 47.5309 62.388 47.8174 62.2031C48.1038 62.0156 48.4736 61.9219 48.9268 61.9219C49.333 61.9219 49.6885 62.0052 49.9932 62.1719C50.2979 62.3359 50.5348 62.5859 50.7041 62.9219C50.8734 63.2552 50.958 63.6771 50.958 64.1875V68H50.0361V64.25C50.0361 63.7786 49.9137 63.4115 49.6689 63.1484C49.4242 62.8828 49.0882 62.75 48.6611 62.75C48.3669 62.75 48.1038 62.8138 47.8721 62.9414C47.6429 63.069 47.4619 63.2552 47.3291 63.5C47.1963 63.7448 47.1299 64.0417 47.1299 64.3906ZM55.1582 68.125C54.5801 68.125 54.0814 67.9974 53.6621 67.7422C53.2454 67.4844 52.9238 67.125 52.6973 66.6641C52.4733 66.2005 52.3613 65.6615 52.3613 65.0469C52.3613 64.4323 52.4733 63.8906 52.6973 63.4219C52.9238 62.9505 53.2389 62.5833 53.6426 62.3203C54.0488 62.0547 54.5228 61.9219 55.0645 61.9219C55.377 61.9219 55.6855 61.974 55.9902 62.0781C56.2949 62.1823 56.5723 62.3516 56.8223 62.5859C57.0723 62.8177 57.2715 63.125 57.4199 63.5078C57.5684 63.8906 57.6426 64.362 57.6426 64.9219V65.3125H53.0176V64.5156H56.7051C56.7051 64.1771 56.6374 63.875 56.502 63.6094C56.3691 63.3437 56.179 63.1341 55.9316 62.9805C55.6868 62.8268 55.3978 62.75 55.0645 62.75C54.6973 62.75 54.3796 62.8411 54.1113 63.0234C53.8457 63.2031 53.6413 63.4375 53.498 63.7266C53.3548 64.0156 53.2832 64.3255 53.2832 64.6562V65.1875C53.2832 65.6406 53.3613 66.0247 53.5176 66.3398C53.6764 66.6523 53.8965 66.8906 54.1777 67.0547C54.459 67.2161 54.7858 67.2969 55.1582 67.2969C55.4004 67.2969 55.6191 67.263 55.8145 67.1953C56.0124 67.125 56.1829 67.0208 56.3262 66.8828C56.4694 66.7422 56.5801 66.5677 56.6582 66.3594L57.5488 66.6094C57.4551 66.9115 57.2975 67.1771 57.0762 67.4062C56.8548 67.6328 56.5814 67.8099 56.2559 67.9375C55.9303 68.0625 55.5645 68.125 55.1582 68.125ZM64.9355 60V68H63.9668V61.0156H63.9199L61.9668 62.3125V61.3281L63.9668 60H64.9355ZM69.7363 68.1094C69.278 68.1094 68.8652 68.0182 68.498 67.8359C68.1309 67.6536 67.8366 67.4036 67.6152 67.0859C67.3939 66.7682 67.2728 66.4062 67.252 66H68.1895C68.2259 66.362 68.39 66.6615 68.6816 66.8984C68.9759 67.1328 69.3275 67.25 69.7363 67.25C70.0645 67.25 70.3561 67.1732 70.6113 67.0195C70.8691 66.8659 71.071 66.6549 71.2168 66.3867C71.3652 66.1159 71.4395 65.8099 71.4395 65.4687C71.4395 65.1198 71.3626 64.8086 71.209 64.5352C71.0579 64.2591 70.8496 64.0417 70.584 63.8828C70.3184 63.724 70.015 63.6432 69.6738 63.6406C69.429 63.638 69.1777 63.6758 68.9199 63.7539C68.6621 63.8294 68.4499 63.9271 68.2832 64.0469L67.377 63.9375L67.8613 60H72.0176V60.8594H68.6738L68.3926 63.2187H68.4395C68.6035 63.0885 68.8092 62.9805 69.0566 62.8945C69.304 62.8086 69.5618 62.7656 69.8301 62.7656C70.3197 62.7656 70.7559 62.8828 71.1387 63.1172C71.5241 63.349 71.8262 63.6667 72.0449 64.0703C72.2663 64.474 72.377 64.9349 72.377 65.4531C72.377 65.9635 72.2624 66.4193 72.0332 66.8203C71.8066 67.2187 71.4941 67.5339 71.0957 67.7656C70.6973 67.9948 70.2441 68.1094 69.7363 68.1094ZM75.0186 66.9062L74.9561 67.3281C74.9118 67.625 74.8441 67.9427 74.7529 68.2813C74.6644 68.6198 74.5719 68.9388 74.4756 69.2383C74.3792 69.5378 74.2998 69.776 74.2373 69.9531H73.5342C73.568 69.7865 73.6123 69.5664 73.667 69.293C73.7217 69.0195 73.7764 68.7135 73.8311 68.375C73.8883 68.0391 73.9352 67.6953 73.9717 67.3437L74.0186 66.9062H75.0186ZM79.8047 68V67.2969L82.4453 64.4062C82.7552 64.0677 83.0104 63.7734 83.2109 63.5234C83.4115 63.2708 83.5599 63.0339 83.6563 62.8125C83.7552 62.5885 83.8047 62.3542 83.8047 62.1094C83.8047 61.8281 83.737 61.5846 83.6016 61.3789C83.4688 61.1732 83.2865 61.0143 83.0547 60.9023C82.8229 60.7904 82.5625 60.7344 82.2734 60.7344C81.9661 60.7344 81.6979 60.7982 81.4688 60.9258C81.2422 61.0508 81.0664 61.2266 80.9414 61.4531C80.819 61.6797 80.7578 61.9453 80.7578 62.25H79.8359C79.8359 61.7812 79.944 61.3698 80.1602 61.0156C80.3763 60.6615 80.6706 60.3854 81.043 60.1875C81.418 59.9896 81.8385 59.8906 82.3047 59.8906C82.7734 59.8906 83.1888 59.9896 83.5508 60.1875C83.9128 60.3854 84.1966 60.6523 84.4023 60.9883C84.6081 61.3242 84.7109 61.6979 84.7109 62.1094C84.7109 62.4036 84.6576 62.6914 84.5508 62.9727C84.4466 63.2513 84.2643 63.5625 84.0039 63.9062C83.7461 64.2474 83.388 64.6641 82.9297 65.1562L81.1328 67.0781V67.1406H84.8516V68H79.8047ZM89.0742 68.1094C88.4857 68.1094 87.9844 67.9492 87.5703 67.6289C87.1563 67.306 86.8398 66.8385 86.6211 66.2266C86.4023 65.612 86.293 64.8698 86.293 64C86.293 63.1354 86.4023 62.3971 86.6211 61.7852C86.8424 61.1706 87.1602 60.7018 87.5742 60.3789C87.9909 60.0534 88.4909 59.8906 89.0742 59.8906C89.6576 59.8906 90.1563 60.0534 90.5703 60.3789C90.987 60.7018 91.3047 61.1706 91.5234 61.7852C91.7448 62.3971 91.8555 63.1354 91.8555 64C91.8555 64.8698 91.7461 65.612 91.5273 66.2266C91.3086 66.8385 90.9922 67.306 90.5781 67.6289C90.1641 67.9492 89.6628 68.1094 89.0742 68.1094ZM89.0742 67.25C89.6576 67.25 90.1107 66.9687 90.4336 66.4062C90.7565 65.8437 90.918 65.0417 90.918 64C90.918 63.3073 90.8438 62.7174 90.6953 62.2305C90.5495 61.7435 90.3385 61.3724 90.0625 61.1172C89.7891 60.862 89.4596 60.7344 89.0742 60.7344C88.4961 60.7344 88.0443 61.0195 87.7188 61.5898C87.3932 62.1576 87.2305 62.9609 87.2305 64C87.2305 64.6927 87.3034 65.2812 87.4492 65.7656C87.5951 66.25 87.8047 66.6185 88.0781 66.8711C88.3542 67.1237 88.6862 67.25 89.0742 67.25ZM93.3398 68V67.2969L95.9805 64.4062C96.2904 64.0677 96.5456 63.7734 96.7461 63.5234C96.9466 63.2708 97.0951 63.0339 97.1914 62.8125C97.2904 62.5885 97.3398 62.3542 97.3398 62.1094C97.3398 61.8281 97.2721 61.5846 97.1367 61.3789C97.0039 61.1732 96.8216 61.0143 96.5898 60.9023C96.3581 60.7904 96.0977 60.7344 95.8086 60.7344C95.5013 60.7344 95.2331 60.7982 95.0039 60.9258C94.7773 61.0508 94.6016 61.2266 94.4766 61.4531C94.3542 61.6797 94.293 61.9453 94.293 62.25H93.3711C93.3711 61.7812 93.4792 61.3698 93.6953 61.0156C93.9115 60.6615 94.2057 60.3854 94.5781 60.1875C94.9531 59.9896 95.3737 59.8906 95.8398 59.8906C96.3086 59.8906 96.724 59.9896 97.0859 60.1875C97.4479 60.3854 97.7318 60.6523 97.9375 60.9883C98.1432 61.3242 98.2461 61.6979 98.2461 62.1094C98.2461 62.4036 98.1927 62.6914 98.0859 62.9727C97.9818 63.2513 97.7995 63.5625 97.5391 63.9062C97.2812 64.2474 96.9232 64.6641 96.4648 65.1562L94.668 67.0781V67.1406H98.3867V68H93.3398ZM102.703 68.1094C102.188 68.1094 101.728 68.0208 101.324 67.8437C100.923 67.6667 100.604 67.4206 100.367 67.1055C100.133 66.7878 100.005 66.4193 99.9844 66H100.969C100.99 66.2578 101.078 66.4805 101.234 66.668C101.391 66.8529 101.595 66.9961 101.848 67.0977C102.1 67.1992 102.38 67.25 102.688 67.25C103.031 67.25 103.336 67.1901 103.602 67.0703C103.867 66.9505 104.076 66.7839 104.227 66.5703C104.378 66.3568 104.453 66.1094 104.453 65.8281C104.453 65.5339 104.38 65.2747 104.234 65.0508C104.089 64.8242 103.875 64.6471 103.594 64.5195C103.313 64.3919 102.969 64.3281 102.563 64.3281H101.922V63.4687H102.563C102.88 63.4687 103.159 63.4115 103.398 63.2969C103.641 63.1823 103.829 63.0208 103.965 62.8125C104.103 62.6042 104.172 62.3594 104.172 62.0781C104.172 61.8073 104.112 61.5716 103.992 61.3711C103.872 61.1706 103.703 61.0143 103.484 60.9023C103.268 60.7904 103.013 60.7344 102.719 60.7344C102.443 60.7344 102.182 60.7852 101.938 60.8867C101.695 60.9857 101.497 61.1302 101.344 61.3203C101.19 61.5078 101.107 61.7344 101.094 62H100.156C100.172 61.5807 100.298 61.2135 100.535 60.8984C100.772 60.5807 101.082 60.3333 101.465 60.1562C101.85 59.9792 102.273 59.8906 102.734 59.8906C103.229 59.8906 103.654 59.9909 104.008 60.1914C104.362 60.3893 104.634 60.651 104.824 60.9766C105.014 61.3021 105.109 61.6536 105.109 62.0313C105.109 62.4818 104.991 62.8659 104.754 63.1836C104.52 63.5013 104.201 63.7214 103.797 63.8438V63.9062C104.302 63.9896 104.697 64.2044 104.98 64.5508C105.264 64.8945 105.406 65.3203 105.406 65.8281C105.406 66.263 105.288 66.6536 105.051 67C104.816 67.3437 104.496 67.6146 104.09 67.8125C103.684 68.0104 103.221 68.1094 102.703 68.1094Z" fill="#5F6065"/>
<rect x="28" y="88.5" width="84" height="31" rx="3.5" fill="white"/>
<path d="M43.9576 109V98.8182H47.3979C48.1934 98.8182 48.8463 98.9541 49.3567 99.2259C49.8671 99.4943 50.245 99.8639 50.4902 100.335C50.7355 100.805 50.8581 101.34 50.8581 101.94C50.8581 102.54 50.7355 103.072 50.4902 103.536C50.245 104 49.8688 104.365 49.3617 104.63C48.8546 104.892 48.2066 105.023 47.4178 105.023H44.6337V103.909H47.378C47.9216 103.909 48.3591 103.83 48.6905 103.67C49.0253 103.511 49.2672 103.286 49.4164 102.994C49.5688 102.699 49.6451 102.348 49.6451 101.94C49.6451 101.533 49.5688 101.176 49.4164 100.871C49.2639 100.567 49.0203 100.331 48.6855 100.165C48.3508 99.9964 47.9083 99.9119 47.3581 99.9119H45.1905V109H43.9576ZM48.7502 104.426L51.2559 109H49.824L47.3581 104.426H48.7502ZM55.8732 109.159C55.1374 109.159 54.5027 108.997 53.9691 108.672C53.4388 108.344 53.0295 107.886 52.7411 107.3C52.4561 106.71 52.3136 106.024 52.3136 105.241C52.3136 104.459 52.4561 103.77 52.7411 103.173C53.0295 102.573 53.4305 102.106 53.9442 101.771C54.4613 101.433 55.0645 101.264 55.7539 101.264C56.1516 101.264 56.5444 101.33 56.9322 101.463C57.32 101.596 57.6729 101.811 57.9911 102.109C58.3093 102.404 58.5629 102.795 58.7518 103.283C58.9407 103.77 59.0352 104.37 59.0352 105.082V105.58H53.1488V104.565H57.842C57.842 104.134 57.7558 103.75 57.5835 103.412C57.4144 103.074 57.1725 102.807 56.8576 102.612C56.546 102.416 56.1781 102.318 55.7539 102.318C55.2866 102.318 54.8822 102.434 54.5408 102.666C54.2028 102.895 53.9426 103.193 53.7603 103.561C53.578 103.929 53.4869 104.323 53.4869 104.744V105.42C53.4869 105.997 53.5863 106.486 53.7852 106.887C53.9873 107.285 54.2674 107.588 54.6254 107.797C54.9833 108.002 55.3993 108.105 55.8732 108.105C56.1815 108.105 56.4599 108.062 56.7085 107.976C56.9603 107.886 57.1774 107.754 57.3597 107.578C57.542 107.399 57.6829 107.177 57.7823 106.912L58.9158 107.23C58.7965 107.615 58.596 107.953 58.3143 108.244C58.0326 108.533 57.6845 108.758 57.2702 108.92C56.8559 109.08 56.3903 109.159 55.8732 109.159ZM63.9023 112.023C63.3356 112.023 62.8484 111.95 62.4407 111.804C62.033 111.661 61.6933 111.473 61.4215 111.237C61.1531 111.005 60.9393 110.757 60.7802 110.491L61.7148 109.835C61.8209 109.974 61.9551 110.134 62.1175 110.312C62.2799 110.495 62.502 110.652 62.7837 110.785C63.0688 110.921 63.4416 110.989 63.9023 110.989C64.5188 110.989 65.0276 110.839 65.4286 110.541C65.8297 110.243 66.0302 109.776 66.0302 109.139V107.588H65.9308C65.8446 107.727 65.7219 107.9 65.5629 108.105C65.4071 108.307 65.1817 108.488 64.8867 108.647C64.5951 108.803 64.2006 108.881 63.7035 108.881C63.087 108.881 62.5335 108.735 62.043 108.443C61.5558 108.152 61.1696 107.727 60.8846 107.17C60.6029 106.614 60.462 105.937 60.462 105.142C60.462 104.36 60.5996 103.679 60.8746 103.099C61.1497 102.515 61.5326 102.065 62.0231 101.746C62.5136 101.425 63.0804 101.264 63.7234 101.264C64.2205 101.264 64.6149 101.347 64.9066 101.513C65.2016 101.675 65.427 101.861 65.5827 102.07C65.7418 102.275 65.8645 102.444 65.9506 102.577H66.07V101.364H67.2035V109.219C67.2035 109.875 67.0543 110.409 66.756 110.82C66.4611 111.234 66.0633 111.537 65.5629 111.729C65.0657 111.925 64.5122 112.023 63.9023 112.023ZM63.8626 107.827C64.3332 107.827 64.7309 107.719 65.0558 107.504C65.3806 107.288 65.6275 106.978 65.7965 106.574C65.9656 106.17 66.0501 105.686 66.0501 105.122C66.0501 104.572 65.9672 104.086 65.8015 103.665C65.6358 103.245 65.3905 102.915 65.0657 102.676C64.7409 102.437 64.3398 102.318 63.8626 102.318C63.3654 102.318 62.9511 102.444 62.6197 102.696C62.2915 102.948 62.0446 103.286 61.8789 103.71C61.7165 104.134 61.6353 104.605 61.6353 105.122C61.6353 105.652 61.7182 106.121 61.8839 106.529C62.0529 106.933 62.3015 107.252 62.6296 107.484C62.9611 107.712 63.372 107.827 63.8626 107.827ZM69.3512 109V101.364H70.5245V109H69.3512ZM69.9478 100.091C69.7191 100.091 69.5219 100.013 69.3562 99.8572C69.1938 99.7015 69.1126 99.5142 69.1126 99.2955C69.1126 99.0767 69.1938 98.8894 69.3562 98.7337C69.5219 98.5779 69.7191 98.5 69.9478 98.5C70.1765 98.5 70.372 98.5779 70.5344 98.7337C70.7002 98.8894 70.783 99.0767 70.783 99.2955C70.783 99.5142 70.7002 99.7015 70.5344 99.8572C70.372 100.013 70.1765 100.091 69.9478 100.091ZM78.0826 103.074L77.0286 103.372C76.9623 103.196 76.8645 103.026 76.7353 102.86C76.6093 102.691 76.437 102.552 76.2182 102.442C75.9995 102.333 75.7194 102.278 75.378 102.278C74.9107 102.278 74.5212 102.386 74.2097 102.602C73.9015 102.814 73.7473 103.084 73.7473 103.412C73.7473 103.704 73.8534 103.934 74.0655 104.103C74.2776 104.272 74.6091 104.413 75.0598 104.526L76.1934 104.804C76.8761 104.97 77.3849 105.223 77.7196 105.565C78.0544 105.903 78.2218 106.339 78.2218 106.872C78.2218 107.31 78.0958 107.701 77.8439 108.045C77.5953 108.39 77.2473 108.662 76.7999 108.861C76.3525 109.06 75.8321 109.159 75.2388 109.159C74.4599 109.159 73.8153 108.99 73.3049 108.652C72.7944 108.314 72.4713 107.82 72.3354 107.17L73.449 106.892C73.5551 107.303 73.7556 107.611 74.0506 107.817C74.3489 108.022 74.7383 108.125 75.2189 108.125C75.7658 108.125 76.2 108.009 76.5215 107.777C76.8463 107.542 77.0087 107.26 77.0087 106.932C77.0087 106.667 76.9159 106.445 76.7303 106.266C76.5447 106.083 76.2596 105.947 75.8752 105.858L74.6025 105.56C73.9031 105.394 73.3894 105.137 73.0613 104.789C72.7364 104.438 72.574 103.999 72.574 103.472C72.574 103.041 72.695 102.66 72.937 102.328C73.1822 101.997 73.5153 101.737 73.9363 101.548C74.3605 101.359 74.8411 101.264 75.378 101.264C76.1337 101.264 76.727 101.43 77.1578 101.761C77.592 102.093 77.9003 102.53 78.0826 103.074ZM83.3089 101.364V102.358H79.3516V101.364H83.3089ZM80.505 99.5341H81.6783V106.812C81.6783 107.144 81.7263 107.393 81.8224 107.558C81.9219 107.721 82.0478 107.83 82.2003 107.886C82.3561 107.939 82.5201 107.966 82.6925 107.966C82.8217 107.966 82.9278 107.959 83.0107 107.946C83.0935 107.929 83.1598 107.916 83.2095 107.906L83.4482 108.96C83.3686 108.99 83.2576 109.02 83.1151 109.05C82.9725 109.083 82.7919 109.099 82.5732 109.099C82.2417 109.099 81.9169 109.028 81.5987 108.886C81.2839 108.743 81.022 108.526 80.8132 108.234C80.6077 107.943 80.505 107.575 80.505 107.131V99.5341ZM88.1935 109.159C87.4577 109.159 86.823 108.997 86.2894 108.672C85.7591 108.344 85.3498 107.886 85.0614 107.3C84.7764 106.71 84.6339 106.024 84.6339 105.241C84.6339 104.459 84.7764 103.77 85.0614 103.173C85.3498 102.573 85.7508 102.106 86.2646 101.771C86.7816 101.433 87.3848 101.264 88.0742 101.264C88.4719 101.264 88.8647 101.33 89.2525 101.463C89.6403 101.596 89.9933 101.811 90.3114 102.109C90.6296 102.404 90.8832 102.795 91.0721 103.283C91.261 103.77 91.3555 104.37 91.3555 105.082V105.58H85.4691V104.565H90.1623C90.1623 104.134 90.0761 103.75 89.9038 103.412C89.7347 103.074 89.4928 102.807 89.1779 102.612C88.8664 102.416 88.4985 102.318 88.0742 102.318C87.6069 102.318 87.2025 102.434 86.8612 102.666C86.5231 102.895 86.2629 103.193 86.0806 103.561C85.8983 103.929 85.8072 104.323 85.8072 104.744V105.42C85.8072 105.997 85.9066 106.486 86.1055 106.887C86.3076 107.285 86.5877 107.588 86.9457 107.797C87.3036 108.002 87.7196 108.105 88.1935 108.105C88.5018 108.105 88.7802 108.062 89.0288 107.976C89.2807 107.886 89.4978 107.754 89.68 107.578C89.8623 107.399 90.0032 107.177 90.1026 106.912L91.2362 107.23C91.1168 107.615 90.9163 107.953 90.6346 108.244C90.3529 108.533 90.0049 108.758 89.5906 108.92C89.1763 109.08 88.7106 109.159 88.1935 109.159ZM93.1403 109V101.364H94.2738V102.517H94.3533C94.4925 102.139 94.7444 101.833 95.109 101.597C95.4736 101.362 95.8846 101.244 96.342 101.244C96.4281 101.244 96.5359 101.246 96.6651 101.249C96.7944 101.253 96.8922 101.258 96.9585 101.264V102.457C96.9187 102.447 96.8275 102.433 96.685 102.413C96.5458 102.389 96.3983 102.378 96.2425 102.378C95.8713 102.378 95.5399 102.456 95.2482 102.612C94.9599 102.764 94.7312 102.976 94.5621 103.248C94.3964 103.516 94.3136 103.823 94.3136 104.168V109H93.1403Z" fill="#805AC3"/>
<rect x="28" y="88.5" width="84" height="31" rx="3.5" stroke="#805AC3"/>
<path d="M33.0083 144.004H29.0144V145.999H33.0083V144.004Z" fill="black"/>
<path d="M29.0259 145.995H27.019V148.026H29.0259V145.995Z" fill="black"/>
<path d="M27.0304 148.014H25V152.008H27.0304V148.014Z" fill="black"/>
<path d="M34.9959 145.987H33.0007V147.983H34.9959V145.987Z" fill="black"/>
<path d="M39.0134 144H35.0078V146.03H39.0134V144Z" fill="black"/>
<path d="M40.9968 145.995H38.9663V148.037H40.9968V145.995Z" fill="black"/>
<path d="M42.9999 148.002H40.9695V151.996H42.9999V148.002Z" fill="black"/>
<path d="M40.9968 151.946H38.9663V153.989H40.9968V151.946Z" fill="black"/>
<path d="M38.9903 153.964H36.9951V155.959H38.9903V153.964Z" fill="black"/>
<path d="M37.0069 155.959H35V157.99H37.0069V155.959Z" fill="black"/>
<path d="M29.0262 151.993H27.031V153.988H29.0262V151.993Z" fill="black"/>
<path d="M31.0096 153.988H29.0144V155.983H31.0096V153.988Z" fill="black"/>
<path d="M34.992 157.99H32.9968V159.985H34.992V157.99Z" fill="black"/>
<path d="M29.0249 149.987V145.995H31.0573V153.979H29.0249V149.987Z" fill="black"/>
<path d="M31.0056 150.985V145.995H33.0028V155.975H31.0056V150.985Z" fill="black"/>
<path d="M34.9932 150.994V145.994H37.0022V155.994H34.9932V150.994Z" fill="black"/>
<path d="M36.9553 149.987V145.995H38.9996V153.979H36.9553V149.987Z" fill="black"/>
<path d="M27.0125 150.004V148.007H29.1447V152.001H27.0125V150.004Z" fill="black"/>
<path d="M38.9678 149.999V148.007H41.0002V151.991H38.9678V149.999Z" fill="black"/>
<path d="M32.978 152.982V147.985H35.031V157.98H32.978V152.982Z" fill="black"/>
<path d="M31.0056 156.975V155.981H33.0128V157.97H31.0056V156.975Z" fill="black"/>
<path d="M37.0283 154.97V153.982H38.9799V155.957H37.0283V154.97Z" fill="black"/>
<path d="M35 156.982V155.974H37.0045V157.99H35V156.982Z" fill="black"/>
<path d="M33.0142 158.969V157.973H35.0011V159.966H33.0142V158.969Z" fill="black"/>
<path fill-rule="evenodd" clip-rule="evenodd" d="M35.0307 156.041V158.027H32.9778V156.022H31.0051V154.027H29.0245V152.048H27.0134V150.05V148.053H29.0245V146.042H31.0051H31.057H33.0023V148.033H34.9943V146.042H37.0033V146.042H39.0005V148.054H40.9997V152.039H39.0005V154.027H37.0033V156.041H35.0307Z" fill="#FED05D"/>
<path d="M57.0083 144.004H53.0144V145.999H57.0083V144.004Z" fill="black"/>
<path d="M53.0259 145.995H51.019V148.026H53.0259V145.995Z" fill="black"/>
<path d="M51.0304 148.014H49V152.008H51.0304V148.014Z" fill="black"/>
<path d="M58.9959 145.987H57.0007V147.983H58.9959V145.987Z" fill="black"/>
<path d="M63.0134 144H59.0078V146.03H63.0134V144Z" fill="black"/>
<path d="M64.9968 145.995H62.9663V148.037H64.9968V145.995Z" fill="black"/>
<path d="M66.9999 148.002H64.9695V151.996H66.9999V148.002Z" fill="black"/>
<path d="M64.9968 151.946H62.9663V153.989H64.9968V151.946Z" fill="black"/>
<path d="M62.9903 153.964H60.9951V155.959H62.9903V153.964Z" fill="black"/>
<path d="M61.0069 155.959H59V157.99H61.0069V155.959Z" fill="black"/>
<path d="M53.0262 151.993H51.031V153.988H53.0262V151.993Z" fill="black"/>
<path d="M55.0096 153.988H53.0144V155.983H55.0096V153.988Z" fill="black"/>
<path d="M58.992 157.99H56.9968V159.985H58.992V157.99Z" fill="black"/>
<path d="M53.0249 149.987V145.995H55.0573V153.979H53.0249V149.987Z" fill="black"/>
<path d="M55.0056 150.985V145.995H57.0028V155.975H55.0056V150.985Z" fill="black"/>
<path d="M58.9932 150.994V145.994H61.0022V155.994H58.9932V150.994Z" fill="black"/>
<path d="M60.9553 149.987V145.995H62.9996V153.979H60.9553V149.987Z" fill="black"/>
<path d="M51.0125 150.004V148.007H53.1447V152.001H51.0125V150.004Z" fill="black"/>
<path d="M62.9678 149.999V148.007H65.0002V151.991H62.9678V149.999Z" fill="black"/>
<path d="M56.978 152.982V147.985H59.031V157.98H56.978V152.982Z" fill="black"/>
<path d="M55.0056 156.975V155.981H57.0128V157.97H55.0056V156.975Z" fill="black"/>
<path d="M61.0283 154.97V153.982H62.9799V155.957H61.0283V154.97Z" fill="black"/>
<path d="M59 156.982V155.974H61.0045V157.99H59V156.982Z" fill="black"/>
<path d="M57.0142 158.969V157.973H59.0011V159.966H57.0142V158.969Z" fill="black"/>
<path fill-rule="evenodd" clip-rule="evenodd" d="M59.0307 156.041V158.027H56.9778V156.022H55.0051V154.027H53.0245V152.048H51.0134V150.05V148.053H53.0245V146.042H55.0051H55.057H57.0023V148.033H58.9943V146.042H61.0033V146.042H63.0005V148.054H64.9997V152.039H63.0005V154.027H61.0033V156.041H59.0307Z" fill="#F26E7E"/>
<path d="M81.0083 144.004H77.0144V145.999H81.0083V144.004Z" fill="black"/>
<path d="M77.0259 145.995H75.019V148.026H77.0259V145.995Z" fill="black"/>
<path d="M75.0304 148.014H73V152.008H75.0304V148.014Z" fill="black"/>
<path d="M82.9959 145.987H81.0007V147.983H82.9959V145.987Z" fill="black"/>
<path d="M87.0134 144H83.0078V146.03H87.0134V144Z" fill="black"/>
<path d="M88.9968 145.995H86.9663V148.037H88.9968V145.995Z" fill="black"/>
<path d="M90.9999 148.002H88.9695V151.996H90.9999V148.002Z" fill="black"/>
<path d="M88.9968 151.946H86.9663V153.989H88.9968V151.946Z" fill="black"/>
<path d="M86.9903 153.964H84.9951V155.959H86.9903V153.964Z" fill="black"/>
<path d="M85.0069 155.959H83V157.99H85.0069V155.959Z" fill="black"/>
<path d="M77.0262 151.993H75.031V153.988H77.0262V151.993Z" fill="black"/>
<path d="M79.0096 153.988H77.0144V155.983H79.0096V153.988Z" fill="black"/>
<path d="M82.992 157.99H80.9968V159.985H82.992V157.99Z" fill="black"/>
<path d="M77.0249 149.987V145.995H79.0573V153.979H77.0249V149.987Z" fill="black"/>
<path d="M79.0056 150.985V145.995H81.0028V155.975H79.0056V150.985Z" fill="black"/>
<path d="M82.9932 150.994V145.994H85.0022V155.994H82.9932V150.994Z" fill="black"/>
<path d="M84.9553 149.987V145.995H86.9996V153.979H84.9553V149.987Z" fill="black"/>
<path d="M75.0125 150.004V148.007H77.1447V152.001H75.0125V150.004Z" fill="black"/>
<path d="M86.9678 149.999V148.007H89.0002V151.991H86.9678V149.999Z" fill="black"/>
<path d="M80.978 152.982V147.985H83.031V157.98H80.978V152.982Z" fill="black"/>
<path d="M79.0056 156.975V155.981H81.0128V157.97H79.0056V156.975Z" fill="black"/>
<path d="M85.0283 154.97V153.982H86.9799V155.957H85.0283V154.97Z" fill="black"/>
<path d="M83 156.982V155.974H85.0045V157.99H83V156.982Z" fill="black"/>
<path d="M81.0142 158.969V157.973H83.0011V159.966H81.0142V158.969Z" fill="black"/>
<path fill-rule="evenodd" clip-rule="evenodd" d="M84.9561 146.042V150.034V154.027H87.0003V152.039H88.9996V148.054H87.0003V146.042H84.9561Z" fill="white"/>
<path fill-rule="evenodd" clip-rule="evenodd" d="M83.0307 156.041V158.027H80.9778V156.022H79.0051V154.027H77.0245V152.048H75.0134V150.05V148.053H77.0245V146.042H79.0051H79.057H81.0023V148.033H82.9943V146.042H85.0033V156.041H83.0307Z" fill="#8A3391"/>
<path d="M105.008 144.004H101.014V145.999H105.008V144.004Z" fill="black"/>
<path d="M101.026 145.995H99.019V148.026H101.026V145.995Z" fill="black"/>
<path d="M99.0304 148.014H97V152.008H99.0304V148.014Z" fill="black"/>
<path d="M106.996 145.987H105.001V147.983H106.996V145.987Z" fill="black"/>
<path d="M111.013 144H107.008V146.03H111.013V144Z" fill="black"/>
<path d="M112.997 145.995H110.966V148.037H112.997V145.995Z" fill="black"/>
<path d="M115 148.002H112.969V151.996H115V148.002Z" fill="black"/>
<path d="M112.997 151.946H110.966V153.989H112.997V151.946Z" fill="black"/>
<path d="M110.99 153.964H108.995V155.959H110.99V153.964Z" fill="black"/>
<path d="M109.007 155.959H107V157.99H109.007V155.959Z" fill="black"/>
<path d="M101.026 151.993H99.031V153.988H101.026V151.993Z" fill="black"/>
<path d="M103.01 153.988H101.014V155.983H103.01V153.988Z" fill="black"/>
<path d="M106.992 157.99H104.997V159.985H106.992V157.99Z" fill="black"/>
<path d="M101.025 149.987V145.995H103.057V153.979H101.025V149.987Z" fill="black"/>
<path d="M103.006 150.985V145.995H105.003V155.975H103.006V150.985Z" fill="black"/>
<path d="M106.993 150.994V145.994H109.002V155.994H106.993V150.994Z" fill="black"/>
<path d="M108.955 149.987V145.995H111V153.979H108.955V149.987Z" fill="black"/>
<path d="M99.0125 150.004V148.007H101.145V152.001H99.0125V150.004Z" fill="black"/>
<path d="M110.968 149.999V148.007H113V151.991H110.968V149.999Z" fill="black"/>
<path d="M104.978 152.982V147.985H107.031V157.98H104.978V152.982Z" fill="black"/>
<path d="M103.006 156.975V155.981H105.013V157.97H103.006V156.975Z" fill="black"/>
<path d="M109.028 154.97V153.982H110.98V155.957H109.028V154.97Z" fill="black"/>
<path d="M107 156.982V155.974H109.005V157.99H107V156.982Z" fill="black"/>
<path d="M105.014 158.969V157.973H107.001V159.966H105.014V158.969Z" fill="black"/>
<path fill-rule="evenodd" clip-rule="evenodd" d="M107.031 156.041V158.027H104.978V156.022H103.005V154.027H101.025V152.048H99.0134V150.05V148.053H101.025V146.042H103.005H103.057H105.002V148.033H106.994V146.042H109.003V146.042H111V148.054H113V152.039H111V154.027H109.003V156.041H107.031Z" fill="white"/>
<rect x="0.5" y="0.5" width="139" height="184.986" stroke="#C0ADE1"/>
</svg>
