<svg width="19" height="19" viewBox="0 0 19 19" fill="none" xmlns="http://www.w3.org/2000/svg">
<path d="M8.74902 13.5475H10.249V12.0475H8.74902V13.5475ZM9.49902 1.54749C5.35902 1.54749 1.99902 4.90749 1.99902 9.04749C1.99902 13.1875 5.35902 16.5475 9.49902 16.5475C13.639 16.5475 16.999 13.1875 16.999 9.04749C16.999 4.90749 13.639 1.54749 9.49902 1.54749ZM9.49902 15.0475C6.19152 15.0475 3.49902 12.355 3.49902 9.04749C3.49902 5.73999 6.19152 3.04749 9.49902 3.04749C12.8065 3.04749 15.499 5.73999 15.499 9.04749C15.499 12.355 12.8065 15.0475 9.49902 15.0475ZM9.49902 4.54749C7.84152 4.54749 6.49902 5.88999 6.49902 7.54749H7.99902C7.99902 6.72249 8.67402 6.04749 9.49902 6.04749C10.324 6.04749 10.999 6.72249 10.999 7.54749C10.999 9.04749 8.74902 8.85999 8.74902 11.2975H10.249C10.249 9.60999 12.499 9.42249 12.499 7.54749C12.499 5.88999 11.1565 4.54749 9.49902 4.54749Z" fill="#2B2B2C"/>
</svg>
