<svg width="120" height="146" viewBox="0 0 120 146" fill="none" xmlns="http://www.w3.org/2000/svg">
<path d="M16.9226 122.79L0.0140381 114.738V29.9931L16.9226 21.5388L16.984 21.6265L17.0964 122.619L16.9226 122.79" fill="#4B612C"/>
<path d="M78.9219 106.082L16.9226 122.79V21.5388L78.9219 38.4474V106.082" fill="#759C3E"/>
<path d="M27.9943 58.1743L60 54.1487L60.7813 54.831V89.1979L60 90.3817L27.9943 86.5571V58.1743" fill="#4B612C"/>
<path d="M119.986 51.33L90.7981 54.3495L27.9943 44.285L59.6097 33.9763L119.986 51.33Z" fill="#3C4929"/>
<path d="M119.986 93.602L90.7981 90.583L27.9943 100.647L61.9529 109.271L119.986 93.602Z" fill="#B7CA9D"/>
<path d="M27.9943 128.829L60 144.933L61.353 109.05L27.9943 100.647V128.829Z" fill="#4B612C"/>
<path d="M119.986 114.94L60 144.933V108.699L119.986 93.6021V114.94Z" fill="#759C3E"/>
<path d="M27.9943 15.9024L60.0001 0L60.2321 0.327111L60.1337 36.0122L60.0001 36.2329L27.9943 44.2851V15.9024Z" fill="#4B612C"/>
<path d="M119.986 82.9334L60 90.3815V54.1486L119.986 61.7977V82.9334ZM119.986 51.3302L60 36.2329V0L119.986 29.993V51.3302Z" fill="#759C3E"/>
</svg>
