<svg width="120" height="120" viewBox="0 0 120 120" fill="none" xmlns="http://www.w3.org/2000/svg">
<path d="M62.9394 70.1358C70.3647 70.1358 76.3839 64.1167 76.3839 56.6917C76.3839 49.2667 70.3647 43.2476 62.9394 43.2476C55.5144 43.2476 49.4952 49.2667 49.4952 56.6917C49.4952 64.1167 55.5144 70.1358 62.9394 70.1358Z" fill="#343434"/>
<path d="M8.02836 42.4388C8.02836 42.6008 7.86621 42.9244 7.86621 43.0868C7.86621 44.5444 8.99999 45.8404 10.6198 45.8404H33.4593C34.5931 45.8404 35.403 45.1924 35.889 44.2204C40.587 33.8537 50.9535 26.8884 62.7776 26.8884C79.1377 26.8884 92.4202 40.1707 92.4202 56.5309C92.4202 72.8906 79.1377 86.1735 62.7776 86.1735C50.7911 86.1735 40.5862 79.0462 35.889 69.0034C35.403 67.8697 34.5931 67.2214 33.4588 67.2214H10.6207C9.16259 67.2214 7.86666 68.355 7.86666 69.9754C7.86666 70.137 7.86666 70.461 8.02881 70.6234C14.346 95.244 36.5372 113.386 62.9404 113.386C94.203 113.386 119.633 87.9548 119.633 56.6929C119.633 25.4307 94.2015 0 62.9396 0C36.5372 0 14.3455 18.142 8.02836 42.4388Z" fill="#343434"/>
</svg>
