<svg width="120" height="120" viewBox="0 0 120 120" fill="none" xmlns="http://www.w3.org/2000/svg">
<path d="M61.5381 44.2674C69.2753 53.3012 72.434 65.3885 70.1055 77.0527C82.2507 72.2085 86.9623 64.0864 88.396 55.9643C88.396 55.9643 92.536 40.5727 98.9718 34.1748C86.2549 36.1706 84.9697 31.1811 61.5381 44.2801" fill="#4DBEA4"/>
<path d="M42.0819 60.0004C39.5396 52.1472 35.1555 45.0162 29.2956 39.2025C29.2956 39.2025 46.9798 43.851 57.1609 76.8573C47.5545 73.9583 43.4556 64.4783 42.063 60.0004H42.0819ZM63.963 81.6004C64.2472 80.0215 68.9335 64.0552 59.6493 51.0889C44.103 33.8594 20.6714 31.4404 20.6714 31.4404C25.244 40.2825 25.3893 48.5373 30.3851 65.3688C36.4388 82.7941 58.7745 83.9689 60.4293 84.0004C61.9293 86.3689 65.3682 89.5583 73.2409 91.2067L74.1124 87.0573C67.3198 85.6362 64.8345 83.0215 63.9819 81.5815" fill="#4DBEA4"/>
<path d="M23.1789 26.3689C13.2979 31.0236 9.33474 42.3857 9.33474 59.7541C9.33474 76.8068 13.2916 88.2383 23.1789 93.2278L22.0705 97.491C6.88421 92.1668 0 80.331 0 59.8236C0 39.1583 6.88421 27.3162 22.0705 22.1057L23.1789 26.3689Z" fill="#29434B"/>
<path d="M96.3534 22.1057C111.552 27.3099 118.421 39.1583 118.421 59.8173C118.421 80.3436 111.537 92.1668 96.3502 97.4468L95.166 93.1899C105.06 88.2194 109.01 76.7689 109.01 59.7162C109.01 42.3478 105.053 30.9983 95.166 26.3436L96.3534 22.1057Z" fill="#29434B"/>
</svg>
