<svg width="120" height="120" viewBox="0 0 120 120" fill="none" xmlns="http://www.w3.org/2000/svg">
<path fill-rule="evenodd" clip-rule="evenodd" d="M60 0C26.85 0 0 26.9496 0 60.2224C0 86.871 17.175 109.379 41.025 117.359C44.025 117.886 45.15 116.079 45.15 114.498C45.15 113.068 45.075 108.325 45.075 103.282C30 106.067 26.1 99.5929 24.9 96.2055C24.225 94.4741 21.3 89.1293 18.75 87.699C16.65 86.5699 13.65 83.7848 18.675 83.7094C23.4 83.634 26.775 88.0755 27.9 89.8822C33.3 98.9906 41.925 96.4313 45.375 94.8506C45.9 90.936 47.475 88.3013 49.2 86.7956C35.85 85.29 21.9 80.0959 21.9 57.0607C21.9 50.5117 24.225 45.0915 28.05 40.8761C27.45 39.3705 25.35 33.1977 28.65 24.9171C28.65 24.9171 33.675 23.3362 45.15 31.0899C49.95 29.7349 55.05 29.0574 60.15 29.0574C65.25 29.0574 70.35 29.7349 75.15 31.0899C86.625 23.261 91.65 24.9171 91.65 24.9171C94.95 33.1977 92.85 39.3705 92.25 40.8761C96.075 45.0915 98.4 50.4364 98.4 57.0607C98.4 80.1712 84.375 85.29 71.025 86.7956C73.2 88.6778 75.075 92.2909 75.075 97.9369C75.075 105.992 75 112.466 75 114.498C75 116.079 76.125 117.961 79.125 117.359C91.0361 113.323 101.386 105.639 108.719 95.3895C116.051 85.14 119.997 72.8407 120 60.2224C120 26.9496 93.15 0 60 0Z" fill="black"/>
</svg>
