<svg width="120" height="120" viewBox="0 0 120 120" fill="none" xmlns="http://www.w3.org/2000/svg">
<g clip-path="url(#clip0)">
<path fill-rule="evenodd" clip-rule="evenodd" d="M100.44 57.8555C100.44 81.6196 81.6059 100.884 58.3724 100.884C35.1396 100.884 16.3054 81.6196 16.3054 57.8555C16.3054 34.091 35.1396 14.8262 58.3724 14.8262C81.6059 14.8262 100.44 34.091 100.44 57.8555Z" fill="#D33833"/>
<path d="M18.0222 68.5113C18.0222 68.5113 14.9768 23.6397 56.3232 22.3575L53.4387 17.5498L31.0029 25.0821L24.5925 32.4537L18.9837 43.1913L15.7783 55.6911L16.7398 64.0244" fill="#EF3D3A"/>
<path d="M29.5617 28.5006C22.181 36.0525 17.6136 46.4794 17.6136 58.0144C17.6136 69.5472 22.181 79.9752 29.5617 87.5262C36.946 95.0764 47.1229 99.7354 58.3736 99.7354C69.6244 99.7354 79.8022 95.0764 87.1852 87.5262C94.566 79.9752 99.1343 69.5472 99.1343 58.0144C99.1343 46.4794 94.566 36.0525 87.1852 28.5006C79.8022 20.9516 69.6244 16.2924 58.3736 16.2914C47.1229 16.2924 36.946 20.9516 29.5617 28.5006ZM27.6935 89.3524C19.8494 81.3304 15 70.2439 15 58.0144C15 45.7834 19.8494 34.6977 27.6935 26.6751C35.5356 18.6511 46.3913 13.6775 58.3736 13.679C70.3556 13.6775 81.2123 18.6511 89.0535 26.6751C96.8978 34.6977 101.748 45.7842 101.747 58.0144C101.748 70.2439 96.8978 81.3304 89.0535 89.3524C81.2123 97.3759 70.3556 102.349 58.3736 102.349C46.3913 102.349 35.5356 97.3759 27.6935 89.3524Z" fill="#231F20"/>
<path fill-rule="evenodd" clip-rule="evenodd" d="M76.083 58.0945L69.6724 59.0564L61.0185 60.0179L55.4093 60.178L49.9605 60.0179L45.7939 58.7354L42.1076 54.7293L39.2231 46.5562L38.5823 44.7933L34.7361 43.5115L32.4925 39.8257L30.8899 34.537L32.653 29.8894L36.8193 28.4471L40.1846 30.05L41.7878 33.5755L43.7108 33.2548L44.3513 32.4538L43.7108 28.7678L43.5503 24.1202L44.5118 17.7101L44.4743 14.0485L47.3963 9.37693L52.5244 5.69087L61.4993 1.84473L71.4349 3.28704L80.0888 9.53706L84.0953 15.9472L86.6595 20.5947L87.3 32.1332L85.377 42.0693L81.8513 50.8833L78.486 55.5307" fill="#F0D6B7"/>
<path fill-rule="evenodd" clip-rule="evenodd" d="M70.6331 85.8176L47.7161 86.7791V90.6251L49.6391 104.087L48.6776 105.209L32.6522 99.7601L31.5301 97.8371L29.9276 79.7284L26.2422 68.8309L25.4407 66.2666L38.2609 57.453L42.2677 55.8499L45.7931 60.177L48.8377 62.9014L52.3639 64.023L53.9659 64.5037L55.8892 72.837L57.3315 74.5999L61.0177 73.3177L58.4531 78.2861L72.3956 84.8561L70.6331 85.8176Z" fill="#335061"/>
<path fill-rule="evenodd" clip-rule="evenodd" d="M32.6535 29.8866L36.8199 28.4443L40.1853 30.0471L41.788 33.5727L43.7114 33.252L44.1921 31.3289L43.2306 27.6433L44.1921 18.8289L43.3904 14.0212L46.2753 10.6558L52.525 5.68803L50.7621 3.28418L41.9481 7.61111L38.2623 10.4958L36.1789 14.9828L32.9738 19.3097L32.0122 24.438L32.6535 29.8866Z" fill="#6D6B6D"/>
<path fill-rule="evenodd" clip-rule="evenodd" d="M39.2228 14.8239C39.2228 14.8239 41.6265 8.89456 51.2419 6.00998C60.8573 3.12536 51.7226 3.92633 51.7226 3.92633L41.3063 7.93306L37.2996 11.9393L35.5371 15.1446L39.2228 14.8239Z" fill="#DCD9D8"/>
<path fill-rule="evenodd" clip-rule="evenodd" d="M34.416 28.767C34.416 28.767 31.0507 17.5487 43.8711 15.9463L43.3904 14.0232L34.5766 16.1068L32.0122 24.44L32.6535 29.8886L34.416 28.767Z" fill="#DCD9D8"/>
<path fill-rule="evenodd" clip-rule="evenodd" d="M39.5435 43.6695L41.642 41.6362C41.642 41.6362 42.5888 41.7465 42.749 42.8681C42.9091 43.9901 43.3898 54.0862 50.2808 59.5354C50.9093 60.0326 45.1527 58.7336 45.1527 58.7336L40.0242 50.721" fill="#F7E4CD"/>
<path fill-rule="evenodd" clip-rule="evenodd" d="M69.0314 40.624C69.0314 40.624 69.4049 35.7663 70.7129 36.1399C72.0213 36.5135 72.0213 37.8216 72.0213 37.8216C72.0213 37.8216 68.8443 39.877 69.0314 40.624Z" fill="#F7E4CD"/>
<path d="M82.3328 22.8362C82.3328 22.8362 79.6913 23.3938 79.4483 25.7208C79.2053 28.0482 82.3327 26.2015 82.8135 26.0415" fill="#F7E4CD"/>
<path d="M62.9398 22.999C62.9398 22.999 59.4141 23.4798 59.4141 25.7231C59.4141 27.9669 63.4206 27.8067 64.5422 26.8452" fill="#F7E4CD"/>
<path fill-rule="evenodd" clip-rule="evenodd" d="M41.145 33.4127C41.145 33.4127 35.0551 29.7266 34.4143 33.2526C33.7734 36.7781 32.3307 39.3426 35.3758 43.0281L33.2926 42.3872L31.3695 37.4195L30.7288 32.6117L34.4143 28.7651L38.5811 29.0858L40.9849 31.0089L41.145 33.4127Z" fill="#F7E4CD"/>
<path fill-rule="evenodd" clip-rule="evenodd" d="M44.0295 23.3168C44.0295 23.3168 46.7539 9.21441 60.5362 6.48985C71.883 4.24709 77.8432 6.97064 80.0872 9.53459C80.0872 9.53459 69.9911 -2.48417 60.3758 1.20141C50.7604 4.88747 43.7092 11.6182 43.8694 15.9447C44.142 23.3139 44.0295 23.3168 44.0295 23.3168Z" fill="#F7E4CD"/>
<path fill-rule="evenodd" clip-rule="evenodd" d="M81.2084 11.1383C81.2084 11.1383 76.5614 10.9781 76.4009 15.145C76.4009 15.145 76.4001 15.7859 76.7211 16.4267C76.7211 16.4267 80.4074 12.2599 82.6506 14.5037" fill="#F7E4CD"/>
<path fill-rule="evenodd" clip-rule="evenodd" d="M60.8589 16.86C60.8589 16.86 60.0586 10.4643 54.6057 14.1826C51.0804 16.5864 51.401 19.9518 52.0419 20.5927C52.6827 21.234 52.5084 22.5249 52.9966 21.6389C53.4841 20.7528 53.3236 17.8682 55.0865 17.0672C56.8494 16.2658 59.7395 15.3706 60.8589 16.86Z" fill="#F7E4CD"/>
<path fill-rule="evenodd" clip-rule="evenodd" d="M45.7931 60.1764L30.7291 66.9069C30.7291 66.9069 36.9791 91.7469 33.7738 99.4389L31.5301 98.6387L31.3699 89.1827L27.2038 71.2344L25.4407 66.2661L41.1454 55.6899L45.7931 60.1764Z" fill="#49728B"/>
<path fill-rule="evenodd" clip-rule="evenodd" d="M47.3423 73.916L49.4795 76.5238V86.1388H46.9152C46.9152 86.1388 46.595 79.4083 46.595 78.6065C46.595 77.8055 46.9152 74.9206 46.9152 74.9206" fill="#49728B"/>
<path fill-rule="evenodd" clip-rule="evenodd" d="M47.396 87.5793L40.1843 87.8996L42.2682 89.3418L47.396 90.1428" fill="#49728B"/>
<path fill-rule="evenodd" clip-rule="evenodd" d="M72.0757 85.9776L78.0052 85.8179L79.4474 100.561L73.3574 101.362L72.0757 85.9776Z" fill="#335061"/>
<path fill-rule="evenodd" clip-rule="evenodd" d="M73.678 85.9758L82.6521 85.4951C82.6521 85.4951 86.3376 76.2003 86.3376 75.7196C86.3376 75.2388 89.5431 62.2578 89.5431 62.2578L82.3319 54.7263L80.8896 53.4438L77.0429 57.2902V72.1938L73.678 85.9758Z" fill="#335061"/>
<path fill-rule="evenodd" clip-rule="evenodd" d="M77.6842 84.8547L72.0757 85.9767L72.8767 90.464C74.9598 91.4255 78.4859 88.8612 78.4859 88.8612" fill="#49728B"/>
<path fill-rule="evenodd" clip-rule="evenodd" d="M77.8438 56.812L89.0615 65.1453L89.3817 61.2989L80.888 53.4468L77.8438 56.812Z" fill="#49728B"/>
<path fill-rule="evenodd" clip-rule="evenodd" d="M52.9563 117.55L49.6383 104.087L47.9883 94.1523L47.7153 86.779L62.7322 85.9795L72.0746 85.978L71.2252 102.807L72.6675 115.787L72.5073 118.191L60.3285 119.153L52.9563 117.55Z" fill="white"/>
<path fill-rule="evenodd" clip-rule="evenodd" d="M69.991 85.8172C69.991 85.8172 69.19 102.484 71.5938 114.343C71.5938 114.343 66.7859 117.388 59.7344 118.189L73.1961 117.708L74.7985 116.746L72.8755 90.465L72.3948 84.8557" fill="#DCD9D8"/>
<path fill-rule="evenodd" clip-rule="evenodd" d="M79.7206 99.2797L85.9704 97.5172L97.8286 96.876L99.5919 91.4272L96.3864 81.972L92.7009 81.4912L87.5724 83.094L82.6524 85.4962L80.0401 85.017L78.0046 85.8165" fill="white"/>
<path fill-rule="evenodd" clip-rule="evenodd" d="M79.6069 96.0738C79.6069 96.0738 83.7732 94.1515 84.4144 94.3113L82.6519 85.4973L84.7347 84.6963C84.7347 84.6963 86.1769 93.0295 86.1769 93.991C86.1769 93.991 95.1514 94.4718 95.9524 94.4718C95.9524 94.4718 97.8762 90.7855 97.3954 86.9395L99.1579 92.0673L99.3184 94.9525L96.7542 98.7985L93.8697 99.439L89.0622 99.2793L87.4594 97.1958L81.8502 97.9968L80.0877 98.6388" fill="#DCD9D8"/>
<path d="M73.309 84.6976L69.7833 75.7231L66.0974 70.4344C66.0974 70.4344 66.8984 68.1904 68.0204 68.1904C69.1424 68.1904 71.7063 68.1904 71.7063 68.1904L75.2317 69.4729L74.9118 75.4021L73.309 84.6976Z" fill="white"/>
<path fill-rule="evenodd" clip-rule="evenodd" d="M73.9976 81.6523C73.9976 81.6523 69.51 72.9984 69.51 71.7163C69.51 71.7163 70.311 69.7932 71.4333 70.274C72.5553 70.7547 74.9591 72.0365 74.9591 72.0365V68.9919L69.51 67.8699L65.8245 68.3506L72.0746 83.0945L73.3563 83.255" fill="#DCD9D8"/>
<path d="M54.3993 60.4996L49.9597 60.017L45.7927 58.7349V60.1771L47.8286 62.4222L54.2388 65.3067" fill="white"/>
<path fill-rule="evenodd" clip-rule="evenodd" d="M47.2349 60.9788C47.2349 60.9788 52.2033 63.0626 53.8057 62.5819L53.965 64.503L49.4785 63.5434L46.7542 61.62L47.2349 60.9788Z" fill="#DCD9D8"/>
<path fill-rule="evenodd" clip-rule="evenodd" d="M79.7008 68.7363C76.9813 68.6564 74.5251 68.3335 72.3741 67.7268C72.5199 66.8448 72.2466 65.9796 72.4663 65.3444C73.0659 64.9128 74.0706 64.9195 74.9769 64.8179C74.1932 64.4328 73.0922 64.2805 72.1881 64.5029C72.1667 63.8909 71.8922 63.5118 71.7261 63.0329C73.2546 62.4873 76.8636 58.9098 78.8938 60.0944C79.8613 60.658 80.2723 63.8763 80.3473 65.4411C80.4103 66.739 80.2296 68.0489 79.7008 68.7363Z" fill="#D33833"/>
<path d="M79.7008 68.7363C76.9813 68.6564 74.5251 68.3335 72.3741 67.7268C72.5199 66.8448 72.2466 65.9796 72.4663 65.3444C73.0659 64.9128 74.0706 64.9195 74.9769 64.8179C74.1932 64.4328 73.0922 64.2805 72.1881 64.5029C72.1667 63.8909 71.8922 63.5118 71.7261 63.0329C73.2546 62.4873 76.8636 58.9098 78.8938 60.0944C79.8613 60.658 80.2723 63.8763 80.3473 65.4411C80.4103 66.739 80.2296 68.0489 79.7008 68.7363Z" stroke="#D33833" stroke-width="0.121681"/>
<path fill-rule="evenodd" clip-rule="evenodd" d="M66.7006 64.2919C66.6931 64.4974 66.6845 64.7048 66.6762 64.9125C65.8272 65.4701 64.4566 65.4634 63.5251 65.9321C64.8984 65.9921 65.9799 66.3229 66.9155 66.7894C66.8949 67.3076 66.875 67.8255 66.8547 68.3438C65.2985 69.4091 63.8769 70.9958 62.0446 71.9948C61.1784 72.4673 58.1379 73.683 57.2161 73.4681C56.6945 73.347 56.6476 72.6998 56.4391 72.09C55.9951 70.7835 54.9725 68.7041 54.8832 66.738C54.7696 64.2544 54.5187 60.0919 57.1955 60.6034C59.3547 61.0151 61.8661 62.01 63.5379 62.9235C64.5597 63.4823 65.1504 64.1726 66.7006 64.2919Z" fill="#D33833"/>
<path d="M66.7006 64.2919C66.6931 64.4974 66.6845 64.7048 66.6762 64.9125C65.8272 65.4701 64.4566 65.4634 63.5251 65.9321C64.8984 65.9921 65.9799 66.3229 66.9155 66.7894C66.8949 67.3076 66.875 67.8255 66.8547 68.3438C65.2985 69.4091 63.8769 70.9958 62.0446 71.9948C61.1784 72.4673 58.1379 73.683 57.2161 73.4681C56.6945 73.347 56.6476 72.6998 56.4391 72.09C55.9951 70.7835 54.9725 68.7041 54.8832 66.738C54.7696 64.2544 54.5187 60.0919 57.1955 60.6034C59.3547 61.0151 61.8661 62.01 63.5379 62.9235C64.5597 63.4823 65.1504 64.1726 66.7006 64.2919Z" stroke="#D33833" stroke-width="0.121681"/>
<path fill-rule="evenodd" clip-rule="evenodd" d="M68.2462 67.2533C68.0085 65.9003 67.734 65.5144 67.8401 64.3339C71.4484 61.9283 72.126 68.4661 68.2462 67.2533Z" fill="#D33833"/>
<path d="M68.2462 67.2533C68.0085 65.9003 67.734 65.5144 67.8401 64.3339C71.4484 61.9283 72.126 68.4661 68.2462 67.2533Z" stroke="#D33833" stroke-width="0.121681"/>
<path fill-rule="evenodd" clip-rule="evenodd" d="M73.468 68.3516C73.468 68.3516 72.346 66.7485 73.1474 66.2677C73.9487 65.787 74.7501 66.2681 75.2309 65.4667C75.7116 64.6653 75.2309 64.1846 75.3914 63.2231C75.5511 62.2616 76.3529 62.1011 77.1539 61.941C77.9549 61.7808 80.1989 61.4602 80.5191 62.2616L79.5576 59.3767L77.6346 58.7358L71.545 62.2616L71.2244 64.0245V67.5498" fill="#EF3D3A"/>
<path fill-rule="evenodd" clip-rule="evenodd" d="M56.6438 73.6397C56.4514 71.1388 56.2474 68.6413 56.0209 66.1427C55.6815 62.4118 56.9171 63.0628 60.1508 63.0628C60.645 63.0628 63.1924 63.6516 63.3743 64.0243C64.2484 65.8093 61.9129 65.413 64.3811 66.7588C66.465 67.8951 70.1456 66.0688 69.3038 63.5436C68.8328 62.9818 66.849 63.3685 66.138 62.9998C64.8859 62.3507 63.6341 61.702 62.382 61.0528C60.789 60.2263 57.1076 59.0214 55.4093 60.1761C51.1061 63.1026 55.6808 70.4147 57.216 73.4676" fill="#EF3D3A"/>
<path fill-rule="evenodd" clip-rule="evenodd" d="M60.8606 16.8609C56.4926 15.8436 54.3225 18.6888 52.9983 21.6397C51.8163 21.3532 52.2866 19.7455 52.5851 18.9263C53.367 16.7763 56.5177 13.9143 59.0921 14.3022C60.1998 14.469 61.6991 15.4821 60.8606 16.8609Z" fill="#231F20"/>
<path fill-rule="evenodd" clip-rule="evenodd" d="M82.1416 21.8354C82.2099 21.8383 82.2796 21.8407 82.3486 21.8436C83.3356 23.8941 84.1899 26.0662 85.4349 27.8763C84.6009 29.8191 79.1184 31.5383 79.2031 28.0499C80.3889 27.5316 82.4356 27.9441 83.4864 27.2821C82.8789 25.6143 82.0021 24.1946 82.1416 21.8354Z" fill="#231F20"/>
<path fill-rule="evenodd" clip-rule="evenodd" d="M63.0959 21.8884C64.0323 23.6053 64.3372 25.4092 65.6684 26.7067C66.268 27.2908 67.4339 28.0029 66.856 29.6274C66.721 30.0106 65.734 30.8649 65.164 31.0327C63.0828 31.6471 58.2333 31.1596 59.8758 28.5649C61.5966 28.6452 63.9104 29.6827 65.197 28.4332C64.2089 26.8538 62.4475 23.7293 63.0959 21.8884Z" fill="#231F20"/>
<path fill-rule="evenodd" clip-rule="evenodd" d="M81.3614 39.3364C78.2271 41.3494 74.7333 43.5383 69.5984 43.0305C68.5015 42.0769 68.083 39.9544 69.1491 38.5523C69.7038 39.5063 69.3554 41.2605 70.9015 41.5245C73.8149 42.0229 77.2056 39.7422 79.3011 38.9453C80.6009 36.7542 79.1894 35.9484 78.0186 34.5383C75.6224 31.6494 72.4071 28.0686 72.5241 23.7436C73.4927 23.0412 73.5764 24.8158 73.7155 25.1388C74.9669 28.0677 78.1161 31.8133 80.4149 34.3201C80.9796 34.9374 81.9089 35.5297 82.0116 35.9378C82.3101 37.1248 81.2361 38.547 81.3614 39.3364Z" fill="#231F20"/>
<path fill-rule="evenodd" clip-rule="evenodd" d="M40.0478 37.2177C39.0656 36.6571 38.832 34.1878 37.6789 34.1176C36.0308 34.0177 36.3313 37.321 36.3378 39.2528C35.2035 38.2227 35.004 35.0523 35.8373 33.4239C34.8876 32.9575 34.4636 33.9383 33.9368 34.284C34.6138 29.3657 41.1315 32.0028 40.0478 37.2177Z" fill="#231F20"/>
<path fill-rule="evenodd" clip-rule="evenodd" d="M83.3548 41.3838C81.8961 44.1603 79.8328 47.218 75.5526 47.3069C75.4656 46.4103 75.3988 45.046 75.5571 44.506C78.8293 44.1918 80.8498 42.5264 83.3548 41.3838Z" fill="#231F20"/>
<path fill-rule="evenodd" clip-rule="evenodd" d="M62.8491 43.1836C65.5791 44.6191 70.5962 44.7736 74.3069 44.6648C74.506 45.4778 74.5011 46.4821 74.5086 47.4736C69.739 47.7113 64.0997 46.5312 62.8491 43.1836Z" fill="#231F20"/>
<path fill-rule="evenodd" clip-rule="evenodd" d="M62.331 45.8616C64.2187 50.6016 70.7073 50.0559 76.179 49.9251C75.9382 50.5404 75.4162 51.2676 74.7671 51.5304C73.0136 52.2441 68.1776 52.7852 65.7435 51.4926C64.1996 50.6717 63.2077 48.8173 62.3621 47.7306C61.9537 47.2056 59.9197 45.8646 62.331 45.8616Z" fill="#231F20"/>
<path fill-rule="evenodd" clip-rule="evenodd" d="M81.1321 72.0079C78.9166 75.8022 76.7971 79.6992 74.1687 83.0464C75.2708 79.8064 75.7426 74.3835 75.9083 70.2492C78.2138 69.1707 80.1878 70.4922 81.1321 72.0079Z" fill="#81B0C4"/>
<path fill-rule="evenodd" clip-rule="evenodd" d="M93.0519 85.644C90.5717 86.1405 88.8294 88.551 86.4092 88.3965C87.7389 86.5215 90.0699 85.731 93.0519 85.644Z" fill="#231F20"/>
<path fill-rule="evenodd" clip-rule="evenodd" d="M94.1464 89.5266C92.1252 89.7403 89.7507 90.0673 87.7002 89.8993C88.6707 88.4166 92.4102 88.9281 94.1464 89.5266Z" fill="#231F20"/>
<path fill-rule="evenodd" clip-rule="evenodd" d="M94.8478 92.8726C92.5753 92.9221 89.7515 92.8763 87.5923 92.6956C88.8695 91.3231 93.374 92.1863 94.8478 92.8726Z" fill="#231F20"/>
<path fill-rule="evenodd" clip-rule="evenodd" d="M76.8578 102.031C77.1841 104.885 78.3151 107.776 78.1733 110.9C76.9171 111.324 76.1956 111.695 74.5122 111.692C74.3933 109.037 74.0382 104.977 74.1443 102.445C74.9723 102.5 76.1933 101.854 76.8578 102.031Z" fill="#DCD9D8"/>
<path fill-rule="evenodd" clip-rule="evenodd" d="M73.1949 59.9761C72.0542 60.7208 71.0826 61.6508 69.9868 62.4458C67.5572 62.5662 66.2312 62.2778 64.4458 60.8825C64.4754 60.7703 64.6547 60.8202 64.6614 60.6829C67.2624 61.8421 70.5684 60.2108 73.1949 59.9761Z" fill="#F0D6B7"/>
<path fill-rule="evenodd" clip-rule="evenodd" d="M59.5403 77.7069C60.255 74.6105 63.0552 73.0066 65.598 71.3015C68.2223 74.6323 69.8187 78.9159 71.5763 83.0491C67.4235 81.7974 63.18 79.7664 59.5403 77.7069Z" fill="#81B0C4"/>
<path fill-rule="evenodd" clip-rule="evenodd" d="M74.1445 102.444C74.0384 104.976 74.3935 109.036 74.5124 111.692C76.1954 111.694 76.9169 111.324 78.1731 110.9C78.3149 107.775 77.1839 104.884 76.8584 102.03C76.1931 101.853 74.9725 102.499 74.1445 102.444ZM47.9358 88.0458C49.0458 98.2495 50.6534 106.827 53.6016 115.862C60.1458 117.849 68.0346 118.022 73.8186 116.229C72.7566 111.129 73.2205 104.921 72.5999 99.4788C72.1323 95.389 72.3704 91.273 71.7291 87.1C64.7204 85.642 54.814 86.7595 47.9358 88.0458ZM73.3863 87.1645C73.3274 91.546 73.5824 95.869 73.9173 100.257C75.5999 100.004 76.7414 99.835 78.3051 99.4923C77.7974 95.2683 77.8596 90.5155 76.8261 86.779C75.6306 86.7903 74.5784 86.7648 73.3863 87.1645ZM81.9224 86.458C81.1236 86.275 80.1944 86.4505 79.4309 86.4655C79.7901 90.0378 80.6601 93.9798 80.9661 97.729C82.1669 97.7665 82.8081 97.2003 83.7959 97.0098C83.8484 93.7188 83.5079 89.1835 81.9224 86.458ZM94.8471 98.2668C97.3499 97.6593 98.9234 94.594 98.2236 91.447C97.7534 89.3313 96.9171 85.348 96.0216 83.995C95.3601 82.9938 93.5669 81.6835 92.1344 82.6008C89.8049 84.0925 85.7001 84.5253 84.0014 86.3313C84.8534 89.1678 85.1174 93.064 85.4691 96.658C88.3799 96.8395 91.9611 95.857 94.3814 96.8995C92.6916 97.447 90.4986 97.4515 89.0391 98.2495C90.2324 98.8255 93.0261 98.7093 94.8471 98.2668ZM71.5769 83.0485C69.8193 78.9153 68.2229 74.6317 65.5983 71.3005C63.0558 73.006 60.2556 74.6099 59.5409 77.7063C63.1806 79.7658 67.4238 81.7968 71.5769 83.0485ZM75.9096 70.2483C75.7431 74.3823 75.2714 79.8048 74.1696 83.0448C76.7976 79.6983 78.9179 75.8013 81.1334 72.0067C80.1891 70.4909 78.2151 69.1694 75.9096 70.2483ZM70.9979 68.503C70.0023 68.3958 69.157 69.6479 67.8625 69.1064C67.5659 69.4342 67.2959 69.7897 66.9936 70.1099C69.8534 73.5562 71.1528 78.445 73.3615 82.495C74.5465 78.6048 74.41 74.3429 74.671 70.0968C73.0428 70.2003 72.1394 68.6242 70.9979 68.503ZM67.8396 64.3349C67.7335 65.515 68.008 65.9013 68.2454 67.2539C72.1255 68.467 71.4479 61.9289 67.8396 64.3349ZM63.5373 62.9223C61.8655 62.0088 59.3541 61.0143 57.1949 60.6022C54.5181 60.0903 54.769 64.2532 54.8826 66.7368C54.9719 68.7029 55.9945 70.7823 56.4385 72.0888C56.647 72.6985 56.6939 73.3458 57.2155 73.4669C58.1373 73.6818 61.1778 72.466 62.044 71.9935C63.8763 70.9945 65.2979 69.4079 66.8541 68.3425C66.8744 67.8243 66.8943 67.3064 66.9149 66.7882C65.9793 66.3217 64.8978 65.9909 63.5245 65.9309C64.456 65.4622 65.8266 65.4689 66.676 64.9113C66.6839 64.7035 66.6925 64.4965 66.7 64.2907C65.1498 64.1714 64.5591 63.481 63.5373 62.9223ZM47.5694 60.0217C46.1819 61.4305 51.4608 63.3505 53.1415 63.454C53.1321 62.5627 53.6496 61.7223 53.5454 61.0829C51.5493 60.7323 48.9258 60.9637 47.5694 60.0217ZM64.6615 60.6835C64.6548 60.8208 64.4755 60.7709 64.4459 60.883C66.2313 62.278 67.5573 62.5664 69.9869 62.4464C71.0826 61.651 72.0543 60.7214 73.195 59.9767C70.5685 60.2114 67.2625 61.8427 64.6615 60.6835ZM80.3496 65.4404C80.2746 63.8755 79.8636 60.6573 78.8961 60.094C76.8659 58.909 73.2573 62.4869 71.7284 63.0325C71.8945 63.5114 72.169 63.8905 72.1904 64.5025C73.0945 64.2802 74.1955 64.4324 74.9793 64.8175C74.0729 64.9188 73.0683 64.912 72.4686 65.344C72.2489 65.9789 72.5226 66.8444 72.3764 67.726C74.5274 68.3328 76.9836 68.656 79.7031 68.7359C80.2319 68.0482 80.4126 66.7387 80.3496 65.4404ZM45.2335 61.3844C44.7978 61.0739 41.8503 57.2388 41.4464 57.3978C36.1129 59.5012 31.1259 63.1383 26.6694 66.5782C30.9183 75.6955 32.6335 86.8653 32.9366 97.6315C37.804 99.9085 42.0794 103.191 48.6843 103.533C47.92 98.125 47.2221 93.3003 46.7883 88.2093C45.1289 87.5095 42.748 88.2408 41.1948 87.9925C41.1816 86.1205 43.5666 87.1728 43.7654 85.9143C43.915 84.9625 42.4529 84.8898 42.9291 83.3913C44.1434 83.8323 44.7809 84.8073 46.0758 85.1733C47.2589 82.585 46.0593 78.0048 46.2295 75.8418C46.2621 75.4353 46.4324 73.591 47.3425 73.9147C48.1476 74.2012 47.2964 78.8193 47.3845 80.8668C47.4651 82.7538 47.1569 84.5793 47.9208 85.7635C54.3033 84.8943 60.7889 84.3333 67.6945 84.1435C66.1754 83.4918 64.3705 82.8745 62.3916 81.7593C61.3191 81.1548 57.9378 79.8963 57.6284 78.8778C57.1345 77.254 58.924 76.3893 59.23 74.9973C56.0084 76.7545 55.3799 73.3132 54.6179 70.8753C53.9271 68.6669 53.5341 67.0177 53.3646 65.7438C50.5896 64.4208 47.6223 63.0809 45.2335 61.3844ZM77.5311 57.8617C81.9749 55.7069 82.7759 65.9152 81.0336 69.2035C81.3029 70.1842 82.2291 70.5599 82.6071 71.4415C80.1276 75.8838 77.3729 80.0305 74.8428 84.4203C76.7249 83.2488 79.4136 84.211 81.6284 83.3335C82.4376 83.014 83.0241 81.16 83.6369 79.6773C85.3229 75.598 87.0929 70.4557 87.8804 66.5628C88.0589 65.6755 88.5434 63.7432 88.4346 62.9534C88.2404 61.54 86.3226 60.4919 85.3476 59.6182C83.5506 58.0034 82.4189 56.5829 80.5439 55.0732C79.7841 56.1955 78.1529 56.9493 77.5311 57.8617ZM35.0706 18.454C32.9532 20.7838 33.3963 25.1492 33.6527 28.255C37.4801 25.8473 42.5601 28.4454 42.5121 32.5406C44.3395 32.492 43.1946 30.2584 42.8643 28.8194C41.7843 24.1195 44.6841 19.0132 42.9959 14.7151C39.7176 14.9637 37.0246 16.3026 35.0706 18.454ZM50.2214 4.93195C45.4278 6.29058 39.2841 9.77376 37.3144 14.08C38.8398 13.8583 39.8984 13.0891 41.4033 12.994C41.9718 12.9569 42.7169 13.2324 43.3705 13.0699C44.6729 12.7468 45.772 9.82664 46.7545 8.74011C47.7123 7.67901 48.8635 7.22568 49.6514 6.25836C50.1576 6.01413 50.9058 6.03096 50.9346 5.27088C50.7153 5.03628 50.4843 4.8574 50.2214 4.93195ZM75.1746 6.2098C70.1995 3.4026 61.7778 1.29106 56.485 3.9295C52.2145 6.05886 46.4418 9.58191 44.4738 14.0464C46.3124 18.3545 43.9293 22.3021 43.777 26.6761C43.6964 29.0035 44.8728 31.0353 44.9631 33.5689C44.3339 34.6069 42.4116 34.7348 41.0811 34.6636C40.6334 32.4223 39.8493 29.9031 37.5411 29.6502C34.2753 29.293 31.8873 31.9959 31.739 34.8204C31.5634 38.1419 34.2903 43.6473 38.1554 43.2652C39.6483 43.1174 40.015 41.6208 41.6418 41.6362C42.5234 43.3953 40.2816 43.9477 40.051 45.2058C39.991 45.5309 40.237 46.801 40.3799 47.3969C41.0823 50.2972 42.6471 54.0513 44.1873 56.2593C46.1425 59.0602 49.9833 59.4824 54.1154 59.7569C54.8534 58.1669 57.5721 58.2978 59.3436 58.7137C57.2208 57.8729 55.2468 55.8344 53.611 54.0299C51.7323 51.9599 49.8288 49.7392 49.7328 47.0335C53.2836 51.9592 56.2169 56.2612 62.6736 58.4279C67.5591 60.0667 73.2648 57.6772 77.0189 55.0409C78.5766 53.9455 79.5059 52.207 80.6136 50.6155C84.7559 44.6564 86.6894 36.1507 86.2641 27.9064C86.0894 24.5065 86.0969 21.118 84.9561 18.8305C83.7636 16.4386 79.7309 14.2987 77.3706 16.4622C76.9334 14.1363 79.3334 12.6978 82.1534 13.5348C80.1426 10.9401 78.0329 7.82234 75.1746 6.2098ZM84.4446 82.9248C88.3326 80.992 95.5971 77.722 98.0346 82.9323C98.9339 84.8523 99.9891 88.0983 100.455 90.0805C101.113 92.8773 99.7416 98.755 96.8669 99.6933C94.3281 100.522 91.3656 100.472 88.3079 99.8575C87.9471 99.5583 87.5466 99.0355 87.2661 98.4918C85.0829 98.407 83.0376 98.6088 81.3126 99.5065C81.4761 101.121 80.3841 101.381 79.3596 101.713C78.6006 104.724 80.8784 108.654 80.3339 111.399C79.9446 113.354 77.5386 113.657 75.7709 114.022C75.7131 115.109 75.8481 116.016 75.9689 116.935C75.5646 118.425 73.7508 119.274 72.0325 119.481C66.379 120.161 57.7953 120.466 52.3578 118.511C50.8401 114.789 49.6446 110.262 48.3809 106.012C43.0776 106.578 38.788 103.723 34.7444 101.853C33.3444 101.204 31.4076 100.847 30.8845 99.7323C30.3774 98.653 30.585 96.5853 30.4591 94.6323C30.1389 89.6433 29.8647 84.8313 28.5473 79.723C27.9558 77.4303 26.9247 75.4075 26.2054 73.1992C25.5406 71.152 24.3791 68.6223 24.0762 66.5808C23.627 63.5557 26.4759 63.3873 28.2975 62.0763C31.1136 60.0487 33.324 58.9278 36.3739 57.0978C37.2772 56.5559 40.0011 55.1842 40.3113 54.5527C40.927 53.3002 39.2538 51.5343 38.8064 50.5525C38.0988 49 37.7298 47.6815 37.6285 46.1497C35.07 45.7454 33.1306 44.2229 31.9591 42.5058C30.0212 39.6648 28.6773 34.4079 30.354 30.4093C30.4854 30.0944 31.1412 29.4752 31.2379 28.9915C31.4288 28.0391 30.8789 26.7728 30.8447 25.7598C30.6685 20.5627 31.724 16.0848 35.2227 14.5175C36.643 8.85936 41.7265 6.9781 46.516 4.16605C48.3063 3.1151 50.2799 2.44346 52.318 1.69347C59.6298 -0.997395 70.8479 -0.490665 76.9161 4.09878C79.4894 6.04491 83.6024 10.154 85.0731 13.129C88.9589 20.9833 88.6829 34.1098 85.9649 43.6642C85.5996 44.9467 85.0701 46.8325 84.3299 48.3734C83.8146 49.4493 82.2111 51.6022 82.4054 52.552C82.6064 53.5342 86.0616 56.158 86.8026 56.8724C88.1361 58.1594 90.6711 59.8675 90.8766 61.4917C91.0971 63.22 90.1146 65.5844 89.6174 67.252C87.9539 72.8178 86.3309 77.9628 84.4446 82.9248Z" fill="#231F20"/>
<path fill-rule="evenodd" clip-rule="evenodd" d="M58.5049 44.3968C58.7156 44.1159 59.8755 43.6895 61.4981 44.4706C61.4981 44.4706 59.5751 44.7913 59.7349 47.9975L58.9335 47.837C58.9335 47.837 58.1055 44.93 58.5049 44.3968Z" fill="#F7E4CD"/>
<path fill-rule="evenodd" clip-rule="evenodd" d="M72.5555 71.9552C72.5555 72.4416 72.1606 72.8361 71.6735 72.8361C71.1871 72.8361 70.7922 72.4416 70.7922 71.9552C70.7922 71.4685 71.1871 71.0732 71.6735 71.0732C72.1606 71.0732 72.5555 71.4685 72.5555 71.9552Z" fill="#1D1919"/>
<path fill-rule="evenodd" clip-rule="evenodd" d="M73.4377 76.0422C73.4377 76.5282 73.0432 76.9227 72.5561 76.9227C72.0693 76.9227 71.6748 76.5282 71.6748 76.0422C71.6748 75.5554 72.0693 75.1602 72.5561 75.1602C73.0432 75.1602 73.4377 75.5554 73.4377 76.0422Z" fill="#1D1919"/>
</g>
<defs>
<clipPath id="clip0">
<rect width="120" height="120" fill="white"/>
</clipPath>
</defs>
</svg>
