<svg width="120" height="117" viewBox="0 0 120 117" fill="none" xmlns="http://www.w3.org/2000/svg">
<path d="M59.6163 4.60737C58.6372 4.65669 57.678 4.89943 56.7948 5.32136L18.2939 23.7175C17.2974 24.1934 16.4218 24.8858 15.7322 25.7434C15.0425 26.601 14.5566 27.6016 14.3104 28.6711L4.81192 69.9935C4.59259 70.9455 4.56804 71.9316 4.73974 72.8932C4.91143 73.8549 5.27587 74.7726 5.8115 75.5921C5.94138 75.7924 6.08106 75.9863 6.23004 76.1731L32.8788 109.307C33.5686 110.164 34.4443 110.856 35.4408 111.332C36.4373 111.808 37.5291 112.055 38.635 112.054L81.3706 112.045C82.4761 112.045 83.5676 111.799 84.5641 111.324C85.5606 110.85 86.4365 110.158 87.1268 109.302L113.766 76.1633C114.456 75.3055 114.942 74.3044 115.189 73.2346C115.435 72.1647 115.435 71.0535 115.189 69.9836L105.676 28.6612C105.429 27.5918 104.943 26.5911 104.254 25.7336C103.564 24.876 102.689 24.1835 101.692 23.7077L63.1862 5.32136C62.0753 4.79061 60.8478 4.5451 59.6163 4.60737V4.60737Z" fill="#326CE5"/>
<path d="M59.5954 1.61516C58.5631 1.66923 57.552 1.92703 56.6213 2.37346L15.9735 21.7889C14.9216 22.2913 13.9973 23.0223 13.2693 23.9276C12.5413 24.8329 12.0283 25.8893 11.7684 27.0182L1.74312 70.6401C1.51088 71.6456 1.48447 72.6871 1.66548 73.7029C1.84648 74.7187 2.2312 75.6882 2.79686 76.5538C2.93447 76.7644 3.08237 76.9682 3.24002 77.1644L31.371 112.145C32.0991 113.05 33.0235 113.78 34.0754 114.282C35.1274 114.784 36.2798 115.045 37.4472 115.045L82.5611 115.035C83.7281 115.036 84.8803 114.776 85.9322 114.275C86.9841 113.774 87.9086 113.044 88.6373 112.14L116.758 77.1546C117.486 76.2495 117.999 75.1934 118.259 74.0648C118.519 72.9362 118.52 71.7639 118.26 70.6352L108.22 27.0083C107.96 25.8803 107.446 24.8249 106.718 23.9205C105.99 23.0161 105.066 22.2859 104.015 21.7839L63.3673 2.36853C62.1935 1.80785 60.8965 1.54879 59.5954 1.61516V1.61516ZM59.6151 4.60896C60.8466 4.5467 62.0741 4.7922 63.1851 5.32295L101.691 23.7092C102.687 24.1851 103.563 24.8776 104.253 25.7352C104.942 26.5927 105.428 27.5934 105.674 28.6628L115.188 69.9852C115.434 71.0551 115.434 72.1663 115.187 73.2362C114.941 74.306 114.455 75.3071 113.765 76.1648L87.1257 109.303C86.4354 110.16 85.5595 110.851 84.563 111.326C83.5665 111.801 82.475 112.047 81.3695 112.046L38.6339 112.056C37.528 112.056 36.4362 111.809 35.4397 111.334C34.4432 110.858 33.5675 110.166 32.8777 109.308L6.2289 76.1747C6.07992 75.9879 5.94024 75.794 5.81036 75.5937C5.27473 74.7742 4.91029 73.8565 4.7386 72.8948C4.56691 71.9332 4.59145 70.9471 4.81078 69.995L14.3092 28.6727C14.5554 27.6032 15.0414 26.6026 15.731 25.745C16.4207 24.8874 17.2963 24.195 18.2928 23.7191L56.7937 5.32295C57.6769 4.90102 58.6361 4.65828 59.6151 4.60896V4.60896Z" fill="white"/>
<path d="M59.9976 18.6699C58.7249 18.6701 57.693 19.8164 57.6931 21.2304C57.6931 21.2521 57.6976 21.2729 57.698 21.2944C57.6962 21.4866 57.6869 21.718 57.6931 21.8853C57.7235 22.7009 57.9013 23.3251 58.0083 24.0765C58.2021 25.6847 58.3646 27.0179 58.2643 28.257C58.1668 28.7242 57.8227 29.1516 57.5159 29.4486L57.4617 30.4236C56.0787 30.5381 54.6865 30.7479 53.296 31.0637C47.3124 32.4223 42.1606 35.5044 38.2383 39.6659C37.9838 39.4923 37.5386 39.1729 37.4062 39.0751C36.9947 39.1306 36.5789 39.2576 36.0373 38.9421C35.006 38.2479 34.0667 37.2897 32.9302 36.1354C32.4095 35.5833 32.0323 35.0575 31.4136 34.5253C31.2731 34.4044 31.0587 34.2409 30.9015 34.1166C30.4178 33.7309 29.8473 33.5298 29.2963 33.5109C28.5879 33.4867 27.9059 33.7636 27.4596 34.3234C26.6662 35.3185 26.9203 36.8394 28.0259 37.721C28.0371 37.7299 28.0491 37.7368 28.0604 37.7456C28.2123 37.8687 28.3983 38.0265 28.538 38.1296C29.1946 38.6144 29.7943 38.8626 30.4485 39.2474C31.8268 40.0986 32.9694 40.8043 33.8756 41.6552C34.2295 42.0325 34.2914 42.6972 34.3385 42.9847L35.0771 43.6446C31.1232 49.5949 29.2932 56.9448 30.3747 64.4338L29.4096 64.7144C29.1552 65.0429 28.7958 65.5597 28.4198 65.714C27.2341 66.0875 25.8996 66.2246 24.2886 66.3935C23.5322 66.4564 22.8796 66.4189 22.0777 66.5708C21.9012 66.6042 21.6553 66.6683 21.4622 66.7136C21.4555 66.715 21.4492 66.717 21.4425 66.7185C21.432 66.7209 21.4181 66.726 21.408 66.7284C20.0497 67.0565 19.1772 68.305 19.4581 69.535C19.7391 70.7654 21.0658 71.5136 22.4322 71.2191C22.4421 71.2168 22.4564 71.2164 22.4667 71.2141C22.4821 71.2106 22.4957 71.2031 22.511 71.1994C22.7015 71.1576 22.9402 71.111 23.1068 71.0664C23.8952 70.8553 24.4661 70.5452 25.1749 70.2737C26.6997 69.7268 27.9626 69.2699 29.1929 69.0919C29.7067 69.0516 30.2481 69.4089 30.5175 69.5597L31.522 69.3873C33.8335 76.554 38.6778 82.3466 44.8119 85.9813L44.3933 86.9858C44.5442 87.3758 44.7106 87.9036 44.5982 88.2888C44.1509 89.4487 43.3848 90.6729 42.5124 92.0378C42.0899 92.6684 41.6576 93.1578 41.2764 93.8794C41.1852 94.0521 41.069 94.3173 40.981 94.4998C40.3887 95.7671 40.8232 97.2266 41.9609 97.7743C43.1057 98.3255 44.5268 97.7442 45.1418 96.4744C45.1427 96.4726 45.1458 96.4712 45.1467 96.4694C45.1473 96.468 45.1461 96.4659 45.1467 96.4645C45.2343 96.2845 45.3584 96.0479 45.4323 95.8786C45.7588 95.1306 45.8674 94.4896 46.097 93.7662C46.7068 92.2346 47.0418 90.6276 47.8811 89.6262C48.111 89.352 48.4857 89.2465 48.8742 89.1425L49.3961 88.1971C54.7437 90.2497 60.7295 90.8005 66.709 89.4429C68.0731 89.1332 69.3899 88.7323 70.663 88.2513C70.8097 88.5115 71.0823 89.0116 71.1554 89.1376C71.5502 89.266 71.9811 89.3324 72.3322 89.8516C72.9602 90.9245 73.3897 92.1937 73.9128 93.7268C74.1425 94.4502 74.256 95.0912 74.5825 95.8392C74.6569 96.0097 74.7804 96.2496 74.8681 96.4301C75.4818 97.704 76.9074 98.2873 78.0539 97.7349C79.1915 97.1869 79.6264 95.7275 79.0338 94.4605C78.9458 94.278 78.8247 94.0127 78.7335 93.84C78.3522 93.1184 77.92 92.6339 77.4975 92.0034C76.625 90.6385 75.9014 89.5047 75.4541 88.3448C75.267 87.7466 75.4856 87.3746 75.6313 86.9858C75.5441 86.8858 75.3573 86.3208 75.2472 86.0552C81.6221 82.2911 86.3241 76.2825 88.5323 69.343C88.8304 69.3899 89.3487 69.4816 89.5171 69.5154C89.8636 69.2868 90.1823 68.9885 90.8072 69.0377C92.0375 69.2157 93.3003 69.6727 94.8252 70.2195C95.5339 70.491 96.1049 70.8062 96.8932 71.0172C97.0599 71.0618 97.2986 71.1034 97.489 71.1452C97.5044 71.149 97.5179 71.1565 97.5334 71.16C97.5437 71.1623 97.558 71.1626 97.5678 71.1649C98.9343 71.4591 100.261 70.7113 100.542 69.4809C100.823 68.2508 99.9504 67.002 98.592 66.6742C98.3944 66.6293 98.1142 66.553 97.9224 66.5166C97.1205 66.3648 96.4679 66.4022 95.7115 66.3394C94.1004 66.1705 92.766 66.0333 91.5802 65.6598C91.0968 65.4723 90.7528 64.897 90.5856 64.6603L89.6549 64.3895C90.1374 60.8986 90.0073 57.2656 89.1724 53.6305C88.3296 49.9615 86.8403 46.6059 84.854 43.6495C85.0927 43.4325 85.5436 43.0332 85.6714 42.9158C85.7088 42.5023 85.6767 42.0688 86.1047 41.6109C87.0109 40.76 88.1536 40.0543 89.5318 39.2031C90.186 38.8182 90.7907 38.5701 91.4473 38.0853C91.5957 37.9757 91.7985 37.8021 91.9544 37.6766C93.0599 36.7948 93.3144 35.274 92.5207 34.2791C91.7271 33.2842 90.1891 33.1905 89.0837 34.0723C88.9264 34.1969 88.7129 34.3594 88.5716 34.481C87.953 35.0132 87.5709 35.5389 87.0501 36.0911C85.9137 37.2455 84.9743 38.2085 83.9431 38.9027C83.4962 39.1629 82.8417 39.0729 82.5446 39.0554L81.6682 39.6807C76.6703 34.4399 69.8655 31.0892 62.5384 30.4383C62.5179 30.1313 62.491 29.5762 62.4842 29.4092C62.1842 29.1222 61.8219 28.8771 61.7308 28.257C61.6306 27.0179 61.7979 25.6847 61.9918 24.0765C62.0988 23.3251 62.2766 22.7009 62.3069 21.8853C62.3138 21.6999 62.3028 21.4309 62.302 21.2304C62.3019 19.8164 61.2703 18.6698 59.9976 18.6699H59.9976ZM57.1121 36.5441L56.4277 48.6326L56.3784 48.6572C56.3325 49.7387 55.4425 50.6022 54.3497 50.6022C53.9021 50.6022 53.4889 50.4584 53.1532 50.2132L53.1335 50.223L43.2214 43.1965C46.2678 40.2009 50.1644 37.9872 54.655 36.9676C55.4753 36.7813 56.2952 36.6431 57.1121 36.5441ZM62.888 36.5441C68.1308 37.1889 72.9795 39.5629 76.6949 43.2014L66.8469 50.1836L66.8124 50.1689C65.9383 50.8073 64.7068 50.6489 64.0254 49.7947C63.7463 49.4447 63.5999 49.0332 63.5823 48.6178L63.5724 48.6129L62.888 36.5441ZM39.6269 47.7118L48.6772 55.8069L48.6674 55.8561C49.4843 56.5663 49.6048 57.7986 48.9234 58.653C48.6444 59.0029 48.2708 59.2377 47.8697 59.3472L47.8599 59.3866L36.2589 62.735C35.6684 57.3359 36.9409 52.0875 39.6269 47.7118ZM80.3042 47.7167C81.6489 49.8963 82.6672 52.3307 83.2734 54.9698C83.8723 57.5773 84.0227 60.1801 83.7757 62.6956L72.1156 59.3374L72.1057 59.2882C71.0616 59.0028 70.4199 57.9407 70.663 56.8754C70.7626 56.439 70.9942 56.0698 71.308 55.797L71.3031 55.7724L80.3042 47.7167H80.3042ZM58.1412 56.4322H61.849L64.1534 59.3128L63.3262 62.9073L59.9976 64.5076L56.6591 62.9024L55.8318 59.3079L58.1412 56.4322ZM70.0278 66.2901C70.1854 66.2822 70.3422 66.2964 70.4956 66.3246L70.5153 66.3L82.5151 68.3287C80.7589 73.2626 77.3984 77.537 72.9084 80.3974L68.2502 69.146L68.265 69.1263C67.8371 68.1321 68.2653 66.9662 69.2498 66.492C69.5019 66.3706 69.7652 66.3034 70.0278 66.2901H70.0278ZM49.8738 66.3394C50.7895 66.3522 51.6109 66.9878 51.8237 67.92C51.9233 68.3564 51.8748 68.7888 51.7104 69.1707L51.7449 69.215L47.136 80.3531C42.827 77.588 39.3948 73.4478 37.5588 68.368L49.4552 66.3492L49.4749 66.3738C49.608 66.3493 49.743 66.3375 49.8738 66.3394V66.3394ZM59.9237 71.2191C60.2427 71.2073 60.5664 71.2728 60.874 71.4209C61.2773 71.6151 61.5889 71.9209 61.785 72.2876H61.8293L67.6938 82.8841C66.9327 83.1392 66.1503 83.3573 65.35 83.539C60.8649 84.5573 56.394 84.2487 52.3456 82.8693L58.1954 72.2925H58.2052C58.5562 71.6363 59.2219 71.2448 59.9237 71.2191Z" fill="white"/>
</svg>
