<svg width="121" height="128" viewBox="0 0 121 128" fill="none" xmlns="http://www.w3.org/2000/svg">
<path d="M8.27484 97.2223C17.8868 91.087 29.0325 80.5548 24.8401 68.0798C22.4882 61.331 19.3183 55.5025 18.9093 48.2424C18.5003 42.0049 19.4206 35.7674 21.5679 29.9389C30.1573 6.9316 55.6186 -3.90737 78.6259 3.04594C99.8948 9.48797 114.619 34.2335 105.826 55.8092C100.713 68.2843 98.4633 77.8962 109.813 87.5081C112.881 90.1667 120.346 94.0524 120.346 98.7561C120.346 104.891 108.382 97.4268 107.053 96.4042C108.586 99.0629 123.618 114.81 114.006 115.935C105.212 116.957 97.3385 104.585 92.0212 99.3696C83.1251 90.4735 84.6589 110.209 84.6589 114.197C84.5567 120.639 80.0575 133.625 71.8771 125.138C65.1283 118.184 67.6847 106.936 62.981 99.1651C57.8682 90.678 49.3811 107.652 47.2338 110.822C44.8819 114.299 32.9182 131.171 28.2145 122.172C24.3288 114.912 30.4641 103.46 33.5317 96.8133C32.4069 99.1651 24.6356 102.744 22.386 103.869C17.2732 106.425 12.0583 108.061 6.22975 107.652C-5.73402 106.834 3.46888 100.494 8.27484 97.2223Z" fill="#0D80D8"/>
</svg>
