<svg width="120" height="120" viewBox="0 0 120 120" fill="none" xmlns="http://www.w3.org/2000/svg">
<g clip-path="url(#clip0)">
<path d="M43.0421 2.74238C41.394 1.91567 39.654 1.28636 37.8585 0.867525C13.7669 -4.85077 -4.13774 18.7723 5.70511 40.2394C5.79886 40.3331 23.2348 78.5805 26.047 84.6735C26.047 84.6735 58.1066 69.9559 64.6684 54.8633C70.743 40.8019 60.4969 15.1352 58.6223 11.2823L43.0421 2.74238Z" fill="url(#paint0_linear)"/>
<path d="M115.479 45.4016C113.443 42.2816 110.675 39.7072 107.416 37.9024C107.323 37.9024 84.8243 25.5286 84.8243 25.5286C84.8243 25.5286 7.58002 70.3087 7.49561 70.4306C-1.22252 80.367 -3.19112 96.1155 6.83944 109.801C9.86348 113.917 14.1389 116.943 19.0261 118.426C28.1191 121.238 36.1811 120.113 42.9308 116.551C43.1183 116.457 106.395 82.8982 106.583 82.7107C118.947 76.2427 124.675 59.7439 115.479 45.4016Z" fill="#0CB0F2"/>
<path d="M36.0127 35.5701L15.3893 60.8801L7.39301 70.4321C-1.32504 80.3685 -3.29363 96.117 6.73684 109.803C9.76087 113.919 14.0363 116.944 18.9234 118.427C28.0164 121.24 36.1721 120.115 42.9214 116.552C42.9214 116.552 44.5151 115.709 47.2335 114.209C55.8019 109.578 67.6226 78.447 75.6848 54.3746L36.0127 35.5701Z" fill="url(#paint1_linear)"/>
<path d="M68.4293 59.9355L84.825 25.3163C84.825 25.2914 84.8348 25.2676 84.852 25.25C84.87 25.2325 84.894 25.2226 84.9188 25.2226C85.0125 24.9413 86.325 21.5666 86.4188 21.3791C87.3825 18.947 87.7328 16.3151 87.438 13.7156C87.144 11.1162 86.214 8.62913 84.7313 6.47404C82.8398 3.48006 79.8405 1.3567 76.3883 0.568245C73.4861 -0.203904 70.4216 -0.10936 67.5731 0.840202C64.7243 1.78976 62.2163 3.55277 60.3581 5.91157C60.2644 6.00532 56.7019 10.13 56.7019 10.13L30.4541 42.4714L68.4293 59.9355Z" fill="url(#paint2_linear)"/>
<path d="M22.4854 22.4377H97.4798V97.4317H22.4854V22.4377Z" fill="url(#paint3_linear)"/>
<path d="M40.1096 39.0296H29.9854V32.4678H57.4519V39.0296H47.4214V64.8934H40.1096V39.0296ZM57.4519 48.7507C57.4519 39.3765 64.389 31.7834 74.4195 31.7834C80.5125 31.7834 84.2625 33.8458 87.2625 36.8456L82.6688 42.0952C80.1375 39.8452 77.607 38.439 74.3258 38.439C68.8886 38.439 64.8578 43.0327 64.8578 48.5632V48.657C64.8578 54.2816 68.7011 58.875 74.3258 58.875C78.075 58.875 80.325 57.3754 82.8563 55.0316L87.4493 59.625C84.075 63.1871 80.4188 65.4371 74.1383 65.4371C71.9333 65.487 69.741 65.0895 67.6939 64.2686C65.6468 63.4477 63.7875 62.2207 62.2279 60.6611C60.6686 59.1015 59.4413 57.2422 58.6204 55.1951C57.7995 53.148 57.402 50.9557 57.4519 48.7507ZM29.9854 82.4325H57.4519V87.4012H29.9854V82.4325Z" fill="white"/>
</g>
<defs>
<linearGradient id="paint0_linear" x1="62.55" y1="72.9649" x2="24.7433" y2="26.2535" gradientUnits="userSpaceOnUse">
<stop offset="0.06" stop-color="#0CB0F2"/>
<stop offset="0.21" stop-color="#10ADF2"/>
<stop offset="0.37" stop-color="#1EA5F3"/>
<stop offset="0.54" stop-color="#3497F5"/>
<stop offset="0.71" stop-color="#5283F7"/>
<stop offset="0.88" stop-color="#796AF9"/>
<stop offset="0.97" stop-color="#905CFB"/>
</linearGradient>
<linearGradient id="paint1_linear" x1="19.589" y1="113.731" x2="38.5335" y2="69.9165" gradientUnits="userSpaceOnUse">
<stop offset="0.06" stop-color="#0CB0F2"/>
<stop offset="0.2" stop-color="#0DB2EE"/>
<stop offset="0.35" stop-color="#12B7E0"/>
<stop offset="0.51" stop-color="#19C0CA"/>
<stop offset="0.68" stop-color="#23CCAC"/>
<stop offset="0.85" stop-color="#30DC85"/>
<stop offset="0.97" stop-color="#3BEA62"/>
</linearGradient>
<linearGradient id="paint2_linear" x1="2805.94" y1="-38619.7" x2="5196.56" y2="-35696.5" gradientUnits="userSpaceOnUse">
<stop offset="0.06" stop-color="#0CB0F2"/>
<stop offset="0.2" stop-color="#0DB2EE"/>
<stop offset="0.35" stop-color="#12B7E0"/>
<stop offset="0.51" stop-color="#19C0CA"/>
<stop offset="0.68" stop-color="#23CCAC"/>
<stop offset="0.85" stop-color="#30DC85"/>
<stop offset="0.97" stop-color="#3BEA62"/>
</linearGradient>
<linearGradient id="paint3_linear" x1="59.9824" y1="23.3564" x2="59.9824" y2="98.3505" gradientUnits="userSpaceOnUse">
<stop/>
<stop offset="1"/>
</linearGradient>
<clipPath id="clip0">
<rect width="120" height="120" fill="white"/>
</clipPath>
</defs>
</svg>
