<svg width="120" height="120" viewBox="0 0 120 120" fill="none" xmlns="http://www.w3.org/2000/svg">
<path d="M119.365 41.6884C119.309 41.2523 119.242 40.8165 119.152 40.3898C119.071 39.9416 118.968 39.498 118.843 39.06L118.51 38.5312C117.137 37.4531 115.655 36.6384 114.151 35.9184C112.91 35.3325 111.65 34.8215 110.373 34.3509C106.818 24.4833 100.705 15.7336 92.6692 9.63705C84.363 3.33563 74.5935 0 64.419 0C54.2438 0 44.4735 3.33562 36.1673 9.6375C28.1306 15.7336 22.0181 24.4838 18.4631 34.3538C17.1905 34.8225 15.9272 35.3348 14.6878 35.9184C13.1812 36.6384 11.701 37.4531 10.328 38.5312L9.99375 39.06C9.8742 39.4991 9.77085 39.9428 9.68393 40.3894C9.59768 40.8169 9.53295 41.2519 9.47107 41.6876C9.34875 42.5513 9.26527 43.4194 9.2208 44.2901C9.13267 46.0335 9.18428 47.781 9.375 49.5157C9.56115 51.2554 9.88462 52.9774 10.3425 54.6656C10.5828 55.515 10.8636 56.3528 11.1839 57.1751C11.3452 57.5906 11.5214 58.0031 11.7169 58.4153C11.8134 58.62 11.9185 58.8203 12.0263 59.0295C12.2648 59.4476 12.3084 59.5294 12.4088 59.6779L12.8597 60.0934C13.1536 60.2441 13.3969 60.3589 13.6627 60.4853L14.4394 60.8333C14.5833 60.8925 14.7183 60.9506 14.865 61.0095C11.3377 64.2709 7.50705 68.5072 4.18969 73.7434L0 80.352L5.88139 75.1898C5.98125 75.1028 10.913 70.8334 19.1377 65.9966L19.2529 66.942C18.7148 67.2221 16.1288 68.5792 15.36 69.222C14.086 70.2802 14.024 71.9224 14.3653 74.9854C14.5402 76.5555 15.1289 79.6035 15.9229 82.398C17.2908 87.207 18.2935 88.0575 19.1737 88.257C19.5708 88.3515 20.0831 88.3958 20.6597 88.3958C22.2352 88.3958 24.2531 88.089 25.5698 87.6915C27.1144 92.4945 29.302 96.8303 31.9692 100.636C31.8403 100.67 31.7133 100.711 31.5844 100.748C29.9803 100.004 24.3713 97.4063 22.486 96.5588L18.5461 94.785L20.8762 98.4233C21.0459 98.6858 25.0683 104.958 28.3519 109.185C31.4236 113.127 35.6292 117.163 43.5653 117.163C44.5204 117.163 45.5198 117.1 46.5495 116.987C48.9158 116.716 50.6944 116.502 52.0462 116.329C60.3769 119.389 69.5629 119.578 78.2805 116.275C80.5635 115.407 82.7588 114.322 84.8355 113.037C88.197 112.23 91.8735 111.354 93.6893 110.844C93.9803 110.765 94.3447 110.678 94.7242 110.589C97.254 110.007 101.483 109.025 103.738 104.515C106.011 99.9637 109.716 92.9903 109.755 92.919L111.488 89.6655L108.112 91.1333C107.931 91.2158 103.653 93.078 101.431 94.2427C102.975 90.6877 103.885 87.7455 104.202 86.6153C105.446 86.9153 107.291 86.877 108.648 86.877C109.315 86.877 110.002 86.7608 110.447 86.6468C111.329 86.4233 112.01 85.8368 113.291 80.8748C114.037 77.9903 114.572 74.85 114.718 73.2356C115.002 70.0939 114.91 68.4105 113.628 67.3478C112.989 66.8198 111.114 65.8103 110.161 65.3134C110.694 65.085 110.956 65.1521 110.976 65.1578L111.841 61.875C112.146 61.7445 112.468 61.614 112.835 61.4734C113.358 61.2653 113.881 61.0582 114.404 60.8329L115.175 60.4845C115.444 60.3585 115.687 60.2441 115.981 60.0926L116.432 59.6775C116.529 59.529 116.582 59.4473 116.642 59.334C116.927 58.8195 117.028 58.6196 117.123 58.4153C117.319 58.0028 117.492 57.5903 117.656 57.1748C117.977 56.3524 118.257 55.5146 118.496 54.6653C118.955 52.977 119.279 51.255 119.465 49.5154C119.66 47.781 119.703 46.0339 119.616 44.2898C119.574 43.419 119.49 42.5509 119.365 41.6876V41.6884Z" fill="#0E0F0D"/>
<path d="M69.8794 109.296C69.2412 109.391 68.6033 109.469 67.9725 109.52C67.5619 109.54 67.131 109.58 66.7384 109.58L66.5918 109.584C67.0845 108.489 67.4592 107.637 67.7412 106.992C68.3183 107.637 69.0522 108.434 69.8794 109.296Z" fill="#E1C5A2"/>
<path d="M69.0773 60.2467C68.0805 61.0556 67.0305 61.8086 65.937 62.4693L62.2898 64.6691C60.0023 64.9481 58.0166 65.5132 57.903 65.5481C57.8366 65.5619 57.7736 65.5935 57.7148 65.6291C57.534 65.7356 57.3994 65.9058 57.3371 66.1061L53.6224 78.3412L33.7676 82.7557L27.5121 78.3765L25.6934 63.6434C29.246 62.9913 33.995 62.2387 39.6998 61.5986C39.078 62.3411 38.4881 63.1102 37.9324 63.9033L34.5363 68.7761L39.4823 65.4806C39.5573 65.4288 42.7043 63.3577 47.856 60.8377C53.4679 60.4173 59.0933 60.2062 64.7209 60.2051C66.2021 60.2051 67.6526 60.2227 69.0773 60.2471V60.2467ZM38.1724 76.8442C39.5835 76.0822 41.1773 76.194 43.6721 76.2C43.938 76.2045 44.2151 76.2014 44.502 76.1939C44.748 76.1939 44.994 76.1895 45.2554 76.182C47.8268 76.1565 49.9628 76.3995 49.9241 72.3667C49.8859 68.3332 48.0926 65.0715 45.5228 65.0966C42.954 65.1198 40.467 68.4251 40.6208 72.4567C40.6616 73.5063 40.8176 74.265 41.064 74.8098C38.8249 75.3727 38.2046 76.7572 38.172 76.8442H38.1724ZM103.49 63.5954L101.702 76.1227L95.3963 80.5372L75.567 78.2842L71.8673 66.1057C71.8268 65.973 71.7536 65.8522 71.655 65.7547C71.556 65.6572 71.4341 65.5859 71.301 65.5473C71.1791 65.5106 68.724 64.809 66.1215 64.584L66.5978 64.5528C67.008 64.5217 73.8461 63.6847 82.014 60.8715C91.056 61.5648 98.4428 62.6741 103.49 63.5954ZM90.8213 75.1905C90.795 75.093 90.2513 73.473 87.864 73.7572C88.1378 73.1576 88.2615 72.3483 88.1753 71.2376C87.8603 67.2123 85.515 64.0132 82.9485 64.104C80.379 64.1928 78.735 67.5296 78.8775 71.5687C79.0185 75.5977 81.1725 75.5699 83.742 75.4777C87.1928 75.4124 89.0873 74.3535 90.8213 75.1905Z" fill="#A89983"/>
<path d="M84.0741 67.9407C84.0801 68.2887 83.9481 68.6254 83.7066 68.8759C83.4651 69.1268 83.1344 69.2716 82.7864 69.2779C82.6139 69.2813 82.4429 69.2502 82.2824 69.1872C82.1219 69.1238 81.9756 69.0297 81.8519 68.9101C81.7281 68.7901 81.6291 68.6468 81.5601 68.489C81.4919 68.3307 81.4551 68.1604 81.4521 67.9879C81.4484 67.8154 81.4791 67.6441 81.5421 67.4836C81.6044 67.3231 81.6981 67.1764 81.8181 67.0523C81.9374 66.9282 82.0799 66.8288 82.2381 66.7598C82.3956 66.6908 82.5659 66.6541 82.7376 66.6507C82.9101 66.6469 83.0819 66.6773 83.2431 66.7403C83.4036 66.8033 83.5499 66.8974 83.6744 67.0174C83.7989 67.1371 83.8979 67.2807 83.9661 67.4393C84.0351 67.5976 84.0719 67.7682 84.0741 67.9411V67.9407ZM47.2761 68.9071C47.2848 69.2547 47.1554 69.5918 46.9161 69.8442C46.6773 70.0966 46.3476 70.2439 46.0004 70.2533C45.8275 70.2586 45.6554 70.2297 45.4941 70.1682C45.3325 70.1067 45.1848 70.0137 45.0591 69.8948C44.9335 69.7759 44.8326 69.6334 44.7621 69.4756C44.6916 69.3173 44.6534 69.1471 44.6489 68.9742C44.6444 68.8013 44.674 68.6296 44.7359 68.4683C44.7978 68.3074 44.8908 68.1601 45.01 68.0348C45.1289 67.9099 45.2714 67.8094 45.4289 67.7397C45.5868 67.6696 45.7566 67.6317 45.9291 67.6276C46.2771 67.6186 46.6146 67.7483 46.867 67.9883C47.1198 68.2283 47.2668 68.5587 47.2761 68.9071Z" fill="white"/>
<path d="M112.162 69.1275C111.852 68.8718 110.816 68.28 109.807 67.7344L108.146 79.383C108.128 79.4948 108.088 79.6028 108.028 79.6995C107.968 79.7963 107.889 79.8795 107.797 79.9455L105.419 81.6082C105.362 81.8895 105.318 82.1242 105.276 82.3447C107.612 82.9192 109.882 81.2348 111.155 80.019C111.745 77.724 112.258 75 112.436 73.05C112.707 70.0275 112.467 69.3787 112.162 69.1279V69.1275ZM75.438 113.381C73.8956 112.832 72.4815 111.937 71.2504 110.72C71.1476 110.616 71.0501 110.515 70.947 110.413C69.984 110.609 69.0098 110.749 68.0303 110.832C67.6121 110.851 67.2131 110.886 66.777 110.886L66.132 110.892L65.8838 110.886C64.4089 113.076 61.9301 114.28 59.9876 114.921C65.7581 115.911 72.1073 114.396 75.438 113.381ZM24.6413 84.8535C24.5897 84.678 24.5353 84.504 24.4852 84.3278L21.3961 82.1655C21.3009 82.098 21.2207 82.0118 21.1607 81.9113C21.1008 81.8115 21.0623 81.7005 21.0478 81.5843L19.5417 69.3529C18.4271 69.948 17.1384 70.6819 16.7958 70.9691C16.4977 71.2155 16.2703 71.8425 16.5923 74.7566C16.8371 76.9485 17.6067 80.3145 18.3928 82.8368C19.9571 84.033 22.2609 85.2945 24.6413 84.8535ZM70.821 84.2955C70.6594 84.2768 70.5068 84.2115 70.3819 84.1073C70.257 84.0023 70.1655 83.8635 70.119 83.7083L66.3071 71.1461C65.6678 71.0625 65.1004 71.0156 64.6215 71.0156C64.1404 71.0156 63.576 71.0625 62.9378 71.1461L59.232 83.3467C59.1889 83.487 59.109 83.6138 59.001 83.7135C58.893 83.8133 58.7603 83.883 58.6166 83.9145L56.8448 84.3097C56.6948 84.9352 56.1848 85.8533 54.5419 86.3573C51.8906 87.1658 35.1071 92.1683 33.1931 91.896C32.0756 91.7393 29.9494 90.5662 28.3767 89.6182C27.7472 88.1355 27.3989 87.1283 27.3192 86.8898V86.8845L27.3146 86.8898C27.5372 87.54 29.7272 93.8445 34.1771 100.011C38.9475 98.6048 43.0676 97.2945 44.3854 96.8775C47.0685 92.7398 50.8916 88.6335 53.6066 88.4933C54.0851 88.4693 54.564 88.4565 55.0429 88.4557C56.3734 88.4557 57.6431 88.5503 58.8221 88.6898C57.8209 87.7808 57.6154 86.718 57.4703 86.2463C57.4703 86.2463 60.9375 88.9583 65.3479 88.3883C69.7654 87.8228 72.5059 85.2787 72.5059 85.2787L72.5925 84.4965L70.8206 84.2955" fill="#E1C5A2"/>
<path d="M74.4139 85.8209C73.4989 85.5847 72.9226 85.2075 72.5573 84.8145L72.5123 85.215C72.5123 85.215 72.4973 87.0674 70.5762 88.5022C74.2755 87.3832 75.8055 87.0037 76.8533 87.0037C78.006 87.0037 78.576 87.4844 79.0763 87.9074C79.1715 87.9862 79.2661 88.0687 79.3793 88.1572C81.8071 90.0667 84.2288 91.9837 86.6445 93.9082C87.8025 94.0417 91.4783 94.4617 93.792 94.6725C95.124 94.797 96.3308 94.8967 97.512 94.8967C97.8908 94.8967 98.2485 94.8839 98.5875 94.8607C99.8078 92.5267 100.931 89.9452 101.93 87.099C100.562 88.0575 97.4453 90.1559 95.9843 90.4259C94.0845 90.7814 77.0933 86.5154 74.4139 85.8209Z" fill="#E1C5A2"/>
<path d="M117.173 41.91C117.14 41.5087 117.098 41.1083 117.048 40.7085C117.014 40.4231 116.972 40.1389 116.921 39.8557C115.848 38.9535 114.628 38.1495 113.359 37.4222C111.983 36.615 110.544 35.8973 109.074 35.2294C107.617 34.5403 106.117 33.9173 104.612 33.3103C103.859 33.0032 103.101 32.7086 102.338 32.4267C101.579 32.13 100.813 31.8534 100.045 31.5736C101.656 31.8412 103.254 32.2096 104.84 32.617C105.872 32.8804 106.897 33.18 107.915 33.5006C100.666 14.5598 83.3422 2.22656 64.4257 2.22656C45.5062 2.22656 28.1837 14.5604 20.9396 33.5006C21.9568 33.18 22.9843 32.8804 24.0113 32.617C25.5957 32.2092 27.1951 31.8412 28.809 31.574C28.0355 31.8534 27.2716 32.13 26.5084 32.4271C25.7473 32.7099 24.9907 33.0043 24.2387 33.3103C22.7326 33.9173 21.2359 34.5403 19.7738 35.2294C18.309 35.8973 16.8699 36.615 15.4932 37.4222C14.2234 38.1495 13.006 38.9535 11.9307 39.8557C11.8837 40.1392 11.8415 40.4235 11.8041 40.7085C11.7557 41.1083 11.7133 41.5087 11.6771 41.91C11.6106 42.7181 11.5762 43.5285 11.5741 44.3389C11.5567 45.9622 11.6668 47.586 11.8712 49.1906C12.0943 50.8016 12.3891 52.4021 12.8255 53.9501C13.037 54.7204 13.2848 55.4801 13.568 56.2264C13.711 56.5954 13.8653 56.9614 14.0266 57.3135C14.1058 57.4897 14.1878 57.6641 14.273 57.8306L14.3771 58.0275C14.4957 58.0871 14.6209 58.1501 14.738 58.2071L15.458 58.5506C15.8603 58.7351 16.4171 58.9991 16.877 59.2046C16.9028 59.181 16.9285 59.1577 16.9492 59.1352L15.6123 54.042C15.8964 53.9659 18.4351 53.3096 22.8104 52.4745C22.4559 52.4085 22.1032 52.3335 21.7525 52.2495C20.7564 52.0001 19.7729 51.6982 18.8191 51.3139C18.3475 51.114 17.882 50.8969 17.4385 50.6456C16.9955 50.3899 16.5601 50.1022 16.2212 49.7182C21.0273 51.2887 30.9615 50.5793 39.7927 49.665C47.8669 48.8321 55.9657 48.2944 64.1025 48.276C72.2377 48.2944 80.3392 48.8321 88.4092 49.665C97.2442 50.5793 107.178 51.2887 111.983 49.7182C111.649 50.1026 111.21 50.3899 110.771 50.6456C110.323 50.8965 109.857 51.1144 109.386 51.3139C108.433 51.6982 107.453 52.0001 106.456 52.2495C106.307 52.2847 106.158 52.3159 106.01 52.3489C110.81 53.2387 113.603 53.9629 113.899 54.0416L112.621 58.8934C112.881 58.7809 113.142 58.6684 113.392 58.5503L114.114 58.2064C114.232 58.1497 114.356 58.0864 114.478 58.0271L114.575 57.8303C114.662 57.6638 114.747 57.4894 114.826 57.3131C114.987 56.9614 115.141 56.595 115.282 56.226C115.564 55.479 115.813 54.7196 116.026 53.9497C116.463 52.4014 116.758 50.8009 116.977 49.1903C117.186 47.5856 117.296 45.9619 117.281 44.3385C117.279 43.5277 117.243 42.7177 117.173 41.91Z" fill="#E0D896"/>
<path d="M84.3277 32.5141C84.402 34.6801 84.3487 38.6111 83.3385 42.2888C83.298 42.4294 83.304 42.576 83.3385 42.7121C82.0545 42.5775 80.769 42.459 79.482 42.3559C80.9235 39.333 81.2385 36.1146 81.309 34.9801C82.4175 34.1942 83.5192 33.2489 84.3277 32.5141ZM47.5436 34.9801C47.6107 36.1142 47.9257 39.3251 49.3672 42.3484C48.0814 42.45 46.7955 42.5681 45.5126 42.7046C45.5471 42.5741 45.5501 42.4297 45.5126 42.2891C44.5046 38.6171 44.4514 34.6862 44.5207 32.5146C45.333 33.2489 46.4321 34.1942 47.5436 34.9801ZM100.119 45.7125C100.112 45.7492 100.103 45.7852 100.092 45.8205C100.233 45.8614 100.371 45.9026 100.513 45.9484C101.701 46.3376 102.891 46.7449 104.028 47.2699C102.131 46.0372 100.927 42.4819 100.256 39.7639C100.441 43.3219 100.136 45.5782 100.119 45.7125ZM42.9386 31.8304L30.665 35.3203C29.93 40.0931 30.154 43.7381 30.2721 45.003L30.3345 44.9655C30.3345 44.9655 30.7344 39.7665 31.5495 37.7711C31.9695 36.7468 34.5387 36.0935 36.4971 35.6254C38.4604 35.1596 41.5901 34.225 42.1976 36.9802C42.5726 38.6827 43.089 40.0984 43.584 41.1424C42.7957 37.3574 42.846 33.6562 42.9386 31.8304ZM85.9087 31.8304C86.0092 33.7274 86.0557 37.6485 85.1662 41.5849C85.7235 40.5154 86.343 38.9381 86.775 36.9802C87.381 34.225 90.5115 35.1596 92.4735 35.6258C94.4362 36.094 97.0027 36.7468 97.4227 37.7711C98.1142 39.4601 98.505 43.4415 98.6085 44.6265C98.7248 43.1036 98.8545 39.6818 98.1855 35.3198L85.9087 31.8304ZM47.4461 32.8928C47.8785 33.2397 48.324 33.5695 48.7822 33.8815C48.9964 34.0306 49.1276 34.2734 49.1321 34.5349C49.1351 34.5756 49.227 38.6186 51.0146 42.0611C51.0405 42.1125 51.0589 42.1688 51.0761 42.2224C55.521 41.9201 59.9786 41.7979 64.4254 41.7949C68.8747 41.7979 73.3297 41.9284 77.772 42.2325C77.79 42.174 77.8065 42.1174 77.8372 42.0611C79.6222 38.6186 79.719 34.5756 79.719 34.5349C79.7212 34.4058 79.755 34.2793 79.8165 34.1657C79.878 34.0522 79.965 33.9547 80.0715 33.8815C80.5117 33.5799 80.9407 33.2615 81.357 32.927L81.4132 32.7695C82.3425 23.7263 80.6377 15.3926 79.5547 11.2753C79.4977 14.0908 78.8302 38.2151 72.8422 38.2151H56.3149C49.9564 38.2151 49.4449 11.0156 49.4449 11.0156L49.1171 11.9815C48.0326 16.3186 46.5435 24.2906 47.4457 32.8928H47.4461ZM28.7576 45.8182C28.752 45.783 28.7421 45.7489 28.7342 45.7125C28.7145 45.5782 28.4079 43.3189 28.5926 39.7579C27.9213 42.4778 26.7148 46.0391 24.8145 47.2714C25.9512 46.7441 27.1465 46.3358 28.3371 45.9461C28.4759 45.9026 28.6184 45.8614 28.7576 45.8182Z" fill="#D7C184"/>
<path d="M105.281 82.3348C105.181 82.871 105.063 83.4028 104.929 83.9315C106.293 84.2495 108.521 84.4963 109.587 84.2878C110.043 83.792 110.632 82.0738 111.16 80.0098C109.887 81.2255 107.617 82.91 105.281 82.3348ZM56.436 115.698C59.6917 116.59 63.0169 116.976 66.2929 116.759C69.5798 116.536 73.8469 115.826 78.3765 113.987C77.3753 113.914 76.389 113.707 75.4433 113.372C72.1121 114.388 65.7634 115.903 59.9929 114.913C58.4648 115.415 57.2678 115.571 57.1508 115.586C56.91 115.614 56.7105 115.647 56.436 115.699V115.698ZM24.8611 85.574C24.7861 85.3318 24.7172 85.0873 24.6455 84.8443C22.2652 85.2845 19.9613 84.0238 18.3984 82.8283C18.9048 84.4475 19.4152 85.7195 19.7973 86.1065C20.9761 86.3128 23.5838 85.9513 24.8611 85.574ZM28.381 89.6083C29.9532 90.557 32.0794 91.7308 33.1974 91.8868C35.1113 92.1583 51.8947 87.1558 54.546 86.3473C56.1885 85.844 56.6996 84.926 56.8496 84.2998L32.6358 89.6915C32.576 89.7028 32.5153 89.7088 32.4544 89.7095H32.4516C32.2847 89.7095 32.1174 89.6585 31.9749 89.5595L31.0317 88.901L28.2033 86.9203V86.9158L27.0619 86.1193C27.0816 86.1838 27.105 86.2483 27.1261 86.312C27.1908 86.4995 27.2546 86.69 27.323 86.8745V86.8798C27.4027 87.1183 27.7509 88.1263 28.3805 89.6075L28.381 89.6083ZM102.656 84.9575C102.811 84.3853 102.963 83.8063 103.101 83.222L102.26 83.8123L99.9983 85.397L97.551 87.1123C97.425 87.1993 97.2787 87.251 97.1287 87.2623C97.0792 87.266 97.029 87.2645 96.9795 87.2593L72.597 84.4873L72.5557 84.8675C72.9206 85.2613 73.4966 85.6385 74.4113 85.8755C77.0903 86.57 94.0793 90.8398 95.979 90.4835C97.4393 90.2135 100.557 88.1135 101.923 87.1535C101.935 87.1205 101.947 87.0883 101.958 87.0553C102.2 86.3593 102.433 85.6595 102.656 84.9568" fill="#9F8F78"/>
<path d="M76.866 52.0609C76.674 52.3095 76.464 52.5814 76.2382 52.8649C75.0802 54.3285 73.4764 56.1949 71.5766 58.0264C69.3022 57.9548 67.0271 57.9192 64.752 57.9192C60.8861 57.9192 57.1796 58.0208 53.6602 58.1899C58.6354 56.1285 64.6091 54.1129 71.079 52.9035C72.9949 52.5383 74.9257 52.257 76.866 52.0605V52.0609ZM47.7634 54.2873C45.9855 55.5349 43.9826 57.1249 42.0386 59.0562C37.722 59.487 33.4193 60.0473 29.1363 60.7362C34.6432 58.2064 40.929 55.8754 47.7634 54.2873ZM108.586 64.5645L106.56 78.729L96.8595 85.5256L71.5609 82.6485L67.7546 70.107C67.7096 69.9578 67.6234 69.8243 67.5064 69.7215C67.389 69.6188 67.2454 69.5509 67.0916 69.5258C66.1549 69.3743 65.3265 69.3008 64.6346 69.3008C63.9409 69.3008 63.1132 69.3743 62.1705 69.5258C62.0175 69.5524 61.8746 69.6207 61.758 69.7234C61.6414 69.8258 61.5551 69.9585 61.509 70.107L57.7957 82.3441L32.6402 87.9405L22.6708 80.9573L20.7035 65.061C21.1373 64.8192 21.5717 64.5784 22.0066 64.3384C22.6249 64.2053 23.3191 64.0647 24.0869 63.9192L25.9385 78.9195C25.9643 79.1528 26.0956 79.3598 26.2882 79.4941L33.1483 84.3C33.2862 84.3953 33.4554 84.4493 33.6208 84.4493C33.6823 84.4493 33.7413 84.4411 33.806 84.4291L54.4882 79.8278C54.5595 79.8098 54.6285 79.7843 54.6945 79.7521C54.8846 79.6486 55.0376 79.4738 55.0999 79.2571L58.827 66.9945C59.826 66.7392 62.3857 66.1392 64.6342 66.1392C66.8786 66.1392 69.4376 66.7392 70.4392 66.9945L74.1641 79.2571C74.259 79.5736 74.5376 79.8053 74.8654 79.8428L95.5515 82.1933C95.7495 82.2165 95.9535 82.161 96.1185 82.0463L102.981 77.2485C103.165 77.115 103.292 76.9081 103.324 76.6823L105.156 63.8648C106.531 64.128 107.681 64.3695 108.586 64.5645ZM111.14 55.6804L109.359 62.4353C105.718 61.632 97.7197 60.0555 86.8335 58.9947C90.3885 57.4785 94.011 55.5784 97.3207 53.1983C103.798 54.1133 108.555 55.0958 111.14 55.6804ZM18.3691 55.6804L18.8641 57.5505C20.0712 56.589 21.3134 55.6725 22.5883 54.8029C20.8441 55.1374 19.4215 55.4423 18.3691 55.6804Z" fill="#6E6A67"/>
<path d="M88.2218 51.9326C85.4955 51.7778 82.7708 51.6476 80.043 51.5348C79.7378 51.9848 79.425 52.4291 79.1033 52.8671C77.6415 54.8445 74.7604 58.449 71.0674 61.542C73.8461 60.6615 84.8693 56.9636 90.4523 52.0699C89.709 52.0215 88.9658 51.9758 88.2218 51.9326ZM68.2448 51.2126L68.256 51.2096C66.8734 51.192 65.4896 51.177 64.1093 51.1718H64.1063C62.0723 51.1774 60.0435 51.2033 58.0099 51.2385L54.2599 53.016C54.24 53.0235 54.2213 53.0344 54.2044 53.0471C53.64 53.3209 48.7174 55.8053 44.0824 60.2374C44.4878 60.0236 44.9175 59.8024 45.3604 59.5778C47.8954 57.8745 54.6563 53.841 65.1694 51.1826C66.1946 51.1886 67.2203 51.1946 68.2444 51.2126H68.2448ZM45.2006 51.6653C43.4644 51.7455 41.7274 51.8348 39.993 51.9326C37.9811 52.0451 35.9756 52.1809 33.9717 52.332C32.9723 52.4089 31.9717 52.494 30.9807 52.5983C30.6929 52.6264 30.4117 52.6571 30.1299 52.6935C27.5115 54.2584 17.4905 60.5498 10.6055 68.7829C10.7242 68.6396 10.8465 68.4986 10.9679 68.3576C23.7146 57.4826 37.6894 53.2496 45.2006 51.6653ZM102.868 96.387L102.638 96.5048C101.36 97.1775 99.6848 97.506 97.5203 97.506C96.2318 97.506 94.968 97.398 93.567 97.2713C90.771 97.0155 86.0363 96.459 85.9883 96.45L85.626 96.4118L85.3395 96.1808C85.296 96.1523 81.1508 92.8455 77.7998 90.2108C77.6625 90.0998 77.5395 89.9948 77.427 89.9063C77.0738 89.604 77.0738 89.604 76.863 89.604C75.7868 89.604 72.6619 90.5738 65.8178 92.694L65.3978 92.829L64.9819 92.6708C64.935 92.6588 60.4455 90.9938 55.0631 90.9938C54.6225 90.9938 54.183 91.005 53.7555 91.026C53.2166 91.0538 50.1919 92.4908 46.3211 98.61L46.0729 99.0053L45.6278 99.1478C45.5629 99.1688 38.904 101.318 31.8408 103.337L31.3852 103.466L30.9493 103.265C30.9038 103.25 28.1457 101.966 25.5169 100.762C25.7105 100.852 25.9055 100.94 26.0996 101.03C28.6946 103.27 33.6638 107.578 34.2155 108.174C34.2919 108.26 34.3983 108.365 34.5248 108.484C34.397 108.338 34.2722 108.19 34.1508 108.039L34.1461 108.035L34.1466 108.035C35.2913 109.12 36.5691 110.058 37.965 110.718C38.6618 111.045 39.3919 111.299 40.1344 111.422C40.509 111.483 40.8724 111.514 41.2515 111.514C41.6355 111.514 42.0278 111.503 42.4196 111.484C43.9721 111.404 45.5393 111.285 47.1023 111.134C48.6634 110.993 50.2256 110.837 51.7853 110.648C53.343 110.48 54.9004 110.284 56.4446 110.044C57.2179 109.931 57.9866 109.804 58.7378 109.637C59.1068 109.55 59.4911 109.454 59.7829 109.322C60.0499 109.195 60.3728 108.939 60.6566 108.695C61.2379 108.194 61.7993 107.64 62.3546 107.087C62.9115 106.529 63.459 105.963 63.9971 105.388C64.9118 104.43 65.6955 103.413 66.5809 102.428C66.6941 102.305 66.81 102.174 66.9278 102.047C66.9278 102.05 66.9278 102.05 66.9296 102.05L66.9398 102.062C67.1246 102.194 67.3088 102.329 67.4891 102.47C68.5549 103.265 69.6548 104.125 70.716 104.867C72.0844 105.829 73.4697 106.793 74.9025 107.594C75.2603 107.793 75.63 107.979 75.9833 108.096C76.029 108.113 76.0673 108.121 76.1025 108.126C76.1288 108.142 76.2233 108.157 76.2338 108.157C76.3035 108.167 76.3973 108.172 76.4873 108.178C76.68 108.18 76.8795 108.172 77.0798 108.163C77.8883 108.107 78.708 107.989 79.5285 107.86C81.1673 107.605 82.8098 107.31 84.4433 106.982C86.0798 106.67 87.7148 106.334 89.3393 105.973C90.9705 105.626 92.5943 105.248 94.2105 104.839C95.013 104.623 95.8155 104.424 96.5318 104.08C97.263 103.74 97.941 103.273 98.5658 102.737C99.8273 101.664 100.887 100.333 101.768 98.8823L101.765 98.8875C102.198 98.0843 102.566 97.248 102.868 96.387ZM72.3116 19.3606H75.1943V13.5059H54.1193V19.3606H57.0019V16.3873H62.961V34.4693H60.5078V37.8255H68.8046V34.4693H66.3506V16.3873H72.3116V19.3606Z" fill="#93232C"/>
<path d="M94.1183 52.2995C94.113 52.2965 94.107 52.2946 94.101 52.2946C92.9078 52.2046 91.7138 52.1213 90.5198 52.0445L90.4515 52.0403C84.8678 56.9348 73.8454 60.6331 71.0663 61.5136C71.0123 61.5593 70.9594 61.6055 70.9054 61.6505C74.4829 61.0062 79.827 59.7293 85.3733 57.2731C88.101 56.0656 90.8768 54.5742 93.5183 52.7303C93.7223 52.589 93.9195 52.4408 94.1183 52.2995ZM65.1694 51.1523C54.6563 53.8107 47.8954 57.8446 45.36 59.5482C47.7008 58.3572 50.085 57.2532 52.5075 56.2385C52.7996 56.117 53.0925 55.9962 53.3854 55.8766C53.4773 55.8391 53.5684 55.8016 53.6606 55.7645C53.904 55.6662 54.15 55.5691 54.3971 55.4701C54.5348 55.4168 54.6709 55.3625 54.8096 55.3088C55.0316 55.2215 55.2563 55.1352 55.4824 55.0486C55.6515 54.9845 55.8206 54.9196 55.9916 54.8566C56.199 54.7767 56.4075 54.6991 56.6179 54.6222C56.8144 54.5495 57.0135 54.4778 57.2111 54.4062C57.4061 54.335 57.5996 54.2656 57.7961 54.1955C58.0196 54.1167 58.245 54.0387 58.4719 53.9596C58.6511 53.8981 58.8293 53.8358 59.0093 53.7743C59.2744 53.6855 59.5418 53.5962 59.8103 53.5081C59.958 53.4593 60.1043 53.4106 60.2524 53.3622C60.6724 53.2265 61.0969 53.0915 61.5244 52.9606C62.4574 52.6741 63.4103 52.4007 64.3793 52.1378C65.6599 51.7883 66.9488 51.47 68.2448 51.1823C67.2203 51.1651 66.1946 51.1591 65.1694 51.1523ZM45.2006 51.6357C37.6894 53.2205 23.7146 57.4535 10.9679 68.33C10.8465 68.471 10.7242 68.6116 10.6055 68.7552C17.0851 64.25 28.2225 57.5536 41.9918 53.4796C42.4354 53.3483 42.8835 53.2205 43.3328 53.0937C45.6604 52.4412 48.0135 51.8843 50.3865 51.4238C48.6593 51.4853 46.9298 51.557 45.2006 51.6357ZM105.35 95.1616C105.218 95.2216 105.086 95.2831 104.954 95.3453C104.883 95.3783 104.814 95.4113 104.742 95.4443L104.571 95.5253L104.311 95.6491C104.275 95.6678 104.237 95.6843 104.2 95.7038C104.101 95.7503 104.003 95.7961 103.908 95.8433L103.844 95.8756C103.739 95.9273 103.635 95.9768 103.535 96.0271L103.502 96.0428C103.278 96.1531 103.066 96.2603 102.868 96.3616C102.566 97.2241 102.196 98.0611 101.762 98.8651L101.767 98.8591C101.765 98.8613 101.762 98.8636 101.761 98.8681C100.881 100.312 99.822 101.639 98.5643 102.712C97.9395 103.247 97.2608 103.715 96.531 104.054C95.8133 104.399 95.0108 104.597 94.2098 104.813C92.5973 105.22 90.9713 105.602 89.3378 105.947C87.711 106.308 86.079 106.645 84.4418 106.957C82.8083 107.285 81.1658 107.58 79.5263 107.835C78.7065 107.963 77.8868 108.081 77.0783 108.137C76.881 108.149 76.6838 108.153 76.4858 108.152C76.401 108.149 76.3163 108.142 76.2323 108.131C76.1873 108.128 76.1438 108.117 76.1018 108.101C76.0605 108.096 76.02 108.086 75.9818 108.071C75.6278 107.955 75.2595 107.767 74.901 107.569C73.4685 106.766 72.0825 105.804 70.7141 104.843C69.6548 104.099 68.5523 103.239 67.4873 102.444L67.3946 102.576L67.401 102.583C67.4674 102.643 67.5341 102.698 67.6005 102.757L67.5956 102.754C67.5469 102.717 67.5004 102.682 67.455 102.649L68.3479 103.714C68.3509 103.717 68.3846 103.758 68.4503 103.835C68.9059 104.37 70.8128 106.583 73.0766 108.829C74.8005 110.538 76.8795 111.401 79.2653 111.401C80.0798 111.401 80.9355 111.294 81.8003 111.088C82.5998 110.891 83.4705 110.684 84.3623 110.469C87.006 109.84 89.9355 109.138 91.8795 108.633C92.0093 108.599 92.1353 108.566 92.256 108.534C92.5313 108.461 92.781 108.395 93.0038 108.333C93.384 108.227 93.7665 108.133 94.152 108.05C96.51 107.502 99.735 106.754 101.443 103.331C101.955 102.31 102.472 101.291 102.995 100.276C103.85 98.6138 104.712 96.9548 105.581 95.3003C105.581 95.2996 105.582 95.2996 105.582 95.2996L105.752 94.9748L105.35 95.1616ZM66.7343 102.547L66.5809 102.401C65.6948 103.388 64.9106 104.405 63.9971 105.364C63.459 105.939 62.9115 106.505 62.3546 107.062C61.7993 107.615 61.2375 108.172 60.6566 108.67C60.3724 108.915 60.0491 109.172 59.7829 109.298C59.4915 109.43 59.1068 109.526 58.7378 109.613C57.9878 109.78 57.2179 109.907 56.4446 110.02C54.9011 110.259 53.343 110.456 51.7853 110.623C50.2256 110.813 48.6634 110.969 47.1023 111.109C45.5396 111.26 43.9721 111.38 42.4196 111.461C42.0278 111.478 41.6355 111.491 41.2515 111.491C40.8724 111.491 40.5079 111.461 40.1344 111.398C39.3915 111.275 38.661 111.021 37.965 110.694C36.5696 110.034 35.2917 109.096 34.1466 108.011L34.1508 108.014C34.3055 108.205 34.4757 108.383 34.6384 108.565C34.599 108.529 34.5614 108.493 34.5248 108.459C34.3983 108.341 34.2919 108.236 34.215 108.149C33.6629 107.552 28.6932 103.244 26.0992 101.005C25.9051 100.914 25.71 100.826 25.5164 100.736C26.007 101.463 26.5024 102.187 27.0024 102.907C27.7671 104.012 28.5483 105.104 29.3457 106.185C29.6892 106.649 30.0379 107.11 30.3919 107.566C33.2123 111.196 36.7627 114.551 43.5761 114.551C44.4293 114.551 45.3371 114.498 46.269 114.392C46.4861 114.369 46.6969 114.344 46.9046 114.32C47.1041 114.297 47.3006 114.275 47.4911 114.253C53.4154 113.571 55.0406 113.281 55.9425 113.125C56.1761 113.085 56.3753 113.05 56.5909 113.018C56.6749 113.006 56.7604 112.992 56.8515 112.98C56.8841 112.977 58.8878 112.72 60.846 111.767C62.196 111.112 63.5235 110.126 64.173 108.67C65.8125 105.001 66.1459 104.125 66.159 104.092L66.7343 102.547Z" fill="#731B2A"/>
<path d="M82.7775 69.2621C83.1255 69.255 83.4562 69.1106 83.6977 68.8601C83.9392 68.6096 84.0712 68.274 84.066 67.926C84.063 67.7535 84.027 67.5829 83.958 67.4246C83.889 67.266 83.79 67.1227 83.6655 67.0031C83.541 66.8831 83.3947 66.789 83.2335 66.7264C83.073 66.6634 82.9012 66.633 82.7287 66.6371C82.5562 66.6401 82.386 66.6772 82.2277 66.7459C82.0702 66.8149 81.927 66.9142 81.8077 67.0384C81.6885 67.1629 81.594 67.3091 81.5317 67.4696C81.4687 67.6301 81.438 67.8015 81.4417 67.974C81.4485 68.322 81.5925 68.6531 81.843 68.8946C82.0935 69.1361 82.4295 69.2681 82.7775 69.2621ZM90.8497 75.1747C89.1165 74.3366 87.222 75.3967 83.7712 75.462C81.201 75.5535 79.0477 75.5812 78.906 71.5504C78.7642 67.5109 80.4075 64.1722 82.977 64.0834C85.5442 63.9934 87.8887 67.1936 88.2037 71.22C88.2907 72.3311 88.1677 73.1404 87.8932 73.7404C90.2797 73.4554 90.8242 75.0765 90.8497 75.1747ZM45.9855 70.236C46.3331 70.2262 46.6624 70.0792 46.9016 69.8272C47.1409 69.5749 47.2702 69.2381 47.2616 68.8909C47.2522 68.5425 47.1052 68.2125 46.8525 67.9725C46.6001 67.7329 46.2626 67.6031 45.9142 67.6121C45.7421 67.6166 45.5722 67.6552 45.4151 67.7257C45.2576 67.7959 45.1155 67.8964 44.997 68.0216C44.8785 68.1465 44.7859 68.2939 44.7244 68.4547C44.6629 68.6156 44.6336 68.7874 44.6381 68.9595C44.6426 69.1316 44.6812 69.3015 44.7517 69.459C44.8219 69.6161 44.9224 69.7582 45.0476 69.8767C45.1725 69.9952 45.3199 70.0879 45.4807 70.1494C45.6416 70.2109 45.8134 70.2401 45.9855 70.2356V70.236ZM49.953 72.3487C49.9909 76.383 47.8549 76.14 45.2839 76.1655C45.0229 76.1737 44.7765 76.1767 44.5301 76.1767C44.2436 76.185 43.9665 76.188 43.701 76.1835C41.2054 76.1767 39.612 76.0657 38.2005 76.8285C38.2335 76.7407 38.8541 75.3562 41.0929 74.7915C40.8457 74.2462 40.6905 73.488 40.6496 72.4384C40.4955 68.406 42.9832 65.0996 45.552 65.076C48.1211 65.0509 49.9147 68.3141 49.953 72.3487ZM98.6085 44.6085C98.5897 44.8567 98.5665 45.1046 98.538 45.3521C97.5202 45.0776 96.4972 44.8211 95.4697 44.5834C92.076 43.8379 88.641 43.2855 85.1887 42.891C85.0695 42.8756 84.948 42.8677 84.8265 42.8527C84.8497 42.801 84.8707 42.75 84.8865 42.699C84.9892 42.3221 85.0792 41.9449 85.1647 41.5669C86.055 37.6294 86.0085 33.7078 85.908 31.8099L98.1847 35.3007C98.8537 39.6634 98.724 43.0856 98.6085 44.6085ZM83.3385 42.2704C83.2972 42.411 83.3025 42.5576 83.3385 42.6937C82.0537 42.5595 80.7682 42.4406 79.4812 42.3375C80.9227 39.3142 81.2377 36.0947 81.3082 34.9599C82.416 34.1738 83.5177 33.2283 84.327 32.4933C84.4012 34.6599 84.348 38.5916 83.3377 42.2704H83.3385ZM45.5115 42.6859C45.5464 42.5554 45.549 42.411 45.5115 42.2704C44.5039 38.5969 44.4502 34.6655 44.5196 32.4933C45.3315 33.2283 46.431 34.1738 47.5429 34.9599C47.6096 36.0942 47.9246 39.306 49.3661 42.33C48.0802 42.4312 46.7951 42.5497 45.5115 42.6862V42.6859ZM43.6579 42.8884C41.9355 43.0984 40.2116 43.3155 38.496 43.5997C36.7849 43.893 35.0735 44.2042 33.3771 44.5811C32.3482 44.82 31.3287 45.0731 30.3082 45.3491C30.2988 45.2685 30.2862 45.1444 30.2716 44.9846C30.1535 43.719 29.9294 40.074 30.6644 35.2992L42.9379 31.808C42.8449 33.6347 42.7946 37.3365 43.5836 41.1221C43.6935 41.6479 43.818 42.174 43.9616 42.6971C43.9774 42.7485 43.998 42.8002 44.0205 42.846C43.8971 42.8617 43.779 42.8722 43.6571 42.888L43.6579 42.8884ZM105.188 47.8447C105.084 47.7949 104.98 47.7435 104.881 47.6947C104.73 47.6216 104.561 47.5384 104.368 47.4446C104.251 47.3876 104.137 47.3235 104.026 47.2522C102.891 46.7272 101.7 46.3204 100.511 45.9304C100.371 45.8846 100.232 45.8434 100.091 45.8021C100.102 45.7669 100.111 45.7309 100.118 45.6945C100.135 45.5602 100.441 43.3027 100.256 39.7444C100.179 38.2249 100.01 36.4679 99.6922 34.5371C99.6667 34.3868 99.6 34.2466 99.4987 34.1328C99.3975 34.0191 99.2655 33.9363 99.1192 33.894L97.3695 33.399C96.993 19.8586 91.4182 13.4958 91.2435 13.2984C96.2235 21.3141 96.18 30.8199 96.0937 33.0352L85.245 29.9513C85.2367 29.9513 85.23 29.9513 85.2195 29.9466C85.1737 29.9365 85.1272 29.9296 85.08 29.9259C85.0702 29.9259 85.0582 29.9241 85.0402 29.9241C84.981 29.9212 84.921 29.9263 84.8632 29.9391C84.855 29.9391 84.8452 29.9471 84.834 29.9471C84.7852 29.9573 84.738 29.9735 84.6937 29.9953C84.6765 30.0033 84.6615 30.0141 84.6457 30.0188C84.609 30.0436 84.5737 30.0642 84.5377 30.09C84.5302 30.0957 84.519 30.1003 84.5115 30.1078C84.501 30.1153 84.4972 30.1233 84.4912 30.1284C84.4807 30.1392 84.4687 30.1463 84.4597 30.1542C84.45 30.165 84.1575 30.4509 83.7037 30.8794C83.736 29.8646 83.7435 28.3116 83.6287 26.4155L83.5935 25.8684C83.2522 21.1046 82.1265 14.4132 78.7612 8.55521C78.7897 8.63959 79.1227 9.61129 79.5532 11.2486C80.6362 15.3671 82.341 23.7028 81.4117 32.7483C81.4072 32.7896 81.4042 32.8303 81.3997 32.8721C81.3862 32.8838 81.3705 32.8946 81.3562 32.9058C80.94 33.2403 80.511 33.5588 80.07 33.8607C79.9635 33.9339 79.8765 34.0313 79.815 34.1448C79.7535 34.2585 79.7197 34.385 79.716 34.5141C79.716 34.5549 79.6215 38.5987 77.8365 42.0424C77.805 42.0986 77.7885 42.1552 77.7697 42.2137C73.3282 41.9089 68.8732 41.7791 64.4239 41.7757C59.9767 41.7787 55.5195 41.901 51.0746 42.2032C51.057 42.1496 51.039 42.0934 51.0135 42.0416C49.2255 38.5987 49.1336 34.5549 49.131 34.5136C49.1284 34.3848 49.0954 34.2584 49.0342 34.1448C48.9735 34.0313 48.8861 33.9339 48.7804 33.8607C48.3221 33.5487 47.8766 33.2187 47.4446 32.8716C46.542 24.2667 48.0315 16.2933 49.116 11.9546C49.6305 9.89486 50.0554 8.64986 50.0891 8.55469C45.2059 17.0513 45.0367 27.3033 45.1451 30.879C44.6835 30.4505 44.397 30.165 44.3895 30.1538C44.3809 30.1458 44.3659 30.1388 44.3557 30.128L44.3385 30.1069C44.3299 30.0999 44.3201 30.0952 44.3096 30.0896C44.2751 30.0653 44.2391 30.0432 44.202 30.0234C44.184 30.0136 44.1709 30.0028 44.1502 29.9949C44.109 29.9725 44.0644 29.9578 44.0179 29.9513C44.0047 29.9466 43.9946 29.9386 43.9864 29.9386C43.9271 29.9262 43.8667 29.9211 43.8064 29.9236C43.7914 29.9236 43.7752 29.9255 43.7602 29.9255C43.7164 29.9302 43.6736 29.9353 43.6279 29.9461C43.617 29.9508 43.6117 29.9508 43.6016 29.9508L32.7565 33.0347C32.6693 30.819 32.6224 21.3132 37.6024 13.298C37.4299 13.4963 31.856 19.8596 31.4768 33.3999L29.7354 33.8944C29.5873 33.9351 29.4541 34.0173 29.3516 34.1315C29.2491 34.2457 29.1815 34.3869 29.1569 34.5384C28.8724 36.2603 28.6837 37.9965 28.5916 39.7391C28.4079 43.3016 28.7135 45.561 28.7332 45.6956C28.7412 45.7312 28.751 45.7661 28.7566 45.801C28.6179 45.8441 28.4749 45.8854 28.3362 45.9289C27.1456 46.3189 25.9507 46.7276 24.814 47.2545C24.7108 47.3212 24.6037 47.3816 24.4933 47.4356L24.4756 47.4454C24.2819 47.5391 24.1137 47.6227 23.9618 47.6959L23.695 47.826C23.6388 47.859 23.5807 47.8871 23.5254 47.9201C24.3302 47.6044 25.1627 47.3737 25.9943 47.1694C26.8274 46.962 27.6661 46.7782 28.5096 46.6181C30.1985 46.3042 31.8912 46.0312 33.5946 45.8239C35.2933 45.6007 36.9991 45.4166 38.7079 45.2737C40.4167 45.1279 42.123 44.9842 43.836 44.8852C50.6857 44.4799 57.5535 44.3516 64.4235 44.3494C71.2957 44.3542 78.1627 44.4619 85.011 44.883C86.7247 44.9816 88.431 45.1245 90.1425 45.2696C91.854 45.4147 93.5535 45.6015 95.2522 45.8246C96.9562 46.0294 98.652 46.3009 100.338 46.6166C101.181 46.7756 102.019 46.9601 102.85 47.1694C103.688 47.3741 104.516 47.6047 105.322 47.9209C105.277 47.8935 105.232 47.8702 105.188 47.8447Z" fill="#0E0F0D"/>
<path d="M66.3407 16.4161V34.4982H68.7947V37.8544H60.4967V34.4982H62.9507V16.4161H56.9901V19.3899H54.1082V13.5352H75.1851V19.3899H72.3029V16.4157H66.3407V16.4161ZM77.3556 21.5546V11.3672H51.9434V21.5546H59.1599V18.5808H60.781V32.3292H58.3326V40.0159H70.9626V32.3283H68.506V18.5799H70.1335V21.5541H77.3556V21.5546Z" fill="#0E0F0D"/>
</svg>
