<svg width="534" height="170" viewBox="0 0 534 170" fill="none" xmlns="http://www.w3.org/2000/svg">
<path fill-rule="evenodd" clip-rule="evenodd" d="M82.7678 84.3221C78.5354 83.7343 74.0859 84.3131 70.2514 86.2575C66.8691 87.8853 63.939 90.4175 61.7685 93.4924C61.5853 93.4783 61.4028 93.4636 61.2205 93.4489C60.7008 93.4071 60.1836 93.3654 59.6613 93.3386C55.1757 93.0854 50.6538 94.5867 47.163 97.4083C42.1528 101.369 39.4488 108.016 40.2175 114.347C40.1862 114.403 40.1376 114.503 40.0956 114.589C40.0769 114.627 40.0596 114.663 40.0457 114.691C41.1044 115.206 42.0586 115.884 43.0115 116.561C43.3122 116.774 43.6127 116.988 43.9163 117.196C44.7122 114.673 45.5894 112.14 46.946 109.852C49.5686 105.258 53.4122 101.351 58.0063 98.7106C66.6975 93.4941 78.1235 93.5005 86.9517 98.3985C84.1253 101.394 82.3928 105.434 82.3928 109.877C82.3928 119.118 89.8834 126.608 99.1235 126.608C108.364 126.608 115.854 119.118 115.854 109.877C115.854 100.637 108.364 93.1467 99.1235 93.1467C98.5195 93.1467 97.923 93.1787 97.3355 93.2411C96.7503 92.423 96.1077 91.6464 95.4108 90.924C92.0918 87.397 87.561 85.0185 82.7678 84.3221Z" fill="url(#paint0_linear)"/>
<path d="M58.0063 98.7015C66.8057 93.42 78.4087 93.4924 87.2805 98.5749C88.9627 99.5335 90.5182 100.691 92.0194 101.903C95.0943 100.691 98.2234 99.5607 101.524 99.1447C104.807 98.6201 108.144 98.7377 111.436 99.0542C114.61 99.6692 117.776 100.456 120.715 101.858C124.712 103.685 128.33 106.289 131.377 109.445C133.132 111.462 134.787 113.56 136.134 115.875C138.965 120.65 140.575 126.113 140.936 131.648C141.163 135.193 140.774 138.774 139.951 142.229C138.287 149.12 134.389 155.36 129.234 160.18C126.982 162.794 124.296 165.073 121.104 166.438C117.812 167.976 114.158 168.446 110.568 168.482C107.972 168.745 105.359 168.772 102.763 168.509C98.4133 168.347 94.0542 168.482 89.7042 168.437C67.3393 168.437 44.9744 168.428 22.6095 168.428C20.4661 168.428 18.3137 168.202 16.2427 167.641C10.8618 166.221 5.99628 162.676 3.29223 157.775C1.00419 153.705 0.371136 148.722 1.65533 144.227C2.92144 139.57 6.12289 135.563 10.1744 133.004C10.2468 127.84 12.1188 122.676 15.682 118.896C19.2 115.016 24.2825 112.574 29.5188 112.339C33.1543 112.158 36.8803 112.891 40.0546 114.691C41.4474 115.36 42.6502 116.328 43.9253 117.196C44.7212 114.673 45.5984 112.14 46.9549 109.852C49.5686 105.249 53.4031 101.342 58.0063 98.7015Z" fill="url(#paint1_linear)"/>
<path d="M24.1059 47.832C28.2019 47.832 31.9779 46.872 35.4339 44.888C38.8899 42.904 41.5779 40.216 43.4339 36.888L38.2499 33.944C35.6899 38.808 30.2499 42.008 24.1059 42.008C18.9219 42.008 14.6979 40.344 11.4339 37.016C8.16988 33.688 6.56989 29.528 6.56989 24.6C6.56989 19.608 8.16988 15.448 11.4339 12.12C14.6979 8.792 18.9219 7.128 24.1059 7.128C30.2499 7.128 35.6899 10.328 38.2499 15.256L43.4339 12.248C39.5939 5.592 32.2979 1.368 24.1059 1.368C17.3219 1.368 11.6899 3.608 7.27388 8.088C2.85788 12.568 0.681885 18.072 0.681885 24.6C0.681885 31.128 2.85788 36.632 7.27388 41.112C11.6899 45.592 17.3219 47.832 24.1059 47.832Z" fill="black"/>
<path d="M55.3544 47V0.279999H49.7864V47H55.3544Z" fill="black"/>
<path d="M90.8569 42.968C94.1209 39.704 95.7849 35.736 95.7849 31C95.7849 26.264 94.1209 22.296 90.8569 19.032C87.5929 15.768 83.5609 14.168 78.8889 14.168C74.2169 14.168 70.1849 15.768 66.9209 19.032C63.6569 22.296 62.0569 26.264 62.0569 31C62.0569 35.736 63.6569 39.704 66.9209 42.968C70.1849 46.232 74.2169 47.832 78.8889 47.832C83.5609 47.832 87.5929 46.232 90.8569 42.968ZM78.8889 42.392C75.7529 42.392 73.0649 41.304 70.8889 39.128C68.7129 36.952 67.6249 34.264 67.6249 31C67.6249 27.736 68.7129 25.048 70.8889 22.872C73.0649 20.696 75.7529 19.608 78.8889 19.608C82.0889 19.608 84.7769 20.696 86.9529 22.872C89.1289 25.048 90.2169 27.736 90.2169 31C90.2169 34.264 89.1289 36.952 86.9529 39.128C84.7769 41.304 82.0889 42.392 78.8889 42.392Z" fill="black"/>
<path d="M124.429 31.96C124.429 39.128 120.717 42.52 115.149 42.52C110.221 42.52 107.213 39.512 107.213 34.328V15H101.645V34.648C101.645 42.776 106.573 47.832 114.061 47.832C118.733 47.832 122.189 46.04 124.429 42.392V47H129.997V15H124.429V31.96Z" fill="black"/>
<path d="M164.97 20.504C162.218 16.28 158.186 14.168 152.874 14.168C148.394 14.168 144.554 15.832 141.418 19.096C138.282 22.36 136.682 26.328 136.682 31C136.682 35.672 138.282 39.704 141.418 42.968C144.554 46.232 148.394 47.832 152.874 47.832C158.186 47.832 162.218 45.72 164.97 41.496V47H170.538V2.2H164.97V20.504ZM153.578 42.456C150.378 42.456 147.69 41.368 145.514 39.192C143.338 36.952 142.25 34.264 142.25 31C142.25 27.736 143.338 25.048 145.514 22.872C147.69 20.632 150.378 19.544 153.578 19.544C156.842 19.544 159.53 20.632 161.706 22.872C163.882 25.048 164.97 27.736 164.97 31C164.97 34.264 163.882 36.952 161.706 39.192C159.53 41.368 156.842 42.456 153.578 42.456Z" fill="black"/>
<path d="M201.502 27.16H220.382V21.592H201.502V7.832H221.982V2.2H195.55V47H222.302V41.368H201.502V27.16Z" fill="black"/>
<path d="M244.847 14.168C240.175 14.168 236.719 15.96 234.479 19.608V15H228.911V47H234.479V30.04C234.479 22.872 238.191 19.48 243.759 19.48C248.687 19.48 251.695 22.488 251.695 27.672V47H257.263V27.352C257.263 19.224 252.335 14.168 244.847 14.168Z" fill="black"/>
<path d="M291.596 20.504C288.844 16.28 284.812 14.168 279.564 14.168C275.02 14.168 271.116 15.768 267.98 19.032C264.844 22.232 263.244 26.136 263.244 30.808C263.244 35.48 264.844 39.384 267.98 42.648C271.116 45.912 275.02 47.512 279.564 47.512C284.748 47.512 288.78 45.4 291.596 41.112V45.656C291.596 51.736 287.564 55.448 280.908 55.448C275.724 55.448 272.204 53.656 270.476 50.072L265.612 52.824C268.236 57.88 273.612 60.632 280.78 60.632C285.26 60.632 289.1 59.288 292.3 56.664C295.5 54.04 297.1 50.392 297.1 45.656V15H291.596V20.504ZM291.596 30.808C291.596 34.072 290.508 36.76 288.332 38.936C286.156 41.112 283.468 42.2 280.204 42.2C276.94 42.2 274.252 41.112 272.076 38.936C269.9 36.76 268.812 34.072 268.812 30.808C268.812 27.608 269.9 24.92 272.076 22.744C274.252 20.568 276.94 19.48 280.204 19.48C283.468 19.48 286.156 20.568 288.332 22.744C290.508 24.92 291.596 27.608 291.596 30.808Z" fill="black"/>
<path d="M308.352 9.176C310.4 9.176 312.064 7.512 312.064 5.464C312.064 3.416 310.4 1.688 308.352 1.688C306.24 1.688 304.576 3.416 304.576 5.464C304.576 7.512 306.24 9.176 308.352 9.176ZM311.104 47V15H305.536V47H311.104Z" fill="black"/>
<path d="M335.535 14.168C330.863 14.168 327.407 15.96 325.167 19.608V15H319.599V47H325.167V30.04C325.167 22.872 328.879 19.48 334.447 19.48C339.375 19.48 342.383 22.488 342.383 27.672V47H347.951V27.352C347.951 19.224 343.023 14.168 335.535 14.168Z" fill="black"/>
<path d="M386.444 33.56C386.572 32.728 386.636 31.896 386.636 31.064C386.636 26.392 385.164 22.424 382.156 19.16C379.212 15.832 375.372 14.168 370.7 14.168C365.772 14.168 361.74 15.768 358.604 18.968C355.468 22.168 353.932 26.2 353.932 31C353.932 35.864 355.532 39.896 358.668 43.096C361.868 46.232 366.028 47.832 371.084 47.832C377.356 47.832 382.028 45.4 385.164 40.6L380.428 37.912C378.508 41.048 375.436 42.584 371.212 42.584C365.132 42.584 360.716 39.256 359.628 33.56H386.444ZM370.7 19.416C375.82 19.416 380.044 22.616 381.004 28.696H359.628C360.588 23.064 364.748 19.416 370.7 19.416Z" fill="black"/>
<path d="M423.694 33.56C423.822 32.728 423.886 31.896 423.886 31.064C423.886 26.392 422.414 22.424 419.406 19.16C416.462 15.832 412.622 14.168 407.95 14.168C403.022 14.168 398.99 15.768 395.854 18.968C392.718 22.168 391.182 26.2 391.182 31C391.182 35.864 392.782 39.896 395.918 43.096C399.118 46.232 403.278 47.832 408.334 47.832C414.606 47.832 419.278 45.4 422.414 40.6L417.678 37.912C415.758 41.048 412.686 42.584 408.462 42.584C402.382 42.584 397.966 39.256 396.878 33.56H423.694ZM407.95 19.416C413.07 19.416 417.294 22.616 418.254 28.696H396.878C397.838 23.064 401.998 19.416 407.95 19.416Z" fill="black"/>
<path d="M435.854 15H430.286V47H435.854V30.04C435.854 26.52 436.814 24.024 438.798 22.424C440.782 20.824 443.086 20.12 445.838 20.248V14.424C441.038 14.424 437.71 16.408 435.854 20.376V15Z" fill="black"/>
<path d="M454.102 9.176C456.15 9.176 457.814 7.512 457.814 5.464C457.814 3.416 456.15 1.688 454.102 1.688C451.99 1.688 450.326 3.416 450.326 5.464C450.326 7.512 451.99 9.176 454.102 9.176ZM456.854 47V15H451.286V47H456.854Z" fill="black"/>
<path d="M481.285 14.168C476.613 14.168 473.157 15.96 470.917 19.608V15H465.349V47H470.917V30.04C470.917 22.872 474.629 19.48 480.197 19.48C485.125 19.48 488.133 22.488 488.133 27.672V47H493.701V27.352C493.701 19.224 488.773 14.168 481.285 14.168Z" fill="black"/>
<path d="M528.034 20.504C525.282 16.28 521.25 14.168 516.002 14.168C511.458 14.168 507.554 15.768 504.418 19.032C501.282 22.232 499.682 26.136 499.682 30.808C499.682 35.48 501.282 39.384 504.418 42.648C507.554 45.912 511.458 47.512 516.002 47.512C521.186 47.512 525.218 45.4 528.034 41.112V45.656C528.034 51.736 524.002 55.448 517.346 55.448C512.162 55.448 508.642 53.656 506.914 50.072L502.05 52.824C504.674 57.88 510.05 60.632 517.218 60.632C521.698 60.632 525.538 59.288 528.738 56.664C531.938 54.04 533.538 50.392 533.538 45.656V15H528.034V20.504ZM528.034 30.808C528.034 34.072 526.946 36.76 524.77 38.936C522.594 41.112 519.906 42.2 516.642 42.2C513.378 42.2 510.69 41.112 508.514 38.936C506.338 36.76 505.25 34.072 505.25 30.808C505.25 27.608 506.338 24.92 508.514 22.744C510.69 20.568 513.378 19.48 516.642 19.48C519.906 19.48 522.594 20.568 524.77 22.744C526.946 24.92 528.034 27.608 528.034 30.808Z" fill="black"/>
<path d="M208.636 169.365C216.196 169.365 222.286 167.475 227.011 163.695C231.736 159.81 234.046 154.665 234.046 148.26C234.046 143.64 232.996 139.86 230.371 137.235C228.586 135.135 227.641 133.98 224.701 132.405C221.866 130.83 221.026 130.305 217.351 128.94C215.566 128.205 214.306 127.785 213.466 127.47L209.161 126.105C203.491 124.32 199.501 122.535 197.191 120.855C194.881 119.175 193.726 116.76 193.726 113.505C193.726 106.785 199.081 102.585 207.061 102.585C215.041 102.585 220.606 106.365 223.756 113.925L231.946 109.2C227.641 99.54 218.716 93.135 207.061 93.135C200.656 93.135 195.196 95.025 190.681 98.805C186.166 102.48 183.961 107.52 183.961 113.925C183.961 119.28 186.166 123.585 188.581 126.21C189.736 127.47 191.521 128.73 193.936 129.99C196.351 131.145 198.451 132.09 200.026 132.72L207.061 135.03C213.256 137.025 217.771 138.81 220.396 140.595C223.021 142.38 224.386 145.005 224.386 148.47C224.386 155.295 218.926 159.81 208.846 159.81C198.661 159.81 192.046 155.4 189.211 146.475L180.811 151.305C184.696 162.54 194.881 169.365 208.636 169.365Z" fill="black"/>
<path d="M280.889 143.325C280.889 155.085 274.799 160.65 265.664 160.65C257.579 160.65 252.644 155.715 252.644 147.21V115.5H243.509V147.735C243.509 161.07 251.594 169.365 263.879 169.365C271.544 169.365 277.214 166.425 280.889 160.44V168H290.024V115.5H280.889V143.325Z" fill="black"/>
<path d="M360.632 114.135C353.282 114.135 347.822 117.075 344.147 123.06C340.892 117.075 335.747 114.135 328.712 114.135C321.887 114.135 316.637 116.97 313.067 122.535V115.5H303.932V168H313.067V138.81C313.067 128.205 318.842 122.85 326.507 122.85C333.332 122.85 337.637 127.575 337.637 135.66V168H346.772V138.81C346.772 127.995 351.812 122.85 359.687 122.85C366.722 122.85 371.237 127.575 371.237 135.66V168H380.372V135.345C380.372 122.325 372.392 114.135 360.632 114.135Z" fill="black"/>
<path d="M449.738 114.135C442.388 114.135 436.928 117.075 433.253 123.06C429.998 117.075 424.853 114.135 417.818 114.135C410.993 114.135 405.743 116.97 402.173 122.535V115.5H393.038V168H402.173V138.81C402.173 128.205 407.948 122.85 415.613 122.85C422.438 122.85 426.743 127.575 426.743 135.66V168H435.878V138.81C435.878 127.995 440.918 122.85 448.793 122.85C455.828 122.85 460.343 127.575 460.343 135.66V168H469.478V135.345C469.478 122.325 461.498 114.135 449.738 114.135Z" fill="black"/>
<path d="M486.765 105.945C490.125 105.945 492.855 103.215 492.855 99.855C492.855 96.495 490.125 93.66 486.765 93.66C483.3 93.66 480.57 96.495 480.57 99.855C480.57 103.215 483.3 105.945 486.765 105.945ZM491.28 168V115.5H482.145V168H491.28Z" fill="black"/>
<path d="M533.776 115.5H519.811V100.8L510.676 103.53V115.5H500.281V124.32H510.676V152.775C510.676 165.795 517.816 170.1 533.776 168V159.81C524.431 160.23 519.811 160.86 519.811 152.775V124.32H533.776V115.5Z" fill="black"/>
<defs>
<linearGradient id="paint0_linear" x1="40.0457" y1="126.608" x2="115.854" y2="126.608" gradientUnits="userSpaceOnUse">
<stop stop-color="#F7BF2A"/>
<stop offset="0.182292" stop-color="#F26E7E"/>
<stop offset="0.380208" stop-color="#BE5188"/>
<stop offset="0.536458" stop-color="#8A3391"/>
<stop offset="0.744792" stop-color="#805AC3"/>
<stop offset="1" stop-color="#7682F4"/>
</linearGradient>
<linearGradient id="paint1_linear" x1="1" y1="168.693" x2="141" y2="168.693" gradientUnits="userSpaceOnUse">
<stop stop-color="#F7BF2A"/>
<stop offset="0.182292" stop-color="#F26E7E"/>
<stop offset="0.380208" stop-color="#BE5188"/>
<stop offset="0.536458" stop-color="#8A3391"/>
<stop offset="0.744792" stop-color="#805AC3"/>
<stop offset="1" stop-color="#7682F4"/>
</linearGradient>
</defs>
</svg>
