<?xml version="1.0" encoding="utf-8"?>
<!-- Generator: Adobe Illustrator 24.2.1, SVG Export Plug-In . SVG Version: 6.00 Build 0)  -->
<svg version="1.1" id="Layer_1" xmlns="http://www.w3.org/2000/svg" xmlns:xlink="http://www.w3.org/1999/xlink" x="0px" y="0px"
	 viewBox="0 0 225.8 143.3" style="enable-background:new 0 0 225.8 143.3;" xml:space="preserve">
<style type="text/css">
	.st0{fill:#C1FFFF;}
	.st1{fill:#7FFCF8;}
	.st2{fill:#19ECF8;}
	.st3{fill:#DCFFF1;}
	.st4{fill:#00D8EC;}
	.st5{fill:#34ECF3;}
	.st6{fill:#00CBE4;}
	.st7{fill:#26E4EE;}
	.st8{fill:#C41ACD;}
	.st9{fill:#9000A6;}
	.st10{fill:#75FFFF;}
	.st11{fill:#453772;}
	.st12{fill:#5371A0;}
	.st13{fill:#FFFFFF;}
	.st14{fill:#00BEDC;}
	.st15{fill:#E23EE2;}
	.st16{fill:#EE3FF3;}
	.st17{fill:none;stroke:#FFFFFF;stroke-width:1.09;stroke-miterlimit:10;}
	.st18{fill:#FFD55B;}
	.st19{fill:#FF92B0;}
	.st20{fill:#B14FBE;}
	.st21{fill:#00BEE2;}
	.st22{fill:#FF40D4;}
	.st23{fill:#DB21BA;}
	.st24{fill:#EF00C3;}
	.st25{fill:#8C008D;}
	.st26{fill:#D714B2;}
	.st27{fill:#FF59DA;}
	.st28{fill:#805AC3;}
	.st29{fill:#26C9DA;}
	.st30{fill:#00AAC9;}
	.st31{fill:#730085;}
	.st32{fill:#B6F7FA;}
	.st33{fill:#CC00A4;}
	.st34{fill:#6F0065;}
	.st35{fill:#DDFFFF;}
	.st36{fill:#86EAE7;}
	.st37{fill:#A7FFFF;}
	.st38{fill:#99FFFF;}
	.st39{fill:#50004B;}
	.st40{fill:#7682F4;}
	.st41{fill:#D5EAEF;}
	.st42{fill:#BD4C85;}
	.st43{fill:#D86AA6;}
	.st44{fill:#AA437B;}
	.st45{fill:#9FADFF;}
	.st46{fill:#6077D8;}
	.st47{fill:#44BF55;}
	.st48{fill:#006600;}
	.st49{fill:#CE00AE;}
	.st50{fill:#251E3F;}
	.st51{fill:#F26E7E;}
	.st52{fill:#D23B68;}
	.st53{fill:#FCFFEF;}
	.st54{fill-rule:evenodd;clip-rule:evenodd;fill:#F26E7E;}
	.st55{fill-rule:evenodd;clip-rule:evenodd;fill:#8A3391;}
	.st56{fill-rule:evenodd;clip-rule:evenodd;fill:#F7BF2A;}
	.st57{fill-rule:evenodd;clip-rule:evenodd;}
	.st58{fill:#FFA7A1;}
	.st59{fill:#BC2C59;}
	.st60{fill:#8A3391;}
	.st61{fill:#F7BF2A;}
	.st62{fill:#FFFFFF;stroke:#FFFFFF;stroke-width:1.09;stroke-linecap:round;stroke-linejoin:round;stroke-miterlimit:10;}
</style>
<g>
	<path class="st41" d="M112.5,81.7c47.6,0,86.1-4.5,86.1-10c0-5.5-38.6-10-86.1-10s-86.1,4.5-86.1,10
		C26.4,77.2,64.9,81.7,112.5,81.7z"/>
	<g>
		<g>
			<g>
				<path class="st42" d="M162.9,37.4c-1-5.6-1.4-9.6-2.4-15.3c-0.3-1.8-1-5.4-1.6-7.1c-1.9-5.2-5.1-5.7-11.6-5.9
					c-6,0.1-9.5,1.4-11.3,6c-0.8,2.3-1.4,4.7-1.9,7.2c-1,5.6-1.4,9.5-2.4,15.1c-1.1,6.6-2.2,13.2-2,19.8c0.1,2,0.3,4,1.2,5.8
					c1.3,2.3,3.8,3.8,6.4,4.4c2.6,0.6,7.3,1.2,10,1.1c2.6,0.1,7.4-0.4,10-1.1c2.6-0.6,5.1-2.1,6.4-4.4c1-1.7,1.2-3.8,1.2-5.8
					C165.1,50.6,164,44,162.9,37.4z"/>
				<path class="st43" d="M162.9,37.4c-1-5.6-1.4-9.6-2.4-15.3c-0.3-1.8-1-5.4-1.6-7.1c-1.9-5.2-5.1-5.7-11.6-5.9
					c-1.1,0-5.1-0.2-6-0.1c-0.9,0.1,1.4,0.5,0.6,0.7c-3.3,0.8-4.8,2.4-6,5.4c-0.8,2.3-1.4,4.7-1.9,7.2c-1,5.6-1.4,9.5-2.4,15.1
					c-1.1,6.6-2.2,13.2-2,19.8c0.1,1.8,0.2,3.7,1,5.3c-0.2-1.1-0.3-2.2-0.3-3.3c-0.2-6.6,0.9-13.3,1.9-19.8
					c0.9-5.6,1.4-9.5,2.3-15.1c0.4-2.4,1-4.8,1.8-7.2c1.7-4.6,5.1-5.9,10.9-6c6.2,0.2,9.3,0.7,11.2,5.9c0.6,1.7,1.2,5.3,1.5,7.1
					c0.9,5.6,1.4,9.6,2.3,15.3c1.1,6.6,2.1,13.2,1.9,19.8c0,1.1-0.1,2.2-0.3,3.3c0.7-1.6,0.9-3.5,1-5.3
					C165.1,50.6,164,44,162.9,37.4z"/>
				<path class="st44" d="M161,58.3c-0.5,0-7.6,1.2-13.6,1.3c-4.1,0.1-12.7-1.4-12.8-1.4c-1.5-0.2-4.8-1.8-4.5-1.4
					c-0.3,0-0.5-0.1-0.7-0.2c0,0.2,0,0.4,0,0.7c0.1,2,0.3,4,1.2,5.8c1.3,2.3,3.8,3.8,6.4,4.4c2.6,0.6,7.3,1.2,10,1.1
					c2.6,0.1,7.4-0.4,10-1.1c2.6-0.6,5.1-2.1,6.4-4.4c1-1.7,1.2-3.8,1.2-5.8c0-0.5,0-1,0-1.5C163.7,55.7,161.8,58.3,161,58.3z"/>
				<path class="st44" d="M161,63.6c-3.1,0.6-10.1,1.1-13.2,1c-3.2,0.1-10.4-0.6-13.4-1.2c-1.2-0.2-0.9,1.5-1.9,1
					c1.4,1.5,3.3,2.5,5.4,3c2.6,0.6,7.3,1.2,10,1.1c2.6,0.1,7.4-0.4,10-1.1c2-0.4,3.9-1.5,5.3-3C162,64.9,162.1,63.4,161,63.6z"/>
				<path class="st44" d="M126.2,57.2c-0.7,0.5-1.3,1.1-1.7,1.9c-0.4,0.8-0.7,1.6-0.7,2.4c-0.1,2.1,1.3,4.1,3.1,5.3
					c1.8,1.2,3.9,1.7,6,2.1c0.7,0.1,1.4,0.3,2.1,0.4c0.3,0.1,0.5,0.1,0.8,0c0.2-0.1,0.4-0.3,0.5-0.4c1-1.2,2-2.6,2.7-4
					c0.4-0.7,0.7-1.5,0.7-2.3c0-1.1-0.8-2-1.5-2.9c-1.1-1.3-2.4-2.7-4-3.1c-0.7-0.2-1.4-0.2-2.1-0.4c-0.6-0.2-0.9-0.5-1.6-0.5
					C129,55.7,127.5,56.3,126.2,57.2z"/>
				<path class="st42" d="M129.1,65.1l-0.1,0.6c-0.7-0.6-1.4-1.2-2-1.9l-0.1,0.5l-1.5-1.9c-0.1,0.2-0.2,0.4-0.1,0.6
					c-0.1-0.3-0.9-1-1.1-1.4c0-0.1-0.1-0.1-0.1-0.2c0,0,0,0.1,0,0.1c-0.1,2.1,1.3,4.1,3.1,5.3c1.8,1.2,3.9,1.7,6,2.1
					c0.7,0.1,1.4,0.3,2.1,0.4c0.3,0.1,0.5,0.1,0.8,0c0.2-0.1,0.4-0.3,0.5-0.4c0.2-0.2,0.4-0.5,0.6-0.7
					C134.1,67.9,131.2,67,129.1,65.1z"/>
				<path class="st43" d="M126.5,59.4c0.1-0.2,0.3-0.4,0.6-0.5l1.8,2.1c0.3-0.5,1,0.1,1.2,0.6c0.7,1.7,1,0.5,1.5,0.5
					c1,0.7,0.7,1.6,2.1,2.7c0.7,0.5,3.9,0.7,4.6,1.1c0.2-0.4,0.4-0.7,0.7-1.1c0.4-0.7,0.7-1.5,0.7-2.3c0-1.1-1.2-2.8-0.6-3.8
					c1.1-1.7-0.5-1.2-2.1-1.9c-1.3-0.6-2.7-0.9-4.1-1.1c-0.6-0.1-1.7-0.1-2.4-0.2c-1.5,0-3,0.6-4.3,1.5c-0.3,0.2-0.6,0.4-0.8,0.7
					C126,58.5,126.6,59.3,126.5,59.4z"/>
				<path class="st42" d="M127.3,34.6c-1.7,0-5.1-5.5-5.2-5.4c-0.6,1.3-3,1.6-4.5,1.7c-1.2,0.1-4.6,0.2-4.6,0.2
					c1.3,1,2.4,2.2,3.4,3.5c1.2,1.6,2.6,3.1,4,4.6c1.1,1.2,2.3,2.6,3.9,3.3c0.8,0.4,1.6,0.5,2.4,0.6c0.8,0,1.7-0.1,2.5-0.5
					c1-0.4,1.8-1.1,2.5-1.8c1.5-1.4,2.2-3.6,3.6-5.2c0.2-0.2,0.3-0.4,0.4-0.7c0.1-0.3,0.1-0.6,0.1-0.8l-0.3-7.9
					C133.4,29.6,129.2,34.6,127.3,34.6z"/>
				<path class="st8" d="M134.1,60.9c0,0.3,0,0.7-0.1,1c-0.3,0.7-2,0.9-2.4,2.6c-0.3,1.1,0.7,2.5,0.6,3.4c-0.1,1-1.4,1.6-1.6,2.7
					c-0.2,1.1,0.2,2,1.4,2.4c0.8,0.3,4.2-0.1,6-1c2.6-1.2,3.9-4.8,4.3-7.1c0.7-4.1-1.3-10.7-3.7-9.2c-1.5,0.9-0.5,2.1-1.3,2.4
					C135.9,58.6,134.1,59.1,134.1,60.9z"/>
				<path class="st9" d="M131.4,71.5c0.2-1,1.5-1.6,1.6-2.7c0.1-1-0.9-2.3-0.6-3.4c0.4-1.7,2.2-1.9,2.4-2.6c0.1-0.3,0.1-0.7,0.1-1
					c0.1-1.8,1.9-2.3,3.3-2.8c0.8-0.3-0.1-1.4,1.3-2.4c0.2-0.2,0.5-0.2,0.8-0.2c0.3,0,0.6,0.2,0.8,0.4c-0.7-1.1-1.5-1.6-2.3-1
					c-1.5,0.9-0.5,2.1-1.3,2.4c-1.5,0.4-3.2,0.9-3.3,2.8c0,0.3,0,0.7-0.1,1c-0.3,0.7-2,0.9-2.4,2.6c-0.3,1.1,0.7,2.5,0.6,3.4
					c-0.1,1-1.4,1.6-1.6,2.7c-0.1,0.4-0.1,0.8,0.1,1.2c0.1,0.4,0.4,0.7,0.8,0.9C131.3,72.3,131.3,71.9,131.4,71.5z"/>
				<path class="st42" d="M155.1,17.3c1.2,0,2.2-1.3,2.2-2.9s-1-2.9-2.2-2.9c-1.2,0-2.2,1.3-2.2,2.9S153.9,17.3,155.1,17.3z"/>
				<path class="st42" d="M139.7,17.4c1.3,0,2.4-1.3,2.4-2.9c0-1.6-1.1-2.9-2.4-2.9s-2.4,1.3-2.4,2.9
					C137.2,16.1,138.3,17.4,139.7,17.4z"/>
				<path class="st10" d="M139.9,17.4c1.2,0,2.2-1.3,2.2-2.9s-1-2.9-2.2-2.9c-1.2,0-2.2,1.3-2.2,2.9S138.6,17.4,139.9,17.4z"/>
				<g>
					<path class="st11" d="M139.7,17.1c0.9,0,1.6-0.9,1.6-2s-0.7-2-1.6-2c-0.9,0-1.6,0.9-1.6,2S138.8,17.1,139.7,17.1z"/>
					<path class="st12" d="M139.7,16.9c0.5,0,0.8-0.3,0.8-0.7c0-0.3-0.4-0.6-0.9-0.6c-0.5,0-0.8,0.3-0.8,0.7
						C138.9,16.7,139.3,17,139.7,16.9z"/>
					<path class="st13" d="M139.1,14.3c0.2,0,0.3-0.2,0.3-0.3c0-0.2-0.1-0.3-0.3-0.3s-0.3,0.2-0.3,0.3
						C138.8,14.1,138.9,14.3,139.1,14.3z"/>
				</g>
				<path class="st10" d="M154.9,17.4c1.2,0,2.2-1.3,2.2-2.9s-1-2.9-2.2-2.9s-2.2,1.3-2.2,2.9S153.7,17.4,154.9,17.4z"/>
				<g>
					<path class="st11" d="M154.8,17.1c0.9,0,1.6-0.9,1.6-2s-0.7-2-1.6-2c-0.9,0-1.6,0.9-1.6,2S153.9,17.1,154.8,17.1z"/>
					<path class="st12" d="M154.8,16.9c0.5,0,0.8-0.3,0.8-0.7c0-0.3-0.4-0.6-0.9-0.6c-0.5,0-0.8,0.3-0.8,0.7
						C154,16.7,154.3,17,154.8,16.9z"/>
					<path class="st13" d="M154.2,14.3c0.2,0,0.3-0.2,0.3-0.3c0-0.2-0.1-0.3-0.3-0.3c-0.2,0-0.3,0.2-0.3,0.3
						C153.9,14.1,154,14.3,154.2,14.3z"/>
				</g>
				<path class="st44" d="M126.3,41c-2.2,0-4.3-0.7-6-2c0,0,2.7,2.7,4.4,3.7c1.8,1,3.1,0.8,4.6,0.1c1-0.4,2.1-1.4,2.8-2.2
					c0.6-0.6,2.1-2.9,2.5-3.7C134.5,37,130.2,41.1,126.3,41z"/>
				<path class="st43" d="M121.9,30.4c0.2,0.5-1,0.1-1.1,0.5c-0.1,0.7,3,4.8,4.8,5.4c2.6,0.9,6.3-3.7,6.9-4.6
					c0.9-1.3,2.3-3.3,2.1-4.3c-2.1,3.5-6.1,6.4-7.6,6.3c-1.2-0.1-3.6-4.4-3.6-4.3c-0.1,0.3-1.7,0.4-1.9,0.6
					C121.7,30.1,121.8,30.2,121.9,30.4z"/>
				<path class="st9" d="M118.2,26.2c-4.2-0.6-8.4-0.7-12.6-0.4c-1.1,0.1-1.3,0.5-1.3,0.9c0,0.5,0.7,0.9,1.1,1
					c-0.6,0.4-0.1,0.9,0.4,1.1c0.4,0.2,0.8,0.2,0.9,0.4c0,0.1-0.4,0.4-0.4,0.8c-0.1,0.5,0.2,1.2,1.6,1.4c2.3,0.3,4.5,0.4,6.8,0.4
					c2,0.1,4,0,6-0.3c2.2-0.3,4-1.6,2.7-3.2C122.3,26.9,119.9,26.5,118.2,26.2z"/>
				<path class="st15" d="M106.1,27.5c0.2-0.3-0.8,0.6,0.3,1c2.3,0.8-3.1,1.5,5.2,2.2c4.8,0.4,11.6,1.3,12.2-1.1
					c0-0.5-0.1-0.9-0.4-1.3c-1.1-1.4-3.5-1.9-5.1-2.1c-4.2-0.6-8.4-0.7-12.6-0.4C103.8,25.9,105.2,27.3,106.1,27.5z"/>
				<path class="st44" d="M134.3,37.5c-0.9,3.8-2.2,7.4-4.1,10.8c0,0,0.2-5.3,0.6-7.3C130.8,41,133.5,38.8,134.3,37.5z"/>
				<path class="st42" d="M167.2,34.6c1.7,0,5.1-5.5,5.2-5.4c0.6,1.3,3,1.6,4.5,1.7c1.2,0.1,4.6,0.2,4.6,0.2c-1.3,1-2.4,2.2-3.4,3.5
					c-1.2,1.6-2.6,3.1-4,4.6c-1.1,1.2-2.3,2.6-3.9,3.3c-0.8,0.4-1.6,0.5-2.4,0.6c-0.8,0-1.7-0.1-2.5-0.5c-1-0.4-1.8-1.1-2.5-1.8
					c-1.5-1.4-2.2-3.6-3.6-5.2c-0.2-0.2-0.3-0.4-0.4-0.7c-0.1-0.3-0.1-0.6-0.1-0.8l0.3-7.9C161,29.6,165.3,34.6,167.2,34.6z"/>
				<path class="st44" d="M168.2,41c2.2,0,4.3-0.7,6-2c0,0-2.7,2.7-4.4,3.7c-1.8,1-3.1,0.8-4.6,0.1c-1-0.4-2.1-1.4-2.8-2.2
					c-0.6-0.6-2.1-2.9-2.5-3.7C160,37,164.3,41.1,168.2,41z"/>
				<path class="st43" d="M172.6,30.4c-0.2,0.5,1,0.1,1.1,0.5c0.1,0.7-3,4.8-4.8,5.4c-2.6,0.9-6.3-3.7-6.9-4.6
					c-0.9-1.3-2.3-3.3-2.1-4.3c2.1,3.5,6.1,6.4,7.6,6.3c1.2-0.1,3.6-4.4,3.6-4.3c0.1,0.3,1.7,0.4,1.9,0.6
					C172.8,30.1,172.7,30.2,172.6,30.4z"/>
				<path class="st9" d="M176.3,26.2c4.2-0.6,8.4-0.7,12.6-0.4c1.1,0.1,1.3,0.5,1.3,0.9c0,0.5-0.7,0.9-1.1,1
					c0.6,0.4,0.1,0.9-0.4,1.1c-0.4,0.2-0.8,0.2-0.9,0.4c0,0.1,0.4,0.4,0.4,0.8c0.1,0.5-0.2,1.2-1.6,1.4c-2.3,0.3-4.5,0.4-6.8,0.4
					c-2,0.1-4,0-6-0.3c-2.2-0.3-4-1.6-2.7-3.2C172.2,26.9,174.6,26.5,176.3,26.2z"/>
				<path class="st15" d="M188.4,27.5c-0.2-0.3,0.8,0.6-0.3,1c-2.3,0.8,3.1,1.5-5.2,2.2c-4.8,0.4-11.6,1.3-12.2-1.1
					c0-0.5,0.1-0.9,0.4-1.3c1.1-1.4,3.5-1.9,5.1-2.1c4.2-0.6,8.4-0.7,12.6-0.4C190.7,25.9,189.3,27.3,188.4,27.5z"/>
				<path class="st44" d="M160.2,37.5c0.9,3.8,2.2,7.4,4.1,10.8c0,0-0.2-5.3-0.6-7.3C163.7,41,161,38.8,160.2,37.5z"/>
				<path class="st16" d="M140.8,62.1c-0.7-0.2-1.5-0.3-2.3-0.1c0.2,1,0.2,2.4-0.8,2.8c-0.4,0.2-1,0.1-1.3,0.5
					c-0.5,0.7,0.7,1.6,0.4,2.5c-0.1,0.5-0.7,0.8-1.2,1c-0.5,0.3-1,0.8-0.8,1.3c0.2,0.5,1,0.8,0.8,1.3c-0.1,0.1-0.1,0.2-0.2,0.2
					s-0.2,0.1-0.3,0.1c-1.4,0.3-2.9,0.5-4.4,0.5c0.3,0.4,0.7,0.7,1.2,0.9c0.8,0.3,4.2-0.1,6-1c2.6-1.2,3.9-4.8,4.3-7.1
					c0.3-1.8,0.2-3.6-0.3-5.3C141.4,60.3,141,61.2,140.8,62.1z"/>
				<path class="st44" d="M168.4,57.2c0.7,0.5,1.3,1.1,1.7,1.9c0.4,0.8,0.7,1.6,0.7,2.4c0.1,2.1-1.3,4.1-3.1,5.3
					c-1.8,1.2-3.9,1.7-6,2.1c-0.7,0.1-1.4,0.3-2.1,0.4c-0.3,0.1-0.5,0.1-0.8,0c-0.2-0.1-0.4-0.3-0.5-0.4c-1-1.2-2-2.6-2.7-4
					c-0.4-0.7-0.7-1.5-0.7-2.3c0-1.1,0.8-2,1.5-2.9c1.1-1.3,2.4-2.7,4-3.1c0.7-0.2,1.4-0.2,2.1-0.4c0.6-0.2,0.9-0.5,1.6-0.5
					C165.7,55.7,167.2,56.3,168.4,57.2z"/>
				<path class="st42" d="M165.6,65.1c0,0.2,0.1,0.4,0.1,0.6c0.7-0.6,1.4-1.2,2-1.9l0.1,0.5l1.5-1.9c0.1,0.2,0.2,0.4,0.1,0.6
					c0.1-0.3,0.9-1,1.1-1.4c0-0.1,0.1-0.1,0.1-0.2c0,0,0,0.1,0,0.1c0.1,2.1-1.3,4.1-3.1,5.3c-1.8,1.2-3.9,1.7-6,2.1
					c-0.7,0.1-1.4,0.3-2.1,0.4c-0.3,0.1-0.5,0.1-0.8,0c-0.2-0.1-0.4-0.3-0.5-0.4c-0.2-0.2-0.4-0.5-0.6-0.7
					C160.6,67.9,163.5,67,165.6,65.1z"/>
				<path class="st43" d="M168.2,59.4c-0.1-0.2-0.3-0.4-0.6-0.5c-0.6,0.7-1.2,1.4-1.8,2.1c-0.3-0.5-1,0.1-1.2,0.6
					c-0.7,1.7-1,0.5-1.5,0.5c-1,0.7-0.7,1.6-2.1,2.7c-0.7,0.5-3.9,0.7-4.6,1.1c-0.2-0.4-0.4-0.7-0.7-1.1c-0.4-0.7-0.7-1.5-0.7-2.3
					c0-1.1,1.2-2.8,0.6-3.8c-1.1-1.7,0.5-1.2,2.1-1.9c1.3-0.6,2.7-0.9,4.1-1.1c0.6-0.1,1.7-0.1,2.4-0.2c1.5,0,3,0.6,4.3,1.5
					c0.3,0.2,0.6,0.4,0.8,0.7C168.7,58.5,168.1,59.3,168.2,59.4z"/>
				<path class="st8" d="M160.6,60.9c0,0.3,0,0.7,0.1,1c0.3,0.7,2,0.9,2.4,2.6c0.3,1.1-0.7,2.5-0.6,3.4c0.1,1,1.4,1.6,1.6,2.7
					c0.2,1.1-0.2,2-1.4,2.4c-0.8,0.3-4.2-0.1-6-1c-2.6-1.2-3.9-4.8-4.3-7.1c-0.7-4.1,1.3-10.7,3.7-9.2c1.5,0.9,0.5,2.1,1.3,2.4
					C158.8,58.6,160.5,59.1,160.6,60.9z"/>
				<path class="st9" d="M163.3,71.5c-0.2-1-1.5-1.6-1.6-2.7c-0.1-1,0.9-2.3,0.6-3.4c-0.4-1.7-2.2-1.9-2.4-2.6
					c-0.1-0.3-0.1-0.7-0.1-1c-0.1-1.8-1.9-2.3-3.3-2.8c-0.8-0.3,0.1-1.4-1.3-2.4c-0.2-0.2-0.5-0.2-0.8-0.2c-0.3,0-0.6,0.2-0.8,0.4
					c0.7-1.1,1.5-1.6,2.3-1c1.5,0.9,0.5,2.1,1.3,2.4c1.5,0.4,3.2,0.9,3.3,2.8c0,0.3,0,0.7,0.1,1c0.3,0.7,2,0.9,2.4,2.6
					c0.3,1.1-0.7,2.5-0.6,3.4c0.1,1,1.4,1.6,1.6,2.7c0.1,0.4,0.1,0.8-0.1,1.2c-0.1,0.4-0.4,0.7-0.8,0.9
					C163.4,72.3,163.4,71.9,163.3,71.5z"/>
				<path class="st16" d="M153.8,62.1c0.7-0.2,1.5-0.3,2.3-0.1c-0.2,1-0.2,2.4,0.8,2.8c0.4,0.2,1,0.1,1.3,0.5
					c0.5,0.7-0.7,1.6-0.4,2.5c0.1,0.5,0.7,0.8,1.2,1c0.5,0.3,1,0.8,0.8,1.3c-0.2,0.5-1,0.8-0.8,1.3c0.1,0.1,0.1,0.2,0.2,0.2
					c0.1,0.1,0.2,0.1,0.3,0.1c1.4,0.3,2.9,0.5,4.4,0.5c-0.3,0.4-0.7,0.7-1.2,0.9c-0.8,0.3-4.2-0.1-6-1c-2.6-1.2-3.9-4.8-4.3-7.1
					c-0.3-1.8-0.2-3.6,0.3-5.3C153.2,60.3,153.7,61.2,153.8,62.1z"/>
				<path class="st44" d="M141,30.2c2.2,2.2,6.5,6,12.4,5.9c3.1,0,5.7-0.9,6.3-4.4c0.4-2.2-0.9-7.8-3.3-10.1c-0.8-0.7-0.3,0-1.2-0.6
					c-1-0.6-2.3-0.6-3.5-0.6l-4.1,0c-1.8,0-3.7,0-5.5,0.4c-2.1,0.4-5.2,1.5-4.3,4C138.8,27.1,139.1,28.3,141,30.2z"/>
			</g>
			<g>
				<path class="st40" d="M91.3,37.4c-1-5.6-1.4-9.6-2.4-15.3c-0.3-1.8-1-5.4-1.6-7.1c-1.9-5.2-5.1-5.7-11.6-5.9
					c-6,0.1-9.5,1.4-11.3,6c-0.8,2.3-1.4,4.7-1.9,7.2c-1,5.6-1.4,9.5-2.4,15.1c-1.1,6.6-2.2,13.2-2,19.8c0.1,2,0.3,4,1.2,5.8
					c1.3,2.3,3.8,3.8,6.4,4.4c2.6,0.6,7.3,1.2,10,1.1c2.6,0.1,7.4-0.4,10-1.1c2.6-0.6,5.1-2.1,6.4-4.4c1-1.7,1.2-3.8,1.2-5.8
					C93.5,50.6,92.4,44,91.3,37.4z"/>
				<path class="st45" d="M91.3,37.4c-1-5.6-1.4-9.6-2.4-15.3c-0.3-1.8-1-5.4-1.6-7.1c-1.9-5.2-5.1-5.7-11.6-5.9
					c-1.1,0-5.1-0.2-6-0.1c-0.9,0.1,1.4,0.5,0.6,0.7c-3.3,0.8-4.8,2.4-6,5.4c-0.8,2.3-1.4,4.7-1.9,7.2c-1,5.6-1.4,9.5-2.4,15.1
					c-1.1,6.6-2.2,13.2-2,19.8c0.1,1.8,0.2,3.7,1,5.3c-0.2-1.1-0.3-2.2-0.3-3.3c-0.2-6.6,0.9-13.3,1.9-19.8
					c0.9-5.6,1.4-9.5,2.3-15.1c0.4-2.4,1-4.8,1.8-7.2c1.7-4.6,5.1-5.9,10.9-6c6.2,0.2,9.3,0.7,11.2,5.9c0.6,1.7,1.2,5.3,1.5,7.1
					c0.9,5.6,1.4,9.6,2.3,15.3c1.1,6.6,2.1,13.2,1.9,19.8c0,1.1-0.1,2.2-0.3,3.3c0.7-1.6,0.9-3.5,1-5.3C93.5,50.6,92.4,44,91.3,37.4
					z"/>
				<path class="st46" d="M62.7,37.5c-0.9,3.8-2.2,7.4-4.1,10.8c0,0,0.2-5.3,0.6-7.3C59.2,41,62,38.8,62.7,37.5z"/>
				<path class="st46" d="M89.4,58.3c-0.5,0-7.6,1.2-13.6,1.3c-4.1,0.1-12.7-1.4-12.8-1.4c-1.5-0.2-4.8-1.8-4.5-1.4
					c-0.3,0-0.5-0.1-0.7-0.2c0,0.2,0,0.4,0,0.7c0.1,2,0.3,4,1.2,5.8c1.3,2.3,3.8,3.8,6.4,4.4c2.6,0.6,7.3,1.2,10,1.1
					c2.6,0.1,7.4-0.4,10-1.1s5.1-2.1,6.4-4.4c1-1.7,1.2-3.8,1.2-5.8c0-0.5,0-1,0-1.5C92.1,55.7,90.3,58.3,89.4,58.3z"/>
				<path class="st46" d="M89.4,63.6c-3.1,0.6-10.1,1.1-13.2,1C73,64.7,65.8,64,62.7,63.4c-1.2-0.2-0.9,1.5-1.9,1
					c1.4,1.5,3.3,2.5,5.4,3c2.6,0.6,7.3,1.2,10,1.1c2.6,0.1,7.4-0.4,10-1.1c2-0.4,3.9-1.5,5.3-3C90.4,64.9,90.6,63.4,89.4,63.6z"/>
				<path class="st46" d="M54.7,57.2c-0.7,0.5-1.3,1.1-1.7,1.9c-0.4,0.8-0.7,1.6-0.7,2.4c-0.1,2.1,1.3,4.1,3.1,5.3
					c1.8,1.2,3.9,1.7,6,2.1c0.7,0.1,1.4,0.3,2.1,0.4c0.3,0.1,0.5,0.1,0.8,0c0.2-0.1,0.4-0.3,0.5-0.4c1-1.2,2-2.6,2.7-4
					c0.4-0.7,0.7-1.5,0.7-2.3c0-1.1-0.8-2-1.5-2.9c-1.1-1.3-2.4-2.7-4-3.1c-0.7-0.2-1.4-0.2-2.1-0.4c-0.6-0.2-0.9-0.5-1.6-0.5
					C57.4,55.7,55.9,56.3,54.7,57.2z"/>
				<path class="st40" d="M57.5,65.1l-0.1,0.6c-0.7-0.6-1.4-1.2-2-1.9l-0.1,0.5l-1.5-1.9c-0.1,0.2-0.2,0.4-0.1,0.6
					c-0.1-0.3-0.9-1-1.1-1.4c0-0.1-0.1-0.1-0.1-0.2c0,0,0,0.1,0,0.1c-0.1,2.1,1.3,4.1,3.1,5.3c1.8,1.2,3.9,1.7,6,2.1
					c0.7,0.1,1.4,0.3,2.1,0.4c0.3,0.1,0.5,0.1,0.8,0c0.2-0.1,0.4-0.3,0.5-0.4c0.2-0.2,0.4-0.5,0.6-0.7C62.5,67.9,59.6,67,57.5,65.1z
					"/>
				<path class="st45" d="M54.9,59.4c0.1-0.2,0.3-0.4,0.6-0.5l1.8,2.1c0.3-0.5,1,0.1,1.2,0.6c0.7,1.7,1,0.5,1.5,0.5
					c1,0.7,0.7,1.6,2.1,2.7c0.7,0.5,3.9,0.7,4.6,1.1c0.2-0.4,0.4-0.7,0.7-1.1c0.4-0.7,0.7-1.5,0.7-2.3c0-1.1-1.2-2.8-0.6-3.8
					c1.1-1.7-0.5-1.2-2.1-1.9c-1.3-0.6-2.7-0.9-4.1-1.1c-0.6-0.1-1.7-0.1-2.4-0.2c-1.5,0-3,0.6-4.3,1.5c-0.3,0.2-0.6,0.4-0.8,0.7
					C54.4,58.5,55,59.3,54.9,59.4z"/>
				<path class="st8" d="M62.5,60.9c0,0.3,0,0.7-0.1,1c-0.3,0.7-2,0.9-2.4,2.6c-0.3,1.1,0.7,2.5,0.6,3.4c-0.1,1-1.4,1.6-1.6,2.7
					c-0.2,1.1,0.2,2,1.4,2.4c0.8,0.3,4.2-0.1,6-1c2.6-1.2,3.9-4.8,4.3-7.1c0.7-4.1-1.3-10.7-3.7-9.2c-1.5,0.9-0.5,2.1-1.3,2.4
					C64.3,58.6,62.6,59.1,62.5,60.9z"/>
				<path class="st9" d="M59.8,71.5c0.2-1,1.5-1.6,1.6-2.7c0.1-1-0.9-2.3-0.6-3.4c0.4-1.7,2.2-1.9,2.4-2.6c0.1-0.3,0.1-0.7,0.1-1
					c0.1-1.8,1.9-2.3,3.3-2.8c0.8-0.3-0.1-1.4,1.3-2.4c0.2-0.2,0.5-0.2,0.8-0.2c0.3,0,0.6,0.2,0.8,0.4c-0.7-1.1-1.5-1.6-2.3-1
					c-1.5,0.9-0.5,2.1-1.3,2.4c-1.5,0.4-3.2,0.9-3.3,2.8c0,0.3,0,0.7-0.1,1c-0.3,0.7-2,0.9-2.4,2.6c-0.3,1.1,0.7,2.5,0.6,3.4
					c-0.1,1-1.4,1.6-1.6,2.7c-0.1,0.4-0.1,0.8,0.1,1.2c0.1,0.4,0.4,0.7,0.8,0.9C59.7,72.3,59.7,71.9,59.8,71.5z"/>
				<path class="st40" d="M83.5,17.3c1.2,0,2.2-1.3,2.2-2.9s-1-2.9-2.2-2.9c-1.2,0-2.2,1.3-2.2,2.9S82.3,17.3,83.5,17.3z"/>
				<path class="st40" d="M68.1,17.4c1.3,0,2.4-1.3,2.4-2.9c0-1.6-1.1-2.9-2.4-2.9s-2.4,1.3-2.4,2.9C65.7,16.1,66.7,17.4,68.1,17.4z
					"/>
				<path class="st10" d="M68.3,17.4c1.2,0,2.2-1.3,2.2-2.9s-1-2.9-2.2-2.9c-1.2,0-2.2,1.3-2.2,2.9S67,17.4,68.3,17.4z"/>
				<g>
					<path class="st11" d="M68.6,17c0.9,0,1.6-0.9,1.6-2s-0.7-2-1.6-2c-0.9,0-1.6,0.9-1.6,2S67.8,17,68.6,17z"/>
					<path class="st12" d="M68.7,16.8c0.5,0,0.8-0.3,0.8-0.7c0-0.3-0.4-0.6-0.9-0.6c-0.5,0-0.8,0.3-0.8,0.7
						C67.8,16.5,68.2,16.8,68.7,16.8z"/>
					<path class="st13" d="M68,14.1c0.2,0,0.3-0.2,0.3-0.3c0-0.2-0.1-0.3-0.3-0.3c-0.2,0-0.3,0.2-0.3,0.3
						C67.7,13.9,67.9,14.1,68,14.1z"/>
				</g>
				<path class="st10" d="M83.4,17.4c1.2,0,2.2-1.3,2.2-2.9s-1-2.9-2.2-2.9s-2.2,1.3-2.2,2.9S82.1,17.4,83.4,17.4z"/>
				<g>
					<path class="st11" d="M83.7,17c0.9,0,1.6-0.9,1.6-2s-0.7-2-1.6-2s-1.6,0.9-1.6,2S82.8,17,83.7,17z"/>
					<path class="st12" d="M83.7,16.8c0.5,0,0.8-0.3,0.8-0.7c0-0.3-0.4-0.6-0.9-0.6c-0.5,0-0.8,0.3-0.8,0.7
						C82.9,16.5,83.2,16.8,83.7,16.8z"/>
					<path class="st13" d="M83.1,14.1c0.2,0,0.3-0.2,0.3-0.3c0-0.2-0.1-0.3-0.3-0.3s-0.3,0.2-0.3,0.3C82.8,13.9,82.9,14.1,83.1,14.1
						z"/>
				</g>
				<path class="st40" d="M95.6,34.6c1.7,0,5.1-5.5,5.2-5.4c0.6,1.3,3,1.6,4.5,1.7c1.2,0.1,4.6,0.2,4.6,0.2c-1.3,1-2.4,2.2-3.4,3.5
					c-1.2,1.6-2.6,3.1-4,4.6c-1.1,1.2-2.3,2.6-3.9,3.3c-0.8,0.4-1.6,0.5-2.4,0.6c-0.8,0-1.7-0.1-2.5-0.5c-1-0.4-1.8-1.1-2.5-1.8
					c-1.5-1.4-2.2-3.6-3.6-5.2c-0.2-0.2-0.3-0.4-0.4-0.7C87,34.7,87,34.4,87,34.1l0.3-7.9C89.5,29.6,93.7,34.6,95.6,34.6z"/>
				<path class="st46" d="M96.6,41c2.2,0,4.3-0.7,6-2c0,0-2.7,2.7-4.4,3.7c-1.8,1-3.1,0.8-4.6,0.1c-1-0.4-2.1-1.4-2.8-2.2
					c-0.6-0.6-2.1-2.9-2.5-3.7C88.4,37,92.7,41.1,96.6,41z"/>
				<path class="st45" d="M101,30.4c-0.2,0.5,1,0.1,1.1,0.5c0.1,0.7-3,4.8-4.8,5.4c-2.6,0.9-6.3-3.7-6.9-4.6
					c-0.9-1.3-2.3-3.3-2.1-4.3c2.1,3.5,6.1,6.4,7.6,6.3c1.2-0.1,3.6-4.4,3.6-4.3c0.1,0.3,1.7,0.4,1.9,0.6
					C101.2,30.1,101.1,30.2,101,30.4z"/>
				<path class="st9" d="M104.7,26.2c4.2-0.6,8.4-0.7,12.6-0.4c1.1,0.1,1.3,0.5,1.3,0.9c0,0.5-0.7,0.9-1.1,1
					c0.6,0.4,0.1,0.9-0.4,1.1c-0.4,0.2-0.8,0.2-0.9,0.4c0,0.1,0.4,0.4,0.4,0.8c0.1,0.5-0.2,1.2-1.6,1.4c-2.3,0.3-4.5,0.4-6.8,0.4
					c-2,0.1-4,0-6-0.3c-2.2-0.3-4-1.6-2.7-3.2C100.6,26.9,103,26.5,104.7,26.2z"/>
				<path class="st15" d="M116.8,27.5c-0.2-0.3,0.8,0.6-0.3,1c-2.3,0.8,3.1,1.5-5.2,2.2c-4.8,0.4-11.6,1.3-12.2-1.1
					c0-0.5,0.1-0.9,0.4-1.3c1.1-1.4,3.5-1.9,5.1-2.1c4.2-0.6,8.4-0.7,12.6-0.4C119.1,25.9,117.7,27.3,116.8,27.5z"/>
				<path class="st46" d="M88.6,37.5c0.9,3.8,2.2,7.4,4.1,10.8c0,0-0.2-5.3-0.6-7.3C92.1,41,89.4,38.8,88.6,37.5z"/>
				<path class="st16" d="M69.2,62.1c-0.7-0.2-1.5-0.3-2.3-0.1c0.2,1,0.2,2.4-0.8,2.8c-0.4,0.2-1,0.1-1.3,0.5
					c-0.5,0.7,0.7,1.6,0.4,2.5c-0.1,0.5-0.7,0.8-1.2,1c-0.5,0.3-1,0.8-0.8,1.3c0.2,0.5,1,0.8,0.8,1.3c-0.1,0.1-0.1,0.2-0.2,0.2
					s-0.2,0.1-0.3,0.1c-1.4,0.3-2.9,0.5-4.4,0.5c0.3,0.4,0.7,0.7,1.2,0.9c0.8,0.3,4.2-0.1,6-1c2.6-1.2,3.9-4.8,4.3-7.1
					c0.3-1.8,0.2-3.6-0.3-5.3C69.8,60.3,69.4,61.2,69.2,62.1z"/>
				<path class="st46" d="M96.9,57.2c0.7,0.5,1.3,1.1,1.7,1.9c0.4,0.8,0.7,1.6,0.7,2.4c0.1,2.1-1.3,4.1-3.1,5.3
					c-1.8,1.2-3.9,1.7-6,2.1c-0.7,0.1-1.4,0.3-2.1,0.4c-0.3,0.1-0.5,0.1-0.8,0c-0.2-0.1-0.4-0.3-0.5-0.4c-1-1.2-2-2.6-2.7-4
					c-0.4-0.7-0.7-1.5-0.7-2.3c0-1.1,0.8-2,1.5-2.9c1.1-1.3,2.4-2.7,4-3.1c0.7-0.2,1.4-0.2,2.1-0.4c0.6-0.2,0.9-0.5,1.6-0.5
					C94.1,55.7,95.6,56.3,96.9,57.2z"/>
				<path class="st40" d="M94,65.1c0,0.2,0.1,0.4,0.1,0.6c0.7-0.6,1.4-1.2,2-1.9l0.1,0.5l1.5-1.9c0.1,0.2,0.2,0.4,0.1,0.6
					c0.1-0.3,0.9-1,1.1-1.4c0-0.1,0.1-0.1,0.1-0.2c0,0,0,0.1,0,0.1c0.1,2.1-1.3,4.1-3.1,5.3c-1.8,1.2-3.9,1.7-6,2.1
					c-0.7,0.1-1.4,0.3-2.1,0.4c-0.3,0.1-0.5,0.1-0.8,0c-0.2-0.1-0.4-0.3-0.5-0.4c-0.2-0.2-0.4-0.5-0.6-0.7C89,67.9,91.9,67,94,65.1z
					"/>
				<path class="st45" d="M96.6,59.4c-0.1-0.2-0.3-0.4-0.6-0.5c-0.6,0.7-1.2,1.4-1.8,2.1c-0.3-0.5-1,0.1-1.2,0.6
					c-0.7,1.7-1,0.5-1.5,0.5c-1,0.7-0.7,1.6-2.1,2.7c-0.7,0.5-3.9,0.7-4.6,1.1c-0.2-0.4-0.4-0.7-0.7-1.1c-0.4-0.7-0.7-1.5-0.7-2.3
					c0-1.1,1.2-2.8,0.6-3.8c-1.1-1.7,0.5-1.2,2.1-1.9c1.3-0.6,2.7-0.9,4.1-1.1c0.6-0.1,1.7-0.1,2.4-0.2c1.5,0,3,0.6,4.3,1.5
					c0.3,0.2,0.6,0.4,0.8,0.7C97.1,58.5,96.5,59.3,96.6,59.4z"/>
				<path class="st8" d="M89,60.9c0,0.3,0,0.7,0.1,1c0.3,0.7,2,0.9,2.4,2.6c0.3,1.1-0.7,2.5-0.6,3.4c0.1,1,1.4,1.6,1.6,2.7
					c0.2,1.1-0.2,2-1.4,2.4c-0.8,0.3-4.2-0.1-6-1c-2.6-1.2-3.9-4.8-4.3-7.1c-0.7-4.1,1.3-10.7,3.7-9.2c1.5,0.9,0.5,2.1,1.3,2.4
					C87.2,58.6,88.9,59.1,89,60.9z"/>
				<path class="st9" d="M91.7,71.5c-0.2-1-1.5-1.6-1.6-2.7c-0.1-1,0.9-2.3,0.6-3.4c-0.4-1.7-2.2-1.9-2.4-2.6
					c-0.1-0.3-0.1-0.7-0.1-1C88.2,60,86.4,59.5,85,59c-0.8-0.3,0.1-1.4-1.3-2.4c-0.2-0.2-0.5-0.2-0.8-0.2c-0.3,0-0.6,0.2-0.8,0.4
					c0.7-1.1,1.5-1.6,2.3-1c1.5,0.9,0.5,2.1,1.3,2.4c1.5,0.4,3.2,0.9,3.3,2.8c0,0.3,0,0.7,0.1,1c0.3,0.7,2,0.9,2.4,2.6
					c0.3,1.1-0.7,2.5-0.6,3.4c0.1,1,1.4,1.6,1.6,2.7c0.1,0.4,0.1,0.8-0.1,1.2c-0.1,0.4-0.4,0.7-0.8,0.9
					C91.8,72.3,91.8,71.9,91.7,71.5z"/>
				<path class="st16" d="M82.3,62.1c0.7-0.2,1.5-0.3,2.3-0.1c-0.2,1-0.2,2.4,0.8,2.8c0.4,0.2,1,0.1,1.3,0.5
					c0.5,0.7-0.7,1.6-0.4,2.5c0.1,0.5,0.7,0.8,1.2,1c0.5,0.3,1,0.8,0.8,1.3c-0.2,0.5-1,0.8-0.8,1.3c0.1,0.1,0.1,0.2,0.2,0.2
					s0.2,0.1,0.3,0.1c1.4,0.3,2.9,0.5,4.4,0.5c-0.3,0.4-0.7,0.7-1.2,0.9c-0.8,0.3-4.2-0.1-6-1c-2.6-1.2-3.9-4.8-4.3-7.1
					c-0.3-1.8-0.2-3.6,0.3-5.3C81.7,60.3,82.1,61.2,82.3,62.1z"/>
				<path class="st46" d="M69.4,30.2c2.2,2.2,6.5,6,12.4,5.9c3.1,0,5.7-0.9,6.3-4.4c0.4-2.2-0.9-7.8-3.3-10.1
					c-0.8-0.7-0.3,0-1.2-0.6c-1-0.6-2.3-0.6-3.5-0.6l-4.1,0c-1.8,0-3.7,0-5.5,0.4c-2.1,0.4-5.2,1.5-4.3,4
					C67.2,27.1,67.5,28.3,69.4,30.2z"/>
			</g>
			<g>
				<g>
					<g>
						<path class="st47" d="M96.1,10.2c0,0,1.2-5.8,7-7.7c0,0,3.1-1.1,9.1-0.9l0,1.6c0,0-11.5-0.7-13.7,8L96.1,10.2z"/>
						<path class="st48" d="M112.2,2.6c-4.6-0.1-8.4,0.8-10.3,2c-2.6,1.8-3.9,4.9-4.6,8c0.6-0.1,1.2-0.2,1.8-0.4
							c-0.5-1.2,0.7-3.3,1.4-4.3c0.9-1.3,2-2.3,3.4-2.9c1.9-1,5.2-1.4,8.3-1.3L112.2,2.6z"/>
						<path class="st47" d="M92.5,11.6c-1.1,3.2-2.4,9.3-0.5,11.4c0.4,0.4,0.8,0.6,1.4,0.7c0.5,0.1,1,0.1,1.5-0.1
							c1-0.4,1.1-0.7,1.7-1.6c2.1-2.7,3.1-6.6,3-10c0-2-1.7-3.7-3.5-3.6C94.1,8.5,92.8,10.9,92.5,11.6z"/>
						<path d="M95.5,12.1c-0.9,2.2-1.4,4.5-1.6,6.9c-0.1,0.9,0.1,2,0.9,2.4c0.3,0.1,0.5,0.1,0.8,0c0.3-0.1,0.5-0.2,0.7-0.4
							c0.4-0.4,0.7-0.8,0.9-1.3c1.1-2.2,2.4-5.2,2.4-7.7c0-0.9-0.3-1.7-1.2-2C96.9,9.5,95.9,10.8,95.5,12.1z"/>
						<path class="st47" d="M127.2,10.9c0,0-0.9-5.8-6.6-8c0,0-3.1-1.2-9.1-1.3l0,1.6c0,0,11.5-0.2,13.3,8.6L127.2,10.9z"/>
						<path class="st48" d="M111.5,2.6c4.6,0.1,8.4,1.2,10.2,2.5c2.5,1.9,3.7,5.1,4.2,8.2c-0.6-0.1-1.2-0.3-1.7-0.5
							c0.5-1.1-0.6-3.4-1.2-4.3c-0.8-1.3-1.9-2.4-3.3-3.1c-1.9-1.1-5.1-1.6-8.2-1.7L111.5,2.6z"/>
						<path class="st47" d="M130.7,12.5c1,3.2,2,9.5,0,11.4c-0.4,0.3-0.9,0.6-1.4,0.6c-0.5,0.1-1,0-1.5-0.2c-1-0.4-1-0.8-1.6-1.7
							c-2-2.8-2.7-6.8-2.5-10.2c0.1-2,1.9-3.6,3.7-3.4C129.3,9.3,130.5,11.8,130.7,12.5z"/>
						<path d="M127.7,12.8c0.8,2.2,1.2,4.6,1.2,7c0,0.9-0.1,2-1,2.3c-0.3,0.1-0.5,0.1-0.8,0c-0.3-0.1-0.5-0.2-0.7-0.4
							c-0.4-0.4-0.7-0.9-0.9-1.4c-1-2.3-2.1-5.3-2-7.9c0-0.9,0.3-1.6,1.3-1.9C126.4,10.2,127.3,11.6,127.7,12.8z"/>
					</g>
					<path class="st4" d="M129.1,39.1c-1.1-6.4-1.6-11-2.7-17.3c-0.4-2.1-1.1-6.1-1.8-8.1c-2.2-5.9-5.8-6.5-13.2-6.7
						c-6.8,0.1-10.8,1.6-12.9,6.8c-0.9,2.7-1.6,5.4-2.1,8.1c-1.1,6.4-1.6,10.8-2.7,17.2c-1.3,7.4-2.5,15-2.3,22.5
						c0.1,2.3,0.3,4.6,1.4,6.6c1.5,2.6,4.3,4.3,7.2,5c2.9,0.7,8.3,1.3,11.3,1.2c3,0.1,8.4-0.5,11.3-1.2c2.9-0.7,5.8-2.3,7.2-5
						c1.1-2,1.3-4.3,1.4-6.6C131.6,54,130.3,46.5,129.1,39.1z"/>
					<path class="st5" d="M129.1,39.1c-1.1-6.4-1.6-11-2.7-17.3c-0.4-2.1-1.1-6.1-1.8-8.1c-2.2-5.9-5.8-6.5-13.2-6.7
						c-1.2,0-5.8-0.2-6.8-0.1c-1,0.1,1.6,0.6,0.7,0.8c-3.8,0.9-5.5,2.7-6.8,6.1c-0.9,2.7-1.6,5.4-2.1,8.1
						c-1.1,6.4-1.6,10.8-2.7,17.2c-1.3,7.4-2.5,15-2.3,22.5c0.1,2,0.3,4.2,1.1,6c-0.2-1.2-0.4-2.5-0.4-3.7c-0.2-7.5,1-15.1,2.2-22.5
						c1-6.4,1.6-10.8,2.6-17.2c0.5-2.8,1.2-5.5,2.1-8.1c2-5.2,5.8-6.7,12.4-6.8c7,0.2,10.6,0.8,12.7,6.7c0.7,2,1.4,6,1.8,8.1
						c1,6.4,1.6,11,2.6,17.3c1.2,7.4,2.4,15,2.2,22.5c0,1.2-0.1,2.5-0.4,3.7c0.9-1.8,1.1-3.9,1.1-6C131.6,54,130.3,46.5,129.1,39.1z
						"/>
					<path class="st6" d="M126.9,62.8c-0.5,0-8.6,1.4-15.5,1.5c-4.7,0.1-14.4-1.6-14.6-1.6c-1.7-0.2-5.4-2.1-5.1-1.5
						c-0.3,0-0.6-0.1-0.8-0.3c0,0.3,0,0.5,0,0.8c0.1,2.3,0.3,4.6,1.4,6.6c1.5,2.6,4.3,4.3,7.2,5c2.9,0.7,8.3,1.3,11.3,1.2
						c3,0.1,8.4-0.5,11.3-1.2s5.8-2.3,7.2-5c1.1-2,1.3-4.3,1.4-6.6c0-0.6,0-1.1,0-1.7C130,59.9,127.9,62.8,126.9,62.8z"/>
					<path class="st6" d="M126.9,68.8c-3.5,0.7-11.4,1.3-15,1.1c-3.6,0.1-11.8-0.7-15.3-1.4c-1.3-0.3-1,1.7-2.2,1.1
						c1.6,1.7,3.8,2.8,6.1,3.4c2.9,0.7,8.3,1.3,11.3,1.2c3,0.1,8.4-0.5,11.3-1.2c2.3-0.5,4.4-1.7,6.1-3.4
						C128,70.3,128.2,68.6,126.9,68.8z"/>
					<path class="st4" d="M120.2,16.2c1.4,0,2.5-1.5,2.5-3.3s-1.1-3.3-2.5-3.3s-2.5,1.5-2.5,3.3S118.9,16.2,120.2,16.2z"/>
					<path class="st4" d="M102.7,16.3c1.5,0,2.8-1.5,2.8-3.3c0-1.8-1.2-3.3-2.8-3.3S100,11.2,100,13C100,14.9,101.2,16.3,102.7,16.3
						z"/>
					<path class="st10" d="M102.9,16.3c1.4,0,2.5-1.5,2.5-3.3s-1.1-3.3-2.5-3.3s-2.5,1.5-2.5,3.3S101.5,16.3,102.9,16.3z"/>
					<g>
						<path class="st11" d="M103.1,16.1c1.1,0,2-1.1,2-2.5s-0.9-2.5-2-2.5c-1.1,0-2,1.1-2,2.5S102,16.1,103.1,16.1z"/>
						<path class="st12" d="M103.1,15.8c0.6,0,1-0.4,1-0.9c0-0.4-0.5-0.8-1.1-0.7c-0.6,0-1,0.4-1,0.9
							C102.1,15.5,102.5,15.8,103.1,15.8z"/>
						<path class="st13" d="M102.3,12.5c0.2,0,0.4-0.2,0.4-0.4s-0.2-0.4-0.4-0.4c-0.2,0-0.4,0.2-0.4,0.4S102.1,12.5,102.3,12.5z"/>
					</g>
					<path class="st10" d="M120.1,16.3c1.4,0,2.5-1.5,2.5-3.3s-1.1-3.3-2.5-3.3c-1.4,0-2.5,1.5-2.5,3.3S118.7,16.3,120.1,16.3z"/>
					<g>
						<path class="st11" d="M119.9,16.1c1.1,0,2-1.1,2-2.5s-0.9-2.5-2-2.5c-1.1,0-2,1.1-2,2.5S118.8,16.1,119.9,16.1z"/>
						<path class="st12" d="M119.9,15.8c0.6,0,1-0.4,1-0.9c0-0.4-0.5-0.8-1.1-0.7c-0.6,0-1,0.4-1,0.9
							C118.9,15.5,119.3,15.8,119.9,15.8z"/>
						<path class="st13" d="M119.1,12.5c0.2,0,0.4-0.2,0.4-0.4s-0.2-0.4-0.4-0.4s-0.4,0.2-0.4,0.4S118.9,12.5,119.1,12.5z"/>
					</g>
					<path class="st21" d="M104.2,30.9c2.5,2.5,7.4,6.8,14.1,6.7c3.5,0,6.4-1,7.2-5c0.5-2.5-1-8.9-3.7-11.5
						c-0.9-0.8-0.3-0.1-1.3-0.6c-1.2-0.7-2.6-0.7-4-0.7l-4.6,0c-2.1,0-4.2,0-6.2,0.4c-2.3,0.5-5.9,1.7-4.9,4.5
						C101.7,27.4,102,28.8,104.2,30.9z"/>
					<path class="st22" d="M123.2,23.2L112,21.1v0l0,0l0,0v0l-11.3,2.1c0,0-1.4,9.9,11.3,9.9h0.1C124.6,33.1,123.2,23.2,123.2,23.2z
						"/>
					<path class="st23" d="M123.2,23.2l-4.6-0.4c0.1,11.1-6.7,10.3-6.7,10.3h0.1C124.6,33.1,123.2,23.2,123.2,23.2z"/>
					<path class="st24" d="M102.3,22.7c0,2.5,2.1,8.9,9.6,8.9c8.1,0,9.9-7,9.8-8.6"/>
					<path class="st25" d="M103.3,21c0,2.5,0.6,9.2,8.6,9.3c7.8,0.1,8.8-7.4,8.7-9"/>
					<path class="st24" d="M97.1,21.9c0.1,1,2.4,1.8,5.2,1.6c6-0.5,12-0.5,18,0c1,0.1,4.6,0.6,4.9-1.4c0.4-2.5-1.8-3.1-3.9-3.7
						c-0.9-0.3-2.4-0.8-3.3-1c-1.1-0.2-2.1-0.2-3.2-0.1c-4,0.2-7,0.5-11,0.8c-1.3,0.1-2.5,0.4-3.7,0.9
						C98.7,19.4,96.9,20.2,97.1,21.9z"/>
					<path class="st26" d="M125.1,22.6c-0.9,0.2-1.9,0.3-2.9,0.2c-0.6,0-1.6-0.1-2.1-0.2c-6.5-0.7-11.4-0.5-17.9-0.1
						c-3.5,0.2-5.1-0.4-5.1-0.5c0.4,1.2,2,1.6,5.2,1.4c6-0.5,12-0.5,18,0c0.3,0,1.3,0.1,1.8,0.1C124.7,23.6,125.1,22.6,125.1,22.6z"
						/>
					<path class="st27" d="M101.9,21.7c2.6-0.1,8.3-0.5,9.8-0.5c3.6,0,7.1,0.3,11,0.7c2,0.2,2.7-0.1,2.7-0.1c0.1-0.5,0-1-0.3-1.4
						c-0.2-0.4-0.6-0.8-1-1c-0.9-0.4-1.8-0.7-2.7-1c-0.4-0.1-1-0.3-1.6-0.5c-0.7-0.5-1.4-1.1-1.9-1.8c-0.8-1.1-1.4-2.4-2-3.2
						c-1-1.1-1.9-1.6-4.3-1.6c-5.2,0-5,2.4-6.4,4.4c-0.7,1.1-1.7,1.9-2.8,2.5c-0.7,0.2-2.1,0.6-2.8,0.8c-2.7,0.7-2.4,2.5-2.4,2.5
						C98.7,21.7,100.3,21.8,101.9,21.7z"/>
				</g>
				<rect x="84.3" y="43.1" class="st11" width="54" height="33.6"/>
			</g>
			<g>
				<path class="st22" d="M155.6,22.5l-9.5-1.5v0l0,0l0,0v0l-9.5,1.5c0,0-1.2,7.3,9.5,7.3h0.1C156.8,29.8,155.6,22.5,155.6,22.5z"/>
				<path class="st24" d="M138.4,22.2c0,1,5,7.8,9.1,7.6c8.5-0.5,8.4-6.5,8.3-7.2"/>
				<path class="st49" d="M155.8,22.6l-1.1,0c0.1,0.6,0.2,6.4-7.7,7.1c0.2,0,0.3,0,0.5,0C156,29.3,155.9,23.2,155.8,22.6z"/>
				<path class="st24" d="M155.4,19.1c-1-0.4-2-0.6-3-0.7c-2.2-0.1-4.1-0.3-6.1-0.4h-0.2c-2,0.1-3.9,0.3-6.1,0.4c-0.7,0-2,0.4-3,0.7
					c-1.3,0.3-3.2,0.8-3,2.8c0.1,0.8,1,1.8,3.3,2c2.2,0.1,5.2-0.6,8.9-0.6c3.6,0,6.7,0.7,8.9,0.6c2.3-0.1,3.3-0.7,3.6-1.9
					C159,20,156.6,19.5,155.4,19.1z"/>
				<path class="st49" d="M155.3,23.3c-2.2,0.1-5.4-0.6-9.1-0.6c-3.7,0-6.9,0.7-9.1,0.6c-1.6-0.1-2.5-0.6-3-1.1
					c0.3,0.8,1.2,1.5,3.2,1.7c2.2,0.1,5.2-0.6,8.9-0.6c3.6,0,6.7,0.7,8.9,0.6c2.1-0.1,3.1-0.6,3.5-1.6
					C158,22.8,156.9,23.1,155.3,23.3z"/>
				<path class="st27" d="M156.2,19.2c-0.6-0.1-1.9-0.5-2.3-0.7c-0.9-0.5-1.7-1.2-2.3-2.1c-1.2-1.6-1.1-3.6-5.3-3.6h0h0
					c-4.2,0-4,2-5.2,3.6c-0.6,0.9-1.4,1.6-2.3,2.1c-0.4,0.1-1.7,0.5-2.3,0.7c-3.4,0.7-2.3,3.2-2.3,3.2s0.5-0.6,3.8-0.8
					c2.4-0.1,5.5,0,8.3,0h0.1c2.8,0,6-0.1,8.4,0c3,0.1,3.8,0.8,3.8,0.8S159.6,19.9,156.2,19.2z"/>
				<path class="st49" d="M153.5,23.5c0,0-4.8,1.2-7.5,1.2c-2.4,0-4.8-0.4-7.1-1.2c1.9,2.8,5.4,3.1,8.1,3c0,0,5.1-0.2,7.3-2.8
					C154.3,23.6,153.9,23.5,153.5,23.5z"/>
			</g>
			<g>
				<path class="st13" d="M111.3,53c0.8,0,1.5-0.4,1.5-0.9c0-0.5-0.7-0.9-1.5-0.9c-0.8,0-1.5,0.4-1.5,0.9
					C109.8,52.6,110.5,53,111.3,53z"/>
				<path class="st13" d="M111.3,56.3c0.8,0,1.5-0.4,1.5-0.9c0-0.5-0.7-0.9-1.5-0.9c-0.8,0-1.5,0.4-1.5,0.9
					C109.8,55.9,110.5,56.3,111.3,56.3z"/>
				<path class="st13" d="M107.9,57.6c0.4-0.3,0.4-1-0.1-1.7c-0.4-0.7-1.1-1-1.5-0.8c-0.4,0.3-0.4,1,0.1,1.7
					C106.8,57.5,107.5,57.8,107.9,57.6z"/>
				<path class="st13" d="M110.9,59.1c0.4-0.3,0.4-1-0.1-1.7c-0.4-0.7-1.1-1-1.5-0.8c-0.4,0.3-0.4,1,0.1,1.7
					C109.9,59,110.5,59.4,110.9,59.1z"/>
				<path class="st13" d="M107.9,60.9c0.4-0.3,0.4-1-0.1-1.7c-0.4-0.7-1.1-1-1.5-0.8c-0.4,0.3-0.4,1,0.1,1.7
					C106.8,60.8,107.5,61.1,107.9,60.9z"/>
				<path class="st13" d="M110.7,62.4c0.4-0.3,0.4-1-0.1-1.7c-0.4-0.7-1.1-1-1.5-0.8c-0.4,0.3-0.4,1,0.1,1.7
					C109.7,62.3,110.3,62.7,110.7,62.4z"/>
				<path class="st13" d="M116.3,60c0.4-0.7,0.5-1.5,0.1-1.7c-0.4-0.3-1.1,0.1-1.5,0.8c-0.4,0.7-0.5,1.5-0.1,1.7
					C115.2,61.1,115.9,60.7,116.3,60z"/>
				<path class="st13" d="M113.5,61.6c0.4-0.7,0.5-1.5,0.1-1.7c-0.4-0.3-1.1,0.1-1.5,0.8c-0.4,0.7-0.5,1.5-0.1,1.7
					C112.4,62.7,113,62.3,113.5,61.6z"/>
				<path class="st13" d="M116.3,56.7c0.4-0.7,0.5-1.5,0.1-1.7c-0.4-0.3-1.1,0.1-1.5,0.8c-0.4,0.7-0.5,1.5-0.1,1.7
					C115.2,57.7,115.8,57.4,116.3,56.7z"/>
				<path class="st13" d="M113.5,58.3c0.4-0.7,0.5-1.5,0.1-1.7c-0.4-0.3-1.1,0.1-1.5,0.8c-0.4,0.7-0.5,1.5-0.1,1.7
					C112.3,59.3,113,59,113.5,58.3z"/>
				<path class="st13" d="M108.5,54.7c0.8,0,1.5-0.4,1.5-0.9c0-0.5-0.7-0.9-1.5-0.9c-0.8,0-1.5,0.4-1.5,0.9
					C107,54.3,107.7,54.7,108.5,54.7z"/>
				<path class="st13" d="M114.2,54.6c0.8,0,1.5-0.4,1.5-0.9c0-0.5-0.7-0.9-1.5-0.9c-0.8,0-1.5,0.4-1.5,0.9
					C112.7,54.2,113.3,54.6,114.2,54.6z"/>
			</g>
			<g>
				<path class="st9" d="M46.9,41.5c1.9-0.4,4.4-0.1,5.9,1.2c0.7,0.6,1.2,1.7,0.9,2.5c-0.2,0.4-0.4,0.8-0.8,1.1
					c-2.6,2.7-5.3,5.5-8.7,6.8c-5.6,2.3-4.8-0.9-4.8-0.9s-2.5-0.3-3-1.5c-0.1-0.3,0-1.4,0-1.4s-2.5-1.2-1.2-3.3
					c-0.6-0.5-0.8-1.5,0.4-2.1c0.8-0.4,1.7-0.7,2.5-0.9C41.1,42.6,44,42.1,46.9,41.5z"/>
				<path class="st15" d="M51.8,44.7c0.3-0.9,1.2-1.1,0.5-1.7c-1.5-1.3-4-1.6-5.9-1.2c-2.9,0.5-5.8,1.1-8.6,1.7
					c-0.3,0.1-0.6,0.1-0.9,0.2c0,0.3-1.6,1.5,2.3,1.6c-0.7,0.5-1.3,1-1.8,1.5c-0.3,0.2-0.4,0.5-0.5,0.9c0,0.2,0.1,0.4,0.2,0.6
					c0.1,0.2,0.3,0.3,0.4,0.4c0.4,0.2,0.8,0.2,1.2,0.3c-0.3,0.4-0.7,0.8-0.5,1.3c0.2,0.7,1.1,0.8,1.9,0.7
					C44.2,50.4,51.6,45.2,51.8,44.7z"/>
				<path class="st40" d="M51.7,37.9c2.5-2.1,5.1-4.1,7.1-6.6c0.6-0.7,1.7-3.2,2.9-2.1c1,0.9,1.1,3.5,1.2,4.7c0.1,0.6,0,1.3-0.1,1.9
					c-0.2,0.7-0.6,1.2-0.9,1.8c-1.6,4.6-6.9,9.2-11.3,11.1c-0.4-2.4-1.8-5.4-3.9-7.1C48.7,40.3,49.9,39.3,51.7,37.9z"/>
				<path class="st46" d="M62,39c0.3-1.3,0.7-3.1,0.8-3.5c0.2-0.6-4.4,6.4-12.9,11.3c0.1,0.4,0.5,1.5,0.5,1.9
					c3.6-1.5,7.5-5.1,8.6-6.1c0.1-0.4,0-0.3,0.3-0.6c0.4-0.8,1.1-1.7,2-2.1C61.5,39.6,61.7,39.3,62,39z"/>
				<path class="st45" d="M46.6,41.6c0.7,0.6,1.3,1.3,1.8,2.1c1.5-1,1.8-1,3.2-2c0.5-0.3,1-1.1,0.5-1.4c1.7-0.6,3.1-1.6,4.2-3
					l-0.8-0.1l2.9-2.4c0.2-0.1,0.3-0.3,0.3-0.5c0-0.2-0.2-0.4-0.4-0.3c0.5-0.7,0.9-1.3,1.7-2.3c0.2-0.3,2.1-2.7,1.9-2.9
					c-1.1-1.1-3.7,2.8-4.3,3.5c-2.1,2.5-4.6,4.4-7.1,6.4C48.8,40.2,48.2,40.5,46.6,41.6z"/>
			</g>
			<g>
				<path class="st22" d="M86.2,23l-9.5-1.5v0l0,0l0,0v0L67.1,23c0,0-1.2,7.3,9.5,7.3h0.1C87.4,30.3,86.2,23,86.2,23z"/>
				<path class="st24" d="M69,22.7c0,1,5,7.8,9.1,7.6c8.5-0.5,8.4-6.5,8.3-7.2"/>
				<path class="st49" d="M86.4,23.1l-1.1,0c0.1,0.6,0.2,6.4-7.7,7.1c0.2,0,0.3,0,0.5,0C86.6,29.8,86.5,23.7,86.4,23.1z"/>
				<path class="st24" d="M85.9,19.6c-1-0.4-2-0.6-3-0.7c-2.2-0.1-4.1-0.3-6.1-0.4h-0.2c-2,0.1-3.9,0.3-6.1,0.4c-0.7,0-2,0.4-3,0.7
					c-1.3,0.3-3.2,0.8-3,2.8c0.1,0.8,1,1.8,3.3,2c2.2,0.1,5.2-0.6,8.9-0.6c3.6,0,6.7,0.7,8.9,0.6c2.3-0.1,3.3-0.7,3.6-1.9
					C89.6,20.5,87.2,20,85.9,19.6z"/>
				<path class="st49" d="M85.8,23.7c-2.2,0.1-5.4-0.6-9.1-0.6c-3.7,0-6.9,0.7-9.1,0.6c-1.6-0.1-2.5-0.6-3-1.1
					c0.3,0.8,1.2,1.5,3.2,1.7c2.2,0.1,5.2-0.6,8.9-0.6c3.6,0,6.7,0.7,8.9,0.6c2.1-0.1,3.1-0.6,3.5-1.6
					C88.5,23.3,87.5,23.6,85.8,23.7z"/>
				<path class="st27" d="M86.8,19.7c-0.6-0.1-1.9-0.5-2.3-0.7c-0.9-0.5-1.7-1.2-2.3-2.1c-1.2-1.6-1.1-3.6-5.3-3.6h0h0
					c-4.2,0-4,2-5.2,3.6c-0.6,0.9-1.4,1.6-2.3,2.1c-0.4,0.1-1.7,0.5-2.3,0.7c-3.4,0.7-2.3,3.2-2.3,3.2s0.5-0.6,3.8-0.8
					c2.4-0.1,5.5,0,8.3,0h0.1c2.8,0,6-0.1,8.4,0c3,0.1,3.8,0.8,3.8,0.8S90.2,20.4,86.8,19.7z"/>
				<path class="st49" d="M84.1,24c0,0-4.8,1.2-7.5,1.2c-2.4,0-4.8-0.4-7.1-1.2c1.9,2.8,5.4,3.1,8.1,3c0,0,5.1-0.2,7.3-2.8
					C84.9,24.1,84.5,24,84.1,24z"/>
			</g>
		</g>
		<rect x="84.3" y="73.7" class="st50" width="54" height="0.9"/>
	</g>
	<g>
		<path class="st40" d="M8.2,102.1c1.7,0,3.2,0.6,4.4,1.8s1.8,2.6,1.8,4.3c0,1.7-0.6,3.2-1.8,4.3c-1.2,1.2-2.7,1.8-4.4,1.8H5v6H1.4
			v-18.2H8.2z M8.2,110.9c1.5,0,2.7-1.2,2.7-2.8c0-1.6-1.1-2.8-2.7-2.8H5v5.5H8.2z"/>
		<path class="st40" d="M25.2,107.3h3.4v13h-3.4v-1.5c-0.8,1.2-2.1,1.8-3.9,1.8c-1.4,0-2.6-0.5-3.5-1.4c-0.9-1-1.4-2.3-1.4-4v-8h3.4
			v7.6c0,1.7,1,2.7,2.6,2.7c1.7,0,2.9-1.1,2.9-3.2V107.3z"/>
		<path class="st40" d="M31.6,120.3v-19H35v19H31.6z"/>
		<path class="st40" d="M46.6,107.3H50v13h-3.4v-1.5c-0.8,1.2-2.1,1.8-3.9,1.8c-1.4,0-2.6-0.5-3.5-1.4c-0.9-1-1.4-2.3-1.4-4v-8h3.4
			v7.6c0,1.7,1,2.7,2.6,2.7c1.7,0,2.9-1.1,2.9-3.2V107.3z"/>
		<path class="st40" d="M72.3,112.2v8H69v-7.8c0-1.6-0.8-2.5-2.2-2.5c-1.5,0-2.4,1-2.4,2.9v7.3H61v-7.8c0-1.6-0.8-2.5-2.2-2.5
			c-1.5,0-2.4,1-2.4,2.9v7.3H53v-13h3.4v1.4c0.8-1.2,2-1.7,3.6-1.7c1.6,0,2.8,0.6,3.5,1.9c0.9-1.2,2.2-1.9,3.9-1.9
			C70.4,106.9,72.3,109,72.3,112.2z"/>
		<path class="st40" d="M74.8,103.6c0-1.1,0.9-2.1,2.1-2.1c1.1,0,2.1,1,2.1,2.1s-0.9,2.1-2.1,2.1C75.7,105.7,74.8,104.8,74.8,103.6z
			 M75.2,120.3v-13h3.4v13H75.2z"/>
		<path class="st40" d="M90.1,117.9c-1.8-1.8-2.7-4.1-2.7-6.7c0-2.7,0.9-4.9,2.7-6.7c1.8-1.8,4.1-2.7,6.8-2.7c3.3,0,6.3,1.7,7.8,4.3
			l-3.1,1.8c-0.9-1.6-2.7-2.6-4.7-2.6c-1.8,0-3.2,0.5-4.3,1.7c-1.1,1.1-1.6,2.5-1.6,4.3c0,1.7,0.5,3.2,1.6,4.3
			c1.1,1.1,2.5,1.7,4.3,1.7c2.1,0,3.9-1,4.7-2.6l3.1,1.8c-1.6,2.6-4.5,4.3-7.8,4.3C94.2,120.6,91.9,119.7,90.1,117.9z"/>
		<path class="st40" d="M113.1,120.6c-1.9,0-3.6-0.6-4.9-2c-1.3-1.3-2-3-2-4.9c0-1.9,0.7-3.5,2-4.9c1.3-1.3,3-2,4.9-2
			c1.9,0,3.6,0.7,4.9,2c1.3,1.3,2,2.9,2,4.9c0,1.9-0.7,3.6-2,4.9C116.6,120,115,120.6,113.1,120.6z M113.1,117.3c1,0,1.8-0.3,2.5-1
			c0.7-0.7,1-1.5,1-2.6s-0.3-1.9-1-2.6c-0.7-0.7-1.5-1-2.5-1c-1,0-1.8,0.3-2.5,1c-0.7,0.7-1,1.5-1,2.6s0.3,1.9,1,2.6
			C111.2,117,112,117.3,113.1,117.3z"/>
		<path class="st40" d="M141.6,112.2v8h-3.4v-7.8c0-1.6-0.8-2.5-2.2-2.5c-1.5,0-2.4,1-2.4,2.9v7.3h-3.4v-7.8c0-1.6-0.8-2.5-2.2-2.5
			c-1.5,0-2.4,1-2.4,2.9v7.3h-3.4v-13h3.4v1.4c0.8-1.2,2-1.7,3.6-1.7c1.6,0,2.8,0.6,3.5,1.9c0.9-1.2,2.2-1.9,3.9-1.9
			C139.7,106.9,141.6,109,141.6,112.2z"/>
		<path class="st40" d="M163.8,112.2v8h-3.4v-7.8c0-1.6-0.8-2.5-2.2-2.5c-1.5,0-2.4,1-2.4,2.9v7.3h-3.4v-7.8c0-1.6-0.8-2.5-2.2-2.5
			c-1.5,0-2.4,1-2.4,2.9v7.3h-3.4v-13h3.4v1.4c0.8-1.2,2-1.7,3.6-1.7c1.6,0,2.8,0.6,3.5,1.9c0.9-1.2,2.2-1.9,3.9-1.9
			C161.8,106.9,163.8,109,163.8,112.2z"/>
		<path class="st40" d="M175.2,107.3h3.4v13h-3.4v-1.5c-0.8,1.2-2.1,1.8-3.9,1.8c-1.4,0-2.6-0.5-3.5-1.4c-0.9-1-1.4-2.3-1.4-4v-8
			h3.4v7.6c0,1.7,1,2.7,2.6,2.7c1.7,0,2.9-1.1,2.9-3.2V107.3z"/>
		<path class="st40" d="M192.4,108.3c0.9,1,1.4,2.3,1.4,4v8h-3.4v-7.6c0-1.7-1-2.7-2.6-2.7c-1.7,0-2.9,1.1-2.9,3.2v7h-3.4v-13h3.4
			v1.5c0.8-1.2,2.1-1.8,3.9-1.8C190.3,106.9,191.4,107.4,192.4,108.3z"/>
		<path class="st40" d="M196.2,103.6c0-1.1,0.9-2.1,2.1-2.1c1.1,0,2.1,1,2.1,2.1s-0.9,2.1-2.1,2.1
			C197.2,105.7,196.2,104.8,196.2,103.6z M196.6,120.3v-13h3.4v13H196.6z"/>
		<path class="st40" d="M210.5,110.5h-2.9v5.4c0,1.4,1,1.4,2.9,1.3v3c-4.6,0.5-6.3-0.8-6.3-4.4v-5.4h-2.3v-3.2h2.3v-2.6l3.4-1v3.6
			h2.9V110.5z"/>
		<path class="st40" d="M221.6,107.3h3.6l-4.7,13c-1.4,3.7-3.5,5.4-6.9,5.2v-3.1c1.8,0,2.8-0.7,3.4-2.5l-5.3-12.6h3.7l3.4,8.7
			L221.6,107.3z"/>
		<path d="M67.6,139.7l1.9-1.1c0.4,1.1,1.3,1.7,2.6,1.7c1.2,0,1.8-0.5,1.8-1.2c0-0.4-0.2-0.7-0.5-0.9c-0.4-0.2-1-0.5-1.9-0.7
			c-1-0.3-1.6-0.5-2.3-1c-0.7-0.5-1.1-1.3-1.1-2.3c0-1,0.4-1.8,1.1-2.4c0.7-0.6,1.6-0.9,2.6-0.9c1.8,0,3.2,0.9,4,2.5l-1.9,1.1
			c-0.4-1-1.2-1.4-2.1-1.4c-0.9,0-1.5,0.5-1.5,1.1c0,0.4,0.1,0.6,0.4,0.9c0.3,0.2,0.9,0.4,1.7,0.7l0.8,0.3c0.2,0,0.4,0.1,0.7,0.3
			c0.3,0.1,0.5,0.2,0.7,0.3c0.3,0.2,0.8,0.6,1.1,1c0.2,0.4,0.4,0.9,0.4,1.6c0,1-0.4,1.9-1.1,2.5c-0.8,0.6-1.7,0.9-2.9,0.9
			C69.7,142.5,68.2,141.4,67.6,139.7z"/>
		<path d="M85,141.4c-0.8-0.7-1.2-1.6-1.2-2.8V131H86v7.4c0,1.2,0.7,1.9,2.1,1.9s2.1-0.7,2.1-1.9V131h2.2v7.5c0,1.2-0.4,2.1-1.2,2.8
			c-0.8,0.7-1.8,1.1-3.1,1.1C86.8,142.5,85.8,142.1,85,141.4z"/>
		<path d="M111.7,131v11.2h-2.2V135l-3.2,5.2h-0.3l-3.2-5.2v7.3h-2.2V131h2.3l3.2,5.3l3.2-5.3H111.7z"/>
		<path d="M131.1,131v11.2h-2.2V135l-3.2,5.2h-0.3l-3.2-5.2v7.3h-2.2V131h2.3l3.2,5.3l3.2-5.3H131.1z"/>
		<path d="M139.6,131h2.2v11.2h-2.2V131z"/>
		<path d="M157.7,131v2.1h-3v9.1h-2.2v-9.1h-3V131H157.7z"/>
	</g>
	<g>
		<path class="st17" d="M173.8,24.7c0.2,0.4,0.4,0.8,0.7,1.1c0.3,0.3,0.7,0.6,1.1,0.7l3.5,1.8c0.4,0.2,0.8,0.2,1.2,0.2
			c0.4,0,0.9-0.1,1.3-0.2l3.5-1.8c0.6-0.3,1.2-0.7,1.5-1.3"/>
		<g>
			<path class="st13" d="M173.8,24.7c0.2,0.4,0.4,0.8,0.7,1.1c0.3,0.3,0.7,0.6,1.1,0.7l3.5,1.8c0.4,0.2,0.8,0.2,1.2,0.2
				c0.4,0,0.9-0.1,1.3-0.2l3.5-1.8c0.6-0.3,1.2-0.7,1.5-1.3"/>
			<path class="st18" d="M180.4,16.5c1,0,1.7-0.5,1.7-1c0-0.6-0.8-1-1.7-1c-1,0-1.7,0.5-1.7,1C178.7,16.1,179.4,16.5,180.4,16.5z"/>
			<path class="st18" d="M180.4,20.3c1,0,1.7-0.5,1.7-1c0-0.6-0.8-1-1.7-1c-1,0-1.7,0.5-1.7,1C178.7,19.9,179.4,20.3,180.4,20.3z"/>
			<path class="st19" d="M176.4,21.8c0.5-0.3,0.4-1.2-0.1-2c-0.5-0.8-1.3-1.2-1.8-0.9s-0.4,1.2,0.1,2
				C175.2,21.7,176,22.1,176.4,21.8z"/>
			<path class="st19" d="M180,23.5c0.5-0.3,0.4-1.2-0.1-2s-1.3-1.2-1.8-0.9c-0.5,0.3-0.4,1.2,0.1,2C178.7,23.4,179.5,23.8,180,23.5z
				"/>
			<path class="st19" d="M176.4,25.6c0.5-0.3,0.4-1.2-0.1-2c-0.5-0.8-1.3-1.2-1.8-0.9s-0.4,1.2,0.1,2S176,25.9,176.4,25.6z"/>
			<path class="st19" d="M179.7,27.4c0.5-0.3,0.4-1.2-0.1-2c-0.5-0.8-1.3-1.2-1.8-0.9c-0.5,0.3-0.4,1.2,0.1,2
				C178.5,27.3,179.3,27.7,179.7,27.4z"/>
			<path class="st20" d="M186.2,24.6c0.5-0.8,0.5-1.7,0.1-2c-0.5-0.3-1.3,0.1-1.8,0.9c-0.5,0.8-0.5,1.7-0.1,2
				C184.9,25.8,185.7,25.4,186.2,24.6z"/>
			<path class="st20" d="M182.9,26.4c0.5-0.8,0.5-1.7,0.1-2c-0.5-0.3-1.3,0.1-1.8,0.9c-0.5,0.8-0.5,1.7-0.1,2
				C181.6,27.7,182.4,27.3,182.9,26.4z"/>
			<path class="st20" d="M186.1,20.7c0.5-0.8,0.5-1.7,0.1-2c-0.5-0.3-1.3,0.1-1.8,0.9c-0.5,0.8-0.5,1.7-0.1,2
				C184.8,21.9,185.6,21.5,186.1,20.7z"/>
			<path class="st20" d="M182.9,22.6c0.5-0.8,0.5-1.7,0.1-2c-0.5-0.3-1.3,0.1-1.8,0.9c-0.5,0.8-0.5,1.7-0.1,2
				C181.6,23.8,182.4,23.4,182.9,22.6z"/>
			<path class="st18" d="M177.2,18.4c1,0,1.7-0.5,1.7-1c0-0.6-0.8-1-1.7-1c-1,0-1.7,0.5-1.7,1C175.4,18,176.2,18.4,177.2,18.4z"/>
			<path class="st18" d="M183.7,18.3c1,0,1.7-0.5,1.7-1c0-0.6-0.8-1-1.7-1c-1,0-1.7,0.5-1.7,1C182,17.9,182.7,18.4,183.7,18.3z"/>
		</g>
	</g>
	<g>
		<path class="st51" d="M52,51.7l-7,2.1c-0.3,0.1-0.7,0.1-1-0.1c-0.3-0.1-0.6-0.4-0.8-0.6l-7.9-13.4c-0.1-0.1-0.1-0.3-0.2-0.4
			c0-0.1,0-0.3,0.1-0.4c0.1-0.1,0.1-0.3,0.2-0.4c0.1-0.1,0.2-0.2,0.4-0.2l7-2.1c0.6-0.2,1.1-0.2,1.5,0.3l8.2,13.8
			c0.1,0.1,0.1,0.3,0.2,0.4c0,0.1,0,0.3-0.1,0.4c-0.1,0.1-0.1,0.3-0.2,0.4C52.3,51.6,52.1,51.7,52,51.7z"/>
		<path class="st52" d="M52.2,51.4l-7,2.1c-0.3,0.1-0.7,0.1-1-0.1c-0.3-0.1-0.6-0.4-0.8-0.6l-7.9-13.4c-0.1-0.2-0.2-0.4-0.1-0.7
			c-0.1,0.2-0.2,0.3-0.2,0.5c0,0.2,0,0.4,0.2,0.5l7.9,13.4c0.2,0.3,0.5,0.5,0.8,0.6c0.3,0.1,0.7,0.2,1,0.1l7-2.1
			c0.2,0,0.3-0.1,0.4-0.3c0.1-0.1,0.2-0.3,0.2-0.5C52.5,51.2,52.4,51.3,52.2,51.4z"/>
		<path class="st53" d="M44,37.2l-7.3,2.1c-0.1,0-0.1,0-0.1,0.1c0,0-0.1,0.1-0.1,0.1c0,0.1,0,0.1,0,0.2c0,0.1,0,0.1,0.1,0.2
			l6.9,11.6c0.3,0.4,0.4,0.7,1.1,0.4l7-2.1c0.5-0.2,0.4-0.4,0.4-0.6l-7-11.8C44.7,37.2,44.5,37.1,44,37.2z"/>
		<path class="st54" d="M41.5,42.9c0.1-0.1,0-0.4-0.3-0.6c-0.3-0.2-0.6-0.2-0.7-0.1c-0.1,0.1,0,0.4,0.3,0.6
			C41.1,43,41.4,43.1,41.5,42.9z M41.8,43.5c0.3,0.2,0.4,0.5,0.3,0.6c-0.1,0.1-0.4,0.1-0.7-0.1c-0.3-0.2-0.4-0.5-0.3-0.6
			C41.2,43.2,41.5,43.3,41.8,43.5L41.8,43.5z M43,43.7c0.3,0.2,0.4,0.5,0.3,0.6c-0.1,0.1-0.4,0.1-0.7-0.1s-0.4-0.5-0.3-0.6
			C42.5,43.4,42.8,43.5,43,43.7L43,43.7z M42.5,42.5c0.3,0.2,0.4,0.5,0.3,0.6c-0.1,0.1-0.4,0.1-0.7-0.1c-0.3-0.2-0.4-0.5-0.3-0.6
			C42,42.3,42.3,42.4,42.5,42.5z"/>
		<path class="st55" d="M44.5,41.5c0-0.3-0.1-0.6-0.3-0.6c-0.2,0-0.4,0.2-0.4,0.5c0,0.3,0.1,0.6,0.3,0.6
			C44.2,42.1,44.4,41.8,44.5,41.5z M44.7,42.1c0.2,0,0.3,0.3,0.3,0.6c0,0.3-0.2,0.5-0.4,0.5c-0.2,0-0.3-0.3-0.3-0.6
			C44.3,42.3,44.5,42,44.7,42.1z M43.9,43c0.2,0,0.3,0.3,0.3,0.6c0,0.3-0.2,0.5-0.4,0.5c-0.2,0-0.3-0.3-0.3-0.6
			C43.6,43.2,43.7,43,43.9,43z M43.4,41.9c0.2,0,0.3,0.3,0.3,0.6c0,0.3-0.2,0.5-0.4,0.5c-0.2,0-0.3-0.3-0.3-0.6
			C43.1,42.1,43.2,41.9,43.4,41.9z"/>
		<path class="st56" d="M42.5,40.5c0.1,0.2-0.1,0.4-0.4,0.5c-0.3,0.1-0.6,0.1-0.7-0.1c-0.1-0.2,0.1-0.4,0.4-0.5
			C42.1,40.3,42.4,40.3,42.5,40.5z M41.7,41.4c0.1,0.2-0.1,0.4-0.4,0.5c-0.3,0.1-0.6,0.1-0.7-0.1c-0.1-0.2,0.1-0.4,0.4-0.5
			C41.4,41.2,41.7,41.2,41.7,41.4z M43.4,41.1c0.3-0.1,0.5-0.3,0.4-0.5c-0.1-0.2-0.4-0.2-0.7-0.1c-0.3,0.1-0.5,0.3-0.4,0.5
			C42.8,41.2,43.1,41.2,43.4,41.1z M43,41.6c0.1,0.2-0.1,0.4-0.4,0.5c-0.3,0.1-0.6,0.1-0.7-0.1c-0.1-0.2,0.1-0.4,0.4-0.5
			C42.6,41.4,42.9,41.4,43,41.6L43,41.6z"/>
		<path class="st57" d="M43.9,45.9l0.1,0c0,0,0,0,0.1,0c0,0,0,0,0,0l0.8,1.4c0,0,0,0.1,0,0.1l-0.1,0c0,0,0,0-0.1,0c0,0,0,0,0,0
			L43.9,45.9C43.8,45.9,43.8,45.9,43.9,45.9z M42.5,48C42.5,48,42.5,48,42.5,48l-0.2-0.5l0.2-0.1c0.1,0,0.1,0,0.2-0.1
			c0,0,0.1-0.1,0.1-0.2c0-0.1,0-0.1,0-0.2c0-0.1,0-0.1-0.1-0.2c-0.1-0.1-0.2-0.2-0.3-0.3c-0.1-0.1-0.3-0.1-0.4,0l-0.4,0.1
			c0,0,0,0,0,0.1l0.8,1.3c0,0,0,0,0,0c0,0,0,0,0.1,0L42.5,48z M41.8,46.8l0.2-0.1c0.1,0,0.2,0,0.2,0c0.1,0,0.1,0.1,0.2,0.2
			c0.1,0.2,0,0.3-0.1,0.3l-0.2,0.1L41.8,46.8z M42.9,46.7l0.3,0.6c0.1,0.1,0.2,0.2,0.3,0.3c0.1,0.1,0.3,0.1,0.4,0
			c0.1,0,0.1,0,0.2-0.1c0,0,0.1-0.1,0.1-0.2l0,0.1c0,0,0,0,0,0c0,0,0,0,0.1,0l0.1,0c0,0,0,0,0-0.1l-0.5-0.9c0,0,0,0,0,0
			c0,0,0,0-0.1,0l-0.1,0c0,0,0,0,0,0.1l0.3,0.5c0.1,0.2,0,0.3-0.1,0.4c-0.1,0-0.1,0-0.2,0c-0.1,0-0.1-0.1-0.2-0.2l-0.3-0.6
			c0,0,0,0,0,0c0,0,0,0-0.1,0L42.9,46.7C42.8,46.7,42.8,46.7,42.9,46.7L42.9,46.7z M44.6,46.2l0.3,0.6c0.1,0.1,0.2,0.2,0.3,0.3
			c0.1,0.1,0.3,0.1,0.4,0c0.1,0,0.1,0,0.2-0.1c0,0,0.1-0.1,0.1-0.2l0,0.1c0,0,0,0,0,0c0,0,0,0,0.1,0l0.1,0c0,0,0,0,0-0.1l-0.5-0.9
			c0,0,0,0,0,0c0,0,0,0-0.1,0l-0.1,0c0,0,0,0,0,0.1l0.3,0.5c0.1,0.2,0,0.3-0.1,0.4c-0.1,0-0.1,0-0.2,0c-0.1,0-0.1-0.1-0.2-0.2
			l-0.3-0.6c0,0,0,0,0,0c0,0,0,0-0.1,0L44.6,46.2C44.6,46.2,44.5,46.2,44.6,46.2L44.6,46.2z M47.6,45.7l0.3,0.6c0,0,0,0.1,0,0.1
			l-0.1,0c0,0,0,0-0.1,0c0,0,0,0,0,0l-0.3-0.6c0-0.1-0.1-0.1-0.1-0.2c-0.1,0-0.1,0-0.2,0c-0.1,0-0.2,0.2-0.1,0.4l0.3,0.5
			c0,0,0,0.1,0,0.1l-0.1,0c0,0,0,0-0.1,0c0,0,0,0,0,0L46.7,46c0-0.1-0.1-0.1-0.1-0.2c-0.1,0-0.1,0-0.2,0c-0.1,0-0.2,0.2-0.1,0.4
			l0.3,0.5c0,0,0,0.1,0,0.1l-0.1,0c0,0,0,0-0.1,0c0,0,0,0,0,0l-0.5-0.9c0,0,0-0.1,0-0.1l0.1,0c0,0,0,0,0.1,0c0,0,0,0,0,0l0,0.1
			c0-0.1,0-0.1,0.1-0.2c0,0,0.1-0.1,0.1-0.1c0.1,0,0.2,0,0.3,0c0.1,0,0.2,0.1,0.2,0.1c0-0.1,0-0.1,0-0.2c0-0.1,0.1-0.1,0.2-0.1
			c0.1,0,0.3,0,0.4,0C47.4,45.5,47.5,45.6,47.6,45.7L47.6,45.7z M47.7,44.9C47.7,44.8,47.7,44.8,47.7,44.9c-0.1-0.1-0.2-0.1-0.2-0.1
			c0,0,0,0,0,0c0,0,0,0,0,0c0,0,0,0,0,0.1c0,0,0,0,0,0.1c0,0,0.1,0.1,0.1,0.1c0,0,0.1,0,0.1,0c0,0,0,0,0,0c0,0,0,0,0,0
			S47.7,44.9,47.7,44.9C47.7,44.9,47.7,44.9,47.7,44.9L47.7,44.9z M47.9,45.2C47.9,45.2,47.9,45.2,47.9,45.2
			C47.8,45.2,47.8,45.2,47.9,45.2l-0.2,0c0,0,0,0,0,0.1l0.5,0.9c0,0,0,0,0,0c0,0,0,0,0.1,0l0.1,0c0,0,0,0,0-0.1L47.9,45.2z"/>
		<path class="st58" d="M48.4,52.1c0.4,0,0.8-0.2,0.8-0.5c0-0.3-0.3-0.5-0.8-0.5c-0.4,0-0.8,0.2-0.8,0.5
			C47.6,51.9,48,52.1,48.4,52.1z"/>
		<path class="st59" d="M41.3,37.5l-2,0.6L39.2,38l2-0.6L41.3,37.5z"/>
		<path class="st59" d="M40.9,37.3c0.1,0,0.2-0.1,0.2-0.1c0-0.1-0.1-0.1-0.2-0.1c-0.1,0-0.2,0.1-0.2,0.1
			C40.8,37.3,40.8,37.3,40.9,37.3z"/>
		<path class="st59" d="M38.6,38.3c0.1,0,0.2-0.1,0.2-0.1c0-0.1-0.1-0.1-0.2-0.1c-0.1,0-0.2,0.1-0.2,0.1
			C38.4,38.3,38.5,38.3,38.6,38.3z"/>
	</g>
</g>
<g>
	<path class="st62" d="M187,17.5c-0.2-0.4-0.4-0.8-0.7-1.1c-0.3-0.3-0.7-0.6-1.2-0.7l-3.5-1.8c-0.4-0.2-0.8-0.2-1.2-0.2
		c-0.4,0-0.9,0.1-1.3,0.2l-3.5,1.8c-0.6,0.3-1.2,0.7-1.6,1.3l-0.2,7.8c0.2,0.4,0.4,0.8,0.7,1.1c0.3,0.3,0.7,0.6,1.2,0.7l3.5,1.8
		c0.4,0.2,0.8,0.2,1.2,0.2c0.4,0,0.9-0.1,1.3-0.2l3.5-1.8c0.6-0.3,1.2-0.7,1.6-1.3L187,17.5z"/>
	<path class="st13" d="M173.8,24.6c0.2,0.4,0.4,0.8,0.7,1.2c0.3,0.3,0.7,0.6,1.2,0.8l3.5,1.8c0.4,0.2,0.8,0.2,1.2,0.2
		c0.4,0,0.9-0.1,1.3-0.2l3.5-1.8c0.6-0.3,1.2-0.7,1.6-1.3"/>
	<path class="st18" d="M180.4,16.3c1,0,1.7-0.5,1.7-1c0-0.6-0.8-1-1.8-1c-1,0-1.7,0.5-1.7,1C178.7,15.9,179.4,16.4,180.4,16.3z"/>
	<path class="st18" d="M180.4,20.2c1,0,1.7-0.5,1.7-1c0-0.6-0.8-1-1.8-1c-1,0-1.7,0.5-1.7,1S179.4,20.2,180.4,20.2z"/>
	<path class="st19" d="M176.4,21.7c0.5-0.3,0.4-1.2-0.1-2c-0.5-0.8-1.3-1.2-1.8-0.9c-0.5,0.3-0.4,1.2,0.1,2
		C175.1,21.6,175.9,22,176.4,21.7z"/>
	<path class="st19" d="M180,23.5c0.5-0.3,0.4-1.2-0.1-2s-1.3-1.2-1.8-0.9c-0.5,0.3-0.4,1.2,0.1,2C178.7,23.4,179.5,23.8,180,23.5z"
		/>
	<path class="st19" d="M176.4,25.5c0.5-0.3,0.4-1.2-0.1-2s-1.3-1.2-1.8-0.9c-0.5,0.3-0.4,1.2,0.1,2
		C175.1,25.4,175.9,25.8,176.4,25.5z"/>
	<path class="st19" d="M179.9,27.6c0.5-0.3,0.5-1.3-0.1-2.2c-0.6-0.9-1.4-1.3-2-1c-0.5,0.3-0.5,1.3,0.1,2.2
		C178.5,27.5,179.4,28,179.9,27.6z"/>
	<path class="st20" d="M186.3,24.5c0.5-0.8,0.5-1.7,0.1-2c-0.5-0.3-1.3,0.1-1.8,0.9c-0.5,0.8-0.5,1.7-0.1,2
		C184.9,25.8,185.7,25.4,186.3,24.5z"/>
	<path class="st20" d="M182.9,26.4c0.5-0.8,0.5-1.7,0.1-2c-0.5-0.3-1.3,0.1-1.8,0.9c-0.5,0.8-0.5,1.7-0.1,2
		C181.6,27.7,182.4,27.2,182.9,26.4z"/>
	<path class="st20" d="M186.2,20.6c0.5-0.8,0.5-1.7,0.1-2c-0.5-0.3-1.3,0.1-1.8,0.9c-0.5,0.8-0.5,1.7-0.1,2
		C184.9,21.9,185.7,21.4,186.2,20.6z"/>
	<path class="st20" d="M182.9,22.5c0.5-0.8,0.5-1.7,0.1-2c-0.5-0.3-1.3,0.1-1.8,0.9c-0.5,0.8-0.5,1.7-0.1,2
		C181.6,23.7,182.4,23.3,182.9,22.5z"/>
	<path class="st18" d="M177.1,18.3c1,0,1.7-0.5,1.7-1c0-0.6-0.8-1-1.8-1c-1,0-1.7,0.5-1.7,1C175.4,17.9,176.2,18.3,177.1,18.3z"/>
	<path class="st18" d="M183.7,18.2c1,0,1.7-0.5,1.7-1c0-0.6-0.8-1-1.8-1c-1,0-1.7,0.5-1.7,1C182,17.8,182.8,18.2,183.7,18.2z"/>
</g>
</svg>
