<?xml version="1.0" encoding="utf-8"?>
<!-- Generator: Adobe Illustrator 24.2.1, SVG Export Plug-In . SVG Version: 6.00 Build 0)  -->
<svg version="1.1" id="Layer_1" xmlns="http://www.w3.org/2000/svg" xmlns:xlink="http://www.w3.org/1999/xlink" x="0px" y="0px"
	 viewBox="0 0 600 325" style="enable-background:new 0 0 600 325;" xml:space="preserve">
<style type="text/css">
	.st0{fill:url(#SVGID_2_);}
	.st1{fill:#689F63;}
	.st2{fill-rule:evenodd;clip-rule:evenodd;fill:#333333;}
	.st3{fill-rule:evenodd;clip-rule:evenodd;fill:#689F63;}
	.st4{fill:#3178C6;}
	.st5{fill-rule:evenodd;clip-rule:evenodd;fill:#FFFFFF;}
	.st6{fill:#F7DF1E;}
	.st7{fill:#00ACD7;}
	.st8{clip-path:url(#SVGID_4_);}
	.st9{fill:#5582A1;}
	.st10{fill:#F49734;}
	.st11{fill:#646464;}
	.st12{fill:url(#SVGID_5_);}
	.st13{fill:url(#SVGID_6_);}
	.st14{opacity:0.4438;fill:url(#SVGID_7_);enable-background:new    ;}
	.st15{fill:#5C2D91;}
	.st16{opacity:0.1;fill:#FFFFFF;enable-background:new    ;}
	.st17{fill:#FFFFFF;}
	.st18{fill:#F2F2F2;}
	.st19{fill:#004E8C;}
	.st20{fill:#05930C;}
	.st21{fill:#802D8E;}
	.st22{fill:#721581;}
	.st23{fill:#FDFDFD;}
	.st24{fill:#CB171E;}
	.st25{fill:#00B352;}
	.st26{fill:none;stroke:#FFFFFF;stroke-width:2.0449;stroke-linecap:round;}
	
		.st27{opacity:0.405;fill:#211F46;fill-opacity:0.996;stroke:#0A0B1B;stroke-width:1.518;stroke-miterlimit:4.107;enable-background:new    ;}
	.st28{fill:url(#SVGID_8_);stroke:url(#SVGID_9_);stroke-width:2.4044;stroke-miterlimit:4.1617;}
	.st29{fill:url(#SVGID_10_);}
	.st30{fill:url(#SVGID_11_);}
	.st31{fill:url(#SVGID_12_);}
	.st32{fill:url(#SVGID_13_);}
	.st33{fill:url(#SVGID_14_);}
	.st34{fill:url(#SVGID_15_);}
	.st35{fill:url(#SVGID_16_);}
	.st36{fill:url(#SVGID_17_);}
	.st37{fill:url(#SVGID_18_);}
	.st38{fill-rule:evenodd;clip-rule:evenodd;fill:#FFFFFF;filter:url(#Adobe_OpacityMaskFilter);}
	.st39{mask:url(#mask0_2_);}
	.st40{fill:#0065A9;}
	.st41{fill:#007ACC;}
	.st42{fill:#1F9CF0;}
	.st43{opacity:0.25;}
	.st44{fill-rule:evenodd;clip-rule:evenodd;fill:url(#SVGID_19_);}
	.st45{fill:#2C2255;}
	.st46{fill:#F7941E;}
	.st47{fill:url(#SVGID_20_);}
	.st48{fill:url(#SVGID_21_);}
	.st49{fill:url(#SVGID_22_);}
	.st50{fill:#019833;stroke:#000000;stroke-width:0.1342;}
	.st51{fill:#66FE98;stroke:#000000;stroke-width:0.1342;}
	.st52{fill:#45FE02;stroke:#000000;stroke-width:0.1342;}
	.st53{fill:#017D17;stroke:#000000;stroke-width:0.1342;}
	.st54{fill:none;stroke:#000000;stroke-width:2.6832;}
	.st55{fill:#005D04;stroke:#000000;stroke-width:0.1342;}
	.st56{fill:none;stroke:#000000;stroke-width:0.805;}
	.st57{fill:#FEFEFE;stroke:#000000;stroke-width:0.1342;}
	.st58{fill:none;stroke:#000000;stroke-width:0.1419;}
	.st59{fill:#808080;stroke:#000000;stroke-width:0.1342;}
	.st60{fill:#CCCCCC;stroke:#000000;stroke-width:0.1419;}
	.st61{fill:#CCCCCC;stroke:#000000;stroke-width:1.1349;stroke-miterlimit:10;}
	.st62{fill:#CCCCCC;stroke:#000000;stroke-width:0.1419;stroke-miterlimit:10;}
	.st63{fill:#02303A;}
	.st64{fill-rule:evenodd;clip-rule:evenodd;fill:#8D6748;}
	.st65{fill:#040707;}
	.st66{fill-rule:evenodd;clip-rule:evenodd;fill:#F96216;}
	.st67{fill-rule:evenodd;clip-rule:evenodd;fill:#B200F8;}
	.st68{fill-rule:evenodd;clip-rule:evenodd;fill:#00B4F2;}
	.st69{fill:#F7F7F4;stroke:#CCCCCC;stroke-width:0.1872;stroke-linejoin:bevel;stroke-miterlimit:4.2667;}
	.st70{fill:#EFEEEA;stroke:#CCCCCC;stroke-width:0.1872;stroke-linejoin:bevel;stroke-miterlimit:4.2667;}
	.st71{fill:#FFFFFF;stroke:#CCCCCC;stroke-width:0.1872;stroke-linejoin:bevel;stroke-miterlimit:4.2667;}
	.st72{fill:#FFD242;stroke:#CCCCCC;stroke-width:0.1872;stroke-linejoin:bevel;stroke-miterlimit:4.2667;}
	.st73{fill:#FFC91D;stroke:#CCCCCC;stroke-width:0.1872;stroke-linejoin:bevel;stroke-miterlimit:4.2667;}
	.st74{fill:#3775A9;stroke:#CCCCCC;stroke-width:0.1872;stroke-linejoin:bevel;stroke-miterlimit:4.2667;}
	.st75{fill:#2F6491;stroke:#CCCCCC;stroke-width:0.1872;stroke-linejoin:bevel;stroke-miterlimit:4.2667;}
	.st76{fill-rule:evenodd;clip-rule:evenodd;fill:#004880;}
	.st77{filter:url(#Adobe_OpacityMaskFilter_1_);}
	.st78{mask:url(#mask-2_2_);fill-rule:evenodd;clip-rule:evenodd;fill:#004880;}
	.st79{fill:#CB3837;}
	.st80{fill-rule:evenodd;clip-rule:evenodd;fill:#24292F;}
	.st81{fill:#089CE7;}
	.st82{fill:#41BF47;}
	.st83{fill:#A0A0A0;}
	.st84{fill:#326CE5;}
	.st85{fill:#FFFFFF;stroke:#FFFFFF;stroke-width:2.640921e-02;}
	.st86{fill:#0D80D8;}
	.st87{fill-rule:evenodd;clip-rule:evenodd;fill:#D33833;}
	.st88{fill:#EF3D3A;}
	.st89{fill:#231F20;}
	.st90{fill-rule:evenodd;clip-rule:evenodd;fill:#F0D6B7;}
	.st91{fill-rule:evenodd;clip-rule:evenodd;fill:#335061;}
	.st92{fill-rule:evenodd;clip-rule:evenodd;fill:#6D6B6D;}
	.st93{fill-rule:evenodd;clip-rule:evenodd;fill:#DCD9D8;}
	.st94{fill-rule:evenodd;clip-rule:evenodd;fill:#F7E4CD;}
	.st95{fill:#F7E4CD;}
	.st96{fill-rule:evenodd;clip-rule:evenodd;fill:#49728B;}
	.st97{fill:none;stroke:#D33833;stroke-width:0.7283;stroke-miterlimit:5;}
	.st98{fill-rule:evenodd;clip-rule:evenodd;fill:#EF3D3A;}
	.st99{fill-rule:evenodd;clip-rule:evenodd;fill:#231F20;}
	.st100{fill-rule:evenodd;clip-rule:evenodd;fill:#81B0C4;}
	.st101{fill-rule:evenodd;clip-rule:evenodd;fill:#1D1919;}
	.st102{fill:#161616;}
	.st103{fill:#4285F4;}
	.st104{fill:#669DF6;}
	.st105{fill:#AECBFA;}
	.st106{fill:url(#SVGID_27_);}
	.st107{fill:url(#SVGID_28_);}
	.st108{fill:url(#SVGID_29_);}
	.st109{fill:url(#SVGID_30_);}
	.st110{fill:url(#SVGID_31_);}
	.st111{fill:url(#SVGID_32_);}
	.st112{fill:#CB3349;}
	.st113{fill:#F4EDAE;}
	.st114{fill:#E6CCAD;}
	.st115{fill:#656C67;}
	.st116{fill:#E5CAA3;}
	.st117{fill:#C7B39A;}
	.st118{fill:#EBD599;}
	.st119{fill:#2D3136;}
	.st120{fill:#EDF6FA;}
	.st121{opacity:0.8;fill:#EBD599;enable-background:new    ;}
	.st122{opacity:0.75;fill:#EBD599;enable-background:new    ;}
	.st123{fill:#C1D2F7;}
	.st124{fill:none;}
	.st125{fill:#4B612C;}
	.st126{fill:#759C3E;}
	.st127{fill:#3C4929;}
	.st128{fill:#B7CA9D;}
	.st129{fill:#E24329;}
	.st130{fill:#FCA326;}
	.st131{fill:#FC6D26;}
	.st132{fill:url(#SVGID_33_);}
	.st133{fill:#2EB99B;}
	.st134{fill:#4E555D;}
	.st135{fill:#2684FF;}
	.st136{fill:url(#SVGID_34_);}
	.st137{fill:url(#SVGID_35_);}
	.st138{fill-rule:evenodd;clip-rule:evenodd;fill:#4B612C;}
	.st139{fill-rule:evenodd;clip-rule:evenodd;fill:#759C3E;}
	.st140{fill-rule:evenodd;clip-rule:evenodd;fill:#3C4929;}
	.st141{fill-rule:evenodd;clip-rule:evenodd;fill:#B7CA9D;}
	.st142{fill:#F26E7E;}
	.st143{fill:#8A3391;}
	.st144{fill:#F7BF2A;}
	.st145{fill:#7682F4;}
	.st146{fill:#FFFFFF;stroke:#FFFFFF;stroke-width:2.715649e-02;}
	.st147{fill:none;stroke:#A0A0A0;stroke-width:3;stroke-miterlimit:10;}
	.st148{fill:#0F1689;}
	.st149{fill:#9F97AF;}
	.st150{fill:#F4F4F9;}
	.st151{fill-rule:evenodd;clip-rule:evenodd;fill:#F26E7E;}
	.st152{fill-rule:evenodd;clip-rule:evenodd;fill:#8A3391;}
	.st153{fill-rule:evenodd;clip-rule:evenodd;fill:#F7BF2A;}
	.st154{fill:#DADAE5;}
	.st155{fill:none;stroke:#DADAE5;stroke-width:1.1567;stroke-miterlimit:10;}
	.st156{opacity:0.5;fill:#D9EAF9;}
	.st157{fill:#AAB6F9;}
	.st158{fill:none;stroke:#805AC3;stroke-width:7.4756;stroke-miterlimit:10;}
	.st159{fill-rule:evenodd;clip-rule:evenodd;fill:#009BCB;}
	.st160{fill-rule:evenodd;clip-rule:evenodd;fill:#28B6DD;}
	.st161{fill-rule:evenodd;clip-rule:evenodd;fill:#0078D7;}
	.st162{fill-rule:evenodd;clip-rule:evenodd;fill:#9FDBEE;}
	.st163{fill-rule:evenodd;clip-rule:evenodd;fill:#7A7A7A;}
	.st164{fill:#FFFFFF;stroke:#FFFFFF;stroke-width:2.107166e-02;}
	.st165{clip-path:url(#SVGID_37_);}
	.st166{clip-path:url(#SVGID_39_);}
	.st167{fill-rule:evenodd;clip-rule:evenodd;fill:#7B42BC;}
	.st168{clip-path:url(#SVGID_43_);}
	.st169{fill:url(#SVGID_44_);}
	.st170{fill:url(#SVGID_45_);}
	.st171{opacity:0.4438;fill:url(#SVGID_46_);enable-background:new    ;}
	.st172{fill:url(#SVGID_47_);}
	.st173{fill:#0078D4;}
	.st174{fill:url(#SVGID_48_);}
	.st175{fill:url(#SVGID_49_);}
	.st176{fill:#EA4335;}
	.st177{fill:#34A853;}
	.st178{fill:#FBBC05;}
	.st179{fill:#252F3E;}
	.st180{fill:#F7981D;}
	.st181{fill:#FFFFFF;stroke:#FFFFFF;stroke-width:2.281973e-02;}
	.st182{fill:#805AC3;stroke:#F4F4F9;stroke-width:1.9136;stroke-miterlimit:10;}
	.st183{font-family:'Gilroy-Medium';}
	.st184{font-size:30.617px;}
</style>
<g id="A_2_">
</g>
<g>
	
		<linearGradient id="SVGID_2_" gradientUnits="userSpaceOnUse" x1="-2016.402" y1="447.9651" x2="-2028.7684" y2="484.4985" gradientTransform="matrix(1.5625 0 0 1.5625 3446.5 -691.1875)">
		<stop  offset="0" style="stop-color:#114A8B"/>
		<stop  offset="1" style="stop-color:#0669BC"/>
	</linearGradient>
	<path class="st0" d="M289.1,4.4h18.6l-19.3,57.2c-0.4,1.2-1.5,2-2.8,2h-14.5c-1.6,0-3-1.3-3-3c0-0.3,0.1-0.6,0.2-0.9l18-53.3
		C286.7,5.2,287.8,4.4,289.1,4.4L289.1,4.4z"/>
	<path class="st173" d="M316.1,42.8h-29.5c-0.8,0-1.4,0.6-1.4,1.4c0,0.4,0.2,0.7,0.4,1l19,17.7c0.6,0.5,1.3,0.8,2,0.8h16.7
		L316.1,42.8z"/>
	
		<linearGradient id="SVGID_4_" gradientUnits="userSpaceOnUse" x1="-2012.5392" y1="464.9901" x2="-2015.3997" y2="465.9574" gradientTransform="matrix(1.5625 0 0 1.5625 3446.5 -691.1875)">
		<stop  offset="0" style="stop-color:#000000;stop-opacity:0.3"/>
		<stop  offset="7.100000e-02" style="stop-color:#000000;stop-opacity:0.2"/>
		<stop  offset="0.321" style="stop-color:#000000;stop-opacity:0.1"/>
		<stop  offset="0.623" style="stop-color:#000000;stop-opacity:5.000000e-02"/>
		<stop  offset="1" style="stop-color:#000000;stop-opacity:0"/>
	</linearGradient>
	<path style="fill:url(#SVGID_4_);" d="M289.1,4.4c-1.3,0-2.4,0.8-2.8,2.1l-18,53.2c-0.6,1.5,0.2,3.2,1.8,3.8c0.3,0.1,0.7,0.2,1,0.2
		H286c1.1-0.2,2.1-1,2.4-2.1L292,51l12.8,11.9c0.5,0.4,1.2,0.7,1.9,0.7h16.6L316,42.8l-21.3,0l13-38.4H289.1z"/>
	
		<linearGradient id="SVGID_5_" gradientUnits="userSpaceOnUse" x1="-2014.0233" y1="446.8663" x2="-2000.4487" y2="483.0315" gradientTransform="matrix(1.5625 0 0 1.5625 3446.5 -691.1875)">
		<stop  offset="0" style="stop-color:#3CCBF4"/>
		<stop  offset="1" style="stop-color:#2892DF"/>
	</linearGradient>
	<path class="st12" d="M312.9,6.4c-0.4-1.2-1.5-2-2.8-2h-20.7c1.3,0,2.4,0.8,2.8,2l18,53.3c0.5,1.6-0.3,3.2-1.9,3.8
		c-0.3,0.1-0.6,0.2-0.9,0.2H328c1.6,0,3-1.3,3-3c0-0.3-0.1-0.6-0.2-0.9L312.9,6.4z"/>
</g>
<g>
	<path class="st176" d="M311.1,279.2l6.1-6.1l0.4-2.6c-11.1-10.1-28.7-8.9-38.7,2.4c-2.8,3.1-4.8,7.1-5.9,11.1l2.2-0.3l12.2-2l0.9-1
		c5.4-6,14.6-6.8,20.8-1.7L311.1,279.2z"/>
	<path class="st103" d="M325.9,283.9c-1.4-5.2-4.3-9.8-8.3-13.3l-8.5,8.5c3.6,2.9,5.7,7.4,5.6,12v1.5c4.2,0,7.6,3.4,7.6,7.6
		s-3.4,7.5-7.6,7.5h-15.2l-1.5,1.6v9.1l1.5,1.4h15.2c10.9,0.1,19.9-8.6,19.9-19.5C334.6,293.8,331.4,287.6,325.9,283.9"/>
	<path class="st177" d="M284.2,320h15.2v-12.2h-15.2c-1.1,0-2.1-0.2-3.1-0.7l-2.2,0.7l-6.1,6.1l-0.5,2.1
		C275.7,318.6,279.9,320,284.2,320"/>
	<path class="st178" d="M284.2,280.5c-10.9,0.1-19.7,9-19.7,19.9c0,6.1,2.9,11.8,7.7,15.6l8.8-8.8c-3.8-1.7-5.5-6.2-3.8-10.1
		s6.2-5.5,10.1-3.8c1.7,0.8,3,2.1,3.8,3.8l8.8-8.8C296.2,283.3,290.4,280.5,284.2,280.5"/>
</g>
<g>
	<g>
		<path class="st179" d="M171,164.3c0.7,0.5,1.8,0.8,3.2,1.1c1.4,0.4,2.8,0.5,4.3,0.5s2.7-0.2,3.9-0.5c1.2-0.4,2.2-0.9,3.1-1.5
			c0.8-0.6,1.5-1.4,2-2.4c0.5-1,0.7-2,0.7-3.3c0-1.4-0.5-2.7-1.3-3.9c-0.8-1.1-2.3-2-4.3-2.6l-3.9-1.3c-1.4-0.5-2.5-1-3.1-1.5
			c-0.5-0.5-0.8-1.2-0.8-2c0-1.1,0.5-2,1.3-2.4c0.9-0.5,2.1-0.8,3.7-0.8c2,0,3.7,0.4,5.3,1.1c0.5,0.2,0.8,0.4,1.1,0.4
			c0.5,0,0.6-0.3,0.6-0.9V143c0-0.4-0.1-0.7-0.3-0.9c-0.2-0.3-0.5-0.5-0.8-0.7c-0.3-0.2-0.7-0.4-1.2-0.5c-0.5-0.2-1-0.3-1.5-0.5
			c-0.5-0.1-1.2-0.3-1.8-0.3c-0.6-0.2-1.3-0.2-1.9-0.2c-1.3,0-2.4,0.2-3.4,0.5c-1.1,0.4-2.1,0.8-2.9,1.4c-0.8,0.6-1.4,1.4-2,2.3
			c-0.5,0.9-0.7,1.9-0.7,3.1c0,1.4,0.5,2.8,1.4,4c0.9,1.3,2.4,2.2,4.4,2.8l4,1.3c1.4,0.5,2.3,0.9,2.8,1.4c0.5,0.5,0.7,1.2,0.7,1.9
			c0,1.1-0.5,2-1.4,2.6c-1,0.6-2.3,0.9-4.1,0.9c-1.1,0-2.2-0.1-3.3-0.4c-1.1-0.2-2.1-0.5-3.1-1c-0.3-0.1-0.5-0.2-0.7-0.3
			c-0.2-0.1-0.4-0.1-0.5-0.1c-0.5,0-0.6,0.3-0.6,0.9v1.4c0,0.3,0.1,0.5,0.2,0.8C170.3,163.9,170.6,164.1,171,164.3L171,164.3z"/>
		<path class="st179" d="M124.2,150.9c-1-0.2-2-0.2-2.9-0.2c-2.8,0-5.1,0.7-6.8,2.2c-1.7,1.4-2.5,3.4-2.5,5.7c0,2.3,0.6,4,2,5.3
			c1.4,1.4,3.2,2,5.5,2c3.3,0,6-1.3,8.2-3.8c0.3,0.6,0.5,1.2,0.8,1.6c0.3,0.5,0.6,0.9,1,1.3c0.3,0.3,0.5,0.4,0.8,0.4
			c0.2,0,0.5-0.1,0.7-0.3l1.7-1.2c0.4-0.3,0.5-0.5,0.5-0.8c0-0.2-0.1-0.4-0.2-0.6c-0.4-0.7-0.7-1.4-0.9-2c-0.2-0.6-0.3-1.4-0.3-2.4
			V149c0-3-0.7-5.3-2.3-6.8c-1.5-1.5-3.9-2.3-7.2-2.3c-1.5,0-3,0.2-4.3,0.5c-1.3,0.4-2.4,0.7-3.4,1.3c-0.4,0.2-0.6,0.4-0.7,0.5
			c-0.2,0.2-0.2,0.5-0.2,1v1.4c0,0.5,0.2,0.9,0.5,0.9c0.1,0,0.3,0,0.5-0.1c0.2-0.1,0.5-0.2,1-0.4c1-0.4,2-0.7,3-0.9
			c1-0.3,2-0.4,3-0.4c2.2,0,3.6,0.5,4.5,1.3c0.9,0.8,1.3,2.4,1.3,4.4v2C126.3,151.3,125.3,151.1,124.2,150.9L124.2,150.9z
			 M127.3,155.8c0,0.9-0.1,1.7-0.3,2.4c-0.2,0.6-0.5,1.3-0.9,1.7c-0.7,0.8-1.6,1.4-2.6,1.7c-1,0.4-2,0.5-2.9,0.5
			c-1.3,0-2.3-0.4-2.9-1c-0.6-0.6-1-1.6-1-2.9c0-1.4,0.5-2.4,1.4-3.2c0.9-0.7,2.3-1.1,4.1-1.1c0.8,0,1.7,0.1,2.6,0.2
			c0.9,0.1,1.7,0.3,2.5,0.5V155.8L127.3,155.8z"/>
		<g>
			<path class="st179" d="M141.3,163.9c0.2,0.5,0.4,0.9,0.5,1.1c0.2,0.2,0.5,0.3,1.1,0.3h2.4c0.5,0,0.9-0.1,1.1-0.3
				c0.2-0.2,0.4-0.5,0.5-1.1l4.3-17.8l4.3,17.8c0.1,0.5,0.3,0.9,0.5,1.1c0.2,0.2,0.6,0.3,1.1,0.3h2.4c0.5,0,0.8-0.1,1.1-0.3
				c0.2-0.2,0.5-0.5,0.5-1.1l6.7-21.4c0.1-0.3,0.2-0.5,0.2-0.6c0-0.2,0.1-0.3,0.1-0.5c0-0.5-0.2-0.6-0.6-0.6h-2.5
				c-0.5,0-0.9,0.1-1.1,0.3c-0.2,0.2-0.4,0.5-0.5,1.1l-4.8,18.6l-4.4-18.7c-0.1-0.5-0.3-0.9-0.5-1.1c-0.2-0.2-0.6-0.3-1.1-0.3h-2.3
				c-0.5,0-0.9,0.1-1.1,0.3c-0.2,0.2-0.4,0.5-0.5,1.1l-4.3,18.3l-4.6-18.3c-0.2-0.5-0.4-0.9-0.5-1.1c-0.2-0.2-0.5-0.3-1.1-0.3h-2.7
				c-0.5,0-0.6,0.2-0.6,0.6c0,0.2,0.1,0.5,0.3,1.1L141.3,163.9L141.3,163.9z"/>
			<path class="st180" d="M182.3,177.3c-10.1,4.3-21.3,6.4-31.3,6.4c-14.9,0-29.4-4.1-41.1-11c-1-0.6-1.8,0.5-0.9,1.3
				c10.9,9.8,25.2,15.7,41.1,15.7c11.3,0,24.6-3.5,33.7-10.3C185.1,178.3,183.9,176.7,182.3,177.3L182.3,177.3z"/>
		</g>
		<path class="st180" d="M176.6,173.5c-0.8,0.5-0.6,1.4,0.2,1.3c2.9-0.4,9.5-1.2,10.6,0.4c1.2,1.4-1.3,7.6-2.4,10.4
			c-0.4,0.8,0.4,1.2,1.2,0.5c4.9-4.1,6.2-12.7,5.2-13.9C190.4,170.9,181.8,169.9,176.6,173.5L176.6,173.5z"/>
	</g>
	<g id="layer1_2_" transform="translate(-6.3260942,-174.7524)">
		<g id="g3052_1_">
			<path id="path3055_1_" class="st84" d="M445.5,302.7c-0.6,0-1.1,0.2-1.6,0.4l-22.3,10.7c-1.2,0.6-2,1.6-2.3,2.9l-5.5,23.9
				c-0.3,1.1,0,2.3,0.6,3.2c0.1,0.1,0.2,0.2,0.2,0.3l15.4,19.2c0.8,1,2,1.6,3.3,1.6l24.8,0c1.3,0,2.5-0.6,3.3-1.6l15.4-19.2
				c0.8-1,1.1-2.3,0.8-3.6l-5.5-23.9c-0.3-1.3-1.1-2.3-2.3-2.9l-22.3-10.7C446.9,302.8,446.2,302.7,445.5,302.7z"/>
			<path id="path3059_1_" class="st181" d="M445.7,310.9c-0.7,0-1.3,0.7-1.3,1.5c0,0,0,0,0,0c0,0.1,0,0.2,0,0.3
				c0,0.5,0.1,0.8,0.2,1.3c0.1,0.9,0.2,1.7,0.1,2.4c-0.1,0.3-0.3,0.5-0.4,0.7l0,0.6c-0.8,0.1-1.6,0.2-2.4,0.4
				c-3.5,0.8-6.5,2.6-8.7,5c-0.1-0.1-0.4-0.3-0.5-0.3c-0.2,0-0.5,0.1-0.8-0.1c-0.6-0.4-1.1-1-1.8-1.6c-0.3-0.3-0.5-0.6-0.9-0.9
				c-0.1-0.1-0.2-0.2-0.3-0.2c-0.3-0.2-0.6-0.3-0.9-0.4c-0.4,0-0.8,0.1-1.1,0.5c-0.5,0.6-0.3,1.5,0.3,2c0,0,0,0,0,0
				c0.1,0.1,0.2,0.2,0.3,0.2c0.4,0.3,0.7,0.4,1.1,0.6c0.8,0.5,1.5,0.9,2,1.4c0.2,0.2,0.2,0.6,0.3,0.8l0.4,0.4
				c-2.3,3.4-3.4,7.7-2.7,12l-0.6,0.2c-0.1,0.2-0.4,0.5-0.6,0.6c-0.7,0.2-1.5,0.3-2.4,0.4c-0.4,0-0.8,0-1.3,0.1
				c-0.1,0-0.2,0.1-0.4,0.1c0,0,0,0,0,0c0,0,0,0,0,0c-0.8,0.2-1.3,0.9-1.1,1.6c0.2,0.7,0.9,1.1,1.7,1c0,0,0,0,0,0c0,0,0,0,0,0
				c0.1,0,0.2-0.1,0.3-0.1c0.5-0.1,0.8-0.3,1.2-0.5c0.9-0.3,1.6-0.6,2.3-0.7c0.3,0,0.6,0.2,0.8,0.3l0.6-0.1c1.3,4.2,4.1,7.5,7.7,9.6
				l-0.2,0.6c0.1,0.2,0.2,0.5,0.1,0.8c-0.3,0.7-0.7,1.4-1.2,2.2c-0.2,0.4-0.5,0.6-0.7,1.1c-0.1,0.1-0.1,0.3-0.2,0.4
				c-0.3,0.7-0.1,1.6,0.6,1.9c0.7,0.3,1.5,0,1.8-0.8c0,0,0,0,0,0c0,0,0,0,0,0c0.1-0.1,0.1-0.2,0.2-0.3c0.2-0.4,0.3-0.8,0.4-1.2
				c0.4-0.9,0.5-1.8,1-2.4c0.1-0.2,0.4-0.2,0.6-0.3l0.3-0.5c3.1,1.2,6.6,1.5,10,0.7c0.8-0.2,1.6-0.4,2.3-0.7
				c0.1,0.2,0.2,0.4,0.3,0.5c0.2,0.1,0.5,0.1,0.7,0.4c0.4,0.6,0.6,1.4,0.9,2.2c0.1,0.4,0.2,0.8,0.4,1.2c0,0.1,0.1,0.2,0.2,0.3
				c0.4,0.7,1.2,1.1,1.8,0.8c0.7-0.3,0.9-1.2,0.6-1.9c-0.1-0.1-0.1-0.3-0.2-0.4c-0.2-0.4-0.5-0.7-0.7-1.1c-0.5-0.8-0.9-1.4-1.2-2.1
				c-0.1-0.3,0-0.6,0.1-0.8c-0.1-0.1-0.2-0.4-0.2-0.5c3.7-2.2,6.4-5.7,7.7-9.7c0.2,0,0.5,0.1,0.6,0.1c0.2-0.1,0.4-0.3,0.7-0.3
				c0.7,0.1,1.4,0.4,2.3,0.7c0.4,0.2,0.7,0.3,1.2,0.5c0.1,0,0.2,0,0.3,0.1c0,0,0,0,0,0c0,0,0,0,0,0c0.8,0.2,1.6-0.3,1.7-1
				c0.2-0.7-0.3-1.4-1.1-1.6c-0.1,0-0.3-0.1-0.4-0.1c-0.5-0.1-0.8-0.1-1.3-0.1c-0.9-0.1-1.7-0.2-2.4-0.4c-0.3-0.1-0.5-0.4-0.6-0.6
				l-0.5-0.2c0.3-2,0.2-4.1-0.3-6.2c-0.5-2.1-1.4-4.1-2.5-5.8c0.1-0.1,0.4-0.4,0.5-0.4c0-0.2,0-0.5,0.3-0.8c0.5-0.5,1.2-0.9,2-1.4
				c0.4-0.2,0.7-0.4,1.1-0.6c0.1-0.1,0.2-0.2,0.3-0.2c0.6-0.5,0.8-1.4,0.3-2c-0.5-0.6-1.4-0.6-2-0.1c-0.1,0.1-0.2,0.2-0.3,0.2
				c-0.4,0.3-0.6,0.6-0.9,0.9c-0.7,0.7-1.2,1.2-1.8,1.6c-0.3,0.2-0.6,0.1-0.8,0.1l-0.5,0.4c-2.9-3-6.8-5-11.1-5.4c0-0.2,0-0.5,0-0.6
				c-0.2-0.2-0.4-0.3-0.4-0.7c-0.1-0.7,0-1.5,0.2-2.4c0.1-0.4,0.2-0.8,0.2-1.3c0-0.1,0-0.3,0-0.4C447,311.5,446.4,310.9,445.7,310.9
				L445.7,310.9z M444,321.2l-0.4,7l0,0c0,0.6-0.5,1.1-1.2,1.1c-0.3,0-0.5-0.1-0.7-0.2l0,0l-5.7-4.1c1.8-1.7,4-3,6.6-3.6
				C443.1,321.4,443.5,321.3,444,321.2z M447.4,321.2c3,0.4,5.8,1.7,8,3.9l-5.7,4l0,0c-0.5,0.4-1.2,0.3-1.6-0.2
				c-0.2-0.2-0.2-0.4-0.3-0.7l0,0L447.4,321.2z M433.9,327.7l5.2,4.7l0,0c0.5,0.4,0.5,1.1,0.1,1.6c-0.2,0.2-0.4,0.3-0.6,0.4l0,0
				l-6.7,1.9C431.6,333.3,432.3,330.2,433.9,327.7z M457.4,327.7c0.8,1.3,1.4,2.7,1.7,4.2c0.3,1.5,0.4,3,0.3,4.5l-6.8-1.9l0,0
				c-0.6-0.2-1-0.8-0.8-1.4c0.1-0.3,0.2-0.5,0.4-0.6l0,0L457.4,327.7L457.4,327.7z M444.6,332.7h2.1l1.3,1.7l-0.5,2.1l-1.9,0.9
				l-1.9-0.9l-0.5-2.1L444.6,332.7z M451.5,338.5c0.1,0,0.2,0,0.3,0l0,0l7,1.2c-1,2.9-3,5.3-5.6,7l-2.7-6.5l0,0
				c-0.2-0.6,0-1.3,0.6-1.5C451.2,338.5,451.3,338.5,451.5,338.5L451.5,338.5z M439.8,338.5c0.5,0,1,0.4,1.1,0.9
				c0.1,0.3,0,0.5-0.1,0.7l0,0l-2.7,6.5c-2.5-1.6-4.5-4-5.5-6.9l6.9-1.2l0,0C439.7,338.5,439.7,338.5,439.8,338.5L439.8,338.5z
				 M445.6,341.3c0.2,0,0.4,0,0.6,0.1c0.2,0.1,0.4,0.3,0.5,0.5h0l3.4,6.1c-0.4,0.1-0.9,0.3-1.4,0.4c-2.6,0.6-5.2,0.4-7.5-0.4
				l3.4-6.1h0C444.9,341.6,445.2,341.3,445.6,341.3z"/>
		</g>
	</g>
</g>
<g>
	<g>
		<circle class="st150" cx="299.6" cy="163.9" r="75.6"/>
		<g>
			<path class="st182" d="M242.9,189.4l-5.4,1.6l3.7-18.3l14,13.2l-5.2,1.5c9.1,19.2,28.3,31.3,49.5,31.3
				c30.2,0,54.8-24.5,54.8-54.8h7.3c0,34.3-27.8,62.1-62.1,62.1C275.1,226,253,211.6,242.9,189.4L242.9,189.4z"/>
			<path class="st182" d="M354.2,134.4l5.4-2.4l-2.5,18.5l-15.1-10.6l5.5-2.4c-9.7-17.5-28-28.2-48-28.2
				c-30.2,0-54.8,24.5-54.8,54.8h-7.3c0-34.3,27.8-62.1,62.1-62.1C322.4,101.8,343.3,114.3,354.2,134.4L354.2,134.4z"/>
		</g>
	</g>
	<rect x="235" y="153.4" class="st124" width="133.9" height="35.4"/>
	<text transform="matrix(1 0 0 1 266.4199 174.8423)"><tspan x="0" y="0" class="st83 st183 st184">10</tspan><tspan x="30.2" y="0" class="st83 st183 st184">0</tspan><tspan x="48.9" y="0" class="st83 st183 st184">%</tspan></text>
</g>
</svg>
