<?xml version="1.0" encoding="utf-8"?>
<!-- Generator: Adobe Illustrator 24.2.1, SVG Export Plug-In . SVG Version: 6.00 Build 0)  -->
<svg version="1.1" id="Layer_1" xmlns="http://www.w3.org/2000/svg" xmlns:xlink="http://www.w3.org/1999/xlink" x="0px" y="0px"
	 viewBox="0 0 600 325" style="enable-background:new 0 0 600 325;" xml:space="preserve">
<style type="text/css">
	.st0{fill:#689F63;}
	.st1{fill-rule:evenodd;clip-rule:evenodd;fill:#333333;}
	.st2{fill-rule:evenodd;clip-rule:evenodd;fill:#689F63;}
	.st3{clip-path:url(#SVGID_3_);}
	.st4{fill:url(#SVGID_4_);}
	.st5{clip-path:url(#SVGID_6_);}
	.st6{fill:url(#SVGID_7_);}
	.st7{clip-path:url(#SVGID_9_);}
	.st8{fill:url(#SVGID_10_);}
	.st9{fill:#3178C6;}
	.st10{fill-rule:evenodd;clip-rule:evenodd;fill:#FFFFFF;}
	.st11{fill:#F7DF1E;}
	.st12{fill:#00ACD7;}
	.st13{clip-path:url(#SVGID_12_);}
	.st14{fill:#5582A1;}
	.st15{fill:#F49734;}
	.st16{fill:#646464;}
	.st17{fill:url(#SVGID_13_);}
	.st18{fill:url(#SVGID_14_);}
	.st19{opacity:0.4438;fill:url(#SVGID_15_);enable-background:new    ;}
	.st20{fill:#5C2D91;}
	.st21{opacity:0.1;fill:#FFFFFF;enable-background:new    ;}
	.st22{fill:#FFFFFF;}
	.st23{fill:#F2F2F2;}
	.st24{fill:#004E8C;}
	.st25{fill:#05930C;}
	.st26{fill:#802D8E;}
	.st27{fill:#721581;}
	.st28{fill:#FDFDFD;}
	.st29{fill:#CB171E;}
	.st30{fill:#00B352;}
	.st31{fill:none;stroke:#FFFFFF;stroke-width:2.0449;stroke-linecap:round;}
	
		.st32{opacity:0.405;fill:#211F46;fill-opacity:0.996;stroke:#0A0B1B;stroke-width:1.518;stroke-miterlimit:4.107;enable-background:new    ;}
	.st33{fill:url(#SVGID_16_);stroke:url(#SVGID_17_);stroke-width:2.4044;stroke-miterlimit:4.1617;}
	.st34{fill:url(#SVGID_18_);}
	.st35{fill:url(#SVGID_19_);}
	.st36{fill:url(#SVGID_20_);}
	.st37{fill:url(#SVGID_21_);}
	.st38{fill:url(#SVGID_22_);}
	.st39{fill:url(#SVGID_23_);}
	.st40{fill:url(#SVGID_24_);}
	.st41{fill:url(#SVGID_25_);}
	.st42{fill:url(#SVGID_26_);}
	.st43{fill-rule:evenodd;clip-rule:evenodd;fill:#FFFFFF;filter:url(#Adobe_OpacityMaskFilter);}
	.st44{mask:url(#mask0_2_);}
	.st45{fill:#0065A9;}
	.st46{fill:#007ACC;}
	.st47{fill:#1F9CF0;}
	.st48{opacity:0.25;}
	.st49{fill-rule:evenodd;clip-rule:evenodd;fill:url(#SVGID_27_);}
	.st50{fill:#2C2255;}
	.st51{fill:#F7941E;}
	.st52{fill:url(#SVGID_28_);}
	.st53{fill:url(#SVGID_29_);}
	.st54{fill:url(#SVGID_30_);}
	.st55{fill:#019833;stroke:#000000;stroke-width:0.1342;}
	.st56{fill:#66FE98;stroke:#000000;stroke-width:0.1342;}
	.st57{fill:#45FE02;stroke:#000000;stroke-width:0.1342;}
	.st58{fill:#017D17;stroke:#000000;stroke-width:0.1342;}
	.st59{fill:none;stroke:#000000;stroke-width:2.6832;}
	.st60{fill:#005D04;stroke:#000000;stroke-width:0.1342;}
	.st61{fill:none;stroke:#000000;stroke-width:0.805;}
	.st62{fill:#FEFEFE;stroke:#000000;stroke-width:0.1342;}
	.st63{fill:none;stroke:#000000;stroke-width:0.1419;}
	.st64{fill:#808080;stroke:#000000;stroke-width:0.1342;}
	.st65{fill:#CCCCCC;stroke:#000000;stroke-width:0.1419;}
	.st66{fill:#CCCCCC;stroke:#000000;stroke-width:1.1349;stroke-miterlimit:10;}
	.st67{fill:#CCCCCC;stroke:#000000;stroke-width:0.1419;stroke-miterlimit:10;}
	.st68{fill:#02303A;}
	.st69{fill-rule:evenodd;clip-rule:evenodd;fill:#8D6748;}
	.st70{fill:#040707;}
	.st71{fill-rule:evenodd;clip-rule:evenodd;fill:#F96216;}
	.st72{fill-rule:evenodd;clip-rule:evenodd;fill:#B200F8;}
	.st73{fill-rule:evenodd;clip-rule:evenodd;fill:#00B4F2;}
	.st74{fill:#F7F7F4;stroke:#CCCCCC;stroke-width:0.1872;stroke-linejoin:bevel;stroke-miterlimit:4.2667;}
	.st75{fill:#EFEEEA;stroke:#CCCCCC;stroke-width:0.1872;stroke-linejoin:bevel;stroke-miterlimit:4.2667;}
	.st76{fill:#FFFFFF;stroke:#CCCCCC;stroke-width:0.1872;stroke-linejoin:bevel;stroke-miterlimit:4.2667;}
	.st77{fill:#FFD242;stroke:#CCCCCC;stroke-width:0.1872;stroke-linejoin:bevel;stroke-miterlimit:4.2667;}
	.st78{fill:#FFC91D;stroke:#CCCCCC;stroke-width:0.1872;stroke-linejoin:bevel;stroke-miterlimit:4.2667;}
	.st79{fill:#3775A9;stroke:#CCCCCC;stroke-width:0.1872;stroke-linejoin:bevel;stroke-miterlimit:4.2667;}
	.st80{fill:#2F6491;stroke:#CCCCCC;stroke-width:0.1872;stroke-linejoin:bevel;stroke-miterlimit:4.2667;}
	.st81{fill-rule:evenodd;clip-rule:evenodd;fill:#004880;}
	.st82{filter:url(#Adobe_OpacityMaskFilter_1_);}
	.st83{mask:url(#mask-2_2_);fill-rule:evenodd;clip-rule:evenodd;fill:#004880;}
	.st84{fill:#CB3837;}
	.st85{fill-rule:evenodd;clip-rule:evenodd;fill:#24292F;}
	.st86{fill:#089CE7;}
	.st87{fill:#41BF47;}
	.st88{fill:#A0A0A0;}
	.st89{fill:#326CE5;}
	.st90{fill:#FFFFFF;stroke:#FFFFFF;stroke-width:2.640921e-02;}
	.st91{fill:#0D80D8;}
	.st92{fill-rule:evenodd;clip-rule:evenodd;fill:#D33833;}
	.st93{fill:#EF3D3A;}
	.st94{fill:#231F20;}
	.st95{fill-rule:evenodd;clip-rule:evenodd;fill:#F0D6B7;}
	.st96{fill-rule:evenodd;clip-rule:evenodd;fill:#335061;}
	.st97{fill-rule:evenodd;clip-rule:evenodd;fill:#6D6B6D;}
	.st98{fill-rule:evenodd;clip-rule:evenodd;fill:#DCD9D8;}
	.st99{fill-rule:evenodd;clip-rule:evenodd;fill:#F7E4CD;}
	.st100{fill:#F7E4CD;}
	.st101{fill-rule:evenodd;clip-rule:evenodd;fill:#49728B;}
	.st102{fill:none;stroke:#D33833;stroke-width:0.7283;stroke-miterlimit:5;}
	.st103{fill-rule:evenodd;clip-rule:evenodd;fill:#EF3D3A;}
	.st104{fill-rule:evenodd;clip-rule:evenodd;fill:#231F20;}
	.st105{fill-rule:evenodd;clip-rule:evenodd;fill:#81B0C4;}
	.st106{fill-rule:evenodd;clip-rule:evenodd;fill:#1D1919;}
	.st107{fill:#161616;}
	.st108{fill:#4285F4;}
	.st109{fill:#669DF6;}
	.st110{fill:#AECBFA;}
	.st111{fill:url(#SVGID_35_);}
	.st112{fill:url(#SVGID_36_);}
	.st113{fill:url(#SVGID_37_);}
	.st114{fill:url(#SVGID_38_);}
	.st115{fill:url(#SVGID_39_);}
	.st116{fill:url(#SVGID_40_);}
	.st117{fill:#CB3349;}
	.st118{fill:#F4EDAE;}
	.st119{fill:#E6CCAD;}
	.st120{fill:#656C67;}
	.st121{fill:#E5CAA3;}
	.st122{fill:#C7B39A;}
	.st123{fill:#EBD599;}
	.st124{fill:#2D3136;}
	.st125{fill:#EDF6FA;}
	.st126{opacity:0.8;fill:#EBD599;enable-background:new    ;}
	.st127{opacity:0.75;fill:#EBD599;enable-background:new    ;}
	.st128{fill:#C1D2F7;}
	.st129{fill:none;}
	.st130{fill:#4B612C;}
	.st131{fill:#759C3E;}
	.st132{fill:#3C4929;}
	.st133{fill:#B7CA9D;}
	.st134{fill:#E24329;}
	.st135{fill:#FCA326;}
	.st136{fill:#FC6D26;}
	.st137{fill:url(#SVGID_41_);}
	.st138{fill:#2EB99B;}
	.st139{fill:#4E555D;}
	.st140{fill:#2684FF;}
	.st141{fill:url(#SVGID_42_);}
	.st142{fill:url(#SVGID_43_);}
	.st143{fill-rule:evenodd;clip-rule:evenodd;fill:#4B612C;}
	.st144{fill-rule:evenodd;clip-rule:evenodd;fill:#759C3E;}
	.st145{fill-rule:evenodd;clip-rule:evenodd;fill:#3C4929;}
	.st146{fill-rule:evenodd;clip-rule:evenodd;fill:#B7CA9D;}
	.st147{fill:url(#SVGID_44_);}
	.st148{fill:#0078D4;}
	.st149{fill:url(#SVGID_45_);}
	.st150{fill:url(#SVGID_46_);}
	.st151{fill:#EA4335;}
	.st152{fill:#34A853;}
	.st153{fill:#FBBC05;}
	.st154{fill:#252F3E;}
	.st155{fill:#F7981D;}
	.st156{fill:#FFFFFF;stroke:#FFFFFF;stroke-width:2.385055e-02;}
	.st157{fill:#F4F4F9;}
	.st158{fill:#805AC3;stroke:#805AC3;stroke-width:1.6486;stroke-miterlimit:10;}
	.st159{fill:none;stroke:#A0A0A0;stroke-width:3;stroke-miterlimit:10;}
	.st160{fill:#F26E7E;}
	.st161{fill:#8A3391;}
	.st162{fill:#F7BF2A;}
	.st163{fill:#7682F4;}
	.st164{fill:#FFFFFF;stroke:#FFFFFF;stroke-width:2.715649e-02;}
	.st165{fill:#0F1689;}
	.st166{fill:#9F97AF;}
	.st167{fill-rule:evenodd;clip-rule:evenodd;fill:#F26E7E;}
	.st168{fill-rule:evenodd;clip-rule:evenodd;fill:#8A3391;}
	.st169{fill-rule:evenodd;clip-rule:evenodd;fill:#F7BF2A;}
	.st170{fill:#DADAE5;}
	.st171{fill:none;stroke:#DADAE5;stroke-width:1.1567;stroke-miterlimit:10;}
	.st172{opacity:0.5;fill:#D9EAF9;}
	.st173{fill:#AAB6F9;}
	.st174{fill:none;stroke:#805AC3;stroke-width:7.4756;stroke-miterlimit:10;}
	.st175{fill-rule:evenodd;clip-rule:evenodd;fill:#009BCB;}
	.st176{fill-rule:evenodd;clip-rule:evenodd;fill:#28B6DD;}
	.st177{fill-rule:evenodd;clip-rule:evenodd;fill:#0078D7;}
	.st178{fill-rule:evenodd;clip-rule:evenodd;fill:#9FDBEE;}
	.st179{fill-rule:evenodd;clip-rule:evenodd;fill:#7A7A7A;}
	.st180{fill:#FFFFFF;stroke:#FFFFFF;stroke-width:2.107166e-02;}
	.st181{clip-path:url(#SVGID_48_);}
	.st182{clip-path:url(#SVGID_50_);}
	.st183{fill-rule:evenodd;clip-rule:evenodd;fill:#7B42BC;}
	.st184{clip-path:url(#SVGID_54_);}
	.st185{fill:url(#SVGID_55_);}
	.st186{clip-path:url(#SVGID_57_);}
	.st187{fill:url(#SVGID_58_);}
	.st188{clip-path:url(#SVGID_60_);}
	.st189{fill:url(#SVGID_61_);}
	.st190{clip-path:url(#SVGID_63_);}
	.st191{fill:url(#SVGID_64_);}
	.st192{fill:url(#SVGID_65_);}
	.st193{opacity:0.4438;fill:url(#SVGID_66_);enable-background:new    ;}
</style>
<g id="A_2_">
</g>
<g>
	<g>
		<path class="st160" d="M114.8,200.3c5.5-3.2,5.5-13.5,0-23.1c-5.5-9.6-14.4-14.7-19.9-11.5c-5.5,3.2-5.5,13.5,0,23.1
			C100.4,198.3,109.3,203.4,114.8,200.3z"/>
		<path class="st161" d="M227.4,188.7c5.5-9.5,5.5-19.9,0-23.1c-5.5-3.2-14.4,2-19.9,11.5c-5.5,9.5-5.5,19.9,0,23.1
			C213,203.5,221.9,198.3,227.4,188.7z"/>
		<path class="st160" d="M152.3,222c5.5-3.2,5.5-13.5,0-23.1c-5.5-9.5-14.4-14.7-19.9-11.5c-5.5,3.2-5.5,13.5,0,23.1
			C137.9,220.1,146.8,225.2,152.3,222z"/>
		<path class="st161" d="M189.9,210.5c5.5-9.6,5.5-19.9,0-23.1c-5.5-3.2-14.4,2-19.9,11.5c-5.5,9.6-5.5,19.9,0,23.1
			C175.5,225.2,184.4,220,189.9,210.5z"/>
		<path class="st162" d="M161.1,96.7c11,0,19.9-5.2,19.9-11.6c0-6.4-8.9-11.6-19.9-11.6c-11,0-19.9,5.2-19.9,11.6
			C141.2,91.5,150.2,96.7,161.1,96.7z"/>
		<path class="st160" d="M114.8,156.7c5.5-3.2,5.5-13.5,0-23.1c-5.5-9.6-14.4-14.7-19.9-11.5c-5.5,3.2-5.5,13.5,0,23.1
			C100.4,154.8,109.3,159.9,114.8,156.7z"/>
		<path class="st162" d="M123.6,118.4c11,0,19.9-5.2,19.9-11.6s-8.9-11.6-19.9-11.6s-19.9,5.2-19.9,11.6S112.6,118.4,123.6,118.4z"
			/>
		<path class="st161" d="M227.4,145.2c5.5-9.6,5.5-19.9,0-23.1c-5.5-3.2-14.4,2-19.9,11.5c-5.5,9.6-5.5,19.9,0,23.1
			C213,159.9,221.9,154.8,227.4,145.2z"/>
		<path class="st162" d="M198.7,118.4c11,0,19.9-5.2,19.9-11.6s-8.9-11.6-19.9-11.6c-11,0-19.9,5.2-19.9,11.6
			S187.7,118.4,198.7,118.4z"/>
		<path class="st160" d="M152.3,178.5c5.5-3.2,5.5-13.5,0-23.1c-5.5-9.6-14.4-14.7-19.9-11.5c-5.5,3.2-5.5,13.5,0,23.1
			C137.9,176.5,146.8,181.7,152.3,178.5z"/>
		<path class="st161" d="M189.9,167c5.5-9.5,5.5-19.9,0-23.1c-5.5-3.2-14.4,2-19.9,11.5c-5.5,9.5-5.5,19.9,0,23.1
			C175.5,181.7,184.4,176.5,189.9,167z"/>
		<path class="st162" d="M161.1,140.1c11,0,19.9-5.2,19.9-11.6c0-6.4-8.9-11.6-19.9-11.6c-11,0-19.9,5.2-19.9,11.6
			C141.2,135,150.2,140.1,161.1,140.1z"/>
	</g>
	<g>
		<path class="st163" d="M497.7,149.5c1.3-2.7,1.9-5.6,1.9-8.6c0-11.3-9.2-20.5-20.5-20.5c-3.1,0-6.3,0.7-9.1,2.1
			c-4.5-4.4-10.5-6.9-16.8-6.9c-13.2,0-24,10.8-24,24c0,1.1,0.1,2.1,0.2,3.2c-8.9,1.7-15.6,9.6-15.6,18.8c0,10.6,8.6,19.2,19.2,19.2
			h60.2l0,0c8.8,0,16-7.2,16-16C509.2,157.7,504.4,151.5,497.7,149.5z"/>
	</g>
	<g id="layer1_4_" transform="translate(-6.3260942,-174.7524)">
		<g id="g3052_3_">
			<path id="path3055_3_" class="st89" d="M374.3,198.3c-0.7,0-1.3,0.2-1.9,0.5l-26.5,12.7c-1.4,0.7-2.4,1.9-2.7,3.4l-6.5,28.5
				c-0.3,1.3-0.1,2.7,0.7,3.9c0.1,0.1,0.2,0.3,0.3,0.4l18.4,22.8c1,1.2,2.4,1.9,4,1.9l29.5,0c1.5,0,3-0.7,4-1.9l18.4-22.8
				c1-1.2,1.3-2.8,1-4.3l-6.6-28.5c-0.3-1.5-1.4-2.8-2.7-3.4l-26.5-12.7C376,198.4,375.2,198.2,374.3,198.3z"/>
			<path id="path3059_3_" class="st164" d="M374.6,208c-0.9,0-1.6,0.8-1.6,1.8c0,0,0,0,0,0c0,0.1,0,0.3,0,0.4c0,0.6,0.1,1,0.2,1.5
				c0.1,1.1,0.2,2,0.2,2.9c-0.1,0.3-0.3,0.6-0.5,0.8l0,0.7c-1,0.1-1.9,0.2-2.9,0.4c-4.1,0.9-7.7,3.1-10.4,5.9
				c-0.2-0.1-0.5-0.3-0.6-0.4c-0.3,0-0.6,0.1-0.9-0.1c-0.7-0.5-1.4-1.1-2.1-1.9c-0.4-0.4-0.6-0.7-1-1.1c-0.1-0.1-0.2-0.2-0.4-0.3
				c-0.3-0.3-0.7-0.4-1.1-0.4c-0.5,0-1,0.2-1.3,0.6c-0.5,0.7-0.4,1.7,0.4,2.3c0,0,0,0,0,0c0.1,0.1,0.2,0.2,0.3,0.3
				c0.5,0.3,0.9,0.5,1.3,0.8c1,0.6,1.7,1.1,2.4,1.7c0.2,0.3,0.3,0.7,0.3,0.9l0.5,0.5c-2.7,4.1-4,9.2-3.2,14.3l-0.7,0.2
				c-0.2,0.2-0.4,0.6-0.7,0.7c-0.8,0.3-1.7,0.4-2.8,0.5c-0.5,0-1,0-1.5,0.1c-0.1,0-0.3,0.1-0.4,0.1c0,0,0,0,0,0c0,0,0,0,0,0
				c-0.9,0.2-1.5,1.1-1.3,1.9c0.2,0.8,1.1,1.4,2.1,1.2c0,0,0,0,0,0c0,0,0,0,0,0c0.1,0,0.3-0.1,0.4-0.1c0.5-0.1,0.9-0.4,1.4-0.5
				c1.1-0.4,1.9-0.7,2.8-0.8c0.4,0,0.7,0.2,0.9,0.3l0.7-0.1c1.6,4.9,4.9,8.9,9.2,11.4l-0.3,0.7c0.1,0.3,0.2,0.6,0.1,0.9
				c-0.3,0.8-0.8,1.6-1.4,2.6c-0.3,0.4-0.6,0.8-0.9,1.3c-0.1,0.1-0.1,0.3-0.2,0.4c-0.4,0.9-0.1,1.9,0.7,2.3c0.8,0.4,1.8,0,2.2-0.9
				c0,0,0,0,0,0c0,0,0,0,0,0c0.1-0.1,0.1-0.3,0.2-0.4c0.2-0.5,0.3-1,0.5-1.5c0.4-1.1,0.7-2.2,1.2-2.9c0.2-0.2,0.4-0.3,0.7-0.3
				l0.4-0.7c3.7,1.4,7.8,1.8,11.9,0.9c0.9-0.2,1.8-0.5,2.7-0.8c0.1,0.2,0.3,0.5,0.3,0.6c0.3,0.1,0.6,0.1,0.8,0.5
				c0.4,0.7,0.7,1.6,1.1,2.7c0.2,0.5,0.2,0.9,0.5,1.5c0.1,0.1,0.1,0.3,0.2,0.4c0.4,0.9,1.4,1.3,2.2,0.9c0.8-0.4,1.1-1.4,0.7-2.3
				c-0.1-0.1-0.1-0.3-0.2-0.4c-0.3-0.5-0.6-0.8-0.9-1.3c-0.6-0.9-1.1-1.7-1.4-2.5c-0.1-0.4,0-0.7,0.1-0.9c-0.1-0.1-0.2-0.5-0.3-0.6
				c4.4-2.6,7.6-6.7,9.2-11.5c0.2,0,0.6,0.1,0.7,0.1c0.2-0.2,0.5-0.4,0.9-0.3c0.8,0.1,1.7,0.4,2.8,0.8c0.5,0.2,0.9,0.4,1.4,0.5
				c0.1,0,0.3,0.1,0.4,0.1c0,0,0,0,0,0c0,0,0,0,0,0c0.9,0.2,1.9-0.3,2.1-1.2c0.2-0.8-0.4-1.7-1.3-1.9c-0.1,0-0.3-0.1-0.5-0.1
				c-0.6-0.1-1-0.1-1.5-0.1c-1.1-0.1-2-0.2-2.8-0.5c-0.3-0.1-0.6-0.5-0.7-0.7l-0.6-0.2c0.3-2.4,0.2-4.9-0.3-7.4
				c-0.6-2.5-1.6-4.8-3-6.9c0.2-0.1,0.5-0.4,0.6-0.5c0-0.3,0-0.6,0.3-0.9c0.6-0.6,1.4-1.1,2.4-1.7c0.5-0.3,0.9-0.4,1.3-0.8
				c0.1-0.1,0.2-0.2,0.3-0.3c0.8-0.6,0.9-1.7,0.4-2.3s-1.6-0.8-2.4-0.1c-0.1,0.1-0.3,0.2-0.4,0.3c-0.4,0.4-0.7,0.7-1,1.1
				c-0.8,0.8-1.4,1.5-2.1,1.9c-0.3,0.2-0.8,0.1-1,0.1l-0.6,0.4c-3.4-3.6-8.1-5.9-13.2-6.4c0-0.2,0-0.6,0-0.7
				c-0.2-0.2-0.5-0.4-0.5-0.8c-0.1-0.9,0-1.8,0.2-2.9c0.1-0.5,0.2-0.9,0.2-1.5c0-0.1,0-0.3,0-0.5C376.2,208.7,375.5,208,374.6,208
				L374.6,208z M372.6,220.3l-0.5,8.3l0,0c0,0.7-0.6,1.3-1.4,1.3c-0.3,0-0.6-0.1-0.8-0.3l0,0l-6.8-4.8c2.1-2.1,4.8-3.6,7.9-4.3
				C371.5,220.4,372.1,220.3,372.6,220.3z M376.6,220.3c3.6,0.4,7,2.1,9.5,4.6l-6.8,4.8l0,0c-0.6,0.4-1.5,0.3-1.9-0.3
				c-0.2-0.2-0.3-0.5-0.3-0.8l0,0L376.6,220.3z M360.6,228l6.2,5.6l0,0c0.6,0.5,0.6,1.3,0.2,1.9c-0.2,0.2-0.4,0.4-0.7,0.5l0,0
				l-8,2.3C357.8,234.6,358.7,231,360.6,228z M388.6,228c0.9,1.5,1.6,3.2,2,5c0.4,1.8,0.5,3.6,0.3,5.3l-8-2.3l0,0
				c-0.7-0.2-1.2-0.9-1-1.7c0.1-0.3,0.2-0.6,0.4-0.7l0,0L388.6,228L388.6,228z M373.3,234h2.6l1.6,2l-0.6,2.5l-2.3,1.1l-2.3-1.1
				l-0.6-2.5L373.3,234z M381.5,240.8c0.1,0,0.2,0,0.3,0l0,0l8.3,1.4c-1.2,3.4-3.5,6.3-6.6,8.3l-3.2-7.8l0,0c-0.3-0.7,0-1.5,0.7-1.8
				C381.2,240.8,381.3,240.8,381.5,240.8L381.5,240.8z M367.6,240.8c0.6,0,1.2,0.4,1.3,1.1c0.1,0.3,0,0.6-0.1,0.9l0,0l-3.2,7.7
				c-3-1.9-5.3-4.8-6.6-8.3l8.2-1.4l0,0C367.4,240.8,367.5,240.8,367.6,240.8L367.6,240.8z M374.6,244.2c0.2,0,0.4,0,0.7,0.1
				c0.3,0.1,0.5,0.3,0.6,0.6h0l4,7.3c-0.5,0.2-1.1,0.3-1.6,0.5c-3.1,0.7-6.2,0.5-9-0.5l4-7.3h0C373.6,244.5,374.1,244.2,374.6,244.2
				z"/>
		</g>
	</g>
	<polyline class="st159" points="247.4,143.1 368.1,143.1 368.1,97.6 	"/>
	<line class="st159" x1="246.8" y1="161.9" x2="413.9" y2="161.9"/>
	<polyline class="st159" points="247.4,179.6 368.1,179.6 368.1,225.1 	"/>
	<g>
		<path class="st165" d="M349.6,242.1c-0.1-0.1-0.2-0.2-0.3-0.3c-2-1.9-3.5-4.1-4.5-6.8c-0.3-0.7-0.5-1.5-0.4-2.3c0-0.1,0-0.2,0-0.2
			c0.1-1,0.8-1.5,1.8-1.3c0.3,0.1,0.6,0.2,0.9,0.3c1.1,0.5,2,1.4,2.8,2.2c1.5,1.5,2.6,3.3,3.4,5.3c0,0,0,0.1,0.1,0.1
			c0,0,0,0,0.1,0.1c3.9-2.3,8.3-3.7,12.8-3.9c0-0.1,0-0.2-0.1-0.3c-0.5-1.9-0.6-3.9-0.4-5.8c0.1-1.2,0.3-2.3,0.7-3.4
			c0.2-0.6,0.5-1.1,0.9-1.6c0.1-0.2,0.3-0.3,0.5-0.4c0.4-0.3,0.9-0.3,1.3,0c0.4,0.3,0.7,0.6,0.9,1.1c0.4,0.7,0.7,1.5,0.8,2.3
			c0.4,1.7,0.5,3.5,0.3,5.2c-0.1,1.1-0.3,2.1-0.6,3.2c1.1,0.2,2.2,0.4,3.3,0.6c1.1,0.3,2.2,0.6,3.2,1c1.1,0.4,2.1,0.8,3.1,1.4
			c1,0.5,2,1.1,3,1.7c0-0.1,0.1-0.2,0.1-0.2c1-2.9,2.8-5.4,5.2-7.4c0.6-0.5,1.2-0.8,1.9-1.1c0.2-0.1,0.4-0.1,0.6-0.1
			c1-0.1,1.4,0.5,1.5,1.3c0.1,0.5,0,1.1-0.1,1.6c-0.4,1.4-0.9,2.7-1.7,3.9c-1.1,1.7-2.4,3.3-4,4.6c0,0-0.1,0.1-0.2,0.2
			c1.6,1.5,3,3.1,4.2,4.9c-0.1,0-0.2,0-0.3,0c-1.7,0-3.4,0-5,0c-0.2,0-0.4-0.1-0.5-0.3c-3.7-4-8.6-6.6-14-7.4
			c-1.6-0.2-3.2-0.3-4.8-0.2c-4.8,0.3-9.3,2-13.1,5c-1,0.8-1.9,1.6-2.7,2.5c-0.1,0.2-0.4,0.3-0.6,0.3c-1.6,0-3.2,0-4.8,0h-0.3
			c0.1-0.4,1.1-1.7,2.2-2.9C347.8,243.8,348.7,243,349.6,242.1z"/>
		<path class="st165" d="M390.4,278c-1.1,1.6-2.4,3-3.8,4.3c0.1,0.1,0.2,0.2,0.3,0.2c2.4,2,4.3,4.6,5.3,7.6c0.3,0.7,0.4,1.5,0.3,2.3
			c0,0.2-0.1,0.4-0.1,0.6c-0.2,0.6-0.7,0.9-1.3,0.8c-0.4,0-0.7-0.2-1.1-0.3c-0.5-0.3-1-0.6-1.5-0.9c-2.4-1.9-4.2-4.5-5.2-7.4
			c0-0.1-0.1-0.2-0.1-0.3c-1.3,0.8-2.6,1.6-4,2.2c-1.4,0.6-2.8,1.1-4.2,1.5c-1.5,0.4-3,0.7-4.5,0.9c0,0.1,0,0.2,0.1,0.3
			c0.5,1.9,0.6,3.8,0.5,5.8c-0.1,1.2-0.3,2.4-0.7,3.6c-0.2,0.5-0.4,0.9-0.7,1.4c-0.1,0.2-0.2,0.3-0.4,0.5c-0.6,0.7-1.4,0.7-2,0
			c-0.2-0.3-0.5-0.6-0.6-0.9c-0.5-0.9-0.7-1.9-0.9-2.9c-0.2-1.4-0.3-2.8-0.2-4.2c0-1,0.2-2,0.5-3c0-0.1,0-0.2,0.1-0.3c0,0,0,0,0-0.1
			c-4.5-0.3-8.9-1.6-12.8-4c-0.1,0.1-0.1,0.3-0.2,0.4c-1.1,2.5-2.8,4.8-4.9,6.6c-0.6,0.5-1.2,0.9-1.9,1.1c-0.3,0.1-0.7,0.2-1,0.1
			c-0.4-0.1-0.7-0.3-0.9-0.7c-0.2-0.5-0.2-1.1-0.1-1.7c0.1-0.8,0.4-1.5,0.7-2.3c1-2.3,2.4-4.3,4.2-6c0.1-0.1,0.1-0.1,0.2-0.2
			c0,0,0-0.1,0.1-0.1c-1.7-1.5-3.2-3.1-4.5-5c0.2,0,0.3,0,0.4,0c1.7,0,3.3,0,5,0c0.2,0,0.4,0.1,0.6,0.3c1.8,1.9,3.9,3.4,6.2,4.6
			c2.5,1.3,5.1,2.1,7.9,2.3c7.5,0.7,13.9-1.5,19.2-6.8c0.2-0.3,0.6-0.4,0.9-0.4c1.6,0,3.1,0,4.7,0L390.4,278L390.4,278z"/>
		<path class="st165" d="M383.5,254.2c0.4,0,0.9,0,1.3,0c0.5,0,0.8,0.1,1.2,0.4c2,1.8,4,3.7,6,5.5c0.1,0.1,0.2,0.2,0.3,0.3
			c0.1-0.1,0.2-0.2,0.3-0.3c2.1-1.9,4.1-3.8,6.2-5.7c0.2-0.2,0.4-0.3,0.7-0.3c0.5,0,1,0,1.6,0v16.7c-0.3,0.1-3.9,0.1-4.4,0v-8.4
			l-0.1,0c-1.4,1.3-2.9,2.6-4.3,3.9c-1.5-1.3-2.9-2.6-4.3-3.9l-0.1,0c0,0.7,0,1.4,0,2.1c0,0.7,0,1.4,0,2.1v4.3h-4.3
			C383.4,270.7,383.4,255.2,383.5,254.2z"/>
		<path class="st165" d="M343.4,254.2h4.3c0.1,0.3,0.1,16.3,0,16.7h-4.3c0-1.1,0-2.1,0-3.2c0-1,0-2.1,0-3.2h-5.3v6.3
			c-0.3,0.1-4,0.1-4.4,0v-16.7h4.4v5.9c0.3,0.1,4.9,0.1,5.4,0c0-0.5,0-1,0-1.4c0-0.5,0-1,0-1.5c0-0.5,0-1,0-1.5
			C343.4,255.3,343.4,254.8,343.4,254.2z"/>
		<path class="st165" d="M352.9,270.9v-16.6c0.3-0.1,9.7-0.1,10.4,0v3.5c-0.1,0-0.3,0-0.4,0c-1.7,0-3.4,0-5.1,0h-0.5v2.8h5.3v3.7
			h-5.2c-0.1,0.3-0.1,2.5,0,3.1c0.1,0,0.3,0,0.4,0c1.7,0,3.4,0,5.1,0h0.5v3.5H352.9z"/>
		<path class="st165" d="M368.2,270.9c-0.1-0.4-0.1-16.4,0-16.7h4.3v12.3c0.2,0,0.3,0,0.5,0c1.7,0,3.4,0,5.1,0c0.1,0,0.3,0,0.5,0
			v4.4H368.2z"/>
	</g>
</g>
</svg>
