<?xml version="1.0" encoding="utf-8"?>
<!-- Generator: Adobe Illustrator 24.2.1, SVG Export Plug-In . SVG Version: 6.00 Build 0)  -->
<svg version="1.1" id="Layer_1" xmlns="http://www.w3.org/2000/svg" xmlns:xlink="http://www.w3.org/1999/xlink" x="0px" y="0px"
	 viewBox="0 0 600 325" style="enable-background:new 0 0 600 325;" xml:space="preserve">
<style type="text/css">
	.st0{fill:#689F63;}
	.st1{fill-rule:evenodd;clip-rule:evenodd;fill:#333333;}
	.st2{fill-rule:evenodd;clip-rule:evenodd;fill:#689F63;}
	.st3{clip-path:url(#SVGID_3_);}
	.st4{fill:url(#SVGID_4_);}
	.st5{clip-path:url(#SVGID_6_);}
	.st6{fill:url(#SVGID_7_);}
	.st7{clip-path:url(#SVGID_9_);}
	.st8{fill:url(#SVGID_10_);}
	.st9{fill:#3178C6;}
	.st10{fill-rule:evenodd;clip-rule:evenodd;fill:#FFFFFF;}
	.st11{fill:#F7DF1E;}
	.st12{fill:#00ACD7;}
	.st13{clip-path:url(#SVGID_12_);}
	.st14{fill:#5582A1;}
	.st15{fill:#F49734;}
	.st16{fill:#646464;}
	.st17{fill:url(#SVGID_13_);}
	.st18{fill:url(#SVGID_14_);}
	.st19{opacity:0.4438;fill:url(#SVGID_15_);enable-background:new    ;}
	.st20{fill:#5C2D91;}
	.st21{opacity:0.1;fill:#FFFFFF;enable-background:new    ;}
	.st22{fill:#FFFFFF;}
	.st23{fill:#F2F2F2;}
	.st24{fill:#004E8C;}
	.st25{fill:#05930C;}
	.st26{fill:#802D8E;}
	.st27{fill:#721581;}
	.st28{fill:#FDFDFD;}
	.st29{fill:#CB171E;}
	.st30{fill:#00B352;}
	.st31{fill:none;stroke:#FFFFFF;stroke-width:2.0449;stroke-linecap:round;}
	
		.st32{opacity:0.405;fill:#211F46;fill-opacity:0.996;stroke:#0A0B1B;stroke-width:1.518;stroke-miterlimit:4.107;enable-background:new    ;}
	.st33{fill:url(#SVGID_16_);stroke:url(#SVGID_17_);stroke-width:2.4044;stroke-miterlimit:4.1617;}
	.st34{fill:url(#SVGID_18_);}
	.st35{fill:url(#SVGID_19_);}
	.st36{fill:url(#SVGID_20_);}
	.st37{fill:url(#SVGID_21_);}
	.st38{fill:url(#SVGID_22_);}
	.st39{fill:url(#SVGID_23_);}
	.st40{fill:url(#SVGID_24_);}
	.st41{fill:url(#SVGID_25_);}
	.st42{fill:url(#SVGID_26_);}
	.st43{fill-rule:evenodd;clip-rule:evenodd;fill:#FFFFFF;filter:url(#Adobe_OpacityMaskFilter);}
	.st44{mask:url(#mask0_2_);}
	.st45{fill:#0065A9;}
	.st46{fill:#007ACC;}
	.st47{fill:#1F9CF0;}
	.st48{opacity:0.25;}
	.st49{fill-rule:evenodd;clip-rule:evenodd;fill:url(#SVGID_27_);}
	.st50{fill:#2C2255;}
	.st51{fill:#F7941E;}
	.st52{fill:url(#SVGID_28_);}
	.st53{fill:url(#SVGID_29_);}
	.st54{fill:url(#SVGID_30_);}
	.st55{fill:#019833;stroke:#000000;stroke-width:0.1342;}
	.st56{fill:#66FE98;stroke:#000000;stroke-width:0.1342;}
	.st57{fill:#45FE02;stroke:#000000;stroke-width:0.1342;}
	.st58{fill:#017D17;stroke:#000000;stroke-width:0.1342;}
	.st59{fill:none;stroke:#000000;stroke-width:2.6832;}
	.st60{fill:#005D04;stroke:#000000;stroke-width:0.1342;}
	.st61{fill:none;stroke:#000000;stroke-width:0.805;}
	.st62{fill:#FEFEFE;stroke:#000000;stroke-width:0.1342;}
	.st63{fill:none;stroke:#000000;stroke-width:0.1419;}
	.st64{fill:#808080;stroke:#000000;stroke-width:0.1342;}
	.st65{fill:#CCCCCC;stroke:#000000;stroke-width:0.1419;}
	.st66{fill:#CCCCCC;stroke:#000000;stroke-width:1.1349;stroke-miterlimit:10;}
	.st67{fill:#CCCCCC;stroke:#000000;stroke-width:0.1419;stroke-miterlimit:10;}
	.st68{fill:#02303A;}
	.st69{fill-rule:evenodd;clip-rule:evenodd;fill:#8D6748;}
	.st70{fill:#040707;}
	.st71{fill-rule:evenodd;clip-rule:evenodd;fill:#F96216;}
	.st72{fill-rule:evenodd;clip-rule:evenodd;fill:#B200F8;}
	.st73{fill-rule:evenodd;clip-rule:evenodd;fill:#00B4F2;}
	.st74{fill:#F7F7F4;stroke:#CCCCCC;stroke-width:0.1872;stroke-linejoin:bevel;stroke-miterlimit:4.2667;}
	.st75{fill:#EFEEEA;stroke:#CCCCCC;stroke-width:0.1872;stroke-linejoin:bevel;stroke-miterlimit:4.2667;}
	.st76{fill:#FFFFFF;stroke:#CCCCCC;stroke-width:0.1872;stroke-linejoin:bevel;stroke-miterlimit:4.2667;}
	.st77{fill:#FFD242;stroke:#CCCCCC;stroke-width:0.1872;stroke-linejoin:bevel;stroke-miterlimit:4.2667;}
	.st78{fill:#FFC91D;stroke:#CCCCCC;stroke-width:0.1872;stroke-linejoin:bevel;stroke-miterlimit:4.2667;}
	.st79{fill:#3775A9;stroke:#CCCCCC;stroke-width:0.1872;stroke-linejoin:bevel;stroke-miterlimit:4.2667;}
	.st80{fill:#2F6491;stroke:#CCCCCC;stroke-width:0.1872;stroke-linejoin:bevel;stroke-miterlimit:4.2667;}
	.st81{fill-rule:evenodd;clip-rule:evenodd;fill:#004880;}
	.st82{filter:url(#Adobe_OpacityMaskFilter_1_);}
	.st83{mask:url(#mask-2_2_);fill-rule:evenodd;clip-rule:evenodd;fill:#004880;}
	.st84{fill:#CB3837;}
	.st85{fill-rule:evenodd;clip-rule:evenodd;fill:#24292F;}
	.st86{fill:#089CE7;}
	.st87{fill:#41BF47;}
	.st88{fill:#A0A0A0;}
	.st89{fill:#326CE5;}
	.st90{fill:#FFFFFF;stroke:#FFFFFF;stroke-width:2.640921e-02;}
	.st91{fill:#0D80D8;}
	.st92{fill-rule:evenodd;clip-rule:evenodd;fill:#D33833;}
	.st93{fill:#EF3D3A;}
	.st94{fill:#231F20;}
	.st95{fill-rule:evenodd;clip-rule:evenodd;fill:#F0D6B7;}
	.st96{fill-rule:evenodd;clip-rule:evenodd;fill:#335061;}
	.st97{fill-rule:evenodd;clip-rule:evenodd;fill:#6D6B6D;}
	.st98{fill-rule:evenodd;clip-rule:evenodd;fill:#DCD9D8;}
	.st99{fill-rule:evenodd;clip-rule:evenodd;fill:#F7E4CD;}
	.st100{fill:#F7E4CD;}
	.st101{fill-rule:evenodd;clip-rule:evenodd;fill:#49728B;}
	.st102{fill:none;stroke:#D33833;stroke-width:0.7283;stroke-miterlimit:5;}
	.st103{fill-rule:evenodd;clip-rule:evenodd;fill:#EF3D3A;}
	.st104{fill-rule:evenodd;clip-rule:evenodd;fill:#231F20;}
	.st105{fill-rule:evenodd;clip-rule:evenodd;fill:#81B0C4;}
	.st106{fill-rule:evenodd;clip-rule:evenodd;fill:#1D1919;}
	.st107{fill:#161616;}
	.st108{fill:#4285F4;}
	.st109{fill:#669DF6;}
	.st110{fill:#AECBFA;}
	.st111{fill:url(#SVGID_35_);}
	.st112{fill:url(#SVGID_36_);}
	.st113{fill:url(#SVGID_37_);}
	.st114{fill:url(#SVGID_38_);}
	.st115{fill:url(#SVGID_39_);}
	.st116{fill:url(#SVGID_40_);}
	.st117{fill:#CB3349;}
	.st118{fill:#F4EDAE;}
	.st119{fill:#E6CCAD;}
	.st120{fill:#656C67;}
	.st121{fill:#E5CAA3;}
	.st122{fill:#C7B39A;}
	.st123{fill:#EBD599;}
	.st124{fill:#2D3136;}
	.st125{fill:#EDF6FA;}
	.st126{opacity:0.8;fill:#EBD599;enable-background:new    ;}
	.st127{opacity:0.75;fill:#EBD599;enable-background:new    ;}
	.st128{fill:#C1D2F7;}
	.st129{fill:none;}
	.st130{fill:#4B612C;}
	.st131{fill:#759C3E;}
	.st132{fill:#3C4929;}
	.st133{fill:#B7CA9D;}
	.st134{fill:#E24329;}
	.st135{fill:#FCA326;}
	.st136{fill:#FC6D26;}
	.st137{fill:url(#SVGID_41_);}
	.st138{fill:#2EB99B;}
	.st139{fill:#4E555D;}
	.st140{fill:#2684FF;}
	.st141{fill:url(#SVGID_42_);}
	.st142{fill:url(#SVGID_43_);}
	.st143{fill-rule:evenodd;clip-rule:evenodd;fill:#4B612C;}
	.st144{fill-rule:evenodd;clip-rule:evenodd;fill:#759C3E;}
	.st145{fill-rule:evenodd;clip-rule:evenodd;fill:#3C4929;}
	.st146{fill-rule:evenodd;clip-rule:evenodd;fill:#B7CA9D;}
	.st147{fill:url(#SVGID_44_);}
	.st148{fill:#0078D4;}
	.st149{fill:url(#SVGID_45_);}
	.st150{fill:url(#SVGID_46_);}
	.st151{fill:#EA4335;}
	.st152{fill:#34A853;}
	.st153{fill:#FBBC05;}
	.st154{fill:#252F3E;}
	.st155{fill:#F7981D;}
	.st156{fill:#FFFFFF;stroke:#FFFFFF;stroke-width:2.385055e-02;}
	.st157{fill:#F4F4F9;}
	.st158{fill:#805AC3;stroke:#805AC3;stroke-width:1.6486;stroke-miterlimit:10;}
	.st159{fill:none;stroke:#A0A0A0;stroke-width:3;stroke-miterlimit:10;}
	.st160{fill:#F26E7E;}
	.st161{fill:#8A3391;}
	.st162{fill:#F7BF2A;}
	.st163{fill:#7682F4;}
	.st164{fill:#FFFFFF;stroke:#FFFFFF;stroke-width:2.715649e-02;}
	.st165{fill:#0F1689;}
	.st166{fill:#9F97AF;}
	.st167{fill-rule:evenodd;clip-rule:evenodd;fill:#F26E7E;}
	.st168{fill-rule:evenodd;clip-rule:evenodd;fill:#8A3391;}
	.st169{fill-rule:evenodd;clip-rule:evenodd;fill:#F7BF2A;}
	.st170{fill:#DADAE5;}
	.st171{fill:none;stroke:#DADAE5;stroke-width:1.1567;stroke-miterlimit:10;}
	.st172{opacity:0.5;fill:#D9EAF9;}
	.st173{fill:#AAB6F9;}
	.st174{fill:none;stroke:#805AC3;stroke-width:7.4756;stroke-miterlimit:10;}
	.st175{fill-rule:evenodd;clip-rule:evenodd;fill:#009BCB;}
	.st176{fill-rule:evenodd;clip-rule:evenodd;fill:#28B6DD;}
	.st177{fill-rule:evenodd;clip-rule:evenodd;fill:#0078D7;}
	.st178{fill-rule:evenodd;clip-rule:evenodd;fill:#9FDBEE;}
	.st179{fill-rule:evenodd;clip-rule:evenodd;fill:#7A7A7A;}
	.st180{fill:#FFFFFF;stroke:#FFFFFF;stroke-width:2.107166e-02;}
	.st181{clip-path:url(#SVGID_48_);}
	.st182{clip-path:url(#SVGID_50_);}
	.st183{fill-rule:evenodd;clip-rule:evenodd;fill:#7B42BC;}
	.st184{clip-path:url(#SVGID_54_);}
	.st185{fill:url(#SVGID_55_);}
	.st186{clip-path:url(#SVGID_57_);}
	.st187{fill:url(#SVGID_58_);}
	.st188{clip-path:url(#SVGID_60_);}
	.st189{fill:url(#SVGID_61_);}
	.st190{clip-path:url(#SVGID_63_);}
	.st191{fill:url(#SVGID_64_);}
	.st192{fill:url(#SVGID_65_);}
	.st193{opacity:0.4438;fill:url(#SVGID_66_);enable-background:new    ;}
</style>
<g id="A_2_">
</g>
<g>
	<g>
		<path class="st166" d="M459,248.5H138.5c-2.5,0-4.6-2.1-4.6-4.6V50.5c0-2.5,2.1-4.6,4.6-4.6H459c2.5,0,4.6,2.1,4.6,4.6V244
			C463.5,246.5,461.5,248.5,459,248.5z"/>
		<path class="st157" d="M447.2,236.8h-297c-2.3,0-4.1-1.9-4.1-4.1V61.8c0-2.3,1.9-4.1,4.1-4.1h297c2.3,0,4.1,1.9,4.1,4.1v170.9
			C451.4,234.9,449.5,236.8,447.2,236.8z"/>
	</g>
	<path class="st166" d="M485.1,262.8H112.3c-1.5,0-2.8-1.3-2.8-2.8v-18.8c0-1.5,1.3-2.8,2.8-2.8h372.8c1.5,0,2.8,1.3,2.8,2.8v18.8
		C487.9,261.6,486.6,262.8,485.1,262.8z"/>
	<g>
		<path class="st167" d="M162.2,83.5c1.2-0.7,1.2-3,0-5.1c-1.2-2.1-3.2-3.3-4.5-2.6c-1.2,0.7-1.2,3,0,5.1
			C159,83.1,161,84.2,162.2,83.5z M162.2,88.1c1.2,2.1,1.2,4.4,0,5.1c-1.2,0.7-3.2-0.4-4.5-2.6c-1.2-2.1-1.2-4.4,0-5.1
			C159,84.8,161,85.9,162.2,88.1z M170.6,92.9c1.2,2.1,1.2,4.4,0,5.1c-1.2,0.7-3.2-0.4-4.5-2.6c-1.2-2.1-1.2-4.4,0-5.1
			C167.4,89.6,169.4,90.8,170.6,92.9z M170.6,83.2c1.2,2.1,1.2,4.4,0,5.1c-1.2,0.7-3.2-0.4-4.5-2.6c-1.2-2.1-1.2-4.4,0-5.1
			C167.4,79.9,169.4,81.1,170.6,83.2z"/>
		<path class="st168" d="M187.4,81c1.2-2.1,1.2-4.4,0-5.1c-1.2-0.7-3.2,0.4-4.5,2.6c-1.2,2.1-1.2,4.4,0,5.1
			C184.2,84.2,186.2,83.1,187.4,81z M187.4,85.5c1.2,0.7,1.2,3,0,5.1c-1.2,2.1-3.2,3.3-4.5,2.6s-1.2-3,0-5.1
			C184.2,85.9,186.2,84.8,187.4,85.5z M179,90.4c1.2,0.7,1.2,3,0,5.1c-1.2,2.1-3.2,3.3-4.5,2.6c-1.2-0.7-1.2-3,0-5.1
			C175.8,90.8,177.8,89.6,179,90.4z M179,80.7c1.2,0.7,1.2,3,0,5.1c-1.2,2.1-3.2,3.3-4.5,2.6c-1.2-0.7-1.2-3,0-5.1
			C175.8,81.1,177.8,79.9,179,80.7z"/>
		<path class="st169" d="M177,67.5c0,1.4-2,2.6-4.5,2.6s-4.5-1.2-4.5-2.6c0-1.4,2-2.6,4.5-2.6S177,66.1,177,67.5z M168.6,72.4
			c0,1.4-2,2.6-4.5,2.6s-4.5-1.2-4.5-2.6c0-1.4,2-2.6,4.5-2.6S168.6,71,168.6,72.4z M181,75c2.5,0,4.5-1.2,4.5-2.6
			c0-1.4-2-2.6-4.5-2.6s-4.5,1.2-4.5,2.6C176.5,73.8,178.5,75,181,75z M177,77.2c0,1.4-2,2.6-4.5,2.6s-4.5-1.2-4.5-2.6
			c0-1.4,2-2.6,4.5-2.6S177,75.8,177,77.2z"/>
	</g>
	<g>
		<path class="st170" d="M330.4,133.7h-69.3c-2.9,0-5.3-2.4-5.3-5.3v-0.6c0-2.9,2.4-5.3,5.3-5.3h69.3c2.9,0,5.3,2.4,5.3,5.3v0.6
			C335.7,131.3,333.4,133.7,330.4,133.7z"/>
		<path class="st170" d="M305,150.9h-43.5c-3.1,0-5.6-2.5-5.6-5.6v0c0-3.1,2.5-5.6,5.6-5.6H305c3.1,0,5.6,2.5,5.6,5.6v0
			C310.6,148.4,308.1,150.9,305,150.9z"/>
		<path class="st170" d="M326,168.4h-65c-2.8,0-5.1-2.3-5.1-5.1v-0.9c0-2.8,2.3-5.1,5.1-5.1h65c2.8,0,5.1,2.3,5.1,5.1v0.9
			C331.1,166.1,328.8,168.4,326,168.4z"/>
		<path class="st170" d="M305,185.6h-43.5c-3.1,0-5.6-2.5-5.6-5.6v0c0-3.1,2.5-5.6,5.6-5.6H305c3.1,0,5.6,2.5,5.6,5.6v0
			C310.6,183.1,308.1,185.6,305,185.6z"/>
		<path class="st170" d="M321.5,203.1h-60.7c-2.7,0-5-2.2-5-5v-1.2c0-2.7,2.2-5,5-5h60.7c2.7,0,5,2.2,5,5v1.2
			C326.5,200.9,324.2,203.1,321.5,203.1z"/>
		<path class="st170" d="M305,220.3h-43.5c-3.1,0-5.6-2.5-5.6-5.6v0c0-3.1,2.5-5.6,5.6-5.6H305c3.1,0,5.6,2.5,5.6,5.6v0
			C310.6,217.8,308.1,220.3,305,220.3z"/>
	</g>
	<path class="st170" d="M231,133.7h-69.3c-2.9,0-5.3-2.4-5.3-5.3v-0.6c0-2.9,2.4-5.3,5.3-5.3H231c2.9,0,5.3,2.4,5.3,5.3v0.6
		C236.2,131.3,233.9,133.7,231,133.7z"/>
	<path class="st170" d="M205.5,150.9H162c-3.1,0-5.6-2.5-5.6-5.6v0c0-3.1,2.5-5.6,5.6-5.6h43.5c3.1,0,5.6,2.5,5.6,5.6v0
		C211.1,148.4,208.6,150.9,205.5,150.9z"/>
	<path class="st170" d="M226.5,168.4h-65c-2.8,0-5.1-2.3-5.1-5.1v-0.9c0-2.8,2.3-5.1,5.1-5.1h65c2.8,0,5.1,2.3,5.1,5.1v0.9
		C231.6,166.1,229.3,168.4,226.5,168.4z"/>
	<path class="st170" d="M205.5,185.6H162c-3.1,0-5.6-2.5-5.6-5.6v0c0-3.1,2.5-5.6,5.6-5.6h43.5c3.1,0,5.6,2.5,5.6,5.6v0
		C211.1,183.1,208.6,185.6,205.5,185.6z"/>
	<path class="st170" d="M222,203.1h-60.7c-2.7,0-5-2.2-5-5v-1.2c0-2.7,2.2-5,5-5H222c2.7,0,5,2.2,5,5v1.2
		C227,200.9,224.8,203.1,222,203.1z"/>
	<path class="st170" d="M205.5,220.3H162c-3.1,0-5.6-2.5-5.6-5.6v0c0-3.1,2.5-5.6,5.6-5.6h43.5c3.1,0,5.6,2.5,5.6,5.6v0
		C211.1,217.8,208.6,220.3,205.5,220.3z"/>
	<g>
		<path class="st170" d="M429.9,133.7h-69.3c-2.9,0-5.3-2.4-5.3-5.3v-0.6c0-2.9,2.4-5.3,5.3-5.3h69.3c2.9,0,5.3,2.4,5.3,5.3v0.6
			C435.2,131.3,432.8,133.7,429.9,133.7z"/>
		<path class="st170" d="M404.5,150.9H361c-3.1,0-5.6-2.5-5.6-5.6v0c0-3.1,2.5-5.6,5.6-5.6h43.5c3.1,0,5.6,2.5,5.6,5.6v0
			C410,148.4,407.5,150.9,404.5,150.9z"/>
		<path class="st170" d="M425.5,168.4h-65c-2.8,0-5.1-2.3-5.1-5.1v-0.9c0-2.8,2.3-5.1,5.1-5.1h65c2.8,0,5.1,2.3,5.1,5.1v0.9
			C430.6,166.1,428.3,168.4,425.5,168.4z"/>
		<path class="st170" d="M404.5,185.6H361c-3.1,0-5.6-2.5-5.6-5.6v0c0-3.1,2.5-5.6,5.6-5.6h43.5c3.1,0,5.6,2.5,5.6,5.6v0
			C410,183.1,407.5,185.6,404.5,185.6z"/>
		<path class="st170" d="M421,203.1h-60.7c-2.7,0-5-2.2-5-5v-1.2c0-2.7,2.2-5,5-5H421c2.7,0,5,2.2,5,5v1.2
			C425.9,200.9,423.7,203.1,421,203.1z"/>
		<path class="st170" d="M404.5,220.3H361c-3.1,0-5.6-2.5-5.6-5.6v0c0-3.1,2.5-5.6,5.6-5.6h43.5c3.1,0,5.6,2.5,5.6,5.6v0
			C410,217.8,407.5,220.3,404.5,220.3z"/>
	</g>
	<line class="st171" x1="156.4" y1="106.4" x2="435.2" y2="106.4"/>
	<g>
		<path class="st88" d="M210.9,73.7c1.9,0,3.4,0.6,4.7,1.9c1.2,1.2,1.9,2.8,1.9,4.6c0,1.8-0.6,3.4-1.9,4.6c-1.2,1.2-2.8,1.9-4.7,1.9
			h-4.7v7.2h-2.7V73.7H210.9z M210.9,84.2c1.1,0,2.1-0.4,2.8-1.1c0.7-0.8,1.1-1.7,1.1-2.9c0-2.3-1.6-4-3.9-4h-4.7v8H210.9z"/>
		<path class="st88" d="M230.3,79.5h2.5v14.5h-2.5v-2.1c-1,1.6-2.6,2.5-4.7,2.5c-3.4,0-5.6-2.3-5.6-6v-8.9h2.5v8.7
			c0,2.3,1.4,3.7,3.6,3.7c2.5,0,4.2-1.5,4.2-4.8V79.5z"/>
		<path class="st88" d="M236.7,93.9V72.8h2.5v21.1H236.7z"/>
		<path class="st88" d="M253,79.5h2.5v14.5H253v-2.1c-1,1.6-2.6,2.5-4.7,2.5c-3.4,0-5.6-2.3-5.6-6v-8.9h2.5v8.7
			c0,2.3,1.4,3.7,3.6,3.7c2.5,0,4.2-1.5,4.2-4.8V79.5z"/>
		<path class="st88" d="M280.4,84.9v9h-2.5V85c0-2.2-1.2-3.5-3.2-3.5c-2.2,0-3.6,1.4-3.6,4.4v8h-2.5V85c0-2.2-1.2-3.5-3.1-3.5
			c-2.1,0-3.7,1.5-3.7,4.4v8h-2.5V79.5h2.5v1.9c1-1.5,2.4-2.3,4.3-2.3c1.9,0,3.4,0.8,4.3,2.5c1-1.6,2.5-2.5,4.5-2.5
			C278.2,79.1,280.4,81.3,280.4,84.9z"/>
		<path class="st88" d="M283.4,75.2c0-0.9,0.8-1.7,1.7-1.7c0.9,0,1.7,0.8,1.7,1.7s-0.8,1.7-1.7,1.7
			C284.2,76.8,283.4,76.1,283.4,75.2z M283.9,93.9V79.5h2.5v14.5H283.9z"/>
		<path class="st88" d="M309.7,93.9l-4.5-7.7h-4.8v7.7h-2.7V73.7h8.1c1.7,0,3.2,0.6,4.5,1.9c1.2,1.2,1.9,2.7,1.9,4.4
			c0,1.3-0.4,2.5-1.2,3.6c-0.8,1.1-1.8,1.9-3,2.3l4.8,8.1H309.7z M300.4,76.2v7.5h5.4c1,0,1.9-0.4,2.5-1.1c0.7-0.8,1.1-1.6,1.1-2.7
			c0-1-0.3-1.9-1.1-2.7c-0.7-0.7-1.5-1.1-2.5-1.1H300.4z"/>
		<path class="st88" d="M316.2,87.9c0.5,2.6,2.5,4.1,5.2,4.1c1.9,0,3.3-0.7,4.2-2.1l2.1,1.2c-1.4,2.2-3.5,3.3-6.4,3.3
			c-2.3,0-4.2-0.7-5.6-2.1c-1.4-1.4-2.1-3.3-2.1-5.5c0-2.2,0.7-4,2.1-5.4c1.4-1.4,3.2-2.2,5.5-2.2c2.1,0,3.8,0.8,5.2,2.3
			c1.4,1.5,2,3.3,2,5.4c0,0.4,0,0.8-0.1,1.1H316.2z M316.2,85.7h9.7c-0.4-2.7-2.3-4.2-4.7-4.2C318.5,81.5,316.6,83.1,316.2,85.7z"/>
		<path class="st88" d="M343.2,79.5h2.5v13.8c0,2.1-0.7,3.8-2.2,5c-1.4,1.2-3.2,1.8-5.2,1.8c-3.2,0-5.7-1.2-6.9-3.5l2.2-1.2
			c0.8,1.6,2.4,2.4,4.7,2.4c3,0,4.8-1.7,4.8-4.4v-2.1c-1.3,1.9-3.1,2.9-5.4,2.9c-2.1,0-3.8-0.7-5.2-2.2c-1.4-1.5-2.1-3.2-2.1-5.3
			c0-2.1,0.7-3.9,2.1-5.3c1.4-1.5,3.2-2.2,5.2-2.2c2.4,0,4.2,1,5.4,2.9V79.5z M341.8,83c-1-1-2.2-1.5-3.7-1.5s-2.7,0.5-3.7,1.5
			c-1,1-1.5,2.2-1.5,3.6c0,1.5,0.5,2.7,1.5,3.7c1,1,2.2,1.5,3.7,1.5s2.7-0.5,3.7-1.5c1-1,1.5-2.2,1.5-3.7
			C343.2,85.2,342.8,83.9,341.8,83z"/>
		<path class="st88" d="M349.1,75.2c0-0.9,0.8-1.7,1.7-1.7c0.9,0,1.7,0.8,1.7,1.7s-0.8,1.7-1.7,1.7
			C349.9,76.8,349.1,76.1,349.1,75.2z M349.6,93.9V79.5h2.5v14.5H349.6z"/>
		<path class="st88" d="M360.9,85.5c2.3,0.5,5.3,1.3,5.2,4.4c0,1.3-0.5,2.4-1.5,3.2c-1,0.8-2.3,1.2-3.9,1.2c-2.8,0-4.9-1.3-5.8-3.4
			l2.2-1.2c0.5,1.4,1.8,2.3,3.6,2.3c1.6,0,2.9-0.6,2.9-2c0-1.1-1.3-1.8-2.9-2.1c-2.3-0.6-5.2-1.4-5.2-4.4c0-1.2,0.5-2.3,1.4-3.1
			c1-0.8,2.2-1.2,3.7-1.2c2.3,0,4.3,1.1,5.2,3l-2.1,1.2c-0.5-1.2-1.6-1.9-3.1-1.9c-1.4,0-2.6,0.7-2.6,1.9
			C358.1,84.5,359.3,85.1,360.9,85.5z"/>
		<path class="st88" d="M376.4,81.9h-3.8v7.8c0,2.2,1.3,2.1,3.8,1.9v2.3c-4.4,0.6-6.4-0.6-6.4-4.2v-7.8h-2.9v-2.4h2.9v-3.3l2.5-0.8
			v4h3.8V81.9z"/>
		<path class="st88" d="M382,81.9c0.8-1.8,2.3-2.7,4.5-2.7v2.6c-1.2-0.1-2.3,0.3-3.2,1c-0.9,0.7-1.3,1.9-1.3,3.4v7.7h-2.5V79.5h2.5
			V81.9z"/>
		<path class="st88" d="M399.4,79.5h2.7l-5.9,15.4c-1.2,3.3-3.5,5.1-6.4,4.9v-2.3c1.8,0.1,3.1-0.8,3.9-2.9l0.3-0.5l-6.3-14.4h2.7
			l4.9,11.3L399.4,79.5z"/>
	</g>
	<g>
		<circle class="st172" cx="384" cy="169.7" r="57.6"/>
		
			<rect x="323.6" y="157.2" transform="matrix(0.7071 -0.7071 0.7071 0.7071 -6.0108 317.5843)" class="st22" width="113.4" height="17.7"/>
		
			<rect x="336.3" y="175.7" transform="matrix(0.7071 -0.7071 0.7071 0.7071 -11.2348 330.1962)" class="st22" width="113.4" height="5.8"/>
		<path class="st163" d="M478.6,276.7l-60.6-60.6l12.5-12.5l60.6,60.6c3.2,3.2,3.2,8.3,0,11.5l-1,1
			C486.9,279.9,481.7,279.9,478.6,276.7z"/>
		
			<rect x="421.1" y="208.5" transform="matrix(0.7071 0.7071 -0.7071 0.7071 280.1532 -241.6286)" class="st173" width="21.3" height="17.7"/>
		<circle class="st174" cx="384" cy="169.7" r="57.6"/>
	</g>
</g>
</svg>
