<?xml version="1.0" encoding="utf-8"?>
<!-- Generator: Adobe Illustrator 24.2.1, SVG Export Plug-In . SVG Version: 6.00 Build 0)  -->
<svg version="1.1" id="Layer_1" xmlns="http://www.w3.org/2000/svg" xmlns:xlink="http://www.w3.org/1999/xlink" x="0px" y="0px"
	 viewBox="0 0 74.9 75.1" style="enable-background:new 0 0 74.9 75.1;" xml:space="preserve">
<style type="text/css">
	.st0{fill:#7682F4;}
	.st1{fill-rule:evenodd;clip-rule:evenodd;fill:#F26E7E;}
	.st2{fill-rule:evenodd;clip-rule:evenodd;fill:#8A3391;}
	.st3{fill-rule:evenodd;clip-rule:evenodd;fill:#F7BF2A;}
	.st4{fill:#CCD3FF;}
</style>
<g>
	<path class="st0" d="M41.9,68H33c-0.3,0-0.6-0.3-0.6-0.6l-0.6-6c-2.7-0.6-5.2-1.6-7.5-3.1l-4.7,3.9c-0.3,0.2-0.6,0.2-0.9,0L12.3,56
		v0c-0.2-0.2-0.3-0.6,0-0.9l3.9-4.6c-1.4-2.3-2.5-4.7-3.1-7.4L7,42.6c-0.3,0-0.6-0.3-0.6-0.6v-8.7c0-0.3,0.3-0.6,0.6-0.6l6.1-0.6
		c0.6-2.6,1.7-5.1,3.1-7.4L12.3,20c-0.2-0.3-0.2-0.6,0-0.9l6.3-6.2v0c0.2-0.2,0.6-0.2,0.9,0l4.7,3.9c2.3-1.4,4.9-2.5,7.5-3.1l0.6-6
		h0c0-0.3,0.3-0.6,0.6-0.6h8.9c0.3,0,0.6,0.3,0.6,0.6l0.6,6c2.7,0.6,5.2,1.6,7.5,3.1l4.7-3.9c0.3-0.2,0.6-0.2,0.9,0l6.3,6.2v0
		c0.2,0.2,0.3,0.6,0,0.9l-3.9,4.6c1.4,2.3,2.5,4.7,3.1,7.4l6.1,0.6c0.3,0,0.6,0.3,0.6,0.6v8.7c0,0.3-0.3,0.6-0.6,0.6l-6.1,0.6
		c-0.6,2.6-1.7,5.1-3.1,7.4l3.9,4.6c0.2,0.3,0.2,0.6,0,0.9l-6.3,6.2v0c-0.2,0.2-0.6,0.2-0.9,0l-4.7-3.9c-2.3,1.4-4.9,2.5-7.5,3.1
		l-0.6,6h0C42.5,67.8,42.3,68,41.9,68L41.9,68z M37.4,20.8L37.4,20.8c-4.4,0.1-8.6,1.9-11.7,5.1c-3.1,3.2-4.8,7.5-4.7,11.9
		c0.1,4.4,1.9,8.6,5,11.7c3.2,3.1,7.4,4.8,11.9,4.8c4.4,0,8.7-1.8,11.8-5c3.1-3.1,4.9-7.4,4.9-11.8c-0.1-4.5-1.9-8.8-5.1-11.9
		C46.2,22.5,41.8,20.7,37.4,20.8L37.4,20.8z"/>
	<g>
		<path class="st1" d="M28.9,39.1c1-0.6,1-2.5,0-4.2c-1-1.7-2.6-2.7-3.7-2.1c-1,0.6-1,2.5,0,4.2C26.3,38.7,27.9,39.7,28.9,39.1z
			 M28.9,42.8c1,1.7,1,3.6,0,4.2c-1,0.6-2.6-0.4-3.7-2.1s-1-3.6,0-4.2S27.9,41.1,28.9,42.8z M35.8,46.8c1,1.7,1,3.6,0,4.2
			c-1,0.6-2.6-0.4-3.7-2.1c-1-1.7-1-3.6,0-4.2C33.2,44.1,34.8,45.1,35.8,46.8z M35.8,38.9c1,1.7,1,3.6,0,4.2c-1,0.6-2.6-0.4-3.7-2.1
			c-1-1.7-1-3.6,0-4.2C33.2,36.2,34.8,37.1,35.8,38.9z"/>
		<path class="st2" d="M49.6,37c1-1.7,1-3.6,0-4.2c-1-0.6-2.6,0.4-3.7,2.1c-1,1.7-1,3.6,0,4.2C47,39.7,48.6,38.7,49.6,37z
			 M49.6,40.7c1,0.6,1,2.5,0,4.2c-1,1.7-2.6,2.7-3.7,2.1s-1-2.5,0-4.2C47,41.1,48.6,40.2,49.6,40.7z M42.7,44.7c1,0.6,1,2.5,0,4.2
			c-1,1.7-2.6,2.7-3.7,2.1c-1-0.6-1-2.5,0-4.2C40.1,45.1,41.7,44.1,42.7,44.7z M42.7,36.8c1,0.6,1,2.5,0,4.2c-1,1.7-2.6,2.7-3.7,2.1
			c-1-0.6-1-2.5,0-4.2C40.1,37.1,41.7,36.2,42.7,36.8z"/>
		<path class="st3" d="M41.1,26c0,1.2-1.6,2.1-3.7,2.1c-2,0-3.7-0.9-3.7-2.1s1.6-2.1,3.7-2.1C39.5,23.9,41.1,24.8,41.1,26z M34.2,30
			c0,1.2-1.6,2.1-3.7,2.1s-3.7-0.9-3.7-2.1c0-1.2,1.6-2.1,3.7-2.1S34.2,28.8,34.2,30z M44.3,32.1c2,0,3.7-0.9,3.7-2.1
			c0-1.2-1.6-2.1-3.7-2.1c-2,0-3.7,0.9-3.7,2.1C40.7,31.1,42.3,32.1,44.3,32.1z M41.1,34c0,1.2-1.6,2.1-3.7,2.1
			c-2,0-3.7-0.9-3.7-2.1s1.6-2.1,3.7-2.1C39.5,31.8,41.1,32.8,41.1,34z"/>
	</g>
	<g>
		<path class="st4" d="M37.4,20.8L37.4,20.8L37.4,20.8c0.1,0,0.1,0,0.2,0c4.4,0,8.7,1.7,11.9,4.8c3.2,3.1,5,7.4,5.1,11.9
			c0,4.4-1.8,8.7-4.9,11.8c-3.1,3.1-7.4,4.9-11.8,5c0,0-0.1,0-0.1,0c-4.4,0-8.6-1.7-11.7-4.8c-3.2-3.1-5-7.3-5-11.7
			c-0.1-4.4,1.6-8.7,4.7-11.9C28.7,22.7,32.9,20.9,37.4,20.8 M39.9,18.6l-2.6,0.1c-5,0.1-9.7,2.2-13.2,5.8
			c-3.5,3.6-5.4,8.4-5.3,13.4c0.1,5,2.1,9.7,5.7,13.3c3.6,3.5,8.3,5.4,13.3,5.4l0.1,0c5,0,9.8-2,13.3-5.6c3.5-3.6,5.5-8.3,5.5-13.3
			c-0.1-5.1-2.1-9.9-5.8-13.5c-3-3-6.9-4.8-11.1-5.3L39.9,18.6L39.9,18.6z"/>
	</g>
</g>
</svg>
