<svg width="400" height="400" viewBox="0 0 400 400" fill="none" xmlns="http://www.w3.org/2000/svg">
<circle cx="200" cy="200" r="200" fill="black"/>
<path d="M164.275 274.951C164.275 274.951 153.481 281.51 171.778 283.387C193.804 286.193 205.537 285.728 229.915 281.045C234.815 284.044 239.997 286.555 245.387 288.543C190.54 311.974 121.126 287.14 164.266 274.951H164.275ZM157.254 244.495C157.254 244.495 145.53 253.396 163.818 255.281C187.732 257.623 206.485 258.088 238.849 251.537C241.997 254.727 245.85 257.133 250.099 258.561C183.984 278.239 109.902 260.438 157.254 244.504V244.495ZM286.667 297.9C286.667 297.9 294.635 304.459 277.76 309.616C246.343 318.999 146.004 321.805 117.87 309.616C108.024 305.406 126.777 299.312 132.788 298.373C138.887 296.97 142.178 296.97 142.178 296.97C131.384 289.473 70.4382 312.43 111.236 318.981C223.299 337.256 315.67 311.019 286.597 297.9H286.667ZM169.347 212.628C169.347 212.628 118.238 224.817 151.059 229.026C165.126 230.903 192.786 230.429 218.578 228.562C239.674 226.685 260.788 222.949 260.788 222.949C260.788 222.949 253.285 226.229 248.125 229.509C196.086 243.101 96.2031 237.006 124.811 222.949C149.19 211.234 169.356 212.645 169.356 212.645L169.347 212.628ZM260.788 263.7C313.3 236.515 288.922 210.295 272.038 213.566C267.826 214.504 265.939 215.443 265.939 215.443C265.939 215.443 267.343 212.637 270.625 211.698C303.919 199.983 330.176 246.837 259.831 265.103C259.831 265.103 260.296 264.638 260.77 263.7H260.788ZM174.524 337.73C225.159 341.009 302.533 335.853 304.402 311.948C304.402 311.948 300.655 321.331 262.674 328.347C219.534 336.309 166.082 335.362 134.666 330.223C134.666 330.223 141.23 335.835 174.524 337.721V337.73Z" fill="white"/>
<path d="M228.985 58.0088C228.985 58.0088 258.059 87.526 201.325 132.039C155.841 168.115 191.014 188.732 201.325 212.163C174.595 188.267 155.376 167.177 168.505 147.508C187.723 118.446 240.709 104.477 228.985 58.0088ZM214.067 192.485C227.669 207.945 210.32 222.002 210.32 222.002C210.32 222.002 245.018 204.201 229.073 182.172C214.541 161.091 203.273 150.778 264.237 115.64C264.237 115.64 168.118 139.536 214.067 192.485V192.485Z" fill="white"/>
</svg>
